<svg xmlns="http://www.w3.org/2000/svg" xmlns:xlink="http://www.w3.org/1999/xlink" width="630" zoomAndPan="magnify" viewBox="0 0 472.5 271.499997" height="362" preserveAspectRatio="xMidYMid meet" version="1.0"><defs><g/><clipPath id="e9935c3db2"><path d="M 364 96 L 461 96 L 461 271 L 364 271 Z M 364 96 " clip-rule="nonzero"/></clipPath><clipPath id="ef109bf803"><path d="M 364.851562 252.234375 L 423.363281 96.679688 L 471.710938 114.867188 L 413.199219 270.417969 Z M 364.851562 252.234375 " clip-rule="nonzero"/></clipPath><clipPath id="6d0d2e743a"><path d="M 181.042969 395.523438 L 309.398438 54.285156 L 471.257812 115.167969 L 342.902344 456.40625 Z M 181.042969 395.523438 " clip-rule="nonzero"/></clipPath><clipPath id="d4022f803f"><path d="M 0.183594 0 L 426 0 L 426 262.207031 L 0.183594 262.207031 Z M 0.183594 0 " clip-rule="nonzero"/></clipPath><clipPath id="a5b37a448a"><path d="M 40.609375 0 L 385.398438 0 C 407.722656 0 425.824219 18.097656 425.824219 40.425781 L 425.824219 221.78125 C 425.824219 244.105469 407.722656 262.207031 385.398438 262.207031 L 40.609375 262.207031 C 18.285156 262.207031 0.183594 244.105469 0.183594 221.78125 L 0.183594 40.425781 C 0.183594 18.097656 18.285156 0 40.609375 0 Z M 40.609375 0 " clip-rule="nonzero"/></clipPath><clipPath id="aa7e687474"><path d="M 0.183594 0 L 425.878906 0 L 425.878906 262.207031 L 0.183594 262.207031 Z M 0.183594 0 " clip-rule="nonzero"/></clipPath><clipPath id="6bcffbc9e1"><path d="M 40.609375 0 L 385.398438 0 C 407.722656 0 425.824219 18.097656 425.824219 40.425781 L 425.824219 221.78125 C 425.824219 244.105469 407.722656 262.207031 385.398438 262.207031 L 40.609375 262.207031 C 18.285156 262.207031 0.183594 244.105469 0.183594 221.78125 L 0.183594 40.425781 C 0.183594 18.097656 18.285156 0 40.609375 0 Z M 40.609375 0 " clip-rule="nonzero"/></clipPath><clipPath id="5456f39a8a"><rect x="0" width="426" y="0" height="263"/></clipPath></defs><g clip-path="url(#e9935c3db2)"><g clip-path="url(#ef109bf803)"><g clip-path="url(#6d0d2e743a)"><path fill="#112c59" d="M 327.222656 64.59375 C 336.527344 65.46875 354.320312 71.351562 380.109375 82.078125 C 399.304688 90.0625 415.785156 97.785156 415.949219 97.859375 C 416.816406 98.265625 421.21875 100.742188 422.851562 109.761719 C 423.742188 114.683594 423.644531 120.761719 422.566406 127.832031 C 421.351562 135.804688 418.867188 145.152344 415.171875 155.621094 C 417.566406 156.984375 421.5625 159.007812 426.183594 160.332031 C 435.375 162.964844 443.230469 162.511719 448.320312 157.324219 L 460.128906 145.507812 L 452.980469 159.953125 C 452.820312 160.339844 448.980469 169.640625 440.117188 181.035156 C 434.917969 187.710938 428.363281 192.214844 421.996094 197.421875 C 414.410156 203.621094 407.382812 207.667969 398.53125 211.433594 L 336.808594 395.375 C 336.625 396.066406 335.789062 399.171875 334.191406 403.414062 C 329.769531 415.171875 319.734375 434.980469 302.179688 435.605469 C 292.453125 435.945312 274.230469 430.339844 248.023438 418.933594 C 228.804688 410.566406 211.96875 401.933594 211.796875 401.847656 L 211.515625 401.703125 L 211.265625 401.5 C 210.582031 400.957031 207.089844 397.824219 205.382812 389.621094 C 204.417969 384.957031 204.230469 379.503906 204.824219 373.414062 C 205.554688 365.972656 207.46875 357.507812 210.515625 348.253906 L 291.101562 103.449219 C 291.210938 103.066406 291.683594 101.484375 292.539062 99.121094 L 292.53125 99.117188 L 293.464844 96.65625 C 295.683594 90.972656 299.238281 83.316406 304.191406 76.902344 C 307.269531 72.917969 310.570312 69.851562 313.996094 67.78125 C 318.210938 65.238281 322.660156 64.167969 327.222656 64.59375 Z M 327.222656 64.59375 " fill-opacity="1" fill-rule="nonzero"/></g></g></g><g clip-path="url(#d4022f803f)"><g clip-path="url(#a5b37a448a)"><g><g clip-path="url(#5456f39a8a)"><g clip-path="url(#aa7e687474)"><g clip-path="url(#6bcffbc9e1)"><path fill="#112c59" d="M 0.183594 0 L 426.269531 0 L 426.269531 262.207031 L 0.183594 262.207031 Z M 0.183594 0 " fill-opacity="1" fill-rule="nonzero"/></g></g></g></g></g></g><g fill="#ffffff" fill-opacity="1"><g transform="translate(41.64963, 67.470297)"><g><path d="M 11.796875 -19.03125 C 15.628906 -19.03125 17.546875 -16.90625 17.546875 -12.65625 L 17.546875 0 L 2.578125 0 L 2.578125 -19.03125 Z M 14.90625 -2.09375 L 14.90625 -12.75 C 14.90625 -14.238281 14.585938 -15.304688 13.953125 -15.953125 C 13.316406 -16.609375 12.398438 -16.9375 11.203125 -16.9375 L 5.203125 -16.9375 L 5.203125 -2.09375 Z M 14.90625 -2.09375 "/></g></g></g><g fill="#ffffff" fill-opacity="1"><g transform="translate(61.527812, 67.470297)"><g><path d="M 2.671875 -15.015625 L 2.234375 -19.03125 L 4.828125 -19.03125 L 5.3125 -15.015625 L 5.3125 -9.90625 L 5.28125 -7.75 L 2.671875 -7.203125 Z M 2.671875 -15.015625 "/></g></g></g><g fill="#ffffff" fill-opacity="1"><g transform="translate(69.204904, 67.470297)"><g><path d="M 11.171875 -12.75 C 11.171875 -14.238281 10.847656 -15.304688 10.203125 -15.953125 C 9.566406 -16.609375 8.65625 -16.9375 7.46875 -16.9375 L 1.40625 -16.9375 L 1.40625 -19.03125 L 8.0625 -19.03125 C 11.894531 -19.03125 13.8125 -16.90625 13.8125 -12.65625 L 13.8125 0 L 11.171875 0 Z M 11.171875 -12.75 "/></g></g></g><g fill="#ffffff" fill-opacity="1"><g transform="translate(85.415909, 67.470297)"><g><path d="M 10.484375 -12.921875 C 10.484375 -14.679688 10.796875 -16.019531 11.421875 -16.9375 L 1.8125 -16.9375 L 1.8125 -19.03125 L 16.484375 -19.03125 L 16.484375 -16.9375 L 13.953125 -16.9375 C 13.398438 -16 13.125 -14.660156 13.125 -12.921875 L 13.125 0 L 10.484375 0 Z M 10.484375 -12.921875 "/></g></g></g><g fill="#ffffff" fill-opacity="1"><g transform="translate(103.786099, 67.470297)"><g><path d="M 2.671875 -15.015625 L 2.234375 -19.03125 L 4.828125 -19.03125 L 5.3125 -15.015625 L 5.3125 0 L 2.671875 0 Z M 2.671875 -15.015625 "/></g></g></g><g fill="#ffffff" fill-opacity="1"><g transform="translate(111.463191, 67.470297)"><g><path d="M 17.59375 -11 C 17.8125 -3.851562 13.285156 -0.0703125 4.015625 0.34375 L 1.921875 -16.9375 L 1.6875 -19.03125 L 11.03125 -19.03125 C 13.050781 -19.03125 14.625 -18.40625 15.75 -17.15625 C 16.882812 -15.914062 17.484375 -14.21875 17.546875 -12.0625 Z M 6.34375 -2.09375 C 9.0625 -2.34375 11.207031 -3.128906 12.78125 -4.453125 C 14.363281 -5.773438 15.085938 -7.984375 14.953125 -11.078125 L 14.953125 -11.890625 C 14.953125 -13.378906 14.585938 -14.59375 13.859375 -15.53125 C 13.140625 -16.46875 12.128906 -16.9375 10.828125 -16.9375 L 4.5625 -16.9375 Z M 6.34375 -2.09375 "/></g></g></g><g fill="#ffffff" fill-opacity="1"><g transform="translate(130.827289, 67.470297)"><g><path d="M 18.984375 -9.703125 C 18.984375 -6.453125 18.300781 -3.957031 16.9375 -2.21875 C 15.582031 -0.488281 13.640625 0.375 11.109375 0.375 C 10.234375 0.375 9.296875 0.269531 8.296875 0.0625 L 8.578125 -2.015625 C 9.328125 -1.835938 10.101562 -1.75 10.90625 -1.75 C 12.800781 -1.75 14.195312 -2.40625 15.09375 -3.71875 C 16 -5.03125 16.453125 -6.988281 16.453125 -9.59375 C 16.453125 -14.582031 14.816406 -17.078125 11.546875 -17.078125 C 10.316406 -17.078125 9.320312 -16.722656 8.5625 -16.015625 C 7.8125 -15.304688 7.300781 -14.378906 7.03125 -13.234375 L 4.59375 0 L 1.953125 0 L 4.484375 -13.328125 L 1.84375 -19.03125 L 4.59375 -19.03125 L 6.3125 -14.90625 C 6.769531 -16.351562 7.5 -17.4375 8.5 -18.15625 C 9.507812 -18.875 10.65625 -19.234375 11.9375 -19.234375 C 14.101562 -19.234375 15.816406 -18.484375 17.078125 -16.984375 C 18.347656 -15.484375 18.984375 -13.054688 18.984375 -9.703125 Z M 18.984375 -9.703125 "/></g></g></g><g fill="#ffffff" fill-opacity="1"><g transform="translate(151.562292, 67.470297)"><g/></g></g><g fill="#ffffff" fill-opacity="1"><g transform="translate(158.416844, 67.470297)"><g><path d="M 11.796875 -19.03125 C 15.628906 -19.03125 17.546875 -16.90625 17.546875 -12.65625 L 17.546875 0 L 2.578125 0 L 2.578125 -19.03125 Z M 14.90625 -2.09375 L 14.90625 -12.75 C 14.90625 -14.238281 14.585938 -15.304688 13.953125 -15.953125 C 13.316406 -16.609375 12.398438 -16.9375 11.203125 -16.9375 L 5.203125 -16.9375 L 5.203125 -2.09375 Z M 14.90625 -2.09375 "/></g></g></g><g fill="#ffffff" fill-opacity="1"><g transform="translate(178.295026, 67.470297)"><g><path d="M 2.671875 -15.015625 L 2.234375 -19.03125 L 4.828125 -19.03125 L 5.3125 -15.015625 L 5.3125 -9.90625 L 5.28125 -7.75 L 2.671875 -7.203125 Z M 2.671875 -15.015625 "/></g></g></g><g fill="#ffffff" fill-opacity="1"><g transform="translate(185.972118, 67.470297)"><g><path d="M 1.640625 -2.09375 L 7.609375 -2.09375 L 7.609375 -13.5 C 7.609375 -14.625 7.382812 -15.453125 6.9375 -15.984375 C 6.5 -16.523438 5.832031 -16.863281 4.9375 -17 L 2.640625 -17.34375 L 3.015625 -19.40625 L 6 -18.953125 C 7.375 -18.722656 8.425781 -18.15625 9.15625 -17.25 C 9.882812 -16.351562 10.25 -15.128906 10.25 -13.578125 L 10.25 0 L 1.640625 0 Z M 1.640625 -2.09375 "/></g></g></g><g fill="#ffffff" fill-opacity="1"><g transform="translate(198.584484, 67.470297)"><g><path d="M 8.640625 0 L 7.78125 -4.65625 C 7.113281 -3.40625 6.296875 -2.351562 5.328125 -1.5 C 4.359375 -0.65625 3.195312 0.00390625 1.84375 0.484375 L 0.890625 -1.640625 C 2.421875 -2.191406 3.710938 -2.910156 4.765625 -3.796875 C 5.816406 -4.691406 6.675781 -5.835938 7.34375 -7.234375 L 7.34375 -13.546875 C 7.34375 -14.679688 7.195312 -15.503906 6.90625 -16.015625 C 6.625 -16.535156 6.082031 -16.863281 5.28125 -17 L 3.078125 -17.34375 L 3.46875 -19.40625 L 6.34375 -18.953125 C 7.664062 -18.753906 8.597656 -18.242188 9.140625 -17.421875 C 9.691406 -16.597656 9.96875 -15.375 9.96875 -13.75 L 9.96875 -7.125 L 11.171875 0 Z M 8.640625 0 "/></g></g></g><g fill="#ffffff" fill-opacity="1"><g transform="translate(211.333938, 67.470297)"><g><path d="M 2.671875 -15.015625 L 2.234375 -19.03125 L 4.828125 -19.03125 L 5.3125 -15.015625 L 5.3125 0 L 2.671875 0 Z M 2.671875 -15.015625 "/></g></g></g><g fill="#ffffff" fill-opacity="1"><g transform="translate(219.01103, 67.470297)"><g><path d="M 18.984375 -9.703125 C 18.984375 -6.453125 18.300781 -3.957031 16.9375 -2.21875 C 15.582031 -0.488281 13.640625 0.375 11.109375 0.375 C 10.234375 0.375 9.296875 0.269531 8.296875 0.0625 L 8.578125 -2.015625 C 9.328125 -1.835938 10.101562 -1.75 10.90625 -1.75 C 12.800781 -1.75 14.195312 -2.40625 15.09375 -3.71875 C 16 -5.03125 16.453125 -6.988281 16.453125 -9.59375 C 16.453125 -14.582031 14.816406 -17.078125 11.546875 -17.078125 C 10.316406 -17.078125 9.320312 -16.722656 8.5625 -16.015625 C 7.8125 -15.304688 7.300781 -14.378906 7.03125 -13.234375 L 4.59375 0 L 1.953125 0 L 4.484375 -13.328125 L 1.84375 -19.03125 L 4.59375 -19.03125 L 6.3125 -14.90625 C 6.769531 -16.351562 7.5 -17.4375 8.5 -18.15625 C 9.507812 -18.875 10.65625 -19.234375 11.9375 -19.234375 C 14.101562 -19.234375 15.816406 -18.484375 17.078125 -16.984375 C 18.347656 -15.484375 18.984375 -13.054688 18.984375 -9.703125 Z M 18.984375 -9.703125 "/></g></g></g><g fill="#ffffff" fill-opacity="1"><g transform="translate(239.746044, 67.470297)"><g><path d="M 13.8125 -12.75 C 13.8125 -14.238281 13.488281 -15.304688 12.84375 -15.953125 C 12.207031 -16.609375 11.296875 -16.9375 10.109375 -16.9375 L 2.09375 -16.9375 L 2.09375 -19.03125 L 10.703125 -19.03125 C 14.535156 -19.03125 16.453125 -16.90625 16.453125 -12.65625 L 16.453125 0 L 13.8125 0 Z M 2.0625 -9.25 L 2.4375 -11.546875 L 4.703125 -11.546875 L 4.703125 0 L 2.0625 0 Z M 2.0625 -9.25 "/></g></g></g><g fill="#ffffff" fill-opacity="1"><g transform="translate(258.458948, 67.470297)"><g/></g></g><g fill="#ffffff" fill-opacity="1"><g transform="translate(265.313489, 67.470297)"><g><path d="M 11.796875 -19.03125 C 15.628906 -19.03125 17.546875 -16.90625 17.546875 -12.65625 L 17.546875 0 L 2.578125 0 L 2.578125 -19.03125 Z M 14.90625 -2.09375 L 14.90625 -12.75 C 14.90625 -14.238281 14.585938 -15.304688 13.953125 -15.953125 C 13.316406 -16.609375 12.398438 -16.9375 11.203125 -16.9375 L 5.203125 -16.9375 L 5.203125 -2.09375 Z M 14.90625 -2.09375 "/></g></g></g><g fill="#ffffff" fill-opacity="1"><g transform="translate(285.191682, 67.470297)"><g><path d="M 2.671875 -15.015625 L 2.234375 -19.03125 L 4.828125 -19.03125 L 5.3125 -15.015625 L 5.3125 -9.90625 L 5.28125 -7.75 L 2.671875 -7.203125 Z M 2.671875 -15.015625 "/></g></g></g><g fill="#ffffff" fill-opacity="1"><g transform="translate(292.868774, 67.470297)"><g><path d="M 16.6875 -2.09375 L 16.6875 0 L 1.75 0 L 1.75 -2.09375 L 11.625 -2.09375 L 11.625 -12.75 C 11.625 -14.238281 11.300781 -15.304688 10.65625 -15.953125 C 10.019531 -16.609375 9.109375 -16.9375 7.921875 -16.9375 L 1.75 -16.9375 L 1.75 -19.03125 L 8.5 -19.03125 C 12.34375 -19.03125 14.265625 -16.90625 14.265625 -12.65625 L 14.265625 -2.09375 Z M 16.6875 -2.09375 "/></g></g></g><g fill="#ffffff" fill-opacity="1"><g transform="translate(310.896228, 67.470297)"><g><path d="M 11.203125 -19.03125 C 13.035156 -19.03125 14.453125 -18.453125 15.453125 -17.296875 C 16.460938 -16.140625 16.96875 -14.429688 16.96875 -12.171875 L 16.96875 0 L 14.328125 0 L 14.328125 -12.265625 C 14.328125 -13.796875 14.007812 -14.957031 13.375 -15.75 C 12.75 -16.539062 11.832031 -16.9375 10.625 -16.9375 L 4.796875 -16.9375 L 4.796875 0 L 2.15625 0 L 2.15625 -19.03125 Z M 11.203125 -19.03125 "/></g></g></g><g fill="#ffffff" fill-opacity="1"><g transform="translate(330.191776, 67.470297)"><g><path d="M 11.171875 -12.75 C 11.171875 -14.238281 10.847656 -15.304688 10.203125 -15.953125 C 9.566406 -16.609375 8.65625 -16.9375 7.46875 -16.9375 L 1.40625 -16.9375 L 1.40625 -19.03125 L 8.0625 -19.03125 C 11.894531 -19.03125 13.8125 -16.90625 13.8125 -12.65625 L 13.8125 0 L 11.171875 0 Z M 11.171875 -12.75 "/></g></g></g><g fill="#ffffff" fill-opacity="1"><g transform="translate(346.402781, 67.470297)"><g><path d="M 18.984375 -9.703125 C 18.984375 -6.453125 18.300781 -3.957031 16.9375 -2.21875 C 15.582031 -0.488281 13.640625 0.375 11.109375 0.375 C 10.234375 0.375 9.296875 0.269531 8.296875 0.0625 L 8.578125 -2.015625 C 9.328125 -1.835938 10.101562 -1.75 10.90625 -1.75 C 12.800781 -1.75 14.195312 -2.40625 15.09375 -3.71875 C 16 -5.03125 16.453125 -6.988281 16.453125 -9.59375 C 16.453125 -14.582031 14.816406 -17.078125 11.546875 -17.078125 C 10.316406 -17.078125 9.320312 -16.722656 8.5625 -16.015625 C 7.8125 -15.304688 7.300781 -14.378906 7.03125 -13.234375 L 4.59375 0 L 1.953125 0 L 4.484375 -13.328125 L 1.84375 -19.03125 L 4.59375 -19.03125 L 6.3125 -14.90625 C 6.769531 -16.351562 7.5 -17.4375 8.5 -18.15625 C 9.507812 -18.875 10.65625 -19.234375 11.9375 -19.234375 C 14.101562 -19.234375 15.816406 -18.484375 17.078125 -16.984375 C 18.347656 -15.484375 18.984375 -13.054688 18.984375 -9.703125 Z M 18.984375 -9.703125 "/></g></g></g><g fill="#ffffff" fill-opacity="1"><g transform="translate(367.137772, 67.470297)"><g><path d="M 13.8125 -12.75 C 13.8125 -14.238281 13.488281 -15.304688 12.84375 -15.953125 C 12.207031 -16.609375 11.296875 -16.9375 10.109375 -16.9375 L 2.09375 -16.9375 L 2.09375 -19.03125 L 10.703125 -19.03125 C 14.535156 -19.03125 16.453125 -16.90625 16.453125 -12.65625 L 16.453125 0 L 13.8125 0 Z M 2.0625 -9.25 L 2.4375 -11.546875 L 4.703125 -11.546875 L 4.703125 0 L 2.0625 0 Z M 2.0625 -9.25 "/></g></g></g><g fill="#ffffff" fill-opacity="1"><g transform="translate(41.988849, 115.38206)"><g><path d="M 16.6875 -2.09375 L 16.6875 0 L 1.75 0 L 1.75 -2.09375 L 11.625 -2.09375 L 11.625 -12.75 C 11.625 -14.238281 11.300781 -15.304688 10.65625 -15.953125 C 10.019531 -16.609375 9.109375 -16.9375 7.921875 -16.9375 L 1.75 -16.9375 L 1.75 -19.03125 L 8.5 -19.03125 C 12.34375 -19.03125 14.265625 -16.90625 14.265625 -12.65625 L 14.265625 -2.09375 Z M 16.6875 -2.09375 "/></g></g></g><g fill="#ffffff" fill-opacity="1"><g transform="translate(60.016302, 115.38206)"><g><path d="M 2.671875 -15.015625 L 2.234375 -19.03125 L 4.828125 -19.03125 L 5.3125 -15.015625 L 5.3125 0 L 2.671875 0 Z M 2.671875 -15.015625 "/></g></g></g><g fill="#ffffff" fill-opacity="1"><g transform="translate(67.693394, 115.38206)"><g><path d="M 1.6875 -19.03125 L 4.3125 -19.03125 L 6.3125 -2.09375 C 8.957031 -2.363281 11.070312 -3.226562 12.65625 -4.6875 C 14.25 -6.15625 14.988281 -8.382812 14.875 -11.375 L 14.875 -12.234375 C 14.875 -13.648438 14.507812 -14.789062 13.78125 -15.65625 C 13.050781 -16.53125 11.953125 -17.015625 10.484375 -17.109375 L 8.78125 -17.203125 L 8.953125 -19.328125 L 10.859375 -19.203125 C 12.878906 -19.085938 14.460938 -18.476562 15.609375 -17.375 C 16.765625 -16.28125 17.378906 -14.679688 17.453125 -12.578125 L 17.484375 -11.625 C 17.617188 -7.6875 16.453125 -4.757812 13.984375 -2.84375 C 11.515625 -0.925781 8.179688 0.132812 3.984375 0.34375 Z M 1.6875 -19.03125 "/></g></g></g><g fill="#ffffff" fill-opacity="1"><g transform="translate(86.646218, 115.38206)"><g/></g></g><g fill="#ffffff" fill-opacity="1"><g transform="translate(93.50077, 115.38206)"><g><path d="M 2.671875 -15.015625 L 2.234375 -19.03125 L 4.828125 -19.03125 L 5.3125 -15.015625 L 5.3125 -9.90625 L 5.28125 -7.75 L 2.671875 -7.203125 Z M 2.671875 -15.015625 "/></g></g></g><g fill="#ffffff" fill-opacity="1"><g transform="translate(101.177862, 115.38206)"><g><path d="M 1.546875 -2.09375 L 6.0625 -2.09375 C 7.914062 -2.09375 9.3125 -2.628906 10.25 -3.703125 C 11.1875 -4.773438 11.65625 -6.351562 11.65625 -8.4375 L 11.65625 -10.59375 C 11.65625 -12.675781 11.1875 -14.253906 10.25 -15.328125 C 9.3125 -16.398438 7.914062 -16.9375 6.0625 -16.9375 L 1.546875 -16.9375 L 1.546875 -19.03125 L 6.578125 -19.03125 C 9.046875 -19.03125 10.945312 -18.296875 12.28125 -16.828125 C 13.625 -15.367188 14.296875 -13.253906 14.296875 -10.484375 L 14.296875 -8.53125 C 14.296875 -5.769531 13.625 -3.65625 12.28125 -2.1875 C 10.945312 -0.726562 9.046875 0 6.578125 0 L 1.546875 0 Z M 1.546875 -2.09375 "/></g></g></g><g fill="#ffffff" fill-opacity="1"><g transform="translate(117.320317, 115.38206)"><g><path d="M 13.8125 -12.75 C 13.8125 -14.238281 13.488281 -15.304688 12.84375 -15.953125 C 12.207031 -16.609375 11.296875 -16.9375 10.109375 -16.9375 L 2.09375 -16.9375 L 2.09375 -19.03125 L 10.703125 -19.03125 C 14.535156 -19.03125 16.453125 -16.90625 16.453125 -12.65625 L 16.453125 0 L 13.8125 0 Z M 2.0625 -9.25 L 2.4375 -11.546875 L 4.703125 -11.546875 L 4.703125 0 L 2.0625 0 Z M 2.0625 -9.25 "/></g></g></g><g fill="#ffffff" fill-opacity="1"><g transform="translate(136.033233, 115.38206)"><g/></g></g><g fill="#ffffff" fill-opacity="1"><g transform="translate(142.887785, 115.38206)"><g><path d="M 16.6875 -2.09375 L 16.6875 0 L 1.75 0 L 1.75 -2.09375 L 11.625 -2.09375 L 11.625 -12.75 C 11.625 -14.238281 11.300781 -15.304688 10.65625 -15.953125 C 10.019531 -16.609375 9.109375 -16.9375 7.921875 -16.9375 L 1.75 -16.9375 L 1.75 -19.03125 L 8.5 -19.03125 C 12.34375 -19.03125 14.265625 -16.90625 14.265625 -12.65625 L 14.265625 -2.09375 Z M 16.6875 -2.09375 "/></g></g></g><g fill="#ffffff" fill-opacity="1"><g transform="translate(160.915239, 115.38206)"><g><path d="M 11.203125 -19.03125 C 13.035156 -19.03125 14.453125 -18.453125 15.453125 -17.296875 C 16.460938 -16.140625 16.96875 -14.429688 16.96875 -12.171875 L 16.96875 0 L 14.328125 0 L 14.328125 -12.265625 C 14.328125 -13.796875 14.007812 -14.957031 13.375 -15.75 C 12.75 -16.539062 11.832031 -16.9375 10.625 -16.9375 L 4.796875 -16.9375 L 4.796875 0 L 2.15625 0 L 2.15625 -19.03125 Z M 11.203125 -19.03125 "/></g></g></g><g fill="#ffffff" fill-opacity="1"><g transform="translate(180.210787, 115.38206)"><g><path d="M 11.171875 -12.75 C 11.171875 -14.238281 10.847656 -15.304688 10.203125 -15.953125 C 9.566406 -16.609375 8.65625 -16.9375 7.46875 -16.9375 L 1.40625 -16.9375 L 1.40625 -19.03125 L 8.0625 -19.03125 C 11.894531 -19.03125 13.8125 -16.90625 13.8125 -12.65625 L 13.8125 0 L 11.171875 0 Z M 11.171875 -12.75 "/></g></g></g><g fill="#ffffff" fill-opacity="1"><g transform="translate(196.421792, 115.38206)"><g><path d="M 18.984375 -9.703125 C 18.984375 -6.453125 18.300781 -3.957031 16.9375 -2.21875 C 15.582031 -0.488281 13.640625 0.375 11.109375 0.375 C 10.234375 0.375 9.296875 0.269531 8.296875 0.0625 L 8.578125 -2.015625 C 9.328125 -1.835938 10.101562 -1.75 10.90625 -1.75 C 12.800781 -1.75 14.195312 -2.40625 15.09375 -3.71875 C 16 -5.03125 16.453125 -6.988281 16.453125 -9.59375 C 16.453125 -14.582031 14.816406 -17.078125 11.546875 -17.078125 C 10.316406 -17.078125 9.320312 -16.722656 8.5625 -16.015625 C 7.8125 -15.304688 7.300781 -14.378906 7.03125 -13.234375 L 4.59375 0 L 1.953125 0 L 4.484375 -13.328125 L 1.84375 -19.03125 L 4.59375 -19.03125 L 6.3125 -14.90625 C 6.769531 -16.351562 7.5 -17.4375 8.5 -18.15625 C 9.507812 -18.875 10.65625 -19.234375 11.9375 -19.234375 C 14.101562 -19.234375 15.816406 -18.484375 17.078125 -16.984375 C 18.347656 -15.484375 18.984375 -13.054688 18.984375 -9.703125 Z M 18.984375 -9.703125 "/></g></g></g><g fill="#ffffff" fill-opacity="1"><g transform="translate(217.156795, 115.38206)"><g><path d="M 13.8125 -12.75 C 13.8125 -14.238281 13.488281 -15.304688 12.84375 -15.953125 C 12.207031 -16.609375 11.296875 -16.9375 10.109375 -16.9375 L 2.09375 -16.9375 L 2.09375 -19.03125 L 10.703125 -19.03125 C 14.535156 -19.03125 16.453125 -16.90625 16.453125 -12.65625 L 16.453125 0 L 13.8125 0 Z M 2.0625 -9.25 L 2.4375 -11.546875 L 4.703125 -11.546875 L 4.703125 0 L 2.0625 0 Z M 2.0625 -9.25 "/></g></g></g><g fill="#ffffff" fill-opacity="1"><g transform="translate(235.869699, 115.38206)"><g><path d="M 18.984375 -9.703125 C 18.984375 -6.453125 18.300781 -3.957031 16.9375 -2.21875 C 15.582031 -0.488281 13.640625 0.375 11.109375 0.375 C 10.234375 0.375 9.296875 0.269531 8.296875 0.0625 L 8.578125 -2.015625 C 9.328125 -1.835938 10.101562 -1.75 10.90625 -1.75 C 12.800781 -1.75 14.195312 -2.40625 15.09375 -3.71875 C 16 -5.03125 16.453125 -6.988281 16.453125 -9.59375 C 16.453125 -14.582031 14.816406 -17.078125 11.546875 -17.078125 C 10.316406 -17.078125 9.320312 -16.722656 8.5625 -16.015625 C 7.8125 -15.304688 7.300781 -14.378906 7.03125 -13.234375 L 4.59375 0 L 1.953125 0 L 4.484375 -13.328125 L 1.84375 -19.03125 L 4.59375 -19.03125 L 6.3125 -14.90625 C 6.769531 -16.351562 7.5 -17.4375 8.5 -18.15625 C 9.507812 -18.875 10.65625 -19.234375 11.9375 -19.234375 C 14.101562 -19.234375 15.816406 -18.484375 17.078125 -16.984375 C 18.347656 -15.484375 18.984375 -13.054688 18.984375 -9.703125 Z M 18.984375 -9.703125 "/></g></g></g><g fill="#ffffff" fill-opacity="1"><g transform="translate(256.604713, 115.38206)"><g/></g></g><g fill="#ffffff" fill-opacity="1"><g transform="translate(263.459253, 115.38206)"><g><path d="M 11.171875 -12.75 C 11.171875 -14.238281 10.847656 -15.304688 10.203125 -15.953125 C 9.566406 -16.609375 8.65625 -16.9375 7.46875 -16.9375 L 1.40625 -16.9375 L 1.40625 -19.03125 L 8.0625 -19.03125 C 11.894531 -19.03125 13.8125 -16.90625 13.8125 -12.65625 L 13.8125 0 L 11.171875 0 Z M 11.171875 -12.75 "/></g></g></g><g fill="#ffffff" fill-opacity="1"><g transform="translate(279.670258, 115.38206)"><g><path d="M 10.484375 -12.921875 C 10.484375 -14.679688 10.796875 -16.019531 11.421875 -16.9375 L 1.8125 -16.9375 L 1.8125 -19.03125 L 16.484375 -19.03125 L 16.484375 -16.9375 L 13.953125 -16.9375 C 13.398438 -16 13.125 -14.660156 13.125 -12.921875 L 13.125 0 L 10.484375 0 Z M 10.484375 -12.921875 "/></g></g></g><g fill="#ffffff" fill-opacity="1"><g transform="translate(298.040448, 115.38206)"><g><path d="M 17.59375 -11 C 17.8125 -3.851562 13.285156 -0.0703125 4.015625 0.34375 L 1.921875 -16.9375 L 1.6875 -19.03125 L 11.03125 -19.03125 C 13.050781 -19.03125 14.625 -18.40625 15.75 -17.15625 C 16.882812 -15.914062 17.484375 -14.21875 17.546875 -12.0625 Z M 6.34375 -2.09375 C 9.0625 -2.34375 11.207031 -3.128906 12.78125 -4.453125 C 14.363281 -5.773438 15.085938 -7.984375 14.953125 -11.078125 L 14.953125 -11.890625 C 14.953125 -13.378906 14.585938 -14.59375 13.859375 -15.53125 C 13.140625 -16.46875 12.128906 -16.9375 10.828125 -16.9375 L 4.5625 -16.9375 Z M 6.34375 -2.09375 "/></g></g></g><g fill="#ffffff" fill-opacity="1"><g transform="translate(317.404559, 115.38206)"><g><path d="M 13.8125 -12.75 C 13.8125 -14.238281 13.488281 -15.304688 12.84375 -15.953125 C 12.207031 -16.609375 11.296875 -16.9375 10.109375 -16.9375 L 2.09375 -16.9375 L 2.09375 -19.03125 L 10.703125 -19.03125 C 14.535156 -19.03125 16.453125 -16.90625 16.453125 -12.65625 L 16.453125 0 L 13.8125 0 Z M 2.0625 -9.25 L 2.4375 -11.546875 L 4.703125 -11.546875 L 4.703125 0 L 2.0625 0 Z M 2.0625 -9.25 "/></g></g></g><g fill="#ffffff" fill-opacity="1"><g transform="translate(336.117463, 115.38206)"><g/></g></g><g fill="#ffffff" fill-opacity="1"><g transform="translate(342.972027, 115.38206)"><g><path d="M 2.671875 -15.015625 L 2.234375 -19.03125 L 4.828125 -19.03125 L 5.3125 -15.015625 L 5.3125 -9.90625 L 5.28125 -7.75 L 2.671875 -7.203125 Z M 2.671875 -15.015625 "/></g></g></g><g fill="#ffffff" fill-opacity="1"><g transform="translate(350.649119, 115.38206)"><g><path d="M 2.609375 -2.09375 L 8.234375 -2.09375 C 10.015625 -2.09375 11.4375 -2.585938 12.5 -3.578125 C 13.5625 -4.578125 14.09375 -6.21875 14.09375 -8.5 L 14.09375 -10.59375 C 14.09375 -12.675781 13.691406 -14.253906 12.890625 -15.328125 C 12.085938 -16.398438 10.875 -16.9375 9.25 -16.9375 L 5.65625 -16.9375 L 4.765625 -13.125 C 4.628906 -12.488281 4.5625 -11.921875 4.5625 -11.421875 C 4.5625 -10.640625 4.769531 -10.03125 5.1875 -9.59375 C 5.613281 -9.164062 6.316406 -8.859375 7.296875 -8.671875 L 6.75 -6.859375 C 5.15625 -7.015625 3.992188 -7.460938 3.265625 -8.203125 C 2.546875 -8.953125 2.1875 -9.988281 2.1875 -11.3125 C 2.1875 -11.945312 2.257812 -12.617188 2.40625 -13.328125 L 3.703125 -19.03125 L 9.703125 -19.03125 C 11.921875 -19.03125 13.640625 -18.296875 14.859375 -16.828125 C 16.078125 -15.367188 16.703125 -13.269531 16.734375 -10.53125 L 16.734375 -8.609375 C 16.734375 -5.628906 15.988281 -3.445312 14.5 -2.0625 C 13.007812 -0.6875 11.066406 0 8.671875 0 L 2.609375 0 Z M 2.609375 -2.09375 "/></g></g></g><g fill="#ffffff" fill-opacity="1"><g transform="translate(369.190678, 115.38206)"><g><path d="M 14.734375 -19.03125 L 14.734375 -16.796875 L 8.125 0 L 5.484375 0 L 12.09375 -16.9375 L 1.46875 -16.9375 L 1.46875 -24.578125 L 3.90625 -24.578125 L 3.90625 -19.03125 Z M 14.734375 -19.03125 "/></g></g></g><g fill="#ffffff" fill-opacity="1"><g transform="translate(52.890646, 163.293822)"><g><path d="M 14.734375 -19.03125 L 14.734375 -16.796875 L 8.125 0 L 5.484375 0 L 12.09375 -16.9375 L 1.46875 -16.9375 L 1.46875 -24.578125 L 3.90625 -24.578125 L 3.90625 -19.03125 Z M 14.734375 -19.03125 "/></g></g></g><g fill="#ffffff" fill-opacity="1"><g transform="translate(69.204469, 163.293822)"><g><path d="M 16.390625 -19.03125 C 16.390625 -14.320312 16.210938 -10.8125 15.859375 -8.5 C 15.503906 -6.195312 14.664062 -4.367188 13.34375 -3.015625 C 12.03125 -1.671875 9.925781 -0.710938 7.03125 -0.140625 L 1.265625 1 L 0.890625 -1.125 L 6.953125 -2.296875 L 2.53125 -19.03125 L 5.171875 -19.03125 L 9.359375 -2.984375 C 10.773438 -3.554688 11.789062 -4.441406 12.40625 -5.640625 C 13.019531 -6.835938 13.394531 -8.367188 13.53125 -10.234375 C 13.675781 -12.097656 13.757812 -15.03125 13.78125 -19.03125 Z M 16.390625 -19.03125 "/></g></g></g><g fill="#ffffff" fill-opacity="1"><g transform="translate(87.403291, 163.293822)"><g/></g></g><g fill="#ffffff" fill-opacity="1"><g transform="translate(94.257843, 163.293822)"><g><path d="M 2.671875 -15.015625 L 2.234375 -19.03125 L 4.828125 -19.03125 L 5.3125 -15.015625 L 5.3125 0 L 2.671875 0 Z M 2.671875 -15.015625 "/></g></g></g><g fill="#ffffff" fill-opacity="1"><g transform="translate(101.934935, 163.293822)"><g><path d="M 16.078125 0 L 1.34375 0 L 1.34375 -2.09375 L 12.140625 -2.09375 L 2.015625 -19.03125 L 4.765625 -19.03125 L 9.640625 -10.828125 L 13.125 -19.03125 L 15.796875 -19.03125 L 11.078125 -8.4375 Z M 16.078125 0 "/></g></g></g><g fill="#ffffff" fill-opacity="1"><g transform="translate(119.653943, 163.293822)"><g><path d="M 11.203125 -19.03125 C 13.035156 -19.03125 14.453125 -18.453125 15.453125 -17.296875 C 16.460938 -16.140625 16.96875 -14.429688 16.96875 -12.171875 L 16.96875 0 L 14.328125 0 L 14.328125 -12.265625 C 14.328125 -13.796875 14.007812 -14.957031 13.375 -15.75 C 12.75 -16.539062 11.832031 -16.9375 10.625 -16.9375 L 4.796875 -16.9375 L 4.796875 0 L 2.15625 0 L 2.15625 -19.03125 Z M 11.203125 -19.03125 "/></g></g></g><g fill="#ffffff" fill-opacity="1"><g transform="translate(138.949492, 163.293822)"><g><path d="M 14.734375 -19.03125 L 14.734375 -16.796875 L 8.125 0 L 5.484375 0 L 12.09375 -16.9375 L 1.46875 -16.9375 L 1.46875 -24.578125 L 3.90625 -24.578125 L 3.90625 -19.03125 Z M 14.734375 -19.03125 "/></g></g></g><g fill="#ffffff" fill-opacity="1"><g transform="translate(155.263316, 163.293822)"><g><path d="M 0.75 -1.40625 C 2.101562 -1.519531 3.035156 -1.898438 3.546875 -2.546875 C 4.054688 -3.203125 4.3125 -4.191406 4.3125 -5.515625 L 4.3125 -19.03125 L 12.71875 -19.03125 C 16.5625 -19.03125 18.484375 -16.90625 18.484375 -12.65625 L 18.484375 0 L 15.84375 0 L 15.84375 -12.75 C 15.84375 -14.238281 15.519531 -15.304688 14.875 -15.953125 C 14.238281 -16.609375 13.328125 -16.9375 12.140625 -16.9375 L 6.953125 -16.9375 L 6.953125 -5.796875 C 6.953125 -3.785156 6.484375 -2.28125 5.546875 -1.28125 C 4.609375 -0.289062 3.101562 0.296875 1.03125 0.484375 Z M 0.75 -1.40625 "/></g></g></g><g fill="#ffffff" fill-opacity="1"><g transform="translate(182.85287, 163.293822)"><g><path d="M 4.28125 -3.59375 C 4.96875 -3.59375 5.507812 -3.316406 5.90625 -2.765625 C 6.3125 -2.222656 6.515625 -1.472656 6.515625 -0.515625 C 6.515625 0.878906 6.128906 2.117188 5.359375 3.203125 C 4.597656 4.285156 3.566406 5.113281 2.265625 5.6875 L 1.609375 4.1875 C 2.546875 3.769531 3.269531 3.207031 3.78125 2.5 C 4.300781 1.789062 4.570312 0.96875 4.59375 0.03125 C 4.519531 0.0507812 4.40625 0.0625 4.25 0.0625 C 3.695312 0.0625 3.238281 -0.0976562 2.875 -0.421875 C 2.507812 -0.753906 2.328125 -1.207031 2.328125 -1.78125 C 2.328125 -2.332031 2.519531 -2.769531 2.90625 -3.09375 C 3.300781 -3.425781 3.757812 -3.59375 4.28125 -3.59375 Z M 4.28125 -3.59375 "/></g></g></g><g fill="#ffffff" fill-opacity="1"><g transform="translate(191.146876, 163.293822)"><g><path d="M 16.6875 -2.09375 L 16.6875 0 L 1.75 0 L 1.75 -2.09375 L 11.625 -2.09375 L 11.625 -12.75 C 11.625 -14.238281 11.300781 -15.304688 10.65625 -15.953125 C 10.019531 -16.609375 9.109375 -16.9375 7.921875 -16.9375 L 1.75 -16.9375 L 1.75 -19.03125 L 8.5 -19.03125 C 12.34375 -19.03125 14.265625 -16.90625 14.265625 -12.65625 L 14.265625 -2.09375 Z M 16.6875 -2.09375 "/></g></g></g><g fill="#ffffff" fill-opacity="1"><g transform="translate(209.174329, 163.293822)"><g><path d="M 2.671875 -15.015625 L 2.234375 -19.03125 L 4.828125 -19.03125 L 5.3125 -15.015625 L 5.3125 0 L 2.671875 0 Z M 2.671875 -15.015625 "/></g></g></g><g fill="#ffffff" fill-opacity="1"><g transform="translate(216.851421, 163.293822)"><g><path d="M 1.6875 -19.03125 L 4.3125 -19.03125 L 6.3125 -2.09375 C 8.957031 -2.363281 11.070312 -3.226562 12.65625 -4.6875 C 14.25 -6.15625 14.988281 -8.382812 14.875 -11.375 L 14.875 -12.234375 C 14.875 -13.648438 14.507812 -14.789062 13.78125 -15.65625 C 13.050781 -16.53125 11.953125 -17.015625 10.484375 -17.109375 L 8.78125 -17.203125 L 8.953125 -19.328125 L 10.859375 -19.203125 C 12.878906 -19.085938 14.460938 -18.476562 15.609375 -17.375 C 16.765625 -16.28125 17.378906 -14.679688 17.453125 -12.578125 L 17.484375 -11.625 C 17.617188 -7.6875 16.453125 -4.757812 13.984375 -2.84375 C 11.515625 -0.925781 8.179688 0.132812 3.984375 0.34375 Z M 1.6875 -19.03125 "/></g></g></g><g fill="#ffffff" fill-opacity="1"><g transform="translate(235.804244, 163.293822)"><g/></g></g><g fill="#ffffff" fill-opacity="1"><g transform="translate(242.658797, 163.293822)"><g><path d="M 0.75 -1.40625 C 2.101562 -1.519531 3.035156 -1.898438 3.546875 -2.546875 C 4.054688 -3.203125 4.3125 -4.191406 4.3125 -5.515625 L 4.3125 -19.03125 L 12.71875 -19.03125 C 16.5625 -19.03125 18.484375 -16.90625 18.484375 -12.65625 L 18.484375 0 L 15.84375 0 L 15.84375 -12.75 C 15.84375 -14.238281 15.519531 -15.304688 14.875 -15.953125 C 14.238281 -16.609375 13.328125 -16.9375 12.140625 -16.9375 L 6.953125 -16.9375 L 6.953125 -5.796875 C 6.953125 -3.785156 6.484375 -2.28125 5.546875 -1.28125 C 4.609375 -0.289062 3.101562 0.296875 1.03125 0.484375 Z M 0.75 -1.40625 "/></g></g></g><g fill="#ffffff" fill-opacity="1"><g transform="translate(263.393799, 163.293822)"><g><path d="M 2.671875 -15.015625 L 2.234375 -19.03125 L 4.828125 -19.03125 L 5.3125 -15.015625 L 5.3125 0 L 2.671875 0 Z M 2.671875 -15.015625 "/></g></g></g><g fill="#ffffff" fill-opacity="1"><g transform="translate(271.070891, 163.293822)"><g><path d="M 11.203125 -19.03125 C 13.035156 -19.03125 14.453125 -18.453125 15.453125 -17.296875 C 16.460938 -16.140625 16.96875 -14.429688 16.96875 -12.171875 L 16.96875 0 L 14.328125 0 L 14.328125 -12.265625 C 14.328125 -13.796875 14.007812 -14.957031 13.375 -15.75 C 12.75 -16.539062 11.832031 -16.9375 10.625 -16.9375 L 4.796875 -16.9375 L 4.796875 0 L 2.15625 0 L 2.15625 -19.03125 Z M 11.203125 -19.03125 "/></g></g></g><g fill="#ffffff" fill-opacity="1"><g transform="translate(290.36644, 163.293822)"><g><path d="M 2.609375 -2.09375 L 8.234375 -2.09375 C 10.015625 -2.09375 11.4375 -2.585938 12.5 -3.578125 C 13.5625 -4.578125 14.09375 -6.21875 14.09375 -8.5 L 14.09375 -10.59375 C 14.09375 -12.675781 13.691406 -14.253906 12.890625 -15.328125 C 12.085938 -16.398438 10.875 -16.9375 9.25 -16.9375 L 5.65625 -16.9375 L 4.765625 -13.125 C 4.628906 -12.488281 4.5625 -11.921875 4.5625 -11.421875 C 4.5625 -10.640625 4.769531 -10.03125 5.1875 -9.59375 C 5.613281 -9.164062 6.316406 -8.859375 7.296875 -8.671875 L 6.75 -6.859375 C 5.15625 -7.015625 3.992188 -7.460938 3.265625 -8.203125 C 2.546875 -8.953125 2.1875 -9.988281 2.1875 -11.3125 C 2.1875 -11.945312 2.257812 -12.617188 2.40625 -13.328125 L 3.703125 -19.03125 L 9.703125 -19.03125 C 11.921875 -19.03125 13.640625 -18.296875 14.859375 -16.828125 C 16.078125 -15.367188 16.703125 -13.269531 16.734375 -10.53125 L 16.734375 -8.609375 C 16.734375 -5.628906 15.988281 -3.445312 14.5 -2.0625 C 13.007812 -0.6875 11.066406 0 8.671875 0 L 2.609375 0 Z M 2.609375 -2.09375 "/></g></g></g><g fill="#ffffff" fill-opacity="1"><g transform="translate(308.907976, 163.293822)"><g/></g></g><g fill="#ffffff" fill-opacity="1"><g transform="translate(315.76254, 163.293822)"><g><path d="M 2.671875 -15.015625 L 2.234375 -19.03125 L 4.828125 -19.03125 L 5.3125 -15.015625 L 5.3125 -9.90625 L 5.28125 -7.75 L 2.671875 -7.203125 Z M 2.671875 -15.015625 "/></g></g></g><g fill="#ffffff" fill-opacity="1"><g transform="translate(323.439632, 163.293822)"><g><path d="M 1.546875 -2.09375 L 6.0625 -2.09375 C 7.914062 -2.09375 9.3125 -2.628906 10.25 -3.703125 C 11.1875 -4.773438 11.65625 -6.351562 11.65625 -8.4375 L 11.65625 -10.59375 C 11.65625 -12.675781 11.1875 -14.253906 10.25 -15.328125 C 9.3125 -16.398438 7.914062 -16.9375 6.0625 -16.9375 L 1.546875 -16.9375 L 1.546875 -19.03125 L 6.578125 -19.03125 C 9.046875 -19.03125 10.945312 -18.296875 12.28125 -16.828125 C 13.625 -15.367188 14.296875 -13.253906 14.296875 -10.484375 L 14.296875 -8.53125 C 14.296875 -5.769531 13.625 -3.65625 12.28125 -2.1875 C 10.945312 -0.726562 9.046875 0 6.578125 0 L 1.546875 0 Z M 1.546875 -2.09375 "/></g></g></g><g fill="#ffffff" fill-opacity="1"><g transform="translate(339.582075, 163.293822)"><g><path d="M 13.8125 -12.75 C 13.8125 -14.238281 13.488281 -15.304688 12.84375 -15.953125 C 12.207031 -16.609375 11.296875 -16.9375 10.109375 -16.9375 L 2.09375 -16.9375 L 2.09375 -19.03125 L 10.703125 -19.03125 C 14.535156 -19.03125 16.453125 -16.90625 16.453125 -12.65625 L 16.453125 0 L 13.8125 0 Z M 2.0625 -9.25 L 2.4375 -11.546875 L 4.703125 -11.546875 L 4.703125 0 L 2.0625 0 Z M 2.0625 -9.25 "/></g></g></g><g fill="#ffffff" fill-opacity="1"><g transform="translate(358.295003, 163.293822)"><g><path d="M 14.734375 -19.03125 L 14.734375 -16.796875 L 8.125 0 L 5.484375 0 L 12.09375 -16.9375 L 1.46875 -16.9375 L 1.46875 -24.578125 L 3.90625 -24.578125 L 3.90625 -19.03125 Z M 14.734375 -19.03125 "/></g></g></g><g fill="#ffffff" fill-opacity="1"><g transform="translate(92.895096, 211.205584)"><g><path d="M 11.796875 -19.03125 C 15.628906 -19.03125 17.546875 -16.90625 17.546875 -12.65625 L 17.546875 0 L 2.578125 0 L 2.578125 -19.03125 Z M 14.90625 -2.09375 L 14.90625 -12.75 C 14.90625 -14.238281 14.585938 -15.304688 13.953125 -15.953125 C 13.316406 -16.609375 12.398438 -16.9375 11.203125 -16.9375 L 5.203125 -16.9375 L 5.203125 -2.09375 Z M 14.90625 -2.09375 "/></g></g></g><g fill="#ffffff" fill-opacity="1"><g transform="translate(112.773278, 211.205584)"><g><path d="M 1.546875 -2.09375 L 6.0625 -2.09375 C 7.914062 -2.09375 9.3125 -2.628906 10.25 -3.703125 C 11.1875 -4.773438 11.65625 -6.351562 11.65625 -8.4375 L 11.65625 -10.59375 C 11.65625 -12.675781 11.1875 -14.253906 10.25 -15.328125 C 9.3125 -16.398438 7.914062 -16.9375 6.0625 -16.9375 L 1.546875 -16.9375 L 1.546875 -19.03125 L 6.578125 -19.03125 C 9.046875 -19.03125 10.945312 -18.296875 12.28125 -16.828125 C 13.625 -15.367188 14.296875 -13.253906 14.296875 -10.484375 L 14.296875 -8.53125 C 14.296875 -5.769531 13.625 -3.65625 12.28125 -2.1875 C 10.945312 -0.726562 9.046875 0 6.578125 0 L 1.546875 0 Z M 1.546875 -2.09375 "/></g></g></g><g fill="#ffffff" fill-opacity="1"><g transform="translate(128.915733, 211.205584)"><g><path d="M 0.75 -1.40625 C 2.101562 -1.519531 3.035156 -1.898438 3.546875 -2.546875 C 4.054688 -3.203125 4.3125 -4.191406 4.3125 -5.515625 L 4.3125 -19.03125 L 12.71875 -19.03125 C 16.5625 -19.03125 18.484375 -16.90625 18.484375 -12.65625 L 18.484375 0 L 15.84375 0 L 15.84375 -12.75 C 15.84375 -14.238281 15.519531 -15.304688 14.875 -15.953125 C 14.238281 -16.609375 13.328125 -16.9375 12.140625 -16.9375 L 6.953125 -16.9375 L 6.953125 -5.796875 C 6.953125 -3.785156 6.484375 -2.28125 5.546875 -1.28125 C 4.609375 -0.289062 3.101562 0.296875 1.03125 0.484375 Z M 0.75 -1.40625 "/></g></g></g><g fill="#ffffff" fill-opacity="1"><g transform="translate(149.650735, 211.205584)"><g><path d="M 2.671875 -15.015625 L 2.234375 -19.03125 L 4.828125 -19.03125 L 5.3125 -15.015625 L 5.3125 0 L 2.671875 0 Z M 2.671875 -15.015625 "/></g></g></g><g fill="#ffffff" fill-opacity="1"><g transform="translate(157.327828, 211.205584)"><g><path d="M 19.75 -14.125 C 19.769531 -9.28125 18.484375 -5.664062 15.890625 -3.28125 C 13.296875 -0.90625 9.359375 0.300781 4.078125 0.34375 L 1.6875 -19.03125 L 4.21875 -19.03125 L 5.375 -9.328125 C 6.40625 -9.867188 7.207031 -10.453125 7.78125 -11.078125 C 8.351562 -11.710938 8.769531 -12.488281 9.03125 -13.40625 C 9.289062 -14.320312 9.445312 -15.5 9.5 -16.9375 L 9.53125 -18.953125 L 12.0625 -18.953125 L 12.03125 -16.96875 C 11.988281 -14.457031 11.484375 -12.460938 10.515625 -10.984375 C 9.554688 -9.515625 7.925781 -8.273438 5.625 -7.265625 L 6.28125 -1.984375 C 9.90625 -2.210938 12.617188 -3.300781 14.421875 -5.25 C 16.234375 -7.207031 17.128906 -10.128906 17.109375 -14.015625 L 17.078125 -19.03125 L 19.71875 -19.03125 Z M 19.75 -14.125 "/></g></g></g><g fill="#ffffff" fill-opacity="1"><g transform="translate(178.91965, 211.205584)"><g><path d="M 11.171875 -12.75 C 11.171875 -14.238281 10.847656 -15.304688 10.203125 -15.953125 C 9.566406 -16.609375 8.65625 -16.9375 7.46875 -16.9375 L 1.40625 -16.9375 L 1.40625 -19.03125 L 8.0625 -19.03125 C 11.894531 -19.03125 13.8125 -16.90625 13.8125 -12.65625 L 13.8125 0 L 11.171875 0 Z M 11.171875 -12.75 "/></g></g></g><g fill="#ffffff" fill-opacity="1"><g transform="translate(195.130655, 211.205584)"><g><path d="M 16.6875 -2.09375 L 16.6875 0 L 1.75 0 L 1.75 -2.09375 L 11.625 -2.09375 L 11.625 -12.75 C 11.625 -14.238281 11.300781 -15.304688 10.65625 -15.953125 C 10.019531 -16.609375 9.109375 -16.9375 7.921875 -16.9375 L 1.75 -16.9375 L 1.75 -19.03125 L 8.5 -19.03125 C 12.34375 -19.03125 14.265625 -16.90625 14.265625 -12.65625 L 14.265625 -2.09375 Z M 16.6875 -2.09375 "/></g></g></g><g fill="#ffffff" fill-opacity="1"><g transform="translate(213.158108, 211.205584)"><g><path d="M 19.75 -14.125 C 19.769531 -9.28125 18.484375 -5.664062 15.890625 -3.28125 C 13.296875 -0.90625 9.359375 0.300781 4.078125 0.34375 L 1.6875 -19.03125 L 4.21875 -19.03125 L 5.375 -9.328125 C 6.40625 -9.867188 7.207031 -10.453125 7.78125 -11.078125 C 8.351562 -11.710938 8.769531 -12.488281 9.03125 -13.40625 C 9.289062 -14.320312 9.445312 -15.5 9.5 -16.9375 L 9.53125 -18.953125 L 12.0625 -18.953125 L 12.03125 -16.96875 C 11.988281 -14.457031 11.484375 -12.460938 10.515625 -10.984375 C 9.554688 -9.515625 7.925781 -8.273438 5.625 -7.265625 L 6.28125 -1.984375 C 9.90625 -2.210938 12.617188 -3.300781 14.421875 -5.25 C 16.234375 -7.207031 17.128906 -10.128906 17.109375 -14.015625 L 17.078125 -19.03125 L 19.71875 -19.03125 Z M 19.75 -14.125 "/></g></g></g><g fill="#ffffff" fill-opacity="1"><g transform="translate(234.749931, 211.205584)"><g/></g></g><g fill="#ffffff" fill-opacity="1"><g transform="translate(241.604483, 211.205584)"><g><path d="M 16.6875 -2.09375 L 16.6875 0 L 1.75 0 L 1.75 -2.09375 L 11.625 -2.09375 L 11.625 -12.75 C 11.625 -14.238281 11.300781 -15.304688 10.65625 -15.953125 C 10.019531 -16.609375 9.109375 -16.9375 7.921875 -16.9375 L 1.75 -16.9375 L 1.75 -19.03125 L 8.5 -19.03125 C 12.34375 -19.03125 14.265625 -16.90625 14.265625 -12.65625 L 14.265625 -2.09375 Z M 16.6875 -2.09375 "/></g></g></g><g fill="#ffffff" fill-opacity="1"><g transform="translate(259.631936, 211.205584)"><g><path d="M 11.203125 -19.03125 C 13.035156 -19.03125 14.453125 -18.453125 15.453125 -17.296875 C 16.460938 -16.140625 16.96875 -14.429688 16.96875 -12.171875 L 16.96875 0 L 14.328125 0 L 14.328125 -12.265625 C 14.328125 -13.796875 14.007812 -14.957031 13.375 -15.75 C 12.75 -16.539062 11.832031 -16.9375 10.625 -16.9375 L 4.796875 -16.9375 L 4.796875 0 L 2.15625 0 L 2.15625 -19.03125 Z M 11.203125 -19.03125 "/></g></g></g><g fill="#ffffff" fill-opacity="1"><g transform="translate(278.927485, 211.205584)"><g><path d="M 11.171875 -12.75 C 11.171875 -14.238281 10.847656 -15.304688 10.203125 -15.953125 C 9.566406 -16.609375 8.65625 -16.9375 7.46875 -16.9375 L 1.40625 -16.9375 L 1.40625 -19.03125 L 8.0625 -19.03125 C 11.894531 -19.03125 13.8125 -16.90625 13.8125 -12.65625 L 13.8125 0 L 11.171875 0 Z M 11.171875 -12.75 "/></g></g></g><g fill="#ffffff" fill-opacity="1"><g transform="translate(295.13849, 211.205584)"><g><path d="M 18.984375 -9.703125 C 18.984375 -6.453125 18.300781 -3.957031 16.9375 -2.21875 C 15.582031 -0.488281 13.640625 0.375 11.109375 0.375 C 10.234375 0.375 9.296875 0.269531 8.296875 0.0625 L 8.578125 -2.015625 C 9.328125 -1.835938 10.101562 -1.75 10.90625 -1.75 C 12.800781 -1.75 14.195312 -2.40625 15.09375 -3.71875 C 16 -5.03125 16.453125 -6.988281 16.453125 -9.59375 C 16.453125 -14.582031 14.816406 -17.078125 11.546875 -17.078125 C 10.316406 -17.078125 9.320312 -16.722656 8.5625 -16.015625 C 7.8125 -15.304688 7.300781 -14.378906 7.03125 -13.234375 L 4.59375 0 L 1.953125 0 L 4.484375 -13.328125 L 1.84375 -19.03125 L 4.59375 -19.03125 L 6.3125 -14.90625 C 6.769531 -16.351562 7.5 -17.4375 8.5 -18.15625 C 9.507812 -18.875 10.65625 -19.234375 11.9375 -19.234375 C 14.101562 -19.234375 15.816406 -18.484375 17.078125 -16.984375 C 18.347656 -15.484375 18.984375 -13.054688 18.984375 -9.703125 Z M 18.984375 -9.703125 "/></g></g></g><g fill="#ffffff" fill-opacity="1"><g transform="translate(315.873481, 211.205584)"><g><path d="M 13.8125 -12.75 C 13.8125 -14.238281 13.488281 -15.304688 12.84375 -15.953125 C 12.207031 -16.609375 11.296875 -16.9375 10.109375 -16.9375 L 2.09375 -16.9375 L 2.09375 -19.03125 L 10.703125 -19.03125 C 14.535156 -19.03125 16.453125 -16.90625 16.453125 -12.65625 L 16.453125 0 L 13.8125 0 Z M 2.0625 -9.25 L 2.4375 -11.546875 L 4.703125 -11.546875 L 4.703125 0 L 2.0625 0 Z M 2.0625 -9.25 "/></g></g></g></svg>