<svg xmlns="http://www.w3.org/2000/svg" xmlns:xlink="http://www.w3.org/1999/xlink" width="569" zoomAndPan="magnify" viewBox="0 0 426.75 282.749989" height="377" preserveAspectRatio="xMidYMid meet" version="1.2"><defs><clipPath id="d2a0cb3fa2"><path d="M 271.074219 240.199219 L 406 240.199219 L 406 282.160156 L 271.074219 282.160156 Z M 271.074219 240.199219 "/></clipPath><clipPath id="c37563c3d7"><path d="M 0.0625 0 L 426.4375 0 L 426.4375 262.457031 L 0.0625 262.457031 Z M 0.0625 0 "/></clipPath><clipPath id="c51fab4b56"><path d="M 74.996094 0 L 351.175781 0 C 392.558594 0 426.109375 33.550781 426.109375 74.933594 L 426.109375 187.523438 C 426.109375 228.90625 392.558594 262.457031 351.175781 262.457031 L 74.996094 262.457031 C 33.613281 262.457031 0.0625 228.90625 0.0625 187.523438 L 0.0625 74.933594 C 0.0625 33.550781 33.613281 0 74.996094 0 Z M 74.996094 0 "/></clipPath><clipPath id="b8a80a1e03"><path d="M 0.0625 0 L 426.167969 0 L 426.167969 262.457031 L 0.0625 262.457031 Z M 0.0625 0 "/></clipPath><clipPath id="26b8b10503"><path d="M 74.996094 0 L 351.175781 0 C 392.558594 0 426.109375 33.550781 426.109375 74.933594 L 426.109375 187.523438 C 426.109375 228.90625 392.558594 262.457031 351.175781 262.457031 L 74.996094 262.457031 C 33.613281 262.457031 0.0625 228.90625 0.0625 187.523438 L 0.0625 74.933594 C 0.0625 33.550781 33.613281 0 74.996094 0 Z M 74.996094 0 "/></clipPath><clipPath id="1abd0ba754"><rect x="0" width="427" y="0" height="263"/></clipPath></defs><g id="b15c544c75"><g clip-rule="nonzero" clip-path="url(#d2a0cb3fa2)"><path style=" stroke:none;fill-rule:nonzero;fill:#112c59;fill-opacity:1;" d="M 403.714844 157.460938 C 405.722656 164.828125 406.34375 180.125 405.558594 202.925781 C 404.972656 219.902344 403.808594 234.722656 403.800781 234.867188 C 403.738281 235.644531 403.109375 239.726562 396.683594 243.566406 C 393.175781 245.664062 388.5 247.339844 382.785156 248.546875 C 376.339844 249.910156 368.480469 250.699219 359.414062 250.886719 C 359.058594 253.109375 358.660156 256.746094 358.976562 260.660156 C 359.605469 268.445312 362.214844 274.320312 367.644531 276.71875 L 380.074219 282.351562 L 366.976562 281.039062 C 366.628906 281.027344 358.417969 280.769531 347.15625 277.265625 C 340.554688 275.214844 335.226562 271.496094 329.414062 268.125 C 322.496094 264.109375 317.378906 259.898438 311.953125 254.214844 L 153.566406 259.921875 C 152.984375 259.980469 150.367188 260.234375 146.664062 260.234375 C 136.402344 260.234375 118.371094 258.257812 112.847656 245.015625 C 109.789062 237.675781 108.835938 222.132812 110.019531 198.816406 C 110.886719 181.714844 112.644531 166.359375 112.660156 166.203125 L 112.691406 165.945312 L 112.773438 165.695312 C 112.992188 165.019531 114.382812 161.445312 120.167969 157.785156 C 123.453125 155.703125 127.570312 153.992188 132.398438 152.695312 C 138.296875 151.113281 145.320312 150.144531 153.269531 149.8125 L 363.621094 141.019531 C 363.941406 140.992188 365.289062 140.898438 367.34375 140.875 L 367.34375 140.867188 L 369.496094 140.875 C 374.476562 140.9375 381.351562 141.449219 387.679688 143.394531 C 391.613281 144.601562 394.90625 146.242188 397.472656 148.269531 C 400.632812 150.757812 402.730469 153.851562 403.714844 157.460938 Z M 403.714844 157.460938 "/></g><g clip-rule="nonzero" clip-path="url(#c37563c3d7)"><g clip-rule="nonzero" clip-path="url(#c51fab4b56)"><g><g clip-path="url(#1abd0ba754)"><g clip-rule="nonzero" clip-path="url(#b8a80a1e03)"><g clip-rule="nonzero" clip-path="url(#26b8b10503)"><path style=" stroke:none;fill-rule:nonzero;fill:#112c59;fill-opacity:1;" d="M 0.0625 0 L 426.554688 0 L 426.554688 262.457031 L 0.0625 262.457031 Z M 0.0625 0 "/></g></g></g></g></g></g><g style="fill:#ffffff;fill-opacity:1;"><g transform="translate(41.568162, 67.534838)"><path style="stroke:none" d="M 11.796875 -19.046875 C 15.640625 -19.046875 17.5625 -16.914062 17.5625 -12.65625 L 17.5625 0 L 2.578125 0 L 2.578125 -19.046875 Z M 14.921875 -2.09375 L 14.921875 -12.765625 C 14.921875 -14.253906 14.597656 -15.320312 13.953125 -15.96875 C 13.316406 -16.625 12.40625 -16.953125 11.21875 -16.953125 L 5.21875 -16.953125 L 5.21875 -2.09375 Z M 14.921875 -2.09375 "/></g></g><g style="fill:#ffffff;fill-opacity:1;"><g transform="translate(61.465359, 67.534838)"><path style="stroke:none" d="M 2.671875 -15.03125 L 2.234375 -19.046875 L 4.84375 -19.046875 L 5.3125 -15.03125 L 5.3125 -9.921875 L 5.28125 -7.75 L 2.671875 -7.203125 Z M 2.671875 -15.03125 "/></g></g><g style="fill:#ffffff;fill-opacity:1;"><g transform="translate(69.149794, 67.534838)"><path style="stroke:none" d="M 11.1875 -12.765625 C 11.1875 -14.253906 10.863281 -15.320312 10.21875 -15.96875 C 9.582031 -16.625 8.671875 -16.953125 7.484375 -16.953125 L 1.40625 -16.953125 L 1.40625 -19.046875 L 8.0625 -19.046875 C 11.90625 -19.046875 13.828125 -16.914062 13.828125 -12.65625 L 13.828125 0 L 11.1875 0 Z M 11.1875 -12.765625 "/></g></g><g style="fill:#ffffff;fill-opacity:1;"><g transform="translate(85.376306, 67.534838)"><path style="stroke:none" d="M 10.5 -12.9375 C 10.5 -14.695312 10.804688 -16.035156 11.421875 -16.953125 L 1.8125 -16.953125 L 1.8125 -19.046875 L 16.5 -19.046875 L 16.5 -16.953125 L 13.96875 -16.953125 C 13.414062 -16.015625 13.140625 -14.675781 13.140625 -12.9375 L 13.140625 0 L 10.5 0 Z M 10.5 -12.9375 "/></g></g><g style="fill:#ffffff;fill-opacity:1;"><g transform="translate(103.764069, 67.534838)"><path style="stroke:none" d="M 2.671875 -15.03125 L 2.234375 -19.046875 L 4.84375 -19.046875 L 5.3125 -15.03125 L 5.3125 0 L 2.671875 0 Z M 2.671875 -15.03125 "/></g></g><g style="fill:#ffffff;fill-opacity:1;"><g transform="translate(111.448504, 67.534838)"><path style="stroke:none" d="M 17.609375 -11.015625 C 17.835938 -3.859375 13.304688 -0.0703125 4.015625 0.34375 L 1.921875 -16.953125 L 1.6875 -19.046875 L 11.046875 -19.046875 C 13.054688 -19.046875 14.628906 -18.421875 15.765625 -17.171875 C 16.898438 -15.921875 17.5 -14.222656 17.5625 -12.078125 Z M 6.34375 -2.09375 C 9.070312 -2.34375 11.222656 -3.128906 12.796875 -4.453125 C 14.378906 -5.785156 15.097656 -7.992188 14.953125 -11.078125 L 14.953125 -11.90625 C 14.953125 -13.394531 14.59375 -14.609375 13.875 -15.546875 C 13.15625 -16.484375 12.144531 -16.953125 10.84375 -16.953125 L 4.5625 -16.953125 Z M 6.34375 -2.09375 "/></g></g><g style="fill:#ffffff;fill-opacity:1;"><g transform="translate(130.831126, 67.534838)"><path style="stroke:none" d="M 19.015625 -9.703125 C 19.015625 -6.460938 18.332031 -3.972656 16.96875 -2.234375 C 15.601562 -0.492188 13.65625 0.375 11.125 0.375 C 10.25 0.375 9.304688 0.269531 8.296875 0.0625 L 8.578125 -2.03125 C 9.328125 -1.84375 10.101562 -1.75 10.90625 -1.75 C 12.8125 -1.75 14.210938 -2.40625 15.109375 -3.71875 C 16.015625 -5.039062 16.46875 -7.003906 16.46875 -9.609375 C 16.46875 -14.597656 14.832031 -17.09375 11.5625 -17.09375 C 10.320312 -17.09375 9.328125 -16.734375 8.578125 -16.015625 C 7.828125 -15.304688 7.3125 -14.382812 7.03125 -13.25 L 4.59375 0 L 1.953125 0 L 4.5 -13.34375 L 1.859375 -19.046875 L 4.59375 -19.046875 L 6.3125 -14.921875 C 6.769531 -16.367188 7.5 -17.453125 8.5 -18.171875 C 9.507812 -18.890625 10.65625 -19.25 11.9375 -19.25 C 14.113281 -19.25 15.835938 -18.5 17.109375 -17 C 18.378906 -15.5 19.015625 -13.066406 19.015625 -9.703125 Z M 19.015625 -9.703125 "/></g></g><g style="fill:#ffffff;fill-opacity:1;"><g transform="translate(151.585963, 67.534838)"><path style="stroke:none" d=""/></g></g><g style="fill:#ffffff;fill-opacity:1;"><g transform="translate(158.447072, 67.534838)"><path style="stroke:none" d="M 11.796875 -19.046875 C 15.640625 -19.046875 17.5625 -16.914062 17.5625 -12.65625 L 17.5625 0 L 2.578125 0 L 2.578125 -19.046875 Z M 14.921875 -2.09375 L 14.921875 -12.765625 C 14.921875 -14.253906 14.597656 -15.320312 13.953125 -15.96875 C 13.316406 -16.625 12.40625 -16.953125 11.21875 -16.953125 L 5.21875 -16.953125 L 5.21875 -2.09375 Z M 14.921875 -2.09375 "/></g></g><g style="fill:#ffffff;fill-opacity:1;"><g transform="translate(178.344269, 67.534838)"><path style="stroke:none" d="M 2.671875 -15.03125 L 2.234375 -19.046875 L 4.84375 -19.046875 L 5.3125 -15.03125 L 5.3125 -9.921875 L 5.28125 -7.75 L 2.671875 -7.203125 Z M 2.671875 -15.03125 "/></g></g><g style="fill:#ffffff;fill-opacity:1;"><g transform="translate(186.028705, 67.534838)"><path style="stroke:none" d="M 1.640625 -2.09375 L 7.625 -2.09375 L 7.625 -13.515625 C 7.625 -14.640625 7.398438 -15.46875 6.953125 -16 C 6.503906 -16.539062 5.832031 -16.878906 4.9375 -17.015625 L 2.640625 -17.359375 L 3.015625 -19.421875 L 6 -18.96875 C 7.375 -18.738281 8.425781 -18.171875 9.15625 -17.265625 C 9.894531 -16.367188 10.265625 -15.144531 10.265625 -13.59375 L 10.265625 0 L 1.640625 0 Z M 1.640625 -2.09375 "/></g></g><g style="fill:#ffffff;fill-opacity:1;"><g transform="translate(198.653135, 67.534838)"><path style="stroke:none" d="M 8.640625 0 L 7.78125 -4.671875 C 7.125 -3.410156 6.304688 -2.351562 5.328125 -1.5 C 4.359375 -0.65625 3.203125 0.00390625 1.859375 0.484375 L 0.890625 -1.640625 C 2.421875 -2.191406 3.710938 -2.910156 4.765625 -3.796875 C 5.816406 -4.691406 6.675781 -5.835938 7.34375 -7.234375 L 7.34375 -13.546875 C 7.34375 -14.691406 7.195312 -15.519531 6.90625 -16.03125 C 6.625 -16.550781 6.082031 -16.878906 5.28125 -17.015625 L 3.09375 -17.359375 L 3.46875 -19.421875 L 6.34375 -18.96875 C 7.675781 -18.769531 8.613281 -18.257812 9.15625 -17.4375 C 9.707031 -16.613281 9.984375 -15.390625 9.984375 -13.765625 L 9.984375 -7.140625 L 11.1875 0 Z M 8.640625 0 "/></g></g><g style="fill:#ffffff;fill-opacity:1;"><g transform="translate(211.414785, 67.534838)"><path style="stroke:none" d="M 2.671875 -15.03125 L 2.234375 -19.046875 L 4.84375 -19.046875 L 5.3125 -15.03125 L 5.3125 0 L 2.671875 0 Z M 2.671875 -15.03125 "/></g></g><g style="fill:#ffffff;fill-opacity:1;"><g transform="translate(219.099221, 67.534838)"><path style="stroke:none" d="M 19.015625 -9.703125 C 19.015625 -6.460938 18.332031 -3.972656 16.96875 -2.234375 C 15.601562 -0.492188 13.65625 0.375 11.125 0.375 C 10.25 0.375 9.304688 0.269531 8.296875 0.0625 L 8.578125 -2.03125 C 9.328125 -1.84375 10.101562 -1.75 10.90625 -1.75 C 12.8125 -1.75 14.210938 -2.40625 15.109375 -3.71875 C 16.015625 -5.039062 16.46875 -7.003906 16.46875 -9.609375 C 16.46875 -14.597656 14.832031 -17.09375 11.5625 -17.09375 C 10.320312 -17.09375 9.328125 -16.734375 8.578125 -16.015625 C 7.828125 -15.304688 7.3125 -14.382812 7.03125 -13.25 L 4.59375 0 L 1.953125 0 L 4.5 -13.34375 L 1.859375 -19.046875 L 4.59375 -19.046875 L 6.3125 -14.921875 C 6.769531 -16.367188 7.5 -17.453125 8.5 -18.171875 C 9.507812 -18.890625 10.65625 -19.25 11.9375 -19.25 C 14.113281 -19.25 15.835938 -18.5 17.109375 -17 C 18.378906 -15.5 19.015625 -13.066406 19.015625 -9.703125 Z M 19.015625 -9.703125 "/></g></g><g style="fill:#ffffff;fill-opacity:1;"><g transform="translate(239.854069, 67.534838)"><path style="stroke:none" d="M 13.828125 -12.765625 C 13.828125 -14.253906 13.503906 -15.320312 12.859375 -15.96875 C 12.222656 -16.625 11.3125 -16.953125 10.125 -16.953125 L 2.09375 -16.953125 L 2.09375 -19.046875 L 10.703125 -19.046875 C 14.546875 -19.046875 16.46875 -16.914062 16.46875 -12.65625 L 16.46875 0 L 13.828125 0 Z M 2.0625 -9.265625 L 2.4375 -11.5625 L 4.703125 -11.5625 L 4.703125 0 L 2.0625 0 Z M 2.0625 -9.265625 "/></g></g><g style="fill:#ffffff;fill-opacity:1;"><g transform="translate(258.584874, 67.534838)"><path style="stroke:none" d=""/></g></g><g style="fill:#ffffff;fill-opacity:1;"><g transform="translate(265.445971, 67.534838)"><path style="stroke:none" d="M 11.796875 -19.046875 C 15.640625 -19.046875 17.5625 -16.914062 17.5625 -12.65625 L 17.5625 0 L 2.578125 0 L 2.578125 -19.046875 Z M 14.921875 -2.09375 L 14.921875 -12.765625 C 14.921875 -14.253906 14.597656 -15.320312 13.953125 -15.96875 C 13.316406 -16.625 12.40625 -16.953125 11.21875 -16.953125 L 5.21875 -16.953125 L 5.21875 -2.09375 Z M 14.921875 -2.09375 "/></g></g><g style="fill:#ffffff;fill-opacity:1;"><g transform="translate(285.343179, 67.534838)"><path style="stroke:none" d="M 2.671875 -15.03125 L 2.234375 -19.046875 L 4.84375 -19.046875 L 5.3125 -15.03125 L 5.3125 -9.921875 L 5.28125 -7.75 L 2.671875 -7.203125 Z M 2.671875 -15.03125 "/></g></g><g style="fill:#ffffff;fill-opacity:1;"><g transform="translate(293.027615, 67.534838)"><path style="stroke:none" d="M 16.703125 -2.09375 L 16.703125 0 L 1.75 0 L 1.75 -2.09375 L 11.625 -2.09375 L 11.625 -12.765625 C 11.625 -14.253906 11.300781 -15.320312 10.65625 -15.96875 C 10.019531 -16.625 9.109375 -16.953125 7.921875 -16.953125 L 1.75 -16.953125 L 1.75 -19.046875 L 8.515625 -19.046875 C 12.359375 -19.046875 14.28125 -16.914062 14.28125 -12.65625 L 14.28125 -2.09375 Z M 16.703125 -2.09375 "/></g></g><g style="fill:#ffffff;fill-opacity:1;"><g transform="translate(311.072313, 67.534838)"><path style="stroke:none" d="M 11.21875 -19.046875 C 13.050781 -19.046875 14.46875 -18.46875 15.46875 -17.3125 C 16.476562 -16.15625 16.984375 -14.445312 16.984375 -12.1875 L 16.984375 0 L 14.34375 0 L 14.34375 -12.28125 C 14.34375 -13.8125 14.023438 -14.972656 13.390625 -15.765625 C 12.765625 -16.554688 11.847656 -16.953125 10.640625 -16.953125 L 4.796875 -16.953125 L 4.796875 0 L 2.15625 0 L 2.15625 -19.046875 Z M 11.21875 -19.046875 "/></g></g><g style="fill:#ffffff;fill-opacity:1;"><g transform="translate(330.38632, 67.534838)"><path style="stroke:none" d="M 11.1875 -12.765625 C 11.1875 -14.253906 10.863281 -15.320312 10.21875 -15.96875 C 9.582031 -16.625 8.671875 -16.953125 7.484375 -16.953125 L 1.40625 -16.953125 L 1.40625 -19.046875 L 8.0625 -19.046875 C 11.90625 -19.046875 13.828125 -16.914062 13.828125 -12.65625 L 13.828125 0 L 11.1875 0 Z M 11.1875 -12.765625 "/></g></g><g style="fill:#ffffff;fill-opacity:1;"><g transform="translate(346.612831, 67.534838)"><path style="stroke:none" d="M 19.015625 -9.703125 C 19.015625 -6.460938 18.332031 -3.972656 16.96875 -2.234375 C 15.601562 -0.492188 13.65625 0.375 11.125 0.375 C 10.25 0.375 9.304688 0.269531 8.296875 0.0625 L 8.578125 -2.03125 C 9.328125 -1.84375 10.101562 -1.75 10.90625 -1.75 C 12.8125 -1.75 14.210938 -2.40625 15.109375 -3.71875 C 16.015625 -5.039062 16.46875 -7.003906 16.46875 -9.609375 C 16.46875 -14.597656 14.832031 -17.09375 11.5625 -17.09375 C 10.320312 -17.09375 9.328125 -16.734375 8.578125 -16.015625 C 7.828125 -15.304688 7.3125 -14.382812 7.03125 -13.25 L 4.59375 0 L 1.953125 0 L 4.5 -13.34375 L 1.859375 -19.046875 L 4.59375 -19.046875 L 6.3125 -14.921875 C 6.769531 -16.367188 7.5 -17.453125 8.5 -18.171875 C 9.507812 -18.890625 10.65625 -19.25 11.9375 -19.25 C 14.113281 -19.25 15.835938 -18.5 17.109375 -17 C 18.378906 -15.5 19.015625 -13.066406 19.015625 -9.703125 Z M 19.015625 -9.703125 "/></g></g><g style="fill:#ffffff;fill-opacity:1;"><g transform="translate(367.367657, 67.534838)"><path style="stroke:none" d="M 13.828125 -12.765625 C 13.828125 -14.253906 13.503906 -15.320312 12.859375 -15.96875 C 12.222656 -16.625 11.3125 -16.953125 10.125 -16.953125 L 2.09375 -16.953125 L 2.09375 -19.046875 L 10.703125 -19.046875 C 14.546875 -19.046875 16.46875 -16.914062 16.46875 -12.65625 L 16.46875 0 L 13.828125 0 Z M 2.0625 -9.265625 L 2.4375 -11.5625 L 4.703125 -11.5625 L 4.703125 0 L 2.0625 0 Z M 2.0625 -9.265625 "/></g></g><g style="fill:#ffffff;fill-opacity:1;"><g transform="translate(41.907705, 115.492431)"><path style="stroke:none" d="M 16.703125 -2.09375 L 16.703125 0 L 1.75 0 L 1.75 -2.09375 L 11.625 -2.09375 L 11.625 -12.765625 C 11.625 -14.253906 11.300781 -15.320312 10.65625 -15.96875 C 10.019531 -16.625 9.109375 -16.953125 7.921875 -16.953125 L 1.75 -16.953125 L 1.75 -19.046875 L 8.515625 -19.046875 C 12.359375 -19.046875 14.28125 -16.914062 14.28125 -12.65625 L 14.28125 -2.09375 Z M 16.703125 -2.09375 "/></g></g><g style="fill:#ffffff;fill-opacity:1;"><g transform="translate(59.952403, 115.492431)"><path style="stroke:none" d="M 2.671875 -15.03125 L 2.234375 -19.046875 L 4.84375 -19.046875 L 5.3125 -15.03125 L 5.3125 0 L 2.671875 0 Z M 2.671875 -15.03125 "/></g></g><g style="fill:#ffffff;fill-opacity:1;"><g transform="translate(67.636839, 115.492431)"><path style="stroke:none" d="M 1.6875 -19.046875 L 4.328125 -19.046875 L 6.3125 -2.09375 C 8.96875 -2.363281 11.085938 -3.226562 12.671875 -4.6875 C 14.265625 -6.15625 15.003906 -8.390625 14.890625 -11.390625 L 14.890625 -12.25 C 14.890625 -13.664062 14.523438 -14.804688 13.796875 -15.671875 C 13.066406 -16.546875 11.96875 -17.03125 10.5 -17.125 L 8.78125 -17.21875 L 8.953125 -19.359375 L 10.875 -19.21875 C 12.882812 -19.101562 14.46875 -18.492188 15.625 -17.390625 C 16.78125 -16.296875 17.394531 -14.695312 17.46875 -12.59375 L 17.5 -11.625 C 17.632812 -7.695312 16.46875 -4.769531 14 -2.84375 C 11.53125 -0.925781 8.191406 0.132812 3.984375 0.34375 Z M 1.6875 -19.046875 "/></g></g><g style="fill:#ffffff;fill-opacity:1;"><g transform="translate(86.607792, 115.492431)"><path style="stroke:none" d=""/></g></g><g style="fill:#ffffff;fill-opacity:1;"><g transform="translate(93.468901, 115.492431)"><path style="stroke:none" d="M 2.671875 -15.03125 L 2.234375 -19.046875 L 4.84375 -19.046875 L 5.3125 -15.03125 L 5.3125 -9.921875 L 5.28125 -7.75 L 2.671875 -7.203125 Z M 2.671875 -15.03125 "/></g></g><g style="fill:#ffffff;fill-opacity:1;"><g transform="translate(101.153337, 115.492431)"><path style="stroke:none" d="M 1.546875 -2.09375 L 6.078125 -2.09375 C 7.929688 -2.09375 9.328125 -2.628906 10.265625 -3.703125 C 11.203125 -4.773438 11.671875 -6.351562 11.671875 -8.4375 L 11.671875 -10.609375 C 11.671875 -12.679688 11.203125 -14.253906 10.265625 -15.328125 C 9.328125 -16.410156 7.929688 -16.953125 6.078125 -16.953125 L 1.546875 -16.953125 L 1.546875 -19.046875 L 6.59375 -19.046875 C 9.0625 -19.046875 10.960938 -18.3125 12.296875 -16.84375 C 13.640625 -15.382812 14.3125 -13.269531 14.3125 -10.5 L 14.3125 -8.546875 C 14.3125 -5.773438 13.640625 -3.65625 12.296875 -2.1875 C 10.960938 -0.726562 9.0625 0 6.59375 0 L 1.546875 0 Z M 1.546875 -2.09375 "/></g></g><g style="fill:#ffffff;fill-opacity:1;"><g transform="translate(117.311233, 115.492431)"><path style="stroke:none" d="M 13.828125 -12.765625 C 13.828125 -14.253906 13.503906 -15.320312 12.859375 -15.96875 C 12.222656 -16.625 11.3125 -16.953125 10.125 -16.953125 L 2.09375 -16.953125 L 2.09375 -19.046875 L 10.703125 -19.046875 C 14.546875 -19.046875 16.46875 -16.914062 16.46875 -12.65625 L 16.46875 0 L 13.828125 0 Z M 2.0625 -9.265625 L 2.4375 -11.5625 L 4.703125 -11.5625 L 4.703125 0 L 2.0625 0 Z M 2.0625 -9.265625 "/></g></g><g style="fill:#ffffff;fill-opacity:1;"><g transform="translate(136.04205, 115.492431)"><path style="stroke:none" d=""/></g></g><g style="fill:#ffffff;fill-opacity:1;"><g transform="translate(142.903159, 115.492431)"><path style="stroke:none" d="M 16.703125 -2.09375 L 16.703125 0 L 1.75 0 L 1.75 -2.09375 L 11.625 -2.09375 L 11.625 -12.765625 C 11.625 -14.253906 11.300781 -15.320312 10.65625 -15.96875 C 10.019531 -16.625 9.109375 -16.953125 7.921875 -16.953125 L 1.75 -16.953125 L 1.75 -19.046875 L 8.515625 -19.046875 C 12.359375 -19.046875 14.28125 -16.914062 14.28125 -12.65625 L 14.28125 -2.09375 Z M 16.703125 -2.09375 "/></g></g><g style="fill:#ffffff;fill-opacity:1;"><g transform="translate(160.947857, 115.492431)"><path style="stroke:none" d="M 11.21875 -19.046875 C 13.050781 -19.046875 14.46875 -18.46875 15.46875 -17.3125 C 16.476562 -16.15625 16.984375 -14.445312 16.984375 -12.1875 L 16.984375 0 L 14.34375 0 L 14.34375 -12.28125 C 14.34375 -13.8125 14.023438 -14.972656 13.390625 -15.765625 C 12.765625 -16.554688 11.847656 -16.953125 10.640625 -16.953125 L 4.796875 -16.953125 L 4.796875 0 L 2.15625 0 L 2.15625 -19.046875 Z M 11.21875 -19.046875 "/></g></g><g style="fill:#ffffff;fill-opacity:1;"><g transform="translate(180.261863, 115.492431)"><path style="stroke:none" d="M 11.1875 -12.765625 C 11.1875 -14.253906 10.863281 -15.320312 10.21875 -15.96875 C 9.582031 -16.625 8.671875 -16.953125 7.484375 -16.953125 L 1.40625 -16.953125 L 1.40625 -19.046875 L 8.0625 -19.046875 C 11.90625 -19.046875 13.828125 -16.914062 13.828125 -12.65625 L 13.828125 0 L 11.1875 0 Z M 11.1875 -12.765625 "/></g></g><g style="fill:#ffffff;fill-opacity:1;"><g transform="translate(196.488375, 115.492431)"><path style="stroke:none" d="M 19.015625 -9.703125 C 19.015625 -6.460938 18.332031 -3.972656 16.96875 -2.234375 C 15.601562 -0.492188 13.65625 0.375 11.125 0.375 C 10.25 0.375 9.304688 0.269531 8.296875 0.0625 L 8.578125 -2.03125 C 9.328125 -1.84375 10.101562 -1.75 10.90625 -1.75 C 12.8125 -1.75 14.210938 -2.40625 15.109375 -3.71875 C 16.015625 -5.039062 16.46875 -7.003906 16.46875 -9.609375 C 16.46875 -14.597656 14.832031 -17.09375 11.5625 -17.09375 C 10.320312 -17.09375 9.328125 -16.734375 8.578125 -16.015625 C 7.828125 -15.304688 7.3125 -14.382812 7.03125 -13.25 L 4.59375 0 L 1.953125 0 L 4.5 -13.34375 L 1.859375 -19.046875 L 4.59375 -19.046875 L 6.3125 -14.921875 C 6.769531 -16.367188 7.5 -17.453125 8.5 -18.171875 C 9.507812 -18.890625 10.65625 -19.25 11.9375 -19.25 C 14.113281 -19.25 15.835938 -18.5 17.109375 -17 C 18.378906 -15.5 19.015625 -13.066406 19.015625 -9.703125 Z M 19.015625 -9.703125 "/></g></g><g style="fill:#ffffff;fill-opacity:1;"><g transform="translate(217.243212, 115.492431)"><path style="stroke:none" d="M 13.828125 -12.765625 C 13.828125 -14.253906 13.503906 -15.320312 12.859375 -15.96875 C 12.222656 -16.625 11.3125 -16.953125 10.125 -16.953125 L 2.09375 -16.953125 L 2.09375 -19.046875 L 10.703125 -19.046875 C 14.546875 -19.046875 16.46875 -16.914062 16.46875 -12.65625 L 16.46875 0 L 13.828125 0 Z M 2.0625 -9.265625 L 2.4375 -11.5625 L 4.703125 -11.5625 L 4.703125 0 L 2.0625 0 Z M 2.0625 -9.265625 "/></g></g><g style="fill:#ffffff;fill-opacity:1;"><g transform="translate(235.974016, 115.492431)"><path style="stroke:none" d="M 19.015625 -9.703125 C 19.015625 -6.460938 18.332031 -3.972656 16.96875 -2.234375 C 15.601562 -0.492188 13.65625 0.375 11.125 0.375 C 10.25 0.375 9.304688 0.269531 8.296875 0.0625 L 8.578125 -2.03125 C 9.328125 -1.84375 10.101562 -1.75 10.90625 -1.75 C 12.8125 -1.75 14.210938 -2.40625 15.109375 -3.71875 C 16.015625 -5.039062 16.46875 -7.003906 16.46875 -9.609375 C 16.46875 -14.597656 14.832031 -17.09375 11.5625 -17.09375 C 10.320312 -17.09375 9.328125 -16.734375 8.578125 -16.015625 C 7.828125 -15.304688 7.3125 -14.382812 7.03125 -13.25 L 4.59375 0 L 1.953125 0 L 4.5 -13.34375 L 1.859375 -19.046875 L 4.59375 -19.046875 L 6.3125 -14.921875 C 6.769531 -16.367188 7.5 -17.453125 8.5 -18.171875 C 9.507812 -18.890625 10.65625 -19.25 11.9375 -19.25 C 14.113281 -19.25 15.835938 -18.5 17.109375 -17 C 18.378906 -15.5 19.015625 -13.066406 19.015625 -9.703125 Z M 19.015625 -9.703125 "/></g></g><g style="fill:#ffffff;fill-opacity:1;"><g transform="translate(256.728864, 115.492431)"><path style="stroke:none" d=""/></g></g><g style="fill:#ffffff;fill-opacity:1;"><g transform="translate(263.589962, 115.492431)"><path style="stroke:none" d="M 11.1875 -12.765625 C 11.1875 -14.253906 10.863281 -15.320312 10.21875 -15.96875 C 9.582031 -16.625 8.671875 -16.953125 7.484375 -16.953125 L 1.40625 -16.953125 L 1.40625 -19.046875 L 8.0625 -19.046875 C 11.90625 -19.046875 13.828125 -16.914062 13.828125 -12.65625 L 13.828125 0 L 11.1875 0 Z M 11.1875 -12.765625 "/></g></g><g style="fill:#ffffff;fill-opacity:1;"><g transform="translate(279.816474, 115.492431)"><path style="stroke:none" d="M 10.5 -12.9375 C 10.5 -14.695312 10.804688 -16.035156 11.421875 -16.953125 L 1.8125 -16.953125 L 1.8125 -19.046875 L 16.5 -19.046875 L 16.5 -16.953125 L 13.96875 -16.953125 C 13.414062 -16.015625 13.140625 -14.675781 13.140625 -12.9375 L 13.140625 0 L 10.5 0 Z M 10.5 -12.9375 "/></g></g><g style="fill:#ffffff;fill-opacity:1;"><g transform="translate(298.204236, 115.492431)"><path style="stroke:none" d="M 17.609375 -11.015625 C 17.835938 -3.859375 13.304688 -0.0703125 4.015625 0.34375 L 1.921875 -16.953125 L 1.6875 -19.046875 L 11.046875 -19.046875 C 13.054688 -19.046875 14.628906 -18.421875 15.765625 -17.171875 C 16.898438 -15.921875 17.5 -14.222656 17.5625 -12.078125 Z M 6.34375 -2.09375 C 9.070312 -2.34375 11.222656 -3.128906 12.796875 -4.453125 C 14.378906 -5.785156 15.097656 -7.992188 14.953125 -11.078125 L 14.953125 -11.90625 C 14.953125 -13.394531 14.59375 -14.609375 13.875 -15.546875 C 13.15625 -16.484375 12.144531 -16.953125 10.84375 -16.953125 L 4.5625 -16.953125 Z M 6.34375 -2.09375 "/></g></g><g style="fill:#ffffff;fill-opacity:1;"><g transform="translate(317.58687, 115.492431)"><path style="stroke:none" d="M 13.828125 -12.765625 C 13.828125 -14.253906 13.503906 -15.320312 12.859375 -15.96875 C 12.222656 -16.625 11.3125 -16.953125 10.125 -16.953125 L 2.09375 -16.953125 L 2.09375 -19.046875 L 10.703125 -19.046875 C 14.546875 -19.046875 16.46875 -16.914062 16.46875 -12.65625 L 16.46875 0 L 13.828125 0 Z M 2.0625 -9.265625 L 2.4375 -11.5625 L 4.703125 -11.5625 L 4.703125 0 L 2.0625 0 Z M 2.0625 -9.265625 "/></g></g><g style="fill:#ffffff;fill-opacity:1;"><g transform="translate(336.317675, 115.492431)"><path style="stroke:none" d=""/></g></g><g style="fill:#ffffff;fill-opacity:1;"><g transform="translate(343.178795, 115.492431)"><path style="stroke:none" d="M 2.671875 -15.03125 L 2.234375 -19.046875 L 4.84375 -19.046875 L 5.3125 -15.03125 L 5.3125 -9.921875 L 5.28125 -7.75 L 2.671875 -7.203125 Z M 2.671875 -15.03125 "/></g></g><g style="fill:#ffffff;fill-opacity:1;"><g transform="translate(350.863231, 115.492431)"><path style="stroke:none" d="M 2.609375 -2.09375 L 8.234375 -2.09375 C 10.015625 -2.09375 11.4375 -2.585938 12.5 -3.578125 C 13.570312 -4.578125 14.109375 -6.222656 14.109375 -8.515625 L 14.109375 -10.609375 C 14.109375 -12.679688 13.707031 -14.253906 12.90625 -15.328125 C 12.101562 -16.410156 10.890625 -16.953125 9.265625 -16.953125 L 5.65625 -16.953125 L 4.765625 -13.140625 C 4.628906 -12.503906 4.5625 -11.929688 4.5625 -11.421875 C 4.5625 -10.648438 4.769531 -10.046875 5.1875 -9.609375 C 5.613281 -9.171875 6.320312 -8.863281 7.3125 -8.6875 L 6.765625 -6.859375 C 5.160156 -7.023438 4 -7.476562 3.28125 -8.21875 C 2.5625 -8.957031 2.203125 -9.992188 2.203125 -11.328125 C 2.203125 -11.960938 2.269531 -12.632812 2.40625 -13.34375 L 3.703125 -19.046875 L 9.703125 -19.046875 C 11.921875 -19.046875 13.640625 -18.3125 14.859375 -16.84375 C 16.085938 -15.382812 16.71875 -13.28125 16.75 -10.53125 L 16.75 -8.609375 C 16.75 -5.640625 16.003906 -3.460938 14.515625 -2.078125 C 13.023438 -0.691406 11.082031 0 8.6875 0 L 2.609375 0 Z M 2.609375 -2.09375 "/></g></g><g style="fill:#ffffff;fill-opacity:1;"><g transform="translate(369.422527, 115.492431)"><path style="stroke:none" d="M 14.75 -19.046875 L 14.75 -16.8125 L 8.125 0 L 5.484375 0 L 12.109375 -16.953125 L 1.46875 -16.953125 L 1.46875 -24.609375 L 3.90625 -24.609375 L 3.90625 -19.046875 Z M 14.75 -19.046875 "/></g></g><g style="fill:#ffffff;fill-opacity:1;"><g transform="translate(52.819931, 163.450024)"><path style="stroke:none" d="M 14.75 -19.046875 L 14.75 -16.8125 L 8.125 0 L 5.484375 0 L 12.109375 -16.953125 L 1.46875 -16.953125 L 1.46875 -24.609375 L 3.90625 -24.609375 L 3.90625 -19.046875 Z M 14.75 -19.046875 "/></g></g><g style="fill:#ffffff;fill-opacity:1;"><g transform="translate(69.149359, 163.450024)"><path style="stroke:none" d="M 16.40625 -19.046875 C 16.40625 -14.328125 16.226562 -10.8125 15.875 -8.5 C 15.519531 -6.195312 14.679688 -4.367188 13.359375 -3.015625 C 12.046875 -1.671875 9.9375 -0.710938 7.03125 -0.140625 L 1.265625 1 L 0.890625 -1.125 L 6.96875 -2.296875 L 2.546875 -19.046875 L 5.1875 -19.046875 L 9.375 -2.984375 C 10.789062 -3.554688 11.804688 -4.441406 12.421875 -5.640625 C 13.035156 -6.847656 13.410156 -8.378906 13.546875 -10.234375 C 13.691406 -12.097656 13.773438 -15.035156 13.796875 -19.046875 Z M 16.40625 -19.046875 "/></g></g><g style="fill:#ffffff;fill-opacity:1;"><g transform="translate(87.36559, 163.450024)"><path style="stroke:none" d=""/></g></g><g style="fill:#ffffff;fill-opacity:1;"><g transform="translate(94.226699, 163.450024)"><path style="stroke:none" d="M 2.671875 -15.03125 L 2.234375 -19.046875 L 4.84375 -19.046875 L 5.3125 -15.03125 L 5.3125 0 L 2.671875 0 Z M 2.671875 -15.03125 "/></g></g><g style="fill:#ffffff;fill-opacity:1;"><g transform="translate(101.911135, 163.450024)"><path style="stroke:none" d="M 16.09375 0 L 1.34375 0 L 1.34375 -2.09375 L 12.140625 -2.09375 L 2.03125 -19.046875 L 4.765625 -19.046875 L 9.640625 -10.84375 L 13.140625 -19.046875 L 15.8125 -19.046875 L 11.078125 -8.4375 Z M 16.09375 0 "/></g></g><g style="fill:#ffffff;fill-opacity:1;"><g transform="translate(119.647092, 163.450024)"><path style="stroke:none" d="M 11.21875 -19.046875 C 13.050781 -19.046875 14.46875 -18.46875 15.46875 -17.3125 C 16.476562 -16.15625 16.984375 -14.445312 16.984375 -12.1875 L 16.984375 0 L 14.34375 0 L 14.34375 -12.28125 C 14.34375 -13.8125 14.023438 -14.972656 13.390625 -15.765625 C 12.765625 -16.554688 11.847656 -16.953125 10.640625 -16.953125 L 4.796875 -16.953125 L 4.796875 0 L 2.15625 0 L 2.15625 -19.046875 Z M 11.21875 -19.046875 "/></g></g><g style="fill:#ffffff;fill-opacity:1;"><g transform="translate(138.961098, 163.450024)"><path style="stroke:none" d="M 14.75 -19.046875 L 14.75 -16.8125 L 8.125 0 L 5.484375 0 L 12.109375 -16.953125 L 1.46875 -16.953125 L 1.46875 -24.609375 L 3.90625 -24.609375 L 3.90625 -19.046875 Z M 14.75 -19.046875 "/></g></g><g style="fill:#ffffff;fill-opacity:1;"><g transform="translate(155.290527, 163.450024)"><path style="stroke:none" d="M 0.75 -1.40625 C 2.101562 -1.519531 3.035156 -1.898438 3.546875 -2.546875 C 4.066406 -3.203125 4.328125 -4.195312 4.328125 -5.53125 L 4.328125 -19.046875 L 12.734375 -19.046875 C 16.578125 -19.046875 18.5 -16.914062 18.5 -12.65625 L 18.5 0 L 15.859375 0 L 15.859375 -12.765625 C 15.859375 -14.253906 15.535156 -15.320312 14.890625 -15.96875 C 14.253906 -16.625 13.335938 -16.953125 12.140625 -16.953125 L 6.96875 -16.953125 L 6.96875 -5.796875 C 6.96875 -3.785156 6.5 -2.28125 5.5625 -1.28125 C 4.625 -0.289062 3.113281 0.296875 1.03125 0.484375 Z M 0.75 -1.40625 "/></g></g><g style="fill:#ffffff;fill-opacity:1;"><g transform="translate(176.045364, 163.450024)"><path style="stroke:none" d=""/></g></g><g style="fill:#ffffff;fill-opacity:1;"><g transform="translate(182.906473, 163.450024)"><path style="stroke:none" d="M 4.28125 -3.609375 C 4.96875 -3.609375 5.507812 -3.332031 5.90625 -2.78125 C 6.3125 -2.226562 6.515625 -1.472656 6.515625 -0.515625 C 6.515625 0.878906 6.128906 2.117188 5.359375 3.203125 C 4.597656 4.296875 3.566406 5.128906 2.265625 5.703125 L 1.609375 4.1875 C 2.546875 3.769531 3.269531 3.207031 3.78125 2.5 C 4.300781 1.789062 4.570312 0.96875 4.59375 0.03125 C 4.53125 0.0507812 4.414062 0.0625 4.25 0.0625 C 3.707031 0.0625 3.25 -0.0976562 2.875 -0.421875 C 2.507812 -0.753906 2.328125 -1.207031 2.328125 -1.78125 C 2.328125 -2.332031 2.519531 -2.773438 2.90625 -3.109375 C 3.300781 -3.441406 3.757812 -3.609375 4.28125 -3.609375 Z M 4.28125 -3.609375 "/></g></g><g style="fill:#ffffff;fill-opacity:1;"><g transform="translate(191.208412, 163.450024)"><path style="stroke:none" d="M 16.703125 -2.09375 L 16.703125 0 L 1.75 0 L 1.75 -2.09375 L 11.625 -2.09375 L 11.625 -12.765625 C 11.625 -14.253906 11.300781 -15.320312 10.65625 -15.96875 C 10.019531 -16.625 9.109375 -16.953125 7.921875 -16.953125 L 1.75 -16.953125 L 1.75 -19.046875 L 8.515625 -19.046875 C 12.359375 -19.046875 14.28125 -16.914062 14.28125 -12.65625 L 14.28125 -2.09375 Z M 16.703125 -2.09375 "/></g></g><g style="fill:#ffffff;fill-opacity:1;"><g transform="translate(209.25311, 163.450024)"><path style="stroke:none" d="M 2.671875 -15.03125 L 2.234375 -19.046875 L 4.84375 -19.046875 L 5.3125 -15.03125 L 5.3125 0 L 2.671875 0 Z M 2.671875 -15.03125 "/></g></g><g style="fill:#ffffff;fill-opacity:1;"><g transform="translate(216.937546, 163.450024)"><path style="stroke:none" d="M 1.6875 -19.046875 L 4.328125 -19.046875 L 6.3125 -2.09375 C 8.96875 -2.363281 11.085938 -3.226562 12.671875 -4.6875 C 14.265625 -6.15625 15.003906 -8.390625 14.890625 -11.390625 L 14.890625 -12.25 C 14.890625 -13.664062 14.523438 -14.804688 13.796875 -15.671875 C 13.066406 -16.546875 11.96875 -17.03125 10.5 -17.125 L 8.78125 -17.21875 L 8.953125 -19.359375 L 10.875 -19.21875 C 12.882812 -19.101562 14.46875 -18.492188 15.625 -17.390625 C 16.78125 -16.296875 17.394531 -14.695312 17.46875 -12.59375 L 17.5 -11.625 C 17.632812 -7.695312 16.46875 -4.769531 14 -2.84375 C 11.53125 -0.925781 8.191406 0.132812 3.984375 0.34375 Z M 1.6875 -19.046875 "/></g></g><g style="fill:#ffffff;fill-opacity:1;"><g transform="translate(235.908499, 163.450024)"><path style="stroke:none" d=""/></g></g><g style="fill:#ffffff;fill-opacity:1;"><g transform="translate(242.769608, 163.450024)"><path style="stroke:none" d="M 0.75 -1.40625 C 2.101562 -1.519531 3.035156 -1.898438 3.546875 -2.546875 C 4.066406 -3.203125 4.328125 -4.195312 4.328125 -5.53125 L 4.328125 -19.046875 L 12.734375 -19.046875 C 16.578125 -19.046875 18.5 -16.914062 18.5 -12.65625 L 18.5 0 L 15.859375 0 L 15.859375 -12.765625 C 15.859375 -14.253906 15.535156 -15.320312 14.890625 -15.96875 C 14.253906 -16.625 13.335938 -16.953125 12.140625 -16.953125 L 6.96875 -16.953125 L 6.96875 -5.796875 C 6.96875 -3.785156 6.5 -2.28125 5.5625 -1.28125 C 4.625 -0.289062 3.113281 0.296875 1.03125 0.484375 Z M 0.75 -1.40625 "/></g></g><g style="fill:#ffffff;fill-opacity:1;"><g transform="translate(263.524445, 163.450024)"><path style="stroke:none" d="M 2.671875 -15.03125 L 2.234375 -19.046875 L 4.84375 -19.046875 L 5.3125 -15.03125 L 5.3125 0 L 2.671875 0 Z M 2.671875 -15.03125 "/></g></g><g style="fill:#ffffff;fill-opacity:1;"><g transform="translate(271.208881, 163.450024)"><path style="stroke:none" d="M 11.21875 -19.046875 C 13.050781 -19.046875 14.46875 -18.46875 15.46875 -17.3125 C 16.476562 -16.15625 16.984375 -14.445312 16.984375 -12.1875 L 16.984375 0 L 14.34375 0 L 14.34375 -12.28125 C 14.34375 -13.8125 14.023438 -14.972656 13.390625 -15.765625 C 12.765625 -16.554688 11.847656 -16.953125 10.640625 -16.953125 L 4.796875 -16.953125 L 4.796875 0 L 2.15625 0 L 2.15625 -19.046875 Z M 11.21875 -19.046875 "/></g></g><g style="fill:#ffffff;fill-opacity:1;"><g transform="translate(290.522887, 163.450024)"><path style="stroke:none" d="M 2.609375 -2.09375 L 8.234375 -2.09375 C 10.015625 -2.09375 11.4375 -2.585938 12.5 -3.578125 C 13.570312 -4.578125 14.109375 -6.222656 14.109375 -8.515625 L 14.109375 -10.609375 C 14.109375 -12.679688 13.707031 -14.253906 12.90625 -15.328125 C 12.101562 -16.410156 10.890625 -16.953125 9.265625 -16.953125 L 5.65625 -16.953125 L 4.765625 -13.140625 C 4.628906 -12.503906 4.5625 -11.929688 4.5625 -11.421875 C 4.5625 -10.648438 4.769531 -10.046875 5.1875 -9.609375 C 5.613281 -9.171875 6.320312 -8.863281 7.3125 -8.6875 L 6.765625 -6.859375 C 5.160156 -7.023438 4 -7.476562 3.28125 -8.21875 C 2.5625 -8.957031 2.203125 -9.992188 2.203125 -11.328125 C 2.203125 -11.960938 2.269531 -12.632812 2.40625 -13.34375 L 3.703125 -19.046875 L 9.703125 -19.046875 C 11.921875 -19.046875 13.640625 -18.3125 14.859375 -16.84375 C 16.085938 -15.382812 16.71875 -13.28125 16.75 -10.53125 L 16.75 -8.609375 C 16.75 -5.640625 16.003906 -3.460938 14.515625 -2.078125 C 13.023438 -0.691406 11.082031 0 8.6875 0 L 2.609375 0 Z M 2.609375 -2.09375 "/></g></g><g style="fill:#ffffff;fill-opacity:1;"><g transform="translate(309.08216, 163.450024)"><path style="stroke:none" d=""/></g></g><g style="fill:#ffffff;fill-opacity:1;"><g transform="translate(315.94328, 163.450024)"><path style="stroke:none" d="M 2.671875 -15.03125 L 2.234375 -19.046875 L 4.84375 -19.046875 L 5.3125 -15.03125 L 5.3125 -9.921875 L 5.28125 -7.75 L 2.671875 -7.203125 Z M 2.671875 -15.03125 "/></g></g><g style="fill:#ffffff;fill-opacity:1;"><g transform="translate(323.627716, 163.450024)"><path style="stroke:none" d="M 1.546875 -2.09375 L 6.078125 -2.09375 C 7.929688 -2.09375 9.328125 -2.628906 10.265625 -3.703125 C 11.203125 -4.773438 11.671875 -6.351562 11.671875 -8.4375 L 11.671875 -10.609375 C 11.671875 -12.679688 11.203125 -14.253906 10.265625 -15.328125 C 9.328125 -16.410156 7.929688 -16.953125 6.078125 -16.953125 L 1.546875 -16.953125 L 1.546875 -19.046875 L 6.59375 -19.046875 C 9.0625 -19.046875 10.960938 -18.3125 12.296875 -16.84375 C 13.640625 -15.382812 14.3125 -13.269531 14.3125 -10.5 L 14.3125 -8.546875 C 14.3125 -5.773438 13.640625 -3.65625 12.296875 -2.1875 C 10.960938 -0.726562 9.0625 0 6.59375 0 L 1.546875 0 Z M 1.546875 -2.09375 "/></g></g><g style="fill:#ffffff;fill-opacity:1;"><g transform="translate(339.785601, 163.450024)"><path style="stroke:none" d="M 13.828125 -12.765625 C 13.828125 -14.253906 13.503906 -15.320312 12.859375 -15.96875 C 12.222656 -16.625 11.3125 -16.953125 10.125 -16.953125 L 2.09375 -16.953125 L 2.09375 -19.046875 L 10.703125 -19.046875 C 14.546875 -19.046875 16.46875 -16.914062 16.46875 -12.65625 L 16.46875 0 L 13.828125 0 Z M 2.0625 -9.265625 L 2.4375 -11.5625 L 4.703125 -11.5625 L 4.703125 0 L 2.0625 0 Z M 2.0625 -9.265625 "/></g></g><g style="fill:#ffffff;fill-opacity:1;"><g transform="translate(358.516429, 163.450024)"><path style="stroke:none" d="M 14.75 -19.046875 L 14.75 -16.8125 L 8.125 0 L 5.484375 0 L 12.109375 -16.953125 L 1.46875 -16.953125 L 1.46875 -24.609375 L 3.90625 -24.609375 L 3.90625 -19.046875 Z M 14.75 -19.046875 "/></g></g><g style="fill:#ffffff;fill-opacity:1;"><g transform="translate(92.862648, 211.407617)"><path style="stroke:none" d="M 11.796875 -19.046875 C 15.640625 -19.046875 17.5625 -16.914062 17.5625 -12.65625 L 17.5625 0 L 2.578125 0 L 2.578125 -19.046875 Z M 14.921875 -2.09375 L 14.921875 -12.765625 C 14.921875 -14.253906 14.597656 -15.320312 13.953125 -15.96875 C 13.316406 -16.625 12.40625 -16.953125 11.21875 -16.953125 L 5.21875 -16.953125 L 5.21875 -2.09375 Z M 14.921875 -2.09375 "/></g></g><g style="fill:#ffffff;fill-opacity:1;"><g transform="translate(112.759845, 211.407617)"><path style="stroke:none" d="M 1.546875 -2.09375 L 6.078125 -2.09375 C 7.929688 -2.09375 9.328125 -2.628906 10.265625 -3.703125 C 11.203125 -4.773438 11.671875 -6.351562 11.671875 -8.4375 L 11.671875 -10.609375 C 11.671875 -12.679688 11.203125 -14.253906 10.265625 -15.328125 C 9.328125 -16.410156 7.929688 -16.953125 6.078125 -16.953125 L 1.546875 -16.953125 L 1.546875 -19.046875 L 6.59375 -19.046875 C 9.0625 -19.046875 10.960938 -18.3125 12.296875 -16.84375 C 13.640625 -15.382812 14.3125 -13.269531 14.3125 -10.5 L 14.3125 -8.546875 C 14.3125 -5.773438 13.640625 -3.65625 12.296875 -2.1875 C 10.960938 -0.726562 9.0625 0 6.59375 0 L 1.546875 0 Z M 1.546875 -2.09375 "/></g></g><g style="fill:#ffffff;fill-opacity:1;"><g transform="translate(128.917741, 211.407617)"><path style="stroke:none" d="M 0.75 -1.40625 C 2.101562 -1.519531 3.035156 -1.898438 3.546875 -2.546875 C 4.066406 -3.203125 4.328125 -4.195312 4.328125 -5.53125 L 4.328125 -19.046875 L 12.734375 -19.046875 C 16.578125 -19.046875 18.5 -16.914062 18.5 -12.65625 L 18.5 0 L 15.859375 0 L 15.859375 -12.765625 C 15.859375 -14.253906 15.535156 -15.320312 14.890625 -15.96875 C 14.253906 -16.625 13.335938 -16.953125 12.140625 -16.953125 L 6.96875 -16.953125 L 6.96875 -5.796875 C 6.96875 -3.785156 6.5 -2.28125 5.5625 -1.28125 C 4.625 -0.289062 3.113281 0.296875 1.03125 0.484375 Z M 0.75 -1.40625 "/></g></g><g style="fill:#ffffff;fill-opacity:1;"><g transform="translate(149.672578, 211.407617)"><path style="stroke:none" d="M 2.671875 -15.03125 L 2.234375 -19.046875 L 4.84375 -19.046875 L 5.3125 -15.03125 L 5.3125 0 L 2.671875 0 Z M 2.671875 -15.03125 "/></g></g><g style="fill:#ffffff;fill-opacity:1;"><g transform="translate(157.357014, 211.407617)"><path style="stroke:none" d="M 19.765625 -14.140625 C 19.785156 -9.285156 18.5 -5.664062 15.90625 -3.28125 C 13.3125 -0.90625 9.367188 0.300781 4.078125 0.34375 L 1.6875 -19.046875 L 4.21875 -19.046875 L 5.390625 -9.328125 C 6.421875 -9.878906 7.21875 -10.46875 7.78125 -11.09375 C 8.351562 -11.726562 8.769531 -12.5 9.03125 -13.40625 C 9.300781 -14.320312 9.457031 -15.503906 9.5 -16.953125 L 9.53125 -18.96875 L 12.078125 -18.96875 L 12.046875 -16.984375 C 11.992188 -14.460938 11.488281 -12.460938 10.53125 -10.984375 C 9.570312 -9.515625 7.9375 -8.28125 5.625 -7.28125 L 6.28125 -1.984375 C 9.914062 -2.210938 12.632812 -3.304688 14.4375 -5.265625 C 16.25 -7.222656 17.144531 -10.144531 17.125 -14.03125 L 17.09375 -19.046875 L 19.734375 -19.046875 Z M 19.765625 -14.140625 "/></g></g><g style="fill:#ffffff;fill-opacity:1;"><g transform="translate(178.969491, 211.407617)"><path style="stroke:none" d="M 11.1875 -12.765625 C 11.1875 -14.253906 10.863281 -15.320312 10.21875 -15.96875 C 9.582031 -16.625 8.671875 -16.953125 7.484375 -16.953125 L 1.40625 -16.953125 L 1.40625 -19.046875 L 8.0625 -19.046875 C 11.90625 -19.046875 13.828125 -16.914062 13.828125 -12.65625 L 13.828125 0 L 11.1875 0 Z M 11.1875 -12.765625 "/></g></g><g style="fill:#ffffff;fill-opacity:1;"><g transform="translate(195.196002, 211.407617)"><path style="stroke:none" d="M 16.703125 -2.09375 L 16.703125 0 L 1.75 0 L 1.75 -2.09375 L 11.625 -2.09375 L 11.625 -12.765625 C 11.625 -14.253906 11.300781 -15.320312 10.65625 -15.96875 C 10.019531 -16.625 9.109375 -16.953125 7.921875 -16.953125 L 1.75 -16.953125 L 1.75 -19.046875 L 8.515625 -19.046875 C 12.359375 -19.046875 14.28125 -16.914062 14.28125 -12.65625 L 14.28125 -2.09375 Z M 16.703125 -2.09375 "/></g></g><g style="fill:#ffffff;fill-opacity:1;"><g transform="translate(213.2407, 211.407617)"><path style="stroke:none" d="M 19.765625 -14.140625 C 19.785156 -9.285156 18.5 -5.664062 15.90625 -3.28125 C 13.3125 -0.90625 9.367188 0.300781 4.078125 0.34375 L 1.6875 -19.046875 L 4.21875 -19.046875 L 5.390625 -9.328125 C 6.421875 -9.878906 7.21875 -10.46875 7.78125 -11.09375 C 8.351562 -11.726562 8.769531 -12.5 9.03125 -13.40625 C 9.300781 -14.320312 9.457031 -15.503906 9.5 -16.953125 L 9.53125 -18.96875 L 12.078125 -18.96875 L 12.046875 -16.984375 C 11.992188 -14.460938 11.488281 -12.460938 10.53125 -10.984375 C 9.570312 -9.515625 7.9375 -8.28125 5.625 -7.28125 L 6.28125 -1.984375 C 9.914062 -2.210938 12.632812 -3.304688 14.4375 -5.265625 C 16.25 -7.222656 17.144531 -10.144531 17.125 -14.03125 L 17.09375 -19.046875 L 19.734375 -19.046875 Z M 19.765625 -14.140625 "/></g></g><g style="fill:#ffffff;fill-opacity:1;"><g transform="translate(234.853177, 211.407617)"><path style="stroke:none" d=""/></g></g><g style="fill:#ffffff;fill-opacity:1;"><g transform="translate(241.714286, 211.407617)"><path style="stroke:none" d="M 16.703125 -2.09375 L 16.703125 0 L 1.75 0 L 1.75 -2.09375 L 11.625 -2.09375 L 11.625 -12.765625 C 11.625 -14.253906 11.300781 -15.320312 10.65625 -15.96875 C 10.019531 -16.625 9.109375 -16.953125 7.921875 -16.953125 L 1.75 -16.953125 L 1.75 -19.046875 L 8.515625 -19.046875 C 12.359375 -19.046875 14.28125 -16.914062 14.28125 -12.65625 L 14.28125 -2.09375 Z M 16.703125 -2.09375 "/></g></g><g style="fill:#ffffff;fill-opacity:1;"><g transform="translate(259.758984, 211.407617)"><path style="stroke:none" d="M 11.21875 -19.046875 C 13.050781 -19.046875 14.46875 -18.46875 15.46875 -17.3125 C 16.476562 -16.15625 16.984375 -14.445312 16.984375 -12.1875 L 16.984375 0 L 14.34375 0 L 14.34375 -12.28125 C 14.34375 -13.8125 14.023438 -14.972656 13.390625 -15.765625 C 12.765625 -16.554688 11.847656 -16.953125 10.640625 -16.953125 L 4.796875 -16.953125 L 4.796875 0 L 2.15625 0 L 2.15625 -19.046875 Z M 11.21875 -19.046875 "/></g></g><g style="fill:#ffffff;fill-opacity:1;"><g transform="translate(279.07299, 211.407617)"><path style="stroke:none" d="M 11.1875 -12.765625 C 11.1875 -14.253906 10.863281 -15.320312 10.21875 -15.96875 C 9.582031 -16.625 8.671875 -16.953125 7.484375 -16.953125 L 1.40625 -16.953125 L 1.40625 -19.046875 L 8.0625 -19.046875 C 11.90625 -19.046875 13.828125 -16.914062 13.828125 -12.65625 L 13.828125 0 L 11.1875 0 Z M 11.1875 -12.765625 "/></g></g><g style="fill:#ffffff;fill-opacity:1;"><g transform="translate(295.299502, 211.407617)"><path style="stroke:none" d="M 19.015625 -9.703125 C 19.015625 -6.460938 18.332031 -3.972656 16.96875 -2.234375 C 15.601562 -0.492188 13.65625 0.375 11.125 0.375 C 10.25 0.375 9.304688 0.269531 8.296875 0.0625 L 8.578125 -2.03125 C 9.328125 -1.84375 10.101562 -1.75 10.90625 -1.75 C 12.8125 -1.75 14.210938 -2.40625 15.109375 -3.71875 C 16.015625 -5.039062 16.46875 -7.003906 16.46875 -9.609375 C 16.46875 -14.597656 14.832031 -17.09375 11.5625 -17.09375 C 10.320312 -17.09375 9.328125 -16.734375 8.578125 -16.015625 C 7.828125 -15.304688 7.3125 -14.382812 7.03125 -13.25 L 4.59375 0 L 1.953125 0 L 4.5 -13.34375 L 1.859375 -19.046875 L 4.59375 -19.046875 L 6.3125 -14.921875 C 6.769531 -16.367188 7.5 -17.453125 8.5 -18.171875 C 9.507812 -18.890625 10.65625 -19.25 11.9375 -19.25 C 14.113281 -19.25 15.835938 -18.5 17.109375 -17 C 18.378906 -15.5 19.015625 -13.066406 19.015625 -9.703125 Z M 19.015625 -9.703125 "/></g></g><g style="fill:#ffffff;fill-opacity:1;"><g transform="translate(316.054328, 211.407617)"><path style="stroke:none" d="M 13.828125 -12.765625 C 13.828125 -14.253906 13.503906 -15.320312 12.859375 -15.96875 C 12.222656 -16.625 11.3125 -16.953125 10.125 -16.953125 L 2.09375 -16.953125 L 2.09375 -19.046875 L 10.703125 -19.046875 C 14.546875 -19.046875 16.46875 -16.914062 16.46875 -12.65625 L 16.46875 0 L 13.828125 0 Z M 2.0625 -9.265625 L 2.4375 -11.5625 L 4.703125 -11.5625 L 4.703125 0 L 2.0625 0 Z M 2.0625 -9.265625 "/></g></g></g></svg>