<svg xmlns="http://www.w3.org/2000/svg" xmlns:xlink="http://www.w3.org/1999/xlink" width="375" zoomAndPan="magnify" viewBox="0 0 281.25 147.000002" height="196" preserveAspectRatio="xMidYMid meet" version="1.2"><defs><clipPath id="a547529d07"><path d="M 0.578125 0 L 279.234375 0 L 279.234375 145.882812 L 0.578125 145.882812 Z M 0.578125 0 "/></clipPath><clipPath id="1a98d5d63c"><path d="M 34.84375 0 L 244.933594 0 C 263.859375 0 279.203125 15.34375 279.203125 34.265625 L 279.203125 111.613281 C 279.203125 130.539062 263.859375 145.882812 244.933594 145.882812 L 34.84375 145.882812 C 15.917969 145.882812 0.578125 130.539062 0.578125 111.613281 L 0.578125 34.265625 C 0.578125 15.34375 15.917969 0 34.84375 0 Z M 34.84375 0 "/></clipPath><clipPath id="dcc3228ab6"><path d="M 0.578125 0 L 279.234375 0 L 279.234375 145.882812 L 0.578125 145.882812 Z M 0.578125 0 "/></clipPath><clipPath id="60d92f998f"><path d="M 34.84375 0 L 244.933594 0 C 263.859375 0 279.203125 15.34375 279.203125 34.265625 L 279.203125 111.613281 C 279.203125 130.539062 263.859375 145.882812 244.933594 145.882812 L 34.84375 145.882812 C 15.917969 145.882812 0.578125 130.539062 0.578125 111.613281 L 0.578125 34.265625 C 0.578125 15.34375 15.917969 0 34.84375 0 Z M 34.84375 0 "/></clipPath><clipPath id="111a432158"><rect x="0" width="280" y="0" height="146"/></clipPath><clipPath id="2a53889cf0"><rect x="0" width="221" y="0" height="93"/></clipPath></defs><g id="26d70e57c4"><g clip-rule="nonzero" clip-path="url(#a547529d07)"><g clip-rule="nonzero" clip-path="url(#1a98d5d63c)"><g transform="matrix(1,0,0,1,0,0.000000000000009996)"><g clip-path="url(#111a432158)"><g clip-rule="nonzero" clip-path="url(#dcc3228ab6)"><g clip-rule="nonzero" clip-path="url(#60d92f998f)"><path style=" stroke:none;fill-rule:nonzero;fill:#f7b7d2;fill-opacity:1;" d="M 0.578125 0 L 279.234375 0 L 279.234375 145.882812 L 0.578125 145.882812 Z M 0.578125 0 "/></g></g></g></g></g></g><g transform="matrix(1,0,0,1,27,24)"><g clip-path="url(#2a53889cf0)"><g style="fill:#112c59;fill-opacity:1;"><g transform="translate(0.678059, 35.022741)"><path style="stroke:none" d="M 21.71875 -13.703125 C 21.757812 -9.066406 20.410156 -5.566406 17.671875 -3.203125 C 14.941406 -0.835938 10.703125 0.34375 4.953125 0.34375 L 3.90625 0.34375 L 1.359375 -19.375 L 6 -19.375 L 6.984375 -11 C 7.890625 -11.445312 8.5 -12.125 8.8125 -13.03125 C 9.132812 -13.9375 9.285156 -15.296875 9.265625 -17.109375 L 9.265625 -19.34375 L 13.921875 -19.34375 L 13.921875 -17.203125 C 13.867188 -14.710938 13.367188 -12.691406 12.421875 -11.140625 C 11.472656 -9.597656 9.796875 -8.421875 7.390625 -7.609375 L 7.875 -3.703125 C 11.101562 -3.898438 13.40625 -4.832031 14.78125 -6.5 C 16.164062 -8.164062 16.847656 -10.476562 16.828125 -13.4375 L 16.765625 -19.375 L 21.6875 -19.375 Z M 21.71875 -13.703125 "/></g></g><g style="fill:#112c59;fill-opacity:1;"><g transform="translate(23.679056, 35.022741)"><path style="stroke:none" d="M 9.84375 -13.234375 C 9.84375 -14.890625 9.082031 -15.71875 7.5625 -15.71875 L 0.953125 -15.71875 L 0.953125 -19.375 L 8.890625 -19.375 C 10.703125 -19.375 12.132812 -18.859375 13.1875 -17.828125 C 14.238281 -16.804688 14.765625 -15.195312 14.765625 -13 L 14.765625 0 L 9.84375 0 Z M 9.84375 -13.234375 "/></g></g><g style="fill:#112c59;fill-opacity:1;"><g transform="translate(40.234353, 35.022741)"><path style="stroke:none" d="M 8.921875 -11.75 C 8.921875 -12.601562 9.003906 -13.375 9.171875 -14.0625 C 9.347656 -14.757812 9.582031 -15.3125 9.875 -15.71875 L 1.1875 -15.71875 L 1.1875 -19.375 L 17.109375 -19.375 L 17.109375 -15.71875 L 14.453125 -15.71875 C 14.023438 -14.738281 13.8125 -13.414062 13.8125 -11.75 L 13.8125 0 L 8.921875 0 Z M 8.921875 -11.75 "/></g></g><g style="fill:#112c59;fill-opacity:1;"><g transform="translate(58.621581, 35.022741)"><path style="stroke:none" d="M 1.328125 -3.671875 L 6.28125 -3.671875 L 6.28125 -13.46875 C 6.28125 -14.28125 6.125 -14.859375 5.8125 -15.203125 C 5.507812 -15.546875 5.039062 -15.757812 4.40625 -15.84375 L 2.03125 -16.1875 L 2.640625 -19.78125 L 6.890625 -19.25 C 8.265625 -19.0625 9.320312 -18.46875 10.0625 -17.46875 C 10.800781 -16.476562 11.171875 -15.191406 11.171875 -13.609375 L 11.171875 0 L 1.328125 0 Z M 1.328125 -3.671875 "/></g></g><g style="fill:#112c59;fill-opacity:1;"><g transform="translate(71.546921, 35.022741)"><path style="stroke:none" d="M 12.96875 -13.234375 C 12.96875 -14.890625 12.207031 -15.71875 10.6875 -15.71875 L 1.828125 -15.71875 L 1.828125 -19.375 L 12.015625 -19.375 C 13.828125 -19.375 15.257812 -18.859375 16.3125 -17.828125 C 17.363281 -16.804688 17.890625 -15.195312 17.890625 -13 L 17.890625 0 L 12.96875 0 Z M 1.625 -9.265625 L 2.3125 -11.53125 L 6.546875 -11.53125 L 6.546875 0 L 1.625 0 Z M 1.625 -9.265625 "/></g></g><g style="fill:#112c59;fill-opacity:1;"><g transform="translate(90.98582, 35.022741)"><path style="stroke:none" d=""/></g></g><g style="fill:#112c59;fill-opacity:1;"><g transform="translate(97.770774, 35.022741)"><path style="stroke:none" d="M 8.921875 -11.75 C 8.921875 -12.601562 9.003906 -13.375 9.171875 -14.0625 C 9.347656 -14.757812 9.582031 -15.3125 9.875 -15.71875 L 1.1875 -15.71875 L 1.1875 -19.375 L 17.109375 -19.375 L 17.109375 -15.71875 L 14.453125 -15.71875 C 14.023438 -14.738281 13.8125 -13.414062 13.8125 -11.75 L 13.8125 0 L 8.921875 0 Z M 8.921875 -11.75 "/></g></g><g style="fill:#112c59;fill-opacity:1;"><g transform="translate(116.158003, 35.022741)"><path style="stroke:none" d="M 2.0625 -15.40625 L 1.65625 -19.375 L 6.546875 -19.375 L 6.953125 -15.40625 L 6.953125 0 L 2.0625 0 Z M 2.0625 -15.40625 "/></g></g><g style="fill:#112c59;fill-opacity:1;"><g transform="translate(124.944522, 35.022741)"><path style="stroke:none" d="M 2.0625 -15.40625 L 1.65625 -19.375 L 6.546875 -19.375 L 6.953125 -15.40625 L 6.953125 -10.109375 L 6.921875 -7.96875 L 2.0625 -7.125 Z M 2.0625 -15.40625 "/></g></g><g style="fill:#112c59;fill-opacity:1;"><g transform="translate(133.731041, 35.022741)"><path style="stroke:none" d="M 12.765625 -7.9375 L 17.234375 0 L 1.015625 0 L 1.015625 -3.671875 L 10.25 -3.671875 L 1.390625 -19.375 L 6.3125 -19.375 L 10.140625 -12.5625 L 12.9375 -19.375 L 17.75 -19.375 Z M 12.765625 -7.9375 "/></g></g><g style="fill:#112c59;fill-opacity:1;"><g transform="translate(152.694991, 35.022741)"><path style="stroke:none" d="M 12.96875 -13.234375 C 12.96875 -14.890625 12.207031 -15.71875 10.6875 -15.71875 L 1.828125 -15.71875 L 1.828125 -19.375 L 12.015625 -19.375 C 13.828125 -19.375 15.257812 -18.859375 16.3125 -17.828125 C 17.363281 -16.804688 17.890625 -15.195312 17.890625 -13 L 17.890625 0 L 12.96875 0 Z M 1.625 -9.265625 L 2.3125 -11.53125 L 6.546875 -11.53125 L 6.546875 0 L 1.625 0 Z M 1.625 -9.265625 "/></g></g><g style="fill:#112c59;fill-opacity:1;"><g transform="translate(172.13389, 35.022741)"><path style="stroke:none" d=""/></g></g><g style="fill:#112c59;fill-opacity:1;"><g transform="translate(178.918844, 35.022741)"><path style="stroke:none" d="M 12.96875 -13.234375 C 12.96875 -14.890625 12.207031 -15.71875 10.6875 -15.71875 L 1.828125 -15.71875 L 1.828125 -19.375 L 12.015625 -19.375 C 13.828125 -19.375 15.257812 -18.859375 16.3125 -17.828125 C 17.363281 -16.804688 17.890625 -15.195312 17.890625 -13 L 17.890625 0 L 12.96875 0 Z M 1.625 -9.265625 L 2.3125 -11.53125 L 6.546875 -11.53125 L 6.546875 0 L 1.625 0 Z M 1.625 -9.265625 "/></g></g><g style="fill:#112c59;fill-opacity:1;"><g transform="translate(198.357743, 35.022741)"><path style="stroke:none" d="M 20.46875 -9.671875 C 20.46875 -6.523438 19.738281 -4.050781 18.28125 -2.25 C 16.820312 -0.457031 14.765625 0.4375 12.109375 0.4375 C 11.160156 0.4375 10.125 0.300781 9 0.03125 L 9.4375 -3.625 C 10.269531 -3.445312 10.96875 -3.359375 11.53125 -3.359375 C 13.070312 -3.359375 14.171875 -3.875 14.828125 -4.90625 C 15.484375 -5.9375 15.8125 -7.457031 15.8125 -9.46875 C 15.8125 -11.707031 15.5 -13.328125 14.875 -14.328125 C 14.257812 -15.335938 13.304688 -15.84375 12.015625 -15.84375 C 11.109375 -15.84375 10.34375 -15.570312 9.71875 -15.03125 C 9.101562 -14.488281 8.710938 -13.753906 8.546875 -12.828125 L 6.453125 0 L 1.5625 0 L 3.90625 -13.0625 L 1.1875 -19.375 L 6.28125 -19.375 L 7.640625 -15.515625 C 8.109375 -16.910156 8.816406 -17.953125 9.765625 -18.640625 C 10.722656 -19.335938 11.8125 -19.6875 13.03125 -19.6875 C 15.445312 -19.6875 17.289062 -18.851562 18.5625 -17.1875 C 19.832031 -15.519531 20.46875 -13.015625 20.46875 -9.671875 Z M 20.46875 -9.671875 "/></g></g><g style="fill:#112c59;fill-opacity:1;"><g transform="translate(14.995262, 82.090398)"><path style="stroke:none" d="M 5.265625 -7.671875 C 5.210938 -8.078125 5.1875 -8.367188 5.1875 -8.546875 C 5.1875 -9.566406 5.410156 -10.46875 5.859375 -11.25 C 6.316406 -12.03125 6.96875 -12.894531 7.8125 -13.84375 C 8.4375 -14.570312 8.890625 -15.164062 9.171875 -15.625 C 9.460938 -16.09375 9.609375 -16.578125 9.609375 -17.078125 C 9.609375 -17.796875 9.382812 -18.363281 8.9375 -18.78125 C 8.5 -19.195312 7.90625 -19.40625 7.15625 -19.40625 C 6.550781 -19.40625 5.992188 -19.265625 5.484375 -18.984375 C 4.972656 -18.703125 4.457031 -18.300781 3.9375 -17.78125 L 1.390625 -20.125 C 2.203125 -21.050781 3.148438 -21.785156 4.234375 -22.328125 C 5.328125 -22.867188 6.492188 -23.140625 7.734375 -23.140625 C 9.640625 -23.140625 11.164062 -22.65625 12.3125 -21.6875 C 13.46875 -20.71875 14.046875 -19.289062 14.046875 -17.40625 C 14.046875 -16.5 13.84375 -15.703125 13.4375 -15.015625 C 13.03125 -14.328125 12.421875 -13.519531 11.609375 -12.59375 C 10.835938 -11.726562 10.257812 -10.976562 9.875 -10.34375 C 9.488281 -9.71875 9.296875 -8.992188 9.296875 -8.171875 C 9.296875 -7.953125 9.304688 -7.785156 9.328125 -7.671875 Z M 7.296875 0.40625 C 6.484375 0.40625 5.804688 0.125 5.265625 -0.4375 C 4.722656 -1.007812 4.453125 -1.722656 4.453125 -2.578125 C 4.453125 -3.441406 4.722656 -4.15625 5.265625 -4.71875 C 5.804688 -5.28125 6.484375 -5.5625 7.296875 -5.5625 C 8.109375 -5.5625 8.785156 -5.28125 9.328125 -4.71875 C 9.867188 -4.15625 10.140625 -3.441406 10.140625 -2.578125 C 10.140625 -1.722656 9.867188 -1.007812 9.328125 -0.4375 C 8.785156 0.125 8.109375 0.40625 7.296875 0.40625 Z M 7.296875 0.40625 "/></g></g><g style="fill:#112c59;fill-opacity:1;"><g transform="translate(30.498889, 82.090398)"><path style="stroke:none" d="M 2.0625 -15.40625 L 1.65625 -19.375 L 6.546875 -19.375 L 6.953125 -15.40625 L 6.953125 6.78125 L 2.0625 6.78125 Z M 2.0625 -15.40625 "/></g></g><g style="fill:#112c59;fill-opacity:1;"><g transform="translate(39.285408, 82.090398)"><path style="stroke:none" d="M 8.34375 0 L 7.734375 -3.625 C 7.097656 -2.613281 6.351562 -1.753906 5.5 -1.046875 C 4.65625 -0.347656 3.613281 0.210938 2.375 0.640625 L 0.578125 -3.21875 C 3.742188 -4.21875 5.894531 -5.800781 7.03125 -7.96875 L 7.03125 -13.5 C 7.03125 -14.320312 6.90625 -14.898438 6.65625 -15.234375 C 6.40625 -15.578125 5.984375 -15.789062 5.390625 -15.875 L 3.265625 -16.1875 L 3.875 -19.78125 L 7.875 -19.25 C 9.25 -19.0625 10.265625 -18.539062 10.921875 -17.6875 C 11.578125 -16.84375 11.90625 -15.628906 11.90625 -14.046875 L 11.90625 -7.609375 L 13 0 Z M 8.34375 0 "/></g></g><g style="fill:#112c59;fill-opacity:1;"><g transform="translate(53.669519, 82.090398)"><path style="stroke:none" d="M 2.0625 -15.40625 L 1.65625 -19.375 L 6.546875 -19.375 L 6.953125 -15.40625 L 6.953125 0 L 2.0625 0 Z M 2.0625 -15.40625 "/></g></g><g style="fill:#112c59;fill-opacity:1;"><g transform="translate(62.456038, 82.090398)"><path style="stroke:none" d="M 20.46875 -9.671875 C 20.46875 -6.523438 19.738281 -4.050781 18.28125 -2.25 C 16.820312 -0.457031 14.765625 0.4375 12.109375 0.4375 C 11.160156 0.4375 10.125 0.300781 9 0.03125 L 9.4375 -3.625 C 10.269531 -3.445312 10.96875 -3.359375 11.53125 -3.359375 C 13.070312 -3.359375 14.171875 -3.875 14.828125 -4.90625 C 15.484375 -5.9375 15.8125 -7.457031 15.8125 -9.46875 C 15.8125 -11.707031 15.5 -13.328125 14.875 -14.328125 C 14.257812 -15.335938 13.304688 -15.84375 12.015625 -15.84375 C 11.109375 -15.84375 10.34375 -15.570312 9.71875 -15.03125 C 9.101562 -14.488281 8.710938 -13.753906 8.546875 -12.828125 L 6.453125 0 L 1.5625 0 L 3.90625 -13.0625 L 1.1875 -19.375 L 6.28125 -19.375 L 7.640625 -15.515625 C 8.109375 -16.910156 8.816406 -17.953125 9.765625 -18.640625 C 10.722656 -19.335938 11.8125 -19.6875 13.03125 -19.6875 C 15.445312 -19.6875 17.289062 -18.851562 18.5625 -17.1875 C 19.832031 -15.519531 20.46875 -13.015625 20.46875 -9.671875 Z M 20.46875 -9.671875 "/></g></g><g style="fill:#112c59;fill-opacity:1;"><g transform="translate(84.235744, 82.090398)"><path style="stroke:none" d="M 12.96875 -13.234375 C 12.96875 -14.890625 12.207031 -15.71875 10.6875 -15.71875 L 1.828125 -15.71875 L 1.828125 -19.375 L 12.015625 -19.375 C 13.828125 -19.375 15.257812 -18.859375 16.3125 -17.828125 C 17.363281 -16.804688 17.890625 -15.195312 17.890625 -13 L 17.890625 0 L 12.96875 0 Z M 1.625 -9.265625 L 2.3125 -11.53125 L 6.546875 -11.53125 L 6.546875 0 L 1.625 0 Z M 1.625 -9.265625 "/></g></g><g style="fill:#112c59;fill-opacity:1;"><g transform="translate(103.674642, 82.090398)"><path style="stroke:none" d=""/></g></g><g style="fill:#112c59;fill-opacity:1;"><g transform="translate(110.459597, 82.090398)"><path style="stroke:none" d="M 17.40625 -3.671875 L 17.40625 0 L 1.296875 0 L 1.296875 -3.671875 L 10.25 -3.671875 L 10.25 -13.234375 C 10.25 -14.890625 9.476562 -15.71875 7.9375 -15.71875 L 1.296875 -15.71875 L 1.296875 -19.375 L 9.296875 -19.375 C 11.109375 -19.375 12.535156 -18.859375 13.578125 -17.828125 C 14.617188 -16.804688 15.140625 -15.195312 15.140625 -13 L 15.140625 -3.671875 Z M 17.40625 -3.671875 "/></g></g><g style="fill:#112c59;fill-opacity:1;"><g transform="translate(128.880754, 82.090398)"><path style="stroke:none" d="M 12.59375 -19.375 C 14.40625 -19.375 15.835938 -18.832031 16.890625 -17.75 C 17.941406 -16.664062 18.46875 -15.023438 18.46875 -12.828125 L 18.46875 0 L 13.546875 0 L 13.546875 -13.0625 C 13.546875 -14.832031 12.785156 -15.71875 11.265625 -15.71875 L 6.71875 -15.71875 L 6.71875 0 L 1.828125 0 L 1.828125 -19.375 Z M 12.59375 -19.375 "/></g></g><g style="fill:#112c59;fill-opacity:1;"><g transform="translate(149.065997, 82.090398)"><path style="stroke:none" d="M 9.84375 -13.234375 C 9.84375 -14.890625 9.082031 -15.71875 7.5625 -15.71875 L 0.953125 -15.71875 L 0.953125 -19.375 L 8.890625 -19.375 C 10.703125 -19.375 12.132812 -18.859375 13.1875 -17.828125 C 14.238281 -16.804688 14.765625 -15.195312 14.765625 -13 L 14.765625 0 L 9.84375 0 Z M 9.84375 -13.234375 "/></g></g><g style="fill:#112c59;fill-opacity:1;"><g transform="translate(165.621294, 82.090398)"><path style="stroke:none" d="M 20.46875 -9.671875 C 20.46875 -6.523438 19.738281 -4.050781 18.28125 -2.25 C 16.820312 -0.457031 14.765625 0.4375 12.109375 0.4375 C 11.160156 0.4375 10.125 0.300781 9 0.03125 L 9.4375 -3.625 C 10.269531 -3.445312 10.96875 -3.359375 11.53125 -3.359375 C 13.070312 -3.359375 14.171875 -3.875 14.828125 -4.90625 C 15.484375 -5.9375 15.8125 -7.457031 15.8125 -9.46875 C 15.8125 -11.707031 15.5 -13.328125 14.875 -14.328125 C 14.257812 -15.335938 13.304688 -15.84375 12.015625 -15.84375 C 11.109375 -15.84375 10.34375 -15.570312 9.71875 -15.03125 C 9.101562 -14.488281 8.710938 -13.753906 8.546875 -12.828125 L 6.453125 0 L 1.5625 0 L 3.90625 -13.0625 L 1.1875 -19.375 L 6.28125 -19.375 L 7.640625 -15.515625 C 8.109375 -16.910156 8.816406 -17.953125 9.765625 -18.640625 C 10.722656 -19.335938 11.8125 -19.6875 13.03125 -19.6875 C 15.445312 -19.6875 17.289062 -18.851562 18.5625 -17.1875 C 19.832031 -15.519531 20.46875 -13.015625 20.46875 -9.671875 Z M 20.46875 -9.671875 "/></g></g><g style="fill:#112c59;fill-opacity:1;"><g transform="translate(187.400999, 82.090398)"><path style="stroke:none" d="M 17.40625 -3.671875 L 17.40625 0 L 1.296875 0 L 1.296875 -3.671875 L 10.25 -3.671875 L 10.25 -13.234375 C 10.25 -14.890625 9.476562 -15.71875 7.9375 -15.71875 L 1.296875 -15.71875 L 1.296875 -19.375 L 9.296875 -19.375 C 11.109375 -19.375 12.535156 -18.859375 13.578125 -17.828125 C 14.617188 -16.804688 15.140625 -15.195312 15.140625 -13 L 15.140625 -3.671875 Z M 17.40625 -3.671875 "/></g></g></g></g></g></svg>