<svg xmlns="http://www.w3.org/2000/svg" xmlns:xlink="http://www.w3.org/1999/xlink" width="375" zoomAndPan="magnify" viewBox="0 0 281.25 147.000002" height="196" preserveAspectRatio="xMidYMid meet" version="1.2"><defs><clipPath id="b20f8c19f2"><path d="M 0.578125 0 L 279.234375 0 L 279.234375 145.882812 L 0.578125 145.882812 Z M 0.578125 0 "/></clipPath><clipPath id="b19ac303bd"><path d="M 34.84375 0 L 244.933594 0 C 263.859375 0 279.203125 15.34375 279.203125 34.265625 L 279.203125 111.613281 C 279.203125 130.539062 263.859375 145.882812 244.933594 145.882812 L 34.84375 145.882812 C 15.917969 145.882812 0.578125 130.539062 0.578125 111.613281 L 0.578125 34.265625 C 0.578125 15.34375 15.917969 0 34.84375 0 Z M 34.84375 0 "/></clipPath><clipPath id="ba92235fe9"><path d="M 0.578125 0 L 279.234375 0 L 279.234375 145.882812 L 0.578125 145.882812 Z M 0.578125 0 "/></clipPath><clipPath id="99ac210b79"><path d="M 34.84375 0 L 244.933594 0 C 263.859375 0 279.203125 15.34375 279.203125 34.265625 L 279.203125 111.613281 C 279.203125 130.539062 263.859375 145.882812 244.933594 145.882812 L 34.84375 145.882812 C 15.917969 145.882812 0.578125 130.539062 0.578125 111.613281 L 0.578125 34.265625 C 0.578125 15.34375 15.917969 0 34.84375 0 Z M 34.84375 0 "/></clipPath><clipPath id="c7d97ba4a9"><rect x="0" width="280" y="0" height="146"/></clipPath></defs><g id="84a3f37f95"><g clip-rule="nonzero" clip-path="url(#b20f8c19f2)"><g clip-rule="nonzero" clip-path="url(#b19ac303bd)"><g transform="matrix(1,0,0,1,0,0.000000000000009996)"><g clip-path="url(#c7d97ba4a9)"><g clip-rule="nonzero" clip-path="url(#ba92235fe9)"><g clip-rule="nonzero" clip-path="url(#99ac210b79)"><path style=" stroke:none;fill-rule:nonzero;fill:#f7b7d2;fill-opacity:1;" d="M 0.578125 0 L 279.234375 0 L 279.234375 145.882812 L 0.578125 145.882812 Z M 0.578125 0 "/></g></g></g></g></g></g><g style="fill:#112c59;fill-opacity:1;"><g transform="translate(61.233775, 43.594174)"><path style="stroke:none" d="M 0.515625 -2.34375 C 1.253906 -2.425781 1.804688 -2.570312 2.171875 -2.78125 C 2.535156 -2.988281 2.785156 -3.28125 2.921875 -3.65625 C 3.054688 -4.039062 3.113281 -4.578125 3.09375 -5.265625 L 3.09375 -16.546875 L 11.875 -16.546875 C 13.414062 -16.546875 14.628906 -16.101562 15.515625 -15.21875 C 16.410156 -14.34375 16.859375 -12.96875 16.859375 -11.09375 L 16.859375 0 L 12.6875 0 L 12.6875 -11.296875 C 12.6875 -12.703125 12.03125 -13.40625 10.71875 -13.40625 L 7.296875 -13.40625 L 7.296875 -5.828125 C 7.296875 -4.359375 7.066406 -3.1875 6.609375 -2.3125 C 6.160156 -1.445312 5.476562 -0.796875 4.5625 -0.359375 C 3.644531 0.078125 2.414062 0.363281 0.875 0.5 Z M 0.515625 -2.34375 "/></g></g><g style="fill:#112c59;fill-opacity:1;"><g transform="translate(79.622941, 43.594174)"><path style="stroke:none" d="M 12.59375 0 L 7.15625 -8.4375 L 4.578125 0 L 0.609375 0 L 3.828125 -9.9375 L 4.71875 -12.171875 L 2.03125 -16.546875 L 6.234375 -16.546875 L 8.546875 -12.78125 L 10.625 -9.625 L 11.40625 -12.25 L 12.578125 -16.546875 L 16.546875 -16.546875 L 13.0625 -6 L 17.0625 0 Z M 12.59375 0 "/></g></g><g style="fill:#112c59;fill-opacity:1;"><g transform="translate(97.490839, 43.594174)"><path style="stroke:none" d=""/></g></g><g style="fill:#112c59;fill-opacity:1;"><g transform="translate(103.282706, 43.594174)"><path style="stroke:none" d="M 8.40625 -11.296875 C 8.40625 -12.703125 7.753906 -13.40625 6.453125 -13.40625 L 0.8125 -13.40625 L 0.8125 -16.546875 L 7.59375 -16.546875 C 9.132812 -16.546875 10.351562 -16.101562 11.25 -15.21875 C 12.144531 -14.34375 12.59375 -12.96875 12.59375 -11.09375 L 12.59375 0 L 8.40625 0 Z M 8.40625 -11.296875 "/></g></g><g style="fill:#112c59;fill-opacity:1;"><g transform="translate(117.414859, 43.594174)"><path style="stroke:none" d="M 1.765625 -13.15625 L 1.421875 -16.546875 L 5.59375 -16.546875 L 5.9375 -13.15625 L 5.9375 0 L 1.765625 0 Z M 1.765625 -13.15625 "/></g></g><g style="fill:#112c59;fill-opacity:1;"><g transform="translate(124.915323, 43.594174)"><path style="stroke:none" d="M 10.75 -16.546875 C 12.289062 -16.546875 13.507812 -16.082031 14.40625 -15.15625 C 15.3125 -14.226562 15.765625 -12.828125 15.765625 -10.953125 L 15.765625 0 L 11.5625 0 L 11.5625 -11.15625 C 11.5625 -12.65625 10.914062 -13.40625 9.625 -13.40625 L 5.734375 -13.40625 L 5.734375 0 L 1.5625 0 L 1.5625 -16.546875 Z M 10.75 -16.546875 "/></g></g><g style="fill:#112c59;fill-opacity:1;"><g transform="translate(142.146125, 43.594174)"><path style="stroke:none" d="M 14.859375 -3.125 L 14.859375 0 L 1.09375 0 L 1.09375 -3.125 L 8.75 -3.125 L 8.75 -11.296875 C 8.75 -12.703125 8.09375 -13.40625 6.78125 -13.40625 L 1.09375 -13.40625 L 1.09375 -16.546875 L 7.9375 -16.546875 C 9.476562 -16.546875 10.691406 -16.101562 11.578125 -15.21875 C 12.472656 -14.34375 12.921875 -12.96875 12.921875 -11.09375 L 12.921875 -3.125 Z M 14.859375 -3.125 "/></g></g><g style="fill:#112c59;fill-opacity:1;"><g transform="translate(157.871035, 43.594174)"><path style="stroke:none" d="M 13.5 -16.546875 L 13.5 -13.09375 L 8.28125 0 L 4.109375 0 L 9.296875 -13.40625 L 0.890625 -13.40625 L 0.890625 -20.765625 L 4.65625 -20.765625 L 4.65625 -16.546875 Z M 13.5 -16.546875 "/></g></g><g style="fill:#112c59;fill-opacity:1;"><g transform="translate(172.292779, 43.594174)"><path style="stroke:none" d=""/></g></g><g style="fill:#112c59;fill-opacity:1;"><g transform="translate(178.084647, 43.594174)"><path style="stroke:none" d="M 9.09375 -11.296875 C 9.09375 -12.703125 8.4375 -13.40625 7.125 -13.40625 L 1.125 -13.40625 L 1.125 -16.546875 L 8.28125 -16.546875 C 9.832031 -16.546875 11.050781 -16.101562 11.9375 -15.21875 C 12.820312 -14.34375 13.265625 -12.96875 13.265625 -11.09375 L 13.265625 5.796875 L 9.09375 5.796875 Z M 9.09375 -11.296875 "/></g></g><g style="fill:#112c59;fill-opacity:1;"><g transform="translate(192.911821, 43.594174)"><path style="stroke:none" d="M 1.765625 -13.15625 L 1.421875 -16.546875 L 5.59375 -16.546875 L 5.9375 -13.15625 L 5.9375 -8.625 L 5.90625 -6.8125 L 1.765625 -6.078125 Z M 1.765625 -13.15625 "/></g></g><g style="fill:#112c59;fill-opacity:1;"><g transform="translate(200.412284, 43.594174)"><path style="stroke:none" d="M 12.59375 0 L 7.15625 -8.4375 L 4.578125 0 L 0.609375 0 L 3.828125 -9.9375 L 4.71875 -12.171875 L 2.03125 -16.546875 L 6.234375 -16.546875 L 8.546875 -12.78125 L 10.625 -9.625 L 11.40625 -12.25 L 12.578125 -16.546875 L 16.546875 -16.546875 L 13.0625 -6 L 17.0625 0 Z M 12.59375 0 "/></g></g><g style="fill:#112c59;fill-opacity:1;"><g transform="translate(41.527985, 83.820524)"><path style="stroke:none" d="M 1.765625 -13.15625 L 1.421875 -16.546875 L 5.59375 -16.546875 L 5.9375 -13.15625 L 5.9375 5.796875 L 1.765625 5.796875 Z M 1.765625 -13.15625 "/></g></g><g style="fill:#112c59;fill-opacity:1;"><g transform="translate(49.028448, 83.820524)"><path style="stroke:none" d="M 7.125 0 L 6.609375 -3.09375 C 6.066406 -2.226562 5.429688 -1.492188 4.703125 -0.890625 C 3.984375 -0.296875 3.09375 0.179688 2.03125 0.546875 L 0.5 -2.75 C 3.195312 -3.601562 5.03125 -4.957031 6 -6.8125 L 6 -11.53125 C 6 -12.226562 5.890625 -12.71875 5.671875 -13 C 5.460938 -13.289062 5.109375 -13.476562 4.609375 -13.5625 L 2.78125 -13.8125 L 3.296875 -16.890625 L 6.71875 -16.421875 C 7.894531 -16.265625 8.765625 -15.820312 9.328125 -15.09375 C 9.890625 -14.375 10.171875 -13.34375 10.171875 -12 L 10.171875 -6.484375 L 11.09375 0 Z M 7.125 0 "/></g></g><g style="fill:#112c59;fill-opacity:1;"><g transform="translate(61.307205, 83.820524)"><path style="stroke:none" d="M 1.765625 -13.15625 L 1.421875 -16.546875 L 5.59375 -16.546875 L 5.9375 -13.15625 L 5.9375 0 L 1.765625 0 Z M 1.765625 -13.15625 "/></g></g><g style="fill:#112c59;fill-opacity:1;"><g transform="translate(68.807668, 83.820524)"><path style="stroke:none" d="M 17.46875 -8.25 C 17.46875 -5.570312 16.84375 -3.460938 15.59375 -1.921875 C 14.351562 -0.390625 12.601562 0.375 10.34375 0.375 C 9.53125 0.375 8.640625 0.257812 7.671875 0.03125 L 8.046875 -3.09375 C 8.765625 -2.945312 9.363281 -2.875 9.84375 -2.875 C 11.15625 -2.875 12.09375 -3.3125 12.65625 -4.1875 C 13.21875 -5.0625 13.5 -6.359375 13.5 -8.078125 C 13.5 -9.992188 13.234375 -11.378906 12.703125 -12.234375 C 12.171875 -13.097656 11.351562 -13.53125 10.25 -13.53125 C 9.476562 -13.53125 8.828125 -13.296875 8.296875 -12.828125 C 7.765625 -12.367188 7.429688 -11.742188 7.296875 -10.953125 L 5.5 0 L 1.328125 0 L 3.328125 -11.15625 L 1.015625 -16.546875 L 5.359375 -16.546875 L 6.515625 -13.234375 C 6.921875 -14.429688 7.53125 -15.320312 8.34375 -15.90625 C 9.15625 -16.5 10.082031 -16.796875 11.125 -16.796875 C 13.1875 -16.796875 14.757812 -16.085938 15.84375 -14.671875 C 16.925781 -13.253906 17.46875 -11.113281 17.46875 -8.25 Z M 17.46875 -8.25 "/></g></g><g style="fill:#112c59;fill-opacity:1;"><g transform="translate(87.399549, 83.820524)"><path style="stroke:none" d=""/></g></g><g style="fill:#112c59;fill-opacity:1;"><g transform="translate(93.191416, 83.820524)"><path style="stroke:none" d="M 1.765625 -13.15625 L 1.421875 -16.546875 L 5.59375 -16.546875 L 5.9375 -13.15625 L 5.9375 -8.625 L 5.90625 -6.8125 L 1.765625 -6.078125 Z M 1.765625 -13.15625 "/></g></g><g style="fill:#112c59;fill-opacity:1;"><g transform="translate(100.691879, 83.820524)"><path style="stroke:none" d="M 0.84375 -3.125 L 5.46875 -3.125 C 6.59375 -3.125 7.421875 -3.488281 7.953125 -4.21875 C 8.484375 -4.957031 8.75 -5.945312 8.75 -7.1875 L 8.75 -9.359375 C 8.75 -10.585938 8.484375 -11.566406 7.953125 -12.296875 C 7.421875 -13.035156 6.59375 -13.40625 5.46875 -13.40625 L 0.84375 -13.40625 L 0.84375 -16.546875 L 6.609375 -16.546875 C 8.671875 -16.546875 10.242188 -15.882812 11.328125 -14.5625 C 12.410156 -13.238281 12.953125 -11.425781 12.953125 -9.125 L 12.953125 -7.421875 C 12.953125 -5.117188 12.410156 -3.304688 11.328125 -1.984375 C 10.242188 -0.660156 8.671875 0 6.609375 0 L 0.84375 0 Z M 0.84375 -3.125 "/></g></g><g style="fill:#112c59;fill-opacity:1;"><g transform="translate(114.737156, 83.820524)"><path style="stroke:none" d="M 11.0625 -11.296875 C 11.0625 -12.703125 10.414062 -13.40625 9.125 -13.40625 L 1.5625 -13.40625 L 1.5625 -16.546875 L 10.25 -16.546875 C 11.800781 -16.546875 13.023438 -16.101562 13.921875 -15.21875 C 14.816406 -14.34375 15.265625 -12.96875 15.265625 -11.09375 L 15.265625 0 L 11.0625 0 Z M 1.390625 -7.90625 L 1.96875 -9.84375 L 5.59375 -9.84375 L 5.59375 0 L 1.390625 0 Z M 1.390625 -7.90625 "/></g></g><g style="fill:#112c59;fill-opacity:1;"><g transform="translate(131.33085, 83.820524)"><path style="stroke:none" d=""/></g></g><g style="fill:#112c59;fill-opacity:1;"><g transform="translate(137.122718, 83.820524)"><path style="stroke:none" d="M 14.859375 -3.125 L 14.859375 0 L 1.09375 0 L 1.09375 -3.125 L 8.75 -3.125 L 8.75 -11.296875 C 8.75 -12.703125 8.09375 -13.40625 6.78125 -13.40625 L 1.09375 -13.40625 L 1.09375 -16.546875 L 7.9375 -16.546875 C 9.476562 -16.546875 10.691406 -16.101562 11.578125 -15.21875 C 12.472656 -14.34375 12.921875 -12.96875 12.921875 -11.09375 L 12.921875 -3.125 Z M 14.859375 -3.125 "/></g></g><g style="fill:#112c59;fill-opacity:1;"><g transform="translate(152.847628, 83.820524)"><path style="stroke:none" d="M 10.75 -16.546875 C 12.289062 -16.546875 13.507812 -16.082031 14.40625 -15.15625 C 15.3125 -14.226562 15.765625 -12.828125 15.765625 -10.953125 L 15.765625 0 L 11.5625 0 L 11.5625 -11.15625 C 11.5625 -12.65625 10.914062 -13.40625 9.625 -13.40625 L 5.734375 -13.40625 L 5.734375 0 L 1.5625 0 L 1.5625 -16.546875 Z M 10.75 -16.546875 "/></g></g><g style="fill:#112c59;fill-opacity:1;"><g transform="translate(170.07843, 83.820524)"><path style="stroke:none" d="M 8.40625 -11.296875 C 8.40625 -12.703125 7.753906 -13.40625 6.453125 -13.40625 L 0.8125 -13.40625 L 0.8125 -16.546875 L 7.59375 -16.546875 C 9.132812 -16.546875 10.351562 -16.101562 11.25 -15.21875 C 12.144531 -14.34375 12.59375 -12.96875 12.59375 -11.09375 L 12.59375 0 L 8.40625 0 Z M 8.40625 -11.296875 "/></g></g><g style="fill:#112c59;fill-opacity:1;"><g transform="translate(184.210583, 83.820524)"><path style="stroke:none" d="M 17.46875 -8.25 C 17.46875 -5.570312 16.84375 -3.460938 15.59375 -1.921875 C 14.351562 -0.390625 12.601562 0.375 10.34375 0.375 C 9.53125 0.375 8.640625 0.257812 7.671875 0.03125 L 8.046875 -3.09375 C 8.765625 -2.945312 9.363281 -2.875 9.84375 -2.875 C 11.15625 -2.875 12.09375 -3.3125 12.65625 -4.1875 C 13.21875 -5.0625 13.5 -6.359375 13.5 -8.078125 C 13.5 -9.992188 13.234375 -11.378906 12.703125 -12.234375 C 12.171875 -13.097656 11.351562 -13.53125 10.25 -13.53125 C 9.476562 -13.53125 8.828125 -13.296875 8.296875 -12.828125 C 7.765625 -12.367188 7.429688 -11.742188 7.296875 -10.953125 L 5.5 0 L 1.328125 0 L 3.328125 -11.15625 L 1.015625 -16.546875 L 5.359375 -16.546875 L 6.515625 -13.234375 C 6.921875 -14.429688 7.53125 -15.320312 8.34375 -15.90625 C 9.15625 -16.5 10.082031 -16.796875 11.125 -16.796875 C 13.1875 -16.796875 14.757812 -16.085938 15.84375 -14.671875 C 16.925781 -13.253906 17.46875 -11.113281 17.46875 -8.25 Z M 17.46875 -8.25 "/></g></g><g style="fill:#112c59;fill-opacity:1;"><g transform="translate(202.802464, 83.820524)"><path style="stroke:none" d="M 11.0625 -11.296875 C 11.0625 -12.703125 10.414062 -13.40625 9.125 -13.40625 L 1.5625 -13.40625 L 1.5625 -16.546875 L 10.25 -16.546875 C 11.800781 -16.546875 13.023438 -16.101562 13.921875 -15.21875 C 14.816406 -14.34375 15.265625 -12.96875 15.265625 -11.09375 L 15.265625 0 L 11.0625 0 Z M 1.390625 -7.90625 L 1.96875 -9.84375 L 5.59375 -9.84375 L 5.59375 0 L 1.390625 0 Z M 1.390625 -7.90625 "/></g></g><g style="fill:#112c59;fill-opacity:1;"><g transform="translate(219.396159, 83.820524)"><path style="stroke:none" d="M 17.46875 -8.25 C 17.46875 -5.570312 16.84375 -3.460938 15.59375 -1.921875 C 14.351562 -0.390625 12.601562 0.375 10.34375 0.375 C 9.53125 0.375 8.640625 0.257812 7.671875 0.03125 L 8.046875 -3.09375 C 8.765625 -2.945312 9.363281 -2.875 9.84375 -2.875 C 11.15625 -2.875 12.09375 -3.3125 12.65625 -4.1875 C 13.21875 -5.0625 13.5 -6.359375 13.5 -8.078125 C 13.5 -9.992188 13.234375 -11.378906 12.703125 -12.234375 C 12.171875 -13.097656 11.351562 -13.53125 10.25 -13.53125 C 9.476562 -13.53125 8.828125 -13.296875 8.296875 -12.828125 C 7.765625 -12.367188 7.429688 -11.742188 7.296875 -10.953125 L 5.5 0 L 1.328125 0 L 3.328125 -11.15625 L 1.015625 -16.546875 L 5.359375 -16.546875 L 6.515625 -13.234375 C 6.921875 -14.429688 7.53125 -15.320312 8.34375 -15.90625 C 9.15625 -16.5 10.082031 -16.796875 11.125 -16.796875 C 13.1875 -16.796875 14.757812 -16.085938 15.84375 -14.671875 C 16.925781 -13.253906 17.46875 -11.113281 17.46875 -8.25 Z M 17.46875 -8.25 "/></g></g><g style="fill:#112c59;fill-opacity:1;"><g transform="translate(109.747499, 124.046874)"><path style="stroke:none" d="M 4.484375 -6.546875 C 4.453125 -6.890625 4.4375 -7.140625 4.4375 -7.296875 C 4.4375 -8.171875 4.628906 -8.941406 5.015625 -9.609375 C 5.398438 -10.273438 5.945312 -11.007812 6.65625 -11.8125 C 7.195312 -12.4375 7.585938 -12.945312 7.828125 -13.34375 C 8.078125 -13.738281 8.203125 -14.148438 8.203125 -14.578125 C 8.203125 -15.191406 8.007812 -15.675781 7.625 -16.03125 C 7.25 -16.382812 6.742188 -16.5625 6.109375 -16.5625 C 5.585938 -16.5625 5.109375 -16.441406 4.671875 -16.203125 C 4.242188 -15.960938 3.804688 -15.617188 3.359375 -15.171875 L 1.1875 -17.171875 C 1.882812 -17.960938 2.695312 -18.585938 3.625 -19.046875 C 4.550781 -19.515625 5.546875 -19.75 6.609375 -19.75 C 8.222656 -19.75 9.523438 -19.332031 10.515625 -18.5 C 11.503906 -17.675781 12 -16.460938 12 -14.859375 C 12 -14.085938 11.820312 -13.40625 11.46875 -12.8125 C 11.125 -12.226562 10.601562 -11.539062 9.90625 -10.75 C 9.25 -10.007812 8.753906 -9.367188 8.421875 -8.828125 C 8.097656 -8.296875 7.9375 -7.679688 7.9375 -6.984375 C 7.9375 -6.785156 7.945312 -6.640625 7.96875 -6.546875 Z M 6.234375 0.34375 C 5.535156 0.34375 4.953125 0.101562 4.484375 -0.375 C 4.023438 -0.851562 3.796875 -1.460938 3.796875 -2.203125 C 3.796875 -2.929688 4.023438 -3.535156 4.484375 -4.015625 C 4.953125 -4.503906 5.535156 -4.75 6.234375 -4.75 C 6.921875 -4.75 7.492188 -4.503906 7.953125 -4.015625 C 8.421875 -3.535156 8.65625 -2.929688 8.65625 -2.203125 C 8.65625 -1.460938 8.421875 -0.851562 7.953125 -0.375 C 7.492188 0.101562 6.921875 0.34375 6.234375 0.34375 Z M 6.234375 0.34375 "/></g></g><g style="fill:#112c59;fill-opacity:1;"><g transform="translate(122.981904, 124.046874)"><path style="stroke:none" d="M 18.546875 -11.703125 C 18.578125 -7.742188 17.425781 -4.753906 15.09375 -2.734375 C 12.757812 -0.710938 9.140625 0.296875 4.234375 0.296875 L 3.328125 0.296875 L 1.15625 -16.546875 L 5.125 -16.546875 L 5.96875 -9.390625 C 6.738281 -9.773438 7.257812 -10.351562 7.53125 -11.125 C 7.800781 -11.894531 7.925781 -13.050781 7.90625 -14.59375 L 7.90625 -16.515625 L 11.875 -16.515625 L 11.875 -14.6875 C 11.832031 -12.5625 11.40625 -10.835938 10.59375 -9.515625 C 9.789062 -8.191406 8.363281 -7.179688 6.3125 -6.484375 L 6.71875 -3.15625 C 9.476562 -3.332031 11.445312 -4.128906 12.625 -5.546875 C 13.800781 -6.960938 14.382812 -8.9375 14.375 -11.46875 L 14.3125 -16.546875 L 18.515625 -16.546875 Z M 18.546875 -11.703125 "/></g></g><g style="fill:#112c59;fill-opacity:1;"><g transform="translate(142.616323, 124.046874)"><path style="stroke:none" d="M 1.765625 -13.15625 L 1.421875 -16.546875 L 5.59375 -16.546875 L 5.9375 -13.15625 L 5.9375 -8.625 L 5.90625 -6.8125 L 1.765625 -6.078125 Z M 1.765625 -13.15625 "/></g></g><g style="fill:#112c59;fill-opacity:1;"><g transform="translate(150.116786, 124.046874)"><path style="stroke:none" d="M 18.546875 -11.703125 C 18.578125 -7.742188 17.425781 -4.753906 15.09375 -2.734375 C 12.757812 -0.710938 9.140625 0.296875 4.234375 0.296875 L 3.328125 0.296875 L 1.15625 -16.546875 L 5.125 -16.546875 L 5.96875 -9.390625 C 6.738281 -9.773438 7.257812 -10.351562 7.53125 -11.125 C 7.800781 -11.894531 7.925781 -13.050781 7.90625 -14.59375 L 7.90625 -16.515625 L 11.875 -16.515625 L 11.875 -14.6875 C 11.832031 -12.5625 11.40625 -10.835938 10.59375 -9.515625 C 9.789062 -8.191406 8.363281 -7.179688 6.3125 -6.484375 L 6.71875 -3.15625 C 9.476562 -3.332031 11.445312 -4.128906 12.625 -5.546875 C 13.800781 -6.960938 14.382812 -8.9375 14.375 -11.46875 L 14.3125 -16.546875 L 18.515625 -16.546875 Z M 18.546875 -11.703125 "/></g></g></g></svg>