<svg xmlns="http://www.w3.org/2000/svg" xmlns:xlink="http://www.w3.org/1999/xlink" width="375" zoomAndPan="magnify" viewBox="0 0 281.25 147.000002" height="196" preserveAspectRatio="xMidYMid meet" version="1.2"><defs><clipPath id="0443fe9feb"><path d="M 0.578125 0 L 279.234375 0 L 279.234375 145.882812 L 0.578125 145.882812 Z M 0.578125 0 "/></clipPath><clipPath id="014b105b17"><path d="M 34.84375 0 L 244.933594 0 C 263.859375 0 279.203125 15.34375 279.203125 34.265625 L 279.203125 111.613281 C 279.203125 130.539062 263.859375 145.882812 244.933594 145.882812 L 34.84375 145.882812 C 15.917969 145.882812 0.578125 130.539062 0.578125 111.613281 L 0.578125 34.265625 C 0.578125 15.34375 15.917969 0 34.84375 0 Z M 34.84375 0 "/></clipPath><clipPath id="3356911d8b"><path d="M 0.578125 0 L 279.234375 0 L 279.234375 145.882812 L 0.578125 145.882812 Z M 0.578125 0 "/></clipPath><clipPath id="3549836d38"><path d="M 34.84375 0 L 244.933594 0 C 263.859375 0 279.203125 15.34375 279.203125 34.265625 L 279.203125 111.613281 C 279.203125 130.539062 263.859375 145.882812 244.933594 145.882812 L 34.84375 145.882812 C 15.917969 145.882812 0.578125 130.539062 0.578125 111.613281 L 0.578125 34.265625 C 0.578125 15.34375 15.917969 0 34.84375 0 Z M 34.84375 0 "/></clipPath><clipPath id="a736af9464"><rect x="0" width="280" y="0" height="146"/></clipPath><clipPath id="0bb2d410d5"><rect x="0" width="105" y="0" height="93"/></clipPath></defs><g id="4793a0ebd2"><g clip-rule="nonzero" clip-path="url(#0443fe9feb)"><g clip-rule="nonzero" clip-path="url(#014b105b17)"><g transform="matrix(1,0,0,1,0,0.000000000000009996)"><g clip-path="url(#a736af9464)"><g clip-rule="nonzero" clip-path="url(#3356911d8b)"><g clip-rule="nonzero" clip-path="url(#3549836d38)"><path style=" stroke:none;fill-rule:nonzero;fill:#f7b7d2;fill-opacity:1;" d="M 0.578125 0 L 279.234375 0 L 279.234375 145.882812 L 0.578125 145.882812 Z M 0.578125 0 "/></g></g></g></g></g></g><g transform="matrix(1,0,0,1,87,26)"><g clip-path="url(#0bb2d410d5)"><g style="fill:#112c59;fill-opacity:1;"><g transform="translate(7.804059, 35.554121)"><path style="stroke:none" d="M 0.609375 -2.75 C 1.472656 -2.84375 2.117188 -3.007812 2.546875 -3.25 C 2.972656 -3.5 3.265625 -3.84375 3.421875 -4.28125 C 3.585938 -4.726562 3.65625 -5.359375 3.625 -6.171875 L 3.625 -19.375 L 13.921875 -19.375 C 15.722656 -19.375 17.144531 -18.859375 18.1875 -17.828125 C 19.226562 -16.804688 19.75 -15.195312 19.75 -13 L 19.75 0 L 14.859375 0 L 14.859375 -13.234375 C 14.859375 -14.890625 14.09375 -15.71875 12.5625 -15.71875 L 8.546875 -15.71875 L 8.546875 -6.828125 C 8.546875 -5.097656 8.28125 -3.722656 7.75 -2.703125 C 7.21875 -1.691406 6.414062 -0.929688 5.34375 -0.421875 C 4.269531 0.0859375 2.828125 0.421875 1.015625 0.578125 Z M 0.609375 -2.75 "/></g></g><g style="fill:#112c59;fill-opacity:1;"><g transform="translate(29.349507, 35.554121)"><path style="stroke:none" d="M 2.0625 -15.40625 L 1.65625 -19.375 L 6.546875 -19.375 L 6.953125 -15.40625 L 6.953125 0 L 2.0625 0 Z M 2.0625 -15.40625 "/></g></g><g style="fill:#112c59;fill-opacity:1;"><g transform="translate(38.137331, 35.554121)"><path style="stroke:none" d="M 15.8125 -19.375 L 15.8125 -15.34375 L 9.703125 0 L 4.8125 0 L 10.890625 -15.71875 L 1.046875 -15.71875 L 1.046875 -24.328125 L 5.46875 -24.328125 L 5.46875 -19.375 Z M 15.8125 -19.375 "/></g></g><g style="fill:#112c59;fill-opacity:1;"><g transform="translate(54.016422, 35.554121)"><path style="stroke:none" d="M 14.765625 0 L 8.375 -9.875 L 5.359375 0 L 0.71875 0 L 4.484375 -11.640625 L 5.53125 -14.25 L 2.375 -19.375 L 7.296875 -19.375 L 10.015625 -14.96875 L 12.453125 -11.265625 L 13.375 -14.359375 L 14.734375 -19.375 L 19.375 -19.375 L 15.3125 -7.03125 L 19.984375 0 Z M 14.765625 0 "/></g></g><g style="fill:#112c59;fill-opacity:1;"><g transform="translate(74.95113, 35.554121)"><path style="stroke:none" d="M 21.71875 -13.703125 C 21.757812 -9.066406 20.410156 -5.566406 17.671875 -3.203125 C 14.941406 -0.835938 10.703125 0.34375 4.953125 0.34375 L 3.90625 0.34375 L 1.359375 -19.375 L 6 -19.375 L 6.984375 -11 C 7.890625 -11.445312 8.5 -12.125 8.8125 -13.03125 C 9.132812 -13.9375 9.285156 -15.296875 9.265625 -17.109375 L 9.265625 -19.34375 L 13.921875 -19.34375 L 13.921875 -17.203125 C 13.867188 -14.710938 13.367188 -12.691406 12.421875 -11.140625 C 11.472656 -9.597656 9.796875 -8.421875 7.390625 -7.609375 L 7.875 -3.703125 C 11.101562 -3.898438 13.40625 -4.832031 14.78125 -6.5 C 16.164062 -8.164062 16.847656 -10.476562 16.828125 -13.4375 L 16.765625 -19.375 L 21.6875 -19.375 Z M 21.71875 -13.703125 "/></g></g><g style="fill:#112c59;fill-opacity:1;"><g transform="translate(1.126944, 82.440448)"><path style="stroke:none" d=""/></g></g><g style="fill:#112c59;fill-opacity:1;"><g transform="translate(7.919182, 82.440448)"><path style="stroke:none" d="M 0.609375 -2.75 C 1.472656 -2.84375 2.117188 -3.007812 2.546875 -3.25 C 2.972656 -3.5 3.265625 -3.84375 3.421875 -4.28125 C 3.585938 -4.726562 3.65625 -5.359375 3.625 -6.171875 L 3.625 -19.375 L 13.921875 -19.375 C 15.722656 -19.375 17.144531 -18.859375 18.1875 -17.828125 C 19.226562 -16.804688 19.75 -15.195312 19.75 -13 L 19.75 0 L 14.859375 0 L 14.859375 -13.234375 C 14.859375 -14.890625 14.09375 -15.71875 12.5625 -15.71875 L 8.546875 -15.71875 L 8.546875 -6.828125 C 8.546875 -5.097656 8.28125 -3.722656 7.75 -2.703125 C 7.21875 -1.691406 6.414062 -0.929688 5.34375 -0.421875 C 4.269531 0.0859375 2.828125 0.421875 1.015625 0.578125 Z M 0.609375 -2.75 "/></g></g><g style="fill:#112c59;fill-opacity:1;"><g transform="translate(29.46463, 82.440448)"><path style="stroke:none" d="M 2.0625 -15.40625 L 1.65625 -19.375 L 6.546875 -19.375 L 6.953125 -15.40625 L 6.953125 0 L 2.0625 0 Z M 2.0625 -15.40625 "/></g></g><g style="fill:#112c59;fill-opacity:1;"><g transform="translate(38.252454, 82.440448)"><path style="stroke:none" d="M 12.765625 -7.9375 L 17.234375 0 L 1.015625 0 L 1.015625 -3.671875 L 10.25 -3.671875 L 1.390625 -19.375 L 6.3125 -19.375 L 10.140625 -12.5625 L 12.9375 -19.375 L 17.75 -19.375 Z M 12.765625 -7.9375 "/></g></g><g style="fill:#112c59;fill-opacity:1;"><g transform="translate(57.219232, 82.440448)"><path style="stroke:none" d="M 2.0625 -15.40625 L 1.65625 -19.375 L 6.546875 -19.375 L 6.953125 -15.40625 L 6.953125 0 L 2.0625 0 Z M 2.0625 -15.40625 "/></g></g><g style="fill:#112c59;fill-opacity:1;"><g transform="translate(66.007056, 82.440448)"><path style="stroke:none" d="M 1.796875 -3.671875 L 8.65625 -3.671875 C 9.96875 -3.671875 10.988281 -4.09375 11.71875 -4.9375 C 12.457031 -5.78125 12.828125 -6.953125 12.828125 -8.453125 L 12.828125 -10.96875 C 12.828125 -12.382812 12.503906 -13.53125 11.859375 -14.40625 C 11.210938 -15.28125 10.269531 -15.71875 9.03125 -15.71875 L 6.578125 -15.71875 L 5.96875 -12.828125 C 5.90625 -12.535156 5.875 -12.253906 5.875 -11.984375 C 5.875 -11.410156 6.039062 -10.972656 6.375 -10.671875 C 6.71875 -10.367188 7.273438 -10.140625 8.046875 -9.984375 L 7.265625 -6.921875 C 5.242188 -6.960938 3.78125 -7.414062 2.875 -8.28125 C 1.976562 -9.144531 1.53125 -10.3125 1.53125 -11.78125 C 1.53125 -12.320312 1.570312 -12.816406 1.65625 -13.265625 L 3.015625 -19.375 L 10.1875 -19.375 C 12.53125 -19.375 14.367188 -18.59375 15.703125 -17.03125 C 17.046875 -15.46875 17.71875 -13.363281 17.71875 -10.71875 L 17.71875 -8.6875 C 17.71875 -5.96875 17.003906 -3.835938 15.578125 -2.296875 C 14.148438 -0.765625 12.226562 0 9.8125 0 L 1.796875 0 Z M 1.796875 -3.671875 "/></g></g><g style="fill:#112c59;fill-opacity:1;"><g transform="translate(84.905981, 82.440448)"><path style="stroke:none" d="M 1.328125 -3.671875 L 6.28125 -3.671875 L 6.28125 -13.46875 C 6.28125 -14.28125 6.125 -14.859375 5.8125 -15.203125 C 5.507812 -15.546875 5.039062 -15.757812 4.40625 -15.84375 L 2.03125 -16.1875 L 2.640625 -19.78125 L 6.890625 -19.25 C 8.265625 -19.0625 9.320312 -18.46875 10.0625 -17.46875 C 10.800781 -16.476562 11.171875 -15.191406 11.171875 -13.609375 L 11.171875 0 L 1.328125 0 Z M 1.328125 -3.671875 "/></g></g><g style="fill:#112c59;fill-opacity:1;"><g transform="translate(97.84046, 82.440448)"><path style="stroke:none" d=""/></g></g></g></g></g></svg>