<svg xmlns="http://www.w3.org/2000/svg" xmlns:xlink="http://www.w3.org/1999/xlink" width="375" zoomAndPan="magnify" viewBox="0 0 281.25 147.000002" height="196" preserveAspectRatio="xMidYMid meet" version="1.2"><defs><clipPath id="68f1cbafc6"><path d="M 0.578125 0 L 279.234375 0 L 279.234375 145.882812 L 0.578125 145.882812 Z M 0.578125 0 "/></clipPath><clipPath id="2fbe72855a"><path d="M 34.84375 0 L 244.933594 0 C 263.859375 0 279.203125 15.34375 279.203125 34.265625 L 279.203125 111.613281 C 279.203125 130.539062 263.859375 145.882812 244.933594 145.882812 L 34.84375 145.882812 C 15.917969 145.882812 0.578125 130.539062 0.578125 111.613281 L 0.578125 34.265625 C 0.578125 15.34375 15.917969 0 34.84375 0 Z M 34.84375 0 "/></clipPath><clipPath id="963b0ff881"><path d="M 0.578125 0 L 279.234375 0 L 279.234375 145.882812 L 0.578125 145.882812 Z M 0.578125 0 "/></clipPath><clipPath id="b4de8473da"><path d="M 34.84375 0 L 244.933594 0 C 263.859375 0 279.203125 15.34375 279.203125 34.265625 L 279.203125 111.613281 C 279.203125 130.539062 263.859375 145.882812 244.933594 145.882812 L 34.84375 145.882812 C 15.917969 145.882812 0.578125 130.539062 0.578125 111.613281 L 0.578125 34.265625 C 0.578125 15.34375 15.917969 0 34.84375 0 Z M 34.84375 0 "/></clipPath><clipPath id="271e2d5f88"><rect x="0" width="280" y="0" height="146"/></clipPath></defs><g id="3e5e6d657f"><g clip-rule="nonzero" clip-path="url(#68f1cbafc6)"><g clip-rule="nonzero" clip-path="url(#2fbe72855a)"><g transform="matrix(1,0,0,1,0,0.000000000000009996)"><g clip-path="url(#271e2d5f88)"><g clip-rule="nonzero" clip-path="url(#963b0ff881)"><g clip-rule="nonzero" clip-path="url(#b4de8473da)"><path style=" stroke:none;fill-rule:nonzero;fill:#f7b7d2;fill-opacity:1;" d="M 0.578125 0 L 279.234375 0 L 279.234375 145.882812 L 0.578125 145.882812 Z M 0.578125 0 "/></g></g></g></g></g></g><g style="fill:#112c59;fill-opacity:1;"><g transform="translate(27.68079, 59.129466)"><path style="stroke:none" d="M 1.890625 -14.046875 L 1.515625 -17.671875 L 5.96875 -17.671875 L 6.34375 -14.046875 L 6.34375 -9.21875 L 6.3125 -7.28125 L 1.890625 -6.5 Z M 1.890625 -14.046875 "/></g></g><g style="fill:#112c59;fill-opacity:1;"><g transform="translate(35.696725, 59.129466)"><path style="stroke:none" d="M 14.421875 -17.671875 L 14.421875 -13.984375 L 8.859375 0 L 4.390625 0 L 9.9375 -14.328125 L 0.953125 -14.328125 L 0.953125 -22.1875 L 4.984375 -22.1875 L 4.984375 -17.671875 Z M 14.421875 -17.671875 "/></g></g><g style="fill:#112c59;fill-opacity:1;"><g transform="translate(51.109617, 59.129466)"><path style="stroke:none" d="M 19.8125 -12.5 C 19.851562 -8.269531 18.625 -5.078125 16.125 -2.921875 C 13.625 -0.765625 9.753906 0.3125 4.515625 0.3125 L 3.5625 0.3125 L 1.234375 -17.671875 L 5.484375 -17.671875 L 6.375 -10.03125 C 7.195312 -10.4375 7.753906 -11.050781 8.046875 -11.875 C 8.335938 -12.707031 8.472656 -13.945312 8.453125 -15.59375 L 8.453125 -17.640625 L 12.6875 -17.640625 L 12.6875 -15.6875 C 12.644531 -13.414062 12.191406 -11.570312 11.328125 -10.15625 C 10.460938 -8.75 8.9375 -7.675781 6.75 -6.9375 L 7.1875 -3.375 C 10.132812 -3.5625 12.238281 -4.410156 13.5 -5.921875 C 14.757812 -7.441406 15.378906 -9.550781 15.359375 -12.25 L 15.296875 -17.671875 L 19.78125 -17.671875 Z M 19.8125 -12.5 "/></g></g><g style="fill:#112c59;fill-opacity:1;"><g transform="translate(72.09343, 59.129466)"><path style="stroke:none" d=""/></g></g><g style="fill:#112c59;fill-opacity:1;"><g transform="translate(78.28335, 59.129466)"><path style="stroke:none" d="M 11.828125 -12.078125 C 11.828125 -13.578125 11.132812 -14.328125 9.75 -14.328125 L 1.671875 -14.328125 L 1.671875 -17.671875 L 10.953125 -17.671875 C 12.609375 -17.671875 13.914062 -17.203125 14.875 -16.265625 C 15.832031 -15.328125 16.3125 -13.859375 16.3125 -11.859375 L 16.3125 0 L 11.828125 0 Z M 1.484375 -8.453125 L 2.109375 -10.53125 L 5.96875 -10.53125 L 5.96875 0 L 1.484375 0 Z M 1.484375 -8.453125 "/></g></g><g style="fill:#112c59;fill-opacity:1;"><g transform="translate(96.01746, 59.129466)"><path style="stroke:none" d="M 17.234375 -10.21875 C 17.359375 -6.582031 16.222656 -3.953125 13.828125 -2.328125 C 11.441406 -0.710938 7.957031 0.164062 3.375 0.3125 L 1.671875 -14.328125 L 1.234375 -17.671875 L 10.734375 -17.671875 C 12.765625 -17.671875 14.332031 -17.097656 15.4375 -15.953125 C 16.550781 -14.804688 17.140625 -13.234375 17.203125 -11.234375 Z M 7.28125 -3.65625 C 8.738281 -3.757812 9.875 -4.0625 10.6875 -4.5625 C 11.507812 -5.070312 12.078125 -5.785156 12.390625 -6.703125 C 12.710938 -7.617188 12.851562 -8.820312 12.8125 -10.3125 L 12.8125 -11.234375 C 12.8125 -12.179688 12.59375 -12.929688 12.15625 -13.484375 C 11.726562 -14.046875 11.144531 -14.328125 10.40625 -14.328125 L 6.125 -14.328125 Z M 7.28125 -3.65625 "/></g></g><g style="fill:#112c59;fill-opacity:1;"><g transform="translate(114.741958, 59.129466)"><path style="stroke:none" d="M 1.890625 -14.046875 L 1.515625 -17.671875 L 5.96875 -17.671875 L 6.34375 -14.046875 L 6.34375 -9.21875 L 6.3125 -7.28125 L 1.890625 -6.5 Z M 1.890625 -14.046875 "/></g></g><g style="fill:#112c59;fill-opacity:1;"><g transform="translate(122.757893, 59.129466)"><path style="stroke:none" d="M 1.203125 -3.34375 L 5.71875 -3.34375 L 5.71875 -12.28125 C 5.71875 -13.03125 5.578125 -13.554688 5.296875 -13.859375 C 5.023438 -14.171875 4.601562 -14.367188 4.03125 -14.453125 L 1.859375 -14.765625 L 2.421875 -18.046875 L 6.28125 -17.546875 C 7.539062 -17.378906 8.503906 -16.84375 9.171875 -15.9375 C 9.847656 -15.03125 10.1875 -13.851562 10.1875 -12.40625 L 10.1875 0 L 1.203125 0 Z M 1.203125 -3.34375 "/></g></g><g style="fill:#112c59;fill-opacity:1;"><g transform="translate(134.549685, 59.129466)"><path style="stroke:none" d="M 0.890625 -3.34375 L 5.84375 -3.34375 C 7.039062 -3.34375 7.921875 -3.734375 8.484375 -4.515625 C 9.054688 -5.304688 9.34375 -6.359375 9.34375 -7.671875 L 9.34375 -10 C 9.34375 -11.320312 9.054688 -12.375 8.484375 -13.15625 C 7.921875 -13.9375 7.039062 -14.328125 5.84375 -14.328125 L 0.890625 -14.328125 L 0.890625 -17.671875 L 7.0625 -17.671875 C 9.269531 -17.671875 10.953125 -16.960938 12.109375 -15.546875 C 13.265625 -14.140625 13.84375 -12.207031 13.84375 -9.75 L 13.84375 -7.921875 C 13.84375 -5.460938 13.265625 -3.523438 12.109375 -2.109375 C 10.953125 -0.703125 9.269531 0 7.0625 0 L 0.890625 0 Z M 0.890625 -3.34375 "/></g></g><g style="fill:#112c59;fill-opacity:1;"><g transform="translate(149.560228, 59.129466)"><path style="stroke:none" d="M 11.828125 -12.078125 C 11.828125 -13.578125 11.132812 -14.328125 9.75 -14.328125 L 1.671875 -14.328125 L 1.671875 -17.671875 L 10.953125 -17.671875 C 12.609375 -17.671875 13.914062 -17.203125 14.875 -16.265625 C 15.832031 -15.328125 16.3125 -13.859375 16.3125 -11.859375 L 16.3125 0 L 11.828125 0 Z M 1.484375 -8.453125 L 2.109375 -10.53125 L 5.96875 -10.53125 L 5.96875 0 L 1.484375 0 Z M 1.484375 -8.453125 "/></g></g><g style="fill:#112c59;fill-opacity:1;"><g transform="translate(167.294339, 59.129466)"><path style="stroke:none" d=""/></g></g><g style="fill:#112c59;fill-opacity:1;"><g transform="translate(173.484259, 59.129466)"><path style="stroke:none" d="M 1.890625 -14.046875 L 1.515625 -17.671875 L 5.96875 -17.671875 L 6.34375 -14.046875 L 6.34375 6.1875 L 1.890625 6.1875 Z M 1.890625 -14.046875 "/></g></g><g style="fill:#112c59;fill-opacity:1;"><g transform="translate(181.500194, 59.129466)"><path style="stroke:none" d="M 18.671875 -8.828125 C 18.671875 -5.953125 18.003906 -3.691406 16.671875 -2.046875 C 15.335938 -0.410156 13.460938 0.40625 11.046875 0.40625 C 10.179688 0.40625 9.234375 0.28125 8.203125 0.03125 L 8.609375 -3.3125 C 9.367188 -3.144531 10.007812 -3.0625 10.53125 -3.0625 C 11.925781 -3.0625 12.921875 -3.53125 13.515625 -4.46875 C 14.117188 -5.40625 14.421875 -6.796875 14.421875 -8.640625 C 14.421875 -10.679688 14.132812 -12.160156 13.5625 -13.078125 C 13 -13.992188 12.128906 -14.453125 10.953125 -14.453125 C 10.128906 -14.453125 9.429688 -14.203125 8.859375 -13.703125 C 8.296875 -13.210938 7.941406 -12.546875 7.796875 -11.703125 L 5.875 0 L 1.421875 0 L 3.5625 -11.921875 L 1.078125 -17.671875 L 5.71875 -17.671875 L 6.96875 -14.140625 C 7.394531 -15.421875 8.039062 -16.375 8.90625 -17 C 9.78125 -17.632812 10.773438 -17.953125 11.890625 -17.953125 C 14.097656 -17.953125 15.78125 -17.191406 16.9375 -15.671875 C 18.09375 -14.160156 18.671875 -11.878906 18.671875 -8.828125 Z M 18.671875 -8.828125 "/></g></g><g style="fill:#112c59;fill-opacity:1;"><g transform="translate(201.369825, 59.129466)"><path style="stroke:none" d="M 3.125 -10.703125 C 3.125 -11.492188 3.203125 -12.203125 3.359375 -12.828125 C 3.515625 -13.460938 3.726562 -13.960938 4 -14.328125 L 1.203125 -14.328125 L 1.203125 -17.671875 L 10.40625 -17.671875 L 10.40625 -14.328125 L 8.078125 -14.328125 C 7.847656 -13.878906 7.707031 -13.363281 7.65625 -12.78125 C 7.601562 -12.207031 7.578125 -11.515625 7.578125 -10.703125 L 7.578125 0 L 3.125 0 Z M 3.125 -10.703125 "/></g></g><g style="fill:#112c59;fill-opacity:1;"><g transform="translate(212.975918, 59.129466)"><path style="stroke:none" d=""/></g></g><g style="fill:#112c59;fill-opacity:1;"><g transform="translate(219.165839, 59.129466)"><path style="stroke:none" d="M 11.828125 -12.078125 C 11.828125 -13.578125 11.132812 -14.328125 9.75 -14.328125 L 1.671875 -14.328125 L 1.671875 -17.671875 L 10.953125 -17.671875 C 12.609375 -17.671875 13.914062 -17.203125 14.875 -16.265625 C 15.832031 -15.328125 16.3125 -13.859375 16.3125 -11.859375 L 16.3125 0 L 11.828125 0 Z M 1.484375 -8.453125 L 2.109375 -10.53125 L 5.96875 -10.53125 L 5.96875 0 L 1.484375 0 Z M 1.484375 -8.453125 "/></g></g><g style="fill:#112c59;fill-opacity:1;"><g transform="translate(236.899949, 59.129466)"><path style="stroke:none" d="M 18.671875 -8.828125 C 18.671875 -5.953125 18.003906 -3.691406 16.671875 -2.046875 C 15.335938 -0.410156 13.460938 0.40625 11.046875 0.40625 C 10.179688 0.40625 9.234375 0.28125 8.203125 0.03125 L 8.609375 -3.3125 C 9.367188 -3.144531 10.007812 -3.0625 10.53125 -3.0625 C 11.925781 -3.0625 12.921875 -3.53125 13.515625 -4.46875 C 14.117188 -5.40625 14.421875 -6.796875 14.421875 -8.640625 C 14.421875 -10.679688 14.132812 -12.160156 13.5625 -13.078125 C 13 -13.992188 12.128906 -14.453125 10.953125 -14.453125 C 10.128906 -14.453125 9.429688 -14.203125 8.859375 -13.703125 C 8.296875 -13.210938 7.941406 -12.546875 7.796875 -11.703125 L 5.875 0 L 1.421875 0 L 3.5625 -11.921875 L 1.078125 -17.671875 L 5.71875 -17.671875 L 6.96875 -14.140625 C 7.394531 -15.421875 8.039062 -16.375 8.90625 -17 C 9.78125 -17.632812 10.773438 -17.953125 11.890625 -17.953125 C 14.097656 -17.953125 15.78125 -17.191406 16.9375 -15.671875 C 18.09375 -14.160156 18.671875 -11.878906 18.671875 -8.828125 Z M 18.671875 -8.828125 "/></g></g><g style="fill:#112c59;fill-opacity:1;"><g transform="translate(55.871826, 102.335546)"><path style="stroke:none" d="M 4.796875 -7 C 4.753906 -7.363281 4.734375 -7.628906 4.734375 -7.796875 C 4.734375 -8.722656 4.9375 -9.539062 5.34375 -10.25 C 5.757812 -10.96875 6.351562 -11.757812 7.125 -12.625 C 7.695312 -13.289062 8.113281 -13.832031 8.375 -14.25 C 8.632812 -14.675781 8.765625 -15.113281 8.765625 -15.5625 C 8.765625 -16.226562 8.5625 -16.75 8.15625 -17.125 C 7.75 -17.507812 7.207031 -17.703125 6.53125 -17.703125 C 5.976562 -17.703125 5.46875 -17.570312 5 -17.3125 C 4.53125 -17.0625 4.0625 -16.695312 3.59375 -16.21875 L 1.265625 -18.359375 C 2.015625 -19.203125 2.882812 -19.867188 3.875 -20.359375 C 4.863281 -20.859375 5.925781 -21.109375 7.0625 -21.109375 C 8.789062 -21.109375 10.179688 -20.664062 11.234375 -19.78125 C 12.285156 -18.894531 12.8125 -17.59375 12.8125 -15.875 C 12.8125 -15.050781 12.625 -14.320312 12.25 -13.6875 C 11.882812 -13.0625 11.332031 -12.328125 10.59375 -11.484375 C 9.882812 -10.703125 9.351562 -10.019531 9 -9.4375 C 8.65625 -8.863281 8.484375 -8.203125 8.484375 -7.453125 C 8.484375 -7.253906 8.492188 -7.101562 8.515625 -7 Z M 6.65625 0.375 C 5.914062 0.375 5.296875 0.117188 4.796875 -0.390625 C 4.304688 -0.910156 4.0625 -1.566406 4.0625 -2.359375 C 4.0625 -3.140625 4.304688 -3.785156 4.796875 -4.296875 C 5.296875 -4.816406 5.914062 -5.078125 6.65625 -5.078125 C 7.394531 -5.078125 8.007812 -4.816406 8.5 -4.296875 C 9 -3.785156 9.25 -3.140625 9.25 -2.359375 C 9.25 -1.566406 9 -0.910156 8.5 -0.390625 C 8.007812 0.117188 7.394531 0.375 6.65625 0.375 Z M 6.65625 0.375 "/></g></g><g style="fill:#112c59;fill-opacity:1;"><g transform="translate(70.015778, 102.335546)"><path style="stroke:none" d="M 1.890625 -14.046875 L 1.515625 -17.671875 L 5.96875 -17.671875 L 6.34375 -14.046875 L 6.34375 6.1875 L 1.890625 6.1875 Z M 1.890625 -14.046875 "/></g></g><g style="fill:#112c59;fill-opacity:1;"><g transform="translate(78.031713, 102.335546)"><path style="stroke:none" d="M 7.609375 0 L 7.0625 -3.3125 C 6.476562 -2.382812 5.800781 -1.597656 5.03125 -0.953125 C 4.257812 -0.316406 3.304688 0.195312 2.171875 0.59375 L 0.53125 -2.9375 C 3.414062 -3.84375 5.375 -5.289062 6.40625 -7.28125 L 6.40625 -12.3125 C 6.40625 -13.0625 6.289062 -13.585938 6.0625 -13.890625 C 5.832031 -14.203125 5.453125 -14.398438 4.921875 -14.484375 L 2.96875 -14.765625 L 3.53125 -18.046875 L 7.1875 -17.546875 C 8.4375 -17.378906 9.359375 -16.910156 9.953125 -16.140625 C 10.554688 -15.367188 10.859375 -14.257812 10.859375 -12.8125 L 10.859375 -6.9375 L 11.859375 0 Z M 7.609375 0 "/></g></g><g style="fill:#112c59;fill-opacity:1;"><g transform="translate(91.154338, 102.335546)"><path style="stroke:none" d="M 1.890625 -14.046875 L 1.515625 -17.671875 L 5.96875 -17.671875 L 6.34375 -14.046875 L 6.34375 0 L 1.890625 0 Z M 1.890625 -14.046875 "/></g></g><g style="fill:#112c59;fill-opacity:1;"><g transform="translate(99.170272, 102.335546)"><path style="stroke:none" d="M 18.671875 -8.828125 C 18.671875 -5.953125 18.003906 -3.691406 16.671875 -2.046875 C 15.335938 -0.410156 13.460938 0.40625 11.046875 0.40625 C 10.179688 0.40625 9.234375 0.28125 8.203125 0.03125 L 8.609375 -3.3125 C 9.367188 -3.144531 10.007812 -3.0625 10.53125 -3.0625 C 11.925781 -3.0625 12.921875 -3.53125 13.515625 -4.46875 C 14.117188 -5.40625 14.421875 -6.796875 14.421875 -8.640625 C 14.421875 -10.679688 14.132812 -12.160156 13.5625 -13.078125 C 13 -13.992188 12.128906 -14.453125 10.953125 -14.453125 C 10.128906 -14.453125 9.429688 -14.203125 8.859375 -13.703125 C 8.296875 -13.210938 7.941406 -12.546875 7.796875 -11.703125 L 5.875 0 L 1.421875 0 L 3.5625 -11.921875 L 1.078125 -17.671875 L 5.71875 -17.671875 L 6.96875 -14.140625 C 7.394531 -15.421875 8.039062 -16.375 8.90625 -17 C 9.78125 -17.632812 10.773438 -17.953125 11.890625 -17.953125 C 14.097656 -17.953125 15.78125 -17.191406 16.9375 -15.671875 C 18.09375 -14.160156 18.671875 -11.878906 18.671875 -8.828125 Z M 18.671875 -8.828125 "/></g></g><g style="fill:#112c59;fill-opacity:1;"><g transform="translate(119.039903, 102.335546)"><path style="stroke:none" d="M 11.828125 -12.078125 C 11.828125 -13.578125 11.132812 -14.328125 9.75 -14.328125 L 1.671875 -14.328125 L 1.671875 -17.671875 L 10.953125 -17.671875 C 12.609375 -17.671875 13.914062 -17.203125 14.875 -16.265625 C 15.832031 -15.328125 16.3125 -13.859375 16.3125 -11.859375 L 16.3125 0 L 11.828125 0 Z M 1.484375 -8.453125 L 2.109375 -10.53125 L 5.96875 -10.53125 L 5.96875 0 L 1.484375 0 Z M 1.484375 -8.453125 "/></g></g><g style="fill:#112c59;fill-opacity:1;"><g transform="translate(136.774014, 102.335546)"><path style="stroke:none" d=""/></g></g><g style="fill:#112c59;fill-opacity:1;"><g transform="translate(142.963934, 102.335546)"><path style="stroke:none" d="M 15.875 -3.34375 L 15.875 0 L 1.171875 0 L 1.171875 -3.34375 L 9.34375 -3.34375 L 9.34375 -12.078125 C 9.34375 -13.578125 8.644531 -14.328125 7.25 -14.328125 L 1.171875 -14.328125 L 1.171875 -17.671875 L 8.484375 -17.671875 C 10.128906 -17.671875 11.425781 -17.203125 12.375 -16.265625 C 13.332031 -15.328125 13.8125 -13.859375 13.8125 -11.859375 L 13.8125 -3.34375 Z M 15.875 -3.34375 "/></g></g><g style="fill:#112c59;fill-opacity:1;"><g transform="translate(159.76955, 102.335546)"><path style="stroke:none" d="M 11.484375 -17.671875 C 13.128906 -17.671875 14.429688 -17.175781 15.390625 -16.1875 C 16.359375 -15.195312 16.84375 -13.703125 16.84375 -11.703125 L 16.84375 0 L 12.34375 0 L 12.34375 -11.921875 C 12.34375 -13.523438 11.65625 -14.328125 10.28125 -14.328125 L 6.125 -14.328125 L 6.125 0 L 1.671875 0 L 1.671875 -17.671875 Z M 11.484375 -17.671875 "/></g></g><g style="fill:#112c59;fill-opacity:1;"><g transform="translate(178.184542, 102.335546)"><path style="stroke:none" d="M 8.96875 -12.078125 C 8.96875 -13.578125 8.28125 -14.328125 6.90625 -14.328125 L 0.859375 -14.328125 L 0.859375 -17.671875 L 8.109375 -17.671875 C 9.765625 -17.671875 11.070312 -17.203125 12.03125 -16.265625 C 12.988281 -15.328125 13.46875 -13.859375 13.46875 -11.859375 L 13.46875 0 L 8.96875 0 Z M 8.96875 -12.078125 "/></g></g><g style="fill:#112c59;fill-opacity:1;"><g transform="translate(193.28794, 102.335546)"><path style="stroke:none" d="M 18.671875 -8.828125 C 18.671875 -5.953125 18.003906 -3.691406 16.671875 -2.046875 C 15.335938 -0.410156 13.460938 0.40625 11.046875 0.40625 C 10.179688 0.40625 9.234375 0.28125 8.203125 0.03125 L 8.609375 -3.3125 C 9.367188 -3.144531 10.007812 -3.0625 10.53125 -3.0625 C 11.925781 -3.0625 12.921875 -3.53125 13.515625 -4.46875 C 14.117188 -5.40625 14.421875 -6.796875 14.421875 -8.640625 C 14.421875 -10.679688 14.132812 -12.160156 13.5625 -13.078125 C 13 -13.992188 12.128906 -14.453125 10.953125 -14.453125 C 10.128906 -14.453125 9.429688 -14.203125 8.859375 -13.703125 C 8.296875 -13.210938 7.941406 -12.546875 7.796875 -11.703125 L 5.875 0 L 1.421875 0 L 3.5625 -11.921875 L 1.078125 -17.671875 L 5.71875 -17.671875 L 6.96875 -14.140625 C 7.394531 -15.421875 8.039062 -16.375 8.90625 -17 C 9.78125 -17.632812 10.773438 -17.953125 11.890625 -17.953125 C 14.097656 -17.953125 15.78125 -17.191406 16.9375 -15.671875 C 18.09375 -14.160156 18.671875 -11.878906 18.671875 -8.828125 Z M 18.671875 -8.828125 "/></g></g><g style="fill:#112c59;fill-opacity:1;"><g transform="translate(213.157571, 102.335546)"><path style="stroke:none" d="M 14.421875 -17.671875 L 14.421875 -13.984375 L 8.859375 0 L 4.390625 0 L 9.9375 -14.328125 L 0.953125 -14.328125 L 0.953125 -22.1875 L 4.984375 -22.1875 L 4.984375 -17.671875 Z M 14.421875 -17.671875 "/></g></g></g></svg>