<svg xmlns="http://www.w3.org/2000/svg" xmlns:xlink="http://www.w3.org/1999/xlink" width="375" zoomAndPan="magnify" viewBox="0 0 281.25 147.000002" height="196" preserveAspectRatio="xMidYMid meet" version="1.2"><defs><clipPath id="56fb4e6392"><path d="M 0.578125 0 L 279.234375 0 L 279.234375 145.882812 L 0.578125 145.882812 Z M 0.578125 0 "/></clipPath><clipPath id="2929e048cf"><path d="M 34.84375 0 L 244.933594 0 C 263.859375 0 279.203125 15.34375 279.203125 34.265625 L 279.203125 111.613281 C 279.203125 130.539062 263.859375 145.882812 244.933594 145.882812 L 34.84375 145.882812 C 15.917969 145.882812 0.578125 130.539062 0.578125 111.613281 L 0.578125 34.265625 C 0.578125 15.34375 15.917969 0 34.84375 0 Z M 34.84375 0 "/></clipPath><clipPath id="9f714b0cda"><path d="M 0.578125 0 L 279.234375 0 L 279.234375 145.882812 L 0.578125 145.882812 Z M 0.578125 0 "/></clipPath><clipPath id="cdc3f81251"><path d="M 34.84375 0 L 244.933594 0 C 263.859375 0 279.203125 15.34375 279.203125 34.265625 L 279.203125 111.613281 C 279.203125 130.539062 263.859375 145.882812 244.933594 145.882812 L 34.84375 145.882812 C 15.917969 145.882812 0.578125 130.539062 0.578125 111.613281 L 0.578125 34.265625 C 0.578125 15.34375 15.917969 0 34.84375 0 Z M 34.84375 0 "/></clipPath><clipPath id="94eb638f17"><rect x="0" width="280" y="0" height="146"/></clipPath></defs><g id="13ea59edd9"><g clip-rule="nonzero" clip-path="url(#56fb4e6392)"><g clip-rule="nonzero" clip-path="url(#2929e048cf)"><g transform="matrix(1,0,0,1,0,0.000000000000009996)"><g clip-path="url(#94eb638f17)"><g clip-rule="nonzero" clip-path="url(#9f714b0cda)"><g clip-rule="nonzero" clip-path="url(#cdc3f81251)"><path style=" stroke:none;fill-rule:nonzero;fill:#f7b7d2;fill-opacity:1;" d="M 0.578125 0 L 279.234375 0 L 279.234375 145.882812 L 0.578125 145.882812 Z M 0.578125 0 "/></g></g></g></g></g></g><g style="fill:#112c59;fill-opacity:1;"><g transform="translate(33.297882, 55.846188)"><path style="stroke:none" d="M 16.390625 -3.453125 L 16.390625 0 L 1.21875 0 L 1.21875 -3.453125 L 9.65625 -3.453125 L 9.65625 -12.46875 C 9.65625 -14.019531 8.929688 -14.796875 7.484375 -14.796875 L 1.21875 -14.796875 L 1.21875 -18.25 L 8.75 -18.25 C 10.457031 -18.25 11.800781 -17.765625 12.78125 -16.796875 C 13.757812 -15.828125 14.25 -14.304688 14.25 -12.234375 L 14.25 -3.453125 Z M 16.390625 -3.453125 "/></g></g><g style="fill:#112c59;fill-opacity:1;"><g transform="translate(50.640771, 55.846188)"><path style="stroke:none" d="M 11.859375 -18.25 C 13.554688 -18.25 14.898438 -17.734375 15.890625 -16.703125 C 16.878906 -15.679688 17.375 -14.140625 17.375 -12.078125 L 17.375 0 L 12.75 0 L 12.75 -12.296875 C 12.75 -13.960938 12.035156 -14.796875 10.609375 -14.796875 L 6.328125 -14.796875 L 6.328125 0 L 1.71875 0 L 1.71875 -18.25 Z M 11.859375 -18.25 "/></g></g><g style="fill:#112c59;fill-opacity:1;"><g transform="translate(69.644482, 55.846188)"><path style="stroke:none" d="M 9.265625 -12.46875 C 9.265625 -14.019531 8.550781 -14.796875 7.125 -14.796875 L 0.890625 -14.796875 L 0.890625 -18.25 L 8.375 -18.25 C 10.070312 -18.25 11.414062 -17.765625 12.40625 -16.796875 C 13.40625 -15.828125 13.90625 -14.304688 13.90625 -12.234375 L 13.90625 0 L 9.265625 0 Z M 9.265625 -12.46875 "/></g></g><g style="fill:#112c59;fill-opacity:1;"><g transform="translate(85.230717, 55.846188)"><path style="stroke:none" d="M 19.265625 -9.109375 C 19.265625 -6.148438 18.578125 -3.820312 17.203125 -2.125 C 15.828125 -0.425781 13.894531 0.421875 11.40625 0.421875 C 10.507812 0.421875 9.53125 0.289062 8.46875 0.03125 L 8.890625 -3.421875 C 9.671875 -3.242188 10.328125 -3.15625 10.859375 -3.15625 C 12.304688 -3.15625 13.335938 -3.640625 13.953125 -4.609375 C 14.578125 -5.585938 14.890625 -7.023438 14.890625 -8.921875 C 14.890625 -11.023438 14.59375 -12.550781 14 -13.5 C 13.414062 -14.445312 12.519531 -14.921875 11.3125 -14.921875 C 10.457031 -14.921875 9.738281 -14.664062 9.15625 -14.15625 C 8.570312 -13.644531 8.203125 -12.953125 8.046875 -12.078125 L 6.078125 0 L 1.46875 0 L 3.671875 -12.296875 L 1.125 -18.25 L 5.90625 -18.25 L 7.1875 -14.609375 C 7.632812 -15.921875 8.304688 -16.898438 9.203125 -17.546875 C 10.097656 -18.203125 11.117188 -18.53125 12.265625 -18.53125 C 14.546875 -18.53125 16.28125 -17.742188 17.46875 -16.171875 C 18.664062 -14.609375 19.265625 -12.253906 19.265625 -9.109375 Z M 19.265625 -9.109375 "/></g></g><g style="fill:#112c59;fill-opacity:1;"><g transform="translate(105.735568, 55.846188)"><path style="stroke:none" d="M 12.203125 -12.46875 C 12.203125 -14.019531 11.488281 -14.796875 10.0625 -14.796875 L 1.71875 -14.796875 L 1.71875 -18.25 L 11.3125 -18.25 C 13.019531 -18.25 14.367188 -17.765625 15.359375 -16.796875 C 16.347656 -15.828125 16.84375 -14.304688 16.84375 -12.234375 L 16.84375 0 L 12.203125 0 Z M 1.53125 -8.71875 L 2.171875 -10.859375 L 6.171875 -10.859375 L 6.171875 0 L 1.53125 0 Z M 1.53125 -8.71875 "/></g></g><g style="fill:#112c59;fill-opacity:1;"><g transform="translate(124.036619, 55.846188)"><path style="stroke:none" d=""/></g></g><g style="fill:#112c59;fill-opacity:1;"><g transform="translate(130.424424, 55.846188)"><path style="stroke:none" d="M 14.890625 -18.25 L 14.890625 -14.4375 L 9.140625 0 L 4.53125 0 L 10.25 -14.796875 L 0.984375 -14.796875 L 0.984375 -22.90625 L 5.140625 -22.90625 L 5.140625 -18.25 Z M 14.890625 -18.25 "/></g></g><g style="fill:#112c59;fill-opacity:1;"><g transform="translate(146.330053, 55.846188)"><path style="stroke:none" d="M 17.0625 -18.25 C 17.039062 -14.007812 16.875 -10.804688 16.5625 -8.640625 C 16.257812 -6.484375 15.445312 -4.660156 14.125 -3.171875 C 12.800781 -1.691406 10.671875 -0.664062 7.734375 -0.09375 L 0.890625 1.25 L 0.25 -2.359375 L 5.34375 -3.328125 L 1.65625 -18.25 L 6.265625 -18.25 L 9.484375 -4.34375 C 10.441406 -4.8125 11.132812 -5.523438 11.5625 -6.484375 C 11.988281 -7.441406 12.25 -8.601562 12.34375 -9.96875 C 12.445312 -11.332031 12.5 -13.398438 12.5 -16.171875 L 12.5 -18.25 Z M 17.0625 -18.25 "/></g></g><g style="fill:#112c59;fill-opacity:1;"><g transform="translate(164.726927, 55.846188)"><path style="stroke:none" d=""/></g></g><g style="fill:#112c59;fill-opacity:1;"><g transform="translate(171.114731, 55.846188)"><path style="stroke:none" d="M 12.203125 -12.46875 C 12.203125 -14.019531 11.488281 -14.796875 10.0625 -14.796875 L 1.71875 -14.796875 L 1.71875 -18.25 L 11.3125 -18.25 C 13.019531 -18.25 14.367188 -17.765625 15.359375 -16.796875 C 16.347656 -15.828125 16.84375 -14.304688 16.84375 -12.234375 L 16.84375 0 L 12.203125 0 Z M 1.53125 -8.71875 L 2.171875 -10.859375 L 6.171875 -10.859375 L 6.171875 0 L 1.53125 0 Z M 1.53125 -8.71875 "/></g></g><g style="fill:#112c59;fill-opacity:1;"><g transform="translate(189.415782, 55.846188)"><path style="stroke:none" d="M 9.265625 -12.46875 C 9.265625 -14.019531 8.550781 -14.796875 7.125 -14.796875 L 0.890625 -14.796875 L 0.890625 -18.25 L 8.375 -18.25 C 10.070312 -18.25 11.414062 -17.765625 12.40625 -16.796875 C 13.40625 -15.828125 13.90625 -14.304688 13.90625 -12.234375 L 13.90625 0 L 9.265625 0 Z M 9.265625 -12.46875 "/></g></g><g style="fill:#112c59;fill-opacity:1;"><g transform="translate(205.002017, 55.846188)"><path style="stroke:none" d="M 1.953125 -14.5 L 1.5625 -18.25 L 6.171875 -18.25 L 6.546875 -14.5 L 6.546875 -9.515625 L 6.515625 -7.515625 L 1.953125 -6.703125 Z M 1.953125 -14.5 "/></g></g><g style="fill:#112c59;fill-opacity:1;"><g transform="translate(213.274227, 55.846188)"><path style="stroke:none" d="M 19.265625 -9.109375 C 19.265625 -6.148438 18.578125 -3.820312 17.203125 -2.125 C 15.828125 -0.425781 13.894531 0.421875 11.40625 0.421875 C 10.507812 0.421875 9.53125 0.289062 8.46875 0.03125 L 8.890625 -3.421875 C 9.671875 -3.242188 10.328125 -3.15625 10.859375 -3.15625 C 12.304688 -3.15625 13.335938 -3.640625 13.953125 -4.609375 C 14.578125 -5.585938 14.890625 -7.023438 14.890625 -8.921875 C 14.890625 -11.023438 14.59375 -12.550781 14 -13.5 C 13.414062 -14.445312 12.519531 -14.921875 11.3125 -14.921875 C 10.457031 -14.921875 9.738281 -14.664062 9.15625 -14.15625 C 8.570312 -13.644531 8.203125 -12.953125 8.046875 -12.078125 L 6.078125 0 L 1.46875 0 L 3.671875 -12.296875 L 1.125 -18.25 L 5.90625 -18.25 L 7.1875 -14.609375 C 7.632812 -15.921875 8.304688 -16.898438 9.203125 -17.546875 C 10.097656 -18.203125 11.117188 -18.53125 12.265625 -18.53125 C 14.546875 -18.53125 16.28125 -17.742188 17.46875 -16.171875 C 18.664062 -14.609375 19.265625 -12.253906 19.265625 -9.109375 Z M 19.265625 -9.109375 "/></g></g><g style="fill:#112c59;fill-opacity:1;"><g transform="translate(233.77909, 55.846188)"><path style="stroke:none" d="M 20.453125 -12.90625 C 20.492188 -8.539062 19.222656 -5.242188 16.640625 -3.015625 C 14.066406 -0.796875 10.078125 0.3125 4.671875 0.3125 L 3.671875 0.3125 L 1.28125 -18.25 L 5.65625 -18.25 L 6.578125 -10.359375 C 7.429688 -10.773438 8.003906 -11.410156 8.296875 -12.265625 C 8.597656 -13.117188 8.738281 -14.398438 8.71875 -16.109375 L 8.71875 -18.21875 L 13.09375 -18.21875 L 13.09375 -16.203125 C 13.050781 -13.859375 12.582031 -11.957031 11.6875 -10.5 C 10.800781 -9.039062 9.226562 -7.925781 6.96875 -7.15625 L 7.40625 -3.484375 C 10.457031 -3.671875 12.628906 -4.546875 13.921875 -6.109375 C 15.222656 -7.679688 15.863281 -9.863281 15.84375 -12.65625 L 15.78125 -18.25 L 20.421875 -18.25 Z M 20.453125 -12.90625 "/></g></g><g style="fill:#112c59;fill-opacity:1;"><g transform="translate(43.435947, 100.542132)"><path style="stroke:none" d="M 11.796875 -18.25 C 13.492188 -18.25 14.835938 -17.765625 15.828125 -16.796875 C 16.816406 -15.828125 17.3125 -14.304688 17.3125 -12.234375 L 17.3125 0 L 1.6875 0 L 1.6875 -18.25 Z M 12.6875 -3.453125 L 12.6875 -12.46875 C 12.6875 -14.019531 11.972656 -14.796875 10.546875 -14.796875 L 6.296875 -14.796875 L 6.296875 -3.453125 Z M 12.6875 -3.453125 "/></g></g><g style="fill:#112c59;fill-opacity:1;"><g transform="translate(62.343846, 100.542132)"><path style="stroke:none" d="M 1.953125 -14.5 L 1.5625 -18.25 L 6.171875 -18.25 L 6.546875 -14.5 L 6.546875 0 L 1.953125 0 Z M 1.953125 -14.5 "/></g></g><g style="fill:#112c59;fill-opacity:1;"><g transform="translate(70.616056, 100.542132)"><path style="stroke:none" d="M 9.265625 -12.46875 C 9.265625 -14.019531 8.550781 -14.796875 7.125 -14.796875 L 0.890625 -14.796875 L 0.890625 -18.25 L 8.375 -18.25 C 10.070312 -18.25 11.414062 -17.765625 12.40625 -16.796875 C 13.40625 -15.828125 13.90625 -14.304688 13.90625 -12.234375 L 13.90625 0 L 9.265625 0 Z M 9.265625 -12.46875 "/></g></g><g style="fill:#112c59;fill-opacity:1;"><g transform="translate(86.202291, 100.542132)"><path style="stroke:none" d="M 1.953125 -14.5 L 1.5625 -18.25 L 6.171875 -18.25 L 6.546875 -14.5 L 6.546875 -9.515625 L 6.515625 -7.515625 L 1.953125 -6.703125 Z M 1.953125 -14.5 "/></g></g><g style="fill:#112c59;fill-opacity:1;"><g transform="translate(94.474501, 100.542132)"><path style="stroke:none" d="M 11.859375 -18.25 C 13.554688 -18.25 14.898438 -17.734375 15.890625 -16.703125 C 16.878906 -15.679688 17.375 -14.140625 17.375 -12.078125 L 17.375 0 L 12.75 0 L 12.75 -12.296875 C 12.75 -13.960938 12.035156 -14.796875 10.609375 -14.796875 L 6.328125 -14.796875 L 6.328125 0 L 1.71875 0 L 1.71875 -18.25 Z M 11.859375 -18.25 "/></g></g><g style="fill:#112c59;fill-opacity:1;"><g transform="translate(113.478212, 100.542132)"><path style="stroke:none" d="M 14.890625 -18.25 L 14.890625 -14.4375 L 9.140625 0 L 4.53125 0 L 10.25 -14.796875 L 0.984375 -14.796875 L 0.984375 -22.90625 L 5.140625 -22.90625 L 5.140625 -18.25 Z M 14.890625 -18.25 "/></g></g><g style="fill:#112c59;fill-opacity:1;"><g transform="translate(129.383842, 100.542132)"><path style="stroke:none" d=""/></g></g><g style="fill:#112c59;fill-opacity:1;"><g transform="translate(135.771646, 100.542132)"><path style="stroke:none" d="M 1.953125 -14.5 L 1.5625 -18.25 L 6.171875 -18.25 L 6.546875 -14.5 L 6.546875 6.390625 L 1.953125 6.390625 Z M 1.953125 -14.5 "/></g></g><g style="fill:#112c59;fill-opacity:1;"><g transform="translate(144.043856, 100.542132)"><path style="stroke:none" d="M 0.921875 -3.453125 L 6.046875 -3.453125 C 7.273438 -3.453125 8.179688 -3.851562 8.765625 -4.65625 C 9.359375 -5.46875 9.65625 -6.554688 9.65625 -7.921875 L 9.65625 -10.328125 C 9.65625 -11.679688 9.359375 -12.765625 8.765625 -13.578125 C 8.179688 -14.390625 7.273438 -14.796875 6.046875 -14.796875 L 0.921875 -14.796875 L 0.921875 -18.25 L 7.28125 -18.25 C 9.5625 -18.25 11.296875 -17.519531 12.484375 -16.0625 C 13.679688 -14.601562 14.28125 -12.601562 14.28125 -10.0625 L 14.28125 -8.1875 C 14.28125 -5.644531 13.679688 -3.644531 12.484375 -2.1875 C 11.296875 -0.726562 9.5625 0 7.28125 0 L 0.921875 0 Z M 0.921875 -3.453125 "/></g></g><g style="fill:#112c59;fill-opacity:1;"><g transform="translate(159.534281, 100.542132)"><path style="stroke:none" d="M 1.953125 -14.5 L 1.5625 -18.25 L 6.171875 -18.25 L 6.546875 -14.5 L 6.546875 0 L 1.953125 0 Z M 1.953125 -14.5 "/></g></g><g style="fill:#112c59;fill-opacity:1;"><g transform="translate(167.806491, 100.542132)"><path style="stroke:none" d="M 19.265625 -9.109375 C 19.265625 -6.148438 18.578125 -3.820312 17.203125 -2.125 C 15.828125 -0.425781 13.894531 0.421875 11.40625 0.421875 C 10.507812 0.421875 9.53125 0.289062 8.46875 0.03125 L 8.890625 -3.421875 C 9.671875 -3.242188 10.328125 -3.15625 10.859375 -3.15625 C 12.304688 -3.15625 13.335938 -3.640625 13.953125 -4.609375 C 14.578125 -5.585938 14.890625 -7.023438 14.890625 -8.921875 C 14.890625 -11.023438 14.59375 -12.550781 14 -13.5 C 13.414062 -14.445312 12.519531 -14.921875 11.3125 -14.921875 C 10.457031 -14.921875 9.738281 -14.664062 9.15625 -14.15625 C 8.570312 -13.644531 8.203125 -12.953125 8.046875 -12.078125 L 6.078125 0 L 1.46875 0 L 3.671875 -12.296875 L 1.125 -18.25 L 5.90625 -18.25 L 7.1875 -14.609375 C 7.632812 -15.921875 8.304688 -16.898438 9.203125 -17.546875 C 10.097656 -18.203125 11.117188 -18.53125 12.265625 -18.53125 C 14.546875 -18.53125 16.28125 -17.742188 17.46875 -16.171875 C 18.664062 -14.609375 19.265625 -12.253906 19.265625 -9.109375 Z M 19.265625 -9.109375 "/></g></g><g style="fill:#112c59;fill-opacity:1;"><g transform="translate(188.311342, 100.542132)"><path style="stroke:none" d=""/></g></g><g style="fill:#112c59;fill-opacity:1;"><g transform="translate(194.699146, 100.542132)"><path style="stroke:none" d="M 1.953125 -14.5 L 1.5625 -18.25 L 6.171875 -18.25 L 6.546875 -14.5 L 6.546875 6.390625 L 1.953125 6.390625 Z M 1.953125 -14.5 "/></g></g><g style="fill:#112c59;fill-opacity:1;"><g transform="translate(202.971356, 100.542132)"><path style="stroke:none" d="M 7.859375 0 L 7.28125 -3.421875 C 6.6875 -2.460938 5.988281 -1.648438 5.1875 -0.984375 C 4.394531 -0.328125 3.410156 0.203125 2.234375 0.609375 L 0.546875 -3.03125 C 3.523438 -3.96875 5.546875 -5.460938 6.609375 -7.515625 L 6.609375 -12.71875 C 6.609375 -13.488281 6.488281 -14.03125 6.25 -14.34375 C 6.019531 -14.664062 5.628906 -14.867188 5.078125 -14.953125 L 3.0625 -15.234375 L 3.640625 -18.625 L 7.40625 -18.125 C 8.707031 -17.945312 9.664062 -17.457031 10.28125 -16.65625 C 10.90625 -15.863281 11.21875 -14.722656 11.21875 -13.234375 L 11.21875 -7.15625 L 12.234375 0 Z M 7.859375 0 "/></g></g><g style="fill:#112c59;fill-opacity:1;"><g transform="translate(216.513494, 100.542132)"><path style="stroke:none" d="M 1.953125 -14.5 L 1.5625 -18.25 L 6.171875 -18.25 L 6.546875 -14.5 L 6.546875 0 L 1.953125 0 Z M 1.953125 -14.5 "/></g></g><g style="fill:#112c59;fill-opacity:1;"><g transform="translate(224.785704, 100.542132)"><path style="stroke:none" d="M 19.265625 -9.109375 C 19.265625 -6.148438 18.578125 -3.820312 17.203125 -2.125 C 15.828125 -0.425781 13.894531 0.421875 11.40625 0.421875 C 10.507812 0.421875 9.53125 0.289062 8.46875 0.03125 L 8.890625 -3.421875 C 9.671875 -3.242188 10.328125 -3.15625 10.859375 -3.15625 C 12.304688 -3.15625 13.335938 -3.640625 13.953125 -4.609375 C 14.578125 -5.585938 14.890625 -7.023438 14.890625 -8.921875 C 14.890625 -11.023438 14.59375 -12.550781 14 -13.5 C 13.414062 -14.445312 12.519531 -14.921875 11.3125 -14.921875 C 10.457031 -14.921875 9.738281 -14.664062 9.15625 -14.15625 C 8.570312 -13.644531 8.203125 -12.953125 8.046875 -12.078125 L 6.078125 0 L 1.46875 0 L 3.671875 -12.296875 L 1.125 -18.25 L 5.90625 -18.25 L 7.1875 -14.609375 C 7.632812 -15.921875 8.304688 -16.898438 9.203125 -17.546875 C 10.097656 -18.203125 11.117188 -18.53125 12.265625 -18.53125 C 14.546875 -18.53125 16.28125 -17.742188 17.46875 -16.171875 C 18.664062 -14.609375 19.265625 -12.253906 19.265625 -9.109375 Z M 19.265625 -9.109375 "/></g></g></g></svg>