<svg xmlns="http://www.w3.org/2000/svg" xmlns:xlink="http://www.w3.org/1999/xlink" width="375" zoomAndPan="magnify" viewBox="0 0 281.25 147.000002" height="196" preserveAspectRatio="xMidYMid meet" version="1.2"><defs><clipPath id="f26694b1b9"><path d="M 0.578125 0 L 279.234375 0 L 279.234375 145.882812 L 0.578125 145.882812 Z M 0.578125 0 "/></clipPath><clipPath id="6e74e1b159"><path d="M 34.84375 0 L 244.933594 0 C 263.859375 0 279.203125 15.34375 279.203125 34.265625 L 279.203125 111.613281 C 279.203125 130.539062 263.859375 145.882812 244.933594 145.882812 L 34.84375 145.882812 C 15.917969 145.882812 0.578125 130.539062 0.578125 111.613281 L 0.578125 34.265625 C 0.578125 15.34375 15.917969 0 34.84375 0 Z M 34.84375 0 "/></clipPath><clipPath id="e574bd51d8"><path d="M 0.578125 0 L 279.234375 0 L 279.234375 145.882812 L 0.578125 145.882812 Z M 0.578125 0 "/></clipPath><clipPath id="066e0a71b4"><path d="M 34.84375 0 L 244.933594 0 C 263.859375 0 279.203125 15.34375 279.203125 34.265625 L 279.203125 111.613281 C 279.203125 130.539062 263.859375 145.882812 244.933594 145.882812 L 34.84375 145.882812 C 15.917969 145.882812 0.578125 130.539062 0.578125 111.613281 L 0.578125 34.265625 C 0.578125 15.34375 15.917969 0 34.84375 0 Z M 34.84375 0 "/></clipPath><clipPath id="c7c20753a3"><rect x="0" width="280" y="0" height="146"/></clipPath><clipPath id="f70e71e0d7"><rect x="0" width="127" y="0" height="93"/></clipPath></defs><g id="191cabd816"><g clip-rule="nonzero" clip-path="url(#f26694b1b9)"><g clip-rule="nonzero" clip-path="url(#6e74e1b159)"><g transform="matrix(1,0,0,1,0,0.000000000000009996)"><g clip-path="url(#c7c20753a3)"><g clip-rule="nonzero" clip-path="url(#e574bd51d8)"><g clip-rule="nonzero" clip-path="url(#066e0a71b4)"><path style=" stroke:none;fill-rule:nonzero;fill:#f7b7d2;fill-opacity:1;" d="M 0.578125 0 L 279.234375 0 L 279.234375 145.882812 L 0.578125 145.882812 Z M 0.578125 0 "/></g></g></g></g></g></g><g transform="matrix(1,0,0,1,74,24)"><g clip-path="url(#f70e71e0d7)"><g style="fill:#112c59;fill-opacity:1;"><g transform="translate(8.669403, 35.022741)"><path style="stroke:none" d="M 0.609375 -2.75 C 1.472656 -2.84375 2.117188 -3.007812 2.546875 -3.25 C 2.972656 -3.5 3.265625 -3.84375 3.421875 -4.28125 C 3.585938 -4.726562 3.65625 -5.359375 3.625 -6.171875 L 3.625 -19.375 L 13.921875 -19.375 C 15.722656 -19.375 17.144531 -18.859375 18.1875 -17.828125 C 19.226562 -16.804688 19.75 -15.195312 19.75 -13 L 19.75 0 L 14.859375 0 L 14.859375 -13.234375 C 14.859375 -14.890625 14.09375 -15.71875 12.5625 -15.71875 L 8.546875 -15.71875 L 8.546875 -6.828125 C 8.546875 -5.097656 8.28125 -3.722656 7.75 -2.703125 C 7.21875 -1.691406 6.414062 -0.929688 5.34375 -0.421875 C 4.269531 0.0859375 2.828125 0.421875 1.015625 0.578125 Z M 0.609375 -2.75 "/></g></g><g style="fill:#112c59;fill-opacity:1;"><g transform="translate(30.211641, 35.022741)"><path style="stroke:none" d="M 2.0625 -15.40625 L 1.65625 -19.375 L 6.546875 -19.375 L 6.953125 -15.40625 L 6.953125 0 L 2.0625 0 Z M 2.0625 -15.40625 "/></g></g><g style="fill:#112c59;fill-opacity:1;"><g transform="translate(38.99816, 35.022741)"><path style="stroke:none" d="M 8.3125 -3.625 C 9.851562 -3.757812 10.992188 -4.28125 11.734375 -5.1875 C 12.484375 -6.09375 12.9375 -7.632812 13.09375 -9.8125 L 13.546875 -15.71875 L 1.734375 -15.71875 L 1.734375 -19.375 L 18.796875 -19.375 L 18.625 -16.21875 L 18.265625 -11.09375 C 17.898438 -3.738281 14.707031 -0.03125 8.6875 0.03125 Z M 1.453125 -9.46875 L 2.140625 -11.8125 L 6.375 -11.8125 L 6.375 6.78125 L 1.453125 6.78125 Z M 1.453125 -9.46875 "/></g></g><g style="fill:#112c59;fill-opacity:1;"><g transform="translate(59.013781, 35.022741)"><path style="stroke:none" d="M 8.921875 -11.75 C 8.921875 -12.601562 9.003906 -13.375 9.171875 -14.0625 C 9.347656 -14.757812 9.582031 -15.3125 9.875 -15.71875 L 1.1875 -15.71875 L 1.1875 -19.375 L 17.109375 -19.375 L 17.109375 -15.71875 L 14.453125 -15.71875 C 14.023438 -14.738281 13.8125 -13.414062 13.8125 -11.75 L 13.8125 0 L 8.921875 0 Z M 8.921875 -11.75 "/></g></g><g style="fill:#112c59;fill-opacity:1;"><g transform="translate(77.401009, 35.022741)"><path style="stroke:none" d=""/></g></g><g style="fill:#112c59;fill-opacity:1;"><g transform="translate(84.193543, 35.022741)"><path style="stroke:none" d="M 1.359375 -3.765625 L 6.109375 -3.765625 L 6.109375 -16.796875 L 2.109375 -16.796875 L 2.109375 -19.6875 C 3.210938 -19.882812 4.171875 -20.128906 4.984375 -20.421875 C 5.796875 -20.722656 6.578125 -21.109375 7.328125 -21.578125 L 10.765625 -21.578125 L 10.765625 -3.765625 L 14.859375 -3.765625 L 14.859375 0 L 1.359375 0 Z M 1.359375 -3.765625 "/></g></g><g style="fill:#112c59;fill-opacity:1;"><g transform="translate(100.409585, 35.022741)"><path style="stroke:none" d="M 8.890625 0.40625 C 7.347656 0.40625 6.003906 -0.0234375 4.859375 -0.890625 C 3.722656 -1.765625 2.84375 -3.050781 2.21875 -4.75 C 1.601562 -6.445312 1.296875 -8.492188 1.296875 -10.890625 C 1.296875 -14.460938 1.972656 -17.203125 3.328125 -19.109375 C 4.679688 -21.023438 6.535156 -21.984375 8.890625 -21.984375 C 11.222656 -21.984375 13.066406 -21.023438 14.421875 -19.109375 C 15.773438 -17.203125 16.453125 -14.460938 16.453125 -10.890625 C 16.453125 -8.492188 16.140625 -6.445312 15.515625 -4.75 C 14.898438 -3.050781 14.023438 -1.765625 12.890625 -0.890625 C 11.765625 -0.0234375 10.429688 0.40625 8.890625 0.40625 Z M 8.890625 -3.1875 C 9.890625 -3.1875 10.671875 -3.769531 11.234375 -4.9375 C 11.796875 -6.101562 12.078125 -8.085938 12.078125 -10.890625 C 12.078125 -13.648438 11.796875 -15.585938 11.234375 -16.703125 C 10.671875 -17.828125 9.890625 -18.390625 8.890625 -18.390625 C 7.867188 -18.390625 7.082031 -17.832031 6.53125 -16.71875 C 5.976562 -15.613281 5.703125 -13.671875 5.703125 -10.890625 C 5.703125 -8.085938 5.984375 -6.101562 6.546875 -4.9375 C 7.109375 -3.769531 7.890625 -3.1875 8.890625 -3.1875 Z M 8.890625 -3.1875 "/></g></g><g style="fill:#112c59;fill-opacity:1;"><g transform="translate(0.769438, 82.090398)"><path style="stroke:none" d="M 3.46875 -18.46875 L 3.328125 -22.734375 L 7.96875 -22.734375 L 7.8125 -18.46875 L 7.15625 -7.671875 L 4.109375 -7.671875 Z M 5.640625 0.40625 C 4.816406 0.40625 4.132812 0.125 3.59375 -0.4375 C 3.050781 -1.007812 2.78125 -1.722656 2.78125 -2.578125 C 2.78125 -3.441406 3.050781 -4.15625 3.59375 -4.71875 C 4.132812 -5.28125 4.816406 -5.5625 5.640625 -5.5625 C 6.453125 -5.5625 7.128906 -5.28125 7.671875 -4.71875 C 8.210938 -4.15625 8.484375 -3.441406 8.484375 -2.578125 C 8.484375 -1.722656 8.210938 -1.007812 7.671875 -0.4375 C 7.128906 0.125 6.453125 0.40625 5.640625 0.40625 Z M 5.640625 0.40625 "/></g></g><g style="fill:#112c59;fill-opacity:1;"><g transform="translate(12.032469, 82.090398)"><path style="stroke:none" d="M 0.609375 -2.75 C 1.472656 -2.84375 2.117188 -3.007812 2.546875 -3.25 C 2.972656 -3.5 3.265625 -3.84375 3.421875 -4.28125 C 3.585938 -4.726562 3.65625 -5.359375 3.625 -6.171875 L 3.625 -19.375 L 13.921875 -19.375 C 15.722656 -19.375 17.144531 -18.859375 18.1875 -17.828125 C 19.226562 -16.804688 19.75 -15.195312 19.75 -13 L 19.75 0 L 14.859375 0 L 14.859375 -13.234375 C 14.859375 -14.890625 14.09375 -15.71875 12.5625 -15.71875 L 8.546875 -15.71875 L 8.546875 -6.828125 C 8.546875 -5.097656 8.28125 -3.722656 7.75 -2.703125 C 7.21875 -1.691406 6.414062 -0.929688 5.34375 -0.421875 C 4.269531 0.0859375 2.828125 0.421875 1.015625 0.578125 Z M 0.609375 -2.75 "/></g></g><g style="fill:#112c59;fill-opacity:1;"><g transform="translate(33.574707, 82.090398)"><path style="stroke:none" d="M 2.0625 -15.40625 L 1.65625 -19.375 L 6.546875 -19.375 L 6.953125 -15.40625 L 6.953125 0 L 2.0625 0 Z M 2.0625 -15.40625 "/></g></g><g style="fill:#112c59;fill-opacity:1;"><g transform="translate(42.361226, 82.090398)"><path style="stroke:none" d="M 12.59375 -19.375 C 14.40625 -19.375 15.835938 -18.832031 16.890625 -17.75 C 17.941406 -16.664062 18.46875 -15.023438 18.46875 -12.828125 L 18.46875 0 L 13.546875 0 L 13.546875 -13.0625 C 13.546875 -14.832031 12.785156 -15.71875 11.265625 -15.71875 L 6.71875 -15.71875 L 6.71875 0 L 1.828125 0 L 1.828125 -19.375 Z M 12.59375 -19.375 "/></g></g><g style="fill:#112c59;fill-opacity:1;"><g transform="translate(62.546469, 82.090398)"><path style="stroke:none" d="M 1.796875 -3.671875 L 8.65625 -3.671875 C 9.96875 -3.671875 10.988281 -4.09375 11.71875 -4.9375 C 12.457031 -5.78125 12.828125 -6.953125 12.828125 -8.453125 L 12.828125 -10.96875 C 12.828125 -12.382812 12.503906 -13.53125 11.859375 -14.40625 C 11.210938 -15.28125 10.269531 -15.71875 9.03125 -15.71875 L 6.578125 -15.71875 L 5.96875 -12.828125 C 5.90625 -12.535156 5.875 -12.253906 5.875 -11.984375 C 5.875 -11.410156 6.039062 -10.972656 6.375 -10.671875 C 6.71875 -10.367188 7.273438 -10.140625 8.046875 -9.984375 L 7.265625 -6.921875 C 5.242188 -6.960938 3.78125 -7.414062 2.875 -8.28125 C 1.976562 -9.144531 1.53125 -10.3125 1.53125 -11.78125 C 1.53125 -12.320312 1.570312 -12.816406 1.65625 -13.265625 L 3.015625 -19.375 L 10.1875 -19.375 C 12.53125 -19.375 14.367188 -18.59375 15.703125 -17.03125 C 17.046875 -15.46875 17.71875 -13.363281 17.71875 -10.71875 L 17.71875 -8.6875 C 17.71875 -5.96875 17.003906 -3.835938 15.578125 -2.296875 C 14.148438 -0.765625 12.226562 0 9.8125 0 L 1.796875 0 Z M 1.796875 -3.671875 "/></g></g><g style="fill:#112c59;fill-opacity:1;"><g transform="translate(81.442573, 82.090398)"><path style="stroke:none" d=""/></g></g><g style="fill:#112c59;fill-opacity:1;"><g transform="translate(88.227527, 82.090398)"><path style="stroke:none" d="M 14.765625 0 L 8.375 -9.875 L 5.359375 0 L 0.71875 0 L 4.484375 -11.640625 L 5.53125 -14.25 L 2.375 -19.375 L 7.296875 -19.375 L 10.015625 -14.96875 L 12.453125 -11.265625 L 13.375 -14.359375 L 14.734375 -19.375 L 19.375 -19.375 L 15.3125 -7.03125 L 19.984375 0 Z M 14.765625 0 "/></g></g><g style="fill:#112c59;fill-opacity:1;"><g transform="translate(109.159113, 82.090398)"><path style="stroke:none" d="M 15.8125 -19.375 L 15.8125 -15.34375 L 9.703125 0 L 4.8125 0 L 10.890625 -15.71875 L 1.046875 -15.71875 L 1.046875 -24.328125 L 5.46875 -24.328125 L 5.46875 -19.375 Z M 15.8125 -19.375 "/></g></g></g></g></g></svg>