<svg xmlns="http://www.w3.org/2000/svg" xmlns:xlink="http://www.w3.org/1999/xlink" width="370" zoomAndPan="magnify" viewBox="0 0 277.5 311.999988" height="416" preserveAspectRatio="xMidYMid meet" version="1.0"><defs><g/><clipPath id="fec574d006"><path d="M 58 73 L 225.996094 73 L 225.996094 159 L 58 159 Z M 58 73 " clip-rule="nonzero"/></clipPath></defs><path fill="#b6eaff" d="M 104.5 172.382812 C 101.492188 183.605469 108.152344 195.140625 119.375 198.148438 C 130.597656 201.15625 142.132812 194.496094 145.136719 183.273438 C 148.144531 172.050781 141.484375 160.515625 130.261719 157.507812 C 119.042969 154.503906 107.507812 161.164062 104.5 172.382812 " fill-opacity="1" fill-rule="nonzero"/><path fill="#062654" d="M 113.546875 174.644531 C 113.003906 174.222656 112.367188 173.917969 112.019531 173.289062 C 111.300781 171.984375 111.96875 170.496094 112.804688 169.4375 C 113.601562 168.425781 114.640625 167.191406 116.070312 167.382812 C 117.355469 167.558594 118.34375 168.714844 118.847656 169.832031 C 118.867188 169.878906 118.871094 169.925781 118.863281 169.96875 C 119.273438 170.558594 119.535156 171.230469 119.683594 171.9375 C 121.222656 174.605469 120.722656 173.699219 125.578125 175 C 130.429688 176.300781 129.542969 176.835938 132.210938 175.292969 L 132.210938 175.296875 L 132.210938 175.292969 C 132.691406 174.757812 133.253906 174.304688 133.90625 173.996094 L 133.988281 173.890625 C 134.984375 173.171875 136.417969 172.667969 137.617188 173.15625 C 138.953125 173.703125 139.234375 175.292969 139.417969 176.566406 C 139.609375 177.90625 139.449219 179.523438 138.171875 180.296875 C 137.558594 180.664062 136.855469 180.613281 136.171875 180.707031 C 135.585938 180.785156 134.777344 181.175781 135.089844 181.890625 C 135.332031 182.445312 135.820312 182.832031 135.988281 183.433594 C 136.164062 184.046875 136.0625 184.703125 135.828125 185.285156 C 135.585938 185.875 135.222656 186.410156 134.789062 186.878906 C 134.355469 187.34375 133.8125 187.792969 133.183594 187.949219 C 131.710938 188.3125 130.609375 186.839844 130.039062 185.6875 C 129.628906 184.859375 129.394531 183.949219 129.347656 183.03125 L 129.34375 183.035156 C 129.34375 183.035156 129.007812 181.042969 127.359375 180.601562 C 125.886719 180.207031 124.296875 179.78125 124.296875 179.78125 C 124.296875 179.78125 122.703125 179.355469 121.234375 178.957031 C 119.585938 178.515625 118.296875 180.074219 118.296875 180.074219 L 118.292969 180.070312 C 117.792969 180.84375 117.136719 181.511719 116.367188 182.023438 C 115.296875 182.738281 113.609375 183.460938 112.515625 182.410156 C 112.046875 181.960938 111.804688 181.300781 111.660156 180.683594 C 111.515625 180.058594 111.46875 179.414062 111.558594 178.78125 C 111.644531 178.160156 111.882812 177.542969 112.339844 177.097656 C 112.789062 176.660156 113.40625 176.570312 113.894531 176.210938 C 114.519531 175.746094 114.015625 175.003906 113.546875 174.644531 " fill-opacity="1" fill-rule="nonzero"/><g clip-path="url(#fec574d006)"><path fill="#b6eaff" d="M 131.59375 152.550781 C 73.507812 136.984375 59.203125 106.46875 59.203125 106.46875 C 59.203125 106.46875 56.800781 99.945312 60.621094 89.554688 C 62.894531 83.378906 66.445312 77.90625 68.949219 74.488281 C 70.179688 72.8125 72.703125 72.933594 73.792969 74.703125 C 82.003906 88.007812 110.582031 110.898438 140.597656 118.941406 C 170.613281 126.984375 206.808594 121.449219 220.570312 114.03125 C 222.398438 113.046875 224.644531 114.199219 224.871094 116.269531 C 225.332031 120.480469 225.671875 126.992188 224.550781 133.480469 C 222.664062 144.390625 217.324219 148.835938 217.324219 148.835938 C 217.324219 148.835938 189.675781 168.113281 131.59375 152.550781 " fill-opacity="1" fill-rule="nonzero"/></g><path fill="#062654" d="M 124.019531 166.425781 L 131.210938 168.355469 C 132.203125 168.621094 133.222656 168.03125 133.492188 167.039062 L 140.441406 141.09375 C 140.707031 140.101562 140.121094 139.082031 139.125 138.8125 L 131.9375 136.886719 C 130.941406 136.621094 129.921875 137.210938 129.65625 138.203125 L 122.703125 164.148438 C 122.4375 165.140625 123.027344 166.160156 124.019531 166.425781 " fill-opacity="1" fill-rule="nonzero"/><g fill="#000000" fill-opacity="1"><g transform="translate(25.074394, 242.470441)"><g><path d="M 7.28125 -9.203125 C 7.28125 -10.515625 7.515625 -11.503906 7.984375 -12.171875 L 1.140625 -12.171875 L 1.140625 -14.25 L 12.4375 -14.25 L 12.4375 -12.171875 L 10.546875 -12.171875 C 10.171875 -11.453125 9.984375 -10.460938 9.984375 -9.203125 L 9.984375 0 L 7.28125 0 Z M 7.28125 -9.203125 "/></g></g></g><g fill="#000000" fill-opacity="1"><g transform="translate(38.73747, 242.470441)"><g><path d="M 1.78125 -11.28125 L 1.46875 -14.25 L 4.15625 -14.25 L 4.484375 -11.28125 L 4.484375 0 L 1.78125 0 Z M 1.78125 -11.28125 "/></g></g></g><g fill="#000000" fill-opacity="1"><g transform="translate(44.821219, 242.470441)"><g><path d="M 14.59375 -7.171875 C 14.59375 -4.804688 14.066406 -2.96875 13.015625 -1.65625 C 11.972656 -0.351562 10.488281 0.296875 8.5625 0.296875 C 7.851562 0.296875 7.128906 0.210938 6.390625 0.046875 L 6.671875 -2.03125 C 7.304688 -1.894531 7.851562 -1.828125 8.3125 -1.828125 C 9.59375 -1.828125 10.53125 -2.273438 11.125 -3.171875 C 11.71875 -4.066406 12.015625 -5.375 12.015625 -7.09375 C 12.015625 -8.9375 11.726562 -10.257812 11.15625 -11.0625 C 10.59375 -11.863281 9.789062 -12.265625 8.75 -12.265625 C 7.9375 -12.265625 7.269531 -12.03125 6.75 -11.5625 C 6.238281 -11.101562 5.898438 -10.484375 5.734375 -9.703125 L 4.03125 0 L 1.3125 0 L 3.140625 -9.8125 L 1.171875 -14.25 L 3.984375 -14.25 L 5.125 -11.25 C 5.476562 -12.3125 6.015625 -13.109375 6.734375 -13.640625 C 7.460938 -14.179688 8.289062 -14.453125 9.21875 -14.453125 C 10.914062 -14.453125 12.234375 -13.863281 13.171875 -12.6875 C 14.117188 -11.507812 14.59375 -9.671875 14.59375 -7.171875 Z M 14.59375 -7.171875 "/></g></g></g><g fill="#000000" fill-opacity="1"><g transform="translate(60.562917, 242.470441)"><g><path d="M 12.75 -14.25 C 12.75 -10.832031 12.617188 -8.265625 12.359375 -6.546875 C 12.097656 -4.835938 11.460938 -3.445312 10.453125 -2.375 C 9.453125 -1.300781 7.832031 -0.539062 5.59375 -0.09375 L 0.84375 0.84375 L 0.453125 -1.296875 L 4.734375 -2.125 L 1.625 -14.25 L 4.328125 -14.25 L 7.171875 -2.765625 C 8.085938 -3.171875 8.742188 -3.773438 9.140625 -4.578125 C 9.546875 -5.390625 9.800781 -6.414062 9.90625 -7.65625 C 10.007812 -8.90625 10.0625 -10.769531 10.0625 -13.25 L 10.0625 -14.25 Z M 12.75 -14.25 "/></g></g></g><g fill="#000000" fill-opacity="1"><g transform="translate(74.53019, 242.470441)"><g><path d="M 1.78125 -11.28125 L 1.46875 -14.25 L 4.15625 -14.25 L 4.484375 -11.28125 L 4.484375 -7.421875 L 4.453125 -5.828125 L 1.78125 -5.328125 Z M 1.78125 -11.28125 "/></g></g></g><g fill="#000000" fill-opacity="1"><g transform="translate(80.613939, 242.470441)"><g/></g></g><g fill="#000000" fill-opacity="1"><g transform="translate(85.683726, 242.470441)"><g><path d="M 12.640625 -2.078125 L 12.640625 0 L 1.140625 0 L 1.140625 -2.078125 L 8.1875 -2.078125 L 8.1875 -9.625 C 8.1875 -10.519531 7.988281 -11.164062 7.59375 -11.5625 C 7.207031 -11.96875 6.644531 -12.171875 5.90625 -12.171875 L 1.140625 -12.171875 L 1.140625 -14.25 L 6.59375 -14.25 C 7.9375 -14.25 8.988281 -13.867188 9.75 -13.109375 C 10.507812 -12.347656 10.890625 -11.144531 10.890625 -9.5 L 10.890625 -2.078125 Z M 12.640625 -2.078125 "/></g></g></g><g fill="#000000" fill-opacity="1"><g transform="translate(99.220058, 242.470441)"><g><path d="M 11.296875 -14.25 L 11.296875 -11.984375 L 6.5625 0 L 3.859375 0 L 8.59375 -12.171875 L 0.96875 -12.171875 L 0.96875 -18.171875 L 3.421875 -18.171875 L 3.421875 -14.25 Z M 11.296875 -14.25 "/></g></g></g><g fill="#000000" fill-opacity="1"><g transform="translate(111.539649, 242.470441)"><g><path d="M 0.96875 -2.078125 L 4.609375 -2.078125 C 5.804688 -2.078125 6.703125 -2.4375 7.296875 -3.15625 C 7.890625 -3.882812 8.1875 -4.921875 8.1875 -6.265625 L 8.1875 -7.984375 C 8.1875 -9.316406 7.890625 -10.347656 7.296875 -11.078125 C 6.703125 -11.804688 5.804688 -12.171875 4.609375 -12.171875 L 0.96875 -12.171875 L 0.96875 -14.25 L 5.265625 -14.25 C 7.078125 -14.25 8.46875 -13.6875 9.4375 -12.5625 C 10.40625 -11.445312 10.890625 -9.878906 10.890625 -7.859375 L 10.890625 -6.390625 C 10.890625 -4.359375 10.40625 -2.785156 9.4375 -1.671875 C 8.46875 -0.554688 7.078125 0 5.265625 0 L 0.96875 0 Z M 0.96875 -2.078125 "/></g></g></g><g fill="#000000" fill-opacity="1"><g transform="translate(123.656439, 242.470441)"><g><path d="M 9.984375 -9.625 C 9.984375 -10.519531 9.785156 -11.164062 9.390625 -11.5625 C 9.003906 -11.96875 8.441406 -12.171875 7.703125 -12.171875 L 1.46875 -12.171875 L 1.46875 -14.25 L 8.390625 -14.25 C 9.742188 -14.25 10.800781 -13.867188 11.5625 -13.109375 C 12.320312 -12.347656 12.703125 -11.144531 12.703125 -9.5 L 12.703125 0 L 9.984375 0 Z M 1.390625 -6.890625 L 1.78125 -8.59375 L 4.109375 -8.59375 L 4.109375 0 L 1.390625 0 Z M 1.390625 -6.890625 "/></g></g></g><g fill="#000000" fill-opacity="1"><g transform="translate(137.801153, 242.470441)"><g><path d="M 15.3125 -10.34375 C 15.34375 -6.78125 14.34375 -4.113281 12.3125 -2.34375 C 10.289062 -0.582031 7.179688 0.28125 2.984375 0.25 L 1.140625 -14.25 L 3.71875 -14.25 L 4.53125 -7.5 C 5.46875 -7.957031 6.101562 -8.554688 6.4375 -9.296875 C 6.769531 -10.046875 6.957031 -11.160156 7 -12.640625 L 7 -14.21875 L 9.578125 -14.21875 L 9.546875 -12.703125 C 9.515625 -10.835938 9.144531 -9.34375 8.4375 -8.21875 C 7.726562 -7.09375 6.515625 -6.1875 4.796875 -5.5 L 5.203125 -2.046875 C 7.742188 -2.222656 9.617188 -2.984375 10.828125 -4.328125 C 12.035156 -5.679688 12.632812 -7.644531 12.625 -10.21875 L 12.578125 -14.25 L 15.28125 -14.25 Z M 15.3125 -10.34375 "/></g></g></g><g fill="#000000" fill-opacity="1"><g transform="translate(154.328661, 242.470441)"><g/></g></g><g fill="#000000" fill-opacity="1"><g transform="translate(159.398449, 242.470441)"><g><path d="M 6.328125 0 L 5.78125 -3.125 C 5.300781 -2.269531 4.710938 -1.550781 4.015625 -0.96875 C 3.328125 -0.382812 2.503906 0.0703125 1.546875 0.40625 L 0.5625 -1.75 C 1.726562 -2.15625 2.703125 -2.664062 3.484375 -3.28125 C 4.265625 -3.894531 4.882812 -4.664062 5.34375 -5.59375 L 5.34375 -10.03125 C 5.34375 -10.78125 5.242188 -11.316406 5.046875 -11.640625 C 4.859375 -11.972656 4.492188 -12.179688 3.953125 -12.265625 L 2.359375 -12.5 L 2.71875 -14.546875 L 5.21875 -14.1875 C 6.21875 -14.039062 6.941406 -13.65625 7.390625 -13.03125 C 7.835938 -12.40625 8.0625 -11.5 8.0625 -10.3125 L 8.0625 -5.453125 L 8.921875 0 Z M 6.328125 0 "/></g></g></g><g fill="#000000" fill-opacity="1"><g transform="translate(169.41128, 242.470441)"><g><path d="M 1.78125 -11.28125 L 1.46875 -14.25 L 4.15625 -14.25 L 4.484375 -11.28125 L 4.484375 0 L 1.78125 0 Z M 1.78125 -11.28125 "/></g></g></g><g fill="#000000" fill-opacity="1"><g transform="translate(175.495029, 242.470441)"><g><path d="M 11.125 0 L 5.796875 -8.078125 L 3.296875 0 L 0.703125 0 L 3.5 -8.71875 L 4.203125 -10.515625 L 1.875 -14.25 L 4.640625 -14.25 L 6.765625 -10.828125 L 8.890625 -7.625 L 9.53125 -9.828125 L 10.828125 -14.25 L 13.4375 -14.25 L 10.5 -5.265625 L 14.015625 0 Z M 11.125 0 "/></g></g></g><g fill="#000000" fill-opacity="1"><g transform="translate(190.349508, 242.470441)"><g><path d="M 7.28125 -9.203125 C 7.28125 -10.515625 7.515625 -11.503906 7.984375 -12.171875 L 1.140625 -12.171875 L 1.140625 -14.25 L 12.4375 -14.25 L 12.4375 -12.171875 L 10.546875 -12.171875 C 10.171875 -11.453125 9.984375 -10.460938 9.984375 -9.203125 L 9.984375 0 L 7.28125 0 Z M 7.28125 -9.203125 "/></g></g></g><g fill="#000000" fill-opacity="1"><g transform="translate(204.012584, 242.470441)"><g><path d="M 11.296875 -14.25 L 11.296875 -11.984375 L 6.5625 0 L 3.859375 0 L 8.59375 -12.171875 L 0.96875 -12.171875 L 0.96875 -18.171875 L 3.421875 -18.171875 L 3.421875 -14.25 Z M 11.296875 -14.25 "/></g></g></g><g fill="#000000" fill-opacity="1"><g transform="translate(216.332175, 242.470441)"><g/></g></g><g fill="#000000" fill-opacity="1"><g transform="translate(221.401963, 242.470441)"><g><path d="M 15.3125 -10.34375 C 15.34375 -6.78125 14.34375 -4.113281 12.3125 -2.34375 C 10.289062 -0.582031 7.179688 0.28125 2.984375 0.25 L 1.140625 -14.25 L 3.71875 -14.25 L 4.53125 -7.5 C 5.46875 -7.957031 6.101562 -8.554688 6.4375 -9.296875 C 6.769531 -10.046875 6.957031 -11.160156 7 -12.640625 L 7 -14.21875 L 9.578125 -14.21875 L 9.546875 -12.703125 C 9.515625 -10.835938 9.144531 -9.34375 8.4375 -8.21875 C 7.726562 -7.09375 6.515625 -6.1875 4.796875 -5.5 L 5.203125 -2.046875 C 7.742188 -2.222656 9.617188 -2.984375 10.828125 -4.328125 C 12.035156 -5.679688 12.632812 -7.644531 12.625 -10.21875 L 12.578125 -14.25 L 15.28125 -14.25 Z M 15.3125 -10.34375 "/></g></g></g><g fill="#000000" fill-opacity="1"><g transform="translate(237.929471, 242.470441)"><g><path d="M 1.78125 -11.28125 L 1.46875 -14.25 L 4.15625 -14.25 L 4.484375 -11.28125 L 4.484375 -7.421875 L 4.453125 -5.828125 L 1.78125 -5.328125 Z M 1.78125 -11.28125 "/></g></g></g><g fill="#000000" fill-opacity="1"><g transform="translate(26.478115, 270.919181)"><g><path d="M 1.78125 -11.28125 L 1.46875 -14.25 L 4.15625 -14.25 L 4.484375 -11.28125 L 4.484375 5.0625 L 1.78125 5.0625 Z M 1.78125 -11.28125 "/></g></g></g><g fill="#000000" fill-opacity="1"><g transform="translate(32.561864, 270.919181)"><g><path d="M 1.78125 -11.28125 L 1.46875 -14.25 L 4.15625 -14.25 L 4.484375 -11.28125 L 4.484375 -7.421875 L 4.453125 -5.828125 L 1.78125 -5.328125 Z M 1.78125 -11.28125 "/></g></g></g><g fill="#000000" fill-opacity="1"><g transform="translate(38.645614, 270.919181)"><g><path d="M 1.78125 -11.28125 L 1.46875 -14.25 L 4.15625 -14.25 L 4.484375 -11.28125 L 4.484375 0 L 1.78125 0 Z M 1.78125 -11.28125 "/></g></g></g><g fill="#000000" fill-opacity="1"><g transform="translate(44.729363, 270.919181)"><g><path d="M 8.796875 -6.109375 L 12.34375 0 L 0.890625 0 L 0.890625 -2.078125 L 8.359375 -2.078125 L 1.296875 -14.25 L 4.0625 -14.25 L 7.328125 -8.609375 L 9.6875 -14.25 L 12.390625 -14.25 Z M 8.796875 -6.109375 "/></g></g></g><g fill="#000000" fill-opacity="1"><g transform="translate(58.316393, 270.919181)"><g><path d="M 1.78125 -11.28125 L 1.46875 -14.25 L 4.15625 -14.25 L 4.484375 -11.28125 L 4.484375 -7.421875 L 4.453125 -5.828125 L 1.78125 -5.328125 Z M 1.78125 -11.28125 "/></g></g></g><g fill="#000000" fill-opacity="1"><g transform="translate(64.400142, 270.919181)"><g/></g></g><g fill="#000000" fill-opacity="1"><g transform="translate(69.46993, 270.919181)"><g><path d="M 1.78125 -11.28125 L 1.46875 -14.25 L 4.15625 -14.25 L 4.484375 -11.28125 L 4.484375 0 L 1.78125 0 Z M 1.78125 -11.28125 "/></g></g></g><g fill="#000000" fill-opacity="1"><g transform="translate(75.553679, 270.919181)"><g><path d="M 12.640625 -2.078125 L 12.640625 0 L 1.140625 0 L 1.140625 -2.078125 L 8.1875 -2.078125 L 8.1875 -9.625 C 8.1875 -10.519531 7.988281 -11.164062 7.59375 -11.5625 C 7.207031 -11.96875 6.644531 -12.171875 5.90625 -12.171875 L 1.140625 -12.171875 L 1.140625 -14.25 L 6.59375 -14.25 C 7.9375 -14.25 8.988281 -13.867188 9.75 -13.109375 C 10.507812 -12.347656 10.890625 -11.144531 10.890625 -9.5 L 10.890625 -2.078125 Z M 12.640625 -2.078125 "/></g></g></g><g fill="#000000" fill-opacity="1"><g transform="translate(89.090011, 270.919181)"><g/></g></g><g fill="#000000" fill-opacity="1"><g transform="translate(94.159798, 270.919181)"><g><path d="M 0.5 -1.5 C 1.488281 -1.59375 2.148438 -1.851562 2.484375 -2.28125 C 2.816406 -2.707031 2.984375 -3.390625 2.984375 -4.328125 L 2.984375 -14.25 L 9.828125 -14.25 C 11.179688 -14.25 12.238281 -13.867188 13 -13.109375 C 13.757812 -12.347656 14.140625 -11.144531 14.140625 -9.5 L 14.140625 0 L 11.4375 0 L 11.4375 -9.625 C 11.4375 -10.519531 11.238281 -11.164062 10.84375 -11.5625 C 10.457031 -11.96875 9.894531 -12.171875 9.15625 -12.171875 L 5.703125 -12.171875 L 5.703125 -4.640625 C 5.703125 -2.960938 5.3125 -1.742188 4.53125 -0.984375 C 3.757812 -0.222656 2.503906 0.238281 0.765625 0.40625 Z M 0.5 -1.5 "/></g></g></g><g fill="#000000" fill-opacity="1"><g transform="translate(109.825449, 270.919181)"><g><path d="M 1.78125 -11.28125 L 1.46875 -14.25 L 4.15625 -14.25 L 4.484375 -11.28125 L 4.484375 -7.421875 L 4.453125 -5.828125 L 1.78125 -5.328125 Z M 1.78125 -11.28125 "/></g></g></g><g fill="#000000" fill-opacity="1"><g transform="translate(115.909199, 270.919181)"><g><path d="M 5.859375 -2.078125 C 6.679688 -2.160156 7.375 -2.359375 7.9375 -2.671875 C 8.507812 -2.984375 8.96875 -3.503906 9.3125 -4.234375 C 9.65625 -4.972656 9.867188 -5.988281 9.953125 -7.28125 L 10.34375 -12.171875 L 1.375 -12.171875 L 1.375 -14.25 L 13.25 -14.25 L 13.15625 -12.421875 L 12.796875 -7.90625 C 12.679688 -5.425781 12.066406 -3.5 10.953125 -2.125 C 9.835938 -0.757812 8.222656 -0.0390625 6.109375 0.03125 Z M 1.3125 -7.140625 L 1.703125 -8.875 L 4.03125 -8.875 L 4.03125 5.0625 L 1.3125 5.0625 Z M 1.3125 -7.140625 "/></g></g></g><g fill="#000000" fill-opacity="1"><g transform="translate(130.282051, 270.919181)"><g><path d="M 13.515625 -8.234375 C 13.609375 -5.316406 12.707031 -3.203125 10.8125 -1.890625 C 8.925781 -0.578125 6.273438 0.132812 2.859375 0.25 L 1.390625 -12.171875 L 1.140625 -14.25 L 8.4375 -14.25 C 10.007812 -14.25 11.226562 -13.78125 12.09375 -12.84375 C 12.96875 -11.914062 13.429688 -10.648438 13.484375 -9.046875 Z M 5.25 -2.203125 C 7.132812 -2.367188 8.550781 -2.910156 9.5 -3.828125 C 10.445312 -4.753906 10.890625 -6.238281 10.828125 -8.28125 L 10.828125 -8.96875 C 10.828125 -9.914062 10.597656 -10.6875 10.140625 -11.28125 C 9.679688 -11.875 9.046875 -12.171875 8.234375 -12.171875 L 4.109375 -12.171875 Z M 5.25 -2.203125 "/></g></g></g><g fill="#000000" fill-opacity="1"><g transform="translate(145.060485, 270.919181)"><g><path d="M 7.28125 -9.203125 C 7.28125 -10.515625 7.515625 -11.503906 7.984375 -12.171875 L 1.140625 -12.171875 L 1.140625 -14.25 L 12.4375 -14.25 L 12.4375 -12.171875 L 10.546875 -12.171875 C 10.171875 -11.453125 9.984375 -10.460938 9.984375 -9.203125 L 9.984375 0 L 7.28125 0 Z M 7.28125 -9.203125 "/></g></g></g><g fill="#000000" fill-opacity="1"><g transform="translate(158.72356, 270.919181)"><g/></g></g><g fill="#000000" fill-opacity="1"><g transform="translate(163.793347, 270.919181)"><g><path d="M 9 -14.25 C 10.351562 -14.25 11.410156 -13.867188 12.171875 -13.109375 C 12.929688 -12.347656 13.3125 -11.144531 13.3125 -9.5 L 13.3125 0 L 1.640625 0 L 1.640625 -14.25 Z M 10.59375 -2.078125 L 10.59375 -9.625 C 10.59375 -10.519531 10.394531 -11.164062 10 -11.5625 C 9.613281 -11.96875 9.050781 -12.171875 8.3125 -12.171875 L 4.359375 -12.171875 L 4.359375 -2.078125 Z M 10.59375 -2.078125 "/></g></g></g><g fill="#000000" fill-opacity="1"><g transform="translate(178.622478, 270.919181)"><g><path d="M 12.75 -14.25 C 12.75 -10.832031 12.617188 -8.265625 12.359375 -6.546875 C 12.097656 -4.835938 11.460938 -3.445312 10.453125 -2.375 C 9.453125 -1.300781 7.832031 -0.539062 5.59375 -0.09375 L 0.84375 0.84375 L 0.453125 -1.296875 L 4.734375 -2.125 L 1.625 -14.25 L 4.328125 -14.25 L 7.171875 -2.765625 C 8.085938 -3.171875 8.742188 -3.773438 9.140625 -4.578125 C 9.546875 -5.390625 9.800781 -6.414062 9.90625 -7.65625 C 10.007812 -8.90625 10.0625 -10.769531 10.0625 -13.25 L 10.0625 -14.25 Z M 12.75 -14.25 "/></g></g></g><g fill="#000000" fill-opacity="1"><g transform="translate(192.58975, 270.919181)"><g/></g></g><g fill="#000000" fill-opacity="1"><g transform="translate(197.659538, 270.919181)"><g><path d="M 7.859375 -9.625 C 7.859375 -10.519531 7.660156 -11.164062 7.265625 -11.5625 C 6.878906 -11.96875 6.316406 -12.171875 5.578125 -12.171875 L 0.890625 -12.171875 L 0.890625 -14.25 L 6.265625 -14.25 C 7.609375 -14.25 8.660156 -13.867188 9.421875 -13.109375 C 10.179688 -12.347656 10.5625 -11.144531 10.5625 -9.5 L 10.5625 0 L 7.859375 0 Z M 7.859375 -9.625 "/></g></g></g><g fill="#000000" fill-opacity="1"><g transform="translate(209.827036, 270.919181)"><g><path d="M 11.296875 -14.25 L 11.296875 -11.984375 L 6.5625 0 L 3.859375 0 L 8.59375 -12.171875 L 0.96875 -12.171875 L 0.96875 -18.171875 L 3.421875 -18.171875 L 3.421875 -14.25 Z M 11.296875 -14.25 "/></g></g></g><g fill="#000000" fill-opacity="1"><g transform="translate(222.146639, 270.919181)"><g><path d="M 1.78125 -11.28125 L 1.46875 -14.25 L 4.15625 -14.25 L 4.484375 -11.28125 L 4.484375 0 L 1.78125 0 Z M 1.78125 -11.28125 "/></g></g></g><g fill="#000000" fill-opacity="1"><g transform="translate(228.230388, 270.919181)"><g><path d="M 5.859375 -2.078125 C 6.679688 -2.160156 7.375 -2.359375 7.9375 -2.671875 C 8.507812 -2.984375 8.96875 -3.503906 9.3125 -4.234375 C 9.65625 -4.972656 9.867188 -5.988281 9.953125 -7.28125 L 10.34375 -12.171875 L 1.375 -12.171875 L 1.375 -14.25 L 13.25 -14.25 L 13.15625 -12.421875 L 12.796875 -7.90625 C 12.679688 -5.425781 12.066406 -3.5 10.953125 -2.125 C 9.835938 -0.757812 8.222656 -0.0390625 6.109375 0.03125 Z M 1.3125 -7.140625 L 1.703125 -8.875 L 4.03125 -8.875 L 4.03125 5.0625 L 1.3125 5.0625 Z M 1.3125 -7.140625 "/></g></g></g><g fill="#000000" fill-opacity="1"><g transform="translate(14.768745, 299.367921)"><g><path d="M 3.34375 0.296875 C 2.851562 0.296875 2.441406 0.128906 2.109375 -0.203125 C 1.785156 -0.535156 1.625 -0.96875 1.625 -1.5 C 1.625 -2.019531 1.785156 -2.453125 2.109375 -2.796875 C 2.441406 -3.140625 2.851562 -3.3125 3.34375 -3.3125 C 3.832031 -3.3125 4.238281 -3.140625 4.5625 -2.796875 C 4.894531 -2.453125 5.0625 -2.019531 5.0625 -1.5 C 5.0625 -0.96875 4.894531 -0.535156 4.5625 -0.203125 C 4.238281 0.128906 3.832031 0.296875 3.34375 0.296875 Z M 3.34375 0.296875 "/></g></g></g><g fill="#000000" fill-opacity="1"><g transform="translate(21.460865, 299.367921)"><g><path d="M 9 -14.25 C 10.351562 -14.25 11.410156 -13.867188 12.171875 -13.109375 C 12.929688 -12.347656 13.3125 -11.144531 13.3125 -9.5 L 13.3125 0 L 1.640625 0 L 1.640625 -14.25 Z M 10.59375 -2.078125 L 10.59375 -9.625 C 10.59375 -10.519531 10.394531 -11.164062 10 -11.5625 C 9.613281 -11.96875 9.050781 -12.171875 8.3125 -12.171875 L 4.359375 -12.171875 L 4.359375 -2.078125 Z M 10.59375 -2.078125 "/></g></g></g><g fill="#000000" fill-opacity="1"><g transform="translate(36.289995, 299.367921)"><g><path d="M 1.78125 -11.28125 L 1.46875 -14.25 L 4.15625 -14.25 L 4.484375 -11.28125 L 4.484375 -7.421875 L 4.453125 -5.828125 L 1.78125 -5.328125 Z M 1.78125 -11.28125 "/></g></g></g><g fill="#000000" fill-opacity="1"><g transform="translate(42.373744, 299.367921)"><g><path d="M 7.859375 -9.625 C 7.859375 -10.519531 7.660156 -11.164062 7.265625 -11.5625 C 6.878906 -11.96875 6.316406 -12.171875 5.578125 -12.171875 L 0.890625 -12.171875 L 0.890625 -14.25 L 6.265625 -14.25 C 7.609375 -14.25 8.660156 -13.867188 9.421875 -13.109375 C 10.179688 -12.347656 10.5625 -11.144531 10.5625 -9.5 L 10.5625 0 L 7.859375 0 Z M 7.859375 -9.625 "/></g></g></g><g fill="#000000" fill-opacity="1"><g transform="translate(54.541243, 299.367921)"><g><path d="M 1.78125 -11.28125 L 1.46875 -14.25 L 4.15625 -14.25 L 4.484375 -11.28125 L 4.484375 0 L 1.78125 0 Z M 1.78125 -11.28125 "/></g></g></g><g fill="#000000" fill-opacity="1"><g transform="translate(60.624992, 299.367921)"><g><path d="M 1.78125 -11.28125 L 1.46875 -14.25 L 4.15625 -14.25 L 4.484375 -11.28125 L 4.484375 0 L 1.78125 0 Z M 1.78125 -11.28125 "/></g></g></g><g fill="#000000" fill-opacity="1"><g transform="translate(66.708741, 299.367921)"><g><path d="M 1.78125 -11.28125 L 1.46875 -14.25 L 4.15625 -14.25 L 4.484375 -11.28125 L 4.484375 -7.421875 L 4.453125 -5.828125 L 1.78125 -5.328125 Z M 1.78125 -11.28125 "/></g></g></g><g fill="#000000" fill-opacity="1"><g transform="translate(72.792491, 299.367921)"><g><path d="M 12.75 -14.25 C 12.75 -10.832031 12.617188 -8.265625 12.359375 -6.546875 C 12.097656 -4.835938 11.460938 -3.445312 10.453125 -2.375 C 9.453125 -1.300781 7.832031 -0.539062 5.59375 -0.09375 L 0.84375 0.84375 L 0.453125 -1.296875 L 4.734375 -2.125 L 1.625 -14.25 L 4.328125 -14.25 L 7.171875 -2.765625 C 8.085938 -3.171875 8.742188 -3.773438 9.140625 -4.578125 C 9.546875 -5.390625 9.800781 -6.414062 9.90625 -7.65625 C 10.007812 -8.90625 10.0625 -10.769531 10.0625 -13.25 L 10.0625 -14.25 Z M 12.75 -14.25 "/></g></g></g><g fill="#000000" fill-opacity="1"><g transform="translate(86.759763, 299.367921)"><g><path d="M 11.296875 -14.25 L 11.296875 -11.984375 L 6.5625 0 L 3.859375 0 L 8.59375 -12.171875 L 0.96875 -12.171875 L 0.96875 -18.171875 L 3.421875 -18.171875 L 3.421875 -14.25 Z M 11.296875 -14.25 "/></g></g></g><g fill="#000000" fill-opacity="1"><g transform="translate(99.079355, 299.367921)"><g/></g></g><g fill="#000000" fill-opacity="1"><g transform="translate(104.149142, 299.367921)"><g><path d="M 9.984375 -9.625 C 9.984375 -10.519531 9.785156 -11.164062 9.390625 -11.5625 C 9.003906 -11.96875 8.441406 -12.171875 7.703125 -12.171875 L 1.46875 -12.171875 L 1.46875 -14.25 L 8.390625 -14.25 C 9.742188 -14.25 10.800781 -13.867188 11.5625 -13.109375 C 12.320312 -12.347656 12.703125 -11.144531 12.703125 -9.5 L 12.703125 0 L 9.984375 0 Z M 1.390625 -6.890625 L 1.78125 -8.59375 L 4.109375 -8.59375 L 4.109375 0 L 1.390625 0 Z M 1.390625 -6.890625 "/></g></g></g><g fill="#000000" fill-opacity="1"><g transform="translate(118.293855, 299.367921)"><g><path d="M 1.78125 -11.28125 L 1.46875 -14.25 L 4.15625 -14.25 L 4.484375 -11.28125 L 4.484375 -7.421875 L 4.453125 -5.828125 L 1.78125 -5.328125 Z M 1.78125 -11.28125 "/></g></g></g><g fill="#000000" fill-opacity="1"><g transform="translate(124.377605, 299.367921)"><g><path d="M 1.78125 -11.28125 L 1.46875 -14.25 L 4.15625 -14.25 L 4.484375 -11.28125 L 4.484375 -7.421875 L 4.453125 -5.828125 L 1.78125 -5.328125 Z M 1.78125 -11.28125 "/></g></g></g><g fill="#000000" fill-opacity="1"><g transform="translate(130.461354, 299.367921)"><g><path d="M 8.796875 -14.25 C 10.160156 -14.25 11.21875 -13.832031 11.96875 -13 C 12.726562 -12.175781 13.109375 -10.925781 13.109375 -9.25 L 13.109375 0 L 10.390625 0 L 10.390625 -9.375 C 10.390625 -11.238281 9.628906 -12.171875 8.109375 -12.171875 L 4.203125 -12.171875 L 4.203125 0 L 1.5 0 L 1.5 -14.25 Z M 8.796875 -14.25 "/></g></g></g><g fill="#000000" fill-opacity="1"><g transform="translate(145.113044, 299.367921)"><g><path d="M 1.109375 -2.078125 L 5.21875 -2.078125 L 5.21875 -10.03125 C 5.21875 -10.757812 5.070312 -11.285156 4.78125 -11.609375 C 4.5 -11.941406 4.070312 -12.148438 3.5 -12.234375 L 1.78125 -12.5 L 2.125 -14.546875 L 4.765625 -14.171875 C 5.773438 -14.015625 6.554688 -13.582031 7.109375 -12.875 C 7.660156 -12.175781 7.9375 -11.25 7.9375 -10.09375 L 7.9375 0 L 1.109375 0 Z M 1.109375 -2.078125 "/></g></g></g><g fill="#000000" fill-opacity="1"><g transform="translate(154.59355, 299.367921)"><g/></g></g><g fill="#000000" fill-opacity="1"><g transform="translate(159.663338, 299.367921)"><g><path d="M 12.640625 -2.078125 L 12.640625 0 L 1.140625 0 L 1.140625 -2.078125 L 8.1875 -2.078125 L 8.1875 -9.625 C 8.1875 -10.519531 7.988281 -11.164062 7.59375 -11.5625 C 7.207031 -11.96875 6.644531 -12.171875 5.90625 -12.171875 L 1.140625 -12.171875 L 1.140625 -14.25 L 6.59375 -14.25 C 7.9375 -14.25 8.988281 -13.867188 9.75 -13.109375 C 10.507812 -12.347656 10.890625 -11.144531 10.890625 -9.5 L 10.890625 -2.078125 Z M 12.640625 -2.078125 "/></g></g></g><g fill="#000000" fill-opacity="1"><g transform="translate(173.199669, 299.367921)"><g><path d="M 11.296875 -14.25 L 11.296875 -11.984375 L 6.5625 0 L 3.859375 0 L 8.59375 -12.171875 L 0.96875 -12.171875 L 0.96875 -18.171875 L 3.421875 -18.171875 L 3.421875 -14.25 Z M 11.296875 -14.25 "/></g></g></g><g fill="#000000" fill-opacity="1"><g transform="translate(185.519261, 299.367921)"><g><path d="M 0.96875 -2.078125 L 4.609375 -2.078125 C 5.804688 -2.078125 6.703125 -2.4375 7.296875 -3.15625 C 7.890625 -3.882812 8.1875 -4.921875 8.1875 -6.265625 L 8.1875 -7.984375 C 8.1875 -9.316406 7.890625 -10.347656 7.296875 -11.078125 C 6.703125 -11.804688 5.804688 -12.171875 4.609375 -12.171875 L 0.96875 -12.171875 L 0.96875 -14.25 L 5.265625 -14.25 C 7.078125 -14.25 8.46875 -13.6875 9.4375 -12.5625 C 10.40625 -11.445312 10.890625 -9.878906 10.890625 -7.859375 L 10.890625 -6.390625 C 10.890625 -4.359375 10.40625 -2.785156 9.4375 -1.671875 C 8.46875 -0.554688 7.078125 0 5.265625 0 L 0.96875 0 Z M 0.96875 -2.078125 "/></g></g></g><g fill="#000000" fill-opacity="1"><g transform="translate(197.63605, 299.367921)"><g/></g></g><g fill="#000000" fill-opacity="1"><g transform="translate(202.705838, 299.367921)"><g><path d="M 11.125 0 L 5.796875 -8.078125 L 3.296875 0 L 0.703125 0 L 3.5 -8.71875 L 4.203125 -10.515625 L 1.875 -14.25 L 4.640625 -14.25 L 6.765625 -10.828125 L 8.890625 -7.625 L 9.53125 -9.828125 L 10.828125 -14.25 L 13.4375 -14.25 L 10.5 -5.265625 L 14.015625 0 Z M 11.125 0 "/></g></g></g><g fill="#000000" fill-opacity="1"><g transform="translate(217.560329, 299.367921)"><g><path d="M 1.78125 -11.28125 L 1.46875 -14.25 L 4.15625 -14.25 L 4.484375 -11.28125 L 4.484375 0 L 1.78125 0 Z M 1.78125 -11.28125 "/></g></g></g><g fill="#000000" fill-opacity="1"><g transform="translate(223.644078, 299.367921)"><g><path d="M 9.984375 -9.625 C 9.984375 -10.519531 9.785156 -11.164062 9.390625 -11.5625 C 9.003906 -11.96875 8.441406 -12.171875 7.703125 -12.171875 L 1.46875 -12.171875 L 1.46875 -14.25 L 8.390625 -14.25 C 9.742188 -14.25 10.800781 -13.867188 11.5625 -13.109375 C 12.320312 -12.347656 12.703125 -11.144531 12.703125 -9.5 L 12.703125 0 L 9.984375 0 Z M 1.390625 -6.890625 L 1.78125 -8.59375 L 4.109375 -8.59375 L 4.109375 0 L 1.390625 0 Z M 1.390625 -6.890625 "/></g></g></g><g fill="#000000" fill-opacity="1"><g transform="translate(237.78878, 299.367921)"><g><path d="M 15.3125 -10.34375 C 15.34375 -6.78125 14.34375 -4.113281 12.3125 -2.34375 C 10.289062 -0.582031 7.179688 0.28125 2.984375 0.25 L 1.140625 -14.25 L 3.71875 -14.25 L 4.53125 -7.5 C 5.46875 -7.957031 6.101562 -8.554688 6.4375 -9.296875 C 6.769531 -10.046875 6.957031 -11.160156 7 -12.640625 L 7 -14.21875 L 9.578125 -14.21875 L 9.546875 -12.703125 C 9.515625 -10.835938 9.144531 -9.34375 8.4375 -8.21875 C 7.726562 -7.09375 6.515625 -6.1875 4.796875 -5.5 L 5.203125 -2.046875 C 7.742188 -2.222656 9.617188 -2.984375 10.828125 -4.328125 C 12.035156 -5.679688 12.632812 -7.644531 12.625 -10.21875 L 12.578125 -14.25 L 15.28125 -14.25 Z M 15.3125 -10.34375 "/></g></g></g></svg>