<svg xmlns="http://www.w3.org/2000/svg" xmlns:xlink="http://www.w3.org/1999/xlink" width="361" zoomAndPan="magnify" viewBox="0 0 270.75 362.250002" height="483" preserveAspectRatio="xMidYMid meet" version="1.0"><defs><g/><clipPath id="16e1bf44a1"><path d="M 65.261719 134 L 84 134 L 84 173 L 65.261719 173 Z M 65.261719 134 " clip-rule="nonzero"/></clipPath></defs><g fill="#000000" fill-opacity="1"><g transform="translate(32.541105, 263.842016)"><g><path d="M 11.296875 -14.25 L 11.296875 -11.984375 L 6.5625 0 L 3.859375 0 L 8.59375 -12.171875 L 0.96875 -12.171875 L 0.96875 -18.171875 L 3.421875 -18.171875 L 3.421875 -14.25 Z M 11.296875 -14.25 "/></g></g></g><g fill="#000000" fill-opacity="1"><g transform="translate(44.857394, 263.842016)"><g><path d="M 11.296875 -14.25 L 11.296875 -11.984375 L 6.5625 0 L 3.859375 0 L 8.59375 -12.171875 L 0.96875 -12.171875 L 0.96875 -18.171875 L 3.421875 -18.171875 L 3.421875 -14.25 Z M 11.296875 -14.25 "/></g></g></g><g fill="#000000" fill-opacity="1"><g transform="translate(57.173683, 263.842016)"><g><path d="M 1.78125 -11.28125 L 1.46875 -14.25 L 4.15625 -14.25 L 4.484375 -11.28125 L 4.484375 0 L 1.78125 0 Z M 1.78125 -11.28125 "/></g></g></g><g fill="#000000" fill-opacity="1"><g transform="translate(63.255802, 263.842016)"><g><path d="M 0.96875 -2.078125 L 4.609375 -2.078125 C 5.804688 -2.078125 6.703125 -2.4375 7.296875 -3.15625 C 7.890625 -3.882812 8.1875 -4.921875 8.1875 -6.265625 L 8.1875 -7.984375 C 8.1875 -9.316406 7.890625 -10.347656 7.296875 -11.078125 C 6.703125 -11.804688 5.804688 -12.171875 4.609375 -12.171875 L 0.96875 -12.171875 L 0.96875 -14.25 L 5.265625 -14.25 C 7.078125 -14.25 8.46875 -13.6875 9.4375 -12.5625 C 10.40625 -11.445312 10.890625 -9.878906 10.890625 -7.859375 L 10.890625 -6.390625 C 10.890625 -4.359375 10.40625 -2.785156 9.4375 -1.671875 C 8.46875 -0.554688 7.078125 0 5.265625 0 L 0.96875 0 Z M 0.96875 -2.078125 "/></g></g></g><g fill="#000000" fill-opacity="1"><g transform="translate(75.369344, 263.842016)"><g/></g></g><g fill="#000000" fill-opacity="1"><g transform="translate(80.437773, 263.842016)"><g><path d="M 1.0625 -7.25 L 11.09375 -7.25 L 11.09375 -5.53125 L 1.0625 -5.53125 Z M 1.0625 -7.25 "/></g></g></g><g fill="#000000" fill-opacity="1"><g transform="translate(92.60201, 263.842016)"><g/></g></g><g fill="#000000" fill-opacity="1"><g transform="translate(97.670439, 263.842016)"><g><path d="M 9.984375 -9.625 C 9.984375 -10.519531 9.785156 -11.164062 9.390625 -11.5625 C 9.003906 -11.96875 8.441406 -12.171875 7.703125 -12.171875 L 1.46875 -12.171875 L 1.46875 -14.25 L 8.390625 -14.25 C 9.742188 -14.25 10.800781 -13.867188 11.5625 -13.109375 C 12.320312 -12.347656 12.703125 -11.144531 12.703125 -9.5 L 12.703125 0 L 9.984375 0 Z M 1.390625 -6.890625 L 1.78125 -8.59375 L 4.109375 -8.59375 L 4.109375 0 L 1.390625 0 Z M 1.390625 -6.890625 "/></g></g></g><g fill="#000000" fill-opacity="1"><g transform="translate(111.811361, 263.842016)"><g><path d="M 12.75 -14.25 C 12.75 -10.832031 12.617188 -8.265625 12.359375 -6.546875 C 12.097656 -4.835938 11.460938 -3.445312 10.453125 -2.375 C 9.453125 -1.300781 7.832031 -0.539062 5.59375 -0.09375 L 0.84375 0.84375 L 0.453125 -1.296875 L 4.734375 -2.125 L 1.625 -14.25 L 4.328125 -14.25 L 7.171875 -2.765625 C 8.085938 -3.171875 8.742188 -3.773438 9.140625 -4.578125 C 9.546875 -5.390625 9.800781 -6.414062 9.90625 -7.65625 C 10.007812 -8.90625 10.0625 -10.769531 10.0625 -13.25 L 10.0625 -14.25 Z M 12.75 -14.25 "/></g></g></g><g fill="#000000" fill-opacity="1"><g transform="translate(125.77489, 263.842016)"><g><path d="M 1.78125 -11.28125 L 1.46875 -14.25 L 4.15625 -14.25 L 4.484375 -11.28125 L 4.484375 -7.421875 L 4.453125 -5.828125 L 1.78125 -5.328125 Z M 1.78125 -11.28125 "/></g></g></g><g fill="#000000" fill-opacity="1"><g transform="translate(131.857009, 263.842016)"><g><path d="M 14.59375 -7.171875 C 14.59375 -4.804688 14.066406 -2.96875 13.015625 -1.65625 C 11.972656 -0.351562 10.488281 0.296875 8.5625 0.296875 C 7.851562 0.296875 7.128906 0.210938 6.390625 0.046875 L 6.671875 -2.03125 C 7.304688 -1.894531 7.851562 -1.828125 8.3125 -1.828125 C 9.59375 -1.828125 10.53125 -2.273438 11.125 -3.171875 C 11.71875 -4.066406 12.015625 -5.375 12.015625 -7.09375 C 12.015625 -8.9375 11.726562 -10.257812 11.15625 -11.0625 C 10.59375 -11.863281 9.789062 -12.265625 8.75 -12.265625 C 7.9375 -12.265625 7.269531 -12.03125 6.75 -11.5625 C 6.238281 -11.101562 5.898438 -10.484375 5.734375 -9.703125 L 4.03125 0 L 1.3125 0 L 3.140625 -9.8125 L 1.171875 -14.25 L 3.984375 -14.25 L 5.125 -11.25 C 5.476562 -12.3125 6.015625 -13.109375 6.734375 -13.640625 C 7.460938 -14.179688 8.289062 -14.453125 9.21875 -14.453125 C 10.914062 -14.453125 12.234375 -13.863281 13.171875 -12.6875 C 14.117188 -11.507812 14.59375 -9.671875 14.59375 -7.171875 Z M 14.59375 -7.171875 "/></g></g></g><g fill="#000000" fill-opacity="1"><g transform="translate(147.594487, 263.842016)"><g><path d="M 15.3125 -10.34375 C 15.34375 -6.78125 14.34375 -4.113281 12.3125 -2.34375 C 10.289062 -0.582031 7.179688 0.28125 2.984375 0.25 L 1.140625 -14.25 L 3.71875 -14.25 L 4.53125 -7.5 C 5.46875 -7.957031 6.101562 -8.554688 6.4375 -9.296875 C 6.769531 -10.046875 6.957031 -11.160156 7 -12.640625 L 7 -14.21875 L 9.578125 -14.21875 L 9.546875 -12.703125 C 9.515625 -10.835938 9.144531 -9.34375 8.4375 -8.21875 C 7.726562 -7.09375 6.515625 -6.1875 4.796875 -5.5 L 5.203125 -2.046875 C 7.742188 -2.222656 9.617188 -2.984375 10.828125 -4.328125 C 12.035156 -5.679688 12.632812 -7.644531 12.625 -10.21875 L 12.578125 -14.25 L 15.28125 -14.25 Z M 15.3125 -10.34375 "/></g></g></g><g fill="#000000" fill-opacity="1"><g transform="translate(164.117566, 263.842016)"><g/></g></g><g fill="#000000" fill-opacity="1"><g transform="translate(169.185994, 263.842016)"><g><path d="M 1.78125 -11.28125 L 1.46875 -14.25 L 4.15625 -14.25 L 4.484375 -11.28125 L 4.484375 -7.421875 L 4.453125 -5.828125 L 1.78125 -5.328125 Z M 1.78125 -11.28125 "/></g></g></g><g fill="#000000" fill-opacity="1"><g transform="translate(175.268113, 263.842016)"><g><path d="M 7.859375 -9.625 C 7.859375 -10.519531 7.660156 -11.164062 7.265625 -11.5625 C 6.878906 -11.96875 6.316406 -12.171875 5.578125 -12.171875 L 0.890625 -12.171875 L 0.890625 -14.25 L 6.265625 -14.25 C 7.609375 -14.25 8.660156 -13.867188 9.421875 -13.109375 C 10.179688 -12.347656 10.5625 -11.144531 10.5625 -9.5 L 10.5625 0 L 7.859375 0 Z M 7.859375 -9.625 "/></g></g></g><g fill="#000000" fill-opacity="1"><g transform="translate(187.432351, 263.842016)"><g><path d="M 1.78125 -11.28125 L 1.46875 -14.25 L 4.15625 -14.25 L 4.484375 -11.28125 L 4.484375 -7.421875 L 4.453125 -5.828125 L 1.78125 -5.328125 Z M 1.78125 -11.28125 "/></g></g></g><g fill="#000000" fill-opacity="1"><g transform="translate(193.514469, 263.842016)"><g><path d="M 15.3125 -10.34375 C 15.34375 -6.78125 14.34375 -4.113281 12.3125 -2.34375 C 10.289062 -0.582031 7.179688 0.28125 2.984375 0.25 L 1.140625 -14.25 L 3.71875 -14.25 L 4.53125 -7.5 C 5.46875 -7.957031 6.101562 -8.554688 6.4375 -9.296875 C 6.769531 -10.046875 6.957031 -11.160156 7 -12.640625 L 7 -14.21875 L 9.578125 -14.21875 L 9.546875 -12.703125 C 9.515625 -10.835938 9.144531 -9.34375 8.4375 -8.21875 C 7.726562 -7.09375 6.515625 -6.1875 4.796875 -5.5 L 5.203125 -2.046875 C 7.742188 -2.222656 9.617188 -2.984375 10.828125 -4.328125 C 12.035156 -5.679688 12.632812 -7.644531 12.625 -10.21875 L 12.578125 -14.25 L 15.28125 -14.25 Z M 15.3125 -10.34375 "/></g></g></g><g fill="#000000" fill-opacity="1"><g transform="translate(210.037548, 263.842016)"><g><path d="M 0.96875 -2.078125 L 4.609375 -2.078125 C 5.804688 -2.078125 6.703125 -2.4375 7.296875 -3.15625 C 7.890625 -3.882812 8.1875 -4.921875 8.1875 -6.265625 L 8.1875 -7.984375 C 8.1875 -9.316406 7.890625 -10.347656 7.296875 -11.078125 C 6.703125 -11.804688 5.804688 -12.171875 4.609375 -12.171875 L 0.96875 -12.171875 L 0.96875 -14.25 L 5.265625 -14.25 C 7.078125 -14.25 8.46875 -13.6875 9.4375 -12.5625 C 10.40625 -11.445312 10.890625 -9.878906 10.890625 -7.859375 L 10.890625 -6.390625 C 10.890625 -4.359375 10.40625 -2.785156 9.4375 -1.671875 C 8.46875 -0.554688 7.078125 0 5.265625 0 L 0.96875 0 Z M 0.96875 -2.078125 "/></g></g></g><g fill="#000000" fill-opacity="1"><g transform="translate(222.15109, 263.842016)"><g><path d="M 14.59375 -7.171875 C 14.59375 -4.804688 14.066406 -2.96875 13.015625 -1.65625 C 11.972656 -0.351562 10.488281 0.296875 8.5625 0.296875 C 7.851562 0.296875 7.128906 0.210938 6.390625 0.046875 L 6.671875 -2.03125 C 7.304688 -1.894531 7.851562 -1.828125 8.3125 -1.828125 C 9.59375 -1.828125 10.53125 -2.273438 11.125 -3.171875 C 11.71875 -4.066406 12.015625 -5.375 12.015625 -7.09375 C 12.015625 -8.9375 11.726562 -10.257812 11.15625 -11.0625 C 10.59375 -11.863281 9.789062 -12.265625 8.75 -12.265625 C 7.9375 -12.265625 7.269531 -12.03125 6.75 -11.5625 C 6.238281 -11.101562 5.898438 -10.484375 5.734375 -9.703125 L 4.03125 0 L 1.3125 0 L 3.140625 -9.8125 L 1.171875 -14.25 L 3.984375 -14.25 L 5.125 -11.25 C 5.476562 -12.3125 6.015625 -13.109375 6.734375 -13.640625 C 7.460938 -14.179688 8.289062 -14.453125 9.21875 -14.453125 C 10.914062 -14.453125 12.234375 -13.863281 13.171875 -12.6875 C 14.117188 -11.507812 14.59375 -9.671875 14.59375 -7.171875 Z M 14.59375 -7.171875 "/></g></g></g><g fill="#000000" fill-opacity="1"><g transform="translate(28.295988, 292.283131)"><g><path d="M 0.5 -1.5 C 1.488281 -1.59375 2.148438 -1.851562 2.484375 -2.28125 C 2.816406 -2.707031 2.984375 -3.390625 2.984375 -4.328125 L 2.984375 -14.25 L 9.828125 -14.25 C 11.179688 -14.25 12.238281 -13.867188 13 -13.109375 C 13.757812 -12.347656 14.140625 -11.144531 14.140625 -9.5 L 14.140625 0 L 11.4375 0 L 11.4375 -9.625 C 11.4375 -10.519531 11.238281 -11.164062 10.84375 -11.5625 C 10.457031 -11.96875 9.894531 -12.171875 9.15625 -12.171875 L 5.703125 -12.171875 L 5.703125 -4.640625 C 5.703125 -2.960938 5.3125 -1.742188 4.53125 -0.984375 C 3.757812 -0.222656 2.503906 0.238281 0.765625 0.40625 Z M 0.5 -1.5 "/></g></g></g><g fill="#000000" fill-opacity="1"><g transform="translate(43.95744, 292.283131)"><g><path d="M 1.78125 -11.28125 L 1.46875 -14.25 L 4.15625 -14.25 L 4.484375 -11.28125 L 4.484375 0 L 1.78125 0 Z M 1.78125 -11.28125 "/></g></g></g><g fill="#000000" fill-opacity="1"><g transform="translate(50.039559, 292.283131)"><g><path d="M 11.296875 -14.25 L 11.296875 -11.984375 L 6.5625 0 L 3.859375 0 L 8.59375 -12.171875 L 0.96875 -12.171875 L 0.96875 -18.171875 L 3.421875 -18.171875 L 3.421875 -14.25 Z M 11.296875 -14.25 "/></g></g></g><g fill="#000000" fill-opacity="1"><g transform="translate(62.355848, 292.283131)"><g><path d="M 11.296875 -14.25 L 11.296875 -11.984375 L 6.5625 0 L 3.859375 0 L 8.59375 -12.171875 L 0.96875 -12.171875 L 0.96875 -18.171875 L 3.421875 -18.171875 L 3.421875 -14.25 Z M 11.296875 -14.25 "/></g></g></g><g fill="#000000" fill-opacity="1"><g transform="translate(74.672137, 292.283131)"><g><path d="M 1.78125 -11.28125 L 1.46875 -14.25 L 4.15625 -14.25 L 4.484375 -11.28125 L 4.484375 0 L 1.78125 0 Z M 1.78125 -11.28125 "/></g></g></g><g fill="#000000" fill-opacity="1"><g transform="translate(80.754256, 292.283131)"><g><path d="M 13.515625 -8.234375 C 13.609375 -5.316406 12.707031 -3.203125 10.8125 -1.890625 C 8.925781 -0.578125 6.273438 0.132812 2.859375 0.25 L 1.390625 -12.171875 L 1.140625 -14.25 L 8.4375 -14.25 C 10.007812 -14.25 11.226562 -13.78125 12.09375 -12.84375 C 12.96875 -11.914062 13.429688 -10.648438 13.484375 -9.046875 Z M 5.25 -2.203125 C 7.132812 -2.367188 8.550781 -2.910156 9.5 -3.828125 C 10.445312 -4.753906 10.890625 -6.238281 10.828125 -8.28125 L 10.828125 -8.96875 C 10.828125 -9.914062 10.597656 -10.6875 10.140625 -11.28125 C 9.679688 -11.875 9.046875 -12.171875 8.234375 -12.171875 L 4.109375 -12.171875 Z M 5.25 -2.203125 "/></g></g></g><g fill="#000000" fill-opacity="1"><g transform="translate(95.528728, 292.283131)"><g><path d="M 11.296875 -14.25 L 11.296875 -11.984375 L 6.5625 0 L 3.859375 0 L 8.59375 -12.171875 L 0.96875 -12.171875 L 0.96875 -18.171875 L 3.421875 -18.171875 L 3.421875 -14.25 Z M 11.296875 -14.25 "/></g></g></g><g fill="#000000" fill-opacity="1"><g transform="translate(107.845017, 292.283131)"><g/></g></g><g fill="#000000" fill-opacity="1"><g transform="translate(112.913446, 292.283131)"><g><path d="M 1.78125 -11.28125 L 1.46875 -14.25 L 4.15625 -14.25 L 4.484375 -11.28125 L 4.484375 5.0625 L 1.78125 5.0625 Z M 1.78125 -11.28125 "/></g></g></g><g fill="#000000" fill-opacity="1"><g transform="translate(118.995565, 292.283131)"><g><path d="M 12.75 -14.25 C 12.75 -10.832031 12.617188 -8.265625 12.359375 -6.546875 C 12.097656 -4.835938 11.460938 -3.445312 10.453125 -2.375 C 9.453125 -1.300781 7.832031 -0.539062 5.59375 -0.09375 L 0.84375 0.84375 L 0.453125 -1.296875 L 4.734375 -2.125 L 1.625 -14.25 L 4.328125 -14.25 L 7.171875 -2.765625 C 8.085938 -3.171875 8.742188 -3.773438 9.140625 -4.578125 C 9.546875 -5.390625 9.800781 -6.414062 9.90625 -7.65625 C 10.007812 -8.90625 10.0625 -10.769531 10.0625 -13.25 L 10.0625 -14.25 Z M 12.75 -14.25 "/></g></g></g><g fill="#000000" fill-opacity="1"><g transform="translate(132.959094, 292.283131)"><g><path d="M 1.140625 -14.25 L 3.859375 -14.25 L 5.21875 -2.203125 C 9.125 -2.585938 11.015625 -4.632812 10.890625 -8.34375 L 10.890625 -9.046875 C 10.890625 -9.960938 10.644531 -10.710938 10.15625 -11.296875 C 9.664062 -11.890625 8.941406 -12.222656 7.984375 -12.296875 L 6.71875 -12.375 L 6.921875 -14.5 L 8.421875 -14.421875 C 9.929688 -14.316406 11.144531 -13.847656 12.0625 -13.015625 C 12.976562 -12.179688 13.46875 -10.96875 13.53125 -9.375 L 13.5625 -8.671875 C 13.65625 -5.722656 12.742188 -3.535156 10.828125 -2.109375 C 8.910156 -0.679688 6.25 0.101562 2.84375 0.25 Z M 1.140625 -14.25 "/></g></g></g><g fill="#000000" fill-opacity="1"><g transform="translate(147.404119, 292.283131)"><g><path d="M 14.59375 -7.171875 C 14.59375 -4.804688 14.066406 -2.96875 13.015625 -1.65625 C 11.972656 -0.351562 10.488281 0.296875 8.5625 0.296875 C 7.851562 0.296875 7.128906 0.210938 6.390625 0.046875 L 6.671875 -2.03125 C 7.304688 -1.894531 7.851562 -1.828125 8.3125 -1.828125 C 9.59375 -1.828125 10.53125 -2.273438 11.125 -3.171875 C 11.71875 -4.066406 12.015625 -5.375 12.015625 -7.09375 C 12.015625 -8.9375 11.726562 -10.257812 11.15625 -11.0625 C 10.59375 -11.863281 9.789062 -12.265625 8.75 -12.265625 C 7.9375 -12.265625 7.269531 -12.03125 6.75 -11.5625 C 6.238281 -11.101562 5.898438 -10.484375 5.734375 -9.703125 L 4.03125 0 L 1.3125 0 L 3.140625 -9.8125 L 1.171875 -14.25 L 3.984375 -14.25 L 5.125 -11.25 C 5.476562 -12.3125 6.015625 -13.109375 6.734375 -13.640625 C 7.460938 -14.179688 8.289062 -14.453125 9.21875 -14.453125 C 10.914062 -14.453125 12.234375 -13.863281 13.171875 -12.6875 C 14.117188 -11.507812 14.59375 -9.671875 14.59375 -7.171875 Z M 14.59375 -7.171875 "/></g></g></g><g fill="#000000" fill-opacity="1"><g transform="translate(163.141598, 292.283131)"><g/></g></g><g fill="#000000" fill-opacity="1"><g transform="translate(168.210026, 292.283131)"><g><path d="M 3.453125 -3.3125 C 4.078125 -3.3125 4.566406 -3.066406 4.921875 -2.578125 C 5.273438 -2.085938 5.453125 -1.414062 5.453125 -0.5625 C 5.453125 0.601562 5.128906 1.625 4.484375 2.5 C 3.835938 3.382812 2.9375 4.046875 1.78125 4.484375 L 1.1875 3.046875 C 1.96875 2.722656 2.566406 2.296875 2.984375 1.765625 C 3.410156 1.234375 3.632812 0.628906 3.65625 -0.046875 C 3.601562 -0.0351562 3.515625 -0.03125 3.390625 -0.03125 C 2.921875 -0.03125 2.515625 -0.175781 2.171875 -0.46875 C 1.835938 -0.757812 1.671875 -1.160156 1.671875 -1.671875 C 1.671875 -2.160156 1.84375 -2.554688 2.1875 -2.859375 C 2.539062 -3.160156 2.960938 -3.3125 3.453125 -3.3125 Z M 3.453125 -3.3125 "/></g></g></g><g fill="#000000" fill-opacity="1"><g transform="translate(174.900352, 292.283131)"><g><path d="M 0.5 -1.5 C 1.488281 -1.59375 2.148438 -1.851562 2.484375 -2.28125 C 2.816406 -2.707031 2.984375 -3.390625 2.984375 -4.328125 L 2.984375 -14.25 L 9.828125 -14.25 C 11.179688 -14.25 12.238281 -13.867188 13 -13.109375 C 13.757812 -12.347656 14.140625 -11.144531 14.140625 -9.5 L 14.140625 0 L 11.4375 0 L 11.4375 -9.625 C 11.4375 -10.519531 11.238281 -11.164062 10.84375 -11.5625 C 10.457031 -11.96875 9.894531 -12.171875 9.15625 -12.171875 L 5.703125 -12.171875 L 5.703125 -4.640625 C 5.703125 -2.960938 5.3125 -1.742188 4.53125 -0.984375 C 3.757812 -0.222656 2.503906 0.238281 0.765625 0.40625 Z M 0.5 -1.5 "/></g></g></g><g fill="#000000" fill-opacity="1"><g transform="translate(190.561805, 292.283131)"><g><path d="M 1.78125 -11.28125 L 1.46875 -14.25 L 4.15625 -14.25 L 4.484375 -11.28125 L 4.484375 0 L 1.78125 0 Z M 1.78125 -11.28125 "/></g></g></g><g fill="#000000" fill-opacity="1"><g transform="translate(196.643923, 292.283131)"><g><path d="M 11.296875 -14.25 L 11.296875 -11.984375 L 6.5625 0 L 3.859375 0 L 8.59375 -12.171875 L 0.96875 -12.171875 L 0.96875 -18.171875 L 3.421875 -18.171875 L 3.421875 -14.25 Z M 11.296875 -14.25 "/></g></g></g><g fill="#000000" fill-opacity="1"><g transform="translate(208.960213, 292.283131)"><g><path d="M 11.296875 -14.25 L 11.296875 -11.984375 L 6.5625 0 L 3.859375 0 L 8.59375 -12.171875 L 0.96875 -12.171875 L 0.96875 -18.171875 L 3.421875 -18.171875 L 3.421875 -14.25 Z M 11.296875 -14.25 "/></g></g></g><g fill="#000000" fill-opacity="1"><g transform="translate(221.276502, 292.283131)"><g><path d="M 1.78125 -11.28125 L 1.46875 -14.25 L 4.15625 -14.25 L 4.484375 -11.28125 L 4.484375 0 L 1.78125 0 Z M 1.78125 -11.28125 "/></g></g></g><g fill="#000000" fill-opacity="1"><g transform="translate(227.358621, 292.283131)"><g><path d="M 13.515625 -8.234375 C 13.609375 -5.316406 12.707031 -3.203125 10.8125 -1.890625 C 8.925781 -0.578125 6.273438 0.132812 2.859375 0.25 L 1.390625 -12.171875 L 1.140625 -14.25 L 8.4375 -14.25 C 10.007812 -14.25 11.226562 -13.78125 12.09375 -12.84375 C 12.96875 -11.914062 13.429688 -10.648438 13.484375 -9.046875 Z M 5.25 -2.203125 C 7.132812 -2.367188 8.550781 -2.910156 9.5 -3.828125 C 10.445312 -4.753906 10.890625 -6.238281 10.828125 -8.28125 L 10.828125 -8.96875 C 10.828125 -9.914062 10.597656 -10.6875 10.140625 -11.28125 C 9.679688 -11.875 9.046875 -12.171875 8.234375 -12.171875 L 4.109375 -12.171875 Z M 5.25 -2.203125 "/></g></g></g><g fill="#000000" fill-opacity="1"><g transform="translate(24.799321, 320.724245)"><g><path d="M 1.78125 -11.28125 L 1.46875 -14.25 L 4.15625 -14.25 L 4.484375 -11.28125 L 4.484375 -7.421875 L 4.453125 -5.828125 L 1.78125 -5.328125 Z M 1.78125 -11.28125 "/></g></g></g><g fill="#000000" fill-opacity="1"><g transform="translate(30.88144, 320.724245)"><g><path d="M 1.78125 -11.28125 L 1.46875 -14.25 L 4.15625 -14.25 L 4.484375 -11.28125 L 4.484375 0 L 1.78125 0 Z M 1.78125 -11.28125 "/></g></g></g><g fill="#000000" fill-opacity="1"><g transform="translate(36.963559, 320.724245)"><g><path d="M 5.859375 -2.078125 C 6.679688 -2.160156 7.375 -2.359375 7.9375 -2.671875 C 8.507812 -2.984375 8.96875 -3.503906 9.3125 -4.234375 C 9.65625 -4.972656 9.867188 -5.988281 9.953125 -7.28125 L 10.34375 -12.171875 L 1.375 -12.171875 L 1.375 -14.25 L 13.25 -14.25 L 13.15625 -12.421875 L 12.796875 -7.90625 C 12.679688 -5.425781 12.066406 -3.5 10.953125 -2.125 C 9.835938 -0.757812 8.222656 -0.0390625 6.109375 0.03125 Z M 1.3125 -7.140625 L 1.703125 -8.875 L 4.03125 -8.875 L 4.03125 5.0625 L 1.3125 5.0625 Z M 1.3125 -7.140625 "/></g></g></g><g fill="#000000" fill-opacity="1"><g transform="translate(51.332559, 320.724245)"><g><path d="M 1.78125 -11.28125 L 1.46875 -14.25 L 4.15625 -14.25 L 4.484375 -11.28125 L 4.484375 -7.421875 L 4.453125 -5.828125 L 1.78125 -5.328125 Z M 1.78125 -11.28125 "/></g></g></g><g fill="#000000" fill-opacity="1"><g transform="translate(57.414678, 320.724245)"><g><path d="M 1.109375 -2.078125 L 5.21875 -2.078125 L 5.21875 -10.03125 C 5.21875 -10.757812 5.070312 -11.285156 4.78125 -11.609375 C 4.5 -11.941406 4.070312 -12.148438 3.5 -12.234375 L 1.78125 -12.5 L 2.125 -14.546875 L 4.765625 -14.171875 C 5.773438 -14.015625 6.554688 -13.582031 7.109375 -12.875 C 7.660156 -12.175781 7.9375 -11.25 7.9375 -10.09375 L 7.9375 0 L 1.109375 0 Z M 1.109375 -2.078125 "/></g></g></g><g fill="#000000" fill-opacity="1"><g transform="translate(66.892643, 320.724245)"><g/></g></g><g fill="#000000" fill-opacity="1"><g transform="translate(71.961072, 320.724245)"><g><path d="M 0.5 -1.5 C 1.488281 -1.59375 2.148438 -1.851562 2.484375 -2.28125 C 2.816406 -2.707031 2.984375 -3.390625 2.984375 -4.328125 L 2.984375 -14.25 L 9.828125 -14.25 C 11.179688 -14.25 12.238281 -13.867188 13 -13.109375 C 13.757812 -12.347656 14.140625 -11.144531 14.140625 -9.5 L 14.140625 0 L 11.4375 0 L 11.4375 -9.625 C 11.4375 -10.519531 11.238281 -11.164062 10.84375 -11.5625 C 10.457031 -11.96875 9.894531 -12.171875 9.15625 -12.171875 L 5.703125 -12.171875 L 5.703125 -4.640625 C 5.703125 -2.960938 5.3125 -1.742188 4.53125 -0.984375 C 3.757812 -0.222656 2.503906 0.238281 0.765625 0.40625 Z M 0.5 -1.5 "/></g></g></g><g fill="#000000" fill-opacity="1"><g transform="translate(87.622524, 320.724245)"><g><path d="M 1.78125 -11.28125 L 1.46875 -14.25 L 4.15625 -14.25 L 4.484375 -11.28125 L 4.484375 0 L 1.78125 0 Z M 1.78125 -11.28125 "/></g></g></g><g fill="#000000" fill-opacity="1"><g transform="translate(93.704643, 320.724245)"><g><path d="M 0.96875 -2.078125 L 4.609375 -2.078125 C 5.804688 -2.078125 6.703125 -2.4375 7.296875 -3.15625 C 7.890625 -3.882812 8.1875 -4.921875 8.1875 -6.265625 L 8.1875 -7.984375 C 8.1875 -9.316406 7.890625 -10.347656 7.296875 -11.078125 C 6.703125 -11.804688 5.804688 -12.171875 4.609375 -12.171875 L 0.96875 -12.171875 L 0.96875 -14.25 L 5.265625 -14.25 C 7.078125 -14.25 8.46875 -13.6875 9.4375 -12.5625 C 10.40625 -11.445312 10.890625 -9.878906 10.890625 -7.859375 L 10.890625 -6.390625 C 10.890625 -4.359375 10.40625 -2.785156 9.4375 -1.671875 C 8.46875 -0.554688 7.078125 0 5.265625 0 L 0.96875 0 Z M 0.96875 -2.078125 "/></g></g></g><g fill="#000000" fill-opacity="1"><g transform="translate(105.818185, 320.724245)"><g><path d="M 7.859375 -9.625 C 7.859375 -10.519531 7.660156 -11.164062 7.265625 -11.5625 C 6.878906 -11.96875 6.316406 -12.171875 5.578125 -12.171875 L 0.890625 -12.171875 L 0.890625 -14.25 L 6.265625 -14.25 C 7.609375 -14.25 8.660156 -13.867188 9.421875 -13.109375 C 10.179688 -12.347656 10.5625 -11.144531 10.5625 -9.5 L 10.5625 0 L 7.859375 0 Z M 7.859375 -9.625 "/></g></g></g><g fill="#000000" fill-opacity="1"><g transform="translate(117.982422, 320.724245)"><g><path d="M 12.75 -14.25 C 12.75 -10.832031 12.617188 -8.265625 12.359375 -6.546875 C 12.097656 -4.835938 11.460938 -3.445312 10.453125 -2.375 C 9.453125 -1.300781 7.832031 -0.539062 5.59375 -0.09375 L 0.84375 0.84375 L 0.453125 -1.296875 L 4.734375 -2.125 L 1.625 -14.25 L 4.328125 -14.25 L 7.171875 -2.765625 C 8.085938 -3.171875 8.742188 -3.773438 9.140625 -4.578125 C 9.546875 -5.390625 9.800781 -6.414062 9.90625 -7.65625 C 10.007812 -8.90625 10.0625 -10.769531 10.0625 -13.25 L 10.0625 -14.25 Z M 12.75 -14.25 "/></g></g></g><g fill="#000000" fill-opacity="1"><g transform="translate(131.945951, 320.724245)"><g/></g></g><g fill="#000000" fill-opacity="1"><g transform="translate(137.01438, 320.724245)"><g><path d="M 3.453125 -3.3125 C 4.078125 -3.3125 4.566406 -3.066406 4.921875 -2.578125 C 5.273438 -2.085938 5.453125 -1.414062 5.453125 -0.5625 C 5.453125 0.601562 5.128906 1.625 4.484375 2.5 C 3.835938 3.382812 2.9375 4.046875 1.78125 4.484375 L 1.1875 3.046875 C 1.96875 2.722656 2.566406 2.296875 2.984375 1.765625 C 3.410156 1.234375 3.632812 0.628906 3.65625 -0.046875 C 3.601562 -0.0351562 3.515625 -0.03125 3.390625 -0.03125 C 2.921875 -0.03125 2.515625 -0.175781 2.171875 -0.46875 C 1.835938 -0.757812 1.671875 -1.160156 1.671875 -1.671875 C 1.671875 -2.160156 1.84375 -2.554688 2.1875 -2.859375 C 2.539062 -3.160156 2.960938 -3.3125 3.453125 -3.3125 Z M 3.453125 -3.3125 "/></g></g></g><g fill="#000000" fill-opacity="1"><g transform="translate(143.704706, 320.724245)"><g><path d="M 9 -14.25 C 10.351562 -14.25 11.410156 -13.867188 12.171875 -13.109375 C 12.929688 -12.347656 13.3125 -11.144531 13.3125 -9.5 L 13.3125 0 L 1.640625 0 L 1.640625 -14.25 Z M 10.59375 -2.078125 L 10.59375 -9.625 C 10.59375 -10.519531 10.394531 -11.164062 10 -11.5625 C 9.613281 -11.96875 9.050781 -12.171875 8.3125 -12.171875 L 4.359375 -12.171875 L 4.359375 -2.078125 Z M 10.59375 -2.078125 "/></g></g></g><g fill="#000000" fill-opacity="1"><g transform="translate(158.529862, 320.724245)"><g><path d="M 1.78125 -11.28125 L 1.46875 -14.25 L 4.15625 -14.25 L 4.484375 -11.28125 L 4.484375 -7.421875 L 4.453125 -5.828125 L 1.78125 -5.328125 Z M 1.78125 -11.28125 "/></g></g></g><g fill="#000000" fill-opacity="1"><g transform="translate(164.61198, 320.724245)"><g><path d="M 7.859375 -9.625 C 7.859375 -10.519531 7.660156 -11.164062 7.265625 -11.5625 C 6.878906 -11.96875 6.316406 -12.171875 5.578125 -12.171875 L 0.890625 -12.171875 L 0.890625 -14.25 L 6.265625 -14.25 C 7.609375 -14.25 8.660156 -13.867188 9.421875 -13.109375 C 10.179688 -12.347656 10.5625 -11.144531 10.5625 -9.5 L 10.5625 0 L 7.859375 0 Z M 7.859375 -9.625 "/></g></g></g><g fill="#000000" fill-opacity="1"><g transform="translate(176.776218, 320.724245)"><g><path d="M 1.78125 -11.28125 L 1.46875 -14.25 L 4.15625 -14.25 L 4.484375 -11.28125 L 4.484375 -7.421875 L 4.453125 -5.828125 L 1.78125 -5.328125 Z M 1.78125 -11.28125 "/></g></g></g><g fill="#000000" fill-opacity="1"><g transform="translate(182.858336, 320.724245)"><g><path d="M 15.3125 -10.34375 C 15.34375 -6.78125 14.34375 -4.113281 12.3125 -2.34375 C 10.289062 -0.582031 7.179688 0.28125 2.984375 0.25 L 1.140625 -14.25 L 3.71875 -14.25 L 4.53125 -7.5 C 5.46875 -7.957031 6.101562 -8.554688 6.4375 -9.296875 C 6.769531 -10.046875 6.957031 -11.160156 7 -12.640625 L 7 -14.21875 L 9.578125 -14.21875 L 9.546875 -12.703125 C 9.515625 -10.835938 9.144531 -9.34375 8.4375 -8.21875 C 7.726562 -7.09375 6.515625 -6.1875 4.796875 -5.5 L 5.203125 -2.046875 C 7.742188 -2.222656 9.617188 -2.984375 10.828125 -4.328125 C 12.035156 -5.679688 12.632812 -7.644531 12.625 -10.21875 L 12.578125 -14.25 L 15.28125 -14.25 Z M 15.3125 -10.34375 "/></g></g></g><g fill="#000000" fill-opacity="1"><g transform="translate(199.381415, 320.724245)"><g><path d="M 0.96875 -2.078125 L 4.609375 -2.078125 C 5.804688 -2.078125 6.703125 -2.4375 7.296875 -3.15625 C 7.890625 -3.882812 8.1875 -4.921875 8.1875 -6.265625 L 8.1875 -7.984375 C 8.1875 -9.316406 7.890625 -10.347656 7.296875 -11.078125 C 6.703125 -11.804688 5.804688 -12.171875 4.609375 -12.171875 L 0.96875 -12.171875 L 0.96875 -14.25 L 5.265625 -14.25 C 7.078125 -14.25 8.46875 -13.6875 9.4375 -12.5625 C 10.40625 -11.445312 10.890625 -9.878906 10.890625 -7.859375 L 10.890625 -6.390625 C 10.890625 -4.359375 10.40625 -2.785156 9.4375 -1.671875 C 8.46875 -0.554688 7.078125 0 5.265625 0 L 0.96875 0 Z M 0.96875 -2.078125 "/></g></g></g><g fill="#000000" fill-opacity="1"><g transform="translate(211.494957, 320.724245)"><g><path d="M 14.59375 -7.171875 C 14.59375 -4.804688 14.066406 -2.96875 13.015625 -1.65625 C 11.972656 -0.351562 10.488281 0.296875 8.5625 0.296875 C 7.851562 0.296875 7.128906 0.210938 6.390625 0.046875 L 6.671875 -2.03125 C 7.304688 -1.894531 7.851562 -1.828125 8.3125 -1.828125 C 9.59375 -1.828125 10.53125 -2.273438 11.125 -3.171875 C 11.71875 -4.066406 12.015625 -5.375 12.015625 -7.09375 C 12.015625 -8.9375 11.726562 -10.257812 11.15625 -11.0625 C 10.59375 -11.863281 9.789062 -12.265625 8.75 -12.265625 C 7.9375 -12.265625 7.269531 -12.03125 6.75 -11.5625 C 6.238281 -11.101562 5.898438 -10.484375 5.734375 -9.703125 L 4.03125 0 L 1.3125 0 L 3.140625 -9.8125 L 1.171875 -14.25 L 3.984375 -14.25 L 5.125 -11.25 C 5.476562 -12.3125 6.015625 -13.109375 6.734375 -13.640625 C 7.460938 -14.179688 8.289062 -14.453125 9.21875 -14.453125 C 10.914062 -14.453125 12.234375 -13.863281 13.171875 -12.6875 C 14.117188 -11.507812 14.59375 -9.671875 14.59375 -7.171875 Z M 14.59375 -7.171875 "/></g></g></g><g fill="#000000" fill-opacity="1"><g transform="translate(227.232447, 320.724245)"><g><path d="M 11.296875 -14.25 L 11.296875 -11.984375 L 6.5625 0 L 3.859375 0 L 8.59375 -12.171875 L 0.96875 -12.171875 L 0.96875 -18.171875 L 3.421875 -18.171875 L 3.421875 -14.25 Z M 11.296875 -14.25 "/></g></g></g><g fill="#000000" fill-opacity="1"><g transform="translate(239.548713, 320.724245)"><g><path d="M 1.78125 -11.28125 L 1.46875 -14.25 L 4.15625 -14.25 L 4.484375 -11.28125 L 4.484375 0 L 1.78125 0 Z M 1.78125 -11.28125 "/></g></g></g><g fill="#000000" fill-opacity="1"><g transform="translate(62.642844, 349.16536)"><g><path d="M 15.3125 -10.34375 C 15.34375 -6.78125 14.34375 -4.113281 12.3125 -2.34375 C 10.289062 -0.582031 7.179688 0.28125 2.984375 0.25 L 1.140625 -14.25 L 3.71875 -14.25 L 4.53125 -7.5 C 5.46875 -7.957031 6.101562 -8.554688 6.4375 -9.296875 C 6.769531 -10.046875 6.957031 -11.160156 7 -12.640625 L 7 -14.21875 L 9.578125 -14.21875 L 9.546875 -12.703125 C 9.515625 -10.835938 9.144531 -9.34375 8.4375 -8.21875 C 7.726562 -7.09375 6.515625 -6.1875 4.796875 -5.5 L 5.203125 -2.046875 C 7.742188 -2.222656 9.617188 -2.984375 10.828125 -4.328125 C 12.035156 -5.679688 12.632812 -7.644531 12.625 -10.21875 L 12.578125 -14.25 L 15.28125 -14.25 Z M 15.3125 -10.34375 "/></g></g></g><g fill="#000000" fill-opacity="1"><g transform="translate(79.165923, 349.16536)"><g><path d="M 1.78125 -11.28125 L 1.46875 -14.25 L 4.15625 -14.25 L 4.484375 -11.28125 L 4.484375 0 L 1.78125 0 Z M 1.78125 -11.28125 "/></g></g></g><g fill="#000000" fill-opacity="1"><g transform="translate(85.248042, 349.16536)"><g><path d="M 12.640625 -2.078125 L 12.640625 0 L 1.140625 0 L 1.140625 -2.078125 L 8.1875 -2.078125 L 8.1875 -9.625 C 8.1875 -10.519531 7.988281 -11.164062 7.59375 -11.5625 C 7.207031 -11.96875 6.644531 -12.171875 5.90625 -12.171875 L 1.140625 -12.171875 L 1.140625 -14.25 L 6.59375 -14.25 C 7.9375 -14.25 8.988281 -13.867188 9.75 -13.109375 C 10.507812 -12.347656 10.890625 -11.144531 10.890625 -9.5 L 10.890625 -2.078125 Z M 12.640625 -2.078125 "/></g></g></g><g fill="#000000" fill-opacity="1"><g transform="translate(98.780745, 349.16536)"><g><path d="M 1.78125 -11.28125 L 1.46875 -14.25 L 4.15625 -14.25 L 4.484375 -11.28125 L 4.484375 -7.421875 L 4.453125 -5.828125 L 1.78125 -5.328125 Z M 1.78125 -11.28125 "/></g></g></g><g fill="#000000" fill-opacity="1"><g transform="translate(104.862864, 349.16536)"><g><path d="M 1.78125 -11.28125 L 1.46875 -14.25 L 4.15625 -14.25 L 4.484375 -11.28125 L 4.484375 -7.421875 L 4.453125 -5.828125 L 1.78125 -5.328125 Z M 1.78125 -11.28125 "/></g></g></g><g fill="#000000" fill-opacity="1"><g transform="translate(110.944983, 349.16536)"><g/></g></g><g fill="#000000" fill-opacity="1"><g transform="translate(116.013411, 349.16536)"><g><path d="M 0.5 -1.5 C 1.488281 -1.59375 2.148438 -1.851562 2.484375 -2.28125 C 2.816406 -2.707031 2.984375 -3.390625 2.984375 -4.328125 L 2.984375 -14.25 L 9.828125 -14.25 C 11.179688 -14.25 12.238281 -13.867188 13 -13.109375 C 13.757812 -12.347656 14.140625 -11.144531 14.140625 -9.5 L 14.140625 0 L 11.4375 0 L 11.4375 -9.625 C 11.4375 -10.519531 11.238281 -11.164062 10.84375 -11.5625 C 10.457031 -11.96875 9.894531 -12.171875 9.15625 -12.171875 L 5.703125 -12.171875 L 5.703125 -4.640625 C 5.703125 -2.960938 5.3125 -1.742188 4.53125 -0.984375 C 3.757812 -0.222656 2.503906 0.238281 0.765625 0.40625 Z M 0.5 -1.5 "/></g></g></g><g fill="#000000" fill-opacity="1"><g transform="translate(131.674864, 349.16536)"><g><path d="M 1.78125 -11.28125 L 1.46875 -14.25 L 4.15625 -14.25 L 4.484375 -11.28125 L 4.484375 0 L 1.78125 0 Z M 1.78125 -11.28125 "/></g></g></g><g fill="#000000" fill-opacity="1"><g transform="translate(137.756982, 349.16536)"><g><path d="M 11.125 0 L 5.796875 -8.078125 L 3.296875 0 L 0.703125 0 L 3.5 -8.71875 L 4.203125 -10.515625 L 1.875 -14.25 L 4.640625 -14.25 L 6.765625 -10.828125 L 8.890625 -7.625 L 9.53125 -9.828125 L 10.828125 -14.25 L 13.4375 -14.25 L 10.5 -5.265625 L 14.015625 0 Z M 11.125 0 "/></g></g></g><g fill="#000000" fill-opacity="1"><g transform="translate(152.60748, 349.16536)"><g><path d="M 13.515625 -8.234375 C 13.609375 -5.316406 12.707031 -3.203125 10.8125 -1.890625 C 8.925781 -0.578125 6.273438 0.132812 2.859375 0.25 L 1.390625 -12.171875 L 1.140625 -14.25 L 8.4375 -14.25 C 10.007812 -14.25 11.226562 -13.78125 12.09375 -12.84375 C 12.96875 -11.914062 13.429688 -10.648438 13.484375 -9.046875 Z M 5.25 -2.203125 C 7.132812 -2.367188 8.550781 -2.910156 9.5 -3.828125 C 10.445312 -4.753906 10.890625 -6.238281 10.828125 -8.28125 L 10.828125 -8.96875 C 10.828125 -9.914062 10.597656 -10.6875 10.140625 -11.28125 C 9.679688 -11.875 9.046875 -12.171875 8.234375 -12.171875 L 4.109375 -12.171875 Z M 5.25 -2.203125 "/></g></g></g><g fill="#000000" fill-opacity="1"><g transform="translate(167.381952, 349.16536)"><g><path d="M 1.671875 -2.078125 L 6.265625 -2.078125 C 7.429688 -2.078125 8.347656 -2.421875 9.015625 -3.109375 C 9.691406 -3.804688 10.03125 -4.863281 10.03125 -6.28125 L 10.03125 -7.984375 C 10.03125 -9.316406 9.757812 -10.347656 9.21875 -11.078125 C 8.6875 -11.804688 7.878906 -12.171875 6.796875 -12.171875 L 4.515625 -12.171875 L 3.953125 -9.65625 C 3.867188 -9.269531 3.828125 -8.941406 3.828125 -8.671875 C 3.828125 -8.160156 3.96875 -7.765625 4.25 -7.484375 C 4.539062 -7.210938 5.015625 -7.007812 5.671875 -6.875 L 5.203125 -5.125 C 3.878906 -5.207031 2.914062 -5.539062 2.3125 -6.125 C 1.71875 -6.707031 1.421875 -7.515625 1.421875 -8.546875 C 1.421875 -9.035156 1.460938 -9.484375 1.546875 -9.890625 L 2.53125 -14.25 L 7.375 -14.25 C 9.0625 -14.25 10.378906 -13.6875 11.328125 -12.5625 C 12.273438 -11.445312 12.75 -9.882812 12.75 -7.875 L 12.75 -6.40625 C 12.75 -4.300781 12.207031 -2.707031 11.125 -1.625 C 10.039062 -0.539062 8.601562 0 6.8125 0 L 1.671875 0 Z M 1.671875 -2.078125 "/></g></g></g><g fill="#000000" fill-opacity="1"><g transform="translate(181.269455, 349.16536)"><g><path d="M 1.78125 -11.28125 L 1.46875 -14.25 L 4.15625 -14.25 L 4.484375 -11.28125 L 4.484375 0 L 1.78125 0 Z M 1.78125 -11.28125 "/></g></g></g><g fill="#000000" fill-opacity="1"><g transform="translate(187.351574, 349.16536)"><g><path d="M 5.859375 -2.078125 C 6.679688 -2.160156 7.375 -2.359375 7.9375 -2.671875 C 8.507812 -2.984375 8.96875 -3.503906 9.3125 -4.234375 C 9.65625 -4.972656 9.867188 -5.988281 9.953125 -7.28125 L 10.34375 -12.171875 L 1.375 -12.171875 L 1.375 -14.25 L 13.25 -14.25 L 13.15625 -12.421875 L 12.796875 -7.90625 C 12.679688 -5.425781 12.066406 -3.5 10.953125 -2.125 C 9.835938 -0.757812 8.222656 -0.0390625 6.109375 0.03125 Z M 1.3125 -7.140625 L 1.703125 -8.875 L 4.03125 -8.875 L 4.03125 5.0625 L 1.3125 5.0625 Z M 1.3125 -7.140625 "/></g></g></g><g fill="#000000" fill-opacity="1"><g transform="translate(201.720574, 349.16536)"><g><path d="M 1.78125 -11.28125 L 1.46875 -14.25 L 4.15625 -14.25 L 4.484375 -11.28125 L 4.484375 0 L 1.78125 0 Z M 1.78125 -11.28125 "/></g></g></g><path fill="#9e6c50" d="M 117.488281 66.058594 C 123.023438 47.519531 142.84375 41.65625 155.667969 42.113281 C 168.511719 42.570312 182.726562 48.3125 189.554688 61.644531 C 192.71875 67.820312 193.078125 76.554688 191.46875 85.074219 C 189.828125 93.75 186.089844 102.28125 180.457031 107.753906 C 178.125 110.023438 178.070312 113.753906 180.335938 116.085938 C 182.601562 118.417969 186.335938 118.46875 188.667969 116.203125 C 195.886719 109.1875 200.941406 98.382812 203.042969 87.261719 C 205.175781 75.980469 204.230469 64.453125 200.042969 56.273438 C 191.132812 38.878906 172.847656 30.933594 156.085938 30.339844 C 139.167969 29.738281 113.503906 38.230469 106.199219 62.6875 C 105.269531 65.800781 107.042969 69.085938 110.15625 70.015625 C 113.273438 70.945312 116.558594 69.171875 117.488281 66.058594 Z M 117.488281 66.058594 " fill-opacity="1" fill-rule="evenodd"/><path fill="#9e6c50" d="M 84.609375 86.21875 C 85.285156 84.121094 84.132812 81.867188 82.03125 81.1875 L 78.453125 80.03125 C 76.355469 79.355469 74.097656 80.507812 73.421875 82.605469 L 72.265625 86.1875 C 71.585938 88.285156 72.742188 90.539062 74.839844 91.21875 L 78.417969 92.375 C 80.519531 93.054688 82.773438 91.898438 83.453125 89.800781 Z M 84.609375 86.21875 " fill-opacity="1" fill-rule="evenodd"/><g clip-path="url(#16e1bf44a1)"><path fill="#9e6c50" d="M 76.808594 137.898438 C 76.355469 135.738281 74.238281 134.351562 72.078125 134.800781 L 68.398438 135.570312 C 65.332031 136.210938 65.25 145.410156 67.394531 155.660156 C 69.535156 165.914062 73.082031 173.257812 76.140625 172.621094 L 79.820312 171.851562 C 81.980469 171.398438 83.367188 169.277344 82.917969 167.121094 Z M 76.808594 137.898438 " fill-opacity="1" fill-rule="evenodd"/></g><path fill="#d67893" d="M 108.15625 50.953125 C 96.554688 51.59375 82.773438 69.941406 77.355469 91.605469 C 68.957031 125.191406 72.144531 146.09375 76.144531 160.628906 C 84.828125 192.164062 102.28125 209.179688 116.878906 212.082031 C 136.8125 216.046875 154.515625 200.289062 151.21875 178.425781 C 148.660156 161.460938 127.097656 145.742188 121.203125 117.394531 C 118.851562 106.101562 120.882812 93.988281 123.789062 83.1875 C 125.425781 77.121094 128.628906 70.386719 127.21875 63.960938 C 125.679688 56.941406 118.886719 50.363281 108.15625 50.953125 Z M 108.15625 50.953125 " fill-opacity="1" fill-rule="evenodd"/><path fill="#ffcfb3" d="M 197.441406 110.585938 L 182.148438 100.390625 L 166.464844 116.785156 C 165.257812 118.59375 165.746094 121.042969 167.558594 122.25 L 182.867188 132.460938 C 184.675781 133.667969 187.125 133.175781 188.332031 131.367188 Z M 197.441406 110.585938 " fill-opacity="1" fill-rule="evenodd"/><path fill="#ffdac4" d="M 194.796875 135.121094 C 194.796875 135.980469 194.757812 136.835938 194.671875 137.6875 C 194.589844 138.542969 194.460938 139.390625 194.292969 140.234375 C 194.128906 141.074219 193.917969 141.90625 193.667969 142.730469 C 193.421875 143.550781 193.132812 144.355469 192.804688 145.148438 C 192.476562 145.945312 192.109375 146.71875 191.703125 147.476562 C 191.300781 148.234375 190.859375 148.96875 190.382812 149.683594 C 189.90625 150.394531 189.394531 151.085938 188.847656 151.746094 C 188.304688 152.410156 187.730469 153.046875 187.121094 153.652344 C 186.515625 154.261719 185.878906 154.835938 185.214844 155.382812 C 184.550781 155.925781 183.863281 156.4375 183.148438 156.914062 C 182.4375 157.390625 181.699219 157.832031 180.945312 158.234375 C 180.1875 158.640625 179.410156 159.007812 178.617188 159.335938 C 177.824219 159.664062 177.019531 159.953125 176.195312 160.203125 C 175.375 160.449219 174.542969 160.660156 173.703125 160.828125 C 172.859375 160.992188 172.011719 161.121094 171.15625 161.203125 C 170.304688 161.289062 169.445312 161.332031 168.589844 161.332031 C 167.730469 161.332031 166.875 161.289062 166.019531 161.203125 C 165.164062 161.121094 164.316406 160.992188 163.476562 160.828125 C 162.632812 160.660156 161.800781 160.449219 160.980469 160.203125 C 160.160156 159.953125 159.351562 159.664062 158.558594 159.335938 C 157.765625 159.007812 156.988281 158.640625 156.234375 158.234375 C 155.476562 157.832031 154.742188 157.390625 154.027344 156.914062 C 153.3125 156.4375 152.625 155.925781 151.960938 155.382812 C 151.296875 154.835938 150.664062 154.261719 150.054688 153.652344 C 149.449219 153.046875 148.871094 152.410156 148.328125 151.746094 C 147.785156 151.085938 147.273438 150.394531 146.796875 149.683594 C 146.320312 148.96875 145.878906 148.234375 145.472656 147.476562 C 145.070312 146.71875 144.703125 145.945312 144.375 145.148438 C 144.046875 144.355469 143.757812 143.550781 143.507812 142.730469 C 143.257812 141.90625 143.050781 141.074219 142.882812 140.234375 C 142.714844 139.390625 142.589844 138.542969 142.503906 137.6875 C 142.421875 136.835938 142.378906 135.980469 142.378906 135.121094 C 142.378906 134.261719 142.421875 133.40625 142.503906 132.550781 C 142.589844 131.695312 142.714844 130.847656 142.882812 130.007812 C 143.050781 129.164062 143.257812 128.332031 143.507812 127.511719 C 143.757812 126.691406 144.046875 125.882812 144.375 125.089844 C 144.703125 124.296875 145.070312 123.523438 145.472656 122.765625 C 145.878906 122.007812 146.320312 121.273438 146.796875 120.558594 C 147.273438 119.84375 147.785156 119.15625 148.328125 118.492188 C 148.871094 117.828125 149.449219 117.195312 150.054688 116.585938 C 150.664062 115.980469 151.296875 115.402344 151.960938 114.859375 C 152.625 114.316406 153.3125 113.804688 154.027344 113.328125 C 154.742188 112.851562 155.476562 112.410156 156.234375 112.003906 C 156.988281 111.601562 157.765625 111.234375 158.558594 110.90625 C 159.351562 110.578125 160.160156 110.289062 160.980469 110.039062 C 161.800781 109.789062 162.632812 109.582031 163.476562 109.414062 C 164.316406 109.246094 165.164062 109.121094 166.019531 109.035156 C 166.875 108.953125 167.730469 108.910156 168.589844 108.910156 C 169.445312 108.910156 170.304688 108.953125 171.15625 109.035156 C 172.011719 109.121094 172.859375 109.246094 173.703125 109.414062 C 174.542969 109.582031 175.375 109.789062 176.195312 110.039062 C 177.019531 110.289062 177.824219 110.578125 178.617188 110.90625 C 179.410156 111.234375 180.1875 111.601562 180.945312 112.003906 C 181.699219 112.410156 182.4375 112.851562 183.148438 113.328125 C 183.863281 113.804688 184.550781 114.316406 185.214844 114.859375 C 185.878906 115.402344 186.515625 115.980469 187.121094 116.585938 C 187.730469 117.195312 188.304688 117.828125 188.847656 118.492188 C 189.394531 119.15625 189.90625 119.84375 190.382812 120.558594 C 190.859375 121.273438 191.300781 122.007812 191.703125 122.765625 C 192.109375 123.523438 192.476562 124.296875 192.804688 125.089844 C 193.132812 125.882812 193.421875 126.691406 193.667969 127.511719 C 193.917969 128.332031 194.128906 129.164062 194.292969 130.007812 C 194.460938 130.847656 194.589844 131.695312 194.671875 132.550781 C 194.757812 133.40625 194.796875 134.261719 194.796875 135.121094 Z M 194.796875 135.121094 " fill-opacity="1" fill-rule="nonzero"/></svg>