<svg xmlns="http://www.w3.org/2000/svg" xmlns:xlink="http://www.w3.org/1999/xlink" width="360" zoomAndPan="magnify" viewBox="0 0 270 341.249999" height="455" preserveAspectRatio="xMidYMid meet" version="1.0"><defs><g/></defs><path fill="#112d51" d="M 193.25 94.335938 L 210.65625 111.875 L 203.691406 118.890625 L 182.808594 139.953125 C 182.101562 134.675781 181.660156 127.398438 182.808594 118.90625 C 183.90625 110.890625 186.070312 104.351562 188.035156 99.597656 Z M 193.25 94.335938 " fill-opacity="1" fill-rule="nonzero"/><path fill="#112d51" d="M 154.957031 132.9375 L 172.367188 115.398438 C 170.398438 120.136719 168.234375 126.675781 167.152344 134.691406 C 165.988281 143.183594 166.433594 150.460938 167.152344 155.738281 L 167.152344 155.757812 L 149.746094 173.296875 C 149.023438 168.015625 148.582031 160.738281 149.746094 152.25 C 150.84375 144.234375 152.992188 137.691406 154.957031 132.9375 Z M 154.957031 132.9375 " fill-opacity="1" fill-rule="nonzero"/><path fill="#b6eaff" d="M 186.300781 101.351562 L 188.035156 99.597656 C 186.070312 104.351562 183.90625 110.890625 182.808594 118.90625 C 181.660156 127.398438 182.101562 134.675781 182.808594 139.953125 L 182.808594 139.972656 L 167.152344 155.738281 C 166.433594 150.460938 165.988281 143.183594 167.152344 134.691406 C 168.234375 126.675781 170.398438 120.136719 172.367188 115.398438 Z M 186.300781 101.351562 " fill-opacity="1" fill-rule="nonzero"/><path fill="#b6eaff" d="M 132.335938 155.757812 L 154.957031 132.9375 C 152.992188 137.691406 150.84375 144.234375 149.746094 152.25 C 148.582031 160.738281 149.023438 168.015625 149.746094 173.296875 L 149.746094 173.3125 L 142.777344 180.328125 L 125.371094 162.773438 Z M 132.335938 155.757812 " fill-opacity="1" fill-rule="nonzero"/><path fill="#ffd7d2" d="M 233.882812 150.96875 L 181.070312 204.898438 L 155.417969 179.015625 L 149.746094 173.3125 L 149.746094 173.296875 L 167.152344 155.757812 L 167.152344 155.738281 L 182.808594 139.972656 L 182.808594 139.953125 L 203.691406 118.890625 L 203.707031 118.90625 L 209.445312 124.988281 Z M 233.882812 150.96875 " fill-opacity="1" fill-rule="nonzero"/><path fill="#ffd7d2" d="M 186.300781 101.351562 L 172.367188 115.398438 L 154.957031 132.9375 L 132.335938 155.757812 L 127.910156 151.28125 L 127.125 150.496094 C 121.699219 150.460938 115.242188 150.050781 108.042969 148.757812 C 108.027344 148.742188 107.816406 148.707031 107.75 148.691406 C 96.601562 146.660156 86.425781 141.054688 78.425781 132.972656 L 44.558594 98.84375 C 39.757812 93.992188 38.019531 86.828125 40.085938 80.289062 C 41.148438 76.976562 42.574219 74.796875 43.707031 73.402344 L 41.410156 71.09375 C 35.757812 65.386719 35.691406 55.898438 41.707031 50.570312 C 41.738281 50.539062 41.789062 50.488281 41.839844 50.457031 C 47.691406 45.375 54.902344 46.765625 55.753906 46.949219 L 52.722656 43.882812 C 47.296875 38.425781 46.363281 29.554688 51.199219 23.574219 C 51.542969 23.164062 51.902344 22.753906 52.28125 22.375 C 52.65625 22 53.050781 21.640625 53.460938 21.292969 C 58.589844 17.066406 65.867188 17.214844 71.246094 20.867188 L 71.425781 20.621094 C 71.246094 19.753906 69.867188 12.492188 74.902344 6.574219 L 75.015625 6.445312 C 80.292969 0.328125 89.277344 0 94.964844 5.738281 L 107.980469 18.867188 C 108.652344 18.082031 109.617188 17.164062 111.011719 16.230469 C 112.421875 15.3125 114.257812 14.394531 116.667969 13.605469 C 123.15625 11.523438 130.253906 13.261719 135.074219 18.113281 L 158.480469 41.71875 C 166.480469 49.785156 172.054688 60.0625 174.070312 71.289062 C 174.085938 71.371094 174.152344 71.714844 174.152344 71.78125 C 175.414062 78.960938 175.824219 85.402344 175.859375 90.828125 L 182.085938 97.105469 Z M 186.300781 101.351562 " fill-opacity="1" fill-rule="nonzero"/><path fill="#f7b6ad" d="M 150.910156 59.824219 L 111.132812 19.714844 C 110.492188 19.070312 109.457031 19.066406 108.8125 19.703125 C 108.171875 20.34375 108.164062 21.378906 108.804688 22.023438 L 148.582031 62.132812 C 148.902344 62.457031 149.324219 62.621094 149.746094 62.621094 C 150.164062 62.621094 150.578125 62.460938 150.898438 62.144531 C 151.542969 61.507812 151.546875 60.46875 150.910156 59.824219 Z M 150.910156 59.824219 " fill-opacity="1" fill-rule="nonzero"/><path fill="#f7b6ad" d="M 67.359375 94.9375 L 46.042969 73.433594 C 45.402344 72.792969 44.363281 72.785156 43.722656 73.421875 C 43.078125 74.0625 43.074219 75.101562 43.710938 75.742188 L 65.03125 97.246094 C 65.351562 97.570312 65.773438 97.730469 66.195312 97.730469 C 66.613281 97.730469 67.03125 97.570312 67.351562 97.253906 C 67.996094 96.617188 67.996094 95.582031 67.359375 94.9375 Z M 67.359375 94.9375 " fill-opacity="1" fill-rule="nonzero"/><path fill="#f7b6ad" d="M 74.328125 63.347656 L 58.503906 47.386719 C 57.863281 46.742188 56.828125 46.738281 56.183594 47.375 C 55.542969 48.011719 55.535156 49.050781 56.175781 49.691406 L 72 65.660156 C 72.320312 65.980469 72.738281 66.144531 73.164062 66.144531 C 73.582031 66.144531 73.996094 65.984375 74.316406 65.667969 C 74.960938 65.03125 74.964844 63.992188 74.328125 63.347656 Z M 74.328125 63.347656 " fill-opacity="1" fill-rule="nonzero"/><path fill="#f7b6ad" d="M 95.210938 42.285156 L 75.921875 22.828125 C 75.285156 22.183594 74.242188 22.179688 73.601562 22.820312 C 72.960938 23.457031 72.957031 24.492188 73.59375 25.132812 L 92.882812 44.59375 C 93.203125 44.917969 93.625 45.078125 94.046875 45.078125 C 94.464844 45.078125 94.878906 44.921875 95.199219 44.605469 C 95.84375 43.96875 95.847656 42.929688 95.210938 42.285156 Z M 95.210938 42.285156 " fill-opacity="1" fill-rule="nonzero"/><g fill="#000000" fill-opacity="1"><g transform="translate(18.512575, 242.311324)"><g><path d="M 9 -14.25 C 10.351562 -14.25 11.410156 -13.867188 12.171875 -13.109375 C 12.929688 -12.347656 13.3125 -11.148438 13.3125 -9.515625 L 13.3125 0 L 1.640625 0 L 1.640625 -14.25 Z M 10.59375 -2.078125 L 10.59375 -9.640625 C 10.59375 -10.535156 10.398438 -11.179688 10.015625 -11.578125 C 9.628906 -11.972656 9.0625 -12.171875 8.3125 -12.171875 L 4.359375 -12.171875 L 4.359375 -2.078125 Z M 10.59375 -2.078125 "/></g></g></g><g fill="#000000" fill-opacity="1"><g transform="translate(33.342629, 242.311324)"><g><path d="M 1.78125 -11.28125 L 1.46875 -14.25 L 4.15625 -14.25 L 4.484375 -11.28125 L 4.484375 -7.4375 L 4.46875 -5.828125 L 1.78125 -5.328125 Z M 1.78125 -11.28125 "/></g></g></g><g fill="#000000" fill-opacity="1"><g transform="translate(39.426761, 242.311324)"><g><path d="M 9.984375 -9.640625 C 9.984375 -10.535156 9.789062 -11.179688 9.40625 -11.578125 C 9.019531 -11.972656 8.453125 -12.171875 7.703125 -12.171875 L 1.46875 -12.171875 L 1.46875 -14.25 L 8.390625 -14.25 C 9.742188 -14.25 10.800781 -13.867188 11.5625 -13.109375 C 12.320312 -12.347656 12.703125 -11.148438 12.703125 -9.515625 L 12.703125 0 L 9.984375 0 Z M 1.390625 -6.890625 L 1.78125 -8.59375 L 4.109375 -8.59375 L 4.109375 0 L 1.390625 0 Z M 1.390625 -6.890625 "/></g></g></g><g fill="#000000" fill-opacity="1"><g transform="translate(53.572349, 242.311324)"><g><path d="M 2.9375 -9.203125 C 2.9375 -10.523438 3.175781 -11.515625 3.65625 -12.171875 L 1.21875 -12.171875 L 1.21875 -14.25 L 8.109375 -14.25 L 8.109375 -12.171875 L 6.140625 -12.171875 C 5.929688 -11.785156 5.796875 -11.347656 5.734375 -10.859375 C 5.679688 -10.378906 5.65625 -9.828125 5.65625 -9.203125 L 5.65625 0 L 2.9375 0 Z M 2.9375 -9.203125 "/></g></g></g><g fill="#000000" fill-opacity="1"><g transform="translate(62.875986, 242.311324)"><g><path d="M 14.609375 -7.171875 C 14.609375 -4.804688 14.082031 -2.96875 13.03125 -1.65625 C 11.988281 -0.351562 10.503906 0.296875 8.578125 0.296875 C 7.859375 0.296875 7.128906 0.210938 6.390625 0.046875 L 6.671875 -2.03125 C 7.316406 -1.894531 7.863281 -1.828125 8.3125 -1.828125 C 9.601562 -1.828125 10.539062 -2.273438 11.125 -3.171875 C 11.71875 -4.066406 12.015625 -5.375 12.015625 -7.09375 C 12.015625 -8.9375 11.734375 -10.257812 11.171875 -11.0625 C 10.609375 -11.875 9.800781 -12.28125 8.75 -12.28125 C 7.9375 -12.28125 7.269531 -12.046875 6.75 -11.578125 C 6.238281 -11.109375 5.898438 -10.488281 5.734375 -9.71875 L 4.03125 0 L 1.3125 0 L 3.140625 -9.8125 L 1.171875 -14.25 L 3.984375 -14.25 L 5.125 -11.265625 C 5.476562 -12.328125 6.019531 -13.125 6.75 -13.65625 C 7.476562 -14.1875 8.304688 -14.453125 9.234375 -14.453125 C 10.921875 -14.453125 12.238281 -13.863281 13.1875 -12.6875 C 14.132812 -11.519531 14.609375 -9.679688 14.609375 -7.171875 Z M 14.609375 -7.171875 "/></g></g></g><g fill="#000000" fill-opacity="1"><g transform="translate(78.618657, 242.311324)"><g><path d="M 9.984375 -9.640625 C 9.984375 -10.535156 9.789062 -11.179688 9.40625 -11.578125 C 9.019531 -11.972656 8.453125 -12.171875 7.703125 -12.171875 L 1.46875 -12.171875 L 1.46875 -14.25 L 8.390625 -14.25 C 9.742188 -14.25 10.800781 -13.867188 11.5625 -13.109375 C 12.320312 -12.347656 12.703125 -11.148438 12.703125 -9.515625 L 12.703125 0 L 9.984375 0 Z M 1.390625 -6.890625 L 1.78125 -8.59375 L 4.109375 -8.59375 L 4.109375 0 L 1.390625 0 Z M 1.390625 -6.890625 "/></g></g></g><g fill="#000000" fill-opacity="1"><g transform="translate(92.764245, 242.311324)"><g/></g></g><g fill="#000000" fill-opacity="1"><g transform="translate(97.834347, 242.311324)"><g><path d="M 7.28125 -9.203125 C 7.28125 -10.523438 7.515625 -11.515625 7.984375 -12.171875 L 1.140625 -12.171875 L 1.140625 -14.25 L 12.453125 -14.25 L 12.453125 -12.171875 L 10.546875 -12.171875 C 10.171875 -11.460938 9.984375 -10.472656 9.984375 -9.203125 L 9.984375 0 L 7.28125 0 Z M 7.28125 -9.203125 "/></g></g></g><g fill="#000000" fill-opacity="1"><g transform="translate(111.498282, 242.311324)"><g><path d="M 1.78125 -11.28125 L 1.46875 -14.25 L 4.15625 -14.25 L 4.484375 -11.28125 L 4.484375 -7.4375 L 4.46875 -5.828125 L 1.78125 -5.328125 Z M 1.78125 -11.28125 "/></g></g></g><g fill="#000000" fill-opacity="1"><g transform="translate(117.582414, 242.311324)"><g><path d="M 14.609375 -7.171875 C 14.609375 -4.804688 14.082031 -2.96875 13.03125 -1.65625 C 11.988281 -0.351562 10.503906 0.296875 8.578125 0.296875 C 7.859375 0.296875 7.128906 0.210938 6.390625 0.046875 L 6.671875 -2.03125 C 7.316406 -1.894531 7.863281 -1.828125 8.3125 -1.828125 C 9.601562 -1.828125 10.539062 -2.273438 11.125 -3.171875 C 11.71875 -4.066406 12.015625 -5.375 12.015625 -7.09375 C 12.015625 -8.9375 11.734375 -10.257812 11.171875 -11.0625 C 10.609375 -11.875 9.800781 -12.28125 8.75 -12.28125 C 7.9375 -12.28125 7.269531 -12.046875 6.75 -11.578125 C 6.238281 -11.109375 5.898438 -10.488281 5.734375 -9.71875 L 4.03125 0 L 1.3125 0 L 3.140625 -9.8125 L 1.171875 -14.25 L 3.984375 -14.25 L 5.125 -11.265625 C 5.476562 -12.328125 6.019531 -13.125 6.75 -13.65625 C 7.476562 -14.1875 8.304688 -14.453125 9.234375 -14.453125 C 10.921875 -14.453125 12.238281 -13.863281 13.1875 -12.6875 C 14.132812 -11.519531 14.609375 -9.679688 14.609375 -7.171875 Z M 14.609375 -7.171875 "/></g></g></g><g fill="#000000" fill-opacity="1"><g transform="translate(133.325085, 242.311324)"><g><path d="M 8.796875 -6.109375 L 12.34375 0 L 0.890625 0 L 0.890625 -2.078125 L 8.375 -2.078125 L 1.296875 -14.25 L 4.0625 -14.25 L 7.328125 -8.625 L 9.6875 -14.25 L 12.40625 -14.25 Z M 8.796875 -6.109375 "/></g></g></g><g fill="#000000" fill-opacity="1"><g transform="translate(146.912969, 242.311324)"><g/></g></g><g fill="#000000" fill-opacity="1"><g transform="translate(151.983072, 242.311324)"><g><path d="M 1.78125 -11.28125 L 1.46875 -14.25 L 4.15625 -14.25 L 4.484375 -11.28125 L 4.484375 0 L 1.78125 0 Z M 1.78125 -11.28125 "/></g></g></g><g fill="#000000" fill-opacity="1"><g transform="translate(158.067203, 242.311324)"><g><path d="M 11.125 0 L 5.8125 -8.09375 L 3.296875 0 L 0.703125 0 L 3.5 -8.71875 L 4.203125 -10.53125 L 1.875 -14.25 L 4.640625 -14.25 L 6.765625 -10.828125 L 8.90625 -7.640625 L 9.53125 -9.84375 L 10.828125 -14.25 L 13.4375 -14.25 L 10.5 -5.28125 L 14.03125 0 Z M 11.125 0 "/></g></g></g><g fill="#000000" fill-opacity="1"><g transform="translate(172.922608, 242.311324)"><g/></g></g><g fill="#000000" fill-opacity="1"><g transform="translate(177.99271, 242.311324)"><g><path d="M 0.5 -1.5 C 1.488281 -1.59375 2.148438 -1.851562 2.484375 -2.28125 C 2.828125 -2.707031 3 -3.394531 3 -4.34375 L 3 -14.25 L 9.84375 -14.25 C 11.195312 -14.25 12.253906 -13.867188 13.015625 -13.109375 C 13.773438 -12.347656 14.15625 -11.148438 14.15625 -9.515625 L 14.15625 0 L 11.4375 0 L 11.4375 -9.640625 C 11.4375 -10.535156 11.238281 -11.179688 10.84375 -11.578125 C 10.457031 -11.972656 9.894531 -12.171875 9.15625 -12.171875 L 5.703125 -12.171875 L 5.703125 -4.640625 C 5.703125 -2.960938 5.3125 -1.742188 4.53125 -0.984375 C 3.757812 -0.222656 2.503906 0.238281 0.765625 0.40625 Z M 0.5 -1.5 "/></g></g></g><g fill="#000000" fill-opacity="1"><g transform="translate(193.65933, 242.311324)"><g><path d="M 7.859375 -9.640625 C 7.859375 -10.535156 7.660156 -11.179688 7.265625 -11.578125 C 6.878906 -11.972656 6.316406 -12.171875 5.578125 -12.171875 L 0.890625 -12.171875 L 0.890625 -14.25 L 6.265625 -14.25 C 7.617188 -14.25 8.675781 -13.867188 9.4375 -13.109375 C 10.195312 -12.347656 10.578125 -11.148438 10.578125 -9.515625 L 10.578125 0 L 7.859375 0 Z M 7.859375 -9.640625 "/></g></g></g><g fill="#000000" fill-opacity="1"><g transform="translate(205.827582, 242.311324)"><g><path d="M 15.3125 -10.34375 C 15.351562 -6.78125 14.359375 -4.113281 12.328125 -2.34375 C 10.296875 -0.582031 7.1875 0.28125 3 0.25 L 1.140625 -14.25 L 3.734375 -14.25 L 4.546875 -7.5 C 5.472656 -7.957031 6.101562 -8.554688 6.4375 -9.296875 C 6.78125 -10.046875 6.96875 -11.164062 7 -12.65625 L 7 -14.234375 L 9.578125 -14.234375 L 9.5625 -12.703125 C 9.53125 -10.847656 9.15625 -9.359375 8.4375 -8.234375 C 7.726562 -7.109375 6.515625 -6.195312 4.796875 -5.5 L 5.203125 -2.046875 C 7.753906 -2.222656 9.632812 -2.984375 10.84375 -4.328125 C 12.050781 -5.679688 12.644531 -7.644531 12.625 -10.21875 L 12.578125 -14.25 L 15.296875 -14.25 Z M 15.3125 -10.34375 "/></g></g></g><g fill="#000000" fill-opacity="1"><g transform="translate(222.356109, 242.311324)"><g><path d="M 7.859375 -9.640625 C 7.859375 -10.535156 7.660156 -11.179688 7.265625 -11.578125 C 6.878906 -11.972656 6.316406 -12.171875 5.578125 -12.171875 L 0.890625 -12.171875 L 0.890625 -14.25 L 6.265625 -14.25 C 7.617188 -14.25 8.675781 -13.867188 9.4375 -13.109375 C 10.195312 -12.347656 10.578125 -11.148438 10.578125 -9.515625 L 10.578125 0 L 7.859375 0 Z M 7.859375 -9.640625 "/></g></g></g><g fill="#000000" fill-opacity="1"><g transform="translate(234.524372, 242.311324)"><g><path d="M 15.3125 -10.34375 C 15.351562 -6.78125 14.359375 -4.113281 12.328125 -2.34375 C 10.296875 -0.582031 7.1875 0.28125 3 0.25 L 1.140625 -14.25 L 3.734375 -14.25 L 4.546875 -7.5 C 5.472656 -7.957031 6.101562 -8.554688 6.4375 -9.296875 C 6.78125 -10.046875 6.96875 -11.164062 7 -12.65625 L 7 -14.234375 L 9.578125 -14.234375 L 9.5625 -12.703125 C 9.53125 -10.847656 9.15625 -9.359375 8.4375 -8.234375 C 7.726562 -7.109375 6.515625 -6.195312 4.796875 -5.5 L 5.203125 -2.046875 C 7.753906 -2.222656 9.632812 -2.984375 10.84375 -4.328125 C 12.050781 -5.679688 12.644531 -7.644531 12.625 -10.21875 L 12.578125 -14.25 L 15.296875 -14.25 Z M 15.3125 -10.34375 "/></g></g></g><g fill="#000000" fill-opacity="1"><g transform="translate(7.965444, 270.748823)"><g><path d="M 12.75 -14.25 C 12.75 -10.832031 12.617188 -8.265625 12.359375 -6.546875 C 12.097656 -4.835938 11.460938 -3.445312 10.453125 -2.375 C 9.453125 -1.300781 7.835938 -0.539062 5.609375 -0.09375 L 0.84375 0.84375 L 0.453125 -1.296875 L 4.75 -2.125 L 1.625 -14.25 L 4.34375 -14.25 L 7.171875 -2.765625 C 8.085938 -3.171875 8.75 -3.78125 9.15625 -4.59375 C 9.5625 -5.40625 9.8125 -6.429688 9.90625 -7.671875 C 10.007812 -8.910156 10.0625 -10.773438 10.0625 -13.265625 L 10.0625 -14.25 Z M 12.75 -14.25 "/></g></g></g><g fill="#000000" fill-opacity="1"><g transform="translate(21.93358, 270.748823)"><g><path d="M 1.78125 -11.28125 L 1.46875 -14.25 L 4.15625 -14.25 L 4.484375 -11.28125 L 4.484375 0 L 1.78125 0 Z M 1.78125 -11.28125 "/></g></g></g><g fill="#000000" fill-opacity="1"><g transform="translate(28.017712, 270.748823)"><g><path d="M 1.78125 -11.28125 L 1.46875 -14.25 L 4.15625 -14.25 L 4.484375 -11.28125 L 4.484375 -7.4375 L 4.46875 -5.828125 L 1.78125 -5.328125 Z M 1.78125 -11.28125 "/></g></g></g><g fill="#000000" fill-opacity="1"><g transform="translate(34.101844, 270.748823)"><g><path d="M 13.515625 -8.234375 C 13.617188 -5.316406 12.722656 -3.203125 10.828125 -1.890625 C 8.929688 -0.578125 6.273438 0.132812 2.859375 0.25 L 1.390625 -12.171875 L 1.140625 -14.25 L 8.4375 -14.25 C 10.007812 -14.25 11.234375 -13.785156 12.109375 -12.859375 C 12.984375 -11.929688 13.441406 -10.660156 13.484375 -9.046875 Z M 5.25 -2.203125 C 7.144531 -2.367188 8.566406 -2.910156 9.515625 -3.828125 C 10.460938 -4.753906 10.898438 -6.242188 10.828125 -8.296875 L 10.828125 -8.984375 C 10.828125 -9.921875 10.597656 -10.6875 10.140625 -11.28125 C 9.679688 -11.875 9.046875 -12.171875 8.234375 -12.171875 L 4.109375 -12.171875 Z M 5.25 -2.203125 "/></g></g></g><g fill="#000000" fill-opacity="1"><g transform="translate(48.881197, 270.748823)"><g><path d="M 11.3125 -14.25 L 11.3125 -12 L 6.5625 0 L 3.859375 0 L 8.59375 -12.171875 L 0.96875 -12.171875 L 0.96875 -18.1875 L 3.421875 -18.1875 L 3.421875 -14.25 Z M 11.3125 -14.25 "/></g></g></g><g fill="#000000" fill-opacity="1"><g transform="translate(61.20155, 270.748823)"><g/></g></g><g fill="#000000" fill-opacity="1"><g transform="translate(66.271652, 270.748823)"><g><path d="M 9 -14.25 C 10.351562 -14.25 11.410156 -13.867188 12.171875 -13.109375 C 12.929688 -12.347656 13.3125 -11.148438 13.3125 -9.515625 L 13.3125 0 L 1.640625 0 L 1.640625 -14.25 Z M 10.59375 -2.078125 L 10.59375 -9.640625 C 10.59375 -10.535156 10.398438 -11.179688 10.015625 -11.578125 C 9.628906 -11.972656 9.0625 -12.171875 8.3125 -12.171875 L 4.359375 -12.171875 L 4.359375 -2.078125 Z M 10.59375 -2.078125 "/></g></g></g><g fill="#000000" fill-opacity="1"><g transform="translate(81.101706, 270.748823)"><g><path d="M 1.78125 -11.28125 L 1.46875 -14.25 L 4.15625 -14.25 L 4.484375 -11.28125 L 4.484375 -7.4375 L 4.46875 -5.828125 L 1.78125 -5.328125 Z M 1.78125 -11.28125 "/></g></g></g><g fill="#000000" fill-opacity="1"><g transform="translate(87.185838, 270.748823)"><g><path d="M 15.3125 -10.34375 C 15.351562 -6.78125 14.359375 -4.113281 12.328125 -2.34375 C 10.296875 -0.582031 7.1875 0.28125 3 0.25 L 1.140625 -14.25 L 3.734375 -14.25 L 4.546875 -7.5 C 5.472656 -7.957031 6.101562 -8.554688 6.4375 -9.296875 C 6.78125 -10.046875 6.96875 -11.164062 7 -12.65625 L 7 -14.234375 L 9.578125 -14.234375 L 9.5625 -12.703125 C 9.53125 -10.847656 9.15625 -9.359375 8.4375 -8.234375 C 7.726562 -7.109375 6.515625 -6.195312 4.796875 -5.5 L 5.203125 -2.046875 C 7.753906 -2.222656 9.632812 -2.984375 10.84375 -4.328125 C 12.050781 -5.679688 12.644531 -7.644531 12.625 -10.21875 L 12.578125 -14.25 L 15.296875 -14.25 Z M 15.3125 -10.34375 "/></g></g></g><g fill="#000000" fill-opacity="1"><g transform="translate(103.714376, 270.748823)"><g><path d="M 7.859375 -9.640625 C 7.859375 -10.535156 7.660156 -11.179688 7.265625 -11.578125 C 6.878906 -11.972656 6.316406 -12.171875 5.578125 -12.171875 L 0.890625 -12.171875 L 0.890625 -14.25 L 6.265625 -14.25 C 7.617188 -14.25 8.675781 -13.867188 9.4375 -13.109375 C 10.195312 -12.347656 10.578125 -11.148438 10.578125 -9.515625 L 10.578125 0 L 7.859375 0 Z M 7.859375 -9.640625 "/></g></g></g><g fill="#000000" fill-opacity="1"><g transform="translate(115.882627, 270.748823)"><g><path d="M 7.28125 -9.203125 C 7.28125 -10.523438 7.515625 -11.515625 7.984375 -12.171875 L 1.140625 -12.171875 L 1.140625 -14.25 L 12.453125 -14.25 L 12.453125 -12.171875 L 10.546875 -12.171875 C 10.171875 -11.460938 9.984375 -10.472656 9.984375 -9.203125 L 9.984375 0 L 7.28125 0 Z M 7.28125 -9.203125 "/></g></g></g><g fill="#000000" fill-opacity="1"><g transform="translate(129.546562, 270.748823)"><g><path d="M 1.109375 -2.078125 L 5.21875 -2.078125 L 5.21875 -10.046875 C 5.21875 -10.765625 5.070312 -11.289062 4.78125 -11.625 C 4.5 -11.957031 4.070312 -12.164062 3.5 -12.25 L 1.78125 -12.5 L 2.125 -14.5625 L 4.765625 -14.171875 C 5.785156 -14.023438 6.566406 -13.597656 7.109375 -12.890625 C 7.660156 -12.191406 7.9375 -11.257812 7.9375 -10.09375 L 7.9375 0 L 1.109375 0 Z M 1.109375 -2.078125 "/></g></g></g><g fill="#000000" fill-opacity="1"><g transform="translate(139.027662, 270.748823)"><g><path d="M 0.96875 -2.078125 L 4.609375 -2.078125 C 5.816406 -2.078125 6.710938 -2.441406 7.296875 -3.171875 C 7.890625 -3.898438 8.1875 -4.929688 8.1875 -6.265625 L 8.1875 -7.984375 C 8.1875 -9.316406 7.890625 -10.347656 7.296875 -11.078125 C 6.710938 -11.804688 5.816406 -12.171875 4.609375 -12.171875 L 0.96875 -12.171875 L 0.96875 -14.25 L 5.28125 -14.25 C 7.082031 -14.25 8.46875 -13.691406 9.4375 -12.578125 C 10.414062 -11.460938 10.90625 -9.890625 10.90625 -7.859375 L 10.90625 -6.390625 C 10.90625 -4.359375 10.414062 -2.785156 9.4375 -1.671875 C 8.46875 -0.554688 7.082031 0 5.28125 0 L 0.96875 0 Z M 0.96875 -2.078125 "/></g></g></g><g fill="#000000" fill-opacity="1"><g transform="translate(151.145213, 270.748823)"><g/></g></g><g fill="#000000" fill-opacity="1"><g transform="translate(156.215316, 270.748823)"><g><path d="M 9 -14.25 C 10.351562 -14.25 11.410156 -13.867188 12.171875 -13.109375 C 12.929688 -12.347656 13.3125 -11.148438 13.3125 -9.515625 L 13.3125 0 L 1.640625 0 L 1.640625 -14.25 Z M 10.59375 -2.078125 L 10.59375 -9.640625 C 10.59375 -10.535156 10.398438 -11.179688 10.015625 -11.578125 C 9.628906 -11.972656 9.0625 -12.171875 8.3125 -12.171875 L 4.359375 -12.171875 L 4.359375 -2.078125 Z M 10.59375 -2.078125 "/></g></g></g><g fill="#000000" fill-opacity="1"><g transform="translate(171.045369, 270.748823)"><g><path d="M 0.96875 -2.078125 L 4.609375 -2.078125 C 5.816406 -2.078125 6.710938 -2.441406 7.296875 -3.171875 C 7.890625 -3.898438 8.1875 -4.929688 8.1875 -6.265625 L 8.1875 -7.984375 C 8.1875 -9.316406 7.890625 -10.347656 7.296875 -11.078125 C 6.710938 -11.804688 5.816406 -12.171875 4.609375 -12.171875 L 0.96875 -12.171875 L 0.96875 -14.25 L 5.28125 -14.25 C 7.082031 -14.25 8.46875 -13.691406 9.4375 -12.578125 C 10.414062 -11.460938 10.90625 -9.890625 10.90625 -7.859375 L 10.90625 -6.390625 C 10.90625 -4.359375 10.414062 -2.785156 9.4375 -1.671875 C 8.46875 -0.554688 7.082031 0 5.28125 0 L 0.96875 0 Z M 0.96875 -2.078125 "/></g></g></g><g fill="#000000" fill-opacity="1"><g transform="translate(183.162921, 270.748823)"><g><path d="M 12.65625 -2.078125 L 12.65625 0 L 1.140625 0 L 1.140625 -2.078125 L 8.1875 -2.078125 L 8.1875 -9.640625 C 8.1875 -10.535156 7.992188 -11.179688 7.609375 -11.578125 C 7.222656 -11.972656 6.65625 -12.171875 5.90625 -12.171875 L 1.140625 -12.171875 L 1.140625 -14.25 L 6.59375 -14.25 C 7.945312 -14.25 9.003906 -13.867188 9.765625 -13.109375 C 10.523438 -12.347656 10.90625 -11.148438 10.90625 -9.515625 L 10.90625 -2.078125 Z M 12.65625 -2.078125 "/></g></g></g><g fill="#000000" fill-opacity="1"><g transform="translate(196.700105, 270.748823)"><g><path d="M 8.796875 -6.109375 L 12.34375 0 L 0.890625 0 L 0.890625 -2.078125 L 8.375 -2.078125 L 1.296875 -14.25 L 4.0625 -14.25 L 7.328125 -8.625 L 9.6875 -14.25 L 12.40625 -14.25 Z M 8.796875 -6.109375 "/></g></g></g><g fill="#000000" fill-opacity="1"><g transform="translate(210.287989, 270.748823)"><g><path d="M 14.609375 -7.171875 C 14.609375 -4.804688 14.082031 -2.96875 13.03125 -1.65625 C 11.988281 -0.351562 10.503906 0.296875 8.578125 0.296875 C 7.859375 0.296875 7.128906 0.210938 6.390625 0.046875 L 6.671875 -2.03125 C 7.316406 -1.894531 7.863281 -1.828125 8.3125 -1.828125 C 9.601562 -1.828125 10.539062 -2.273438 11.125 -3.171875 C 11.71875 -4.066406 12.015625 -5.375 12.015625 -7.09375 C 12.015625 -8.9375 11.734375 -10.257812 11.171875 -11.0625 C 10.609375 -11.875 9.800781 -12.28125 8.75 -12.28125 C 7.9375 -12.28125 7.269531 -12.046875 6.75 -11.578125 C 6.238281 -11.109375 5.898438 -10.488281 5.734375 -9.71875 L 4.03125 0 L 1.3125 0 L 3.140625 -9.8125 L 1.171875 -14.25 L 3.984375 -14.25 L 5.125 -11.265625 C 5.476562 -12.328125 6.019531 -13.125 6.75 -13.65625 C 7.476562 -14.1875 8.304688 -14.453125 9.234375 -14.453125 C 10.921875 -14.453125 12.238281 -13.863281 13.1875 -12.6875 C 14.132812 -11.519531 14.609375 -9.679688 14.609375 -7.171875 Z M 14.609375 -7.171875 "/></g></g></g><g fill="#000000" fill-opacity="1"><g transform="translate(226.030649, 270.748823)"><g/></g></g><g fill="#000000" fill-opacity="1"><g transform="translate(231.100774, 270.748823)"><g><path d="M 0.5 -1.5 C 1.488281 -1.59375 2.148438 -1.851562 2.484375 -2.28125 C 2.828125 -2.707031 3 -3.394531 3 -4.34375 L 3 -14.25 L 9.84375 -14.25 C 11.195312 -14.25 12.253906 -13.867188 13.015625 -13.109375 C 13.773438 -12.347656 14.15625 -11.148438 14.15625 -9.515625 L 14.15625 0 L 11.4375 0 L 11.4375 -9.640625 C 11.4375 -10.535156 11.238281 -11.179688 10.84375 -11.578125 C 10.457031 -11.972656 9.894531 -12.171875 9.15625 -12.171875 L 5.703125 -12.171875 L 5.703125 -4.640625 C 5.703125 -2.960938 5.3125 -1.742188 4.53125 -0.984375 C 3.757812 -0.222656 2.503906 0.238281 0.765625 0.40625 Z M 0.5 -1.5 "/></g></g></g><g fill="#000000" fill-opacity="1"><g transform="translate(246.767383, 270.748823)"><g><path d="M 11.125 0 L 5.8125 -8.09375 L 3.296875 0 L 0.703125 0 L 3.5 -8.71875 L 4.203125 -10.53125 L 1.875 -14.25 L 4.640625 -14.25 L 6.765625 -10.828125 L 8.90625 -7.640625 L 9.53125 -9.84375 L 10.828125 -14.25 L 13.4375 -14.25 L 10.5 -5.28125 L 14.03125 0 Z M 11.125 0 "/></g></g></g><g fill="#000000" fill-opacity="1"><g transform="translate(9.544006, 299.186321)"><g><path d="M 0.5 -1.5 C 1.488281 -1.59375 2.148438 -1.851562 2.484375 -2.28125 C 2.828125 -2.707031 3 -3.394531 3 -4.34375 L 3 -14.25 L 9.84375 -14.25 C 11.195312 -14.25 12.253906 -13.867188 13.015625 -13.109375 C 13.773438 -12.347656 14.15625 -11.148438 14.15625 -9.515625 L 14.15625 0 L 11.4375 0 L 11.4375 -9.640625 C 11.4375 -10.535156 11.238281 -11.179688 10.84375 -11.578125 C 10.457031 -11.972656 9.894531 -12.171875 9.15625 -12.171875 L 5.703125 -12.171875 L 5.703125 -4.640625 C 5.703125 -2.960938 5.3125 -1.742188 4.53125 -0.984375 C 3.757812 -0.222656 2.503906 0.238281 0.765625 0.40625 Z M 0.5 -1.5 "/></g></g></g><g fill="#000000" fill-opacity="1"><g transform="translate(25.210626, 299.186321)"><g><path d="M 1.78125 -11.28125 L 1.46875 -14.25 L 4.15625 -14.25 L 4.484375 -11.28125 L 4.484375 0 L 1.78125 0 Z M 1.78125 -11.28125 "/></g></g></g><g fill="#000000" fill-opacity="1"><g transform="translate(31.294758, 299.186321)"><g><path d="M 11.3125 -14.25 L 11.3125 -12 L 6.5625 0 L 3.859375 0 L 8.59375 -12.171875 L 0.96875 -12.171875 L 0.96875 -18.1875 L 3.421875 -18.1875 L 3.421875 -14.25 Z M 11.3125 -14.25 "/></g></g></g><g fill="#000000" fill-opacity="1"><g transform="translate(43.615111, 299.186321)"><g><path d="M 0.5 -1.5 C 1.488281 -1.59375 2.148438 -1.851562 2.484375 -2.28125 C 2.828125 -2.707031 3 -3.394531 3 -4.34375 L 3 -14.25 L 9.84375 -14.25 C 11.195312 -14.25 12.253906 -13.867188 13.015625 -13.109375 C 13.773438 -12.347656 14.15625 -11.148438 14.15625 -9.515625 L 14.15625 0 L 11.4375 0 L 11.4375 -9.640625 C 11.4375 -10.535156 11.238281 -11.179688 10.84375 -11.578125 C 10.457031 -11.972656 9.894531 -12.171875 9.15625 -12.171875 L 5.703125 -12.171875 L 5.703125 -4.640625 C 5.703125 -2.960938 5.3125 -1.742188 4.53125 -0.984375 C 3.757812 -0.222656 2.503906 0.238281 0.765625 0.40625 Z M 0.5 -1.5 "/></g></g></g><g fill="#000000" fill-opacity="1"><g transform="translate(59.281732, 299.186321)"><g/></g></g><g fill="#000000" fill-opacity="1"><g transform="translate(64.351834, 299.186321)"><g><path d="M 15.3125 -10.34375 C 15.351562 -6.78125 14.359375 -4.113281 12.328125 -2.34375 C 10.296875 -0.582031 7.1875 0.28125 3 0.25 L 1.140625 -14.25 L 3.734375 -14.25 L 4.546875 -7.5 C 5.472656 -7.957031 6.101562 -8.554688 6.4375 -9.296875 C 6.78125 -10.046875 6.96875 -11.164062 7 -12.65625 L 7 -14.234375 L 9.578125 -14.234375 L 9.5625 -12.703125 C 9.53125 -10.847656 9.15625 -9.359375 8.4375 -8.234375 C 7.726562 -7.109375 6.515625 -6.195312 4.796875 -5.5 L 5.203125 -2.046875 C 7.753906 -2.222656 9.632812 -2.984375 10.84375 -4.328125 C 12.050781 -5.679688 12.644531 -7.644531 12.625 -10.21875 L 12.578125 -14.25 L 15.296875 -14.25 Z M 15.3125 -10.34375 "/></g></g></g><g fill="#000000" fill-opacity="1"><g transform="translate(80.880372, 299.186321)"><g><path d="M 1.78125 -11.28125 L 1.46875 -14.25 L 4.15625 -14.25 L 4.484375 -11.28125 L 4.484375 -7.4375 L 4.46875 -5.828125 L 1.78125 -5.328125 Z M 1.78125 -11.28125 "/></g></g></g><g fill="#000000" fill-opacity="1"><g transform="translate(86.964503, 299.186321)"><g/></g></g><g fill="#000000" fill-opacity="1"><g transform="translate(92.034605, 299.186321)"><g><path d="M 9 -14.25 C 10.351562 -14.25 11.410156 -13.867188 12.171875 -13.109375 C 12.929688 -12.347656 13.3125 -11.148438 13.3125 -9.515625 L 13.3125 0 L 1.640625 0 L 1.640625 -14.25 Z M 10.59375 -2.078125 L 10.59375 -9.640625 C 10.59375 -10.535156 10.398438 -11.179688 10.015625 -11.578125 C 9.628906 -11.972656 9.0625 -12.171875 8.3125 -12.171875 L 4.359375 -12.171875 L 4.359375 -2.078125 Z M 10.59375 -2.078125 "/></g></g></g><g fill="#000000" fill-opacity="1"><g transform="translate(106.864659, 299.186321)"><g><path d="M 11.125 0 L 5.8125 -8.09375 L 3.296875 0 L 0.703125 0 L 3.5 -8.71875 L 4.203125 -10.53125 L 1.875 -14.25 L 4.640625 -14.25 L 6.765625 -10.828125 L 8.90625 -7.640625 L 9.53125 -9.84375 L 10.828125 -14.25 L 13.4375 -14.25 L 10.5 -5.28125 L 14.03125 0 Z M 11.125 0 "/></g></g></g><g fill="#000000" fill-opacity="1"><g transform="translate(121.720064, 299.186321)"><g/></g></g><g fill="#000000" fill-opacity="1"><g transform="translate(126.790166, 299.186321)"><g><path d="M 1.0625 -7.328125 L 7 -7.328125 L 7 -5.421875 L 1.0625 -5.421875 Z M 1.0625 -7.328125 "/></g></g></g><g fill="#000000" fill-opacity="1"><g transform="translate(134.826283, 299.186321)"><g/></g></g><g fill="#000000" fill-opacity="1"><g transform="translate(139.896385, 299.186321)"><g><path d="M 1.78125 -11.28125 L 1.46875 -14.25 L 4.15625 -14.25 L 4.484375 -11.28125 L 4.484375 -7.4375 L 4.46875 -5.828125 L 1.78125 -5.328125 Z M 1.78125 -11.28125 "/></g></g></g><g fill="#000000" fill-opacity="1"><g transform="translate(145.980517, 299.186321)"><g><path d="M 1.109375 -2.078125 L 5.21875 -2.078125 L 5.21875 -10.046875 C 5.21875 -10.765625 5.070312 -11.289062 4.78125 -11.625 C 4.5 -11.957031 4.070312 -12.164062 3.5 -12.25 L 1.78125 -12.5 L 2.125 -14.5625 L 4.765625 -14.171875 C 5.785156 -14.023438 6.566406 -13.597656 7.109375 -12.890625 C 7.660156 -12.191406 7.9375 -11.257812 7.9375 -10.09375 L 7.9375 0 L 1.109375 0 Z M 1.109375 -2.078125 "/></g></g></g><g fill="#000000" fill-opacity="1"><g transform="translate(155.461617, 299.186321)"><g><path d="M 1.78125 -11.28125 L 1.46875 -14.25 L 4.15625 -14.25 L 4.484375 -11.28125 L 4.484375 0 L 1.78125 0 Z M 1.78125 -11.28125 "/></g></g></g><g fill="#000000" fill-opacity="1"><g transform="translate(161.545748, 299.186321)"><g><path d="M 8.796875 -6.109375 L 12.34375 0 L 0.890625 0 L 0.890625 -2.078125 L 8.375 -2.078125 L 1.296875 -14.25 L 4.0625 -14.25 L 7.328125 -8.625 L 9.6875 -14.25 L 12.40625 -14.25 Z M 8.796875 -6.109375 "/></g></g></g><g fill="#000000" fill-opacity="1"><g transform="translate(175.133633, 299.186321)"><g><path d="M 1.78125 -11.28125 L 1.46875 -14.25 L 4.15625 -14.25 L 4.484375 -11.28125 L 4.484375 -7.4375 L 4.46875 -5.828125 L 1.78125 -5.328125 Z M 1.78125 -11.28125 "/></g></g></g><g fill="#000000" fill-opacity="1"><g transform="translate(181.217764, 299.186321)"><g><path d="M 8.796875 -14.25 C 10.171875 -14.25 11.234375 -13.832031 11.984375 -13 C 12.734375 -12.175781 13.109375 -10.925781 13.109375 -9.25 L 13.109375 0 L 10.390625 0 L 10.390625 -9.390625 C 10.390625 -11.242188 9.628906 -12.171875 8.109375 -12.171875 L 4.203125 -12.171875 L 4.203125 0 L 1.5 0 L 1.5 -14.25 Z M 8.796875 -14.25 "/></g></g></g><g fill="#000000" fill-opacity="1"><g transform="translate(195.870367, 299.186321)"><g/></g></g><g fill="#000000" fill-opacity="1"><g transform="translate(200.940469, 299.186321)"><g><path d="M 9 -14.25 C 10.351562 -14.25 11.410156 -13.867188 12.171875 -13.109375 C 12.929688 -12.347656 13.3125 -11.148438 13.3125 -9.515625 L 13.3125 0 L 1.640625 0 L 1.640625 -14.25 Z M 10.59375 -2.078125 L 10.59375 -9.640625 C 10.59375 -10.535156 10.398438 -11.179688 10.015625 -11.578125 C 9.628906 -11.972656 9.0625 -12.171875 8.3125 -12.171875 L 4.359375 -12.171875 L 4.359375 -2.078125 Z M 10.59375 -2.078125 "/></g></g></g><g fill="#000000" fill-opacity="1"><g transform="translate(215.770523, 299.186321)"><g><path d="M 7.28125 -9.203125 C 7.28125 -10.523438 7.515625 -11.515625 7.984375 -12.171875 L 1.140625 -12.171875 L 1.140625 -14.25 L 12.453125 -14.25 L 12.453125 -12.171875 L 10.546875 -12.171875 C 10.171875 -11.460938 9.984375 -10.472656 9.984375 -9.203125 L 9.984375 0 L 7.28125 0 Z M 7.28125 -9.203125 "/></g></g></g><g fill="#000000" fill-opacity="1"><g transform="translate(229.434468, 299.186321)"><g><path d="M 11.125 0 L 5.8125 -8.09375 L 3.296875 0 L 0.703125 0 L 3.5 -8.71875 L 4.203125 -10.53125 L 1.875 -14.25 L 4.640625 -14.25 L 6.765625 -10.828125 L 8.90625 -7.640625 L 9.53125 -9.84375 L 10.828125 -14.25 L 13.4375 -14.25 L 10.5 -5.28125 L 14.03125 0 Z M 11.125 0 "/></g></g></g><g fill="#000000" fill-opacity="1"><g transform="translate(244.28985, 299.186321)"><g><path d="M 14.609375 -7.171875 C 14.609375 -4.804688 14.082031 -2.96875 13.03125 -1.65625 C 11.988281 -0.351562 10.503906 0.296875 8.578125 0.296875 C 7.859375 0.296875 7.128906 0.210938 6.390625 0.046875 L 6.671875 -2.03125 C 7.316406 -1.894531 7.863281 -1.828125 8.3125 -1.828125 C 9.601562 -1.828125 10.539062 -2.273438 11.125 -3.171875 C 11.71875 -4.066406 12.015625 -5.375 12.015625 -7.09375 C 12.015625 -8.9375 11.734375 -10.257812 11.171875 -11.0625 C 10.609375 -11.875 9.800781 -12.28125 8.75 -12.28125 C 7.9375 -12.28125 7.269531 -12.046875 6.75 -11.578125 C 6.238281 -11.109375 5.898438 -10.488281 5.734375 -9.71875 L 4.03125 0 L 1.3125 0 L 3.140625 -9.8125 L 1.171875 -14.25 L 3.984375 -14.25 L 5.125 -11.265625 C 5.476562 -12.328125 6.019531 -13.125 6.75 -13.65625 C 7.476562 -14.1875 8.304688 -14.453125 9.234375 -14.453125 C 10.921875 -14.453125 12.238281 -13.863281 13.1875 -12.6875 C 14.132812 -11.519531 14.609375 -9.679688 14.609375 -7.171875 Z M 14.609375 -7.171875 "/></g></g></g><g fill="#000000" fill-opacity="1"><g transform="translate(75.609741, 327.62382)"><g><path d="M 11.3125 -14.25 L 11.3125 -12 L 6.5625 0 L 3.859375 0 L 8.59375 -12.171875 L 0.96875 -12.171875 L 0.96875 -18.1875 L 3.421875 -18.1875 L 3.421875 -14.25 Z M 11.3125 -14.25 "/></g></g></g><g fill="#000000" fill-opacity="1"><g transform="translate(87.930094, 327.62382)"><g><path d="M 1.671875 -2.078125 L 6.265625 -2.078125 C 7.429688 -2.078125 8.351562 -2.421875 9.03125 -3.109375 C 9.707031 -3.804688 10.046875 -4.867188 10.046875 -6.296875 L 10.046875 -7.984375 C 10.046875 -9.316406 9.773438 -10.347656 9.234375 -11.078125 C 8.691406 -11.804688 7.878906 -12.171875 6.796875 -12.171875 L 4.515625 -12.171875 L 3.953125 -9.65625 C 3.867188 -9.269531 3.828125 -8.941406 3.828125 -8.671875 C 3.828125 -8.160156 3.96875 -7.765625 4.25 -7.484375 C 4.539062 -7.210938 5.019531 -7.007812 5.6875 -6.875 L 5.203125 -5.125 C 3.878906 -5.207031 2.914062 -5.539062 2.3125 -6.125 C 1.71875 -6.707031 1.421875 -7.515625 1.421875 -8.546875 C 1.421875 -9.035156 1.460938 -9.484375 1.546875 -9.890625 L 2.53125 -14.25 L 7.375 -14.25 C 9.070312 -14.25 10.390625 -13.691406 11.328125 -12.578125 C 12.273438 -11.460938 12.75 -9.898438 12.75 -7.890625 L 12.75 -6.421875 C 12.75 -4.304688 12.207031 -2.707031 11.125 -1.625 C 10.050781 -0.539062 8.617188 0 6.828125 0 L 1.671875 0 Z M 1.671875 -2.078125 "/></g></g></g><g fill="#000000" fill-opacity="1"><g transform="translate(101.82218, 327.62382)"><g><path d="M 1.140625 -14.25 L 3.859375 -14.25 L 5.21875 -2.203125 C 9.125 -2.597656 11.019531 -4.644531 10.90625 -8.34375 L 10.90625 -9.046875 C 10.90625 -9.960938 10.660156 -10.71875 10.171875 -11.3125 C 9.679688 -11.90625 8.953125 -12.234375 7.984375 -12.296875 L 6.71875 -12.375 L 6.921875 -14.5 L 8.421875 -14.421875 C 9.941406 -14.328125 11.15625 -13.859375 12.0625 -13.015625 C 12.976562 -12.179688 13.472656 -10.972656 13.546875 -9.390625 L 13.5625 -8.671875 C 13.664062 -5.734375 12.757812 -3.546875 10.84375 -2.109375 C 8.925781 -0.679688 6.257812 0.101562 2.84375 0.25 Z M 1.140625 -14.25 "/></g></g></g><g fill="#000000" fill-opacity="1"><g transform="translate(116.271981, 327.62382)"><g><path d="M 14.609375 -7.171875 C 14.609375 -4.804688 14.082031 -2.96875 13.03125 -1.65625 C 11.988281 -0.351562 10.503906 0.296875 8.578125 0.296875 C 7.859375 0.296875 7.128906 0.210938 6.390625 0.046875 L 6.671875 -2.03125 C 7.316406 -1.894531 7.863281 -1.828125 8.3125 -1.828125 C 9.601562 -1.828125 10.539062 -2.273438 11.125 -3.171875 C 11.71875 -4.066406 12.015625 -5.375 12.015625 -7.09375 C 12.015625 -8.9375 11.734375 -10.257812 11.171875 -11.0625 C 10.609375 -11.875 9.800781 -12.28125 8.75 -12.28125 C 7.9375 -12.28125 7.269531 -12.046875 6.75 -11.578125 C 6.238281 -11.109375 5.898438 -10.488281 5.734375 -9.71875 L 4.03125 0 L 1.3125 0 L 3.140625 -9.8125 L 1.171875 -14.25 L 3.984375 -14.25 L 5.125 -11.265625 C 5.476562 -12.328125 6.019531 -13.125 6.75 -13.65625 C 7.476562 -14.1875 8.304688 -14.453125 9.234375 -14.453125 C 10.921875 -14.453125 12.238281 -13.863281 13.1875 -12.6875 C 14.132812 -11.519531 14.609375 -9.679688 14.609375 -7.171875 Z M 14.609375 -7.171875 "/></g></g></g><g fill="#000000" fill-opacity="1"><g transform="translate(132.014652, 327.62382)"><g/></g></g><g fill="#000000" fill-opacity="1"><g transform="translate(137.084755, 327.62382)"><g><path d="M 9 -14.25 C 10.351562 -14.25 11.410156 -13.867188 12.171875 -13.109375 C 12.929688 -12.347656 13.3125 -11.148438 13.3125 -9.515625 L 13.3125 0 L 1.640625 0 L 1.640625 -14.25 Z M 10.59375 -2.078125 L 10.59375 -9.640625 C 10.59375 -10.535156 10.398438 -11.179688 10.015625 -11.578125 C 9.628906 -11.972656 9.0625 -12.171875 8.3125 -12.171875 L 4.359375 -12.171875 L 4.359375 -2.078125 Z M 10.59375 -2.078125 "/></g></g></g><g fill="#000000" fill-opacity="1"><g transform="translate(151.914808, 327.62382)"><g><path d="M 7.28125 -9.203125 C 7.28125 -10.523438 7.515625 -11.515625 7.984375 -12.171875 L 1.140625 -12.171875 L 1.140625 -14.25 L 12.453125 -14.25 L 12.453125 -12.171875 L 10.546875 -12.171875 C 10.171875 -11.460938 9.984375 -10.472656 9.984375 -9.203125 L 9.984375 0 L 7.28125 0 Z M 7.28125 -9.203125 "/></g></g></g><g fill="#000000" fill-opacity="1"><g transform="translate(165.578743, 327.62382)"><g><path d="M 11.125 0 L 5.8125 -8.09375 L 3.296875 0 L 0.703125 0 L 3.5 -8.71875 L 4.203125 -10.53125 L 1.875 -14.25 L 4.640625 -14.25 L 6.765625 -10.828125 L 8.90625 -7.640625 L 9.53125 -9.84375 L 10.828125 -14.25 L 13.4375 -14.25 L 10.5 -5.28125 L 14.03125 0 Z M 11.125 0 "/></g></g></g><g fill="#000000" fill-opacity="1"><g transform="translate(180.434147, 327.62382)"><g><path d="M 12.65625 -2.078125 L 12.65625 0 L 1.140625 0 L 1.140625 -2.078125 L 8.1875 -2.078125 L 8.1875 -9.640625 C 8.1875 -10.535156 7.992188 -11.179688 7.609375 -11.578125 C 7.222656 -11.972656 6.65625 -12.171875 5.90625 -12.171875 L 1.140625 -12.171875 L 1.140625 -14.25 L 6.59375 -14.25 C 7.945312 -14.25 9.003906 -13.867188 9.765625 -13.109375 C 10.523438 -12.347656 10.90625 -11.148438 10.90625 -9.515625 L 10.90625 -2.078125 Z M 12.65625 -2.078125 "/></g></g></g></svg>