<svg xmlns="http://www.w3.org/2000/svg" xmlns:xlink="http://www.w3.org/1999/xlink" width="324" zoomAndPan="magnify" viewBox="0 0 242.87999 269.999989" height="360" preserveAspectRatio="xMidYMid meet" version="1.0"><defs><g/><clipPath id="39e000cc7b"><path d="M 48.210938 46 L 127.671875 46 L 127.671875 154 L 48.210938 154 Z M 48.210938 46 " clip-rule="nonzero"/></clipPath><clipPath id="83230c2067"><path d="M 48.210938 23 L 127.671875 23 L 127.671875 47 L 48.210938 47 Z M 48.210938 23 " clip-rule="nonzero"/></clipPath><clipPath id="ae6283d3d2"><path d="M 48.210938 153 L 127.671875 153 L 127.671875 162.917969 L 48.210938 162.917969 Z M 48.210938 153 " clip-rule="nonzero"/></clipPath><clipPath id="2a5e10dbca"><path d="M 78 15.242188 L 99 15.242188 L 99 24 L 78 24 Z M 78 15.242188 " clip-rule="nonzero"/></clipPath><clipPath id="bf260d6e82"><path d="M 54 153 L 61 153 L 61 162.917969 L 54 162.917969 Z M 54 153 " clip-rule="nonzero"/></clipPath><clipPath id="22667e13e9"><path d="M 166.199219 23.445312 L 214.613281 23.445312 L 214.613281 71.839844 L 166.199219 71.839844 Z M 166.199219 23.445312 " clip-rule="nonzero"/></clipPath><clipPath id="ace50924f5"><path d="M 48.210938 145.121094 L 92.917969 145.121094 L 92.917969 189.84375 L 48.210938 189.84375 Z M 48.210938 145.121094 " clip-rule="nonzero"/></clipPath><clipPath id="af8d29568f"><rect x="0" width="121" y="0" height="36"/></clipPath></defs><g clip-path="url(#39e000cc7b)"><path fill="#062654" d="M 48.246094 46.121094 L 127.875 46.121094 L 127.875 153.363281 L 48.246094 153.363281 Z M 48.246094 46.121094 " fill-opacity="1" fill-rule="nonzero"/></g><path fill="#d67792" d="M 86.445312 96.320312 L 83.398438 68.363281 L 78.851562 109.984375 L 89.664062 103.160156 L 92.722656 131.125 L 97.269531 89.496094 Z M 86.445312 96.320312 " fill-opacity="1" fill-rule="nonzero"/><g clip-path="url(#83230c2067)"><path fill="#d67792" d="M 127.875 29.25 L 127.875 46.121094 L 48.246094 46.121094 L 48.246094 29.25 C 48.246094 25.960938 50.933594 23.273438 54.222656 23.273438 L 121.902344 23.273438 C 125.183594 23.273438 127.875 25.960938 127.875 29.25 Z M 127.875 29.25 " fill-opacity="1" fill-rule="nonzero"/></g><path fill="#062654" d="M 93.953125 33.226562 L 89.535156 33.226562 L 89.535156 28.808594 L 86.59375 28.808594 L 86.59375 33.226562 L 82.167969 33.226562 L 82.167969 36.171875 L 86.59375 36.171875 L 86.59375 40.59375 L 89.535156 40.59375 L 89.535156 36.171875 L 93.953125 36.171875 Z M 93.953125 33.226562 " fill-opacity="1" fill-rule="nonzero"/><g clip-path="url(#ae6283d3d2)"><path fill="#d67792" d="M 127.875 156.652344 L 127.875 153.363281 L 48.246094 153.363281 L 48.246094 156.652344 C 48.246094 159.941406 50.933594 162.628906 54.222656 162.628906 L 121.902344 162.628906 C 125.183594 162.628906 127.875 159.941406 127.875 156.652344 Z M 127.875 156.652344 " fill-opacity="1" fill-rule="nonzero"/></g><g clip-path="url(#2a5e10dbca)"><path fill="#bcd4e8" d="M 78.105469 23.273438 L 98.011719 23.273438 L 98.011719 19.292969 C 98.011719 18.277344 97.621094 17.257812 96.839844 16.476562 C 96.066406 15.703125 95.050781 15.308594 94.027344 15.308594 L 82.082031 15.308594 C 81.070312 15.308594 80.050781 15.703125 79.269531 16.476562 C 78.492188 17.257812 78.105469 18.277344 78.105469 19.292969 Z M 78.105469 23.273438 " fill-opacity="1" fill-rule="nonzero"/></g><path fill="#39527b" d="M 54.21875 46.121094 L 60.714844 46.121094 L 60.714844 153.363281 L 54.21875 153.363281 Z M 54.21875 46.121094 " fill-opacity="1" fill-rule="nonzero"/><path fill="#f7b7d2" d="M 54.21875 23.210938 L 60.714844 23.210938 L 60.714844 46.125 L 54.21875 46.125 Z M 54.21875 23.210938 " fill-opacity="1" fill-rule="nonzero"/><g clip-path="url(#bf260d6e82)"><path fill="#f7b7d2" d="M 54.21875 153.363281 L 60.714844 153.363281 L 60.714844 162.628906 L 54.21875 162.628906 Z M 54.21875 153.363281 " fill-opacity="1" fill-rule="nonzero"/></g><path fill="#f7c700" d="M 190.199219 94.328125 L 162.847656 106.308594 L 162.089844 107.066406 C 154.011719 109.34375 128.710938 84.042969 130.992188 75.964844 L 131.75 75.207031 L 143.722656 47.863281 C 148.941406 63.515625 174.609375 89.207031 190.199219 94.328125 " fill-opacity="1" fill-rule="evenodd"/><path fill="#112c59" d="M 213.667969 70.859375 L 190.199219 94.328125 C 188.398438 94.511719 185.242188 93.28125 181.304688 90.96875 C 175.804688 87.746094 169.054688 82.40625 162.351562 75.703125 C 155.652344 69.003906 150.308594 62.25 147.085938 56.753906 C 144.777344 52.816406 143.546875 49.664062 143.722656 47.863281 L 167.195312 24.390625 C 167.589844 27.65625 169.496094 31.21875 170.796875 33.4375 C 174.738281 40.15625 180.378906 46.691406 185.871094 52.183594 C 191.367188 57.679688 197.898438 63.320312 204.621094 67.261719 C 206.835938 68.558594 210.402344 70.464844 213.667969 70.859375 " fill-opacity="1" fill-rule="evenodd"/><g clip-path="url(#22667e13e9)"><path fill="#112c59" d="M 213.832031 70.695312 C 210.484375 74.042969 197.367188 66.355469 184.535156 53.519531 C 171.703125 40.691406 164.015625 27.574219 167.359375 24.226562 C 170.710938 20.878906 183.824219 28.566406 196.660156 41.398438 C 209.488281 54.230469 217.179688 67.347656 213.832031 70.695312 " fill-opacity="1" fill-rule="evenodd"/></g><path fill="#e7e5e7" d="M 211.890625 68.753906 C 212.027344 68.15625 211.632812 66.714844 211.484375 66.257812 C 210.796875 64.128906 209.589844 61.941406 208.417969 60.042969 C 204.730469 54.050781 199.707031 48.273438 194.746094 43.3125 C 189.78125 38.347656 184.003906 33.328125 178.015625 29.636719 C 176.113281 28.46875 173.929688 27.257812 171.800781 26.570312 C 171.339844 26.425781 169.902344 26.03125 169.300781 26.167969 C 169.167969 26.765625 169.558594 28.203125 169.707031 28.664062 C 170.394531 30.792969 171.605469 32.980469 172.773438 34.878906 C 176.460938 40.867188 181.484375 46.644531 186.449219 51.609375 C 191.410156 56.570312 197.1875 61.59375 203.175781 65.28125 C 205.078125 66.453125 207.261719 67.660156 209.390625 68.347656 C 209.851562 68.496094 211.292969 68.890625 211.890625 68.753906 " fill-opacity="1" fill-rule="evenodd"/><g clip-path="url(#ace50924f5)"><path fill="#112c59" d="M 92.492188 176.664062 L 80.089844 189.066406 L 80.101562 189.054688 C 77.335938 191.820312 68.132812 187.097656 59.542969 178.511719 C 50.957031 169.925781 46.234375 160.71875 49 157.957031 L 48.992188 157.96875 L 61.390625 145.566406 C 61.589844 147.207031 62.242188 149.113281 63.296875 151.167969 C 65.355469 155.175781 68.921875 159.953125 73.511719 164.542969 C 78.101562 169.136719 82.878906 172.703125 86.886719 174.757812 C 88.945312 175.8125 90.847656 176.464844 92.492188 176.664062 " fill-opacity="1" fill-rule="evenodd"/></g><path fill="#ffb33c" d="M 162.847656 106.308594 L 97.578125 171.578125 C 96.371094 172.0625 94.003906 171.398438 91.007812 169.863281 C 87.167969 167.894531 82.558594 164.441406 78.085938 159.96875 C 73.613281 155.5 70.160156 150.890625 68.191406 147.046875 C 66.65625 144.050781 65.992188 141.683594 66.480469 140.480469 L 131.75 75.207031 C 133.101562 86.230469 151.605469 104.929688 162.847656 106.308594 " fill-opacity="1" fill-rule="evenodd"/><path fill="#f7c700" d="M 98.339844 170.816406 L 91.730469 177.429688 C 90.523438 177.914062 88.152344 177.25 85.160156 175.714844 C 81.320312 173.746094 76.710938 170.292969 72.238281 165.820312 C 67.765625 161.347656 64.3125 156.734375 62.34375 152.894531 C 60.804688 149.902344 60.144531 147.535156 60.628906 146.328125 L 67.242188 139.71875 C 67.4375 141.359375 68.09375 143.261719 69.148438 145.316406 C 71.203125 149.328125 74.773438 154.105469 79.359375 158.695312 C 83.953125 163.285156 88.726562 166.851562 92.738281 168.910156 C 94.792969 169.964844 96.695312 170.617188 98.339844 170.816406 " fill-opacity="1" fill-rule="evenodd"/><path fill="#112c59" d="M 122.695312 111.113281 L 126.941406 115.363281 C 127.933594 116.355469 127.933594 117.976562 126.941406 118.96875 L 117.15625 128.753906 C 116.164062 129.746094 114.542969 129.746094 113.550781 128.753906 L 109.300781 124.507812 C 108.308594 123.515625 108.308594 121.894531 109.300781 120.902344 L 119.085938 111.113281 C 120.078125 110.121094 121.703125 110.121094 122.695312 111.113281 " fill-opacity="1" fill-rule="evenodd"/><g transform="matrix(1, 0, 0, 1, 55, 213)"><g clip-path="url(#af8d29568f)"><g fill="#000000" fill-opacity="1"><g transform="translate(0.952092, 27.425636)"><g><path d="M 0.53125 -1.546875 C 1.539062 -1.648438 2.21875 -1.921875 2.5625 -2.359375 C 2.914062 -2.796875 3.09375 -3.503906 3.09375 -4.484375 L 3.09375 -14.71875 L 10.15625 -14.71875 C 11.550781 -14.71875 12.640625 -14.320312 13.421875 -13.53125 C 14.210938 -12.75 14.609375 -11.507812 14.609375 -9.8125 L 14.609375 0 L 11.8125 0 L 11.8125 -9.953125 C 11.8125 -10.878906 11.609375 -11.546875 11.203125 -11.953125 C 10.804688 -12.359375 10.222656 -12.5625 9.453125 -12.5625 L 5.890625 -12.5625 L 5.890625 -4.796875 C 5.890625 -3.066406 5.488281 -1.804688 4.6875 -1.015625 C 3.882812 -0.234375 2.582031 0.242188 0.78125 0.421875 Z M 0.53125 -1.546875 "/></g></g></g><g fill="#000000" fill-opacity="1"><g transform="translate(17.132514, 27.425636)"><g><path d="M 1.828125 -11.65625 L 1.515625 -14.71875 L 4.296875 -14.71875 L 4.640625 -11.65625 L 4.640625 0 L 1.828125 0 Z M 1.828125 -11.65625 "/></g></g></g><g fill="#000000" fill-opacity="1"><g transform="translate(23.41618, 27.425636)"><g><path d="M 11.671875 -14.71875 L 11.671875 -12.390625 L 6.78125 0 L 3.984375 0 L 8.875 -12.5625 L 1 -12.5625 L 1 -18.78125 L 3.53125 -18.78125 L 3.53125 -14.71875 Z M 11.671875 -14.71875 "/></g></g></g><g fill="#000000" fill-opacity="1"><g transform="translate(36.14059, 27.425636)"><g><path d="M 11.671875 -14.71875 L 11.671875 -12.390625 L 6.78125 0 L 3.984375 0 L 8.875 -12.5625 L 1 -12.5625 L 1 -18.78125 L 3.53125 -18.78125 L 3.53125 -14.71875 Z M 11.671875 -14.71875 "/></g></g></g><g fill="#000000" fill-opacity="1"><g transform="translate(48.865, 27.425636)"><g><path d="M 1.828125 -11.65625 L 1.515625 -14.71875 L 4.296875 -14.71875 L 4.640625 -11.65625 L 4.640625 0 L 1.828125 0 Z M 1.828125 -11.65625 "/></g></g></g><g fill="#000000" fill-opacity="1"><g transform="translate(55.148666, 27.425636)"><g><path d="M 13.953125 -8.515625 C 14.054688 -5.492188 13.128906 -3.304688 11.171875 -1.953125 C 9.222656 -0.597656 6.484375 0.140625 2.953125 0.265625 L 1.4375 -12.5625 L 1.171875 -14.71875 L 8.71875 -14.71875 C 10.34375 -14.71875 11.601562 -14.238281 12.5 -13.28125 C 13.40625 -12.320312 13.882812 -11.007812 13.9375 -9.34375 Z M 5.421875 -2.28125 C 7.378906 -2.457031 8.84375 -3.019531 9.8125 -3.96875 C 10.789062 -4.914062 11.25 -6.445312 11.1875 -8.5625 L 11.1875 -9.265625 C 11.1875 -10.242188 10.945312 -11.035156 10.46875 -11.640625 C 10 -12.253906 9.347656 -12.5625 8.515625 -12.5625 L 4.25 -12.5625 Z M 5.421875 -2.28125 "/></g></g></g><g fill="#000000" fill-opacity="1"><g transform="translate(70.412722, 27.425636)"><g><path d="M 1.828125 -11.65625 L 1.515625 -14.71875 L 4.296875 -14.71875 L 4.640625 -11.65625 L 4.640625 0 L 1.828125 0 Z M 1.828125 -11.65625 "/></g></g></g><g fill="#000000" fill-opacity="1"><g transform="translate(76.696388, 27.425636)"><g/></g></g><g fill="#000000" fill-opacity="1"><g transform="translate(81.932769, 27.425636)"><g><path d="M 13.953125 -8.515625 C 14.054688 -5.492188 13.128906 -3.304688 11.171875 -1.953125 C 9.222656 -0.597656 6.484375 0.140625 2.953125 0.265625 L 1.4375 -12.5625 L 1.171875 -14.71875 L 8.71875 -14.71875 C 10.34375 -14.71875 11.601562 -14.238281 12.5 -13.28125 C 13.40625 -12.320312 13.882812 -11.007812 13.9375 -9.34375 Z M 5.421875 -2.28125 C 7.378906 -2.457031 8.84375 -3.019531 9.8125 -3.96875 C 10.789062 -4.914062 11.25 -6.445312 11.1875 -8.5625 L 11.1875 -9.265625 C 11.1875 -10.242188 10.945312 -11.035156 10.46875 -11.640625 C 10 -12.253906 9.347656 -12.5625 8.515625 -12.5625 L 4.25 -12.5625 Z M 5.421875 -2.28125 "/></g></g></g><g fill="#000000" fill-opacity="1"><g transform="translate(96.411249, 27.425636)"><g><path d="M 1.15625 -2.140625 L 5.390625 -2.140625 L 5.390625 -10.375 C 5.390625 -11.125 5.238281 -11.664062 4.9375 -12 C 4.644531 -12.34375 4.203125 -12.5625 3.609375 -12.65625 L 1.828125 -12.90625 L 2.203125 -15.03125 L 4.921875 -14.640625 C 5.972656 -14.484375 6.78125 -14.039062 7.34375 -13.3125 C 7.914062 -12.59375 8.203125 -11.628906 8.203125 -10.421875 L 8.203125 0 L 1.15625 0 Z M 1.15625 -2.140625 "/></g></g></g><g fill="#000000" fill-opacity="1"><g transform="translate(106.20329, 27.425636)"><g><path d="M 1.734375 -2.140625 L 6.46875 -2.140625 C 7.675781 -2.140625 8.628906 -2.5 9.328125 -3.21875 C 10.023438 -3.9375 10.375 -5.03125 10.375 -6.5 L 10.375 -8.25 C 10.375 -9.625 10.09375 -10.6875 9.53125 -11.4375 C 8.96875 -12.1875 8.128906 -12.5625 7.015625 -12.5625 L 4.65625 -12.5625 L 4.078125 -9.984375 C 3.992188 -9.578125 3.953125 -9.234375 3.953125 -8.953125 C 3.953125 -8.429688 4.097656 -8.023438 4.390625 -7.734375 C 4.691406 -7.453125 5.179688 -7.238281 5.859375 -7.09375 L 5.375 -5.296875 C 4.007812 -5.378906 3.015625 -5.722656 2.390625 -6.328125 C 1.773438 -6.929688 1.46875 -7.765625 1.46875 -8.828125 C 1.46875 -9.328125 1.507812 -9.789062 1.59375 -10.21875 L 2.625 -14.71875 L 7.625 -14.71875 C 9.363281 -14.71875 10.722656 -14.140625 11.703125 -12.984375 C 12.679688 -11.835938 13.171875 -10.222656 13.171875 -8.140625 L 13.171875 -6.625 C 13.171875 -4.445312 12.609375 -2.796875 11.484375 -1.671875 C 10.367188 -0.554688 8.890625 0 7.046875 0 L 1.734375 0 Z M 1.734375 -2.140625 "/></g></g></g></g></g></svg>