<svg xmlns="http://www.w3.org/2000/svg" xmlns:xlink="http://www.w3.org/1999/xlink" width="324" zoomAndPan="magnify" viewBox="0 0 242.87999 269.999989" height="360" preserveAspectRatio="xMidYMid meet" version="1.0"><defs><g/><clipPath id="d12eb5d995"><path d="M 173.597656 103 L 231.320312 103 L 231.320312 182 L 173.597656 182 Z M 173.597656 103 " clip-rule="nonzero"/></clipPath><clipPath id="70f5bbdaaa"><path d="M 173.597656 87 L 231.320312 87 L 231.320312 104 L 173.597656 104 Z M 173.597656 87 " clip-rule="nonzero"/></clipPath><clipPath id="a9ab69b5b5"><path d="M 173.597656 181 L 231.320312 181 L 231.320312 187.910156 L 173.597656 187.910156 Z M 173.597656 181 " clip-rule="nonzero"/></clipPath><clipPath id="0dc66397b6"><path d="M 195 81.460938 L 210 81.460938 L 210 88 L 195 88 Z M 195 81.460938 " clip-rule="nonzero"/></clipPath><clipPath id="357000928d"><path d="M 177 181 L 183 181 L 183 187.910156 L 177 187.910156 Z M 177 181 " clip-rule="nonzero"/></clipPath><clipPath id="a704610f97"><path d="M 185 87 L 197.601562 87 L 197.601562 126 L 185 126 Z M 185 87 " clip-rule="nonzero"/></clipPath><clipPath id="93f5771d62"><path d="M 11.695312 67 L 191 67 L 191 189.199219 L 11.695312 189.199219 Z M 11.695312 67 " clip-rule="nonzero"/></clipPath><clipPath id="436b1e12de"><path d="M 138 5.539062 L 145 5.539062 L 145 12 L 138 12 Z M 138 5.539062 " clip-rule="nonzero"/></clipPath></defs><g fill="#000000" fill-opacity="1"><g transform="translate(53.16057, 252.89385)"><g><path d="M 0.515625 -1.5 C 1.492188 -1.601562 2.148438 -1.863281 2.484375 -2.28125 C 2.828125 -2.707031 3 -3.394531 3 -4.34375 L 3 -14.265625 L 9.859375 -14.265625 C 11.210938 -14.265625 12.269531 -13.882812 13.03125 -13.125 C 13.789062 -12.363281 14.171875 -11.160156 14.171875 -9.515625 L 14.171875 0 L 11.453125 0 L 11.453125 -9.65625 C 11.453125 -10.550781 11.253906 -11.195312 10.859375 -11.59375 C 10.472656 -11.988281 9.910156 -12.1875 9.171875 -12.1875 L 5.71875 -12.1875 L 5.71875 -4.640625 C 5.71875 -2.972656 5.328125 -1.753906 4.546875 -0.984375 C 3.765625 -0.222656 2.503906 0.238281 0.765625 0.40625 Z M 0.515625 -1.5 "/></g></g></g><g fill="#000000" fill-opacity="1"><g transform="translate(68.853869, 252.89385)"><g><path d="M 1.78125 -11.296875 L 1.46875 -14.265625 L 4.171875 -14.265625 L 4.5 -11.296875 L 4.5 0 L 1.78125 0 Z M 1.78125 -11.296875 "/></g></g></g><g fill="#000000" fill-opacity="1"><g transform="translate(74.948361, 252.89385)"><g><path d="M 11.328125 -14.265625 L 11.328125 -12.015625 L 6.578125 0 L 3.859375 0 L 8.609375 -12.1875 L 0.96875 -12.1875 L 0.96875 -18.203125 L 3.421875 -18.203125 L 3.421875 -14.265625 Z M 11.328125 -14.265625 "/></g></g></g><g fill="#000000" fill-opacity="1"><g transform="translate(87.289693, 252.89385)"><g><path d="M 11.328125 -14.265625 L 11.328125 -12.015625 L 6.578125 0 L 3.859375 0 L 8.609375 -12.1875 L 0.96875 -12.1875 L 0.96875 -18.203125 L 3.421875 -18.203125 L 3.421875 -14.265625 Z M 11.328125 -14.265625 "/></g></g></g><g fill="#000000" fill-opacity="1"><g transform="translate(99.631026, 252.89385)"><g><path d="M 1.78125 -11.296875 L 1.46875 -14.265625 L 4.171875 -14.265625 L 4.5 -11.296875 L 4.5 0 L 1.78125 0 Z M 1.78125 -11.296875 "/></g></g></g><g fill="#000000" fill-opacity="1"><g transform="translate(105.725518, 252.89385)"><g><path d="M 13.53125 -8.25 C 13.632812 -5.320312 12.738281 -3.203125 10.84375 -1.890625 C 8.945312 -0.578125 6.289062 0.132812 2.875 0.25 L 1.390625 -12.1875 L 1.140625 -14.265625 L 8.453125 -14.265625 C 10.023438 -14.265625 11.25 -13.800781 12.125 -12.875 C 13 -11.945312 13.460938 -10.675781 13.515625 -9.0625 Z M 5.25 -2.203125 C 7.144531 -2.378906 8.566406 -2.925781 9.515625 -3.84375 C 10.460938 -4.769531 10.90625 -6.253906 10.84375 -8.296875 L 10.84375 -8.984375 C 10.84375 -9.929688 10.613281 -10.703125 10.15625 -11.296875 C 9.695312 -11.890625 9.0625 -12.1875 8.25 -12.1875 L 4.109375 -12.1875 Z M 5.25 -2.203125 "/></g></g></g><g fill="#000000" fill-opacity="1"><g transform="translate(120.530039, 252.89385)"><g><path d="M 1.78125 -11.296875 L 1.46875 -14.265625 L 4.171875 -14.265625 L 4.5 -11.296875 L 4.5 0 L 1.78125 0 Z M 1.78125 -11.296875 "/></g></g></g><g fill="#000000" fill-opacity="1"><g transform="translate(126.624531, 252.89385)"><g/></g></g><g fill="#000000" fill-opacity="1"><g transform="translate(131.703267, 252.89385)"><g><path d="M 1.78125 -11.296875 L 1.46875 -14.265625 L 4.171875 -14.265625 L 4.5 -11.296875 L 4.5 0 L 1.78125 0 Z M 1.78125 -11.296875 "/></g></g></g><g fill="#000000" fill-opacity="1"><g transform="translate(137.797759, 252.89385)"><g><path d="M 1.78125 -11.296875 L 1.46875 -14.265625 L 4.171875 -14.265625 L 4.5 -11.296875 L 4.5 -7.4375 L 4.46875 -5.84375 L 1.78125 -5.328125 Z M 1.78125 -11.296875 "/></g></g></g><g fill="#000000" fill-opacity="1"><g transform="translate(143.892251, 252.89385)"><g><path d="M 7.28125 -9.21875 C 7.28125 -10.539062 7.519531 -11.53125 8 -12.1875 L 1.140625 -12.1875 L 1.140625 -14.265625 L 12.46875 -14.265625 L 12.46875 -12.1875 L 10.5625 -12.1875 C 10.1875 -11.476562 10 -10.488281 10 -9.21875 L 10 0 L 7.28125 0 Z M 7.28125 -9.21875 "/></g></g></g><g fill="#000000" fill-opacity="1"><g transform="translate(157.579453, 252.89385)"><g><path d="M 7.875 -9.65625 C 7.875 -10.550781 7.675781 -11.195312 7.28125 -11.59375 C 6.894531 -11.988281 6.332031 -12.1875 5.59375 -12.1875 L 0.890625 -12.1875 L 0.890625 -14.265625 L 6.265625 -14.265625 C 7.617188 -14.265625 8.675781 -13.882812 9.4375 -13.125 C 10.207031 -12.363281 10.59375 -11.160156 10.59375 -9.515625 L 10.59375 0 L 7.875 0 Z M 7.875 -9.65625 "/></g></g></g><g clip-path="url(#d12eb5d995)"><path fill="#062654" d="M 173.621094 103.769531 L 231.125 103.769531 L 231.125 181.210938 L 173.621094 181.210938 Z M 173.621094 103.769531 " fill-opacity="1" fill-rule="nonzero"/></g><path fill="#d67792" d="M 201.207031 140.019531 L 199.007812 119.832031 L 195.722656 149.886719 L 203.53125 144.957031 L 205.742188 165.152344 L 209.023438 135.089844 Z M 201.207031 140.019531 " fill-opacity="1" fill-rule="nonzero"/><g clip-path="url(#70f5bbdaaa)"><path fill="#d67792" d="M 231.125 91.585938 L 231.125 103.769531 L 173.621094 103.769531 L 173.621094 91.585938 C 173.621094 89.210938 175.5625 87.269531 177.9375 87.269531 L 226.8125 87.269531 C 229.179688 87.269531 231.125 89.210938 231.125 91.585938 Z M 231.125 91.585938 " fill-opacity="1" fill-rule="nonzero"/></g><path fill="#062654" d="M 206.628906 94.457031 L 203.4375 94.457031 L 203.4375 91.265625 L 201.316406 91.265625 L 201.316406 94.457031 L 198.121094 94.457031 L 198.121094 96.582031 L 201.316406 96.582031 L 201.316406 99.777344 L 203.4375 99.777344 L 203.4375 96.582031 L 206.628906 96.582031 Z M 206.628906 94.457031 " fill-opacity="1" fill-rule="nonzero"/><g clip-path="url(#a9ab69b5b5)"><path fill="#d67792" d="M 231.125 183.585938 L 231.125 181.210938 L 173.621094 181.210938 L 173.621094 183.585938 C 173.621094 185.960938 175.5625 187.898438 177.9375 187.898438 L 226.8125 187.898438 C 229.179688 187.898438 231.125 185.960938 231.125 183.585938 Z M 231.125 183.585938 " fill-opacity="1" fill-rule="nonzero"/></g><g clip-path="url(#0dc66397b6)"><path fill="#bcd4e8" d="M 195.1875 87.269531 L 209.558594 87.269531 L 209.558594 84.394531 C 209.558594 83.664062 209.277344 82.925781 208.714844 82.359375 C 208.152344 81.800781 207.421875 81.519531 206.683594 81.519531 L 198.058594 81.519531 C 197.324219 81.519531 196.589844 81.804688 196.027344 82.359375 C 195.464844 82.925781 195.183594 83.664062 195.183594 84.394531 L 195.183594 87.269531 Z M 195.1875 87.269531 " fill-opacity="1" fill-rule="nonzero"/></g><path fill="#39527b" d="M 177.9375 103.769531 L 182.625 103.769531 L 182.625 181.210938 L 177.9375 181.210938 Z M 177.9375 103.769531 " fill-opacity="1" fill-rule="nonzero"/><path fill="#f7b7d2" d="M 177.9375 87.222656 L 182.625 87.222656 L 182.625 103.769531 L 177.9375 103.769531 Z M 177.9375 87.222656 " fill-opacity="1" fill-rule="nonzero"/><g clip-path="url(#357000928d)"><path fill="#f7b7d2" d="M 177.9375 181.210938 L 182.625 181.210938 L 182.625 187.898438 L 177.9375 187.898438 Z M 177.9375 181.210938 " fill-opacity="1" fill-rule="nonzero"/></g><g clip-path="url(#a704610f97)"><path fill="#062654" d="M 197.269531 119.078125 C 197.269531 122.386719 194.585938 125.070312 191.277344 125.070312 C 187.964844 125.070312 185.28125 122.386719 185.28125 119.078125 L 185.28125 93.429688 C 185.28125 90.117188 187.964844 87.433594 191.277344 87.433594 C 194.585938 87.433594 197.269531 90.117188 197.269531 93.429688 L 197.269531 119.078125 " fill-opacity="1" fill-rule="nonzero"/></g><g clip-path="url(#93f5771d62)"><path fill="#b6eaff" d="M 190.171875 174.429688 C 190.171875 182.527344 183.605469 189.085938 175.515625 189.085938 L 26.339844 189.085938 C 18.242188 189.085938 11.683594 182.527344 11.683594 174.429688 L 11.683594 82.363281 C 11.683594 74.273438 18.242188 67.707031 26.339844 67.707031 L 175.515625 67.707031 C 183.605469 67.707031 190.171875 74.273438 190.171875 82.363281 L 190.171875 174.429688 " fill-opacity="1" fill-rule="nonzero"/></g><path fill="#ffffff" d="M 177.742188 94.207031 C 177.742188 102.054688 173.214844 108.421875 167.621094 108.421875 L 84.171875 108.421875 C 78.597656 108.421875 74.0625 102.054688 74.0625 94.207031 C 74.0625 86.359375 78.597656 80 84.171875 80 L 167.621094 80 C 173.214844 80 177.742188 86.359375 177.742188 94.207031 " fill-opacity="1" fill-rule="nonzero"/><path fill="#062654" d="M 43.4375 97.097656 C 43.4375 102.4375 39.109375 106.757812 33.777344 106.757812 C 28.4375 106.757812 24.113281 102.4375 24.113281 97.097656 C 24.113281 91.765625 28.4375 87.433594 33.777344 87.433594 C 39.109375 87.433594 43.4375 91.765625 43.4375 97.097656 " fill-opacity="1" fill-rule="nonzero"/><path fill="#062654" d="M 66.738281 97.097656 C 66.738281 102.4375 62.417969 106.757812 57.074219 106.757812 C 51.746094 106.757812 47.414062 102.4375 47.414062 97.097656 C 47.414062 91.765625 51.746094 87.433594 57.074219 87.433594 C 62.417969 87.433594 66.738281 91.765625 66.738281 97.097656 " fill-opacity="1" fill-rule="nonzero"/><path fill="#062654" d="M 174.410156 146.714844 C 174.410156 159.828125 163.777344 170.472656 150.65625 170.472656 C 137.542969 170.472656 126.898438 159.828125 126.898438 146.714844 C 126.898438 133.59375 137.542969 122.957031 150.65625 122.957031 C 163.777344 122.957031 174.410156 133.59375 174.410156 146.714844 " fill-opacity="1" fill-rule="nonzero"/><path fill="#062654" d="M 108.398438 138.089844 C 104.796875 138.089844 101.878906 135.183594 101.878906 131.582031 C 101.878906 127.980469 104.796875 125.070312 108.398438 125.070312 C 111.988281 125.070312 114.90625 127.980469 114.90625 131.582031 C 114.90625 135.183594 111.988281 138.089844 108.398438 138.089844 " fill-opacity="1" fill-rule="nonzero"/><path fill="#062654" d="M 108.398438 155.226562 C 104.796875 155.226562 101.878906 152.308594 101.878906 148.707031 C 101.878906 145.117188 104.796875 142.199219 108.398438 142.199219 C 111.988281 142.199219 114.90625 145.117188 114.90625 148.707031 C 114.90625 152.308594 111.988281 155.226562 108.398438 155.226562 " fill-opacity="1" fill-rule="nonzero"/><path fill="#062654" d="M 108.398438 172.351562 C 104.796875 172.351562 101.878906 169.445312 101.878906 165.84375 C 101.878906 162.25 104.796875 159.332031 108.398438 159.332031 C 111.988281 159.332031 114.90625 162.25 114.90625 165.84375 C 114.90625 169.445312 111.988281 172.351562 108.398438 172.351562 " fill-opacity="1" fill-rule="nonzero"/><path fill="#ec1b24" d="M 84.722656 100.425781 L 86.042969 87.433594 L 87.378906 100.425781 Z M 84.722656 100.425781 " fill-opacity="1" fill-rule="nonzero"/><path fill="#b6eaff" d="M 94.703125 100.425781 L 92.046875 100.425781 L 92.046875 93.933594 L 94.703125 93.933594 L 94.703125 100.425781 " fill-opacity="1" fill-rule="nonzero"/><path fill="#b6eaff" d="M 104.253906 100.425781 L 101.597656 100.425781 L 101.597656 93.933594 L 104.253906 93.933594 L 104.253906 100.425781 " fill-opacity="1" fill-rule="nonzero"/><path fill="#b6eaff" d="M 113.804688 100.425781 L 111.136719 100.425781 L 111.136719 93.933594 L 113.804688 93.933594 L 113.804688 100.425781 " fill-opacity="1" fill-rule="nonzero"/><path fill="#b6eaff" d="M 123.34375 100.425781 L 120.6875 100.425781 L 120.6875 93.933594 L 123.34375 93.933594 L 123.34375 100.425781 " fill-opacity="1" fill-rule="nonzero"/><path fill="#b6eaff" d="M 132.894531 100.425781 L 130.226562 100.425781 L 130.226562 93.933594 L 132.894531 93.933594 L 132.894531 100.425781 " fill-opacity="1" fill-rule="nonzero"/><path fill="#b6eaff" d="M 142.441406 100.425781 L 139.777344 100.425781 L 139.777344 93.933594 L 142.441406 93.933594 L 142.441406 100.425781 " fill-opacity="1" fill-rule="nonzero"/><path fill="#b6eaff" d="M 151.984375 100.425781 L 149.328125 100.425781 L 149.328125 93.933594 L 151.984375 93.933594 L 151.984375 100.425781 " fill-opacity="1" fill-rule="nonzero"/><path fill="#b6eaff" d="M 161.542969 100.425781 L 158.867188 100.425781 L 158.867188 93.933594 L 161.542969 93.933594 L 161.542969 100.425781 " fill-opacity="1" fill-rule="nonzero"/><path fill="#b6eaff" d="M 171.082031 100.425781 L 168.417969 100.425781 L 168.417969 93.933594 L 171.082031 93.933594 L 171.082031 100.425781 " fill-opacity="1" fill-rule="nonzero"/><path fill="#b6eaff" d="M 80.945312 100.425781 L 78.28125 100.425781 L 78.28125 93.933594 L 80.945312 93.933594 L 80.945312 100.425781 " fill-opacity="1" fill-rule="nonzero"/><path fill="#b6eaff" d="M 181.285156 101.753906 L 71.957031 101.753906 L 71.957031 99.097656 L 181.285156 99.097656 L 181.285156 101.753906 " fill-opacity="1" fill-rule="nonzero"/><path fill="#d3d2d2" d="M 38.761719 67.707031 L 36.097656 67.707031 L 36.097656 50.917969 L 140.601562 7.511719 L 141.621094 9.972656 L 38.761719 52.707031 L 38.761719 67.707031 " fill-opacity="1" fill-rule="nonzero"/><g clip-path="url(#436b1e12de)"><path fill="#d3d2d2" d="M 144.21875 8.746094 C 144.21875 10.457031 142.824219 11.851562 141.113281 11.851562 C 139.394531 11.851562 138 10.457031 138 8.746094 C 138 7.023438 139.394531 5.632812 141.113281 5.632812 C 142.824219 5.632812 144.21875 7.023438 144.21875 8.746094 " fill-opacity="1" fill-rule="nonzero"/></g><path fill="#b6eaff" d="M 44.09375 64.050781 C 44.09375 60.367188 41.109375 57.390625 37.433594 57.390625 C 33.75 57.390625 30.773438 60.367188 30.773438 64.050781 L 30.773438 71.375 C 30.773438 75.050781 33.75 78.035156 37.433594 78.035156 C 41.109375 78.035156 44.09375 75.050781 44.09375 71.375 L 44.09375 64.050781 " fill-opacity="1" fill-rule="nonzero"/><path fill="#062654" d="M 40.761719 169.023438 C 40.761719 170.867188 39.277344 172.351562 37.433594 172.351562 C 35.589844 172.351562 34.105469 170.867188 34.105469 169.023438 L 34.105469 124.40625 C 34.105469 122.566406 35.589844 121.070312 37.433594 121.070312 C 39.277344 121.070312 40.761719 122.566406 40.761719 124.40625 L 40.761719 169.023438 " fill-opacity="1" fill-rule="nonzero"/><path fill="#062654" d="M 54.074219 169.023438 C 54.074219 170.867188 52.578125 172.351562 50.742188 172.351562 C 48.902344 172.351562 47.414062 170.867188 47.414062 169.023438 L 47.414062 124.40625 C 47.414062 122.566406 48.902344 121.070312 50.742188 121.070312 C 52.578125 121.070312 54.074219 122.566406 54.074219 124.40625 L 54.074219 169.023438 " fill-opacity="1" fill-rule="nonzero"/><path fill="#062654" d="M 67.382812 169.023438 C 67.382812 170.867188 65.894531 172.351562 64.054688 172.351562 C 62.210938 172.351562 60.722656 170.867188 60.722656 169.023438 L 60.722656 124.40625 C 60.722656 122.566406 62.210938 121.070312 64.054688 121.070312 C 65.894531 121.070312 67.382812 122.566406 67.382812 124.40625 L 67.382812 169.023438 " fill-opacity="1" fill-rule="nonzero"/><path fill="#062654" d="M 80.703125 169.023438 C 80.703125 170.867188 79.207031 172.351562 77.363281 172.351562 C 75.519531 172.351562 74.03125 170.867188 74.03125 169.023438 L 74.03125 124.40625 C 74.03125 122.566406 75.519531 121.070312 77.363281 121.070312 C 79.207031 121.070312 80.703125 122.566406 80.703125 124.40625 L 80.703125 169.023438 " fill-opacity="1" fill-rule="nonzero"/><path fill="#062654" d="M 94.003906 169.023438 C 94.003906 170.867188 92.515625 172.351562 90.671875 172.351562 C 88.839844 172.351562 87.34375 170.867188 87.34375 169.023438 L 87.34375 124.40625 C 87.34375 122.566406 88.839844 121.070312 90.671875 121.070312 C 92.515625 121.070312 94.003906 122.566406 94.003906 124.40625 L 94.003906 169.023438 " fill-opacity="1" fill-rule="nonzero"/></svg>