<svg xmlns="http://www.w3.org/2000/svg" xmlns:xlink="http://www.w3.org/1999/xlink" width="361" zoomAndPan="magnify" viewBox="0 0 270.75 278.250005" height="371" preserveAspectRatio="xMidYMid meet" version="1.0"><defs><g/></defs><g fill="#000000" fill-opacity="1"><g transform="translate(50.147763, 241.974043)"><g><path d="M 9.984375 -9.625 C 9.984375 -10.519531 9.785156 -11.164062 9.390625 -11.5625 C 9.003906 -11.957031 8.441406 -12.15625 7.703125 -12.15625 L 1.46875 -12.15625 L 1.46875 -14.234375 L 8.390625 -14.234375 C 9.734375 -14.234375 10.785156 -13.851562 11.546875 -13.09375 C 12.304688 -12.332031 12.6875 -11.132812 12.6875 -9.5 L 12.6875 0 L 9.984375 0 Z M 1.390625 -6.890625 L 1.765625 -8.59375 L 4.109375 -8.59375 L 4.109375 0 L 1.390625 0 Z M 1.390625 -6.890625 "/></g></g></g><g fill="#000000" fill-opacity="1"><g transform="translate(64.279871, 241.974043)"><g><path d="M 1.671875 -2.078125 L 6.25 -2.078125 C 7.414062 -2.078125 8.335938 -2.421875 9.015625 -3.109375 C 9.691406 -3.804688 10.03125 -4.863281 10.03125 -6.28125 L 10.03125 -7.984375 C 10.03125 -9.316406 9.757812 -10.34375 9.21875 -11.0625 C 8.675781 -11.789062 7.863281 -12.15625 6.78125 -12.15625 L 4.515625 -12.15625 L 3.953125 -9.65625 C 3.867188 -9.257812 3.828125 -8.925781 3.828125 -8.65625 C 3.828125 -8.15625 3.96875 -7.765625 4.25 -7.484375 C 4.539062 -7.203125 5.015625 -6.992188 5.671875 -6.859375 L 5.1875 -5.109375 C 3.875 -5.203125 2.914062 -5.535156 2.3125 -6.109375 C 1.71875 -6.691406 1.421875 -7.5 1.421875 -8.53125 C 1.421875 -9.019531 1.460938 -9.46875 1.546875 -9.875 L 2.53125 -14.234375 L 7.375 -14.234375 C 9.0625 -14.234375 10.375 -13.675781 11.3125 -12.5625 C 12.257812 -11.445312 12.734375 -9.882812 12.734375 -7.875 L 12.734375 -6.40625 C 12.734375 -4.289062 12.191406 -2.691406 11.109375 -1.609375 C 10.035156 -0.535156 8.601562 0 6.8125 0 L 1.671875 0 Z M 1.671875 -2.078125 "/></g></g></g><g fill="#000000" fill-opacity="1"><g transform="translate(78.158718, 241.974043)"><g/></g></g><g fill="#000000" fill-opacity="1"><g transform="translate(83.223987, 241.974043)"><g><path d="M 8.984375 -14.234375 C 10.335938 -14.234375 11.394531 -13.851562 12.15625 -13.09375 C 12.914062 -12.332031 13.296875 -11.132812 13.296875 -9.5 L 13.296875 0 L 1.640625 0 L 1.640625 -14.234375 Z M 10.59375 -2.078125 L 10.59375 -9.625 C 10.59375 -10.519531 10.394531 -11.164062 10 -11.5625 C 9.613281 -11.957031 9.050781 -12.15625 8.3125 -12.15625 L 4.359375 -12.15625 L 4.359375 -2.078125 Z M 10.59375 -2.078125 "/></g></g></g><g fill="#000000" fill-opacity="1"><g transform="translate(98.039901, 241.974043)"><g><path d="M 1.765625 -11.265625 L 1.46875 -14.234375 L 4.15625 -14.234375 L 4.484375 -11.265625 L 4.484375 0 L 1.765625 0 Z M 1.765625 -11.265625 "/></g></g></g><g fill="#000000" fill-opacity="1"><g transform="translate(104.118229, 241.974043)"><g><path d="M 13.5 -8.234375 C 13.601562 -5.304688 12.707031 -3.1875 10.8125 -1.875 C 8.925781 -0.570312 6.273438 0.132812 2.859375 0.25 L 1.390625 -12.15625 L 1.140625 -14.234375 L 8.4375 -14.234375 C 10.007812 -14.234375 11.226562 -13.769531 12.09375 -12.84375 C 12.96875 -11.914062 13.425781 -10.648438 13.46875 -9.046875 Z M 5.25 -2.203125 C 7.132812 -2.367188 8.550781 -2.910156 9.5 -3.828125 C 10.445312 -4.753906 10.882812 -6.238281 10.8125 -8.28125 L 10.8125 -8.96875 C 10.8125 -9.914062 10.582031 -10.679688 10.125 -11.265625 C 9.675781 -11.859375 9.046875 -12.15625 8.234375 -12.15625 L 4.109375 -12.15625 Z M 5.25 -2.203125 "/></g></g></g><g fill="#000000" fill-opacity="1"><g transform="translate(118.883491, 241.974043)"><g><path d="M 8.78125 -14.234375 C 10.15625 -14.234375 11.21875 -13.816406 11.96875 -12.984375 C 12.71875 -12.160156 13.09375 -10.914062 13.09375 -9.25 L 13.09375 0 L 10.390625 0 L 10.390625 -9.375 C 10.390625 -11.226562 9.628906 -12.15625 8.109375 -12.15625 L 4.203125 -12.15625 L 4.203125 0 L 1.5 0 L 1.5 -14.234375 Z M 8.78125 -14.234375 "/></g></g></g><g fill="#000000" fill-opacity="1"><g transform="translate(133.522123, 241.974043)"><g><path d="M 14.59375 -7.171875 C 14.59375 -4.804688 14.066406 -2.96875 13.015625 -1.65625 C 11.972656 -0.351562 10.488281 0.296875 8.5625 0.296875 C 7.851562 0.296875 7.125 0.210938 6.375 0.046875 L 6.65625 -2.03125 C 7.300781 -1.894531 7.851562 -1.828125 8.3125 -1.828125 C 9.59375 -1.828125 10.523438 -2.273438 11.109375 -3.171875 C 11.703125 -4.066406 12 -5.375 12 -7.09375 C 12 -8.9375 11.71875 -10.257812 11.15625 -11.0625 C 10.59375 -11.863281 9.785156 -12.265625 8.734375 -12.265625 C 7.921875 -12.265625 7.257812 -12.03125 6.75 -11.5625 C 6.238281 -11.09375 5.894531 -10.472656 5.71875 -9.703125 L 4.03125 0 L 1.3125 0 L 3.140625 -9.796875 L 1.171875 -14.234375 L 3.96875 -14.234375 L 5.109375 -11.25 C 5.460938 -12.3125 6.003906 -13.109375 6.734375 -13.640625 C 7.460938 -14.171875 8.289062 -14.4375 9.21875 -14.4375 C 10.90625 -14.4375 12.222656 -13.847656 13.171875 -12.671875 C 14.117188 -11.503906 14.59375 -9.671875 14.59375 -7.171875 Z M 14.59375 -7.171875 "/></g></g></g><g fill="#000000" fill-opacity="1"><g transform="translate(149.249792, 241.974043)"><g><path d="M 1.765625 -11.265625 L 1.46875 -14.234375 L 4.15625 -14.234375 L 4.484375 -11.265625 L 4.484375 0 L 1.765625 0 Z M 1.765625 -11.265625 "/></g></g></g><g fill="#000000" fill-opacity="1"><g transform="translate(155.32812, 241.974043)"><g/></g></g><g fill="#000000" fill-opacity="1"><g transform="translate(160.393389, 241.974043)"><g><path d="M 9.984375 -9.625 C 9.984375 -10.519531 9.785156 -11.164062 9.390625 -11.5625 C 9.003906 -11.957031 8.441406 -12.15625 7.703125 -12.15625 L 1.46875 -12.15625 L 1.46875 -14.234375 L 8.390625 -14.234375 C 9.734375 -14.234375 10.785156 -13.851562 11.546875 -13.09375 C 12.304688 -12.332031 12.6875 -11.132812 12.6875 -9.5 L 12.6875 0 L 9.984375 0 Z M 1.390625 -6.890625 L 1.765625 -8.59375 L 4.109375 -8.59375 L 4.109375 0 L 1.390625 0 Z M 1.390625 -6.890625 "/></g></g></g><g fill="#000000" fill-opacity="1"><g transform="translate(174.525497, 241.974043)"><g><path d="M 12.734375 -14.234375 C 12.734375 -10.828125 12.601562 -8.265625 12.34375 -6.546875 C 12.082031 -4.828125 11.445312 -3.429688 10.4375 -2.359375 C 9.4375 -1.296875 7.820312 -0.539062 5.59375 -0.09375 L 0.828125 0.828125 L 0.453125 -1.296875 L 4.734375 -2.125 L 1.625 -14.234375 L 4.328125 -14.234375 L 7.171875 -2.765625 C 8.078125 -3.171875 8.734375 -3.773438 9.140625 -4.578125 C 9.546875 -5.390625 9.800781 -6.414062 9.90625 -7.65625 C 10.007812 -8.894531 10.0625 -10.757812 10.0625 -13.25 L 10.0625 -14.234375 Z M 12.734375 -14.234375 "/></g></g></g><g fill="#000000" fill-opacity="1"><g transform="translate(188.480322, 241.974043)"><g><path d="M 1.765625 -11.265625 L 1.46875 -14.234375 L 4.15625 -14.234375 L 4.484375 -11.265625 L 4.484375 0 L 1.765625 0 Z M 1.765625 -11.265625 "/></g></g></g><g fill="#000000" fill-opacity="1"><g transform="translate(194.558649, 241.974043)"><g><path d="M 8.78125 -6.109375 L 12.328125 0 L 0.890625 0 L 0.890625 -2.078125 L 8.359375 -2.078125 L 1.296875 -14.234375 L 4.046875 -14.234375 L 7.3125 -8.609375 L 9.671875 -14.234375 L 12.390625 -14.234375 Z M 8.78125 -6.109375 "/></g></g></g><g fill="#000000" fill-opacity="1"><g transform="translate(208.13357, 241.974043)"><g><path d="M 7.859375 -9.625 C 7.859375 -10.519531 7.660156 -11.164062 7.265625 -11.5625 C 6.878906 -11.957031 6.316406 -12.15625 5.578125 -12.15625 L 0.890625 -12.15625 L 0.890625 -14.234375 L 6.25 -14.234375 C 7.601562 -14.234375 8.660156 -13.851562 9.421875 -13.09375 C 10.179688 -12.332031 10.5625 -11.132812 10.5625 -9.5 L 10.5625 0 L 7.859375 0 Z M 7.859375 -9.625 "/></g></g></g><path fill="#dbd7d2" d="M 56.3125 152.335938 C 54.042969 149.890625 51.777344 147.433594 49.5 144.988281 C 48.648438 144.074219 46.691406 142.753906 47.097656 141.421875 C 47.441406 140.285156 50.117188 138.617188 50.988281 137.804688 C 53.046875 135.878906 55.398438 134.394531 58.367188 134.9375 C 62.113281 135.617188 64.734375 139.0625 64.441406 142.839844 C 64.230469 145.53125 62.617188 147.25 60.769531 148.964844 C 59.808594 149.855469 57.417969 153.125 55.976562 152.089844 C 54.304688 150.890625 52.714844 153.65625 54.363281 154.855469 C 57.0625 156.792969 59.082031 154.902344 61.066406 153.0625 C 63.28125 151.003906 65.78125 149.089844 66.925781 146.1875 C 70.105469 138.160156 62.53125 129.742188 54.242188 132.039062 C 51.164062 132.890625 49.054688 135.234375 46.789062 137.335938 C 44.878906 139.113281 42.640625 140.953125 44.191406 143.792969 C 45.261719 145.742188 47.382812 147.410156 48.871094 149.015625 C 50.597656 150.878906 52.320312 152.742188 54.042969 154.59375 C 55.449219 156.101562 57.691406 153.839844 56.296875 152.335938 Z M 56.3125 152.335938 " fill-opacity="1" fill-rule="nonzero"/><path fill="#32104f" d="M 77.878906 120.308594 C 74.355469 117.875 70.476562 119.234375 67.886719 122.148438 C 62.914062 127.753906 57.738281 133.421875 51.308594 137.320312 C 54.191406 141.273438 61.914062 147.484375 61.914062 147.484375 C 68.613281 142.679688 74.183594 136.542969 79.710938 130.308594 C 82.285156 127.40625 80.785156 122.308594 77.878906 120.296875 Z M 77.878906 120.308594 " fill-opacity="1" fill-rule="nonzero"/><path fill="#ff70a4" d="M 210.875 65.351562 C 210.40625 65.105469 209.667969 64.722656 209.1875 64.488281 L 209.1875 78.648438 C 211.082031 79.539062 213.054688 80.984375 214.371094 82.738281 C 218.929688 88.613281 218.582031 96.8125 221.40625 103.652344 C 224.546875 112.074219 232.007812 118.246094 235.234375 126.679688 L 235.285156 126.800781 C 240.101562 138.308594 235.753906 154.546875 223.460938 159.25 C 213.203125 162.976562 200.957031 159.300781 194.035156 150.964844 C 179.8125 134.691406 170.375 88.910156 195.664062 78.75 C 199.949219 76.933594 205.023438 76.808594 209.1875 78.648438 L 209.1875 64.488281 C 198.804688 59.328125 186.832031 56.757812 175.449219 54.992188 C 161.816406 52.882812 147.859375 52.695312 134.175781 54.449219 C 122.917969 55.894531 110.382812 58.488281 100.046875 63.945312 C 83.46875 72.699219 70.5625 88.304688 67.949219 108.320312 C 63.847656 139.777344 85.957031 168.621094 117.351562 172.730469 C 122.21875 173.375 137.652344 173.832031 146.074219 171.570312 C 159.203125 168.054688 171.101562 158.273438 185.710938 163.90625 C 198.925781 169.003906 210.035156 176.425781 225.382812 171.769531 C 259.585938 161.386719 260.003906 91.589844 210.875 65.351562 Z M 210.875 65.351562 " fill-opacity="1" fill-rule="nonzero"/><path fill="#fc4c8c" d="M 165.695312 116.578125 C 165.695312 117.976562 165.628906 119.375 165.492188 120.765625 C 165.355469 122.160156 165.148438 123.542969 164.875 124.914062 C 164.605469 126.285156 164.265625 127.640625 163.859375 128.980469 C 163.457031 130.320312 162.984375 131.632812 162.453125 132.925781 C 161.917969 134.21875 161.320312 135.484375 160.664062 136.71875 C 160.003906 137.949219 159.289062 139.148438 158.511719 140.3125 C 157.738281 141.476562 156.90625 142.597656 156.023438 143.679688 C 155.136719 144.761719 154.199219 145.796875 153.214844 146.785156 C 152.226562 147.777344 151.195312 148.714844 150.113281 149.601562 C 149.035156 150.488281 147.917969 151.320312 146.757812 152.097656 C 145.59375 152.875 144.398438 153.59375 143.167969 154.253906 C 141.9375 154.914062 140.675781 155.511719 139.386719 156.046875 C 138.097656 156.582031 136.785156 157.054688 135.449219 157.460938 C 134.113281 157.867188 132.761719 158.207031 131.394531 158.476562 C 130.023438 158.75 128.644531 158.957031 127.257812 159.09375 C 125.867188 159.230469 124.476562 159.300781 123.078125 159.300781 C 121.683594 159.300781 120.292969 159.230469 118.902344 159.09375 C 117.511719 158.957031 116.132812 158.75 114.765625 158.476562 C 113.398438 158.207031 112.042969 157.867188 110.710938 157.460938 C 109.375 157.054688 108.0625 156.582031 106.769531 156.046875 C 105.480469 155.511719 104.222656 154.914062 102.992188 154.253906 C 101.761719 153.59375 100.5625 152.875 99.402344 152.097656 C 98.242188 151.320312 97.125 150.488281 96.042969 149.601562 C 94.964844 148.714844 93.933594 147.777344 92.945312 146.785156 C 91.957031 145.796875 91.023438 144.761719 90.136719 143.679688 C 89.25 142.597656 88.421875 141.476562 87.644531 140.3125 C 86.871094 139.148438 86.152344 137.949219 85.496094 136.71875 C 84.839844 135.484375 84.242188 134.21875 83.707031 132.925781 C 83.171875 131.632812 82.703125 130.320312 82.300781 128.980469 C 81.894531 127.640625 81.554688 126.285156 81.28125 124.914062 C 81.011719 123.542969 80.804688 122.160156 80.667969 120.765625 C 80.53125 119.375 80.464844 117.976562 80.464844 116.578125 C 80.464844 115.179688 80.53125 113.785156 80.667969 112.390625 C 80.804688 111 81.011719 109.617188 81.28125 108.246094 C 81.554688 106.871094 81.894531 105.515625 82.300781 104.179688 C 82.703125 102.839844 83.171875 101.523438 83.707031 100.230469 C 84.242188 98.9375 84.839844 97.675781 85.496094 96.441406 C 86.152344 95.207031 86.871094 94.007812 87.644531 92.84375 C 88.421875 91.683594 89.25 90.558594 90.136719 89.476562 C 91.023438 88.398438 91.957031 87.359375 92.945312 86.371094 C 93.933594 85.382812 94.964844 84.445312 96.042969 83.554688 C 97.125 82.667969 98.242188 81.835938 99.402344 81.058594 C 100.5625 80.28125 101.761719 79.5625 102.992188 78.902344 C 104.222656 78.246094 105.480469 77.648438 106.769531 77.109375 C 108.0625 76.574219 109.375 76.105469 110.710938 75.699219 C 112.042969 75.292969 113.398438 74.953125 114.765625 74.679688 C 116.132812 74.40625 117.511719 74.203125 118.902344 74.066406 C 120.292969 73.929688 121.683594 73.859375 123.078125 73.859375 C 124.476562 73.859375 125.867188 73.929688 127.257812 74.066406 C 128.644531 74.203125 130.023438 74.40625 131.394531 74.679688 C 132.761719 74.953125 134.113281 75.292969 135.449219 75.699219 C 136.785156 76.105469 138.097656 76.574219 139.386719 77.109375 C 140.675781 77.648438 141.9375 78.246094 143.167969 78.902344 C 144.398438 79.5625 145.59375 80.28125 146.757812 81.058594 C 147.917969 81.835938 149.035156 82.667969 150.113281 83.554688 C 151.195312 84.445312 152.226562 85.382812 153.214844 86.371094 C 154.199219 87.359375 155.136719 88.398438 156.023438 89.476562 C 156.90625 90.558594 157.738281 91.683594 158.511719 92.84375 C 159.289062 94.007812 160.003906 95.207031 160.664062 96.441406 C 161.320312 97.675781 161.917969 98.9375 162.453125 100.230469 C 162.984375 101.523438 163.457031 102.839844 163.859375 104.179688 C 164.265625 105.515625 164.605469 106.871094 164.875 108.246094 C 165.148438 109.617188 165.355469 111 165.492188 112.390625 C 165.628906 113.785156 165.695312 115.179688 165.695312 116.578125 Z M 165.695312 116.578125 " fill-opacity="1" fill-rule="nonzero"/><path fill="#fc4c8c" d="M 202.953125 150.953125 C 188.726562 134.679688 179.292969 88.898438 204.578125 78.738281 C 205.390625 78.390625 206.230469 78.105469 207.09375 77.882812 C 203.398438 76.871094 199.257812 77.21875 195.675781 78.738281 C 170.386719 88.898438 179.824219 134.679688 194.050781 150.953125 C 200.085938 158.226562 210.171875 161.953125 219.457031 160.3125 C 213.101562 159.238281 207.078125 155.917969 202.953125 150.953125 Z M 202.953125 150.953125 " fill-opacity="1" fill-rule="nonzero"/><path fill="#ff70a4" d="M 128.882812 97.171875 C 136.738281 99.453125 141.34375 106.34375 142.550781 114.222656 C 143.894531 122.9375 139.792969 130.347656 133.082031 135.628906 C 131.0625 137.222656 133.90625 140.027344 135.902344 138.457031 C 143.847656 132.199219 148.144531 123.0625 146.359375 112.898438 C 144.746094 103.738281 139.03125 95.949219 129.929688 93.304688 C 127.453125 92.589844 126.40625 96.441406 128.867188 97.15625 Z M 128.882812 97.171875 " fill-opacity="1" fill-rule="nonzero"/><path fill="#32104f" d="M 201.574219 65.722656 C 206.757812 67.699219 212.808594 70.167969 217.203125 73.625 C 221.390625 76.910156 227.339844 71.019531 223.117188 67.699219 C 217.449219 63.253906 210.492188 60.191406 203.804688 57.636719 C 198.777344 55.722656 196.597656 63.808594 201.585938 65.710938 Z M 201.574219 65.722656 " fill-opacity="1" fill-rule="nonzero"/><path fill="#dbd7d2" d="M 55.335938 147.507812 C 54.105469 146.1875 52.886719 144.851562 51.65625 143.53125 C 50.25 142.027344 48.007812 144.285156 49.402344 145.792969 C 50.632812 147.113281 51.851562 148.445312 53.082031 149.765625 C 54.316406 151.089844 56.730469 149.015625 55.335938 147.507812 Z M 55.335938 147.507812 " fill-opacity="1" fill-rule="nonzero"/><path fill="#b8b4b0" d="M 44.964844 158.238281 C 45.335938 158.613281 45.621094 159.046875 45.824219 159.53125 C 46.023438 160.015625 46.128906 160.515625 46.132812 161.035156 C 46.136719 161.554688 46.039062 162.054688 45.84375 162.53125 C 45.648438 163.007812 45.371094 163.425781 45.003906 163.785156 C 44.640625 164.144531 44.222656 164.417969 43.742188 164.605469 C 43.265625 164.796875 42.769531 164.882812 42.25 164.875 C 41.730469 164.863281 41.230469 164.753906 40.75 164.542969 C 40.269531 164.335938 39.84375 164.042969 39.476562 163.667969 C 39.105469 163.292969 38.820312 162.863281 38.621094 162.378906 C 38.417969 161.890625 38.316406 161.390625 38.3125 160.871094 C 38.308594 160.351562 38.402344 159.851562 38.597656 159.375 C 38.792969 158.898438 39.074219 158.480469 39.4375 158.121094 C 39.800781 157.761719 40.222656 157.488281 40.699219 157.300781 C 41.175781 157.109375 41.675781 157.023438 42.191406 157.03125 C 42.710938 157.042969 43.210938 157.152344 43.691406 157.363281 C 44.171875 157.570312 44.597656 157.863281 44.964844 158.238281 Z M 44.964844 158.238281 " fill-opacity="1" fill-rule="nonzero"/><path fill="#b8b4b0" d="M 27.007812 169.398438 L 23.128906 173.238281 L 25.742188 175.894531 L 29.621094 172.054688 C 29.902344 171.769531 29.902344 171.3125 29.621094 171.015625 L 28.042969 169.421875 C 27.761719 169.128906 27.292969 169.128906 27.007812 169.398438 Z M 27.007812 169.398438 " fill-opacity="1" fill-rule="nonzero"/><path fill="#b8b4b0" d="M 30.644531 171.039062 L 38.070312 163.695312 L 35.457031 161.039062 L 28.03125 168.386719 C 27.75 168.671875 27.75 169.128906 28.03125 169.421875 L 29.609375 171.015625 C 29.890625 171.3125 30.359375 171.3125 30.644531 171.039062 Z M 30.644531 171.039062 " fill-opacity="1" fill-rule="nonzero"/><path fill="#dbd7d2" d="M 24.175781 171.585938 C 23.78125 171.1875 23.140625 171.175781 22.773438 171.558594 L 21.875 172.472656 C 20 174.3125 18.152344 171.730469 18.042969 169.582031 C 17.945312 167.496094 19.238281 165.621094 20.738281 164.359375 C 23.558594 161.976562 28.980469 159.089844 36.875 164.496094 C 37.539062 164.953125 38.414062 164.890625 38.96875 164.335938 L 52.222656 151.238281 L 47.703125 146.644531 C 45.449219 148.839844 43.230469 151.136719 40.804688 153.125 C 37.699219 155.667969 35.164062 155.285156 31.371094 154.941406 C 25.53125 154.398438 19.273438 156.210938 15.199219 160.449219 C 11.453125 164.324219 10.234375 170.324219 13.25 175.1875 C 16.515625 180.4375 22.328125 181.351562 26.527344 177.214844 C 26.6875 177.054688 27.070312 176.671875 27.453125 176.300781 C 27.835938 175.917969 27.835938 175.300781 27.453125 174.894531 L 24.175781 171.570312 Z M 24.175781 171.585938 " fill-opacity="1" fill-rule="nonzero"/><path fill="#b8b4b0" d="M 51.410156 151.484375 C 50.175781 150.164062 48.957031 148.828125 47.726562 147.507812 C 46.320312 146 44.082031 148.261719 45.472656 149.765625 C 46.703125 151.089844 47.921875 152.421875 49.15625 153.742188 C 50.558594 155.25 52.800781 152.988281 51.410156 151.484375 Z M 51.410156 151.484375 " fill-opacity="1" fill-rule="nonzero"/><path fill="#fcfcfc" d="M 21.292969 161.902344 C 23.894531 160.238281 26.714844 159.621094 29.78125 159.976562 C 31.8125 160.210938 31.800781 157.015625 29.78125 156.78125 C 26.222656 156.371094 22.699219 157.210938 19.679688 159.152344 C 17.957031 160.25 19.558594 163.027344 21.292969 161.917969 Z M 21.292969 161.902344 " fill-opacity="1" fill-rule="nonzero"/><path fill="#fcfcfc" d="M 34.816406 160.347656 C 35.382812 160.421875 35.925781 160.570312 36.457031 160.769531 C 37.230469 161.066406 38.242188 160.433594 38.414062 159.65625 C 38.585938 158.878906 38.132812 158.015625 37.304688 157.695312 C 36.777344 157.496094 36.234375 157.347656 35.667969 157.273438 C 35.101562 157.199219 34.84375 157.199219 34.4375 157.433594 C 34.105469 157.632812 33.796875 158.015625 33.695312 158.386719 C 33.523438 159.136719 33.929688 160.226562 34.804688 160.347656 Z M 34.816406 160.347656 " fill-opacity="1" fill-rule="nonzero"/><path fill="#fc4c8c" d="M 219.136719 78.007812 C 222.992188 82.429688 225.519531 87.613281 226.601562 93.390625 C 227.539062 98.355469 228.289062 102.34375 231.910156 106.070312 C 239.238281 113.605469 244.152344 121.0625 245.71875 131.667969 C 246.085938 134.199219 249.929688 133.125 249.558594 130.605469 C 248.082031 120.640625 243.625 112.046875 236.492188 104.960938 C 234.164062 102.640625 232.167969 100.601562 231.34375 97.269531 C 230.691406 94.613281 230.46875 91.886719 229.742188 89.257812 C 228.277344 83.984375 225.53125 79.292969 221.945312 75.191406 C 220.257812 73.253906 217.4375 76.09375 219.125 78.019531 Z M 219.136719 78.007812 " fill-opacity="1" fill-rule="nonzero"/><path fill="#fc4c8c" d="M 175.488281 143.816406 C 179.5625 153.410156 186.226562 161.398438 194.800781 167.289062 C 196.917969 168.746094 198.914062 165.289062 196.808594 163.832031 C 188.789062 158.324219 182.730469 150.742188 178.925781 141.792969 C 177.925781 139.433594 174.488281 141.46875 175.476562 143.804688 Z M 175.488281 143.816406 " fill-opacity="1" fill-rule="nonzero"/></svg>