<svg xmlns="http://www.w3.org/2000/svg" xmlns:xlink="http://www.w3.org/1999/xlink" width="361" zoomAndPan="magnify" viewBox="0 0 270.75 303.749991" height="405" preserveAspectRatio="xMidYMid meet" version="1.0"><defs><g/><clipPath id="0371255b97"><path d="M 95.925781 55 L 173.855469 55 L 173.855469 161 L 95.925781 161 Z M 95.925781 55 " clip-rule="nonzero"/></clipPath><clipPath id="725ab36be8"><path d="M 95.925781 33 L 173.855469 33 L 173.855469 56 L 95.925781 56 Z M 95.925781 33 " clip-rule="nonzero"/></clipPath><clipPath id="da42d0c81a"><path d="M 95.925781 160 L 173.855469 160 L 173.855469 169.714844 L 95.925781 169.714844 Z M 95.925781 160 " clip-rule="nonzero"/></clipPath><clipPath id="f3c2d36040"><path d="M 125 25.847656 L 145 25.847656 L 145 34 L 125 34 Z M 125 25.847656 " clip-rule="nonzero"/></clipPath><clipPath id="cc5fee893c"><path d="M 101 160 L 109 160 L 109 169.714844 L 101 169.714844 Z M 101 160 " clip-rule="nonzero"/></clipPath></defs><g fill="#000000" fill-opacity="1"><g transform="translate(17.835169, 234.185834)"><g><path d="M 11.3125 -14.265625 L 11.3125 -12 L 6.578125 0 L 3.859375 0 L 8.609375 -12.1875 L 0.96875 -12.1875 L 0.96875 -18.1875 L 3.421875 -18.1875 L 3.421875 -14.265625 Z M 11.3125 -14.265625 "/></g></g></g><g fill="#000000" fill-opacity="1"><g transform="translate(30.165572, 234.185834)"><g><path d="M 14.609375 -7.1875 C 14.609375 -4.8125 14.082031 -2.96875 13.03125 -1.65625 C 11.988281 -0.351562 10.503906 0.296875 8.578125 0.296875 C 7.867188 0.296875 7.140625 0.210938 6.390625 0.046875 L 6.671875 -2.03125 C 7.316406 -1.894531 7.867188 -1.828125 8.328125 -1.828125 C 9.609375 -1.828125 10.546875 -2.273438 11.140625 -3.171875 C 11.734375 -4.066406 12.03125 -5.378906 12.03125 -7.109375 C 12.03125 -8.953125 11.742188 -10.273438 11.171875 -11.078125 C 10.609375 -11.878906 9.800781 -12.28125 8.75 -12.28125 C 7.9375 -12.28125 7.269531 -12.046875 6.75 -11.578125 C 6.238281 -11.117188 5.898438 -10.5 5.734375 -9.71875 L 4.03125 0 L 1.3125 0 L 3.140625 -9.8125 L 1.171875 -14.265625 L 3.984375 -14.265625 L 5.125 -11.265625 C 5.476562 -12.328125 6.019531 -13.125 6.75 -13.65625 C 7.476562 -14.195312 8.304688 -14.46875 9.234375 -14.46875 C 10.929688 -14.46875 12.25 -13.878906 13.1875 -12.703125 C 14.132812 -11.523438 14.609375 -9.6875 14.609375 -7.1875 Z M 14.609375 -7.1875 "/></g></g></g><g fill="#000000" fill-opacity="1"><g transform="translate(45.921085, 234.185834)"><g><path d="M 15.328125 -10.359375 C 15.359375 -6.785156 14.359375 -4.113281 12.328125 -2.34375 C 10.296875 -0.582031 7.1875 0.28125 3 0.25 L 1.140625 -14.265625 L 3.734375 -14.265625 L 4.546875 -7.515625 C 5.472656 -7.972656 6.101562 -8.570312 6.4375 -9.3125 C 6.78125 -10.050781 6.96875 -11.164062 7 -12.65625 L 7 -14.234375 L 9.59375 -14.234375 L 9.5625 -12.71875 C 9.53125 -10.851562 9.160156 -9.359375 8.453125 -8.234375 C 7.742188 -7.109375 6.523438 -6.195312 4.796875 -5.5 L 5.203125 -2.0625 C 7.753906 -2.226562 9.632812 -2.988281 10.84375 -4.34375 C 12.050781 -5.695312 12.648438 -7.65625 12.640625 -10.21875 L 12.59375 -14.265625 L 15.296875 -14.265625 Z M 15.328125 -10.359375 "/></g></g></g><g fill="#000000" fill-opacity="1"><g transform="translate(62.463099, 234.185834)"><g><path d="M 8.8125 -14.265625 C 10.175781 -14.265625 11.234375 -13.847656 11.984375 -13.015625 C 12.742188 -12.191406 13.125 -10.941406 13.125 -9.265625 L 13.125 0 L 10.40625 0 L 10.40625 -9.390625 C 10.40625 -11.253906 9.644531 -12.1875 8.125 -12.1875 L 4.21875 -12.1875 L 4.21875 0 L 1.5 0 L 1.5 -14.265625 Z M 8.8125 -14.265625 "/></g></g></g><g fill="#000000" fill-opacity="1"><g transform="translate(77.127647, 234.185834)"><g><path d="M 11.3125 -14.265625 L 11.3125 -12 L 6.578125 0 L 3.859375 0 L 8.609375 -12.1875 L 0.96875 -12.1875 L 0.96875 -18.1875 L 3.421875 -18.1875 L 3.421875 -14.265625 Z M 11.3125 -14.265625 "/></g></g></g><g fill="#000000" fill-opacity="1"><g transform="translate(89.458051, 234.185834)"><g/></g></g><g fill="#000000" fill-opacity="1"><g transform="translate(94.532287, 234.185834)"><g><path d="M 9.015625 -14.265625 C 10.359375 -14.265625 11.410156 -13.882812 12.171875 -13.125 C 12.941406 -12.363281 13.328125 -11.160156 13.328125 -9.515625 L 13.328125 0 L 1.65625 0 L 1.65625 -14.265625 Z M 10.609375 -2.078125 L 10.609375 -9.640625 C 10.609375 -10.535156 10.410156 -11.179688 10.015625 -11.578125 C 9.628906 -11.984375 9.066406 -12.1875 8.328125 -12.1875 L 4.359375 -12.1875 L 4.359375 -2.078125 Z M 10.609375 -2.078125 "/></g></g></g><g fill="#000000" fill-opacity="1"><g transform="translate(109.374432, 234.185834)"><g><path d="M 1.78125 -11.296875 L 1.46875 -14.265625 L 4.15625 -14.265625 L 4.484375 -11.296875 L 4.484375 -7.4375 L 4.46875 -5.84375 L 1.78125 -5.328125 Z M 1.78125 -11.296875 "/></g></g></g><g fill="#000000" fill-opacity="1"><g transform="translate(115.463521, 234.185834)"><g><path d="M 15.328125 -10.359375 C 15.359375 -6.785156 14.359375 -4.113281 12.328125 -2.34375 C 10.296875 -0.582031 7.1875 0.28125 3 0.25 L 1.140625 -14.265625 L 3.734375 -14.265625 L 4.546875 -7.515625 C 5.472656 -7.972656 6.101562 -8.570312 6.4375 -9.3125 C 6.78125 -10.050781 6.96875 -11.164062 7 -12.65625 L 7 -14.234375 L 9.59375 -14.234375 L 9.5625 -12.71875 C 9.53125 -10.851562 9.160156 -9.359375 8.453125 -8.234375 C 7.742188 -7.109375 6.523438 -6.195312 4.796875 -5.5 L 5.203125 -2.0625 C 7.753906 -2.226562 9.632812 -2.988281 10.84375 -4.34375 C 12.050781 -5.695312 12.648438 -7.65625 12.640625 -10.21875 L 12.59375 -14.265625 L 15.296875 -14.265625 Z M 15.328125 -10.359375 "/></g></g></g><g fill="#000000" fill-opacity="1"><g transform="translate(132.005534, 234.185834)"><g><path d="M 7.859375 -9.640625 C 7.859375 -10.535156 7.664062 -11.179688 7.28125 -11.578125 C 6.894531 -11.984375 6.328125 -12.1875 5.578125 -12.1875 L 0.890625 -12.1875 L 0.890625 -14.265625 L 6.265625 -14.265625 C 7.617188 -14.265625 8.675781 -13.882812 9.4375 -13.125 C 10.195312 -12.363281 10.578125 -11.160156 10.578125 -9.515625 L 10.578125 0 L 7.859375 0 Z M 7.859375 -9.640625 "/></g></g></g><g fill="#000000" fill-opacity="1"><g transform="translate(144.183712, 234.185834)"><g><path d="M 7.28125 -9.21875 C 7.28125 -10.53125 7.519531 -11.519531 8 -12.1875 L 1.140625 -12.1875 L 1.140625 -14.265625 L 12.453125 -14.265625 L 12.453125 -12.1875 L 10.5625 -12.1875 C 10.1875 -11.46875 10 -10.476562 10 -9.21875 L 10 0 L 7.28125 0 Z M 7.28125 -9.21875 "/></g></g></g><g fill="#000000" fill-opacity="1"><g transform="translate(157.858778, 234.185834)"><g><path d="M 1.109375 -2.078125 L 5.234375 -2.078125 L 5.234375 -10.046875 C 5.234375 -10.773438 5.085938 -11.300781 4.796875 -11.625 C 4.503906 -11.957031 4.070312 -12.164062 3.5 -12.25 L 1.78125 -12.515625 L 2.125 -14.5625 L 4.765625 -14.1875 C 5.785156 -14.03125 6.566406 -13.597656 7.109375 -12.890625 C 7.660156 -12.191406 7.9375 -11.257812 7.9375 -10.09375 L 7.9375 0 L 1.109375 0 Z M 1.109375 -2.078125 "/></g></g></g><g fill="#000000" fill-opacity="1"><g transform="translate(167.347605, 234.185834)"><g/></g></g><g fill="#000000" fill-opacity="1"><g transform="translate(172.421842, 234.185834)"><g><path d="M 9.015625 -14.265625 C 10.359375 -14.265625 11.410156 -13.882812 12.171875 -13.125 C 12.941406 -12.363281 13.328125 -11.160156 13.328125 -9.515625 L 13.328125 0 L 1.65625 0 L 1.65625 -14.265625 Z M 10.609375 -2.078125 L 10.609375 -9.640625 C 10.609375 -10.535156 10.410156 -11.179688 10.015625 -11.578125 C 9.628906 -11.984375 9.066406 -12.1875 8.328125 -12.1875 L 4.359375 -12.1875 L 4.359375 -2.078125 Z M 10.609375 -2.078125 "/></g></g></g><g fill="#000000" fill-opacity="1"><g transform="translate(187.263987, 234.185834)"><g><path d="M 0.5 -1.5 C 1.488281 -1.601562 2.148438 -1.863281 2.484375 -2.28125 C 2.828125 -2.707031 3 -3.394531 3 -4.34375 L 3 -14.265625 L 9.84375 -14.265625 C 11.195312 -14.265625 12.253906 -13.882812 13.015625 -13.125 C 13.773438 -12.363281 14.15625 -11.160156 14.15625 -9.515625 L 14.15625 0 L 11.4375 0 L 11.4375 -9.640625 C 11.4375 -10.535156 11.242188 -11.179688 10.859375 -11.578125 C 10.472656 -11.984375 9.90625 -12.1875 9.15625 -12.1875 L 5.703125 -12.1875 L 5.703125 -4.640625 C 5.703125 -2.960938 5.3125 -1.742188 4.53125 -0.984375 C 3.757812 -0.222656 2.503906 0.238281 0.765625 0.40625 Z M 0.5 -1.5 "/></g></g></g><g fill="#000000" fill-opacity="1"><g transform="translate(202.943387, 234.185834)"><g><path d="M 11.140625 0 L 5.8125 -8.09375 L 3.296875 0 L 0.703125 0 L 3.5 -8.734375 L 4.21875 -10.53125 L 1.875 -14.265625 L 4.640625 -14.265625 L 6.78125 -10.828125 L 8.90625 -7.640625 L 9.546875 -9.84375 L 10.828125 -14.265625 L 13.453125 -14.265625 L 10.5 -5.28125 L 14.03125 0 Z M 11.140625 0 "/></g></g></g><g fill="#000000" fill-opacity="1"><g transform="translate(217.810903, 234.185834)"><g/></g></g><g fill="#000000" fill-opacity="1"><g transform="translate(222.885128, 234.185834)"><g><path d="M 9.015625 -14.265625 C 10.359375 -14.265625 11.410156 -13.882812 12.171875 -13.125 C 12.941406 -12.363281 13.328125 -11.160156 13.328125 -9.515625 L 13.328125 0 L 1.65625 0 L 1.65625 -14.265625 Z M 10.609375 -2.078125 L 10.609375 -9.640625 C 10.609375 -10.535156 10.410156 -11.179688 10.015625 -11.578125 C 9.628906 -11.984375 9.066406 -12.1875 8.328125 -12.1875 L 4.359375 -12.1875 L 4.359375 -2.078125 Z M 10.609375 -2.078125 "/></g></g></g><g fill="#000000" fill-opacity="1"><g transform="translate(237.727273, 234.185834)"><g><path d="M 11.140625 0 L 5.8125 -8.09375 L 3.296875 0 L 0.703125 0 L 3.5 -8.734375 L 4.21875 -10.53125 L 1.875 -14.265625 L 4.640625 -14.265625 L 6.78125 -10.828125 L 8.90625 -7.640625 L 9.546875 -9.84375 L 10.828125 -14.265625 L 13.453125 -14.265625 L 10.5 -5.28125 L 14.03125 0 Z M 11.140625 0 "/></g></g></g><g fill="#000000" fill-opacity="1"><g transform="translate(20.680198, 262.659542)"><g><path d="M 1.78125 -11.296875 L 1.46875 -14.265625 L 4.15625 -14.265625 L 4.484375 -11.296875 L 4.484375 5.078125 L 1.78125 5.078125 Z M 1.78125 -11.296875 "/></g></g></g><g fill="#000000" fill-opacity="1"><g transform="translate(26.769287, 262.659542)"><g><path d="M 1.78125 -11.296875 L 1.46875 -14.265625 L 4.15625 -14.265625 L 4.484375 -11.296875 L 4.484375 -7.4375 L 4.46875 -5.84375 L 1.78125 -5.328125 Z M 1.78125 -11.296875 "/></g></g></g><g fill="#000000" fill-opacity="1"><g transform="translate(32.858375, 262.659542)"><g><path d="M 0.96875 -2.078125 L 4.625 -2.078125 C 5.820312 -2.078125 6.71875 -2.441406 7.3125 -3.171875 C 7.90625 -3.898438 8.203125 -4.929688 8.203125 -6.265625 L 8.203125 -8 C 8.203125 -9.332031 7.90625 -10.363281 7.3125 -11.09375 C 6.71875 -11.820312 5.820312 -12.1875 4.625 -12.1875 L 0.96875 -12.1875 L 0.96875 -14.265625 L 5.28125 -14.265625 C 7.09375 -14.265625 8.484375 -13.703125 9.453125 -12.578125 C 10.421875 -11.460938 10.90625 -9.890625 10.90625 -7.859375 L 10.90625 -6.390625 C 10.90625 -4.359375 10.421875 -2.785156 9.453125 -1.671875 C 8.484375 -0.554688 7.09375 0 5.28125 0 L 0.96875 0 Z M 0.96875 -2.078125 "/></g></g></g><g fill="#000000" fill-opacity="1"><g transform="translate(44.985799, 262.659542)"><g><path d="M 10 -9.640625 C 10 -10.535156 9.800781 -11.179688 9.40625 -11.578125 C 9.019531 -11.984375 8.457031 -12.1875 7.71875 -12.1875 L 1.46875 -12.1875 L 1.46875 -14.265625 L 8.40625 -14.265625 C 9.75 -14.265625 10.800781 -13.882812 11.5625 -13.125 C 12.332031 -12.363281 12.71875 -11.160156 12.71875 -9.515625 L 12.71875 0 L 10 0 Z M 1.390625 -6.90625 L 1.78125 -8.609375 L 4.109375 -8.609375 L 4.109375 0 L 1.390625 0 Z M 1.390625 -6.90625 "/></g></g></g><g fill="#000000" fill-opacity="1"><g transform="translate(59.142926, 262.659542)"><g><path d="M 11.3125 -14.265625 L 11.3125 -12 L 6.578125 0 L 3.859375 0 L 8.609375 -12.1875 L 0.96875 -12.1875 L 0.96875 -18.1875 L 3.421875 -18.1875 L 3.421875 -14.265625 Z M 11.3125 -14.265625 "/></g></g></g><g fill="#000000" fill-opacity="1"><g transform="translate(71.47333, 262.659542)"><g/></g></g><g fill="#000000" fill-opacity="1"><g transform="translate(76.547566, 262.659542)"><g><path d="M 15.328125 -10.359375 C 15.359375 -6.785156 14.359375 -4.113281 12.328125 -2.34375 C 10.296875 -0.582031 7.1875 0.28125 3 0.25 L 1.140625 -14.265625 L 3.734375 -14.265625 L 4.546875 -7.515625 C 5.472656 -7.972656 6.101562 -8.570312 6.4375 -9.3125 C 6.78125 -10.050781 6.96875 -11.164062 7 -12.65625 L 7 -14.234375 L 9.59375 -14.234375 L 9.5625 -12.71875 C 9.53125 -10.851562 9.160156 -9.359375 8.453125 -8.234375 C 7.742188 -7.109375 6.523438 -6.195312 4.796875 -5.5 L 5.203125 -2.0625 C 7.753906 -2.226562 9.632812 -2.988281 10.84375 -4.34375 C 12.050781 -5.695312 12.648438 -7.65625 12.640625 -10.21875 L 12.59375 -14.265625 L 15.296875 -14.265625 Z M 15.328125 -10.359375 "/></g></g></g><g fill="#000000" fill-opacity="1"><g transform="translate(93.08958, 262.659542)"><g><path d="M 1.78125 -11.296875 L 1.46875 -14.265625 L 4.15625 -14.265625 L 4.484375 -11.296875 L 4.484375 -7.4375 L 4.46875 -5.84375 L 1.78125 -5.328125 Z M 1.78125 -11.296875 "/></g></g></g><g fill="#000000" fill-opacity="1"><g transform="translate(99.178669, 262.659542)"><g/></g></g><g fill="#000000" fill-opacity="1"><g transform="translate(104.252905, 262.659542)"><g><path d="M 1.0625 -7.328125 L 7 -7.328125 L 7 -5.4375 L 1.0625 -5.4375 Z M 1.0625 -7.328125 "/></g></g></g><g fill="#000000" fill-opacity="1"><g transform="translate(112.295573, 262.659542)"><g/></g></g><g fill="#000000" fill-opacity="1"><g transform="translate(117.36981, 262.659542)"><g><path d="M 0.5 -1.5 C 1.488281 -1.601562 2.148438 -1.863281 2.484375 -2.28125 C 2.828125 -2.707031 3 -3.394531 3 -4.34375 L 3 -14.265625 L 9.84375 -14.265625 C 11.195312 -14.265625 12.253906 -13.882812 13.015625 -13.125 C 13.773438 -12.363281 14.15625 -11.160156 14.15625 -9.515625 L 14.15625 0 L 11.4375 0 L 11.4375 -9.640625 C 11.4375 -10.535156 11.242188 -11.179688 10.859375 -11.578125 C 10.472656 -11.984375 9.90625 -12.1875 9.15625 -12.1875 L 5.703125 -12.1875 L 5.703125 -4.640625 C 5.703125 -2.960938 5.3125 -1.742188 4.53125 -0.984375 C 3.757812 -0.222656 2.503906 0.238281 0.765625 0.40625 Z M 0.5 -1.5 "/></g></g></g><g fill="#000000" fill-opacity="1"><g transform="translate(133.04921, 262.659542)"><g><path d="M 1.78125 -11.296875 L 1.46875 -14.265625 L 4.15625 -14.265625 L 4.484375 -11.296875 L 4.484375 0 L 1.78125 0 Z M 1.78125 -11.296875 "/></g></g></g><g fill="#000000" fill-opacity="1"><g transform="translate(139.138299, 262.659542)"><g><path d="M 7.28125 -9.21875 C 7.28125 -10.53125 7.519531 -11.519531 8 -12.1875 L 1.140625 -12.1875 L 1.140625 -14.265625 L 12.453125 -14.265625 L 12.453125 -12.1875 L 10.5625 -12.1875 C 10.1875 -11.46875 10 -10.476562 10 -9.21875 L 10 0 L 7.28125 0 Z M 7.28125 -9.21875 "/></g></g></g><g fill="#000000" fill-opacity="1"><g transform="translate(152.813365, 262.659542)"><g><path d="M 1.78125 -11.296875 L 1.46875 -14.265625 L 4.15625 -14.265625 L 4.484375 -11.296875 L 4.484375 -7.4375 L 4.46875 -5.84375 L 1.78125 -5.328125 Z M 1.78125 -11.296875 "/></g></g></g><g fill="#000000" fill-opacity="1"><g transform="translate(158.902454, 262.659542)"><g><path d="M 7.859375 -9.640625 C 7.859375 -10.535156 7.664062 -11.179688 7.28125 -11.578125 C 6.894531 -11.984375 6.328125 -12.1875 5.578125 -12.1875 L 0.890625 -12.1875 L 0.890625 -14.265625 L 6.265625 -14.265625 C 7.617188 -14.265625 8.675781 -13.882812 9.4375 -13.125 C 10.195312 -12.363281 10.578125 -11.160156 10.578125 -9.515625 L 10.578125 0 L 7.859375 0 Z M 7.859375 -9.640625 "/></g></g></g><g fill="#000000" fill-opacity="1"><g transform="translate(171.080631, 262.659542)"><g><path d="M 15.328125 -10.359375 C 15.359375 -6.785156 14.359375 -4.113281 12.328125 -2.34375 C 10.296875 -0.582031 7.1875 0.28125 3 0.25 L 1.140625 -14.265625 L 3.734375 -14.265625 L 4.546875 -7.515625 C 5.472656 -7.972656 6.101562 -8.570312 6.4375 -9.3125 C 6.78125 -10.050781 6.96875 -11.164062 7 -12.65625 L 7 -14.234375 L 9.59375 -14.234375 L 9.5625 -12.71875 C 9.53125 -10.851562 9.160156 -9.359375 8.453125 -8.234375 C 7.742188 -7.109375 6.523438 -6.195312 4.796875 -5.5 L 5.203125 -2.0625 C 7.753906 -2.226562 9.632812 -2.988281 10.84375 -4.34375 C 12.050781 -5.695312 12.648438 -7.65625 12.640625 -10.21875 L 12.59375 -14.265625 L 15.296875 -14.265625 Z M 15.328125 -10.359375 "/></g></g></g><g fill="#000000" fill-opacity="1"><g transform="translate(187.622645, 262.659542)"><g/></g></g><g fill="#000000" fill-opacity="1"><g transform="translate(192.696882, 262.659542)"><g><path d="M 8.578125 -9.640625 C 8.578125 -10.535156 8.378906 -11.179688 7.984375 -11.578125 C 7.597656 -11.984375 7.035156 -12.1875 6.296875 -12.1875 L 1.21875 -12.1875 L 1.21875 -14.265625 L 6.984375 -14.265625 C 8.335938 -14.265625 9.394531 -13.882812 10.15625 -13.125 C 10.914062 -12.363281 11.296875 -11.160156 11.296875 -9.515625 L 11.296875 5.078125 L 8.578125 5.078125 Z M 8.578125 -9.640625 "/></g></g></g><g fill="#000000" fill-opacity="1"><g transform="translate(205.560076, 262.659542)"><g><path d="M 7.859375 -9.640625 C 7.859375 -10.535156 7.664062 -11.179688 7.28125 -11.578125 C 6.894531 -11.984375 6.328125 -12.1875 5.578125 -12.1875 L 0.890625 -12.1875 L 0.890625 -14.265625 L 6.265625 -14.265625 C 7.617188 -14.265625 8.675781 -13.882812 9.4375 -13.125 C 10.195312 -12.363281 10.578125 -11.160156 10.578125 -9.515625 L 10.578125 0 L 7.859375 0 Z M 7.859375 -9.640625 "/></g></g></g><g fill="#000000" fill-opacity="1"><g transform="translate(217.738253, 262.659542)"><g><path d="M 1.78125 -11.296875 L 1.46875 -14.265625 L 4.15625 -14.265625 L 4.484375 -11.296875 L 4.484375 0 L 1.78125 0 Z M 1.78125 -11.296875 "/></g></g></g><g fill="#000000" fill-opacity="1"><g transform="translate(223.827342, 262.659542)"><g><path d="M 8.8125 -6.109375 L 12.359375 0 L 0.890625 0 L 0.890625 -2.078125 L 8.375 -2.078125 L 1.296875 -14.265625 L 4.0625 -14.265625 L 7.328125 -8.625 L 9.6875 -14.265625 L 12.40625 -14.265625 Z M 8.8125 -6.109375 "/></g></g></g><g fill="#000000" fill-opacity="1"><g transform="translate(237.426296, 262.659542)"><g><path d="M 11.3125 -14.265625 L 11.3125 -12 L 6.578125 0 L 3.859375 0 L 8.609375 -12.1875 L 0.96875 -12.1875 L 0.96875 -18.1875 L 3.421875 -18.1875 L 3.421875 -14.265625 Z M 11.3125 -14.265625 "/></g></g></g><g fill="#000000" fill-opacity="1"><g transform="translate(30.350956, 291.133249)"><g><path d="M 7.859375 -9.640625 C 7.859375 -10.535156 7.664062 -11.179688 7.28125 -11.578125 C 6.894531 -11.984375 6.328125 -12.1875 5.578125 -12.1875 L 0.890625 -12.1875 L 0.890625 -14.265625 L 6.265625 -14.265625 C 7.617188 -14.265625 8.675781 -13.882812 9.4375 -13.125 C 10.195312 -12.363281 10.578125 -11.160156 10.578125 -9.515625 L 10.578125 0 L 7.859375 0 Z M 7.859375 -9.640625 "/></g></g></g><g fill="#000000" fill-opacity="1"><g transform="translate(42.529133, 291.133249)"><g><path d="M 1.78125 -11.296875 L 1.46875 -14.265625 L 4.15625 -14.265625 L 4.484375 -11.296875 L 4.484375 0 L 1.78125 0 Z M 1.78125 -11.296875 "/></g></g></g><g fill="#000000" fill-opacity="1"><g transform="translate(48.618221, 291.133249)"><g><path d="M 1.140625 -14.265625 L 3.859375 -14.265625 L 5.234375 -2.203125 C 9.140625 -2.597656 11.03125 -4.644531 10.90625 -8.34375 L 10.90625 -9.0625 C 10.90625 -9.96875 10.660156 -10.71875 10.171875 -11.3125 C 9.679688 -11.90625 8.957031 -12.238281 8 -12.3125 L 6.71875 -12.390625 L 6.921875 -14.515625 L 8.421875 -14.4375 C 9.941406 -14.332031 11.160156 -13.863281 12.078125 -13.03125 C 12.992188 -12.195312 13.484375 -10.984375 13.546875 -9.390625 L 13.578125 -8.671875 C 13.679688 -5.734375 12.769531 -3.546875 10.84375 -2.109375 C 8.925781 -0.679688 6.257812 0.101562 2.84375 0.25 Z M 1.140625 -14.265625 "/></g></g></g><g fill="#000000" fill-opacity="1"><g transform="translate(63.079801, 291.133249)"><g><path d="M 7.859375 -9.640625 C 7.859375 -10.535156 7.664062 -11.179688 7.28125 -11.578125 C 6.894531 -11.984375 6.328125 -12.1875 5.578125 -12.1875 L 0.890625 -12.1875 L 0.890625 -14.265625 L 6.265625 -14.265625 C 7.617188 -14.265625 8.675781 -13.882812 9.4375 -13.125 C 10.195312 -12.363281 10.578125 -11.160156 10.578125 -9.515625 L 10.578125 0 L 7.859375 0 Z M 7.859375 -9.640625 "/></g></g></g><g fill="#000000" fill-opacity="1"><g transform="translate(75.257978, 291.133249)"><g><path d="M 1.109375 -2.078125 L 5.234375 -2.078125 L 5.234375 -10.046875 C 5.234375 -10.773438 5.085938 -11.300781 4.796875 -11.625 C 4.503906 -11.957031 4.070312 -12.164062 3.5 -12.25 L 1.78125 -12.515625 L 2.125 -14.5625 L 4.765625 -14.1875 C 5.785156 -14.03125 6.566406 -13.597656 7.109375 -12.890625 C 7.660156 -12.191406 7.9375 -11.257812 7.9375 -10.09375 L 7.9375 0 L 1.109375 0 Z M 1.109375 -2.078125 "/></g></g></g><g fill="#000000" fill-opacity="1"><g transform="translate(84.746805, 291.133249)"><g><path d="M 6.34375 0 L 5.78125 -3.125 C 5.3125 -2.28125 4.726562 -1.5625 4.03125 -0.96875 C 3.34375 -0.382812 2.515625 0.0703125 1.546875 0.40625 L 0.5625 -1.75 C 1.726562 -2.15625 2.703125 -2.664062 3.484375 -3.28125 C 4.273438 -3.90625 4.898438 -4.679688 5.359375 -5.609375 L 5.359375 -10.046875 C 5.359375 -10.796875 5.257812 -11.332031 5.0625 -11.65625 C 4.863281 -11.988281 4.492188 -12.195312 3.953125 -12.28125 L 2.359375 -12.515625 L 2.71875 -14.5625 L 5.234375 -14.203125 C 6.222656 -14.054688 6.941406 -13.671875 7.390625 -13.046875 C 7.835938 -12.421875 8.0625 -11.515625 8.0625 -10.328125 L 8.0625 -5.453125 L 8.9375 0 Z M 6.34375 0 "/></g></g></g><g fill="#000000" fill-opacity="1"><g transform="translate(94.768423, 291.133249)"><g/></g></g><g fill="#000000" fill-opacity="1"><g transform="translate(99.84266, 291.133249)"><g><path d="M 1.78125 -11.296875 L 1.46875 -14.265625 L 4.15625 -14.265625 L 4.484375 -11.296875 L 4.484375 0 L 1.78125 0 Z M 1.78125 -11.296875 "/></g></g></g><g fill="#000000" fill-opacity="1"><g transform="translate(105.931749, 291.133249)"><g><path d="M 11.140625 0 L 5.8125 -8.09375 L 3.296875 0 L 0.703125 0 L 3.5 -8.734375 L 4.21875 -10.53125 L 1.875 -14.265625 L 4.640625 -14.265625 L 6.78125 -10.828125 L 8.90625 -7.640625 L 9.546875 -9.84375 L 10.828125 -14.265625 L 13.453125 -14.265625 L 10.5 -5.28125 L 14.03125 0 Z M 11.140625 0 "/></g></g></g><g fill="#000000" fill-opacity="1"><g transform="translate(120.799265, 291.133249)"><g/></g></g><g fill="#000000" fill-opacity="1"><g transform="translate(125.873502, 291.133249)"><g><path d="M 1.78125 -11.296875 L 1.46875 -14.265625 L 4.15625 -14.265625 L 4.484375 -11.296875 L 4.484375 -7.4375 L 4.46875 -5.84375 L 1.78125 -5.328125 Z M 1.78125 -11.296875 "/></g></g></g><g fill="#000000" fill-opacity="1"><g transform="translate(131.96259, 291.133249)"><g><path d="M 1.78125 -11.296875 L 1.46875 -14.265625 L 4.15625 -14.265625 L 4.484375 -11.296875 L 4.484375 0 L 1.78125 0 Z M 1.78125 -11.296875 "/></g></g></g><g fill="#000000" fill-opacity="1"><g transform="translate(138.051679, 291.133249)"><g><path d="M 12.65625 -2.078125 L 12.65625 0 L 1.140625 0 L 1.140625 -2.078125 L 8.203125 -2.078125 L 8.203125 -9.640625 C 8.203125 -10.535156 8.003906 -11.179688 7.609375 -11.578125 C 7.222656 -11.984375 6.65625 -12.1875 5.90625 -12.1875 L 1.140625 -12.1875 L 1.140625 -14.265625 L 6.59375 -14.265625 C 7.945312 -14.265625 9.003906 -13.882812 9.765625 -13.125 C 10.523438 -12.363281 10.90625 -11.160156 10.90625 -9.515625 L 10.90625 -2.078125 Z M 12.65625 -2.078125 "/></g></g></g><g fill="#000000" fill-opacity="1"><g transform="translate(151.599891, 291.133249)"><g><path d="M 1.78125 -11.296875 L 1.46875 -14.265625 L 4.15625 -14.265625 L 4.484375 -11.296875 L 4.484375 -7.4375 L 4.46875 -5.84375 L 1.78125 -5.328125 Z M 1.78125 -11.296875 "/></g></g></g><g fill="#000000" fill-opacity="1"><g transform="translate(157.688979, 291.133249)"><g><path d="M 6.34375 0 L 5.78125 -3.125 C 5.3125 -2.28125 4.726562 -1.5625 4.03125 -0.96875 C 3.34375 -0.382812 2.515625 0.0703125 1.546875 0.40625 L 0.5625 -1.75 C 1.726562 -2.15625 2.703125 -2.664062 3.484375 -3.28125 C 4.273438 -3.90625 4.898438 -4.679688 5.359375 -5.609375 L 5.359375 -10.046875 C 5.359375 -10.796875 5.257812 -11.332031 5.0625 -11.65625 C 4.863281 -11.988281 4.492188 -12.195312 3.953125 -12.28125 L 2.359375 -12.515625 L 2.71875 -14.5625 L 5.234375 -14.203125 C 6.222656 -14.054688 6.941406 -13.671875 7.390625 -13.046875 C 7.835938 -12.421875 8.0625 -11.515625 8.0625 -10.328125 L 8.0625 -5.453125 L 8.9375 0 Z M 6.34375 0 "/></g></g></g><g fill="#000000" fill-opacity="1"><g transform="translate(167.710598, 291.133249)"><g/></g></g><g fill="#000000" fill-opacity="1"><g transform="translate(172.784835, 291.133249)"><g><path d="M 0.5 -1.5 C 1.488281 -1.601562 2.148438 -1.863281 2.484375 -2.28125 C 2.828125 -2.707031 3 -3.394531 3 -4.34375 L 3 -14.265625 L 9.84375 -14.265625 C 11.195312 -14.265625 12.253906 -13.882812 13.015625 -13.125 C 13.773438 -12.363281 14.15625 -11.160156 14.15625 -9.515625 L 14.15625 0 L 11.4375 0 L 11.4375 -9.640625 C 11.4375 -10.535156 11.242188 -11.179688 10.859375 -11.578125 C 10.472656 -11.984375 9.90625 -12.1875 9.15625 -12.1875 L 5.703125 -12.1875 L 5.703125 -4.640625 C 5.703125 -2.960938 5.3125 -1.742188 4.53125 -0.984375 C 3.757812 -0.222656 2.503906 0.238281 0.765625 0.40625 Z M 0.5 -1.5 "/></g></g></g><g fill="#000000" fill-opacity="1"><g transform="translate(188.464234, 291.133249)"><g><path d="M 1.78125 -11.296875 L 1.46875 -14.265625 L 4.15625 -14.265625 L 4.484375 -11.296875 L 4.484375 0 L 1.78125 0 Z M 1.78125 -11.296875 "/></g></g></g><g fill="#000000" fill-opacity="1"><g transform="translate(194.553323, 291.133249)"><g><path d="M 11.3125 -14.265625 L 11.3125 -12 L 6.578125 0 L 3.859375 0 L 8.609375 -12.1875 L 0.96875 -12.1875 L 0.96875 -18.1875 L 3.421875 -18.1875 L 3.421875 -14.265625 Z M 11.3125 -14.265625 "/></g></g></g><g fill="#000000" fill-opacity="1"><g transform="translate(206.883726, 291.133249)"><g><path d="M 11.3125 -14.265625 L 11.3125 -12 L 6.578125 0 L 3.859375 0 L 8.609375 -12.1875 L 0.96875 -12.1875 L 0.96875 -18.1875 L 3.421875 -18.1875 L 3.421875 -14.265625 Z M 11.3125 -14.265625 "/></g></g></g><g fill="#000000" fill-opacity="1"><g transform="translate(219.21413, 291.133249)"><g><path d="M 1.78125 -11.296875 L 1.46875 -14.265625 L 4.15625 -14.265625 L 4.484375 -11.296875 L 4.484375 0 L 1.78125 0 Z M 1.78125 -11.296875 "/></g></g></g><g fill="#000000" fill-opacity="1"><g transform="translate(225.30323, 291.133249)"><g><path d="M 13.53125 -8.25 C 13.625 -5.320312 12.722656 -3.203125 10.828125 -1.890625 C 8.941406 -0.578125 6.289062 0.132812 2.875 0.25 L 1.390625 -12.1875 L 1.140625 -14.265625 L 8.453125 -14.265625 C 10.023438 -14.265625 11.242188 -13.796875 12.109375 -12.859375 C 12.984375 -11.929688 13.445312 -10.664062 13.5 -9.0625 Z M 5.25 -2.203125 C 7.144531 -2.378906 8.566406 -2.925781 9.515625 -3.84375 C 10.460938 -4.769531 10.898438 -6.253906 10.828125 -8.296875 L 10.828125 -8.984375 C 10.828125 -9.929688 10.597656 -10.703125 10.140625 -11.296875 C 9.691406 -11.890625 9.0625 -12.1875 8.25 -12.1875 L 4.109375 -12.1875 Z M 5.25 -2.203125 "/></g></g></g><g clip-path="url(#0371255b97)"><path fill="#062654" d="M 95.960938 55.984375 L 173.660156 55.984375 L 173.660156 160.625 L 95.960938 160.625 Z M 95.960938 55.984375 " fill-opacity="1" fill-rule="nonzero"/></g><path fill="#d67792" d="M 133.234375 104.96875 L 130.257812 77.6875 L 125.824219 118.300781 L 136.371094 111.640625 L 139.359375 138.929688 L 143.792969 98.308594 Z M 133.234375 104.96875 " fill-opacity="1" fill-rule="nonzero"/><g clip-path="url(#725ab36be8)"><path fill="#d67792" d="M 173.65625 39.523438 L 173.65625 55.984375 L 95.960938 55.984375 L 95.960938 39.523438 C 95.960938 36.3125 98.582031 33.691406 101.789062 33.691406 L 167.832031 33.691406 C 171.03125 33.691406 173.65625 36.3125 173.65625 39.523438 Z M 173.65625 39.523438 " fill-opacity="1" fill-rule="nonzero"/></g><path fill="#062654" d="M 140.558594 43.402344 L 136.246094 43.402344 L 136.246094 39.09375 L 133.378906 39.09375 L 133.378906 43.402344 L 129.0625 43.402344 L 129.0625 46.277344 L 133.378906 46.277344 L 133.378906 50.589844 L 136.246094 50.589844 L 136.246094 46.277344 L 140.558594 46.277344 Z M 140.558594 43.402344 " fill-opacity="1" fill-rule="nonzero"/><g clip-path="url(#da42d0c81a)"><path fill="#d67792" d="M 173.65625 163.835938 L 173.65625 160.625 L 95.960938 160.625 L 95.960938 163.835938 C 95.960938 167.042969 98.582031 169.664062 101.789062 169.664062 L 167.832031 169.664062 C 171.03125 169.664062 173.65625 167.046875 173.65625 163.835938 Z M 173.65625 163.835938 " fill-opacity="1" fill-rule="nonzero"/></g><g clip-path="url(#f3c2d36040)"><path fill="#bcd4e8" d="M 125.097656 33.691406 L 144.519531 33.691406 L 144.519531 29.808594 C 144.519531 28.816406 144.136719 27.820312 143.378906 27.058594 C 142.621094 26.304688 141.628906 25.921875 140.632812 25.921875 L 128.976562 25.921875 C 127.988281 25.921875 126.992188 26.304688 126.234375 27.058594 C 125.472656 27.820312 125.09375 28.816406 125.09375 29.808594 L 125.09375 33.691406 Z M 125.097656 33.691406 " fill-opacity="1" fill-rule="nonzero"/></g><path fill="#39527b" d="M 101.789062 55.984375 L 108.125 55.984375 L 108.125 160.625 L 101.789062 160.625 Z M 101.789062 55.984375 " fill-opacity="1" fill-rule="nonzero"/><path fill="#f7b7d2" d="M 101.789062 33.628906 L 108.125 33.628906 L 108.125 55.988281 L 101.789062 55.988281 Z M 101.789062 33.628906 " fill-opacity="1" fill-rule="nonzero"/><g clip-path="url(#cc5fee893c)"><path fill="#f7b7d2" d="M 101.789062 160.625 L 108.125 160.625 L 108.125 169.664062 L 101.789062 169.664062 Z M 101.789062 160.625 " fill-opacity="1" fill-rule="nonzero"/></g></svg>