<svg xmlns="http://www.w3.org/2000/svg" xmlns:xlink="http://www.w3.org/1999/xlink" width="484" zoomAndPan="magnify" viewBox="0 0 363 306.749988" height="409" preserveAspectRatio="xMidYMid meet" version="1.0"><defs><filter x="0%" y="0%" width="100%" height="100%" id="22d0ce7fe4"><feColorMatrix values="0 0 0 0 1 0 0 0 0 1 0 0 0 0 1 0 0 0 1 0" color-interpolation-filters="sRGB"/></filter><g/><clipPath id="da84aa4852"><path d="M 82.0625 73 L 302 73 L 302 177 L 82.0625 177 Z M 82.0625 73 " clip-rule="nonzero"/></clipPath><clipPath id="49950c6ac7"><path d="M 82.0625 89 L 178 89 L 178 176 L 82.0625 176 Z M 82.0625 89 " clip-rule="nonzero"/></clipPath><mask id="a165c09700"><g filter="url(#22d0ce7fe4)"><rect x="-36.3" width="435.6" fill="#000000" y="-30.674999" height="368.099986" fill-opacity="0.5"/></g></mask><clipPath id="e3a1a5f3e4"><path d="M 0.554688 1 L 64.820312 1 L 64.820312 80 L 0.554688 80 Z M 0.554688 1 " clip-rule="nonzero"/></clipPath><clipPath id="166c08ea95"><rect x="0" width="65" y="0" height="81"/></clipPath><clipPath id="51600bff64"><path d="M 122 53.667969 L 260 53.667969 L 260 104 L 122 104 Z M 122 53.667969 " clip-rule="nonzero"/></clipPath></defs><g clip-path="url(#da84aa4852)"><path fill="#ffa5bf" d="M 271.492188 88.308594 C 260.859375 83.746094 242.3125 78.351562 226.621094 76.457031 C 203.328125 73.65625 189.207031 73.078125 169.964844 74.417969 C 150.730469 75.761719 130.65625 78.351562 116.046875 84.035156 C 110.886719 86.042969 108.246094 87.5625 106.382812 89.640625 C 106.007812 90.058594 105.664062 90.503906 105.339844 90.976562 C 103.964844 92.976562 102.902344 95.546875 101.074219 99.324219 C 96.675781 108.441406 82.101562 148.539062 82.683594 151.453125 C 83.261719 154.351562 122.964844 172.632812 177.207031 175.605469 C 177.398438 175.617188 177.597656 175.628906 177.789062 175.636719 C 218.421875 177.78125 248.421875 172.46875 267.871094 166.90625 C 274.523438 165 279.941406 163.070312 284.132812 161.394531 C 300.535156 154.828125 301.167969 152.292969 301.6875 150.40625 C 302.1875 148.613281 285.902344 103.449219 280.527344 94.253906 C 280.242188 93.765625 279.988281 93.382812 279.773438 93.109375 C 278.746094 91.832031 275.753906 90.136719 271.492188 88.308594 Z M 271.492188 88.308594 " fill-opacity="1" fill-rule="evenodd"/></g><g clip-path="url(#49950c6ac7)"><path fill="#d67792" d="M 106.386719 89.644531 C 106.011719 90.066406 105.667969 90.507812 105.34375 90.980469 C 103.96875 92.980469 102.90625 95.550781 101.078125 99.328125 C 96.675781 108.441406 82.101562 148.539062 82.683594 151.453125 C 83.261719 154.351562 122.964844 172.632812 177.207031 175.605469 C 142.476562 169.945312 110.542969 155.097656 111.144531 146.714844 C 111.792969 137.65625 126.820312 99.503906 126.820312 99.503906 C 118.1875 98.421875 111.394531 94.085938 106.382812 89.644531 Z M 106.386719 89.644531 " fill-opacity="1" fill-rule="evenodd"/></g><g mask="url(#a165c09700)"><g transform="matrix(1, 0, 0, 1, 237, 87)"><g clip-path="url(#166c08ea95)"><g clip-path="url(#e3a1a5f3e4)"><path fill="#f7b7d2" d="M 34.492188 1.308594 C 18.464844 6.804688 0.800781 13.054688 0.800781 13.054688 C 0.800781 13.054688 13.230469 13.480469 17.488281 25.605469 C 21.46875 36.9375 27.175781 63.355469 30.871094 79.90625 C 37.523438 78 42.941406 76.070312 47.132812 74.394531 C 63.535156 67.828125 64.167969 65.292969 64.6875 63.40625 C 65.1875 61.613281 48.902344 16.449219 43.527344 7.253906 C 43.242188 6.765625 42.988281 6.382812 42.773438 6.109375 C 41.746094 4.832031 38.753906 3.136719 34.492188 1.308594 Z M 34.492188 1.308594 " fill-opacity="1" fill-rule="evenodd"/></g></g></g></g><path fill="#f7b7d2" d="M 105.339844 90.980469 C 106.527344 94.234375 112.175781 98.449219 128.652344 103.085938 C 165.769531 113.527344 235.75 109.648438 259.558594 103.539062 C 271.027344 100.601562 277.5 97.324219 280.53125 94.253906 C 280.246094 93.765625 279.992188 93.382812 279.777344 93.109375 C 276.199219 88.640625 248.613281 79.109375 226.625 76.457031 C 203.332031 73.65625 189.210938 73.078125 169.96875 74.417969 C 150.734375 75.761719 130.660156 78.351562 116.050781 84.035156 C 109.851562 86.449219 107.289062 88.152344 105.34375 90.976562 Z M 105.339844 90.980469 " fill-opacity="1" fill-rule="evenodd"/><path fill="#d67792" d="M 122.550781 94.90625 C 119.261719 93.71875 116.8125 92.457031 115.375 91.140625 C 114.339844 90.191406 118.332031 87.875 126.710938 85.53125 C 130.75 84.402344 135.804688 83.265625 141.808594 82.269531 C 162.347656 78.875 184.507812 76.605469 212.152344 78.851562 C 228.46875 80.171875 241.816406 83.105469 251.425781 85.828125 C 256.675781 87.316406 260.816406 88.742188 263.707031 89.8125 C 271.898438 92.832031 271.617188 93.855469 260.445312 97.445312 C 259.976562 97.59375 259.476562 97.746094 258.9375 97.894531 C 246.171875 101.394531 213.683594 104.28125 191.398438 103.8125 C 162.570312 103.203125 135.777344 99.671875 122.546875 94.90625 Z M 122.550781 94.90625 " fill-opacity="1" fill-rule="evenodd"/><g clip-path="url(#51600bff64)"><path fill="#623029" d="M 126.710938 85.53125 C 127.203125 85.003906 127.757812 84.492188 128.375 84 C 134.703125 78.972656 142.730469 80.515625 142.730469 80.515625 C 142.730469 80.515625 140.148438 74.75 144.871094 70.21875 C 149.59375 65.691406 154.648438 64.738281 158.761719 65.894531 C 158.761719 65.894531 160.726562 59.484375 167.382812 57.949219 C 174.042969 56.417969 177.726562 58.269531 180.488281 59.71875 C 180.488281 59.71875 185.285156 53.683594 192.964844 53.800781 C 200.644531 53.917969 207.800781 58.457031 206.417969 64.289062 C 206.417969 64.289062 213.089844 61.007812 220.921875 63.363281 C 228.753906 65.722656 229.484375 71.964844 229.484375 71.964844 C 229.484375 71.964844 236.863281 69.949219 241.8125 73.527344 C 246.558594 76.957031 246.015625 80.699219 244.839844 83.453125 C 244.839844 83.453125 247.078125 83.511719 251.425781 85.824219 C 252.605469 86.453125 253.847656 87.273438 255.082031 88.335938 C 258.742188 91.472656 259.511719 94.90625 258.9375 97.890625 C 246.171875 101.390625 213.683594 104.277344 191.398438 103.808594 C 162.570312 103.199219 135.777344 99.667969 122.546875 94.902344 C 122.746094 92.785156 123.554688 88.878906 126.710938 85.527344 Z M 126.710938 85.53125 " fill-opacity="1" fill-rule="evenodd"/></g><path fill="#623029" d="M 185.089844 84.332031 C 185.789062 86.65625 187.675781 88.050781 189.996094 88.652344 C 193.683594 89.617188 198.445312 88.644531 201.707031 86.105469 C 204.828125 83.675781 207.054688 79.792969 207.667969 76.324219 C 208.050781 74.167969 207.820312 72.167969 206.652344 70.871094 C 203.605469 67.476562 198.679688 66.6875 192.980469 70.1875 C 189.464844 72.347656 186.90625 75.6875 185.679688 78.863281 C 184.894531 80.882812 184.644531 82.832031 185.089844 84.332031 Z M 169.085938 75.5 C 166.425781 74.78125 163.117188 74.828125 160.355469 75.695312 C 158.582031 76.253906 157.039062 77.140625 156.070312 78.410156 C 154.949219 79.886719 154.035156 81.867188 154.757812 84.0625 C 155.53125 86.40625 158.066406 88.890625 163.683594 91.328125 C 167.648438 93.046875 170.757812 93.28125 173.109375 92.644531 C 176.460938 91.738281 178.1875 89.058594 178.523438 86.785156 C 179.109375 82.859375 177.136719 77.671875 169.085938 75.5 Z M 134.699219 98.195312 C 136.496094 93.253906 139.773438 89.222656 144.957031 89.796875 C 148.238281 90.160156 150.480469 92.054688 151.976562 94.214844 C 154.152344 97.34375 154.730469 101.023438 154.730469 101.023438 C 154.746094 101.144531 154.738281 101.257812 154.710938 101.367188 C 154.175781 101.304688 153.648438 101.238281 153.121094 101.175781 C 153.015625 100.597656 152.414062 97.667969 150.65625 95.136719 C 149.398438 93.328125 147.53125 91.710938 144.78125 91.40625 C 142.367188 91.136719 140.476562 92.109375 139.023438 93.734375 C 137.867188 95.023438 136.976562 96.707031 136.300781 98.527344 C 135.761719 98.417969 135.226562 98.3125 134.703125 98.199219 Z M 200.027344 103.835938 C 199.964844 103.382812 199.921875 102.890625 199.902344 102.375 C 199.820312 99.808594 200.417969 96.664062 203.078125 94.320312 C 208.222656 89.785156 215.921875 91.328125 221.6875 96.320312 C 222.027344 96.613281 222.0625 97.121094 221.769531 97.460938 C 221.480469 97.796875 220.96875 97.832031 220.632812 97.542969 C 215.511719 93.109375 208.707031 91.511719 204.144531 95.53125 C 201.90625 97.503906 201.441406 100.167969 201.511719 102.328125 C 201.527344 102.855469 201.582031 103.359375 201.644531 103.816406 C 201.101562 103.824219 200.558594 103.832031 200.019531 103.84375 Z M 244.871094 83.457031 C 244.773438 83.84375 244.40625 84.113281 244 84.066406 C 244 84.066406 241.769531 83.832031 239.171875 84.414062 C 236.640625 84.980469 233.734375 86.320312 232.285156 89.511719 C 230.914062 92.535156 232.242188 94.664062 233.898438 96.039062 C 235.667969 97.511719 237.800781 98.171875 237.800781 98.171875 C 238.226562 98.304688 238.464844 98.757812 238.332031 99.179688 C 238.199219 99.605469 237.746094 99.847656 237.324219 99.714844 C 237.324219 99.714844 234.882812 98.957031 232.863281 97.28125 C 231.234375 95.925781 229.867188 94 230.097656 91.425781 C 222.867188 91.761719 219.28125 90.121094 217.574219 88.132812 C 215.589844 85.828125 215.976562 82.945312 216.386719 81.429688 C 216.179688 81.410156 215.972656 81.382812 215.765625 81.359375 C 212.488281 80.945312 209.53125 80.050781 208.375 79.667969 C 207.230469 82.566406 205.230469 85.414062 202.699219 87.386719 C 199.042969 90.230469 193.707031 91.304688 189.585938 90.226562 C 186.703125 89.472656 184.402344 87.691406 183.539062 84.804688 C 183.007812 83.019531 183.238281 80.699219 184.167969 78.292969 C 185.089844 75.910156 186.699219 73.441406 188.863281 71.363281 C 187.28125 71.0625 186.089844 70.53125 185.355469 70.132812 C 185.140625 70.535156 184.878906 70.933594 184.554688 71.335938 C 183.121094 73.121094 180.761719 74.269531 178.433594 74.976562 C 176.933594 75.433594 175.453125 75.710938 174.277344 75.878906 C 179.445312 78.859375 180.644531 83.457031 180.109375 87.039062 C 179.699219 89.816406 177.613281 93.113281 173.519531 94.21875 C 170.902344 94.921875 167.433594 94.734375 163.027344 92.824219 C 157.292969 90.335938 154.542969 87.675781 153.46875 85.242188 C 145.761719 86.082031 142.660156 81.804688 142.660156 81.804688 C 142.394531 81.449219 142.46875 80.941406 142.820312 80.671875 C 143.175781 80.40625 143.683594 80.480469 143.953125 80.835938 C 143.953125 80.835938 146.585938 84.246094 152.980469 83.664062 C 152.546875 81.269531 153.519531 79.105469 154.773438 77.453125 C 155.925781 75.933594 157.746094 74.832031 159.859375 74.171875 C 162.332031 73.390625 165.203125 73.210938 167.761719 73.59375 C 167.109375 71.738281 165.847656 70.367188 164.519531 69.375 C 162.160156 67.601562 159.566406 66.992188 159.566406 66.992188 C 159.132812 66.890625 158.859375 66.457031 158.964844 66.023438 C 159.066406 65.589844 159.5 65.316406 159.933594 65.421875 C 159.933594 65.421875 162.835938 66.097656 165.488281 68.085938 C 167.257812 69.414062 168.90625 71.324219 169.554688 73.96875 C 170.222656 74.148438 170.855469 74.355469 171.449219 74.574219 C 171.539062 74.539062 171.628906 74.519531 171.726562 74.511719 C 171.726562 74.511719 174.800781 74.394531 177.960938 73.4375 C 179.980469 72.820312 182.050781 71.871094 183.292969 70.324219 C 186.273438 66.613281 182.917969 62.746094 180.734375 61.125 C 180.375 60.863281 180.300781 60.355469 180.566406 59.996094 C 180.832031 59.636719 181.335938 59.5625 181.695312 59.828125 C 183.875 61.445312 186.785156 64.914062 185.929688 68.609375 C 186.652344 69.027344 188.234375 69.785156 190.492188 69.960938 C 191.015625 69.5625 191.558594 69.183594 192.128906 68.835938 C 196.492188 66.15625 200.449219 65.746094 203.648438 66.921875 C 204.089844 66.597656 204.949219 65.832031 205.5625 64.4375 C 205.71875 64.074219 206.109375 63.890625 206.484375 63.972656 C 206.464844 64.082031 206.4375 64.195312 206.414062 64.304688 C 206.414062 64.304688 206.546875 64.242188 206.808594 64.132812 C 207.082031 64.355469 207.1875 64.738281 207.039062 65.082031 C 206.507812 66.289062 205.824219 67.128906 205.25 67.675781 C 206.210938 68.234375 207.078125 68.953125 207.84375 69.808594 C 209.304688 71.433594 209.722656 73.914062 209.246094 76.617188 C 209.160156 77.121094 209.035156 77.632812 208.886719 78.148438 C 209.992188 78.511719 212.820312 79.367188 215.957031 79.765625 C 216.457031 79.828125 216.964844 79.878906 217.472656 79.914062 C 217.503906 79.914062 217.535156 79.914062 217.570312 79.921875 C 219.691406 80.066406 221.839844 79.9375 223.578125 79.210938 C 228.753906 77.046875 228.714844 72.691406 228.714844 72.691406 C 228.707031 72.261719 229.035156 71.898438 229.460938 71.867188 C 229.472656 71.941406 229.476562 71.980469 229.476562 71.980469 C 229.476562 71.980469 229.582031 71.949219 229.78125 71.90625 C 230.089844 72.011719 230.316406 72.304688 230.328125 72.652344 C 230.328125 72.652344 230.507812 78.058594 224.199219 80.695312 C 222.402344 81.449219 220.207031 81.648438 218.007812 81.558594 C 217.65625 82.613281 217.09375 85.117188 218.785156 87.085938 C 220.347656 88.898438 223.699219 90.179688 230.433594 89.796875 C 230.53125 89.492188 230.65625 89.175781 230.800781 88.851562 C 232.15625 85.851562 234.589844 84.214844 237.03125 83.347656 C 240.589844 82.082031 244.152344 82.46875 244.152344 82.46875 C 244.59375 82.515625 244.914062 82.914062 244.867188 83.359375 C 244.851562 83.394531 244.835938 83.429688 244.824219 83.464844 C 244.824219 83.464844 244.832031 83.464844 244.847656 83.464844 Z M 244.871094 83.457031 " fill-opacity="1" fill-rule="evenodd"/><g fill="#000000" fill-opacity="1"><g transform="translate(11.832344, 236.613227)"><g><path d="M 10 -9.65625 C 10 -10.550781 9.804688 -11.195312 9.421875 -11.59375 C 9.035156 -11.988281 8.46875 -12.1875 7.71875 -12.1875 L 1.46875 -12.1875 L 1.46875 -14.265625 L 8.40625 -14.265625 C 9.757812 -14.265625 10.816406 -13.882812 11.578125 -13.125 C 12.335938 -12.363281 12.71875 -11.160156 12.71875 -9.515625 L 12.71875 0 L 10 0 Z M 1.390625 -6.90625 L 1.78125 -8.609375 L 4.109375 -8.609375 L 4.109375 0 L 1.390625 0 Z M 1.390625 -6.90625 "/></g></g></g><g fill="#000000" fill-opacity="1"><g transform="translate(25.997476, 236.613227)"><g><path d="M 8.8125 -14.265625 C 10.1875 -14.265625 11.25 -13.847656 12 -13.015625 C 12.75 -12.191406 13.125 -10.941406 13.125 -9.265625 L 13.125 0 L 10.40625 0 L 10.40625 -9.390625 C 10.40625 -11.253906 9.644531 -12.1875 8.125 -12.1875 L 4.21875 -12.1875 L 4.21875 0 L 1.5 0 L 1.5 -14.265625 Z M 8.8125 -14.265625 "/></g></g></g><g fill="#000000" fill-opacity="1"><g transform="translate(40.670323, 236.613227)"><g><path d="M 1.671875 -2.078125 L 6.265625 -2.078125 C 7.441406 -2.078125 8.367188 -2.425781 9.046875 -3.125 C 9.722656 -3.820312 10.0625 -4.878906 10.0625 -6.296875 L 10.0625 -8 C 10.0625 -9.332031 9.789062 -10.363281 9.25 -11.09375 C 8.707031 -11.820312 7.894531 -12.1875 6.8125 -12.1875 L 4.515625 -12.1875 L 3.96875 -9.671875 C 3.875 -9.285156 3.828125 -8.957031 3.828125 -8.6875 C 3.828125 -8.175781 3.972656 -7.78125 4.265625 -7.5 C 4.554688 -7.21875 5.03125 -7.007812 5.6875 -6.875 L 5.203125 -5.125 C 3.878906 -5.207031 2.914062 -5.539062 2.3125 -6.125 C 1.71875 -6.71875 1.421875 -7.53125 1.421875 -8.5625 C 1.421875 -9.050781 1.460938 -9.5 1.546875 -9.90625 L 2.546875 -14.265625 L 7.390625 -14.265625 C 9.078125 -14.265625 10.394531 -13.707031 11.34375 -12.59375 C 12.289062 -11.476562 12.765625 -9.910156 12.765625 -7.890625 L 12.765625 -6.421875 C 12.765625 -4.304688 12.222656 -2.707031 11.140625 -1.625 C 10.054688 -0.539062 8.617188 0 6.828125 0 L 1.671875 0 Z M 1.671875 -2.078125 "/></g></g></g><g fill="#000000" fill-opacity="1"><g transform="translate(54.581603, 236.613227)"><g><path d="M 15.34375 -10.359375 C 15.375 -6.785156 14.375 -4.113281 12.34375 -2.34375 C 10.3125 -0.570312 7.195312 0.289062 3 0.25 L 1.140625 -14.265625 L 3.734375 -14.265625 L 4.546875 -7.515625 C 5.472656 -7.972656 6.101562 -8.570312 6.4375 -9.3125 C 6.78125 -10.0625 6.972656 -11.179688 7.015625 -12.671875 L 7.015625 -14.25 L 9.59375 -14.25 L 9.578125 -12.71875 C 9.535156 -10.851562 9.160156 -9.359375 8.453125 -8.234375 C 7.742188 -7.109375 6.523438 -6.203125 4.796875 -5.515625 L 5.203125 -2.0625 C 7.765625 -2.226562 9.648438 -2.988281 10.859375 -4.34375 C 12.066406 -5.695312 12.660156 -7.660156 12.640625 -10.234375 L 12.59375 -14.265625 L 15.3125 -14.265625 Z M 15.34375 -10.359375 "/></g></g></g><g fill="#000000" fill-opacity="1"><g transform="translate(71.132978, 236.613227)"><g><path d="M 14.625 -7.1875 C 14.625 -4.8125 14.097656 -2.96875 13.046875 -1.65625 C 12.003906 -0.34375 10.515625 0.3125 8.578125 0.3125 C 7.867188 0.3125 7.144531 0.222656 6.40625 0.046875 L 6.671875 -2.03125 C 7.316406 -1.894531 7.867188 -1.828125 8.328125 -1.828125 C 9.617188 -1.828125 10.554688 -2.273438 11.140625 -3.171875 C 11.734375 -4.066406 12.03125 -5.378906 12.03125 -7.109375 C 12.03125 -8.953125 11.742188 -10.273438 11.171875 -11.078125 C 10.609375 -11.890625 9.804688 -12.296875 8.765625 -12.296875 C 7.953125 -12.296875 7.285156 -12.0625 6.765625 -11.59375 C 6.253906 -11.125 5.910156 -10.5 5.734375 -9.71875 L 4.03125 0 L 1.328125 0 L 3.15625 -9.828125 L 1.171875 -14.265625 L 3.984375 -14.265625 L 5.125 -11.28125 C 5.476562 -12.34375 6.019531 -13.140625 6.75 -13.671875 C 7.476562 -14.203125 8.3125 -14.46875 9.25 -14.46875 C 10.9375 -14.46875 12.253906 -13.878906 13.203125 -12.703125 C 14.148438 -11.523438 14.625 -9.6875 14.625 -7.1875 Z M 14.625 -7.1875 "/></g></g></g><g fill="#000000" fill-opacity="1"><g transform="translate(86.8974, 236.613227)"><g><path d="M 10 -9.65625 C 10 -10.550781 9.804688 -11.195312 9.421875 -11.59375 C 9.035156 -11.988281 8.46875 -12.1875 7.71875 -12.1875 L 1.46875 -12.1875 L 1.46875 -14.265625 L 8.40625 -14.265625 C 9.757812 -14.265625 10.816406 -13.882812 11.578125 -13.125 C 12.335938 -12.363281 12.71875 -11.160156 12.71875 -9.515625 L 12.71875 0 L 10 0 Z M 1.390625 -6.90625 L 1.78125 -8.609375 L 4.109375 -8.609375 L 4.109375 0 L 1.390625 0 Z M 1.390625 -6.90625 "/></g></g></g><g fill="#000000" fill-opacity="1"><g transform="translate(101.062532, 236.613227)"><g/></g></g><g fill="#000000" fill-opacity="1"><g transform="translate(106.139639, 236.613227)"><g><path d="M 1.78125 -11.296875 L 1.46875 -14.265625 L 4.171875 -14.265625 L 4.5 -11.296875 L 4.5 -7.4375 L 4.46875 -5.84375 L 1.78125 -5.328125 Z M 1.78125 -11.296875 "/></g></g></g><g fill="#000000" fill-opacity="1"><g transform="translate(112.232177, 236.613227)"><g><path d="M 0.96875 -2.078125 L 4.625 -2.078125 C 5.820312 -2.078125 6.71875 -2.441406 7.3125 -3.171875 C 7.90625 -3.898438 8.203125 -4.929688 8.203125 -6.265625 L 8.203125 -8 C 8.203125 -9.332031 7.90625 -10.363281 7.3125 -11.09375 C 6.71875 -11.820312 5.820312 -12.1875 4.625 -12.1875 L 0.96875 -12.1875 L 0.96875 -14.265625 L 5.28125 -14.265625 C 7.09375 -14.265625 8.484375 -13.707031 9.453125 -12.59375 C 10.429688 -11.476562 10.921875 -9.90625 10.921875 -7.875 L 10.921875 -6.40625 C 10.921875 -4.375 10.429688 -2.796875 9.453125 -1.671875 C 8.484375 -0.554688 7.09375 0 5.28125 0 L 0.96875 0 Z M 0.96875 -2.078125 "/></g></g></g><g fill="#000000" fill-opacity="1"><g transform="translate(124.366471, 236.613227)"><g><path d="M 7.875 -9.65625 C 7.875 -10.550781 7.675781 -11.195312 7.28125 -11.59375 C 6.894531 -11.988281 6.332031 -12.1875 5.59375 -12.1875 L 0.890625 -12.1875 L 0.890625 -14.265625 L 6.265625 -14.265625 C 7.617188 -14.265625 8.675781 -13.882812 9.4375 -13.125 C 10.207031 -12.363281 10.59375 -11.160156 10.59375 -9.515625 L 10.59375 0 L 7.875 0 Z M 7.875 -9.65625 "/></g></g></g><g fill="#000000" fill-opacity="1"><g transform="translate(136.551535, 236.613227)"><g><path d="M 1.78125 -11.296875 L 1.46875 -14.265625 L 4.171875 -14.265625 L 4.5 -11.296875 L 4.5 0 L 1.78125 0 Z M 1.78125 -11.296875 "/></g></g></g><g fill="#000000" fill-opacity="1"><g transform="translate(142.644073, 236.613227)"><g><path d="M 8.8125 -6.125 L 12.359375 0 L 0.890625 0 L 0.890625 -2.078125 L 8.375 -2.078125 L 1.296875 -14.265625 L 4.0625 -14.265625 L 7.34375 -8.640625 L 9.703125 -14.265625 L 12.421875 -14.265625 Z M 8.8125 -6.125 "/></g></g></g><g fill="#000000" fill-opacity="1"><g transform="translate(156.250731, 236.613227)"><g><path d="M 11.328125 -14.265625 L 11.328125 -12.015625 L 6.578125 0 L 3.859375 0 L 8.609375 -12.1875 L 0.96875 -12.1875 L 0.96875 -18.203125 L 3.421875 -18.203125 L 3.421875 -14.265625 Z M 11.328125 -14.265625 "/></g></g></g><g fill="#000000" fill-opacity="1"><g transform="translate(168.588106, 236.613227)"><g/></g></g><g fill="#000000" fill-opacity="1"><g transform="translate(173.665213, 236.613227)"><g><path d="M 9.015625 -14.265625 C 10.367188 -14.265625 11.425781 -13.882812 12.1875 -13.125 C 12.945312 -12.363281 13.328125 -11.160156 13.328125 -9.515625 L 13.328125 0 L 1.65625 0 L 1.65625 -14.265625 Z M 10.609375 -2.078125 L 10.609375 -9.65625 C 10.609375 -10.550781 10.414062 -11.195312 10.03125 -11.59375 C 9.644531 -11.988281 9.078125 -12.1875 8.328125 -12.1875 L 4.375 -12.1875 L 4.375 -2.078125 Z M 10.609375 -2.078125 "/></g></g></g><g fill="#000000" fill-opacity="1"><g transform="translate(188.515757, 236.613227)"><g><path d="M 11.140625 0 L 5.8125 -8.09375 L 3.296875 0 L 0.71875 0 L 3.5 -8.734375 L 4.21875 -10.53125 L 1.875 -14.265625 L 4.640625 -14.265625 L 6.78125 -10.84375 L 8.90625 -7.640625 L 9.546875 -9.859375 L 10.84375 -14.265625 L 13.453125 -14.265625 L 10.515625 -5.28125 L 14.046875 0 Z M 11.140625 0 "/></g></g></g><g fill="#000000" fill-opacity="1"><g transform="translate(203.391686, 236.613227)"><g><path d="M 0.515625 -1.5 C 1.492188 -1.601562 2.148438 -1.863281 2.484375 -2.28125 C 2.828125 -2.707031 3 -3.394531 3 -4.34375 L 3 -14.265625 L 9.859375 -14.265625 C 11.210938 -14.265625 12.269531 -13.882812 13.03125 -13.125 C 13.789062 -12.363281 14.171875 -11.160156 14.171875 -9.515625 L 14.171875 0 L 11.453125 0 L 11.453125 -9.65625 C 11.453125 -10.550781 11.253906 -11.195312 10.859375 -11.59375 C 10.472656 -11.988281 9.910156 -12.1875 9.171875 -12.1875 L 5.71875 -12.1875 L 5.71875 -4.640625 C 5.71875 -2.972656 5.328125 -1.753906 4.546875 -0.984375 C 3.765625 -0.222656 2.503906 0.238281 0.765625 0.40625 Z M 0.515625 -1.5 "/></g></g></g><g fill="#000000" fill-opacity="1"><g transform="translate(219.079941, 236.613227)"><g><path d="M 10 -9.65625 C 10 -10.550781 9.804688 -11.195312 9.421875 -11.59375 C 9.035156 -11.988281 8.46875 -12.1875 7.71875 -12.1875 L 1.46875 -12.1875 L 1.46875 -14.265625 L 8.40625 -14.265625 C 9.757812 -14.265625 10.816406 -13.882812 11.578125 -13.125 C 12.335938 -12.363281 12.71875 -11.160156 12.71875 -9.515625 L 12.71875 0 L 10 0 Z M 1.390625 -6.90625 L 1.78125 -8.609375 L 4.109375 -8.609375 L 4.109375 0 L 1.390625 0 Z M 1.390625 -6.90625 "/></g></g></g><g fill="#000000" fill-opacity="1"><g transform="translate(233.245085, 236.613227)"><g><path d="M 12.671875 -2.078125 L 12.671875 0 L 1.140625 0 L 1.140625 -2.078125 L 8.203125 -2.078125 L 8.203125 -9.65625 C 8.203125 -10.550781 8.003906 -11.195312 7.609375 -11.59375 C 7.222656 -11.988281 6.660156 -12.1875 5.921875 -12.1875 L 1.140625 -12.1875 L 1.140625 -14.265625 L 6.609375 -14.265625 C 7.960938 -14.265625 9.019531 -13.882812 9.78125 -13.125 C 10.539062 -12.363281 10.921875 -11.160156 10.921875 -9.515625 L 10.921875 -2.078125 Z M 12.671875 -2.078125 "/></g></g></g><g fill="#000000" fill-opacity="1"><g transform="translate(246.800984, 236.613227)"><g/></g></g><g fill="#000000" fill-opacity="1"><g transform="translate(251.878068, 236.613227)"><g><path d="M 7.28125 -9.21875 C 7.28125 -10.539062 7.519531 -11.53125 8 -12.1875 L 1.140625 -12.1875 L 1.140625 -14.265625 L 12.46875 -14.265625 L 12.46875 -12.1875 L 10.5625 -12.1875 C 10.1875 -11.476562 10 -10.488281 10 -9.21875 L 10 0 L 7.28125 0 Z M 7.28125 -9.21875 "/></g></g></g><g fill="#000000" fill-opacity="1"><g transform="translate(265.560892, 236.613227)"><g><path d="M 8.8125 -14.265625 C 10.1875 -14.265625 11.25 -13.847656 12 -13.015625 C 12.75 -12.191406 13.125 -10.941406 13.125 -9.265625 L 13.125 0 L 10.40625 0 L 10.40625 -9.390625 C 10.40625 -11.253906 9.644531 -12.1875 8.125 -12.1875 L 4.21875 -12.1875 L 4.21875 0 L 1.5 0 L 1.5 -14.265625 Z M 8.8125 -14.265625 "/></g></g></g><g fill="#000000" fill-opacity="1"><g transform="translate(280.233739, 236.613227)"><g><path d="M 1.78125 -11.296875 L 1.46875 -14.265625 L 4.171875 -14.265625 L 4.5 -11.296875 L 4.5 0 L 1.78125 0 Z M 1.78125 -11.296875 "/></g></g></g><g fill="#000000" fill-opacity="1"><g transform="translate(286.326277, 236.613227)"><g><path d="M 1.78125 -11.296875 L 1.46875 -14.265625 L 4.171875 -14.265625 L 4.5 -11.296875 L 4.5 -7.4375 L 4.46875 -5.84375 L 1.78125 -5.328125 Z M 1.78125 -11.296875 "/></g></g></g><g fill="#000000" fill-opacity="1"><g transform="translate(292.418815, 236.613227)"><g><path d="M 14.625 -7.1875 C 14.625 -4.8125 14.097656 -2.96875 13.046875 -1.65625 C 12.003906 -0.34375 10.515625 0.3125 8.578125 0.3125 C 7.867188 0.3125 7.144531 0.222656 6.40625 0.046875 L 6.671875 -2.03125 C 7.316406 -1.894531 7.867188 -1.828125 8.328125 -1.828125 C 9.617188 -1.828125 10.554688 -2.273438 11.140625 -3.171875 C 11.734375 -4.066406 12.03125 -5.378906 12.03125 -7.109375 C 12.03125 -8.953125 11.742188 -10.273438 11.171875 -11.078125 C 10.609375 -11.890625 9.804688 -12.296875 8.765625 -12.296875 C 7.953125 -12.296875 7.285156 -12.0625 6.765625 -11.59375 C 6.253906 -11.125 5.910156 -10.5 5.734375 -9.71875 L 4.03125 0 L 1.328125 0 L 3.15625 -9.828125 L 1.171875 -14.265625 L 3.984375 -14.265625 L 5.125 -11.28125 C 5.476562 -12.34375 6.019531 -13.140625 6.75 -13.671875 C 7.476562 -14.203125 8.3125 -14.46875 9.25 -14.46875 C 10.9375 -14.46875 12.253906 -13.878906 13.203125 -12.703125 C 14.148438 -11.523438 14.625 -9.6875 14.625 -7.1875 Z M 14.625 -7.1875 "/></g></g></g><g fill="#000000" fill-opacity="1"><g transform="translate(308.183248, 236.613227)"><g/></g></g><g fill="#000000" fill-opacity="1"><g transform="translate(313.260333, 236.613227)"><g><path d="M 1.78125 -11.296875 L 1.46875 -14.265625 L 4.171875 -14.265625 L 4.5 -11.296875 L 4.5 5.078125 L 1.78125 5.078125 Z M 1.78125 -11.296875 "/></g></g></g><g fill="#000000" fill-opacity="1"><g transform="translate(319.352871, 236.613227)"><g><path d="M 1.78125 -11.296875 L 1.46875 -14.265625 L 4.171875 -14.265625 L 4.5 -11.296875 L 4.5 0 L 1.78125 0 Z M 1.78125 -11.296875 "/></g></g></g><g fill="#000000" fill-opacity="1"><g transform="translate(325.445408, 236.613227)"><g><path d="M 2.953125 -9.21875 C 2.953125 -10.539062 3.1875 -11.53125 3.65625 -12.1875 L 1.21875 -12.1875 L 1.21875 -14.265625 L 8.125 -14.265625 L 8.125 -12.1875 L 6.140625 -12.1875 C 5.941406 -11.800781 5.8125 -11.363281 5.75 -10.875 C 5.6875 -10.394531 5.65625 -9.84375 5.65625 -9.21875 L 5.65625 0 L 2.953125 0 Z M 2.953125 -9.21875 "/></g></g></g><g fill="#000000" fill-opacity="1"><g transform="translate(334.761911, 236.613227)"><g><path d="M 14.625 -7.1875 C 14.625 -4.8125 14.097656 -2.96875 13.046875 -1.65625 C 12.003906 -0.34375 10.515625 0.3125 8.578125 0.3125 C 7.867188 0.3125 7.144531 0.222656 6.40625 0.046875 L 6.671875 -2.03125 C 7.316406 -1.894531 7.867188 -1.828125 8.328125 -1.828125 C 9.617188 -1.828125 10.554688 -2.273438 11.140625 -3.171875 C 11.734375 -4.066406 12.03125 -5.378906 12.03125 -7.109375 C 12.03125 -8.953125 11.742188 -10.273438 11.171875 -11.078125 C 10.609375 -11.890625 9.804688 -12.296875 8.765625 -12.296875 C 7.953125 -12.296875 7.285156 -12.0625 6.765625 -11.59375 C 6.253906 -11.125 5.910156 -10.5 5.734375 -9.71875 L 4.03125 0 L 1.328125 0 L 3.15625 -9.828125 L 1.171875 -14.265625 L 3.984375 -14.265625 L 5.125 -11.28125 C 5.476562 -12.34375 6.019531 -13.140625 6.75 -13.671875 C 7.476562 -14.203125 8.3125 -14.46875 9.25 -14.46875 C 10.9375 -14.46875 12.253906 -13.878906 13.203125 -12.703125 C 14.148438 -11.523438 14.625 -9.6875 14.625 -7.1875 Z M 14.625 -7.1875 "/></g></g></g><g fill="#000000" fill-opacity="1"><g transform="translate(45.180163, 265.090016)"><g><path d="M 9.015625 -14.265625 C 10.367188 -14.265625 11.425781 -13.882812 12.1875 -13.125 C 12.945312 -12.363281 13.328125 -11.160156 13.328125 -9.515625 L 13.328125 0 L 1.65625 0 L 1.65625 -14.265625 Z M 10.609375 -2.078125 L 10.609375 -9.65625 C 10.609375 -10.550781 10.414062 -11.195312 10.03125 -11.59375 C 9.644531 -11.988281 9.078125 -12.1875 8.328125 -12.1875 L 4.375 -12.1875 L 4.375 -2.078125 Z M 10.609375 -2.078125 "/></g></g></g><g fill="#000000" fill-opacity="1"><g transform="translate(60.030706, 265.090016)"><g><path d="M 1.78125 -11.296875 L 1.46875 -14.265625 L 4.171875 -14.265625 L 4.5 -11.296875 L 4.5 -7.4375 L 4.46875 -5.84375 L 1.78125 -5.328125 Z M 1.78125 -11.296875 "/></g></g></g><g fill="#000000" fill-opacity="1"><g transform="translate(66.123244, 265.090016)"><g><path d="M 1.78125 -11.296875 L 1.46875 -14.265625 L 4.171875 -14.265625 L 4.5 -11.296875 L 4.5 -7.4375 L 4.46875 -5.84375 L 1.78125 -5.328125 Z M 1.78125 -11.296875 "/></g></g></g><g fill="#000000" fill-opacity="1"><g transform="translate(72.215782, 265.090016)"><g><path d="M 8.8125 -14.265625 C 10.1875 -14.265625 11.25 -13.847656 12 -13.015625 C 12.75 -12.191406 13.125 -10.941406 13.125 -9.265625 L 13.125 0 L 10.40625 0 L 10.40625 -9.390625 C 10.40625 -11.253906 9.644531 -12.1875 8.125 -12.1875 L 4.21875 -12.1875 L 4.21875 0 L 1.5 0 L 1.5 -14.265625 Z M 8.8125 -14.265625 "/></g></g></g><g fill="#000000" fill-opacity="1"><g transform="translate(86.888629, 265.090016)"><g/></g></g><g fill="#000000" fill-opacity="1"><g transform="translate(91.965736, 265.090016)"><g><path d="M 1.78125 -11.296875 L 1.46875 -14.265625 L 4.171875 -14.265625 L 4.5 -11.296875 L 4.5 -7.4375 L 4.46875 -5.84375 L 1.78125 -5.328125 Z M 1.78125 -11.296875 "/></g></g></g><g fill="#000000" fill-opacity="1"><g transform="translate(98.058274, 265.090016)"><g><path d="M 11.328125 -14.265625 L 11.328125 -12.015625 L 6.578125 0 L 3.859375 0 L 8.609375 -12.1875 L 0.96875 -12.1875 L 0.96875 -18.203125 L 3.421875 -18.203125 L 3.421875 -14.265625 Z M 11.328125 -14.265625 "/></g></g></g><g fill="#000000" fill-opacity="1"><g transform="translate(110.395649, 265.090016)"><g><path d="M 12.765625 -14.265625 C 12.765625 -10.847656 12.632812 -8.28125 12.375 -6.5625 C 12.113281 -4.84375 11.476562 -3.445312 10.46875 -2.375 C 9.46875 -1.300781 7.847656 -0.546875 5.609375 -0.109375 L 0.84375 0.84375 L 0.453125 -1.296875 L 4.75 -2.140625 L 1.625 -14.265625 L 4.34375 -14.265625 L 7.1875 -2.765625 C 8.101562 -3.171875 8.765625 -3.78125 9.171875 -4.59375 C 9.578125 -5.40625 9.828125 -6.429688 9.921875 -7.671875 C 10.023438 -8.921875 10.078125 -10.789062 10.078125 -13.28125 L 10.078125 -14.265625 Z M 12.765625 -14.265625 "/></g></g></g><g fill="#000000" fill-opacity="1"><g transform="translate(124.383085, 265.090016)"><g><path d="M 12.671875 -2.078125 L 12.671875 0 L 1.140625 0 L 1.140625 -2.078125 L 8.203125 -2.078125 L 8.203125 -9.65625 C 8.203125 -10.550781 8.003906 -11.195312 7.609375 -11.59375 C 7.222656 -11.988281 6.660156 -12.1875 5.921875 -12.1875 L 1.140625 -12.1875 L 1.140625 -14.265625 L 6.609375 -14.265625 C 7.960938 -14.265625 9.019531 -13.882812 9.78125 -13.125 C 10.539062 -12.363281 10.921875 -11.160156 10.921875 -9.515625 L 10.921875 -2.078125 Z M 12.671875 -2.078125 "/></g></g></g><g fill="#000000" fill-opacity="1"><g transform="translate(137.938972, 265.090016)"><g/></g></g><g fill="#000000" fill-opacity="1"><g transform="translate(143.01608, 265.090016)"><g><path d="M 3.453125 -3.328125 C 4.078125 -3.328125 4.566406 -3.082031 4.921875 -2.59375 C 5.273438 -2.101562 5.453125 -1.425781 5.453125 -0.5625 C 5.453125 0.601562 5.128906 1.625 4.484375 2.5 C 3.847656 3.382812 2.945312 4.050781 1.78125 4.5 L 1.1875 3.046875 C 1.96875 2.722656 2.566406 2.296875 2.984375 1.765625 C 3.410156 1.234375 3.632812 0.628906 3.65625 -0.046875 C 3.601562 -0.0351562 3.519531 -0.03125 3.40625 -0.03125 C 2.925781 -0.03125 2.515625 -0.175781 2.171875 -0.46875 C 1.835938 -0.769531 1.671875 -1.171875 1.671875 -1.671875 C 1.671875 -2.160156 1.84375 -2.554688 2.1875 -2.859375 C 2.539062 -3.171875 2.960938 -3.328125 3.453125 -3.328125 Z M 3.453125 -3.328125 "/></g></g></g><g fill="#000000" fill-opacity="1"><g transform="translate(149.717862, 265.090016)"><g><path d="M 9.015625 -14.265625 C 10.367188 -14.265625 11.425781 -13.882812 12.1875 -13.125 C 12.945312 -12.363281 13.328125 -11.160156 13.328125 -9.515625 L 13.328125 0 L 1.65625 0 L 1.65625 -14.265625 Z M 10.609375 -2.078125 L 10.609375 -9.65625 C 10.609375 -10.550781 10.414062 -11.195312 10.03125 -11.59375 C 9.644531 -11.988281 9.078125 -12.1875 8.328125 -12.1875 L 4.375 -12.1875 L 4.375 -2.078125 Z M 10.609375 -2.078125 "/></g></g></g><g fill="#000000" fill-opacity="1"><g transform="translate(164.568406, 265.090016)"><g><path d="M 1.78125 -11.296875 L 1.46875 -14.265625 L 4.171875 -14.265625 L 4.5 -11.296875 L 4.5 -7.4375 L 4.46875 -5.84375 L 1.78125 -5.328125 Z M 1.78125 -11.296875 "/></g></g></g><g fill="#000000" fill-opacity="1"><g transform="translate(170.660944, 265.090016)"><g><path d="M 15.34375 -10.359375 C 15.375 -6.785156 14.375 -4.113281 12.34375 -2.34375 C 10.3125 -0.570312 7.195312 0.289062 3 0.25 L 1.140625 -14.265625 L 3.734375 -14.265625 L 4.546875 -7.515625 C 5.472656 -7.972656 6.101562 -8.570312 6.4375 -9.3125 C 6.78125 -10.0625 6.972656 -11.179688 7.015625 -12.671875 L 7.015625 -14.25 L 9.59375 -14.25 L 9.578125 -12.71875 C 9.535156 -10.851562 9.160156 -9.359375 8.453125 -8.234375 C 7.742188 -7.109375 6.523438 -6.203125 4.796875 -5.515625 L 5.203125 -2.0625 C 7.765625 -2.226562 9.648438 -2.988281 10.859375 -4.34375 C 12.066406 -5.695312 12.660156 -7.660156 12.640625 -10.234375 L 12.59375 -14.265625 L 15.3125 -14.265625 Z M 15.34375 -10.359375 "/></g></g></g><g fill="#000000" fill-opacity="1"><g transform="translate(187.212318, 265.090016)"><g><path d="M 1.78125 -11.296875 L 1.46875 -14.265625 L 4.171875 -14.265625 L 4.5 -11.296875 L 4.5 -7.4375 L 4.46875 -5.84375 L 1.78125 -5.328125 Z M 1.78125 -11.296875 "/></g></g></g><g fill="#000000" fill-opacity="1"><g transform="translate(193.304856, 265.090016)"><g><path d="M 15.34375 -10.359375 C 15.375 -6.785156 14.375 -4.113281 12.34375 -2.34375 C 10.3125 -0.570312 7.195312 0.289062 3 0.25 L 1.140625 -14.265625 L 3.734375 -14.265625 L 4.546875 -7.515625 C 5.472656 -7.972656 6.101562 -8.570312 6.4375 -9.3125 C 6.78125 -10.0625 6.972656 -11.179688 7.015625 -12.671875 L 7.015625 -14.25 L 9.59375 -14.25 L 9.578125 -12.71875 C 9.535156 -10.851562 9.160156 -9.359375 8.453125 -8.234375 C 7.742188 -7.109375 6.523438 -6.203125 4.796875 -5.515625 L 5.203125 -2.0625 C 7.765625 -2.226562 9.648438 -2.988281 10.859375 -4.34375 C 12.066406 -5.695312 12.660156 -7.660156 12.640625 -10.234375 L 12.59375 -14.265625 L 15.3125 -14.265625 Z M 15.34375 -10.359375 "/></g></g></g><g fill="#000000" fill-opacity="1"><g transform="translate(209.856231, 265.090016)"><g><path d="M 5.859375 -2.078125 C 6.691406 -2.160156 7.390625 -2.359375 7.953125 -2.671875 C 8.523438 -2.992188 8.984375 -3.519531 9.328125 -4.25 C 9.679688 -4.988281 9.898438 -6 9.984375 -7.28125 L 10.359375 -12.1875 L 1.375 -12.1875 L 1.375 -14.265625 L 13.28125 -14.265625 L 13.171875 -12.4375 L 12.828125 -7.921875 C 12.703125 -5.429688 12.082031 -3.5 10.96875 -2.125 C 9.851562 -0.757812 8.238281 -0.0390625 6.125 0.03125 Z M 1.328125 -7.15625 L 1.703125 -8.890625 L 4.03125 -8.890625 L 4.03125 5.078125 L 1.328125 5.078125 Z M 1.328125 -7.15625 "/></g></g></g><g fill="#000000" fill-opacity="1"><g transform="translate(224.249841, 265.090016)"><g/></g></g><g fill="#000000" fill-opacity="1"><g transform="translate(229.326948, 265.090016)"><g><path d="M 3.453125 -3.328125 C 4.078125 -3.328125 4.566406 -3.082031 4.921875 -2.59375 C 5.273438 -2.101562 5.453125 -1.425781 5.453125 -0.5625 C 5.453125 0.601562 5.128906 1.625 4.484375 2.5 C 3.847656 3.382812 2.945312 4.050781 1.78125 4.5 L 1.1875 3.046875 C 1.96875 2.722656 2.566406 2.296875 2.984375 1.765625 C 3.410156 1.234375 3.632812 0.628906 3.65625 -0.046875 C 3.601562 -0.0351562 3.519531 -0.03125 3.40625 -0.03125 C 2.925781 -0.03125 2.515625 -0.175781 2.171875 -0.46875 C 1.835938 -0.769531 1.671875 -1.171875 1.671875 -1.671875 C 1.671875 -2.160156 1.84375 -2.554688 2.1875 -2.859375 C 2.539062 -3.171875 2.960938 -3.328125 3.453125 -3.328125 Z M 3.453125 -3.328125 "/></g></g></g><g fill="#000000" fill-opacity="1"><g transform="translate(236.02873, 265.090016)"><g><path d="M 0.515625 -1.5 C 1.492188 -1.601562 2.148438 -1.863281 2.484375 -2.28125 C 2.828125 -2.707031 3 -3.394531 3 -4.34375 L 3 -14.265625 L 9.859375 -14.265625 C 11.210938 -14.265625 12.269531 -13.882812 13.03125 -13.125 C 13.789062 -12.363281 14.171875 -11.160156 14.171875 -9.515625 L 14.171875 0 L 11.453125 0 L 11.453125 -9.65625 C 11.453125 -10.550781 11.253906 -11.195312 10.859375 -11.59375 C 10.472656 -11.988281 9.910156 -12.1875 9.171875 -12.1875 L 5.71875 -12.1875 L 5.71875 -4.640625 C 5.71875 -2.972656 5.328125 -1.753906 4.546875 -0.984375 C 3.765625 -0.222656 2.503906 0.238281 0.765625 0.40625 Z M 0.515625 -1.5 "/></g></g></g><g fill="#000000" fill-opacity="1"><g transform="translate(251.716997, 265.090016)"><g><path d="M 1.78125 -11.296875 L 1.46875 -14.265625 L 4.171875 -14.265625 L 4.5 -11.296875 L 4.5 0 L 1.78125 0 Z M 1.78125 -11.296875 "/></g></g></g><g fill="#000000" fill-opacity="1"><g transform="translate(257.809535, 265.090016)"><g><path d="M 5.859375 -2.078125 C 6.691406 -2.160156 7.390625 -2.359375 7.953125 -2.671875 C 8.523438 -2.992188 8.984375 -3.519531 9.328125 -4.25 C 9.679688 -4.988281 9.898438 -6 9.984375 -7.28125 L 10.359375 -12.1875 L 1.375 -12.1875 L 1.375 -14.265625 L 13.28125 -14.265625 L 13.171875 -12.4375 L 12.828125 -7.921875 C 12.703125 -5.429688 12.082031 -3.5 10.96875 -2.125 C 9.851562 -0.757812 8.238281 -0.0390625 6.125 0.03125 Z M 1.328125 -7.15625 L 1.703125 -8.890625 L 4.03125 -8.890625 L 4.03125 5.078125 L 1.328125 5.078125 Z M 1.328125 -7.15625 "/></g></g></g><g fill="#000000" fill-opacity="1"><g transform="translate(272.203145, 265.090016)"><g><path d="M 1.78125 -11.296875 L 1.46875 -14.265625 L 4.171875 -14.265625 L 4.5 -11.296875 L 4.5 0 L 1.78125 0 Z M 1.78125 -11.296875 "/></g></g></g><g fill="#000000" fill-opacity="1"><g transform="translate(278.295683, 265.090016)"><g><path d="M 1.125 -2.078125 L 5.234375 -2.078125 L 5.234375 -10.0625 C 5.234375 -10.78125 5.085938 -11.304688 4.796875 -11.640625 C 4.515625 -11.972656 4.082031 -12.179688 3.5 -12.265625 L 1.78125 -12.515625 L 2.140625 -14.578125 L 4.78125 -14.1875 C 5.789062 -14.039062 6.570312 -13.613281 7.125 -12.90625 C 7.675781 -12.207031 7.953125 -11.273438 7.953125 -10.109375 L 7.953125 0 L 1.125 0 Z M 1.125 -2.078125 "/></g></g></g><g fill="#000000" fill-opacity="1"><g transform="translate(287.789882, 265.090016)"><g><path d="M 1.78125 -11.296875 L 1.46875 -14.265625 L 4.171875 -14.265625 L 4.5 -11.296875 L 4.5 -7.4375 L 4.46875 -5.84375 L 1.78125 -5.328125 Z M 1.78125 -11.296875 "/></g></g></g><g fill="#000000" fill-opacity="1"><g transform="translate(293.501596, 265.090016)"><g><path d="M 0.515625 -1.5 C 1.492188 -1.601562 2.148438 -1.863281 2.484375 -2.28125 C 2.828125 -2.707031 3 -3.394531 3 -4.34375 L 3 -14.265625 L 9.859375 -14.265625 C 11.210938 -14.265625 12.269531 -13.882812 13.03125 -13.125 C 13.789062 -12.363281 14.171875 -11.160156 14.171875 -9.515625 L 14.171875 0 L 11.453125 0 L 11.453125 -9.65625 C 11.453125 -10.550781 11.253906 -11.195312 10.859375 -11.59375 C 10.472656 -11.988281 9.910156 -12.1875 9.171875 -12.1875 L 5.71875 -12.1875 L 5.71875 -4.640625 C 5.71875 -2.972656 5.328125 -1.753906 4.546875 -0.984375 C 3.765625 -0.222656 2.503906 0.238281 0.765625 0.40625 Z M 0.515625 -1.5 "/></g></g></g><g fill="#000000" fill-opacity="1"><g transform="translate(309.189851, 265.090016)"><g><path d="M 1.046875 3.78125 C 1.992188 2.1875 2.703125 0.460938 3.171875 -1.390625 C 3.648438 -3.242188 3.890625 -5.132812 3.890625 -7.0625 C 3.890625 -8.988281 3.648438 -10.878906 3.171875 -12.734375 C 2.703125 -14.585938 1.992188 -16.3125 1.046875 -17.90625 L 2.640625 -18.609375 C 3.742188 -16.816406 4.578125 -14.976562 5.140625 -13.09375 C 5.710938 -11.21875 6 -9.207031 6 -7.0625 C 6 -4.90625 5.710938 -2.890625 5.140625 -1.015625 C 4.578125 0.859375 3.742188 2.695312 2.640625 4.5 Z M 1.046875 3.78125 "/></g></g></g><g fill="#000000" fill-opacity="1"><g transform="translate(143.221345, 293.566805)"><g><path d="M 5.359375 4.5 C 4.253906 2.695312 3.414062 0.859375 2.84375 -1.015625 C 2.28125 -2.890625 2 -4.90625 2 -7.0625 C 2 -9.207031 2.28125 -11.21875 2.84375 -13.09375 C 3.414062 -14.976562 4.253906 -16.816406 5.359375 -18.609375 L 6.953125 -17.90625 C 6.003906 -16.3125 5.289062 -14.585938 4.8125 -12.734375 C 4.34375 -10.878906 4.109375 -8.988281 4.109375 -7.0625 C 4.109375 -5.132812 4.34375 -3.242188 4.8125 -1.390625 C 5.289062 0.460938 6.003906 2.1875 6.953125 3.78125 Z M 5.359375 4.5 "/></g></g></g><g fill="#000000" fill-opacity="1"><g transform="translate(151.217796, 293.566805)"><g><path d="M 10 -9.65625 C 10 -10.550781 9.804688 -11.195312 9.421875 -11.59375 C 9.035156 -11.988281 8.46875 -12.1875 7.71875 -12.1875 L 1.46875 -12.1875 L 1.46875 -14.265625 L 8.40625 -14.265625 C 9.757812 -14.265625 10.816406 -13.882812 11.578125 -13.125 C 12.335938 -12.363281 12.71875 -11.160156 12.71875 -9.515625 L 12.71875 0 L 10 0 Z M 1.390625 -6.90625 L 1.78125 -8.609375 L 4.109375 -8.609375 L 4.109375 0 L 1.390625 0 Z M 1.390625 -6.90625 "/></g></g></g><g fill="#000000" fill-opacity="1"><g transform="translate(165.382928, 293.566805)"><g><path d="M 14.625 -7.1875 C 14.625 -4.8125 14.097656 -2.96875 13.046875 -1.65625 C 12.003906 -0.34375 10.515625 0.3125 8.578125 0.3125 C 7.867188 0.3125 7.144531 0.222656 6.40625 0.046875 L 6.671875 -2.03125 C 7.316406 -1.894531 7.867188 -1.828125 8.328125 -1.828125 C 9.617188 -1.828125 10.554688 -2.273438 11.140625 -3.171875 C 11.734375 -4.066406 12.03125 -5.378906 12.03125 -7.109375 C 12.03125 -8.953125 11.742188 -10.273438 11.171875 -11.078125 C 10.609375 -11.890625 9.804688 -12.296875 8.765625 -12.296875 C 7.953125 -12.296875 7.285156 -12.0625 6.765625 -11.59375 C 6.253906 -11.125 5.910156 -10.5 5.734375 -9.71875 L 4.03125 0 L 1.328125 0 L 3.15625 -9.828125 L 1.171875 -14.265625 L 3.984375 -14.265625 L 5.125 -11.28125 C 5.476562 -12.34375 6.019531 -13.140625 6.75 -13.671875 C 7.476562 -14.203125 8.3125 -14.46875 9.25 -14.46875 C 10.9375 -14.46875 12.253906 -13.878906 13.203125 -12.703125 C 14.148438 -11.523438 14.625 -9.6875 14.625 -7.1875 Z M 14.625 -7.1875 "/></g></g></g><g fill="#000000" fill-opacity="1"><g transform="translate(181.14735, 293.566805)"><g><path d="M 1.78125 -11.296875 L 1.46875 -14.265625 L 4.171875 -14.265625 L 4.5 -11.296875 L 4.5 0 L 1.78125 0 Z M 1.78125 -11.296875 "/></g></g></g><g fill="#000000" fill-opacity="1"><g transform="translate(187.239888, 293.566805)"><g><path d="M 7.28125 -9.21875 C 7.28125 -10.539062 7.519531 -11.53125 8 -12.1875 L 1.140625 -12.1875 L 1.140625 -14.265625 L 12.46875 -14.265625 L 12.46875 -12.1875 L 10.5625 -12.1875 C 10.1875 -11.476562 10 -10.488281 10 -9.21875 L 10 0 L 7.28125 0 Z M 7.28125 -9.21875 "/></g></g></g><g fill="#000000" fill-opacity="1"><g transform="translate(200.922701, 293.566805)"><g><path d="M 0.96875 -2.078125 L 4.625 -2.078125 C 5.820312 -2.078125 6.71875 -2.441406 7.3125 -3.171875 C 7.90625 -3.898438 8.203125 -4.929688 8.203125 -6.265625 L 8.203125 -8 C 8.203125 -9.332031 7.90625 -10.363281 7.3125 -11.09375 C 6.71875 -11.820312 5.820312 -12.1875 4.625 -12.1875 L 0.96875 -12.1875 L 0.96875 -14.265625 L 5.28125 -14.265625 C 7.09375 -14.265625 8.484375 -13.707031 9.453125 -12.59375 C 10.429688 -11.476562 10.921875 -9.90625 10.921875 -7.875 L 10.921875 -6.40625 C 10.921875 -4.375 10.429688 -2.796875 9.453125 -1.671875 C 8.484375 -0.554688 7.09375 0 5.28125 0 L 0.96875 0 Z M 0.96875 -2.078125 "/></g></g></g><g fill="#000000" fill-opacity="1"><g transform="translate(213.056995, 293.566805)"><g><path d="M 1.78125 -11.296875 L 1.46875 -14.265625 L 4.171875 -14.265625 L 4.5 -11.296875 L 4.5 0 L 1.78125 0 Z M 1.78125 -11.296875 "/></g></g></g></svg>