<svg xmlns="http://www.w3.org/2000/svg" xmlns:xlink="http://www.w3.org/1999/xlink" width="361" zoomAndPan="magnify" viewBox="0 0 270.75 278.999983" height="372" preserveAspectRatio="xMidYMid meet" version="1.0"><defs><g/><clipPath id="1f9d71f8ae"><path d="M 61 23.835938 L 202 23.835938 L 202 210 L 61 210 Z M 61 23.835938 " clip-rule="nonzero"/></clipPath></defs><g fill="#000000" fill-opacity="1"><g transform="translate(70.263319, 266.520956)"><g><path d="M 7.3125 -14.265625 C 9 -14.265625 10.28125 -13.707031 11.15625 -12.59375 C 12.039062 -11.488281 12.484375 -9.921875 12.484375 -7.890625 L 12.484375 5.078125 L 9.765625 5.078125 L 9.765625 -8 C 9.765625 -10.789062 8.722656 -12.1875 6.640625 -12.1875 L 4.3125 -12.1875 L 3.90625 -10.125 C 3.84375 -9.769531 3.8125 -9.378906 3.8125 -8.953125 C 3.8125 -8.410156 3.910156 -7.976562 4.109375 -7.65625 C 4.316406 -7.34375 4.65625 -7.140625 5.125 -7.046875 L 4.5625 -5.375 C 3.394531 -5.476562 2.550781 -5.804688 2.03125 -6.359375 C 1.519531 -6.921875 1.265625 -7.6875 1.265625 -8.65625 C 1.265625 -9.195312 1.328125 -9.726562 1.453125 -10.25 L 2.3125 -14.265625 Z M 7.3125 -14.265625 "/></g></g></g><g fill="#000000" fill-opacity="1"><g transform="translate(84.344334, 266.520956)"><g><path d="M 7.28125 -9.21875 C 7.28125 -10.53125 7.519531 -11.519531 8 -12.1875 L 1.140625 -12.1875 L 1.140625 -14.265625 L 12.453125 -14.265625 L 12.453125 -12.1875 L 10.5625 -12.1875 C 10.1875 -11.46875 10 -10.476562 10 -9.21875 L 10 0 L 7.28125 0 Z M 7.28125 -9.21875 "/></g></g></g><g fill="#000000" fill-opacity="1"><g transform="translate(98.019401, 266.520956)"><g><path d="M 12.765625 -14.265625 C 12.765625 -10.847656 12.632812 -8.28125 12.375 -6.5625 C 12.113281 -4.84375 11.476562 -3.445312 10.46875 -2.375 C 9.457031 -1.300781 7.835938 -0.539062 5.609375 -0.09375 L 0.84375 0.84375 L 0.453125 -1.296875 L 4.75 -2.125 L 1.625 -14.265625 L 4.34375 -14.265625 L 7.1875 -2.765625 C 8.09375 -3.171875 8.75 -3.78125 9.15625 -4.59375 C 9.5625 -5.40625 9.816406 -6.429688 9.921875 -7.671875 C 10.023438 -8.921875 10.078125 -10.785156 10.078125 -13.265625 L 10.078125 -14.265625 Z M 12.765625 -14.265625 "/></g></g></g><g fill="#000000" fill-opacity="1"><g transform="translate(111.998931, 266.520956)"><g><path d="M 1.78125 -11.296875 L 1.46875 -14.265625 L 4.15625 -14.265625 L 4.484375 -11.296875 L 4.484375 0 L 1.78125 0 Z M 1.78125 -11.296875 "/></g></g></g><g fill="#000000" fill-opacity="1"><g transform="translate(118.08802, 266.520956)"><g><path d="M 14.609375 -7.1875 C 14.609375 -4.8125 14.082031 -2.96875 13.03125 -1.65625 C 11.988281 -0.351562 10.503906 0.296875 8.578125 0.296875 C 7.867188 0.296875 7.140625 0.210938 6.390625 0.046875 L 6.671875 -2.03125 C 7.316406 -1.894531 7.867188 -1.828125 8.328125 -1.828125 C 9.609375 -1.828125 10.546875 -2.273438 11.140625 -3.171875 C 11.734375 -4.066406 12.03125 -5.378906 12.03125 -7.109375 C 12.03125 -8.953125 11.742188 -10.273438 11.171875 -11.078125 C 10.609375 -11.878906 9.800781 -12.28125 8.75 -12.28125 C 7.9375 -12.28125 7.269531 -12.046875 6.75 -11.578125 C 6.238281 -11.117188 5.898438 -10.5 5.734375 -9.71875 L 4.03125 0 L 1.3125 0 L 3.140625 -9.8125 L 1.171875 -14.265625 L 3.984375 -14.265625 L 5.125 -11.265625 C 5.476562 -12.328125 6.019531 -13.125 6.75 -13.65625 C 7.476562 -14.195312 8.304688 -14.46875 9.234375 -14.46875 C 10.929688 -14.46875 12.25 -13.878906 13.1875 -12.703125 C 14.132812 -11.523438 14.609375 -9.6875 14.609375 -7.1875 Z M 14.609375 -7.1875 "/></g></g></g><g fill="#000000" fill-opacity="1"><g transform="translate(133.843533, 266.520956)"><g/></g></g><g fill="#000000" fill-opacity="1"><g transform="translate(138.91777, 266.520956)"><g><path d="M 12.765625 -14.265625 C 12.765625 -10.847656 12.632812 -8.28125 12.375 -6.5625 C 12.113281 -4.84375 11.476562 -3.445312 10.46875 -2.375 C 9.457031 -1.300781 7.835938 -0.539062 5.609375 -0.09375 L 0.84375 0.84375 L 0.453125 -1.296875 L 4.75 -2.125 L 1.625 -14.265625 L 4.34375 -14.265625 L 7.1875 -2.765625 C 8.09375 -3.171875 8.75 -3.78125 9.15625 -4.59375 C 9.5625 -5.40625 9.816406 -6.429688 9.921875 -7.671875 C 10.023438 -8.921875 10.078125 -10.785156 10.078125 -13.265625 L 10.078125 -14.265625 Z M 12.765625 -14.265625 "/></g></g></g><g fill="#000000" fill-opacity="1"><g transform="translate(152.8973, 266.520956)"><g><path d="M 1.78125 -11.296875 L 1.46875 -14.265625 L 4.15625 -14.265625 L 4.484375 -11.296875 L 4.484375 0 L 1.78125 0 Z M 1.78125 -11.296875 "/></g></g></g><g fill="#000000" fill-opacity="1"><g transform="translate(158.986389, 266.520956)"><g><path d="M 8.8125 -6.109375 L 12.359375 0 L 0.890625 0 L 0.890625 -2.078125 L 8.375 -2.078125 L 1.296875 -14.265625 L 4.0625 -14.265625 L 7.328125 -8.625 L 9.6875 -14.265625 L 12.40625 -14.265625 Z M 8.8125 -6.109375 "/></g></g></g><g fill="#000000" fill-opacity="1"><g transform="translate(172.585343, 266.520956)"><g><path d="M 12.765625 -14.265625 C 12.765625 -10.847656 12.632812 -8.28125 12.375 -6.5625 C 12.113281 -4.84375 11.476562 -3.445312 10.46875 -2.375 C 9.457031 -1.300781 7.835938 -0.539062 5.609375 -0.09375 L 0.84375 0.84375 L 0.453125 -1.296875 L 4.75 -2.125 L 1.625 -14.265625 L 4.34375 -14.265625 L 7.1875 -2.765625 C 8.09375 -3.171875 8.75 -3.78125 9.15625 -4.59375 C 9.5625 -5.40625 9.816406 -6.429688 9.921875 -7.671875 C 10.023438 -8.921875 10.078125 -10.785156 10.078125 -13.265625 L 10.078125 -14.265625 Z M 12.765625 -14.265625 "/></g></g></g><g fill="#000000" fill-opacity="1"><g transform="translate(186.564874, 266.520956)"><g><path d="M 8.8125 -6.109375 L 12.359375 0 L 0.890625 0 L 0.890625 -2.078125 L 8.375 -2.078125 L 1.296875 -14.265625 L 4.0625 -14.265625 L 7.328125 -8.625 L 9.6875 -14.265625 L 12.40625 -14.265625 Z M 8.8125 -6.109375 "/></g></g></g><g clip-path="url(#1f9d71f8ae)"><path fill="#ffe575" d="M 133.15625 32.4375 C 140.089844 32.4375 146.589844 34.171875 152.320312 37.1875 C 155.375 33.394531 160.042969 30.949219 165.242188 30.949219 C 174.457031 30.949219 181.898438 38.511719 181.898438 47.867188 C 181.898438 54.414062 178.25 60.101562 172.886719 62.914062 C 173.824219 66.359375 174.335938 70.007812 174.335938 73.757812 C 174.335938 84.726562 170.074219 94.714844 163.082031 102.113281 C 164.367188 101.808594 182.425781 95.183594 191.84375 94.855469 C 185.21875 102.847656 185.894531 108.617188 186.566406 113.34375 C 187.238281 118.09375 185.8125 122.089844 195.921875 126.125 C 191.925781 126.636719 177.941406 128.757812 171.5625 127.023438 C 173.355469 131.835938 174.335938 137.050781 174.335938 142.496094 C 174.335938 146.613281 173.785156 150.566406 172.722656 154.320312 C 180.796875 154.054688 191.5 156.519531 201.628906 161.289062 C 196.695312 163.207031 190.195312 166 187.851562 176.539062 C 185.464844 187.078125 188.992188 195.882812 192.863281 201.652344 C 180.0625 201.898438 166.894531 197.65625 154.867188 193.785156 C 147.140625 191.316406 139.230469 189.195312 134.09375 190.929688 C 124.738281 194.027344 96.136719 206.828125 90.878906 207.707031 C 85.621094 208.601562 81.910156 209.539062 79.199219 209.070312 C 82.214844 203.628906 88.167969 195.394531 85.824219 184.894531 C 83.480469 174.398438 71.023438 172.15625 66.152344 170.707031 C 70.414062 164.9375 83.113281 161.066406 89.777344 160.414062 C 87.351562 154.929688 86.925781 148.894531 86.925781 142.515625 C 86.925781 136.480469 87.191406 130.734375 89.390625 125.515625 C 78.078125 126.1875 72.226562 125.085938 68.578125 124.191406 C 64.929688 123.292969 62.933594 122.539062 61.054688 121.335938 C 67.804688 121.539062 74.695312 118.910156 77.546875 109.003906 C 80.484375 98.8125 71.511719 93.183594 68.292969 90.777344 C 72.410156 91.167969 77.609375 93.835938 84.355469 96.097656 C 91.101562 98.363281 101.011719 100.808594 101.011719 100.808594 C 101.011719 100.808594 92.265625 87.679688 91.613281 77.101562 C 90.960938 66.519531 93.285156 61.894531 95.648438 56.738281 C 89.066406 54.496094 84.375 48.195312 84.375 40.753906 C 84.375 31.398438 91.816406 23.835938 101.03125 23.835938 C 108.511719 23.835938 114.851562 28.890625 116.972656 35.78125 C 121.945312 33.640625 127.386719 32.4375 133.15625 32.4375 Z M 133.15625 32.4375 " fill-opacity="1" fill-rule="evenodd"/></g><path fill="#ffe575" d="M 159.597656 82.359375 C 159.679688 76.183594 157.722656 72.472656 154.070312 68.152344 C 151.851562 65.460938 150.238281 65.683594 147.203125 64.21875 C 142.839844 62.117188 143.554688 63.28125 138.640625 62.382812 C 132.628906 61.261719 126.777344 65.828125 123.984375 68.601562 C 122.066406 70.515625 120.457031 71.597656 119.355469 74.410156 C 118.828125 75.796875 116.910156 80.851562 116.910156 81.648438 L 116.910156 85.988281 C 116.910156 92.695312 121.109375 98.914062 124.882812 102.09375 C 130.894531 107.148438 134.871094 106.882812 142.71875 106.882812 C 144.183594 105.90625 146.589844 105.414062 148.832031 104.027344 C 150.667969 102.867188 152.136719 101.664062 153.460938 100.054688 C 155.683594 97.425781 158.863281 92.980469 158.863281 88.167969 L 159.574219 88.167969 L 159.574219 85.988281 Z M 159.597656 82.359375 " fill-opacity="1" fill-rule="evenodd"/><path fill="#ffce00" d="M 67.496094 90.757812 C 51.351562 91.820312 50.578125 121.90625 64.09375 121.90625 L 64.765625 121.90625 C 81.21875 121.949219 83.601562 90.757812 67.496094 90.757812 Z M 67.496094 90.757812 " fill-opacity="1" fill-rule="evenodd"/><path fill="#ffce00" d="M 194.1875 94.753906 C 208.5625 96.996094 206.765625 127.347656 194.660156 126.371094 L 194.027344 126.332031 C 179.347656 125.128906 179.777344 93.59375 194.1875 94.753906 Z M 194.1875 94.753906 " fill-opacity="1" fill-rule="evenodd"/><path fill="#bd9700" d="M 153.542969 66.132812 C 155.582031 66.132812 157.273438 64.484375 157.273438 62.402344 C 157.273438 60.363281 155.621094 58.671875 153.542969 58.671875 C 151.503906 58.671875 149.8125 60.324219 149.8125 62.402344 C 149.8125 64.441406 151.460938 66.132812 153.542969 66.132812 Z M 153.542969 66.132812 " fill-opacity="1" fill-rule="evenodd"/><path fill="#bd9700" d="M 122.984375 66.132812 C 125.246094 66.132812 127.101562 64.300781 127.101562 62.015625 C 127.101562 59.753906 125.269531 57.898438 122.984375 57.898438 C 120.722656 57.898438 118.867188 59.734375 118.867188 62.015625 C 118.867188 64.277344 120.703125 66.132812 122.984375 66.132812 Z M 122.984375 66.132812 " fill-opacity="1" fill-rule="evenodd"/><path fill="#ffce00" d="M 138.253906 106.863281 C 150.464844 106.863281 160.390625 97.34375 160.390625 85.703125 C 160.390625 74.0625 150.464844 64.542969 138.253906 64.542969 C 126.042969 64.542969 116.117188 74.0625 116.117188 85.703125 C 116.117188 97.34375 126.0625 106.863281 138.253906 106.863281 Z M 138.253906 106.863281 " fill-opacity="1" fill-rule="evenodd"/><path fill="#bd9700" d="M 142.574219 81.402344 C 145.265625 81.402344 147.46875 79.222656 147.46875 76.507812 C 147.46875 73.820312 145.285156 71.617188 142.574219 71.617188 C 139.882812 71.617188 137.683594 73.796875 137.683594 76.507812 C 137.664062 79.199219 139.882812 81.402344 142.574219 81.402344 Z M 142.574219 81.402344 " fill-opacity="1" fill-rule="evenodd"/><path fill="#bd9700" d="M 143.738281 78.671875 C 143.738281 78.710938 144.796875 87.722656 141.964844 91.859375 C 140.535156 93.898438 137.722656 94.347656 135.421875 94.347656 C 131.894531 94.347656 129.101562 92.574219 127.492188 88.273438 L 128.875 87.722656 C 130.832031 92.878906 134.585938 93.246094 139.253906 91.796875 C 143.757812 90.390625 142.371094 78.855469 142.371094 78.792969 Z M 143.738281 78.671875 " fill-opacity="1" fill-rule="evenodd"/><path fill="#bd9700" d="M 153.339844 90.1875 C 153.339844 90.230469 146.40625 99.542969 140.800781 91.351562 L 141.984375 90.230469 C 146.183594 96.34375 152.011719 89.679688 152.074219 89.617188 Z M 153.339844 90.1875 " fill-opacity="1" fill-rule="evenodd"/><path fill="#ffce00" d="M 191.640625 201.53125 C 185.015625 200 181.773438 189.707031 184.363281 178.578125 C 186.953125 167.445312 194.433594 159.660156 201.058594 161.1875 C 207.683594 162.71875 210.925781 173.011719 208.335938 184.140625 C 205.746094 195.292969 198.265625 203.078125 191.640625 201.53125 Z M 191.640625 201.53125 " fill-opacity="1" fill-rule="evenodd"/><path fill="#ffce00" d="M 79.21875 209.152344 C 85.84375 207.625 89.085938 197.332031 86.496094 186.199219 C 83.90625 175.070312 76.425781 167.285156 69.800781 168.8125 C 63.175781 170.339844 59.933594 180.636719 62.523438 191.765625 C 65.113281 202.894531 72.59375 210.683594 79.21875 209.152344 Z M 79.21875 209.152344 " fill-opacity="1" fill-rule="evenodd"/><path fill="#ffce00" d="M 150.28125 192.375 C 143.738281 190.664062 137.519531 189.726562 133.097656 191.214844 C 131.058594 191.90625 128.265625 192.925781 125.023438 194.230469 C 114.261719 188.851562 106.308594 171.074219 106.308594 153.542969 C 106.308594 136.011719 119.4375 117.441406 135.683594 117.441406 C 151.890625 117.441406 165.058594 136.746094 165.058594 153.542969 C 165.101562 170.339844 159.332031 186.261719 150.28125 192.375 Z M 150.28125 192.375 " fill-opacity="1" fill-rule="evenodd"/><path fill="#bd9700" d="M 110.347656 39.53125 C 109.367188 35.292969 105.839844 32.214844 101.601562 32.214844 C 96.628906 32.214844 92.589844 36.554688 92.589844 41.894531 C 92.589844 46.402344 95.445312 50.171875 99.339844 51.253906 C 101.929688 47.625 105.800781 42.976562 110.347656 39.53125 Z M 110.347656 39.53125 " fill-opacity="1" fill-rule="evenodd"/><path fill="#bd9700" d="M 169.035156 56.921875 C 172.722656 55.695312 175.414062 52.027344 175.414062 47.664062 C 175.414062 42.34375 171.378906 37.984375 166.40625 37.984375 C 162.878906 37.984375 159.820312 40.144531 158.332031 43.304688 C 162.859375 48.214844 166.527344 53.191406 169.035156 56.921875 Z M 169.035156 56.921875 " fill-opacity="1" fill-rule="evenodd"/></svg>