<svg xmlns="http://www.w3.org/2000/svg" xmlns:xlink="http://www.w3.org/1999/xlink" width="361" zoomAndPan="magnify" viewBox="0 0 270.75 397.499983" height="530" preserveAspectRatio="xMidYMid meet" version="1.0"><defs><g/><clipPath id="d1c615fa46"><path d="M 183.414062 153.277344 L 228.910156 153.277344 L 228.910156 191.492188 L 183.414062 191.492188 Z M 183.414062 153.277344 " clip-rule="nonzero"/></clipPath><clipPath id="ec5a5651d3"><path d="M 143 23.023438 L 187 23.023438 L 187 45 L 143 45 Z M 143 23.023438 " clip-rule="nonzero"/></clipPath><clipPath id="d0169042bb"><path d="M 97.363281 153.277344 L 143 153.277344 L 143 191.492188 L 97.363281 191.492188 Z M 97.363281 153.277344 " clip-rule="nonzero"/></clipPath><clipPath id="c74df953ef"><path d="M 57 23.023438 L 101 23.023438 L 101 45 L 57 45 Z M 57 23.023438 " clip-rule="nonzero"/></clipPath></defs><path fill="#d67893" d="M 186.753906 44.074219 C 188.191406 66.273438 190.5 102.230469 191.226562 115.085938 C 191.226562 115.085938 211.625 136.300781 222.792969 153.628906 C 220.125 176.605469 197.011719 161.359375 184.128906 180.300781 C 183.292969 179.117188 178.035156 172.410156 177.210938 171.058594 C 177.210938 171.058594 172.203125 159.246094 161.152344 149.40625 C 160.679688 148.984375 143.945312 111.347656 144.121094 107.59375 C 145.144531 85.867188 144.785156 64.113281 143.714844 42.199219 C 157.417969 33.730469 172.433594 33.378906 186.753906 44.074219 " fill-opacity="1" fill-rule="evenodd"/><g clip-path="url(#d1c615fa46)"><path fill="#b6eaff" d="M 222.792969 153.628906 C 227.382812 161.503906 230.148438 169.078125 228.691406 174.675781 C 228.691406 174.675781 228.410156 184.628906 210.441406 191.167969 C 210.441406 191.167969 197.296875 194.425781 184.128906 180.300781 C 179.347656 157.78125 213.667969 154.183594 222.792969 153.628906 " fill-opacity="1" fill-rule="evenodd"/></g><g clip-path="url(#ec5a5651d3)"><path fill="#b6eaff" d="M 145.160156 23.3125 C 151.894531 23.597656 176.746094 26.699219 185.507812 24.933594 C 185.507812 24.933594 186.023438 32.824219 186.753906 44.074219 C 178.242188 44.742188 161.675781 43.511719 150.589844 42.691406 C 147.9375 42.492188 145.59375 42.320312 143.714844 42.199219 C 143.449219 35.9375 143.3125 30.019531 143.425781 24.6875 C 143.464844 23.039062 143.207031 23.230469 145.160156 23.3125 " fill-opacity="1" fill-rule="evenodd"/></g><path fill="#b6eaff" d="M 161.488281 149.710938 C 168.769531 127.667969 155.617188 114.082031 144.15625 106.808594 C 143.847656 113.535156 143.410156 120.257812 142.820312 126.984375 C 141.96875 136.660156 152.265625 142.929688 152.265625 142.929688 C 155.71875 144.9375 158.789062 147.269531 161.488281 149.710938 " fill-opacity="1" fill-rule="evenodd"/><path fill="#d67893" d="M 100.65625 44.074219 C 102.09375 66.273438 104.402344 102.230469 105.128906 115.085938 C 105.128906 115.085938 125.527344 136.300781 136.695312 153.628906 C 134.027344 176.605469 110.914062 161.359375 98.03125 180.300781 C 97.195312 179.117188 91.9375 172.410156 91.117188 171.058594 C 91.117188 171.058594 86.105469 159.246094 75.054688 149.40625 C 74.582031 148.984375 57.84375 111.347656 58.023438 107.59375 C 59.046875 85.867188 58.691406 64.113281 57.617188 42.199219 C 71.320312 33.730469 86.339844 33.378906 100.65625 44.074219 " fill-opacity="1" fill-rule="evenodd"/><g clip-path="url(#d0169042bb)"><path fill="#b6eaff" d="M 136.695312 153.628906 C 141.289062 161.503906 144.050781 169.078125 142.59375 174.675781 C 142.59375 174.675781 142.3125 184.628906 124.347656 191.167969 C 124.347656 191.167969 111.199219 194.425781 98.03125 180.300781 C 93.25 157.78125 127.574219 154.183594 136.695312 153.628906 " fill-opacity="1" fill-rule="evenodd"/></g><g clip-path="url(#c74df953ef)"><path fill="#b6eaff" d="M 59.0625 23.3125 C 65.796875 23.597656 90.652344 26.699219 99.410156 24.933594 C 99.410156 24.933594 99.925781 32.824219 100.65625 44.074219 C 92.144531 44.742188 75.574219 43.511719 64.492188 42.691406 C 61.839844 42.492188 59.5 42.320312 57.617188 42.199219 C 57.351562 35.9375 57.214844 30.019531 57.332031 24.6875 C 57.367188 23.039062 57.109375 23.230469 59.0625 23.3125 " fill-opacity="1" fill-rule="evenodd"/></g><path fill="#b6eaff" d="M 75.394531 149.710938 C 82.671875 127.667969 69.519531 114.082031 58.058594 106.808594 C 57.753906 113.535156 57.3125 120.257812 56.722656 126.984375 C 55.871094 136.660156 66.171875 142.929688 66.171875 142.929688 C 69.625 144.9375 72.691406 147.269531 75.394531 149.710938 " fill-opacity="1" fill-rule="evenodd"/><g fill="#000000" fill-opacity="1"><g transform="translate(31.96609, 242.321843)"><g><path d="M 7.28125 -9.21875 C 7.28125 -10.53125 7.519531 -11.519531 8 -12.1875 L 1.140625 -12.1875 L 1.140625 -14.265625 L 12.453125 -14.265625 L 12.453125 -12.1875 L 10.5625 -12.1875 C 10.1875 -11.46875 10 -10.476562 10 -9.21875 L 10 0 L 7.28125 0 Z M 7.28125 -9.21875 "/></g></g></g><g fill="#000000" fill-opacity="1"><g transform="translate(45.642851, 242.321843)"><g><path d="M 2.078125 -14.84375 L 2 -17.484375 L 4.671875 -17.484375 L 4.59375 -14.84375 L 4.078125 -10.375 L 2.59375 -10.375 Z M 7 -14.84375 L 6.921875 -17.484375 L 9.59375 -17.484375 L 9.515625 -14.84375 L 9 -10.375 L 7.515625 -10.375 Z M 7 -14.84375 "/></g></g></g><g fill="#000000" fill-opacity="1"><g transform="translate(57.264287, 242.321843)"><g><path d="M 14.609375 -7.1875 C 14.609375 -4.8125 14.082031 -2.96875 13.03125 -1.65625 C 11.988281 -0.351562 10.503906 0.296875 8.578125 0.296875 C 7.867188 0.296875 7.140625 0.210938 6.390625 0.046875 L 6.671875 -2.03125 C 7.316406 -1.894531 7.867188 -1.828125 8.328125 -1.828125 C 9.609375 -1.828125 10.546875 -2.273438 11.140625 -3.171875 C 11.734375 -4.066406 12.03125 -5.378906 12.03125 -7.109375 C 12.03125 -8.953125 11.742188 -10.273438 11.171875 -11.078125 C 10.609375 -11.878906 9.800781 -12.28125 8.75 -12.28125 C 7.9375 -12.28125 7.269531 -12.046875 6.75 -11.578125 C 6.238281 -11.117188 5.898438 -10.5 5.734375 -9.71875 L 4.03125 0 L 1.3125 0 L 3.140625 -9.8125 L 1.171875 -14.265625 L 3.984375 -14.265625 L 5.125 -11.265625 C 5.476562 -12.328125 6.019531 -13.125 6.75 -13.65625 C 7.476562 -14.195312 8.304688 -14.46875 9.234375 -14.46875 C 10.929688 -14.46875 12.25 -13.878906 13.1875 -12.703125 C 14.132812 -11.523438 14.609375 -9.6875 14.609375 -7.1875 Z M 14.609375 -7.1875 "/></g></g></g><g fill="#000000" fill-opacity="1"><g transform="translate(73.021737, 242.321843)"><g><path d="M 14.609375 -7.1875 C 14.609375 -4.8125 14.082031 -2.96875 13.03125 -1.65625 C 11.988281 -0.351562 10.503906 0.296875 8.578125 0.296875 C 7.867188 0.296875 7.140625 0.210938 6.390625 0.046875 L 6.671875 -2.03125 C 7.316406 -1.894531 7.867188 -1.828125 8.328125 -1.828125 C 9.609375 -1.828125 10.546875 -2.273438 11.140625 -3.171875 C 11.734375 -4.066406 12.03125 -5.378906 12.03125 -7.109375 C 12.03125 -8.953125 11.742188 -10.273438 11.171875 -11.078125 C 10.609375 -11.878906 9.800781 -12.28125 8.75 -12.28125 C 7.9375 -12.28125 7.269531 -12.046875 6.75 -11.578125 C 6.238281 -11.117188 5.898438 -10.5 5.734375 -9.71875 L 4.03125 0 L 1.3125 0 L 3.140625 -9.8125 L 1.171875 -14.265625 L 3.984375 -14.265625 L 5.125 -11.265625 C 5.476562 -12.328125 6.019531 -13.125 6.75 -13.65625 C 7.476562 -14.195312 8.304688 -14.46875 9.234375 -14.46875 C 10.929688 -14.46875 12.25 -13.878906 13.1875 -12.703125 C 14.132812 -11.523438 14.609375 -9.6875 14.609375 -7.1875 Z M 14.609375 -7.1875 "/></g></g></g><g fill="#000000" fill-opacity="1"><g transform="translate(88.779186, 242.321843)"><g><path d="M 10 -9.640625 C 10 -10.535156 9.800781 -11.179688 9.40625 -11.578125 C 9.019531 -11.984375 8.457031 -12.1875 7.71875 -12.1875 L 1.46875 -12.1875 L 1.46875 -14.265625 L 8.40625 -14.265625 C 9.75 -14.265625 10.800781 -13.882812 11.5625 -13.125 C 12.332031 -12.363281 12.71875 -11.160156 12.71875 -9.515625 L 12.71875 0 L 10 0 Z M 1.390625 -6.90625 L 1.78125 -8.609375 L 4.109375 -8.609375 L 4.109375 0 L 1.390625 0 Z M 1.390625 -6.90625 "/></g></g></g><g fill="#000000" fill-opacity="1"><g transform="translate(102.938053, 242.321843)"><g/></g></g><g fill="#000000" fill-opacity="1"><g transform="translate(108.012914, 242.321843)"><g><path d="M 0.5 -1.5 C 1.488281 -1.601562 2.148438 -1.863281 2.484375 -2.28125 C 2.828125 -2.707031 3 -3.394531 3 -4.34375 L 3 -14.265625 L 9.84375 -14.265625 C 11.195312 -14.265625 12.253906 -13.882812 13.015625 -13.125 C 13.773438 -12.363281 14.15625 -11.160156 14.15625 -9.515625 L 14.15625 0 L 11.4375 0 L 11.4375 -9.640625 C 11.4375 -10.535156 11.242188 -11.179688 10.859375 -11.578125 C 10.472656 -11.984375 9.90625 -12.1875 9.15625 -12.1875 L 5.703125 -12.1875 L 5.703125 -4.640625 C 5.703125 -2.960938 5.3125 -1.742188 4.53125 -0.984375 C 3.757812 -0.222656 2.503906 0.238281 0.765625 0.40625 Z M 0.5 -1.5 "/></g></g></g><g fill="#000000" fill-opacity="1"><g transform="translate(123.694241, 242.321843)"><g><path d="M 11.140625 0 L 5.8125 -8.09375 L 3.296875 0 L 0.703125 0 L 3.5 -8.734375 L 4.21875 -10.53125 L 1.875 -14.265625 L 4.640625 -14.265625 L 6.78125 -10.828125 L 8.90625 -7.640625 L 9.546875 -9.84375 L 10.828125 -14.265625 L 13.453125 -14.265625 L 10.5 -5.28125 L 14.03125 0 Z M 11.140625 0 "/></g></g></g><g fill="#000000" fill-opacity="1"><g transform="translate(138.563591, 242.321843)"><g/></g></g><g fill="#000000" fill-opacity="1"><g transform="translate(143.638452, 242.321843)"><g><path d="M 7.28125 -9.21875 C 7.28125 -10.53125 7.519531 -11.519531 8 -12.1875 L 1.140625 -12.1875 L 1.140625 -14.265625 L 12.453125 -14.265625 L 12.453125 -12.1875 L 10.5625 -12.1875 C 10.1875 -11.46875 10 -10.476562 10 -9.21875 L 10 0 L 7.28125 0 Z M 7.28125 -9.21875 "/></g></g></g><g fill="#000000" fill-opacity="1"><g transform="translate(157.315214, 242.321843)"><g><path d="M 1.78125 -11.296875 L 1.46875 -14.265625 L 4.15625 -14.265625 L 4.484375 -11.296875 L 4.484375 -7.4375 L 4.46875 -5.84375 L 1.78125 -5.328125 Z M 1.78125 -11.296875 "/></g></g></g><g fill="#000000" fill-opacity="1"><g transform="translate(163.405056, 242.321843)"><g><path d="M 1.78125 -11.296875 L 1.46875 -14.265625 L 4.15625 -14.265625 L 4.484375 -11.296875 L 4.484375 -7.4375 L 4.46875 -5.84375 L 1.78125 -5.328125 Z M 1.78125 -11.296875 "/></g></g></g><g fill="#000000" fill-opacity="1"><g transform="translate(169.494899, 242.321843)"><g><path d="M 8.8125 -6.109375 L 12.359375 0 L 0.890625 0 L 0.890625 -2.078125 L 8.375 -2.078125 L 1.296875 -14.265625 L 4.0625 -14.265625 L 7.328125 -8.625 L 9.6875 -14.265625 L 12.40625 -14.265625 Z M 8.8125 -6.109375 "/></g></g></g><g fill="#000000" fill-opacity="1"><g transform="translate(183.095539, 242.321843)"><g><path d="M 11.3125 -14.265625 L 11.3125 -12 L 6.578125 0 L 3.859375 0 L 8.609375 -12.1875 L 0.96875 -12.1875 L 0.96875 -18.1875 L 3.421875 -18.1875 L 3.421875 -14.265625 Z M 11.3125 -14.265625 "/></g></g></g><g fill="#000000" fill-opacity="1"><g transform="translate(195.427457, 242.321843)"><g/></g></g><g fill="#000000" fill-opacity="1"><g transform="translate(200.502319, 242.321843)"><g><path d="M 1.78125 -11.296875 L 1.46875 -14.265625 L 4.15625 -14.265625 L 4.484375 -11.296875 L 4.484375 -7.4375 L 4.46875 -5.84375 L 1.78125 -5.328125 Z M 1.78125 -11.296875 "/></g></g></g><g fill="#000000" fill-opacity="1"><g transform="translate(206.592162, 242.321843)"><g><path d="M 1.78125 -11.296875 L 1.46875 -14.265625 L 4.15625 -14.265625 L 4.484375 -11.296875 L 4.484375 0 L 1.78125 0 Z M 1.78125 -11.296875 "/></g></g></g><g fill="#000000" fill-opacity="1"><g transform="translate(212.682005, 242.321843)"><g><path d="M 8.8125 -6.109375 L 12.359375 0 L 0.890625 0 L 0.890625 -2.078125 L 8.375 -2.078125 L 1.296875 -14.265625 L 4.0625 -14.265625 L 7.328125 -8.625 L 9.6875 -14.265625 L 12.40625 -14.265625 Z M 8.8125 -6.109375 "/></g></g></g><g fill="#000000" fill-opacity="1"><g transform="translate(226.282656, 242.321843)"><g><path d="M 7.859375 -9.640625 C 7.859375 -10.535156 7.664062 -11.179688 7.28125 -11.578125 C 6.894531 -11.984375 6.328125 -12.1875 5.578125 -12.1875 L 0.890625 -12.1875 L 0.890625 -14.265625 L 6.265625 -14.265625 C 7.617188 -14.265625 8.675781 -13.882812 9.4375 -13.125 C 10.195312 -12.363281 10.578125 -11.160156 10.578125 -9.515625 L 10.578125 0 L 7.859375 0 Z M 7.859375 -9.640625 "/></g></g></g><g fill="#000000" fill-opacity="1"><g transform="translate(51.7576, 270.786036)"><g><path d="M 1.78125 -11.296875 L 1.46875 -14.265625 L 4.15625 -14.265625 L 4.484375 -11.296875 L 4.484375 -7.4375 L 4.46875 -5.84375 L 1.78125 -5.328125 Z M 1.78125 -11.296875 "/></g></g></g><g fill="#000000" fill-opacity="1"><g transform="translate(57.847443, 270.786036)"><g><path d="M 7.28125 -9.21875 C 7.28125 -10.53125 7.519531 -11.519531 8 -12.1875 L 1.140625 -12.1875 L 1.140625 -14.265625 L 12.453125 -14.265625 L 12.453125 -12.1875 L 10.5625 -12.1875 C 10.1875 -11.46875 10 -10.476562 10 -9.21875 L 10 0 L 7.28125 0 Z M 7.28125 -9.21875 "/></g></g></g><g fill="#000000" fill-opacity="1"><g transform="translate(71.524204, 270.786036)"><g><path d="M 0.96875 -2.078125 L 4.625 -2.078125 C 5.820312 -2.078125 6.71875 -2.441406 7.3125 -3.171875 C 7.90625 -3.898438 8.203125 -4.929688 8.203125 -6.265625 L 8.203125 -8 C 8.203125 -9.332031 7.90625 -10.363281 7.3125 -11.09375 C 6.71875 -11.820312 5.820312 -12.1875 4.625 -12.1875 L 0.96875 -12.1875 L 0.96875 -14.265625 L 5.28125 -14.265625 C 7.09375 -14.265625 8.484375 -13.703125 9.453125 -12.578125 C 10.421875 -11.460938 10.90625 -9.890625 10.90625 -7.859375 L 10.90625 -6.390625 C 10.90625 -4.359375 10.421875 -2.785156 9.453125 -1.671875 C 8.484375 -0.554688 7.09375 0 5.28125 0 L 0.96875 0 Z M 0.96875 -2.078125 "/></g></g></g><g fill="#000000" fill-opacity="1"><g transform="translate(83.65313, 270.786036)"><g/></g></g><g fill="#000000" fill-opacity="1"><g transform="translate(88.727992, 270.786036)"><g><path d="M 0.5 -1.5 C 1.488281 -1.601562 2.148438 -1.863281 2.484375 -2.28125 C 2.828125 -2.707031 3 -3.394531 3 -4.34375 L 3 -14.265625 L 9.84375 -14.265625 C 11.195312 -14.265625 12.253906 -13.882812 13.015625 -13.125 C 13.773438 -12.363281 14.15625 -11.160156 14.15625 -9.515625 L 14.15625 0 L 11.4375 0 L 11.4375 -9.640625 C 11.4375 -10.535156 11.242188 -11.179688 10.859375 -11.578125 C 10.472656 -11.984375 9.90625 -12.1875 9.15625 -12.1875 L 5.703125 -12.1875 L 5.703125 -4.640625 C 5.703125 -2.960938 5.3125 -1.742188 4.53125 -0.984375 C 3.757812 -0.222656 2.503906 0.238281 0.765625 0.40625 Z M 0.5 -1.5 "/></g></g></g><g fill="#000000" fill-opacity="1"><g transform="translate(104.409319, 270.786036)"><g><path d="M 1.78125 -11.296875 L 1.46875 -14.265625 L 4.15625 -14.265625 L 4.484375 -11.296875 L 4.484375 0 L 1.78125 0 Z M 1.78125 -11.296875 "/></g></g></g><g fill="#000000" fill-opacity="1"><g transform="translate(110.499162, 270.786036)"><g><path d="M 12.65625 -2.078125 L 12.65625 0 L 1.140625 0 L 1.140625 -2.078125 L 8.203125 -2.078125 L 8.203125 -9.640625 C 8.203125 -10.535156 8.003906 -11.179688 7.609375 -11.578125 C 7.222656 -11.984375 6.65625 -12.1875 5.90625 -12.1875 L 1.140625 -12.1875 L 1.140625 -14.265625 L 6.59375 -14.265625 C 7.945312 -14.265625 9.003906 -13.882812 9.765625 -13.125 C 10.523438 -12.363281 10.90625 -11.160156 10.90625 -9.515625 L 10.90625 -2.078125 Z M 12.65625 -2.078125 "/></g></g></g><g fill="#000000" fill-opacity="1"><g transform="translate(124.049054, 270.786036)"><g><path d="M 12.765625 -14.265625 C 12.765625 -10.847656 12.632812 -8.28125 12.375 -6.5625 C 12.113281 -4.84375 11.476562 -3.445312 10.46875 -2.375 C 9.457031 -1.300781 7.835938 -0.539062 5.609375 -0.09375 L 0.84375 0.84375 L 0.453125 -1.296875 L 4.75 -2.125 L 1.625 -14.265625 L 4.34375 -14.265625 L 7.1875 -2.765625 C 8.09375 -3.171875 8.75 -3.78125 9.15625 -4.59375 C 9.5625 -5.40625 9.816406 -6.429688 9.921875 -7.671875 C 10.023438 -8.921875 10.078125 -10.785156 10.078125 -13.265625 L 10.078125 -14.265625 Z M 12.765625 -14.265625 "/></g></g></g><g fill="#000000" fill-opacity="1"><g transform="translate(138.030302, 270.786036)"><g/></g></g><g fill="#000000" fill-opacity="1"><g transform="translate(143.105164, 270.786036)"><g><path d="M 9.015625 -14.265625 C 10.359375 -14.265625 11.410156 -13.882812 12.171875 -13.125 C 12.941406 -12.363281 13.328125 -11.160156 13.328125 -9.515625 L 13.328125 0 L 1.65625 0 L 1.65625 -14.265625 Z M 10.609375 -2.078125 L 10.609375 -9.640625 C 10.609375 -10.535156 10.410156 -11.179688 10.015625 -11.578125 C 9.628906 -11.984375 9.066406 -12.1875 8.328125 -12.1875 L 4.359375 -12.1875 L 4.359375 -2.078125 Z M 10.609375 -2.078125 "/></g></g></g><g fill="#000000" fill-opacity="1"><g transform="translate(157.949139, 270.786036)"><g><path d="M 1.78125 -11.296875 L 1.46875 -14.265625 L 4.15625 -14.265625 L 4.484375 -11.296875 L 4.484375 -7.4375 L 4.46875 -5.84375 L 1.78125 -5.328125 Z M 1.78125 -11.296875 "/></g></g></g><g fill="#000000" fill-opacity="1"><g transform="translate(164.038982, 270.786036)"><g><path d="M 1.78125 -11.296875 L 1.46875 -14.265625 L 4.15625 -14.265625 L 4.484375 -11.296875 L 4.484375 -7.4375 L 4.46875 -5.84375 L 1.78125 -5.328125 Z M 1.78125 -11.296875 "/></g></g></g><g fill="#000000" fill-opacity="1"><g transform="translate(170.128825, 270.786036)"><g><path d="M 12.65625 -2.078125 L 12.65625 0 L 1.140625 0 L 1.140625 -2.078125 L 8.203125 -2.078125 L 8.203125 -9.640625 C 8.203125 -10.535156 8.003906 -11.179688 7.609375 -11.578125 C 7.222656 -11.984375 6.65625 -12.1875 5.90625 -12.1875 L 1.140625 -12.1875 L 1.140625 -14.265625 L 6.59375 -14.265625 C 7.945312 -14.265625 9.003906 -13.882812 9.765625 -13.125 C 10.523438 -12.363281 10.90625 -11.160156 10.90625 -9.515625 L 10.90625 -2.078125 Z M 12.65625 -2.078125 "/></g></g></g><g fill="#000000" fill-opacity="1"><g transform="translate(182.917371, 270.786036)"><g><path d="M 7.859375 -9.640625 C 7.859375 -10.535156 7.664062 -11.179688 7.28125 -11.578125 C 6.894531 -11.984375 6.328125 -12.1875 5.578125 -12.1875 L 0.890625 -12.1875 L 0.890625 -14.265625 L 6.265625 -14.265625 C 7.617188 -14.265625 8.675781 -13.882812 9.4375 -13.125 C 10.195312 -12.363281 10.578125 -11.160156 10.578125 -9.515625 L 10.578125 0 L 7.859375 0 Z M 7.859375 -9.640625 "/></g></g></g><g fill="#000000" fill-opacity="1"><g transform="translate(195.097046, 270.786036)"><g><path d="M 6.34375 0 L 5.78125 -3.125 C 5.3125 -2.28125 4.726562 -1.5625 4.03125 -0.96875 C 3.34375 -0.382812 2.515625 0.0703125 1.546875 0.40625 L 0.5625 -1.75 C 1.726562 -2.15625 2.703125 -2.664062 3.484375 -3.28125 C 4.273438 -3.90625 4.898438 -4.679688 5.359375 -5.609375 L 5.359375 -10.046875 C 5.359375 -10.796875 5.257812 -11.332031 5.0625 -11.65625 C 4.863281 -11.988281 4.492188 -12.195312 3.953125 -12.28125 L 2.359375 -12.515625 L 2.71875 -14.5625 L 5.234375 -14.203125 C 6.222656 -14.054688 6.941406 -13.671875 7.390625 -13.046875 C 7.835938 -12.421875 8.0625 -11.515625 8.0625 -10.328125 L 8.0625 -5.453125 L 8.9375 0 Z M 6.34375 0 "/></g></g></g><g fill="#000000" fill-opacity="1"><g transform="translate(205.119899, 270.786036)"><g><path d="M 12.65625 -2.078125 L 12.65625 0 L 1.140625 0 L 1.140625 -2.078125 L 8.203125 -2.078125 L 8.203125 -9.640625 C 8.203125 -10.535156 8.003906 -11.179688 7.609375 -11.578125 C 7.222656 -11.984375 6.65625 -12.1875 5.90625 -12.1875 L 1.140625 -12.1875 L 1.140625 -14.265625 L 6.59375 -14.265625 C 7.945312 -14.265625 9.003906 -13.882812 9.765625 -13.125 C 10.523438 -12.363281 10.90625 -11.160156 10.90625 -9.515625 L 10.90625 -2.078125 Z M 12.65625 -2.078125 "/></g></g></g><g fill="#000000" fill-opacity="1"><g transform="translate(22.263452, 299.25023)"><g><path d="M 1.78125 -11.296875 L 1.46875 -14.265625 L 4.15625 -14.265625 L 4.484375 -11.296875 L 4.484375 0 L 1.78125 0 Z M 1.78125 -11.296875 "/></g></g></g><g fill="#000000" fill-opacity="1"><g transform="translate(28.353295, 299.25023)"><g><path d="M 1.78125 -11.296875 L 1.46875 -14.265625 L 4.15625 -14.265625 L 4.484375 -11.296875 L 4.484375 -7.4375 L 4.46875 -5.84375 L 1.78125 -5.328125 Z M 1.78125 -11.296875 "/></g></g></g><g fill="#000000" fill-opacity="1"><g transform="translate(34.443138, 299.25023)"><g><path d="M 11.3125 -14.265625 L 11.3125 -12 L 6.578125 0 L 3.859375 0 L 8.609375 -12.1875 L 0.96875 -12.1875 L 0.96875 -18.1875 L 3.421875 -18.1875 L 3.421875 -14.265625 Z M 11.3125 -14.265625 "/></g></g></g><g fill="#000000" fill-opacity="1"><g transform="translate(46.775056, 299.25023)"><g><path d="M 6.34375 0 L 5.78125 -3.125 C 5.3125 -2.28125 4.726562 -1.5625 4.03125 -0.96875 C 3.34375 -0.382812 2.515625 0.0703125 1.546875 0.40625 L 0.5625 -1.75 C 1.726562 -2.15625 2.703125 -2.664062 3.484375 -3.28125 C 4.273438 -3.90625 4.898438 -4.679688 5.359375 -5.609375 L 5.359375 -10.046875 C 5.359375 -10.796875 5.257812 -11.332031 5.0625 -11.65625 C 4.863281 -11.988281 4.492188 -12.195312 3.953125 -12.28125 L 2.359375 -12.515625 L 2.71875 -14.5625 L 5.234375 -14.203125 C 6.222656 -14.054688 6.941406 -13.671875 7.390625 -13.046875 C 7.835938 -12.421875 8.0625 -11.515625 8.0625 -10.328125 L 8.0625 -5.453125 L 8.9375 0 Z M 6.34375 0 "/></g></g></g><g fill="#000000" fill-opacity="1"><g transform="translate(56.797909, 299.25023)"><g><path d="M 7.859375 -9.640625 C 7.859375 -10.535156 7.664062 -11.179688 7.28125 -11.578125 C 6.894531 -11.984375 6.328125 -12.1875 5.578125 -12.1875 L 0.890625 -12.1875 L 0.890625 -14.265625 L 6.265625 -14.265625 C 7.617188 -14.265625 8.675781 -13.882812 9.4375 -13.125 C 10.195312 -12.363281 10.578125 -11.160156 10.578125 -9.515625 L 10.578125 0 L 7.859375 0 Z M 7.859375 -9.640625 "/></g></g></g><g fill="#000000" fill-opacity="1"><g transform="translate(68.977584, 299.25023)"><g/></g></g><g fill="#000000" fill-opacity="1"><g transform="translate(74.052445, 299.25023)"><g><path d="M 0.5 -1.5 C 1.488281 -1.601562 2.148438 -1.863281 2.484375 -2.28125 C 2.828125 -2.707031 3 -3.394531 3 -4.34375 L 3 -14.265625 L 9.84375 -14.265625 C 11.195312 -14.265625 12.253906 -13.882812 13.015625 -13.125 C 13.773438 -12.363281 14.15625 -11.160156 14.15625 -9.515625 L 14.15625 0 L 11.4375 0 L 11.4375 -9.640625 C 11.4375 -10.535156 11.242188 -11.179688 10.859375 -11.578125 C 10.472656 -11.984375 9.90625 -12.1875 9.15625 -12.1875 L 5.703125 -12.1875 L 5.703125 -4.640625 C 5.703125 -2.960938 5.3125 -1.742188 4.53125 -0.984375 C 3.757812 -0.222656 2.503906 0.238281 0.765625 0.40625 Z M 0.5 -1.5 "/></g></g></g><g fill="#000000" fill-opacity="1"><g transform="translate(89.733772, 299.25023)"><g><path d="M 1.78125 -11.296875 L 1.46875 -14.265625 L 4.15625 -14.265625 L 4.484375 -11.296875 L 4.484375 0 L 1.78125 0 Z M 1.78125 -11.296875 "/></g></g></g><g fill="#000000" fill-opacity="1"><g transform="translate(95.823615, 299.25023)"><g><path d="M 1.671875 -2.078125 L 6.265625 -2.078125 C 7.429688 -2.078125 8.351562 -2.421875 9.03125 -3.109375 C 9.707031 -3.804688 10.046875 -4.867188 10.046875 -6.296875 L 10.046875 -8 C 10.046875 -9.332031 9.773438 -10.363281 9.234375 -11.09375 C 8.691406 -11.820312 7.878906 -12.1875 6.796875 -12.1875 L 4.515625 -12.1875 L 3.953125 -9.671875 C 3.867188 -9.273438 3.828125 -8.941406 3.828125 -8.671875 C 3.828125 -8.171875 3.96875 -7.78125 4.25 -7.5 C 4.539062 -7.21875 5.019531 -7.007812 5.6875 -6.875 L 5.203125 -5.125 C 3.878906 -5.207031 2.914062 -5.539062 2.3125 -6.125 C 1.71875 -6.707031 1.421875 -7.515625 1.421875 -8.546875 C 1.421875 -9.035156 1.460938 -9.484375 1.546875 -9.890625 L 2.53125 -14.265625 L 7.390625 -14.265625 C 9.078125 -14.265625 10.394531 -13.703125 11.34375 -12.578125 C 12.289062 -11.460938 12.765625 -9.898438 12.765625 -7.890625 L 12.765625 -6.421875 C 12.765625 -4.304688 12.222656 -2.707031 11.140625 -1.625 C 10.054688 -0.539062 8.617188 0 6.828125 0 L 1.671875 0 Z M 1.671875 -2.078125 "/></g></g></g><g fill="#000000" fill-opacity="1"><g transform="translate(109.728743, 299.25023)"><g><path d="M 0.96875 -2.078125 L 4.625 -2.078125 C 5.820312 -2.078125 6.71875 -2.441406 7.3125 -3.171875 C 7.90625 -3.898438 8.203125 -4.929688 8.203125 -6.265625 L 8.203125 -8 C 8.203125 -9.332031 7.90625 -10.363281 7.3125 -11.09375 C 6.71875 -11.820312 5.820312 -12.1875 4.625 -12.1875 L 0.96875 -12.1875 L 0.96875 -14.265625 L 5.28125 -14.265625 C 7.09375 -14.265625 8.484375 -13.703125 9.453125 -12.578125 C 10.421875 -11.460938 10.90625 -9.890625 10.90625 -7.859375 L 10.90625 -6.390625 C 10.90625 -4.359375 10.421875 -2.785156 9.453125 -1.671875 C 8.484375 -0.554688 7.09375 0 5.28125 0 L 0.96875 0 Z M 0.96875 -2.078125 "/></g></g></g><g fill="#000000" fill-opacity="1"><g transform="translate(121.857669, 299.25023)"><g/></g></g><g fill="#000000" fill-opacity="1"><g transform="translate(126.932531, 299.25023)"><g><path d="M 11.3125 -14.265625 L 11.3125 -12 L 6.578125 0 L 3.859375 0 L 8.609375 -12.1875 L 0.96875 -12.1875 L 0.96875 -18.1875 L 3.421875 -18.1875 L 3.421875 -14.265625 Z M 11.3125 -14.265625 "/></g></g></g><g fill="#000000" fill-opacity="1"><g transform="translate(139.264449, 299.25023)"><g><path d="M 12.765625 -14.265625 C 12.765625 -10.847656 12.632812 -8.28125 12.375 -6.5625 C 12.113281 -4.84375 11.476562 -3.445312 10.46875 -2.375 C 9.457031 -1.300781 7.835938 -0.539062 5.609375 -0.09375 L 0.84375 0.84375 L 0.453125 -1.296875 L 4.75 -2.125 L 1.625 -14.265625 L 4.34375 -14.265625 L 7.1875 -2.765625 C 8.09375 -3.171875 8.75 -3.78125 9.15625 -4.59375 C 9.5625 -5.40625 9.816406 -6.429688 9.921875 -7.671875 C 10.023438 -8.921875 10.078125 -10.785156 10.078125 -13.265625 L 10.078125 -14.265625 Z M 12.765625 -14.265625 "/></g></g></g><g fill="#000000" fill-opacity="1"><g transform="translate(153.245698, 299.25023)"><g/></g></g><g fill="#000000" fill-opacity="1"><g transform="translate(158.320559, 299.25023)"><g><path d="M 9.015625 -14.265625 C 10.359375 -14.265625 11.410156 -13.882812 12.171875 -13.125 C 12.941406 -12.363281 13.328125 -11.160156 13.328125 -9.515625 L 13.328125 0 L 1.65625 0 L 1.65625 -14.265625 Z M 10.609375 -2.078125 L 10.609375 -9.640625 C 10.609375 -10.535156 10.410156 -11.179688 10.015625 -11.578125 C 9.628906 -11.984375 9.066406 -12.1875 8.328125 -12.1875 L 4.359375 -12.1875 L 4.359375 -2.078125 Z M 10.609375 -2.078125 "/></g></g></g><g fill="#000000" fill-opacity="1"><g transform="translate(173.164534, 299.25023)"><g><path d="M 15.328125 -10.359375 C 15.359375 -6.785156 14.359375 -4.113281 12.328125 -2.34375 C 10.296875 -0.582031 7.1875 0.28125 3 0.25 L 1.140625 -14.265625 L 3.734375 -14.265625 L 4.546875 -7.515625 C 5.472656 -7.972656 6.101562 -8.570312 6.4375 -9.3125 C 6.78125 -10.050781 6.96875 -11.164062 7 -12.65625 L 7 -14.234375 L 9.59375 -14.234375 L 9.5625 -12.71875 C 9.53125 -10.851562 9.160156 -9.359375 8.453125 -8.234375 C 7.742188 -7.109375 6.523438 -6.195312 4.796875 -5.5 L 5.203125 -2.0625 C 7.753906 -2.226562 9.632812 -2.988281 10.84375 -4.34375 C 12.050781 -5.695312 12.648438 -7.65625 12.640625 -10.21875 L 12.59375 -14.265625 L 15.296875 -14.265625 Z M 15.328125 -10.359375 "/></g></g></g><g fill="#000000" fill-opacity="1"><g transform="translate(189.708588, 299.25023)"><g><path d="M 1.78125 -11.296875 L 1.46875 -14.265625 L 4.15625 -14.265625 L 4.484375 -11.296875 L 4.484375 -7.4375 L 4.46875 -5.84375 L 1.78125 -5.328125 Z M 1.78125 -11.296875 "/></g></g></g><g fill="#000000" fill-opacity="1"><g transform="translate(195.798431, 299.25023)"><g><path d="M 12.65625 -2.078125 L 12.65625 0 L 1.140625 0 L 1.140625 -2.078125 L 8.203125 -2.078125 L 8.203125 -9.640625 C 8.203125 -10.535156 8.003906 -11.179688 7.609375 -11.578125 C 7.222656 -11.984375 6.65625 -12.1875 5.90625 -12.1875 L 1.140625 -12.1875 L 1.140625 -14.265625 L 6.59375 -14.265625 C 7.945312 -14.265625 9.003906 -13.882812 9.765625 -13.125 C 10.523438 -12.363281 10.90625 -11.160156 10.90625 -9.515625 L 10.90625 -2.078125 Z M 12.65625 -2.078125 "/></g></g></g><g fill="#000000" fill-opacity="1"><g transform="translate(209.348323, 299.25023)"><g><path d="M 11.3125 -14.265625 L 11.3125 -12 L 6.578125 0 L 3.859375 0 L 8.609375 -12.1875 L 0.96875 -12.1875 L 0.96875 -18.1875 L 3.421875 -18.1875 L 3.421875 -14.265625 Z M 11.3125 -14.265625 "/></g></g></g><g fill="#000000" fill-opacity="1"><g transform="translate(221.680229, 299.25023)"><g><path d="M 10 -9.640625 C 10 -10.535156 9.800781 -11.179688 9.40625 -11.578125 C 9.019531 -11.984375 8.457031 -12.1875 7.71875 -12.1875 L 1.46875 -12.1875 L 1.46875 -14.265625 L 8.40625 -14.265625 C 9.75 -14.265625 10.800781 -13.882812 11.5625 -13.125 C 12.332031 -12.363281 12.71875 -11.160156 12.71875 -9.515625 L 12.71875 0 L 10 0 Z M 1.390625 -6.90625 L 1.78125 -8.609375 L 4.109375 -8.609375 L 4.109375 0 L 1.390625 0 Z M 1.390625 -6.90625 "/></g></g></g><g fill="#000000" fill-opacity="1"><g transform="translate(235.839107, 299.25023)"><g><path d="M 11.3125 -14.265625 L 11.3125 -12 L 6.578125 0 L 3.859375 0 L 8.609375 -12.1875 L 0.96875 -12.1875 L 0.96875 -18.1875 L 3.421875 -18.1875 L 3.421875 -14.265625 Z M 11.3125 -14.265625 "/></g></g></g><g fill="#000000" fill-opacity="1"><g transform="translate(18.752244, 327.714423)"><g><path d="M 12.765625 -14.265625 C 12.765625 -10.847656 12.632812 -8.28125 12.375 -6.5625 C 12.113281 -4.84375 11.476562 -3.445312 10.46875 -2.375 C 9.457031 -1.300781 7.835938 -0.539062 5.609375 -0.09375 L 0.84375 0.84375 L 0.453125 -1.296875 L 4.75 -2.125 L 1.625 -14.265625 L 4.34375 -14.265625 L 7.1875 -2.765625 C 8.09375 -3.171875 8.75 -3.78125 9.15625 -4.59375 C 9.5625 -5.40625 9.816406 -6.429688 9.921875 -7.671875 C 10.023438 -8.921875 10.078125 -10.785156 10.078125 -13.265625 L 10.078125 -14.265625 Z M 12.765625 -14.265625 "/></g></g></g><g fill="#000000" fill-opacity="1"><g transform="translate(32.733492, 327.714423)"><g><path d="M 1.78125 -11.296875 L 1.46875 -14.265625 L 4.15625 -14.265625 L 4.484375 -11.296875 L 4.484375 0 L 1.78125 0 Z M 1.78125 -11.296875 "/></g></g></g><g fill="#000000" fill-opacity="1"><g transform="translate(38.823335, 327.714423)"><g><path d="M 1.109375 -2.078125 L 5.234375 -2.078125 L 5.234375 -10.046875 C 5.234375 -10.773438 5.085938 -11.300781 4.796875 -11.625 C 4.503906 -11.957031 4.070312 -12.164062 3.5 -12.25 L 1.78125 -12.515625 L 2.125 -14.5625 L 4.765625 -14.1875 C 5.785156 -14.03125 6.566406 -13.597656 7.109375 -12.890625 C 7.660156 -12.191406 7.9375 -11.257812 7.9375 -10.09375 L 7.9375 0 L 1.109375 0 Z M 1.109375 -2.078125 "/></g></g></g><g fill="#000000" fill-opacity="1"><g transform="translate(48.313335, 327.714423)"><g><path d="M 14.609375 -7.1875 C 14.609375 -4.8125 14.082031 -2.96875 13.03125 -1.65625 C 11.988281 -0.351562 10.503906 0.296875 8.578125 0.296875 C 7.867188 0.296875 7.140625 0.210938 6.390625 0.046875 L 6.671875 -2.03125 C 7.316406 -1.894531 7.867188 -1.828125 8.328125 -1.828125 C 9.609375 -1.828125 10.546875 -2.273438 11.140625 -3.171875 C 11.734375 -4.066406 12.03125 -5.378906 12.03125 -7.109375 C 12.03125 -8.953125 11.742188 -10.273438 11.171875 -11.078125 C 10.609375 -11.878906 9.800781 -12.28125 8.75 -12.28125 C 7.9375 -12.28125 7.269531 -12.046875 6.75 -11.578125 C 6.238281 -11.117188 5.898438 -10.5 5.734375 -9.71875 L 4.03125 0 L 1.3125 0 L 3.140625 -9.8125 L 1.171875 -14.265625 L 3.984375 -14.265625 L 5.125 -11.265625 C 5.476562 -12.328125 6.019531 -13.125 6.75 -13.65625 C 7.476562 -14.195312 8.304688 -14.46875 9.234375 -14.46875 C 10.929688 -14.46875 12.25 -13.878906 13.1875 -12.703125 C 14.132812 -11.523438 14.609375 -9.6875 14.609375 -7.1875 Z M 14.609375 -7.1875 "/></g></g></g><g fill="#000000" fill-opacity="1"><g transform="translate(64.070785, 327.714423)"><g><path d="M 11.3125 -14.265625 L 11.3125 -12 L 6.578125 0 L 3.859375 0 L 8.609375 -12.1875 L 0.96875 -12.1875 L 0.96875 -18.1875 L 3.421875 -18.1875 L 3.421875 -14.265625 Z M 11.3125 -14.265625 "/></g></g></g><g fill="#000000" fill-opacity="1"><g transform="translate(76.402703, 327.714423)"><g/></g></g><g fill="#000000" fill-opacity="1"><g transform="translate(81.477565, 327.714423)"><g><path d="M 0.5 -1.5 C 1.488281 -1.601562 2.148438 -1.863281 2.484375 -2.28125 C 2.828125 -2.707031 3 -3.394531 3 -4.34375 L 3 -14.265625 L 9.84375 -14.265625 C 11.195312 -14.265625 12.253906 -13.882812 13.015625 -13.125 C 13.773438 -12.363281 14.15625 -11.160156 14.15625 -9.515625 L 14.15625 0 L 11.4375 0 L 11.4375 -9.640625 C 11.4375 -10.535156 11.242188 -11.179688 10.859375 -11.578125 C 10.472656 -11.984375 9.90625 -12.1875 9.15625 -12.1875 L 5.703125 -12.1875 L 5.703125 -4.640625 C 5.703125 -2.960938 5.3125 -1.742188 4.53125 -0.984375 C 3.757812 -0.222656 2.503906 0.238281 0.765625 0.40625 Z M 0.5 -1.5 "/></g></g></g><g fill="#000000" fill-opacity="1"><g transform="translate(97.158892, 327.714423)"><g><path d="M 1.109375 -2.078125 L 5.234375 -2.078125 L 5.234375 -10.046875 C 5.234375 -10.773438 5.085938 -11.300781 4.796875 -11.625 C 4.503906 -11.957031 4.070312 -12.164062 3.5 -12.25 L 1.78125 -12.515625 L 2.125 -14.5625 L 4.765625 -14.1875 C 5.785156 -14.03125 6.566406 -13.597656 7.109375 -12.890625 C 7.660156 -12.191406 7.9375 -11.257812 7.9375 -10.09375 L 7.9375 0 L 1.109375 0 Z M 1.109375 -2.078125 "/></g></g></g><g fill="#000000" fill-opacity="1"><g transform="translate(106.648892, 327.714423)"><g><path d="M 14.609375 -7.1875 C 14.609375 -4.8125 14.082031 -2.96875 13.03125 -1.65625 C 11.988281 -0.351562 10.503906 0.296875 8.578125 0.296875 C 7.867188 0.296875 7.140625 0.210938 6.390625 0.046875 L 6.671875 -2.03125 C 7.316406 -1.894531 7.867188 -1.828125 8.328125 -1.828125 C 9.609375 -1.828125 10.546875 -2.273438 11.140625 -3.171875 C 11.734375 -4.066406 12.03125 -5.378906 12.03125 -7.109375 C 12.03125 -8.953125 11.742188 -10.273438 11.171875 -11.078125 C 10.609375 -11.878906 9.800781 -12.28125 8.75 -12.28125 C 7.9375 -12.28125 7.269531 -12.046875 6.75 -11.578125 C 6.238281 -11.117188 5.898438 -10.5 5.734375 -9.71875 L 4.03125 0 L 1.3125 0 L 3.140625 -9.8125 L 1.171875 -14.265625 L 3.984375 -14.265625 L 5.125 -11.265625 C 5.476562 -12.328125 6.019531 -13.125 6.75 -13.65625 C 7.476562 -14.195312 8.304688 -14.46875 9.234375 -14.46875 C 10.929688 -14.46875 12.25 -13.878906 13.1875 -12.703125 C 14.132812 -11.523438 14.609375 -9.6875 14.609375 -7.1875 Z M 14.609375 -7.1875 "/></g></g></g><g fill="#000000" fill-opacity="1"><g transform="translate(122.406341, 327.714423)"><g/></g></g><g fill="#000000" fill-opacity="1"><g transform="translate(127.481203, 327.714423)"><g><path d="M 11.3125 -14.265625 L 11.3125 -12 L 6.578125 0 L 3.859375 0 L 8.609375 -12.1875 L 0.96875 -12.1875 L 0.96875 -18.1875 L 3.421875 -18.1875 L 3.421875 -14.265625 Z M 11.3125 -14.265625 "/></g></g></g><g fill="#000000" fill-opacity="1"><g transform="translate(139.813121, 327.714423)"><g><path d="M 12.765625 -14.265625 C 12.765625 -10.847656 12.632812 -8.28125 12.375 -6.5625 C 12.113281 -4.84375 11.476562 -3.445312 10.46875 -2.375 C 9.457031 -1.300781 7.835938 -0.539062 5.609375 -0.09375 L 0.84375 0.84375 L 0.453125 -1.296875 L 4.75 -2.125 L 1.625 -14.265625 L 4.34375 -14.265625 L 7.1875 -2.765625 C 8.09375 -3.171875 8.75 -3.78125 9.15625 -4.59375 C 9.5625 -5.40625 9.816406 -6.429688 9.921875 -7.671875 C 10.023438 -8.921875 10.078125 -10.785156 10.078125 -13.265625 L 10.078125 -14.265625 Z M 12.765625 -14.265625 "/></g></g></g><g fill="#000000" fill-opacity="1"><g transform="translate(153.79437, 327.714423)"><g/></g></g><g fill="#000000" fill-opacity="1"><g transform="translate(158.869231, 327.714423)"><g><path d="M 3.453125 -3.328125 C 4.078125 -3.328125 4.566406 -3.082031 4.921875 -2.59375 C 5.273438 -2.101562 5.453125 -1.425781 5.453125 -0.5625 C 5.453125 0.601562 5.128906 1.625 4.484375 2.5 C 3.847656 3.382812 2.945312 4.046875 1.78125 4.484375 L 1.1875 3.046875 C 1.96875 2.722656 2.566406 2.296875 2.984375 1.765625 C 3.410156 1.234375 3.632812 0.628906 3.65625 -0.046875 C 3.601562 -0.0351562 3.519531 -0.03125 3.40625 -0.03125 C 2.925781 -0.03125 2.515625 -0.175781 2.171875 -0.46875 C 1.835938 -0.757812 1.671875 -1.160156 1.671875 -1.671875 C 1.671875 -2.160156 1.84375 -2.554688 2.1875 -2.859375 C 2.539062 -3.171875 2.960938 -3.328125 3.453125 -3.328125 Z M 3.453125 -3.328125 "/></g></g></g><g fill="#000000" fill-opacity="1"><g transform="translate(165.568049, 327.714423)"><g><path d="M 12.65625 -2.078125 L 12.65625 0 L 1.140625 0 L 1.140625 -2.078125 L 8.203125 -2.078125 L 8.203125 -9.640625 C 8.203125 -10.535156 8.003906 -11.179688 7.609375 -11.578125 C 7.222656 -11.984375 6.65625 -12.1875 5.90625 -12.1875 L 1.140625 -12.1875 L 1.140625 -14.265625 L 6.59375 -14.265625 C 7.945312 -14.265625 9.003906 -13.882812 9.765625 -13.125 C 10.523438 -12.363281 10.90625 -11.160156 10.90625 -9.515625 L 10.90625 -2.078125 Z M 12.65625 -2.078125 "/></g></g></g><g fill="#000000" fill-opacity="1"><g transform="translate(179.117941, 327.714423)"><g><path d="M 11.3125 -14.265625 L 11.3125 -12 L 6.578125 0 L 3.859375 0 L 8.609375 -12.1875 L 0.96875 -12.1875 L 0.96875 -18.1875 L 3.421875 -18.1875 L 3.421875 -14.265625 Z M 11.3125 -14.265625 "/></g></g></g><g fill="#000000" fill-opacity="1"><g transform="translate(191.449859, 327.714423)"><g><path d="M 0.96875 -2.078125 L 4.625 -2.078125 C 5.820312 -2.078125 6.71875 -2.441406 7.3125 -3.171875 C 7.90625 -3.898438 8.203125 -4.929688 8.203125 -6.265625 L 8.203125 -8 C 8.203125 -9.332031 7.90625 -10.363281 7.3125 -11.09375 C 6.71875 -11.820312 5.820312 -12.1875 4.625 -12.1875 L 0.96875 -12.1875 L 0.96875 -14.265625 L 5.28125 -14.265625 C 7.09375 -14.265625 8.484375 -13.703125 9.453125 -12.578125 C 10.421875 -11.460938 10.90625 -9.890625 10.90625 -7.859375 L 10.90625 -6.390625 C 10.90625 -4.359375 10.421875 -2.785156 9.453125 -1.671875 C 8.484375 -0.554688 7.09375 0 5.28125 0 L 0.96875 0 Z M 0.96875 -2.078125 "/></g></g></g><g fill="#000000" fill-opacity="1"><g transform="translate(203.578786, 327.714423)"><g><path d="M 10 -9.640625 C 10 -10.535156 9.800781 -11.179688 9.40625 -11.578125 C 9.019531 -11.984375 8.457031 -12.1875 7.71875 -12.1875 L 1.46875 -12.1875 L 1.46875 -14.265625 L 8.40625 -14.265625 C 9.75 -14.265625 10.800781 -13.882812 11.5625 -13.125 C 12.332031 -12.363281 12.71875 -11.160156 12.71875 -9.515625 L 12.71875 0 L 10 0 Z M 1.390625 -6.90625 L 1.78125 -8.609375 L 4.109375 -8.609375 L 4.109375 0 L 1.390625 0 Z M 1.390625 -6.90625 "/></g></g></g><g fill="#000000" fill-opacity="1"><g transform="translate(217.737664, 327.714423)"><g/></g></g><g fill="#000000" fill-opacity="1"><g transform="translate(222.812502, 327.714423)"><g><path d="M 11.3125 -14.265625 L 11.3125 -12 L 6.578125 0 L 3.859375 0 L 8.609375 -12.1875 L 0.96875 -12.1875 L 0.96875 -18.1875 L 3.421875 -18.1875 L 3.421875 -14.265625 Z M 11.3125 -14.265625 "/></g></g></g><g fill="#000000" fill-opacity="1"><g transform="translate(235.144432, 327.714423)"><g><path d="M 15.328125 -10.359375 C 15.359375 -6.785156 14.359375 -4.113281 12.328125 -2.34375 C 10.296875 -0.582031 7.1875 0.28125 3 0.25 L 1.140625 -14.265625 L 3.734375 -14.265625 L 4.546875 -7.515625 C 5.472656 -7.972656 6.101562 -8.570312 6.4375 -9.3125 C 6.78125 -10.050781 6.96875 -11.164062 7 -12.65625 L 7 -14.234375 L 9.59375 -14.234375 L 9.5625 -12.71875 C 9.53125 -10.851562 9.160156 -9.359375 8.453125 -8.234375 C 7.742188 -7.109375 6.523438 -6.195312 4.796875 -5.5 L 5.203125 -2.0625 C 7.753906 -2.226562 9.632812 -2.988281 10.84375 -4.34375 C 12.050781 -5.695312 12.648438 -7.65625 12.640625 -10.21875 L 12.59375 -14.265625 L 15.296875 -14.265625 Z M 15.328125 -10.359375 "/></g></g></g><g fill="#000000" fill-opacity="1"><g transform="translate(36.495549, 356.178617)"><g><path d="M 0.5 -1.5 C 1.488281 -1.601562 2.148438 -1.863281 2.484375 -2.28125 C 2.828125 -2.707031 3 -3.394531 3 -4.34375 L 3 -14.265625 L 9.84375 -14.265625 C 11.195312 -14.265625 12.253906 -13.882812 13.015625 -13.125 C 13.773438 -12.363281 14.15625 -11.160156 14.15625 -9.515625 L 14.15625 0 L 11.4375 0 L 11.4375 -9.640625 C 11.4375 -10.535156 11.242188 -11.179688 10.859375 -11.578125 C 10.472656 -11.984375 9.90625 -12.1875 9.15625 -12.1875 L 5.703125 -12.1875 L 5.703125 -4.640625 C 5.703125 -2.960938 5.3125 -1.742188 4.53125 -0.984375 C 3.757812 -0.222656 2.503906 0.238281 0.765625 0.40625 Z M 0.5 -1.5 "/></g></g></g><g fill="#000000" fill-opacity="1"><g transform="translate(52.176876, 356.178617)"><g><path d="M 1.78125 -11.296875 L 1.46875 -14.265625 L 4.15625 -14.265625 L 4.484375 -11.296875 L 4.484375 -7.4375 L 4.46875 -5.84375 L 1.78125 -5.328125 Z M 1.78125 -11.296875 "/></g></g></g><g fill="#000000" fill-opacity="1"><g transform="translate(58.266719, 356.178617)"><g><path d="M 0.96875 -2.078125 L 4.625 -2.078125 C 5.820312 -2.078125 6.71875 -2.441406 7.3125 -3.171875 C 7.90625 -3.898438 8.203125 -4.929688 8.203125 -6.265625 L 8.203125 -8 C 8.203125 -9.332031 7.90625 -10.363281 7.3125 -11.09375 C 6.71875 -11.820312 5.820312 -12.1875 4.625 -12.1875 L 0.96875 -12.1875 L 0.96875 -14.265625 L 5.28125 -14.265625 C 7.09375 -14.265625 8.484375 -13.703125 9.453125 -12.578125 C 10.421875 -11.460938 10.90625 -9.890625 10.90625 -7.859375 L 10.90625 -6.390625 C 10.90625 -4.359375 10.421875 -2.785156 9.453125 -1.671875 C 8.484375 -0.554688 7.09375 0 5.28125 0 L 0.96875 0 Z M 0.96875 -2.078125 "/></g></g></g><g fill="#000000" fill-opacity="1"><g transform="translate(70.395645, 356.178617)"><g><path d="M 1.78125 -11.296875 L 1.46875 -14.265625 L 4.15625 -14.265625 L 4.484375 -11.296875 L 4.484375 0 L 1.78125 0 Z M 1.78125 -11.296875 "/></g></g></g><g fill="#000000" fill-opacity="1"><g transform="translate(76.485488, 356.178617)"><g><path d="M 0.96875 -2.078125 L 4.625 -2.078125 C 5.820312 -2.078125 6.71875 -2.441406 7.3125 -3.171875 C 7.90625 -3.898438 8.203125 -4.929688 8.203125 -6.265625 L 8.203125 -8 C 8.203125 -9.332031 7.90625 -10.363281 7.3125 -11.09375 C 6.71875 -11.820312 5.820312 -12.1875 4.625 -12.1875 L 0.96875 -12.1875 L 0.96875 -14.265625 L 5.28125 -14.265625 C 7.09375 -14.265625 8.484375 -13.703125 9.453125 -12.578125 C 10.421875 -11.460938 10.90625 -9.890625 10.90625 -7.859375 L 10.90625 -6.390625 C 10.90625 -4.359375 10.421875 -2.785156 9.453125 -1.671875 C 8.484375 -0.554688 7.09375 0 5.28125 0 L 0.96875 0 Z M 0.96875 -2.078125 "/></g></g></g><g fill="#000000" fill-opacity="1"><g transform="translate(88.614415, 356.178617)"><g><path d="M 2.9375 -9.21875 C 2.9375 -10.53125 3.175781 -11.519531 3.65625 -12.1875 L 1.21875 -12.1875 L 1.21875 -14.265625 L 8.125 -14.265625 L 8.125 -12.1875 L 6.140625 -12.1875 C 5.941406 -11.789062 5.8125 -11.351562 5.75 -10.875 C 5.6875 -10.394531 5.65625 -9.84375 5.65625 -9.21875 L 5.65625 0 L 2.9375 0 Z M 2.9375 -9.21875 "/></g></g></g><g fill="#000000" fill-opacity="1"><g transform="translate(97.926786, 356.178617)"><g/></g></g><g fill="#000000" fill-opacity="1"><g transform="translate(103.001647, 356.178617)"><g><path d="M 1.78125 -11.296875 L 1.46875 -14.265625 L 4.15625 -14.265625 L 4.484375 -11.296875 L 4.484375 -7.4375 L 4.46875 -5.84375 L 1.78125 -5.328125 Z M 1.78125 -11.296875 "/></g></g></g><g fill="#000000" fill-opacity="1"><g transform="translate(109.09149, 356.178617)"><g><path d="M 7.859375 -9.640625 C 7.859375 -10.535156 7.664062 -11.179688 7.28125 -11.578125 C 6.894531 -11.984375 6.328125 -12.1875 5.578125 -12.1875 L 0.890625 -12.1875 L 0.890625 -14.265625 L 6.265625 -14.265625 C 7.617188 -14.265625 8.675781 -13.882812 9.4375 -13.125 C 10.195312 -12.363281 10.578125 -11.160156 10.578125 -9.515625 L 10.578125 0 L 7.859375 0 Z M 7.859375 -9.640625 "/></g></g></g><g fill="#000000" fill-opacity="1"><g transform="translate(121.271165, 356.178617)"><g><path d="M 12.65625 -2.078125 L 12.65625 0 L 1.140625 0 L 1.140625 -2.078125 L 8.203125 -2.078125 L 8.203125 -9.640625 C 8.203125 -10.535156 8.003906 -11.179688 7.609375 -11.578125 C 7.222656 -11.984375 6.65625 -12.1875 5.90625 -12.1875 L 1.140625 -12.1875 L 1.140625 -14.265625 L 6.59375 -14.265625 C 7.945312 -14.265625 9.003906 -13.882812 9.765625 -13.125 C 10.523438 -12.363281 10.90625 -11.160156 10.90625 -9.515625 L 10.90625 -2.078125 Z M 12.65625 -2.078125 "/></g></g></g><g fill="#000000" fill-opacity="1"><g transform="translate(134.821056, 356.178617)"><g><path d="M 15.328125 -10.359375 C 15.359375 -6.785156 14.359375 -4.113281 12.328125 -2.34375 C 10.296875 -0.582031 7.1875 0.28125 3 0.25 L 1.140625 -14.265625 L 3.734375 -14.265625 L 4.546875 -7.515625 C 5.472656 -7.972656 6.101562 -8.570312 6.4375 -9.3125 C 6.78125 -10.050781 6.96875 -11.164062 7 -12.65625 L 7 -14.234375 L 9.59375 -14.234375 L 9.5625 -12.71875 C 9.53125 -10.851562 9.160156 -9.359375 8.453125 -8.234375 C 7.742188 -7.109375 6.523438 -6.195312 4.796875 -5.5 L 5.203125 -2.0625 C 7.753906 -2.226562 9.632812 -2.988281 10.84375 -4.34375 C 12.050781 -5.695312 12.648438 -7.65625 12.640625 -10.21875 L 12.59375 -14.265625 L 15.296875 -14.265625 Z M 15.328125 -10.359375 "/></g></g></g><g fill="#000000" fill-opacity="1"><g transform="translate(151.36511, 356.178617)"><g><path d="M 14.609375 -7.1875 C 14.609375 -4.8125 14.082031 -2.96875 13.03125 -1.65625 C 11.988281 -0.351562 10.503906 0.296875 8.578125 0.296875 C 7.867188 0.296875 7.140625 0.210938 6.390625 0.046875 L 6.671875 -2.03125 C 7.316406 -1.894531 7.867188 -1.828125 8.328125 -1.828125 C 9.609375 -1.828125 10.546875 -2.273438 11.140625 -3.171875 C 11.734375 -4.066406 12.03125 -5.378906 12.03125 -7.109375 C 12.03125 -8.953125 11.742188 -10.273438 11.171875 -11.078125 C 10.609375 -11.878906 9.800781 -12.28125 8.75 -12.28125 C 7.9375 -12.28125 7.269531 -12.046875 6.75 -11.578125 C 6.238281 -11.117188 5.898438 -10.5 5.734375 -9.71875 L 4.03125 0 L 1.3125 0 L 3.140625 -9.8125 L 1.171875 -14.265625 L 3.984375 -14.265625 L 5.125 -11.265625 C 5.476562 -12.328125 6.019531 -13.125 6.75 -13.65625 C 7.476562 -14.195312 8.304688 -14.46875 9.234375 -14.46875 C 10.929688 -14.46875 12.25 -13.878906 13.1875 -12.703125 C 14.132812 -11.523438 14.609375 -9.6875 14.609375 -7.1875 Z M 14.609375 -7.1875 "/></g></g></g><g fill="#000000" fill-opacity="1"><g transform="translate(167.12256, 356.178617)"><g/></g></g><g fill="#000000" fill-opacity="1"><g transform="translate(172.197421, 356.178617)"><g><path d="M 10 -9.640625 C 10 -10.535156 9.800781 -11.179688 9.40625 -11.578125 C 9.019531 -11.984375 8.457031 -12.1875 7.71875 -12.1875 L 1.46875 -12.1875 L 1.46875 -14.265625 L 8.40625 -14.265625 C 9.75 -14.265625 10.800781 -13.882812 11.5625 -13.125 C 12.332031 -12.363281 12.71875 -11.160156 12.71875 -9.515625 L 12.71875 0 L 10 0 Z M 1.390625 -6.90625 L 1.78125 -8.609375 L 4.109375 -8.609375 L 4.109375 0 L 1.390625 0 Z M 1.390625 -6.90625 "/></g></g></g><g fill="#000000" fill-opacity="1"><g transform="translate(186.356288, 356.178617)"><g><path d="M 12.765625 -14.265625 C 12.765625 -10.847656 12.632812 -8.28125 12.375 -6.5625 C 12.113281 -4.84375 11.476562 -3.445312 10.46875 -2.375 C 9.457031 -1.300781 7.835938 -0.539062 5.609375 -0.09375 L 0.84375 0.84375 L 0.453125 -1.296875 L 4.75 -2.125 L 1.625 -14.265625 L 4.34375 -14.265625 L 7.1875 -2.765625 C 8.09375 -3.171875 8.75 -3.78125 9.15625 -4.59375 C 9.5625 -5.40625 9.816406 -6.429688 9.921875 -7.671875 C 10.023438 -8.921875 10.078125 -10.785156 10.078125 -13.265625 L 10.078125 -14.265625 Z M 12.765625 -14.265625 "/></g></g></g><g fill="#000000" fill-opacity="1"><g transform="translate(200.337536, 356.178617)"><g><path d="M 1.78125 -11.296875 L 1.46875 -14.265625 L 4.15625 -14.265625 L 4.484375 -11.296875 L 4.484375 -7.4375 L 4.46875 -5.84375 L 1.78125 -5.328125 Z M 1.78125 -11.296875 "/></g></g></g><g fill="#000000" fill-opacity="1"><g transform="translate(206.427379, 356.178617)"><g><path d="M 8.8125 -6.109375 L 12.359375 0 L 0.890625 0 L 0.890625 -2.078125 L 8.375 -2.078125 L 1.296875 -14.265625 L 4.0625 -14.265625 L 7.328125 -8.625 L 9.6875 -14.265625 L 12.40625 -14.265625 Z M 8.8125 -6.109375 "/></g></g></g><g fill="#000000" fill-opacity="1"><g transform="translate(220.028019, 356.178617)"><g><path d="M 1.671875 -2.078125 L 6.265625 -2.078125 C 7.429688 -2.078125 8.351562 -2.421875 9.03125 -3.109375 C 9.707031 -3.804688 10.046875 -4.867188 10.046875 -6.296875 L 10.046875 -8 C 10.046875 -9.332031 9.773438 -10.363281 9.234375 -11.09375 C 8.691406 -11.820312 7.878906 -12.1875 6.796875 -12.1875 L 4.515625 -12.1875 L 3.953125 -9.671875 C 3.867188 -9.273438 3.828125 -8.941406 3.828125 -8.671875 C 3.828125 -8.171875 3.96875 -7.78125 4.25 -7.5 C 4.539062 -7.21875 5.019531 -7.007812 5.6875 -6.875 L 5.203125 -5.125 C 3.878906 -5.207031 2.914062 -5.539062 2.3125 -6.125 C 1.71875 -6.707031 1.421875 -7.515625 1.421875 -8.546875 C 1.421875 -9.035156 1.460938 -9.484375 1.546875 -9.890625 L 2.53125 -14.265625 L 7.390625 -14.265625 C 9.078125 -14.265625 10.394531 -13.703125 11.34375 -12.578125 C 12.289062 -11.460938 12.765625 -9.898438 12.765625 -7.890625 L 12.765625 -6.421875 C 12.765625 -4.304688 12.222656 -2.707031 11.140625 -1.625 C 10.054688 -0.539062 8.617188 0 6.828125 0 L 1.671875 0 Z M 1.671875 -2.078125 "/></g></g></g><g fill="#000000" fill-opacity="1"><g transform="translate(37.86492, 384.64281)"><g><path d="M 0.5 -1.5 C 1.488281 -1.601562 2.148438 -1.863281 2.484375 -2.28125 C 2.828125 -2.707031 3 -3.394531 3 -4.34375 L 3 -14.265625 L 9.84375 -14.265625 C 11.195312 -14.265625 12.253906 -13.882812 13.015625 -13.125 C 13.773438 -12.363281 14.15625 -11.160156 14.15625 -9.515625 L 14.15625 0 L 11.4375 0 L 11.4375 -9.640625 C 11.4375 -10.535156 11.242188 -11.179688 10.859375 -11.578125 C 10.472656 -11.984375 9.90625 -12.1875 9.15625 -12.1875 L 5.703125 -12.1875 L 5.703125 -4.640625 C 5.703125 -2.960938 5.3125 -1.742188 4.53125 -0.984375 C 3.757812 -0.222656 2.503906 0.238281 0.765625 0.40625 Z M 0.5 -1.5 "/></g></g></g><g fill="#000000" fill-opacity="1"><g transform="translate(53.546247, 384.64281)"><g><path d="M 7.859375 -9.640625 C 7.859375 -10.535156 7.664062 -11.179688 7.28125 -11.578125 C 6.894531 -11.984375 6.328125 -12.1875 5.578125 -12.1875 L 0.890625 -12.1875 L 0.890625 -14.265625 L 6.265625 -14.265625 C 7.617188 -14.265625 8.675781 -13.882812 9.4375 -13.125 C 10.195312 -12.363281 10.578125 -11.160156 10.578125 -9.515625 L 10.578125 0 L 7.859375 0 Z M 7.859375 -9.640625 "/></g></g></g><g fill="#000000" fill-opacity="1"><g transform="translate(65.725921, 384.64281)"><g><path d="M 8.8125 -14.265625 C 10.175781 -14.265625 11.234375 -13.847656 11.984375 -13.015625 C 12.742188 -12.191406 13.125 -10.941406 13.125 -9.265625 L 13.125 0 L 10.40625 0 L 10.40625 -9.390625 C 10.40625 -11.253906 9.644531 -12.1875 8.125 -12.1875 L 4.21875 -12.1875 L 4.21875 0 L 1.5 0 L 1.5 -14.265625 Z M 8.8125 -14.265625 "/></g></g></g><g fill="#000000" fill-opacity="1"><g transform="translate(80.392278, 384.64281)"><g><path d="M 11.140625 0 L 5.8125 -8.09375 L 3.296875 0 L 0.703125 0 L 3.5 -8.734375 L 4.21875 -10.53125 L 1.875 -14.265625 L 4.640625 -14.265625 L 6.78125 -10.828125 L 8.90625 -7.640625 L 9.546875 -9.84375 L 10.828125 -14.265625 L 13.453125 -14.265625 L 10.5 -5.28125 L 14.03125 0 Z M 11.140625 0 "/></g></g></g><g fill="#000000" fill-opacity="1"><g transform="translate(95.261628, 384.64281)"><g/></g></g><g fill="#000000" fill-opacity="1"><g transform="translate(100.336489, 384.64281)"><g><path d="M 10 -9.640625 C 10 -10.535156 9.800781 -11.179688 9.40625 -11.578125 C 9.019531 -11.984375 8.457031 -12.1875 7.71875 -12.1875 L 1.46875 -12.1875 L 1.46875 -14.265625 L 8.40625 -14.265625 C 9.75 -14.265625 10.800781 -13.882812 11.5625 -13.125 C 12.332031 -12.363281 12.71875 -11.160156 12.71875 -9.515625 L 12.71875 0 L 10 0 Z M 1.390625 -6.90625 L 1.78125 -8.609375 L 4.109375 -8.609375 L 4.109375 0 L 1.390625 0 Z M 1.390625 -6.90625 "/></g></g></g><g fill="#000000" fill-opacity="1"><g transform="translate(114.495356, 384.64281)"><g><path d="M 7.28125 -9.21875 C 7.28125 -10.53125 7.519531 -11.519531 8 -12.1875 L 1.140625 -12.1875 L 1.140625 -14.265625 L 12.453125 -14.265625 L 12.453125 -12.1875 L 10.5625 -12.1875 C 10.1875 -11.46875 10 -10.476562 10 -9.21875 L 10 0 L 7.28125 0 Z M 7.28125 -9.21875 "/></g></g></g><g fill="#000000" fill-opacity="1"><g transform="translate(128.172117, 384.64281)"><g><path d="M 8.8125 -14.265625 C 10.175781 -14.265625 11.234375 -13.847656 11.984375 -13.015625 C 12.742188 -12.191406 13.125 -10.941406 13.125 -9.265625 L 13.125 0 L 10.40625 0 L 10.40625 -9.390625 C 10.40625 -11.253906 9.644531 -12.1875 8.125 -12.1875 L 4.21875 -12.1875 L 4.21875 0 L 1.5 0 L 1.5 -14.265625 Z M 8.8125 -14.265625 "/></g></g></g><g fill="#000000" fill-opacity="1"><g transform="translate(142.838474, 384.64281)"><g/></g></g><g fill="#000000" fill-opacity="1"><g transform="translate(147.913336, 384.64281)"><g><path d="M 0.5 -1.5 C 1.488281 -1.601562 2.148438 -1.863281 2.484375 -2.28125 C 2.828125 -2.707031 3 -3.394531 3 -4.34375 L 3 -14.265625 L 9.84375 -14.265625 C 11.195312 -14.265625 12.253906 -13.882812 13.015625 -13.125 C 13.773438 -12.363281 14.15625 -11.160156 14.15625 -9.515625 L 14.15625 0 L 11.4375 0 L 11.4375 -9.640625 C 11.4375 -10.535156 11.242188 -11.179688 10.859375 -11.578125 C 10.472656 -11.984375 9.90625 -12.1875 9.15625 -12.1875 L 5.703125 -12.1875 L 5.703125 -4.640625 C 5.703125 -2.960938 5.3125 -1.742188 4.53125 -0.984375 C 3.757812 -0.222656 2.503906 0.238281 0.765625 0.40625 Z M 0.5 -1.5 "/></g></g></g><g fill="#000000" fill-opacity="1"><g transform="translate(163.594663, 384.64281)"><g><path d="M 11.3125 -14.265625 L 11.3125 -12 L 6.578125 0 L 3.859375 0 L 8.609375 -12.1875 L 0.96875 -12.1875 L 0.96875 -18.1875 L 3.421875 -18.1875 L 3.421875 -14.265625 Z M 11.3125 -14.265625 "/></g></g></g><g fill="#000000" fill-opacity="1"><g transform="translate(175.926581, 384.64281)"><g><path d="M 1.78125 -11.296875 L 1.46875 -14.265625 L 4.15625 -14.265625 L 4.484375 -11.296875 L 4.484375 0 L 1.78125 0 Z M 1.78125 -11.296875 "/></g></g></g><g fill="#000000" fill-opacity="1"><g transform="translate(182.016424, 384.64281)"><g><path d="M 13.53125 -8.25 C 13.625 -5.320312 12.722656 -3.203125 10.828125 -1.890625 C 8.941406 -0.578125 6.289062 0.132812 2.875 0.25 L 1.390625 -12.1875 L 1.140625 -14.265625 L 8.453125 -14.265625 C 10.023438 -14.265625 11.242188 -13.796875 12.109375 -12.859375 C 12.984375 -11.929688 13.445312 -10.664062 13.5 -9.0625 Z M 5.25 -2.203125 C 7.144531 -2.378906 8.566406 -2.925781 9.515625 -3.84375 C 10.460938 -4.769531 10.898438 -6.253906 10.828125 -8.296875 L 10.828125 -8.984375 C 10.828125 -9.929688 10.597656 -10.703125 10.140625 -11.296875 C 9.691406 -11.890625 9.0625 -12.1875 8.25 -12.1875 L 4.109375 -12.1875 Z M 5.25 -2.203125 "/></g></g></g><g fill="#000000" fill-opacity="1"><g transform="translate(196.809651, 384.64281)"><g><path d="M 1.671875 -2.078125 L 6.265625 -2.078125 C 7.429688 -2.078125 8.351562 -2.421875 9.03125 -3.109375 C 9.707031 -3.804688 10.046875 -4.867188 10.046875 -6.296875 L 10.046875 -8 C 10.046875 -9.332031 9.773438 -10.363281 9.234375 -11.09375 C 8.691406 -11.820312 7.878906 -12.1875 6.796875 -12.1875 L 4.515625 -12.1875 L 3.953125 -9.671875 C 3.867188 -9.273438 3.828125 -8.941406 3.828125 -8.671875 C 3.828125 -8.171875 3.96875 -7.78125 4.25 -7.5 C 4.539062 -7.21875 5.019531 -7.007812 5.6875 -6.875 L 5.203125 -5.125 C 3.878906 -5.207031 2.914062 -5.539062 2.3125 -6.125 C 1.71875 -6.707031 1.421875 -7.515625 1.421875 -8.546875 C 1.421875 -9.035156 1.460938 -9.484375 1.546875 -9.890625 L 2.53125 -14.265625 L 7.390625 -14.265625 C 9.078125 -14.265625 10.394531 -13.703125 11.34375 -12.578125 C 12.289062 -11.460938 12.765625 -9.898438 12.765625 -7.890625 L 12.765625 -6.421875 C 12.765625 -4.304688 12.222656 -2.707031 11.140625 -1.625 C 10.054688 -0.539062 8.617188 0 6.828125 0 L 1.671875 0 Z M 1.671875 -2.078125 "/></g></g></g><g fill="#000000" fill-opacity="1"><g transform="translate(210.714778, 384.64281)"><g><path d="M 14.609375 -7.1875 C 14.609375 -4.8125 14.082031 -2.96875 13.03125 -1.65625 C 11.988281 -0.351562 10.503906 0.296875 8.578125 0.296875 C 7.867188 0.296875 7.140625 0.210938 6.390625 0.046875 L 6.671875 -2.03125 C 7.316406 -1.894531 7.867188 -1.828125 8.328125 -1.828125 C 9.609375 -1.828125 10.546875 -2.273438 11.140625 -3.171875 C 11.734375 -4.066406 12.03125 -5.378906 12.03125 -7.109375 C 12.03125 -8.953125 11.742188 -10.273438 11.171875 -11.078125 C 10.609375 -11.878906 9.800781 -12.28125 8.75 -12.28125 C 7.9375 -12.28125 7.269531 -12.046875 6.75 -11.578125 C 6.238281 -11.117188 5.898438 -10.5 5.734375 -9.71875 L 4.03125 0 L 1.3125 0 L 3.140625 -9.8125 L 1.171875 -14.265625 L 3.984375 -14.265625 L 5.125 -11.265625 C 5.476562 -12.328125 6.019531 -13.125 6.75 -13.65625 C 7.476562 -14.195312 8.304688 -14.46875 9.234375 -14.46875 C 10.929688 -14.46875 12.25 -13.878906 13.1875 -12.703125 C 14.132812 -11.523438 14.609375 -9.6875 14.609375 -7.1875 Z M 14.609375 -7.1875 "/></g></g></g><g fill="#000000" fill-opacity="1"><g transform="translate(226.472228, 384.64281)"><g><path d="M 1.78125 -11.296875 L 1.46875 -14.265625 L 4.15625 -14.265625 L 4.484375 -11.296875 L 4.484375 0 L 1.78125 0 Z M 1.78125 -11.296875 "/></g></g></g></svg>