<svg xmlns="http://www.w3.org/2000/svg" xmlns:xlink="http://www.w3.org/1999/xlink" width="324" zoomAndPan="magnify" viewBox="0 0 242.87999 272.250005" height="363" preserveAspectRatio="xMidYMid meet" version="1.0"><defs><g/><clipPath id="f287c9ce5e"><path d="M 173 37 L 194.589844 37 L 194.589844 57 L 173 57 Z M 173 37 " clip-rule="nonzero"/></clipPath><clipPath id="6612a142b7"><path d="M 40.511719 45 L 137 45 L 137 172.875 L 40.511719 172.875 Z M 40.511719 45 " clip-rule="nonzero"/></clipPath></defs><path fill="#cbd1d9" d="M 117.472656 48.207031 L 117.472656 41.066406 C 117.472656 29.808594 125.917969 19.902344 137.15625 19.117188 C 143.605469 18.671875 149.492188 21.125 153.664062 25.265625 C 157.472656 29.105469 159.863281 34.402344 159.863281 40.261719 L 159.863281 126.363281 C 159.863281 131.484375 164.011719 135.632812 169.136719 135.632812 C 174.257812 135.632812 178.40625 131.484375 178.40625 126.363281 L 178.40625 50.855469 L 189.003906 50.855469 L 189.003906 126.363281 C 189.003906 137.34375 180.117188 146.230469 169.136719 146.230469 C 158.15625 146.230469 149.265625 137.34375 149.265625 126.363281 L 149.265625 40.859375 C 149.265625 34.742188 144.257812 29.382812 138.160156 29.671875 C 135.449219 29.808594 132.988281 30.964844 131.164062 32.757812 C 129.261719 34.703125 128.070312 37.351562 128.070312 40.261719 L 128.070312 48.207031 L 117.472656 48.207031 " fill-opacity="1" fill-rule="nonzero"/><path fill="#cbd1d9" d="M 189.003906 40.261719 L 178.40625 40.261719 L 178.40625 27.011719 C 178.40625 25.554688 179.597656 24.363281 181.058594 24.363281 L 186.355469 24.363281 C 187.816406 24.363281 189.003906 25.554688 189.003906 27.011719 L 189.003906 40.261719 " fill-opacity="1" fill-rule="nonzero"/><g clip-path="url(#f287c9ce5e)"><path fill="#a7b0bd" d="M 189.003906 56.15625 L 178.40625 56.15625 C 175.480469 56.15625 173.109375 53.785156 173.109375 50.855469 L 173.109375 40.261719 C 173.109375 38.800781 174.300781 37.609375 175.757812 37.609375 L 191.65625 37.609375 C 193.113281 37.609375 194.304688 38.800781 194.304688 40.261719 L 194.304688 50.855469 C 194.304688 53.785156 191.933594 56.15625 189.003906 56.15625 " fill-opacity="1" fill-rule="nonzero"/></g><g clip-path="url(#6612a142b7)"><path fill="#1b2c46" d="M 128.070312 172.722656 L 48.59375 172.722656 C 44.207031 172.722656 40.644531 169.164062 40.644531 164.777344 L 40.644531 53.507812 C 40.644531 49.117188 44.207031 45.558594 48.59375 45.558594 L 128.070312 45.558594 C 132.460938 45.558594 136.019531 49.117188 136.019531 53.507812 L 136.019531 164.777344 C 136.019531 169.164062 132.460938 172.722656 128.070312 172.722656 " fill-opacity="1" fill-rule="nonzero"/></g><path fill="#ffce00" d="M 76.046875 70.683594 L 73.566406 113 C 73.511719 113.777344 74.132812 114.441406 74.921875 114.441406 L 86.726562 114.441406 L 78.675781 149.078125 C 78.167969 151.28125 81.179688 152.460938 82.300781 150.496094 L 109.332031 103.253906 C 109.878906 102.34375 109.226562 101.195312 108.160156 101.195312 L 92.027344 101.195312 L 102.023438 71.191406 C 102.3125 70.3125 101.660156 69.402344 100.730469 69.402344 L 77.414062 69.402344 C 76.691406 69.402344 76.089844 69.960938 76.046875 70.683594 " fill-opacity="1" fill-rule="nonzero"/><g fill="#000000" fill-opacity="1"><g transform="translate(47.57859, 230.047339)"><g><path d="M 9 -14.25 C 10.351562 -14.25 11.410156 -13.867188 12.171875 -13.109375 C 12.929688 -12.347656 13.3125 -11.144531 13.3125 -9.5 L 13.3125 0 L 1.640625 0 L 1.640625 -14.25 Z M 10.59375 -2.078125 L 10.59375 -9.625 C 10.59375 -10.519531 10.394531 -11.164062 10 -11.5625 C 9.613281 -11.96875 9.050781 -12.171875 8.3125 -12.171875 L 4.359375 -12.171875 L 4.359375 -2.078125 Z M 10.59375 -2.078125 "/></g></g></g><g fill="#000000" fill-opacity="1"><g transform="translate(62.400406, 230.047339)"><g><path d="M 1.78125 -11.28125 L 1.46875 -14.25 L 4.15625 -14.25 L 4.484375 -11.28125 L 4.484375 -7.421875 L 4.453125 -5.828125 L 1.78125 -5.328125 Z M 1.78125 -11.28125 "/></g></g></g><g fill="#000000" fill-opacity="1"><g transform="translate(68.481158, 230.047339)"><g><path d="M 7.28125 -9.203125 C 7.28125 -10.515625 7.515625 -11.503906 7.984375 -12.171875 L 1.140625 -12.171875 L 1.140625 -14.25 L 12.4375 -14.25 L 12.4375 -12.171875 L 10.546875 -12.171875 C 10.171875 -11.453125 9.984375 -10.460938 9.984375 -9.203125 L 9.984375 0 L 7.28125 0 Z M 7.28125 -9.203125 "/></g></g></g><g fill="#000000" fill-opacity="1"><g transform="translate(82.137503, 230.047339)"><g><path d="M 1.78125 -11.28125 L 1.46875 -14.25 L 4.15625 -14.25 L 4.484375 -11.28125 L 4.484375 -7.421875 L 4.453125 -5.828125 L 1.78125 -5.328125 Z M 1.78125 -11.28125 "/></g></g></g><g fill="#000000" fill-opacity="1"><g transform="translate(88.218255, 230.047339)"><g><path d="M 1.78125 -11.28125 L 1.46875 -14.25 L 4.15625 -14.25 L 4.484375 -11.28125 L 4.484375 -7.421875 L 4.453125 -5.828125 L 1.78125 -5.328125 Z M 1.78125 -11.28125 "/></g></g></g><g fill="#000000" fill-opacity="1"><g transform="translate(94.299007, 230.047339)"><g><path d="M 1.109375 -2.078125 L 5.21875 -2.078125 L 5.21875 -10.03125 C 5.21875 -10.757812 5.070312 -11.285156 4.78125 -11.609375 C 4.5 -11.941406 4.070312 -12.148438 3.5 -12.234375 L 1.78125 -12.5 L 2.125 -14.546875 L 4.765625 -14.171875 C 5.773438 -14.015625 6.554688 -13.582031 7.109375 -12.875 C 7.660156 -12.175781 7.9375 -11.25 7.9375 -10.09375 L 7.9375 0 L 1.109375 0 Z M 1.109375 -2.078125 "/></g></g></g><g fill="#000000" fill-opacity="1"><g transform="translate(103.774841, 230.047339)"><g/></g></g><g fill="#000000" fill-opacity="1"><g transform="translate(108.842126, 230.047339)"><g><path d="M 9 -14.25 C 10.351562 -14.25 11.410156 -13.867188 12.171875 -13.109375 C 12.929688 -12.347656 13.3125 -11.144531 13.3125 -9.5 L 13.3125 0 L 1.640625 0 L 1.640625 -14.25 Z M 10.59375 -2.078125 L 10.59375 -9.625 C 10.59375 -10.519531 10.394531 -11.164062 10 -11.5625 C 9.613281 -11.96875 9.050781 -12.171875 8.3125 -12.171875 L 4.359375 -12.171875 L 4.359375 -2.078125 Z M 10.59375 -2.078125 "/></g></g></g><g fill="#000000" fill-opacity="1"><g transform="translate(123.663943, 230.047339)"><g><path d="M 1.78125 -11.28125 L 1.46875 -14.25 L 4.15625 -14.25 L 4.484375 -11.28125 L 4.484375 -7.421875 L 4.453125 -5.828125 L 1.78125 -5.328125 Z M 1.78125 -11.28125 "/></g></g></g><g fill="#000000" fill-opacity="1"><g transform="translate(129.744695, 230.047339)"><g><path d="M 1.109375 -2.078125 L 5.21875 -2.078125 L 5.21875 -10.03125 C 5.21875 -10.757812 5.070312 -11.285156 4.78125 -11.609375 C 4.5 -11.941406 4.070312 -12.148438 3.5 -12.234375 L 1.78125 -12.5 L 2.125 -14.546875 L 4.765625 -14.171875 C 5.773438 -14.015625 6.554688 -13.582031 7.109375 -12.875 C 7.660156 -12.175781 7.9375 -11.25 7.9375 -10.09375 L 7.9375 0 L 1.109375 0 Z M 1.109375 -2.078125 "/></g></g></g><g fill="#000000" fill-opacity="1"><g transform="translate(139.220528, 230.047339)"><g><path d="M 12.75 -14.25 C 12.75 -10.832031 12.617188 -8.265625 12.359375 -6.546875 C 12.097656 -4.835938 11.460938 -3.445312 10.453125 -2.375 C 9.453125 -1.300781 7.832031 -0.539062 5.59375 -0.09375 L 0.84375 0.84375 L 0.453125 -1.296875 L 4.734375 -2.125 L 1.625 -14.25 L 4.328125 -14.25 L 7.171875 -2.765625 C 8.085938 -3.171875 8.742188 -3.773438 9.140625 -4.578125 C 9.546875 -5.390625 9.800781 -6.414062 9.90625 -7.65625 C 10.007812 -8.90625 10.0625 -10.769531 10.0625 -13.25 L 10.0625 -14.25 Z M 12.75 -14.25 "/></g></g></g><g fill="#000000" fill-opacity="1"><g transform="translate(153.180906, 230.047339)"><g><path d="M 1.140625 -14.25 L 3.859375 -14.25 L 5.21875 -2.203125 C 9.125 -2.585938 11.015625 -4.632812 10.890625 -8.34375 L 10.890625 -9.046875 C 10.890625 -9.960938 10.644531 -10.710938 10.15625 -11.296875 C 9.664062 -11.890625 8.941406 -12.222656 7.984375 -12.296875 L 6.71875 -12.375 L 6.921875 -14.5 L 8.421875 -14.421875 C 9.929688 -14.316406 11.144531 -13.847656 12.0625 -13.015625 C 12.976562 -12.179688 13.46875 -10.96875 13.53125 -9.375 L 13.5625 -8.671875 C 13.65625 -5.722656 12.742188 -3.535156 10.828125 -2.109375 C 8.910156 -0.679688 6.25 0.101562 2.84375 0.25 Z M 1.140625 -14.25 "/></g></g></g><g fill="#000000" fill-opacity="1"><g transform="translate(167.622681, 230.047339)"><g><path d="M 14.59375 -7.171875 C 14.59375 -4.804688 14.066406 -2.96875 13.015625 -1.65625 C 11.972656 -0.351562 10.488281 0.296875 8.5625 0.296875 C 7.851562 0.296875 7.128906 0.210938 6.390625 0.046875 L 6.671875 -2.03125 C 7.304688 -1.894531 7.851562 -1.828125 8.3125 -1.828125 C 9.59375 -1.828125 10.53125 -2.273438 11.125 -3.171875 C 11.71875 -4.066406 12.015625 -5.375 12.015625 -7.09375 C 12.015625 -8.9375 11.726562 -10.257812 11.15625 -11.0625 C 10.59375 -11.863281 9.789062 -12.265625 8.75 -12.265625 C 7.9375 -12.265625 7.269531 -12.03125 6.75 -11.5625 C 6.238281 -11.101562 5.898438 -10.484375 5.734375 -9.703125 L 4.03125 0 L 1.3125 0 L 3.140625 -9.8125 L 1.171875 -14.25 L 3.984375 -14.25 L 5.125 -11.25 C 5.476562 -12.3125 6.015625 -13.109375 6.734375 -13.640625 C 7.460938 -14.179688 8.289062 -14.453125 9.21875 -14.453125 C 10.914062 -14.453125 12.234375 -13.863281 13.171875 -12.6875 C 14.117188 -11.507812 14.59375 -9.671875 14.59375 -7.171875 Z M 14.59375 -7.171875 "/></g></g></g><g fill="#000000" fill-opacity="1"><g transform="translate(55.665686, 258.469042)"><g><path d="M 7.28125 -9.203125 C 7.28125 -10.515625 7.515625 -11.503906 7.984375 -12.171875 L 1.140625 -12.171875 L 1.140625 -14.25 L 12.4375 -14.25 L 12.4375 -12.171875 L 10.546875 -12.171875 C 10.171875 -11.453125 9.984375 -10.460938 9.984375 -9.203125 L 9.984375 0 L 7.28125 0 Z M 7.28125 -9.203125 "/></g></g></g><g fill="#000000" fill-opacity="1"><g transform="translate(69.322031, 258.469042)"><g><path d="M 1.78125 -11.28125 L 1.46875 -14.25 L 4.15625 -14.25 L 4.484375 -11.28125 L 4.484375 -7.421875 L 4.453125 -5.828125 L 1.78125 -5.328125 Z M 1.78125 -11.28125 "/></g></g></g><g fill="#000000" fill-opacity="1"><g transform="translate(75.402783, 258.469042)"><g><path d="M 1.78125 -11.28125 L 1.46875 -14.25 L 4.15625 -14.25 L 4.484375 -11.28125 L 4.484375 -7.421875 L 4.453125 -5.828125 L 1.78125 -5.328125 Z M 1.78125 -11.28125 "/></g></g></g><g fill="#000000" fill-opacity="1"><g transform="translate(81.483535, 258.469042)"><g><path d="M 1.109375 -2.078125 L 5.21875 -2.078125 L 5.21875 -10.03125 C 5.21875 -10.757812 5.070312 -11.285156 4.78125 -11.609375 C 4.5 -11.941406 4.070312 -12.148438 3.5 -12.234375 L 1.78125 -12.5 L 2.125 -14.546875 L 4.765625 -14.171875 C 5.773438 -14.015625 6.554688 -13.582031 7.109375 -12.875 C 7.660156 -12.175781 7.9375 -11.25 7.9375 -10.09375 L 7.9375 0 L 1.109375 0 Z M 1.109375 -2.078125 "/></g></g></g><g fill="#000000" fill-opacity="1"><g transform="translate(90.959369, 258.469042)"><g><path d="M 9.984375 -9.625 C 9.984375 -10.519531 9.785156 -11.164062 9.390625 -11.5625 C 9.003906 -11.96875 8.441406 -12.171875 7.703125 -12.171875 L 1.46875 -12.171875 L 1.46875 -14.25 L 8.390625 -14.25 C 9.742188 -14.25 10.800781 -13.867188 11.5625 -13.109375 C 12.320312 -12.347656 12.703125 -11.144531 12.703125 -9.5 L 12.703125 0 L 9.984375 0 Z M 1.390625 -6.890625 L 1.78125 -8.59375 L 4.109375 -8.59375 L 4.109375 0 L 1.390625 0 Z M 1.390625 -6.890625 "/></g></g></g><g fill="#000000" fill-opacity="1"><g transform="translate(105.097099, 258.469042)"><g/></g></g><g fill="#000000" fill-opacity="1"><g transform="translate(110.164385, 258.469042)"><g><path d="M 1.78125 -11.28125 L 1.46875 -14.25 L 4.15625 -14.25 L 4.484375 -11.28125 L 4.484375 5.0625 L 1.78125 5.0625 Z M 1.78125 -11.28125 "/></g></g></g><g fill="#000000" fill-opacity="1"><g transform="translate(116.245137, 258.469042)"><g><path d="M 1.78125 -11.28125 L 1.46875 -14.25 L 4.15625 -14.25 L 4.484375 -11.28125 L 4.484375 0 L 1.78125 0 Z M 1.78125 -11.28125 "/></g></g></g><g fill="#000000" fill-opacity="1"><g transform="translate(122.325889, 258.469042)"><g><path d="M 1.671875 -2.078125 L 6.265625 -2.078125 C 7.429688 -2.078125 8.347656 -2.421875 9.015625 -3.109375 C 9.691406 -3.804688 10.03125 -4.863281 10.03125 -6.28125 L 10.03125 -7.984375 C 10.03125 -9.316406 9.757812 -10.347656 9.21875 -11.078125 C 8.6875 -11.804688 7.878906 -12.171875 6.796875 -12.171875 L 4.515625 -12.171875 L 3.953125 -9.65625 C 3.867188 -9.269531 3.828125 -8.941406 3.828125 -8.671875 C 3.828125 -8.160156 3.96875 -7.765625 4.25 -7.484375 C 4.539062 -7.210938 5.015625 -7.007812 5.671875 -6.875 L 5.203125 -5.125 C 3.878906 -5.207031 2.914062 -5.539062 2.3125 -6.125 C 1.71875 -6.707031 1.421875 -7.515625 1.421875 -8.546875 C 1.421875 -9.035156 1.460938 -9.484375 1.546875 -9.890625 L 2.53125 -14.25 L 7.375 -14.25 C 9.0625 -14.25 10.378906 -13.6875 11.328125 -12.5625 C 12.273438 -11.445312 12.75 -9.882812 12.75 -7.875 L 12.75 -6.40625 C 12.75 -4.300781 12.207031 -2.707031 11.125 -1.625 C 10.039062 -0.539062 8.601562 0 6.8125 0 L 1.671875 0 Z M 1.671875 -2.078125 "/></g></g></g><g fill="#000000" fill-opacity="1"><g transform="translate(136.210259, 258.469042)"><g><path d="M 11.296875 -14.25 L 11.296875 -11.984375 L 6.5625 0 L 3.859375 0 L 8.59375 -12.171875 L 0.96875 -12.171875 L 0.96875 -18.171875 L 3.421875 -18.171875 L 3.421875 -14.25 Z M 11.296875 -14.25 "/></g></g></g><g fill="#000000" fill-opacity="1"><g transform="translate(148.523768, 258.469042)"><g><path d="M 1.140625 -14.25 L 3.859375 -14.25 L 5.21875 -2.203125 C 9.125 -2.585938 11.015625 -4.632812 10.890625 -8.34375 L 10.890625 -9.046875 C 10.890625 -9.960938 10.644531 -10.710938 10.15625 -11.296875 C 9.664062 -11.890625 8.941406 -12.222656 7.984375 -12.296875 L 6.71875 -12.375 L 6.921875 -14.5 L 8.421875 -14.421875 C 9.929688 -14.316406 11.144531 -13.847656 12.0625 -13.015625 C 12.976562 -12.179688 13.46875 -10.96875 13.53125 -9.375 L 13.5625 -8.671875 C 13.65625 -5.722656 12.742188 -3.535156 10.828125 -2.109375 C 8.910156 -0.679688 6.25 0.101562 2.84375 0.25 Z M 1.140625 -14.25 "/></g></g></g><g fill="#000000" fill-opacity="1"><g transform="translate(162.965543, 258.469042)"><g><path d="M 11.296875 -14.25 L 11.296875 -11.984375 L 6.5625 0 L 3.859375 0 L 8.59375 -12.171875 L 0.96875 -12.171875 L 0.96875 -18.171875 L 3.421875 -18.171875 L 3.421875 -14.25 Z M 11.296875 -14.25 "/></g></g></g></svg>