<svg xmlns="http://www.w3.org/2000/svg" xmlns:xlink="http://www.w3.org/1999/xlink" width="324" zoomAndPan="magnify" viewBox="0 0 242.87999 269.999989" height="360" preserveAspectRatio="xMidYMid meet" version="1.0"><defs><g/><clipPath id="15388e43d2"><path d="M 42.785156 44 L 165 44 L 165 173 L 42.785156 173 Z M 42.785156 44 " clip-rule="nonzero"/></clipPath><clipPath id="864bc3732a"><path d="M 42.785156 44 L 180 44 L 180 202.574219 L 42.785156 202.574219 Z M 42.785156 44 " clip-rule="nonzero"/></clipPath><clipPath id="10f8088118"><path d="M 60 32.410156 L 208.453125 32.410156 L 208.453125 202.574219 L 60 202.574219 Z M 60 32.410156 " clip-rule="nonzero"/></clipPath></defs><g clip-path="url(#15388e43d2)"><path fill="#b6eaff" d="M 164.019531 172.839844 L 42.792969 172.839844 L 42.792969 52.304688 C 42.792969 47.851562 46.382812 44.261719 50.839844 44.261719 L 156.019531 44.261719 C 160.472656 44.261719 164.0625 47.851562 164.0625 52.304688 L 164.0625 172.839844 Z M 164.019531 172.839844 " fill-opacity="1" fill-rule="nonzero"/></g><g clip-path="url(#864bc3732a)"><path fill="#ffa5bf" d="M 164.019531 74.578125 L 42.792969 74.578125 L 42.792969 52.304688 C 42.792969 47.851562 46.382812 44.261719 50.839844 44.261719 L 156.019531 44.261719 C 160.472656 44.261719 164.0625 47.851562 164.0625 52.304688 L 164.0625 74.578125 Z M 175.914062 120.851562 L 114.5 182.308594 L 105.980469 202.9375 L 126.609375 194.417969 L 170.636719 150.390625 L 179.546875 146.109375 Z M 175.914062 120.851562 " fill-opacity="1" fill-rule="nonzero"/></g><g clip-path="url(#10f8088118)"><path fill="#062654" d="M 147.542969 37.601562 L 147.542969 56.28125 C 147.542969 59.136719 145.207031 61.472656 142.351562 61.472656 C 139.5 61.472656 137.164062 59.136719 137.164062 56.28125 L 137.164062 37.601562 C 137.164062 34.746094 139.5 32.410156 142.351562 32.410156 C 145.207031 32.410156 147.542969 34.746094 147.542969 37.601562 Z M 105.980469 202.9375 L 126.609375 194.417969 L 114.5 182.308594 Z M 117.355469 61.472656 C 120.210938 61.472656 122.546875 59.136719 122.546875 56.28125 L 122.546875 37.601562 C 122.546875 34.746094 120.210938 32.410156 117.355469 32.410156 C 114.5 32.410156 112.164062 34.746094 112.164062 37.601562 L 112.164062 56.28125 C 112.164062 59.179688 114.5 61.472656 117.355469 61.472656 Z M 92.402344 61.472656 C 95.253906 61.472656 97.589844 59.136719 97.589844 56.28125 L 97.589844 37.601562 C 97.589844 34.746094 95.253906 32.410156 92.402344 32.410156 C 89.546875 32.410156 87.210938 34.746094 87.210938 37.601562 L 87.210938 56.28125 C 87.210938 59.179688 89.546875 61.472656 92.402344 61.472656 Z M 67.402344 61.472656 C 70.257812 61.472656 72.59375 59.136719 72.59375 56.28125 L 72.59375 37.601562 C 72.59375 34.746094 70.257812 32.410156 67.402344 32.410156 C 64.546875 32.410156 62.214844 34.746094 62.214844 37.601562 L 62.214844 56.28125 C 62.214844 59.179688 64.546875 61.472656 67.402344 61.472656 Z M 60.785156 152.988281 L 98.886719 152.988281 L 98.886719 147.796875 L 60.785156 147.796875 Z M 60.785156 134.777344 L 146.027344 134.777344 L 146.027344 129.589844 L 60.785156 129.589844 Z M 60.785156 98.363281 L 146.027344 98.363281 L 146.027344 93.175781 L 60.785156 93.175781 Z M 60.785156 116.570312 L 146.027344 116.570312 L 146.027344 111.382812 L 60.785156 111.382812 Z M 207.183594 109.652344 L 199.269531 101.738281 C 198.101562 100.570312 196.242188 100.570312 195.074219 101.738281 L 167.046875 129.761719 L 179.15625 141.871094 L 170.679688 150.347656 L 174.355469 154.023438 L 198.359375 130.023438 L 194.683594 126.347656 L 207.183594 113.847656 C 208.351562 112.679688 208.351562 110.820312 207.183594 109.652344 Z M 207.183594 109.652344 " fill-opacity="1" fill-rule="nonzero"/></g><g fill="#000000" fill-opacity="1"><g transform="translate(79.432174, 236.88109)"><g><path d="M 1.140625 -14.265625 L 3.859375 -14.265625 L 5.234375 -2.203125 C 9.140625 -2.597656 11.035156 -4.648438 10.921875 -8.359375 L 10.921875 -9.0625 C 10.921875 -9.976562 10.675781 -10.734375 10.1875 -11.328125 C 9.695312 -11.921875 8.96875 -12.25 8 -12.3125 L 6.734375 -12.390625 L 6.9375 -14.53125 L 8.4375 -14.453125 C 9.957031 -14.347656 11.171875 -13.875 12.078125 -13.03125 C 12.992188 -12.195312 13.488281 -10.984375 13.5625 -9.390625 L 13.578125 -8.6875 C 13.679688 -5.738281 12.769531 -3.546875 10.84375 -2.109375 C 8.925781 -0.679688 6.257812 0.101562 2.84375 0.25 Z M 1.140625 -14.265625 "/></g></g></g><g fill="#000000" fill-opacity="1"><g transform="translate(93.90658, 236.88109)"><g><path d="M 12.765625 -14.265625 C 12.765625 -10.847656 12.632812 -8.28125 12.375 -6.5625 C 12.113281 -4.84375 11.476562 -3.445312 10.46875 -2.375 C 9.46875 -1.300781 7.847656 -0.546875 5.609375 -0.109375 L 0.84375 0.84375 L 0.453125 -1.296875 L 4.75 -2.140625 L 1.625 -14.265625 L 4.34375 -14.265625 L 7.1875 -2.765625 C 8.101562 -3.171875 8.765625 -3.78125 9.171875 -4.59375 C 9.578125 -5.40625 9.828125 -6.429688 9.921875 -7.671875 C 10.023438 -8.921875 10.078125 -10.789062 10.078125 -13.28125 L 10.078125 -14.265625 Z M 12.765625 -14.265625 "/></g></g></g><g fill="#000000" fill-opacity="1"><g transform="translate(107.898503, 236.88109)"><g><path d="M 1.78125 -11.296875 L 1.46875 -14.265625 L 4.171875 -14.265625 L 4.5 -11.296875 L 4.5 0 L 1.78125 0 Z M 1.78125 -11.296875 "/></g></g></g><g fill="#000000" fill-opacity="1"><g transform="translate(113.992995, 236.88109)"><g/></g></g><g fill="#000000" fill-opacity="1"><g transform="translate(119.07173, 236.88109)"><g><path d="M 13.53125 -8.25 C 13.632812 -5.320312 12.738281 -3.203125 10.84375 -1.890625 C 8.945312 -0.578125 6.289062 0.132812 2.875 0.25 L 1.390625 -12.1875 L 1.140625 -14.265625 L 8.453125 -14.265625 C 10.023438 -14.265625 11.25 -13.800781 12.125 -12.875 C 13 -11.945312 13.460938 -10.675781 13.515625 -9.0625 Z M 5.25 -2.203125 C 7.144531 -2.378906 8.566406 -2.925781 9.515625 -3.84375 C 10.460938 -4.769531 10.90625 -6.253906 10.84375 -8.296875 L 10.84375 -8.984375 C 10.84375 -9.929688 10.613281 -10.703125 10.15625 -11.296875 C 9.695312 -11.890625 9.0625 -12.1875 8.25 -12.1875 L 4.109375 -12.1875 Z M 5.25 -2.203125 "/></g></g></g><g fill="#000000" fill-opacity="1"><g transform="translate(133.876251, 236.88109)"><g><path d="M 5.859375 -2.078125 C 6.691406 -2.160156 7.390625 -2.359375 7.953125 -2.671875 C 8.523438 -2.992188 8.984375 -3.519531 9.328125 -4.25 C 9.679688 -4.988281 9.898438 -6 9.984375 -7.28125 L 10.359375 -12.1875 L 1.375 -12.1875 L 1.375 -14.265625 L 13.28125 -14.265625 L 13.171875 -12.4375 L 12.828125 -7.921875 C 12.703125 -5.429688 12.082031 -3.5 10.96875 -2.125 C 9.851562 -0.757812 8.238281 -0.0390625 6.125 0.03125 Z M 1.328125 -7.15625 L 1.703125 -8.890625 L 4.03125 -8.890625 L 4.03125 5.078125 L 1.328125 5.078125 Z M 1.328125 -7.15625 "/></g></g></g><g fill="#000000" fill-opacity="1"><g transform="translate(148.274478, 236.88109)"><g><path d="M 1.125 -2.078125 L 5.234375 -2.078125 L 5.234375 -10.0625 C 5.234375 -10.78125 5.085938 -11.304688 4.796875 -11.640625 C 4.515625 -11.972656 4.082031 -12.179688 3.5 -12.265625 L 1.78125 -12.515625 L 2.140625 -14.578125 L 4.78125 -14.1875 C 5.789062 -14.039062 6.570312 -13.613281 7.125 -12.90625 C 7.675781 -12.207031 7.953125 -11.273438 7.953125 -10.109375 L 7.953125 0 L 1.125 0 Z M 1.125 -2.078125 "/></g></g></g><g fill="#000000" fill-opacity="1"><g transform="translate(157.771723, 236.88109)"><g><path d="M 1.671875 -2.078125 L 6.265625 -2.078125 C 7.441406 -2.078125 8.367188 -2.425781 9.046875 -3.125 C 9.722656 -3.820312 10.0625 -4.878906 10.0625 -6.296875 L 10.0625 -8 C 10.0625 -9.332031 9.789062 -10.363281 9.25 -11.09375 C 8.707031 -11.820312 7.894531 -12.1875 6.8125 -12.1875 L 4.515625 -12.1875 L 3.96875 -9.671875 C 3.875 -9.285156 3.828125 -8.957031 3.828125 -8.6875 C 3.828125 -8.175781 3.972656 -7.78125 4.265625 -7.5 C 4.554688 -7.21875 5.03125 -7.007812 5.6875 -6.875 L 5.203125 -5.125 C 3.878906 -5.207031 2.914062 -5.539062 2.3125 -6.125 C 1.71875 -6.71875 1.421875 -7.53125 1.421875 -8.5625 C 1.421875 -9.050781 1.460938 -9.5 1.546875 -9.90625 L 2.546875 -14.265625 L 7.390625 -14.265625 C 9.078125 -14.265625 10.394531 -13.707031 11.34375 -12.59375 C 12.289062 -11.476562 12.765625 -9.910156 12.765625 -7.890625 L 12.765625 -6.421875 C 12.765625 -4.304688 12.222656 -2.707031 11.140625 -1.625 C 10.054688 -0.539062 8.617188 0 6.828125 0 L 1.671875 0 Z M 1.671875 -2.078125 "/></g></g></g></svg>