<svg xmlns="http://www.w3.org/2000/svg" xmlns:xlink="http://www.w3.org/1999/xlink" width="361" zoomAndPan="magnify" viewBox="0 0 270.75 307.499996" height="410" preserveAspectRatio="xMidYMid meet" version="1.0"><defs><filter x="0%" y="0%" width="100%" height="100%" id="14cf56319d"><feColorMatrix values="0 0 0 0 1 0 0 0 0 1 0 0 0 0 1 0 0 0 1 0" color-interpolation-filters="sRGB"/></filter><g/><clipPath id="5fe21e63f9"><path d="M 83.46875 54.0625 L 249.617188 54.0625 L 249.617188 214.800781 L 83.46875 214.800781 Z M 83.46875 54.0625 " clip-rule="nonzero"/></clipPath><clipPath id="f2844308d2"><path d="M 165 16.371094 L 210 16.371094 L 210 68 L 165 68 Z M 165 16.371094 " clip-rule="nonzero"/></clipPath><clipPath id="55f5ee9db1"><path d="M 20.847656 111.332031 L 165 111.332031 L 165 217 L 20.847656 217 Z M 20.847656 111.332031 " clip-rule="nonzero"/></clipPath><clipPath id="4140f49b47"><path d="M 20.847656 111.332031 L 166 111.332031 L 166 217 L 20.847656 217 Z M 20.847656 111.332031 " clip-rule="nonzero"/></clipPath><mask id="a35ae0c9de"><g filter="url(#14cf56319d)"><rect x="-27.075" width="324.9" fill="#000000" y="-30.75" height="368.999995" fill-opacity="0.2"/></g></mask><clipPath id="069150ecbf"><path d="M 0.847656 0.332031 L 145 0.332031 L 145 105.609375 L 0.847656 105.609375 Z M 0.847656 0.332031 " clip-rule="nonzero"/></clipPath><clipPath id="7504f4873f"><rect x="0" width="146" y="0" height="106"/></clipPath><clipPath id="d10d7413ca"><path d="M 24 114 L 164 114 L 164 218.40625 L 24 218.40625 Z M 24 114 " clip-rule="nonzero"/></clipPath><mask id="44eb22d666"><g filter="url(#14cf56319d)"><rect x="-27.075" width="324.9" fill="#000000" y="-30.75" height="368.999995" fill-opacity="0.1"/></g></mask><clipPath id="2e3d047a6e"><path d="M 0.535156 0.292969 L 139.988281 0.292969 L 139.988281 104 L 0.535156 104 Z M 0.535156 0.292969 " clip-rule="nonzero"/></clipPath><clipPath id="38bc694964"><rect x="0" width="140" y="0" height="105"/></clipPath><clipPath id="8c88705256"><path d="M 30 121 L 166.859375 121 L 166.859375 218.40625 L 30 218.40625 Z M 30 121 " clip-rule="nonzero"/></clipPath></defs><g fill="#000000" fill-opacity="1"><g transform="translate(35.127922, 266.205403)"><g><path d="M 0.5 -1.5 C 1.488281 -1.59375 2.148438 -1.851562 2.484375 -2.28125 C 2.828125 -2.707031 3 -3.394531 3 -4.34375 L 3 -14.25 L 9.84375 -14.25 C 11.195312 -14.25 12.253906 -13.867188 13.015625 -13.109375 C 13.773438 -12.347656 14.15625 -11.148438 14.15625 -9.515625 L 14.15625 0 L 11.4375 0 L 11.4375 -9.640625 C 11.4375 -10.535156 11.238281 -11.179688 10.84375 -11.578125 C 10.457031 -11.972656 9.894531 -12.171875 9.15625 -12.171875 L 5.703125 -12.171875 L 5.703125 -4.640625 C 5.703125 -2.960938 5.3125 -1.742188 4.53125 -0.984375 C 3.757812 -0.222656 2.503906 0.238281 0.765625 0.40625 Z M 0.5 -1.5 "/></g></g></g><g fill="#000000" fill-opacity="1"><g transform="translate(50.796323, 266.205403)"><g><path d="M 1.78125 -11.28125 L 1.46875 -14.25 L 4.15625 -14.25 L 4.484375 -11.28125 L 4.484375 0 L 1.78125 0 Z M 1.78125 -11.28125 "/></g></g></g><g fill="#000000" fill-opacity="1"><g transform="translate(56.88114, 266.205403)"><g><path d="M 1.78125 -11.28125 L 1.46875 -14.25 L 4.15625 -14.25 L 4.484375 -11.28125 L 4.484375 -7.4375 L 4.46875 -5.828125 L 1.78125 -5.328125 Z M 1.78125 -11.28125 "/></g></g></g><g fill="#000000" fill-opacity="1"><g transform="translate(62.965957, 266.205403)"><g><path d="M 5.859375 -2.078125 C 6.679688 -2.160156 7.375 -2.359375 7.9375 -2.671875 C 8.507812 -2.984375 8.96875 -3.503906 9.3125 -4.234375 C 9.664062 -4.972656 9.882812 -5.988281 9.96875 -7.28125 L 10.34375 -12.171875 L 1.375 -12.171875 L 1.375 -14.25 L 13.265625 -14.25 L 13.15625 -12.421875 L 12.8125 -7.90625 C 12.6875 -5.425781 12.066406 -3.5 10.953125 -2.125 C 9.835938 -0.757812 8.222656 -0.0390625 6.109375 0.03125 Z M 1.3125 -7.15625 L 1.703125 -8.875 L 4.03125 -8.875 L 4.03125 5.078125 L 1.3125 5.078125 Z M 1.3125 -7.15625 "/></g></g></g><g fill="#000000" fill-opacity="1"><g transform="translate(77.341332, 266.205403)"><g><path d="M 15.3125 -10.34375 C 15.351562 -6.78125 14.359375 -4.113281 12.328125 -2.34375 C 10.296875 -0.582031 7.1875 0.28125 3 0.25 L 1.140625 -14.25 L 3.734375 -14.25 L 4.546875 -7.5 C 5.472656 -7.957031 6.101562 -8.554688 6.4375 -9.296875 C 6.78125 -10.046875 6.96875 -11.164062 7 -12.65625 L 7 -14.234375 L 9.578125 -14.234375 L 9.5625 -12.703125 C 9.53125 -10.847656 9.15625 -9.359375 8.4375 -8.234375 C 7.726562 -7.109375 6.515625 -6.195312 4.796875 -5.5 L 5.203125 -2.046875 C 7.753906 -2.222656 9.632812 -2.984375 10.84375 -4.328125 C 12.050781 -5.679688 12.644531 -7.644531 12.625 -10.21875 L 12.578125 -14.25 L 15.296875 -14.25 Z M 15.3125 -10.34375 "/></g></g></g><g fill="#000000" fill-opacity="1"><g transform="translate(93.871741, 266.205403)"><g><path d="M 1.78125 -11.28125 L 1.46875 -14.25 L 4.15625 -14.25 L 4.484375 -11.28125 L 4.484375 0 L 1.78125 0 Z M 1.78125 -11.28125 "/></g></g></g><g fill="#000000" fill-opacity="1"><g transform="translate(99.956558, 266.205403)"><g/></g></g><g fill="#000000" fill-opacity="1"><g transform="translate(105.027235, 266.205403)"><g><path d="M 9 -14.25 C 10.351562 -14.25 11.410156 -13.867188 12.171875 -13.109375 C 12.929688 -12.347656 13.3125 -11.148438 13.3125 -9.515625 L 13.3125 0 L 1.640625 0 L 1.640625 -14.25 Z M 10.59375 -2.078125 L 10.59375 -9.640625 C 10.59375 -10.535156 10.398438 -11.179688 10.015625 -11.578125 C 9.628906 -11.972656 9.0625 -12.171875 8.3125 -12.171875 L 4.359375 -12.171875 L 4.359375 -2.078125 Z M 10.59375 -2.078125 "/></g></g></g><g fill="#000000" fill-opacity="1"><g transform="translate(119.858967, 266.205403)"><g><path d="M 1.78125 -11.28125 L 1.46875 -14.25 L 4.15625 -14.25 L 4.484375 -11.28125 L 4.484375 -7.4375 L 4.46875 -5.828125 L 1.78125 -5.328125 Z M 1.78125 -11.28125 "/></g></g></g><g fill="#000000" fill-opacity="1"><g transform="translate(125.943784, 266.205403)"><g><path d="M 1.109375 -2.078125 L 5.21875 -2.078125 L 5.21875 -10.046875 C 5.21875 -10.765625 5.070312 -11.289062 4.78125 -11.625 C 4.5 -11.957031 4.070312 -12.164062 3.5 -12.25 L 1.78125 -12.5 L 2.125 -14.5625 L 4.765625 -14.171875 C 5.785156 -14.023438 6.566406 -13.597656 7.109375 -12.890625 C 7.660156 -12.191406 7.9375 -11.257812 7.9375 -10.09375 L 7.9375 0 L 1.109375 0 Z M 1.109375 -2.078125 "/></g></g></g><g fill="#000000" fill-opacity="1"><g transform="translate(135.425955, 266.205403)"><g><path d="M 15.3125 -10.34375 C 15.351562 -6.78125 14.359375 -4.113281 12.328125 -2.34375 C 10.296875 -0.582031 7.1875 0.28125 3 0.25 L 1.140625 -14.25 L 3.734375 -14.25 L 4.546875 -7.5 C 5.472656 -7.957031 6.101562 -8.554688 6.4375 -9.296875 C 6.78125 -10.046875 6.96875 -11.164062 7 -12.65625 L 7 -14.234375 L 9.578125 -14.234375 L 9.5625 -12.703125 C 9.53125 -10.847656 9.15625 -9.359375 8.4375 -8.234375 C 7.726562 -7.109375 6.515625 -6.195312 4.796875 -5.5 L 5.203125 -2.046875 C 7.753906 -2.222656 9.632812 -2.984375 10.84375 -4.328125 C 12.050781 -5.679688 12.644531 -7.644531 12.625 -10.21875 L 12.578125 -14.25 L 15.296875 -14.25 Z M 15.3125 -10.34375 "/></g></g></g><g fill="#000000" fill-opacity="1"><g transform="translate(151.956364, 266.205403)"><g><path d="M 1.78125 -11.28125 L 1.46875 -14.25 L 4.15625 -14.25 L 4.484375 -11.28125 L 4.484375 -7.4375 L 4.46875 -5.828125 L 1.78125 -5.328125 Z M 1.78125 -11.28125 "/></g></g></g><g fill="#000000" fill-opacity="1"><g transform="translate(158.041181, 266.205403)"><g/></g></g><g fill="#000000" fill-opacity="1"><g transform="translate(163.111858, 266.205403)"><g><path d="M 9 -14.25 C 10.351562 -14.25 11.410156 -13.867188 12.171875 -13.109375 C 12.929688 -12.347656 13.3125 -11.148438 13.3125 -9.515625 L 13.3125 0 L 1.640625 0 L 1.640625 -14.25 Z M 10.59375 -2.078125 L 10.59375 -9.640625 C 10.59375 -10.535156 10.398438 -11.179688 10.015625 -11.578125 C 9.628906 -11.972656 9.0625 -12.171875 8.3125 -12.171875 L 4.359375 -12.171875 L 4.359375 -2.078125 Z M 10.59375 -2.078125 "/></g></g></g><g fill="#000000" fill-opacity="1"><g transform="translate(177.94359, 266.205403)"><g><path d="M 1.78125 -11.28125 L 1.46875 -14.25 L 4.15625 -14.25 L 4.484375 -11.28125 L 4.484375 -7.4375 L 4.46875 -5.828125 L 1.78125 -5.328125 Z M 1.78125 -11.28125 "/></g></g></g><g fill="#000000" fill-opacity="1"><g transform="translate(184.028407, 266.205403)"><g><path d="M 1.109375 -2.078125 L 5.21875 -2.078125 L 5.21875 -10.046875 C 5.21875 -10.765625 5.070312 -11.289062 4.78125 -11.625 C 4.5 -11.957031 4.070312 -12.164062 3.5 -12.25 L 1.78125 -12.5 L 2.125 -14.5625 L 4.765625 -14.171875 C 5.785156 -14.023438 6.566406 -13.597656 7.109375 -12.890625 C 7.660156 -12.191406 7.9375 -11.257812 7.9375 -10.09375 L 7.9375 0 L 1.109375 0 Z M 1.109375 -2.078125 "/></g></g></g><g fill="#000000" fill-opacity="1"><g transform="translate(193.510578, 266.205403)"><g><path d="M 1.78125 -11.28125 L 1.46875 -14.25 L 4.15625 -14.25 L 4.484375 -11.28125 L 4.484375 0 L 1.78125 0 Z M 1.78125 -11.28125 "/></g></g></g><g fill="#000000" fill-opacity="1"><g transform="translate(199.595395, 266.205403)"><g><path d="M 0.5 -1.5 C 1.488281 -1.59375 2.148438 -1.851562 2.484375 -2.28125 C 2.828125 -2.707031 3 -3.394531 3 -4.34375 L 3 -14.25 L 9.84375 -14.25 C 11.195312 -14.25 12.253906 -13.867188 13.015625 -13.109375 C 13.773438 -12.347656 14.15625 -11.148438 14.15625 -9.515625 L 14.15625 0 L 11.4375 0 L 11.4375 -9.640625 C 11.4375 -10.535156 11.238281 -11.179688 10.84375 -11.578125 C 10.457031 -11.972656 9.894531 -12.171875 9.15625 -12.171875 L 5.703125 -12.171875 L 5.703125 -4.640625 C 5.703125 -2.960938 5.3125 -1.742188 4.53125 -0.984375 C 3.757812 -0.222656 2.503906 0.238281 0.765625 0.40625 Z M 0.5 -1.5 "/></g></g></g><g fill="#000000" fill-opacity="1"><g transform="translate(215.263795, 266.205403)"><g><path d="M 1.78125 -11.28125 L 1.46875 -14.25 L 4.15625 -14.25 L 4.484375 -11.28125 L 4.484375 -7.4375 L 4.46875 -5.828125 L 1.78125 -5.328125 Z M 1.78125 -11.28125 "/></g></g></g><g fill="#000000" fill-opacity="1"><g transform="translate(221.348612, 266.205403)"><g><path d="M 12.75 -14.25 C 12.75 -10.832031 12.617188 -8.265625 12.359375 -6.546875 C 12.097656 -4.835938 11.460938 -3.445312 10.453125 -2.375 C 9.453125 -1.300781 7.835938 -0.539062 5.609375 -0.09375 L 0.84375 0.84375 L 0.453125 -1.296875 L 4.75 -2.125 L 1.625 -14.25 L 4.34375 -14.25 L 7.171875 -2.765625 C 8.085938 -3.171875 8.75 -3.78125 9.15625 -4.59375 C 9.5625 -5.40625 9.8125 -6.429688 9.90625 -7.671875 C 10.007812 -8.910156 10.0625 -10.773438 10.0625 -13.265625 L 10.0625 -14.25 Z M 12.75 -14.25 "/></g></g></g><g fill="#000000" fill-opacity="1"><g transform="translate(105.887862, 294.659135)"><g><path d="M 9.984375 -9.640625 C 9.984375 -10.535156 9.789062 -11.179688 9.40625 -11.578125 C 9.019531 -11.972656 8.453125 -12.171875 7.703125 -12.171875 L 1.46875 -12.171875 L 1.46875 -14.25 L 8.390625 -14.25 C 9.742188 -14.25 10.800781 -13.867188 11.5625 -13.109375 C 12.320312 -12.347656 12.703125 -11.148438 12.703125 -9.515625 L 12.703125 0 L 9.984375 0 Z M 1.390625 -6.890625 L 1.78125 -8.59375 L 4.109375 -8.59375 L 4.109375 0 L 1.390625 0 Z M 1.390625 -6.890625 "/></g></g></g><g fill="#000000" fill-opacity="1"><g transform="translate(120.035057, 294.659135)"><g><path d="M 1.671875 -2.078125 L 6.265625 -2.078125 C 7.429688 -2.078125 8.351562 -2.421875 9.03125 -3.109375 C 9.707031 -3.804688 10.046875 -4.867188 10.046875 -6.296875 L 10.046875 -7.984375 C 10.046875 -9.316406 9.773438 -10.347656 9.234375 -11.078125 C 8.691406 -11.804688 7.878906 -12.171875 6.796875 -12.171875 L 4.515625 -12.171875 L 3.953125 -9.65625 C 3.867188 -9.269531 3.828125 -8.941406 3.828125 -8.671875 C 3.828125 -8.160156 3.96875 -7.765625 4.25 -7.484375 C 4.539062 -7.210938 5.019531 -7.007812 5.6875 -6.875 L 5.203125 -5.125 C 3.878906 -5.207031 2.914062 -5.539062 2.3125 -6.125 C 1.71875 -6.707031 1.421875 -7.515625 1.421875 -8.546875 C 1.421875 -9.035156 1.460938 -9.484375 1.546875 -9.890625 L 2.53125 -14.25 L 7.375 -14.25 C 9.070312 -14.25 10.390625 -13.691406 11.328125 -12.578125 C 12.273438 -11.460938 12.75 -9.898438 12.75 -7.890625 L 12.75 -6.421875 C 12.75 -4.304688 12.207031 -2.707031 11.125 -1.625 C 10.050781 -0.539062 8.617188 0 6.828125 0 L 1.671875 0 Z M 1.671875 -2.078125 "/></g></g></g><g fill="#000000" fill-opacity="1"><g transform="translate(133.928721, 294.659135)"><g><path d="M 15.3125 -10.34375 C 15.351562 -6.78125 14.359375 -4.113281 12.328125 -2.34375 C 10.296875 -0.582031 7.1875 0.28125 3 0.25 L 1.140625 -14.25 L 3.734375 -14.25 L 4.546875 -7.5 C 5.472656 -7.957031 6.101562 -8.554688 6.4375 -9.296875 C 6.78125 -10.046875 6.96875 -11.164062 7 -12.65625 L 7 -14.234375 L 9.578125 -14.234375 L 9.5625 -12.703125 C 9.53125 -10.847656 9.15625 -9.359375 8.4375 -8.234375 C 7.726562 -7.109375 6.515625 -6.195312 4.796875 -5.5 L 5.203125 -2.046875 C 7.753906 -2.222656 9.632812 -2.984375 10.84375 -4.328125 C 12.050781 -5.679688 12.644531 -7.644531 12.625 -10.21875 L 12.578125 -14.25 L 15.296875 -14.25 Z M 15.3125 -10.34375 "/></g></g></g><g fill="#000000" fill-opacity="1"><g transform="translate(149.698523, 294.659135)"><g><path d="M 11.125 0 L 5.8125 -8.09375 L 3.296875 0 L 0.703125 0 L 3.5 -8.71875 L 4.203125 -10.53125 L 1.875 -14.25 L 4.640625 -14.25 L 6.765625 -10.828125 L 8.90625 -7.640625 L 9.53125 -9.84375 L 10.828125 -14.25 L 13.4375 -14.25 L 10.5 -5.28125 L 14.03125 0 Z M 11.125 0 "/></g></g></g><g clip-path="url(#5fe21e63f9)"><path fill="#28292a" d="M 123.660156 86.714844 C 120.660156 90.386719 116.9375 93.347656 113.132812 96.246094 C 102.425781 104.410156 93.082031 114.496094 87.652344 126.945312 C 81.84375 140.253906 83.324219 155.5 84.789062 169.539062 C 85.917969 180.371094 87.21875 192.652344 96.253906 200.078125 C 103.511719 206.042969 113.199219 206.492188 122.070312 207.855469 C 133.320312 209.578125 144.566406 211.335938 155.816406 213.074219 C 172.671875 215.679688 186.203125 215.691406 202.644531 210.722656 C 218.589844 205.902344 242.691406 205.40625 248.582031 185.980469 C 253.027344 171.328125 241.832031 158.011719 239.269531 144.15625 C 237.636719 135.324219 239.308594 125.746094 235.667969 117.320312 C 231.90625 108.621094 224.589844 101.878906 218.726562 94.625 C 210.511719 84.453125 208.121094 72.800781 196.265625 65.628906 C 187.621094 60.398438 177.644531 57.882812 167.839844 55.433594 C 165.34375 54.8125 162.796875 54.332031 160.226562 54.175781 C 155.347656 53.875 147.9375 54.515625 143.496094 56.453125 C 132.835938 61.113281 131.4375 74.742188 125.921875 83.570312 C 125.230469 84.679688 124.472656 85.722656 123.660156 86.714844 " fill-opacity="1" fill-rule="nonzero"/></g><g clip-path="url(#f2844308d2)"><path fill="#28292a" d="M 203.441406 51.855469 C 206.613281 49.742188 210.175781 46.84375 209.777344 43.058594 C 209.496094 40.386719 207.164062 38.289062 204.605469 37.453125 C 202.613281 36.800781 200.5 36.757812 198.394531 36.855469 C 197.847656 36.878906 197.503906 36.292969 197.785156 35.824219 C 198.734375 34.222656 198.355469 31.757812 196.976562 30.328125 C 195.1875 28.480469 192.449219 27.96875 189.886719 27.738281 C 187.617188 27.53125 185.25 27.445312 183.183594 26.546875 C 182.789062 26.378906 182.65625 25.902344 182.886719 25.542969 C 183.894531 24.003906 183.890625 21.851562 182.972656 20.230469 C 181.921875 18.382812 179.859375 17.226562 177.742188 16.984375 C 172.472656 16.375 167.773438 21.078125 166.484375 26.21875 C 163.84375 36.742188 169.675781 50.285156 172.066406 60.476562 C 172.515625 62.394531 173 64.378906 174.234375 65.914062 C 178.679688 71.4375 185.691406 63.699219 189.460938 61.183594 C 194.121094 58.078125 198.78125 54.96875 203.441406 51.855469 " fill-opacity="1" fill-rule="nonzero"/></g><g clip-path="url(#55f5ee9db1)"><path fill="#efefef" d="M 154.222656 111.558594 L 164.871094 196.609375 C 165.132812 198.707031 163.53125 200.632812 161.296875 200.910156 L 36.125 216.582031 C 33.890625 216.863281 31.863281 215.390625 31.601562 213.296875 L 20.953125 128.246094 Z M 154.222656 111.558594 " fill-opacity="1" fill-rule="nonzero"/></g><g clip-path="url(#4140f49b47)"><g mask="url(#a35ae0c9de)"><g transform="matrix(1, 0, 0, 1, 20, 111)"><g clip-path="url(#7504f4873f)"><g clip-path="url(#069150ecbf)"><path fill="#112c59" d="M 134.191406 0.332031 L 144.839844 85.378906 C 145.101562 87.476562 143.5 89.402344 141.265625 89.679688 L 16.09375 105.351562 C 13.859375 105.632812 11.832031 104.160156 11.570312 102.066406 L 0.921875 17.015625 L 134.191406 0.328125 Z M 134.191406 0.332031 " fill-opacity="1" fill-rule="nonzero"/></g></g></g></g></g><g clip-path="url(#d10d7413ca)"><path fill="#efefef" d="M 157.792969 114.875 L 163.867188 205.5 C 164.019531 207.734375 162.328125 209.664062 160.097656 209.8125 L 35.132812 218.1875 C 32.898438 218.335938 30.96875 216.648438 30.816406 214.414062 L 24.746094 123.792969 Z M 157.792969 114.875 " fill-opacity="1" fill-rule="nonzero"/><g mask="url(#44eb22d666)"><g transform="matrix(1, 0, 0, 1, 24, 114)"><g clip-path="url(#38bc694964)"><g clip-path="url(#2e3d047a6e)"><path fill="#112c59" d="M 133.777344 0.628906 L 139.851562 91.253906 C 140.003906 93.488281 138.3125 95.417969 136.082031 95.570312 L 11.117188 103.945312 C 8.886719 104.09375 6.953125 102.40625 6.804688 100.171875 L 0.730469 9.546875 L 133.78125 0.628906 Z M 133.777344 0.628906 " fill-opacity="1" fill-rule="nonzero"/></g></g></g></g></g><g clip-path="url(#8c88705256)"><path fill="#efefef" d="M 166.441406 121.476562 L 166.441406 214.242188 C 166.441406 216.53125 164.589844 218.382812 162.304688 218.382812 L 34.386719 218.382812 C 32.097656 218.382812 30.246094 216.53125 30.246094 214.242188 L 30.246094 121.476562 Z M 166.441406 121.476562 " fill-opacity="1" fill-rule="nonzero"/></g><path fill="#cecece" d="M 37.363281 127.746094 L 159.414062 127.746094 L 159.414062 145.035156 L 37.363281 145.035156 Z M 37.363281 127.746094 " fill-opacity="1" fill-rule="nonzero"/><path fill="#cecece" d="M 37.363281 195.738281 L 121.394531 195.738281 L 121.394531 202.550781 L 37.363281 202.550781 Z M 37.363281 195.738281 " fill-opacity="1" fill-rule="nonzero"/><path fill="#cecece" d="M 125.585938 151.871094 L 159.414062 151.871094 L 159.414062 158.679688 L 125.585938 158.679688 Z M 125.585938 151.871094 " fill-opacity="1" fill-rule="nonzero"/><path fill="#cecece" d="M 125.585938 162.058594 L 159.414062 162.058594 L 159.414062 164.140625 L 125.585938 164.140625 Z M 125.585938 162.058594 " fill-opacity="1" fill-rule="nonzero"/><path fill="#cecece" d="M 125.585938 165.324219 L 159.414062 165.324219 L 159.414062 167.402344 L 125.585938 167.402344 Z M 125.585938 165.324219 " fill-opacity="1" fill-rule="nonzero"/><path fill="#cecece" d="M 125.585938 168.453125 L 159.414062 168.453125 L 159.414062 170.535156 L 125.585938 170.535156 Z M 125.585938 168.453125 " fill-opacity="1" fill-rule="nonzero"/><path fill="#cecece" d="M 37.363281 205.835938 L 62.574219 205.835938 L 62.574219 207.917969 L 37.363281 207.917969 Z M 37.363281 205.835938 " fill-opacity="1" fill-rule="nonzero"/><path fill="#cecece" d="M 37.363281 209.101562 L 62.574219 209.101562 L 62.574219 211.183594 L 37.363281 211.183594 Z M 37.363281 209.101562 " fill-opacity="1" fill-rule="nonzero"/><path fill="#cecece" d="M 37.363281 212.230469 L 62.574219 212.230469 L 62.574219 214.3125 L 37.363281 214.3125 Z M 37.363281 212.230469 " fill-opacity="1" fill-rule="nonzero"/><path fill="#cecece" d="M 66.804688 205.835938 L 92.015625 205.835938 L 92.015625 207.917969 L 66.804688 207.917969 Z M 66.804688 205.835938 " fill-opacity="1" fill-rule="nonzero"/><path fill="#cecece" d="M 66.804688 209.101562 L 92.015625 209.101562 L 92.015625 211.183594 L 66.804688 211.183594 Z M 66.804688 209.101562 " fill-opacity="1" fill-rule="nonzero"/><path fill="#cecece" d="M 66.804688 212.230469 L 92.015625 212.230469 L 92.015625 214.3125 L 66.804688 214.3125 Z M 66.804688 212.230469 " fill-opacity="1" fill-rule="nonzero"/><path fill="#cecece" d="M 96.179688 205.835938 L 121.394531 205.835938 L 121.394531 207.917969 L 96.179688 207.917969 Z M 96.179688 205.835938 " fill-opacity="1" fill-rule="nonzero"/><path fill="#cecece" d="M 96.179688 209.101562 L 121.394531 209.101562 L 121.394531 211.183594 L 96.179688 211.183594 Z M 96.179688 209.101562 " fill-opacity="1" fill-rule="nonzero"/><path fill="#cecece" d="M 96.179688 212.230469 L 121.394531 212.230469 L 121.394531 214.3125 L 96.179688 214.3125 Z M 96.179688 212.230469 " fill-opacity="1" fill-rule="nonzero"/><path fill="#cecece" d="M 125.585938 171.71875 L 159.414062 171.71875 L 159.414062 173.800781 L 125.585938 173.800781 Z M 125.585938 171.71875 " fill-opacity="1" fill-rule="nonzero"/><path fill="#cecece" d="M 125.585938 174.722656 L 159.414062 174.722656 L 159.414062 176.804688 L 125.585938 176.804688 Z M 125.585938 174.722656 " fill-opacity="1" fill-rule="nonzero"/><path fill="#cecece" d="M 125.585938 177.988281 L 159.414062 177.988281 L 159.414062 180.070312 L 125.585938 180.070312 Z M 125.585938 177.988281 " fill-opacity="1" fill-rule="nonzero"/><path fill="#cecece" d="M 125.585938 181.121094 L 159.414062 181.121094 L 159.414062 183.199219 L 125.585938 183.199219 Z M 125.585938 181.121094 " fill-opacity="1" fill-rule="nonzero"/><path fill="#cecece" d="M 125.585938 184.386719 L 159.414062 184.386719 L 159.414062 186.464844 L 125.585938 186.464844 Z M 125.585938 184.386719 " fill-opacity="1" fill-rule="nonzero"/><path fill="#cecece" d="M 125.585938 212.65625 L 159.414062 212.65625 L 159.414062 214.734375 L 125.585938 214.734375 Z M 125.585938 212.65625 " fill-opacity="1" fill-rule="nonzero"/><path fill="#112c59" d="M 37.363281 152.074219 L 121.394531 152.074219 L 121.394531 192.933594 L 37.363281 192.933594 Z M 37.363281 152.074219 " fill-opacity="1" fill-rule="nonzero"/><path fill="#112c59" d="M 125.585938 189.527344 L 159.414062 189.527344 L 159.414062 211.304688 L 125.585938 211.304688 Z M 125.585938 189.527344 " fill-opacity="1" fill-rule="nonzero"/><path fill="#112c59" d="M 37.363281 148.699219 L 159.414062 148.699219 L 159.414062 149.488281 L 37.363281 149.488281 Z M 37.363281 148.699219 " fill-opacity="1" fill-rule="nonzero"/><path fill="#112c59" d="M 122.925781 152 L 123.320312 152 L 123.320312 215.976562 L 122.925781 215.976562 Z M 122.925781 152 " fill-opacity="1" fill-rule="nonzero"/></svg>