<svg xmlns="http://www.w3.org/2000/svg" xmlns:xlink="http://www.w3.org/1999/xlink" width="324" zoomAndPan="magnify" viewBox="0 0 242.87999 270.749989" height="361" preserveAspectRatio="xMidYMid meet" version="1.0"><defs><g/><clipPath id="23489af912"><path d="M 97 21.628906 L 151 21.628906 L 151 51 L 97 51 Z M 97 21.628906 " clip-rule="nonzero"/></clipPath><clipPath id="cf8d0047d2"><path d="M 66 186 L 96 186 L 96 199.964844 L 66 199.964844 Z M 66 186 " clip-rule="nonzero"/></clipPath><clipPath id="3b0368516c"><path d="M 155 186 L 184 186 L 184 199.964844 L 155 199.964844 Z M 155 186 " clip-rule="nonzero"/></clipPath><clipPath id="49d7761f8f"><path d="M 26.773438 53 L 216.347656 53 L 216.347656 198 L 26.773438 198 Z M 26.773438 53 " clip-rule="nonzero"/></clipPath><clipPath id="e4b3e098f4"><path d="M 26.773438 53 L 216.347656 53 L 216.347656 183 L 26.773438 183 Z M 26.773438 53 " clip-rule="nonzero"/></clipPath></defs><path fill="#999999" d="M 99.453125 47.136719 L 105.171875 47.136719 L 105.171875 55.167969 L 99.453125 55.167969 Z M 99.453125 47.136719 " fill-opacity="1" fill-rule="nonzero"/><path fill="#999999" d="M 142.796875 47.136719 L 148.519531 47.136719 L 148.519531 55.167969 L 142.796875 55.167969 Z M 142.796875 47.136719 " fill-opacity="1" fill-rule="nonzero"/><g clip-path="url(#23489af912)"><path fill="#2b6ea5" d="M 150.410156 45.007812 C 150.410156 45.25 150.410156 45.539062 150.359375 45.78125 C 149.972656 48.199219 147.886719 50.039062 145.414062 50.039062 C 142.652344 50.039062 140.375 47.8125 140.375 45.007812 C 140.375 37.652344 133.050781 31.699219 123.984375 31.699219 C 114.917969 31.699219 107.597656 37.699219 107.597656 45.007812 C 107.597656 47.765625 105.367188 50.039062 102.554688 50.039062 C 100.035156 50.039062 97.949219 48.199219 97.609375 45.78125 C 97.5625 45.539062 97.5625 45.296875 97.5625 45.007812 C 97.5625 32.132812 109.441406 21.632812 123.984375 21.632812 C 138.53125 21.632812 150.410156 32.132812 150.410156 45.007812 Z M 150.410156 45.007812 " fill-opacity="1" fill-rule="nonzero"/></g><path fill="#104b87" d="M 150.359375 45.78125 C 149.972656 48.199219 147.886719 50.039062 145.414062 50.039062 C 142.652344 50.039062 140.375 47.8125 140.375 45.007812 C 140.375 37.652344 133.050781 31.699219 123.984375 31.699219 C 114.917969 31.699219 107.597656 37.699219 107.597656 45.007812 C 107.597656 47.765625 105.367188 50.039062 102.554688 50.039062 C 100.035156 50.039062 97.949219 48.199219 97.609375 45.78125 C 98.484375 33.585938 109.972656 23.957031 123.984375 23.957031 C 137.996094 23.957031 149.488281 33.585938 150.359375 45.78125 Z M 150.359375 45.78125 " fill-opacity="1" fill-rule="nonzero"/><path fill="#ffffff" d="M 103.1875 34.941406 C 103.089844 34.941406 102.941406 34.894531 102.847656 34.84375 C 102.507812 34.652344 102.363281 34.214844 102.554688 33.875 C 102.652344 33.683594 105.367188 28.746094 114.433594 25.214844 C 114.820312 25.070312 115.210938 25.261719 115.355469 25.601562 C 115.5 25.988281 115.308594 26.375 114.96875 26.519531 C 106.433594 29.8125 103.863281 34.457031 103.863281 34.503906 C 103.671875 34.84375 103.429688 34.941406 103.1875 34.941406 Z M 103.1875 34.941406 " fill-opacity="1" fill-rule="nonzero"/><path fill="#104b87" d="M 92.277344 60.347656 L 70.410156 60.347656 C 68.519531 60.347656 66.96875 58.800781 66.96875 56.910156 L 66.96875 50.621094 C 66.96875 48.734375 68.519531 47.183594 70.410156 47.183594 L 92.226562 47.183594 C 94.117188 47.183594 95.671875 48.734375 95.671875 50.621094 L 95.671875 56.910156 C 95.71875 58.800781 94.167969 60.347656 92.277344 60.347656 Z M 92.277344 60.347656 " fill-opacity="1" fill-rule="nonzero"/><path fill="#104b87" d="M 180.421875 60.347656 L 158.605469 60.347656 C 156.710938 60.347656 155.160156 58.800781 155.160156 56.910156 L 155.160156 50.621094 C 155.160156 48.734375 156.710938 47.183594 158.605469 47.183594 L 180.421875 47.183594 C 182.3125 47.183594 183.863281 48.734375 183.863281 50.621094 L 183.863281 56.910156 C 183.863281 58.800781 182.3125 60.347656 180.421875 60.347656 Z M 180.421875 60.347656 " fill-opacity="1" fill-rule="nonzero"/><g clip-path="url(#cf8d0047d2)"><path fill="#104b87" d="M 92.277344 199.960938 L 70.410156 199.960938 C 68.519531 199.960938 66.96875 198.414062 66.96875 196.527344 L 66.96875 190.234375 C 66.96875 188.347656 68.519531 186.800781 70.410156 186.800781 L 92.226562 186.800781 C 94.117188 186.800781 95.671875 188.347656 95.671875 190.234375 L 95.671875 196.527344 C 95.71875 198.414062 94.167969 199.960938 92.277344 199.960938 Z M 92.277344 199.960938 " fill-opacity="1" fill-rule="nonzero"/></g><g clip-path="url(#3b0368516c)"><path fill="#104b87" d="M 180.421875 199.960938 L 158.605469 199.960938 C 156.710938 199.960938 155.160156 198.414062 155.160156 196.527344 L 155.160156 190.234375 C 155.160156 188.347656 156.710938 186.800781 158.605469 186.800781 L 180.421875 186.800781 C 182.3125 186.800781 183.863281 188.347656 183.863281 190.234375 L 183.863281 196.527344 C 183.863281 198.414062 182.3125 199.960938 180.421875 199.960938 Z M 180.421875 199.960938 " fill-opacity="1" fill-rule="nonzero"/></g><g clip-path="url(#49d7761f8f)"><path fill="#bc1529" d="M 216.347656 83.964844 L 216.347656 166.8125 C 216.347656 183.460938 202.722656 197.058594 186.046875 197.058594 L 57.078125 197.058594 C 40.398438 197.058594 26.773438 183.460938 26.773438 166.8125 L 26.773438 83.964844 C 26.773438 67.316406 40.398438 53.71875 57.078125 53.71875 L 186.046875 53.71875 C 202.675781 53.71875 216.347656 67.363281 216.347656 83.964844 Z M 216.347656 83.964844 " fill-opacity="1" fill-rule="nonzero"/></g><g clip-path="url(#e4b3e098f4)"><path fill="#da1e2c" d="M 216.347656 83.964844 L 216.347656 152.199219 C 216.347656 168.84375 202.722656 182.445312 186.046875 182.445312 L 57.078125 182.445312 C 40.398438 182.445312 26.773438 168.84375 26.773438 152.199219 L 26.773438 83.964844 C 26.773438 67.316406 40.398438 53.71875 57.078125 53.71875 L 186.046875 53.71875 C 202.675781 53.71875 216.347656 67.363281 216.347656 83.964844 Z M 216.347656 83.964844 " fill-opacity="1" fill-rule="nonzero"/></g><path fill="#ffffff" d="M 151.71875 116.53125 L 132.761719 116.53125 L 132.761719 97.609375 C 132.761719 95.722656 131.210938 94.175781 129.320312 94.175781 L 116.957031 94.175781 C 115.0625 94.175781 113.511719 95.722656 113.511719 97.609375 L 113.511719 116.53125 L 94.554688 116.53125 C 92.664062 116.53125 91.113281 118.082031 91.113281 119.96875 L 91.113281 132.308594 C 91.113281 134.195312 92.664062 135.746094 94.554688 135.746094 L 113.511719 135.746094 L 113.511719 154.667969 C 113.511719 156.554688 115.0625 158.101562 116.957031 158.101562 L 129.320312 158.101562 C 131.210938 158.101562 132.761719 156.554688 132.761719 154.667969 L 132.761719 135.746094 L 151.71875 135.746094 C 153.609375 135.746094 155.160156 134.195312 155.160156 132.308594 L 155.160156 119.96875 C 155.160156 118.082031 153.609375 116.53125 151.71875 116.53125 Z M 151.71875 116.53125 " fill-opacity="1" fill-rule="nonzero"/><g fill="#000000" fill-opacity="1"><g transform="translate(26.797244, 257.682168)"><g><path d="M 10 -9.65625 C 10 -10.550781 9.804688 -11.195312 9.421875 -11.59375 C 9.035156 -11.988281 8.46875 -12.1875 7.71875 -12.1875 L 1.46875 -12.1875 L 1.46875 -14.265625 L 8.40625 -14.265625 C 9.757812 -14.265625 10.816406 -13.882812 11.578125 -13.125 C 12.335938 -12.363281 12.71875 -11.160156 12.71875 -9.515625 L 12.71875 0 L 10 0 Z M 1.390625 -6.90625 L 1.78125 -8.609375 L 4.109375 -8.609375 L 4.109375 0 L 1.390625 0 Z M 1.390625 -6.90625 "/></g></g></g><g fill="#000000" fill-opacity="1"><g transform="translate(40.960842, 257.682168)"><g><path d="M 1.125 -2.078125 L 5.234375 -2.078125 L 5.234375 -10.0625 C 5.234375 -10.78125 5.085938 -11.304688 4.796875 -11.640625 C 4.515625 -11.972656 4.082031 -12.179688 3.5 -12.265625 L 1.78125 -12.515625 L 2.140625 -14.578125 L 4.78125 -14.1875 C 5.789062 -14.039062 6.570312 -13.613281 7.125 -12.90625 C 7.675781 -12.207031 7.953125 -11.273438 7.953125 -10.109375 L 7.953125 0 L 1.125 0 Z M 1.125 -2.078125 "/></g></g></g><g fill="#000000" fill-opacity="1"><g transform="translate(50.454014, 257.682168)"><g><path d="M 1.78125 -11.296875 L 1.46875 -14.265625 L 4.171875 -14.265625 L 4.5 -11.296875 L 4.5 0 L 1.78125 0 Z M 1.78125 -11.296875 "/></g></g></g><g fill="#000000" fill-opacity="1"><g transform="translate(56.545892, 257.682168)"><g><path d="M 15.34375 -10.359375 C 15.375 -6.785156 14.375 -4.113281 12.34375 -2.34375 C 10.3125 -0.570312 7.195312 0.289062 3 0.25 L 1.140625 -14.265625 L 3.734375 -14.265625 L 4.546875 -7.515625 C 5.472656 -7.972656 6.101562 -8.570312 6.4375 -9.3125 C 6.78125 -10.0625 6.972656 -11.179688 7.015625 -12.671875 L 7.015625 -14.25 L 9.59375 -14.25 L 9.578125 -12.71875 C 9.535156 -10.851562 9.160156 -9.359375 8.453125 -8.234375 C 7.742188 -7.109375 6.523438 -6.203125 4.796875 -5.515625 L 5.203125 -2.0625 C 7.765625 -2.226562 9.648438 -2.988281 10.859375 -4.34375 C 12.066406 -5.695312 12.660156 -7.660156 12.640625 -10.234375 L 12.59375 -14.265625 L 15.3125 -14.265625 Z M 15.34375 -10.359375 "/></g></g></g><g fill="#000000" fill-opacity="1"><g transform="translate(72.333876, 257.682168)"><g><path d="M 11.140625 0 L 5.8125 -8.09375 L 3.296875 0 L 0.71875 0 L 3.5 -8.734375 L 4.21875 -10.53125 L 1.875 -14.265625 L 4.640625 -14.265625 L 6.78125 -10.84375 L 8.90625 -7.640625 L 9.546875 -9.859375 L 10.84375 -14.265625 L 13.453125 -14.265625 L 10.515625 -5.28125 L 14.046875 0 Z M 11.140625 0 "/></g></g></g><g fill="#000000" fill-opacity="1"><g transform="translate(87.208194, 257.682168)"><g><path d="M 7.875 -9.65625 C 7.875 -10.550781 7.675781 -11.195312 7.28125 -11.59375 C 6.894531 -11.988281 6.332031 -12.1875 5.59375 -12.1875 L 0.890625 -12.1875 L 0.890625 -14.265625 L 6.265625 -14.265625 C 7.617188 -14.265625 8.675781 -13.882812 9.4375 -13.125 C 10.207031 -12.363281 10.59375 -11.160156 10.59375 -9.515625 L 10.59375 0 L 7.875 0 Z M 7.875 -9.65625 "/></g></g></g><g fill="#000000" fill-opacity="1"><g transform="translate(99.391939, 257.682168)"><g/></g></g><g fill="#000000" fill-opacity="1"><g transform="translate(104.468497, 257.682168)"><g><path d="M 10 -9.65625 C 10 -10.550781 9.804688 -11.195312 9.421875 -11.59375 C 9.035156 -11.988281 8.46875 -12.1875 7.71875 -12.1875 L 1.46875 -12.1875 L 1.46875 -14.265625 L 8.40625 -14.265625 C 9.757812 -14.265625 10.816406 -13.882812 11.578125 -13.125 C 12.335938 -12.363281 12.71875 -11.160156 12.71875 -9.515625 L 12.71875 0 L 10 0 Z M 1.390625 -6.90625 L 1.78125 -8.609375 L 4.109375 -8.609375 L 4.109375 0 L 1.390625 0 Z M 1.390625 -6.90625 "/></g></g></g><g fill="#000000" fill-opacity="1"><g transform="translate(118.632095, 257.682168)"><g><path d="M 7.875 -9.65625 C 7.875 -10.550781 7.675781 -11.195312 7.28125 -11.59375 C 6.894531 -11.988281 6.332031 -12.1875 5.59375 -12.1875 L 0.890625 -12.1875 L 0.890625 -14.265625 L 6.265625 -14.265625 C 7.617188 -14.265625 8.675781 -13.882812 9.4375 -13.125 C 10.207031 -12.363281 10.59375 -11.160156 10.59375 -9.515625 L 10.59375 0 L 7.875 0 Z M 7.875 -9.65625 "/></g></g></g><g fill="#000000" fill-opacity="1"><g transform="translate(130.81584, 257.682168)"><g><path d="M 2.953125 -9.21875 C 2.953125 -10.539062 3.1875 -11.53125 3.65625 -12.1875 L 1.21875 -12.1875 L 1.21875 -14.265625 L 8.125 -14.265625 L 8.125 -12.1875 L 6.140625 -12.1875 C 5.941406 -11.800781 5.8125 -11.363281 5.75 -10.875 C 5.6875 -10.394531 5.65625 -9.84375 5.65625 -9.21875 L 5.65625 0 L 2.953125 0 Z M 2.953125 -9.21875 "/></g></g></g><g fill="#000000" fill-opacity="1"><g transform="translate(140.131323, 257.682168)"><g><path d="M 12.765625 -14.265625 C 12.765625 -10.847656 12.632812 -8.28125 12.375 -6.5625 C 12.113281 -4.84375 11.476562 -3.445312 10.46875 -2.375 C 9.46875 -1.300781 7.847656 -0.546875 5.609375 -0.109375 L 0.84375 0.84375 L 0.453125 -1.296875 L 4.75 -2.140625 L 1.625 -14.265625 L 4.34375 -14.265625 L 7.1875 -2.765625 C 8.101562 -3.171875 8.765625 -3.78125 9.171875 -4.59375 C 9.578125 -5.40625 9.828125 -6.429688 9.921875 -7.671875 C 10.023438 -8.921875 10.078125 -10.789062 10.078125 -13.28125 L 10.078125 -14.265625 Z M 12.765625 -14.265625 "/></g></g></g><g fill="#000000" fill-opacity="1"><g transform="translate(154.117244, 257.682168)"><g/></g></g><g fill="#000000" fill-opacity="1"><g transform="translate(159.193801, 257.682168)"><g><path d="M 0.515625 -1.5 C 1.492188 -1.601562 2.148438 -1.863281 2.484375 -2.28125 C 2.828125 -2.707031 3 -3.394531 3 -4.34375 L 3 -14.265625 L 9.859375 -14.265625 C 11.210938 -14.265625 12.269531 -13.882812 13.03125 -13.125 C 13.789062 -12.363281 14.171875 -11.160156 14.171875 -9.515625 L 14.171875 0 L 11.453125 0 L 11.453125 -9.65625 C 11.453125 -10.550781 11.253906 -11.195312 10.859375 -11.59375 C 10.472656 -11.988281 9.910156 -12.1875 9.171875 -12.1875 L 5.71875 -12.1875 L 5.71875 -4.640625 C 5.71875 -2.972656 5.328125 -1.753906 4.546875 -0.984375 C 3.765625 -0.222656 2.503906 0.238281 0.765625 0.40625 Z M 0.515625 -1.5 "/></g></g></g><g fill="#000000" fill-opacity="1"><g transform="translate(174.880369, 257.682168)"><g><path d="M 0.96875 -2.078125 L 4.625 -2.078125 C 5.820312 -2.078125 6.71875 -2.441406 7.3125 -3.171875 C 7.90625 -3.898438 8.203125 -4.929688 8.203125 -6.265625 L 8.203125 -8 C 8.203125 -9.332031 7.90625 -10.363281 7.3125 -11.09375 C 6.71875 -11.820312 5.820312 -12.1875 4.625 -12.1875 L 0.96875 -12.1875 L 0.96875 -14.265625 L 5.28125 -14.265625 C 7.09375 -14.265625 8.484375 -13.707031 9.453125 -12.59375 C 10.429688 -11.476562 10.921875 -9.90625 10.921875 -7.875 L 10.921875 -6.40625 C 10.921875 -4.375 10.429688 -2.796875 9.453125 -1.671875 C 8.484375 -0.554688 7.09375 0 5.28125 0 L 0.96875 0 Z M 0.96875 -2.078125 "/></g></g></g><g fill="#000000" fill-opacity="1"><g transform="translate(187.013349, 257.682168)"><g><path d="M 7.875 -9.65625 C 7.875 -10.550781 7.675781 -11.195312 7.28125 -11.59375 C 6.894531 -11.988281 6.332031 -12.1875 5.59375 -12.1875 L 0.890625 -12.1875 L 0.890625 -14.265625 L 6.265625 -14.265625 C 7.617188 -14.265625 8.675781 -13.882812 9.4375 -13.125 C 10.207031 -12.363281 10.59375 -11.160156 10.59375 -9.515625 L 10.59375 0 L 7.875 0 Z M 7.875 -9.65625 "/></g></g></g><g fill="#000000" fill-opacity="1"><g transform="translate(199.197094, 257.682168)"><g><path d="M 12.765625 -14.265625 C 12.765625 -10.847656 12.632812 -8.28125 12.375 -6.5625 C 12.113281 -4.84375 11.476562 -3.445312 10.46875 -2.375 C 9.46875 -1.300781 7.847656 -0.546875 5.609375 -0.109375 L 0.84375 0.84375 L 0.453125 -1.296875 L 4.75 -2.140625 L 1.625 -14.265625 L 4.34375 -14.265625 L 7.1875 -2.765625 C 8.101562 -3.171875 8.765625 -3.78125 9.171875 -4.59375 C 9.578125 -5.40625 9.828125 -6.429688 9.921875 -7.671875 C 10.023438 -8.921875 10.078125 -10.789062 10.078125 -13.28125 L 10.078125 -14.265625 Z M 12.765625 -14.265625 "/></g></g></g></svg>