<svg xmlns="http://www.w3.org/2000/svg" xmlns:xlink="http://www.w3.org/1999/xlink" width="361" zoomAndPan="magnify" viewBox="0 0 270.75 307.499996" height="410" preserveAspectRatio="xMidYMid meet" version="1.0"><defs><filter x="0%" y="0%" width="100%" height="100%" id="0f6be9862a"><feColorMatrix values="0 0 0 0 1 0 0 0 0 1 0 0 0 0 1 0 0 0 1 0" color-interpolation-filters="sRGB"/></filter><g/><clipPath id="9e9e88bb91"><path d="M 42.09375 18 L 110.230469 18 L 110.230469 210.957031 L 42.09375 210.957031 Z M 42.09375 18 " clip-rule="nonzero"/></clipPath><clipPath id="9726970940"><path d="M 42.09375 6.542969 L 110.230469 6.542969 L 110.230469 124 L 42.09375 124 Z M 42.09375 6.542969 " clip-rule="nonzero"/></clipPath><clipPath id="d2449027dc"><path d="M 42.09375 67 L 110.230469 67 L 110.230469 184 L 42.09375 184 Z M 42.09375 67 " clip-rule="nonzero"/></clipPath><clipPath id="fcebf7cd29"><path d="M 48 35 L 70 35 L 70 210.957031 L 48 210.957031 Z M 48 35 " clip-rule="nonzero"/></clipPath><mask id="6e7bf6db43"><g filter="url(#0f6be9862a)"><rect x="-27.075" width="324.9" fill="#000000" y="-30.75" height="368.999995" fill-opacity="0.4"/></g></mask><clipPath id="3b02a50875"><path d="M 0.734375 0.222656 L 21 0.222656 L 21 175.957031 L 0.734375 175.957031 Z M 0.734375 0.222656 " clip-rule="nonzero"/></clipPath><clipPath id="f4b9b766c5"><path d="M 20.898438 176.25 L 14.667969 176.25 C 13.765625 176.25 12.867188 176.160156 11.980469 175.984375 C 11.09375 175.808594 10.234375 175.546875 9.398438 175.199219 C 8.5625 174.851562 7.765625 174.429688 7.015625 173.925781 C 6.261719 173.421875 5.566406 172.851562 4.925781 172.210938 C 4.289062 171.574219 3.714844 170.878906 3.214844 170.125 C 2.710938 169.371094 2.285156 168.578125 1.941406 167.742188 C 1.59375 166.90625 1.332031 166.046875 1.15625 165.15625 C 0.980469 164.269531 0.890625 163.375 0.890625 162.46875 L 0.890625 29.230469 C 0.890625 17.125 7.1875 6.492188 16.6875 0.429688 C 16.761719 0.378906 16.828125 0.390625 16.886719 0.460938 C 16.945312 0.527344 16.941406 0.59375 16.878906 0.660156 C 10.839844 6.988281 7.117188 15.65625 7.117188 25.214844 L 7.117188 162.09375 C 7.117188 169.910156 13.289062 176.25 20.898438 176.25 Z M 20.898438 176.25 " clip-rule="nonzero"/></clipPath><clipPath id="29e5c615de"><rect x="0" width="22" y="0" height="176"/></clipPath><clipPath id="f39b146fdf"><path d="M 42.09375 138 L 236.777344 138 L 236.777344 229 L 42.09375 229 Z M 42.09375 138 " clip-rule="nonzero"/></clipPath><clipPath id="287312f908"><path d="M 42.09375 152 L 127 152 L 127 229 L 42.09375 229 Z M 42.09375 152 " clip-rule="nonzero"/></clipPath><clipPath id="351d9604de"><path d="M 179 150 L 236.777344 150 L 236.777344 222 L 179 222 Z M 179 150 " clip-rule="nonzero"/></clipPath><mask id="b9675c189a"><g filter="url(#0f6be9862a)"><rect x="-27.075" width="324.9" fill="#000000" y="-30.75" height="368.999995" fill-opacity="0.5"/></g></mask><clipPath id="9ae4461249"><path d="M 1 1 L 57.777344 1 L 57.777344 71 L 1 71 Z M 1 1 " clip-rule="nonzero"/></clipPath><clipPath id="0eb851cac7"><rect x="0" width="58" y="0" height="72"/></clipPath><clipPath id="2a6a63091b"><path d="M 77 120.457031 L 199 120.457031 L 199 165 L 77 165 Z M 77 120.457031 " clip-rule="nonzero"/></clipPath></defs><g fill="#000000" fill-opacity="1"><g transform="translate(28.143186, 266.205403)"><g><path d="M 11.3125 -14.25 L 11.3125 -12 L 6.5625 0 L 3.859375 0 L 8.59375 -12.171875 L 0.96875 -12.171875 L 0.96875 -18.1875 L 3.421875 -18.1875 L 3.421875 -14.25 Z M 11.3125 -14.25 "/></g></g></g><g fill="#000000" fill-opacity="1"><g transform="translate(40.46494, 266.205403)"><g><path d="M 11.3125 -14.25 L 11.3125 -12 L 6.5625 0 L 3.859375 0 L 8.59375 -12.171875 L 0.96875 -12.171875 L 0.96875 -18.1875 L 3.421875 -18.1875 L 3.421875 -14.25 Z M 11.3125 -14.25 "/></g></g></g><g fill="#000000" fill-opacity="1"><g transform="translate(52.786693, 266.205403)"><g><path d="M 1.78125 -11.28125 L 1.46875 -14.25 L 4.15625 -14.25 L 4.484375 -11.28125 L 4.484375 0 L 1.78125 0 Z M 1.78125 -11.28125 "/></g></g></g><g fill="#000000" fill-opacity="1"><g transform="translate(58.87151, 266.205403)"><g><path d="M 0.96875 -2.078125 L 4.609375 -2.078125 C 5.816406 -2.078125 6.710938 -2.441406 7.296875 -3.171875 C 7.890625 -3.898438 8.1875 -4.929688 8.1875 -6.265625 L 8.1875 -7.984375 C 8.1875 -9.316406 7.890625 -10.347656 7.296875 -11.078125 C 6.710938 -11.804688 5.816406 -12.171875 4.609375 -12.171875 L 0.96875 -12.171875 L 0.96875 -14.25 L 5.28125 -14.25 C 7.082031 -14.25 8.46875 -13.691406 9.4375 -12.578125 C 10.414062 -11.460938 10.90625 -9.890625 10.90625 -7.859375 L 10.90625 -6.390625 C 10.90625 -4.359375 10.414062 -2.785156 9.4375 -1.671875 C 8.46875 -0.554688 7.082031 0 5.28125 0 L 0.96875 0 Z M 0.96875 -2.078125 "/></g></g></g><g fill="#000000" fill-opacity="1"><g transform="translate(70.990426, 266.205403)"><g/></g></g><g fill="#000000" fill-opacity="1"><g transform="translate(76.061103, 266.205403)"><g><path d="M 1.0625 -7.25 L 11.109375 -7.25 L 11.109375 -5.53125 L 1.0625 -5.53125 Z M 1.0625 -7.25 "/></g></g></g><g fill="#000000" fill-opacity="1"><g transform="translate(88.230737, 266.205403)"><g/></g></g><g fill="#000000" fill-opacity="1"><g transform="translate(93.301414, 266.205403)"><g><path d="M 9 -14.25 C 10.351562 -14.25 11.410156 -13.867188 12.171875 -13.109375 C 12.929688 -12.347656 13.3125 -11.148438 13.3125 -9.515625 L 13.3125 0 L 1.640625 0 L 1.640625 -14.25 Z M 10.59375 -2.078125 L 10.59375 -9.640625 C 10.59375 -10.535156 10.398438 -11.179688 10.015625 -11.578125 C 9.628906 -11.972656 9.0625 -12.171875 8.3125 -12.171875 L 4.359375 -12.171875 L 4.359375 -2.078125 Z M 10.59375 -2.078125 "/></g></g></g><g fill="#000000" fill-opacity="1"><g transform="translate(108.133146, 266.205403)"><g><path d="M 1.78125 -11.28125 L 1.46875 -14.25 L 4.15625 -14.25 L 4.484375 -11.28125 L 4.484375 -7.4375 L 4.46875 -5.828125 L 1.78125 -5.328125 Z M 1.78125 -11.28125 "/></g></g></g><g fill="#000000" fill-opacity="1"><g transform="translate(114.217963, 266.205403)"><g><path d="M 14.609375 -7.171875 C 14.609375 -4.804688 14.082031 -2.96875 13.03125 -1.65625 C 11.988281 -0.351562 10.503906 0.296875 8.578125 0.296875 C 7.859375 0.296875 7.128906 0.210938 6.390625 0.046875 L 6.671875 -2.03125 C 7.316406 -1.894531 7.863281 -1.828125 8.3125 -1.828125 C 9.601562 -1.828125 10.539062 -2.273438 11.125 -3.171875 C 11.71875 -4.066406 12.015625 -5.375 12.015625 -7.09375 C 12.015625 -8.9375 11.734375 -10.257812 11.171875 -11.0625 C 10.609375 -11.875 9.800781 -12.28125 8.75 -12.28125 C 7.9375 -12.28125 7.269531 -12.046875 6.75 -11.578125 C 6.238281 -11.109375 5.898438 -10.488281 5.734375 -9.71875 L 4.03125 0 L 1.3125 0 L 3.140625 -9.8125 L 1.171875 -14.25 L 3.984375 -14.25 L 5.125 -11.265625 C 5.476562 -12.328125 6.019531 -13.125 6.75 -13.65625 C 7.476562 -14.1875 8.304688 -14.453125 9.234375 -14.453125 C 10.921875 -14.453125 12.238281 -13.863281 13.1875 -12.6875 C 14.132812 -11.519531 14.609375 -9.679688 14.609375 -7.171875 Z M 14.609375 -7.171875 "/></g></g></g><g fill="#000000" fill-opacity="1"><g transform="translate(129.962423, 266.205403)"><g><path d="M 1.78125 -11.28125 L 1.46875 -14.25 L 4.15625 -14.25 L 4.484375 -11.28125 L 4.484375 0 L 1.78125 0 Z M 1.78125 -11.28125 "/></g></g></g><g fill="#000000" fill-opacity="1"><g transform="translate(136.04724, 266.205403)"><g/></g></g><g fill="#000000" fill-opacity="1"><g transform="translate(141.117917, 266.205403)"><g><path d="M 9 -14.25 C 10.351562 -14.25 11.410156 -13.867188 12.171875 -13.109375 C 12.929688 -12.347656 13.3125 -11.148438 13.3125 -9.515625 L 13.3125 0 L 1.640625 0 L 1.640625 -14.25 Z M 10.59375 -2.078125 L 10.59375 -9.640625 C 10.59375 -10.535156 10.398438 -11.179688 10.015625 -11.578125 C 9.628906 -11.972656 9.0625 -12.171875 8.3125 -12.171875 L 4.359375 -12.171875 L 4.359375 -2.078125 Z M 10.59375 -2.078125 "/></g></g></g><g fill="#000000" fill-opacity="1"><g transform="translate(155.94965, 266.205403)"><g><path d="M 1.78125 -11.28125 L 1.46875 -14.25 L 4.15625 -14.25 L 4.484375 -11.28125 L 4.484375 -7.4375 L 4.46875 -5.828125 L 1.78125 -5.328125 Z M 1.78125 -11.28125 "/></g></g></g><g fill="#000000" fill-opacity="1"><g transform="translate(162.034467, 266.205403)"><g><path d="M 12.65625 -2.078125 L 12.65625 0 L 1.140625 0 L 1.140625 -2.078125 L 8.1875 -2.078125 L 8.1875 -9.640625 C 8.1875 -10.535156 7.992188 -11.179688 7.609375 -11.578125 C 7.222656 -11.972656 6.65625 -12.171875 5.90625 -12.171875 L 1.140625 -12.171875 L 1.140625 -14.25 L 6.59375 -14.25 C 7.945312 -14.25 9.003906 -13.867188 9.765625 -13.109375 C 10.523438 -12.347656 10.90625 -11.148438 10.90625 -9.515625 L 10.90625 -2.078125 Z M 12.65625 -2.078125 "/></g></g></g><g fill="#000000" fill-opacity="1"><g transform="translate(175.573174, 266.205403)"><g><path d="M 11.3125 -14.25 L 11.3125 -12 L 6.5625 0 L 3.859375 0 L 8.59375 -12.171875 L 0.96875 -12.171875 L 0.96875 -18.1875 L 3.421875 -18.1875 L 3.421875 -14.25 Z M 11.3125 -14.25 "/></g></g></g><g fill="#000000" fill-opacity="1"><g transform="translate(187.894927, 266.205403)"><g><path d="M 0.96875 -2.078125 L 4.609375 -2.078125 C 5.816406 -2.078125 6.710938 -2.441406 7.296875 -3.171875 C 7.890625 -3.898438 8.1875 -4.929688 8.1875 -6.265625 L 8.1875 -7.984375 C 8.1875 -9.316406 7.890625 -10.347656 7.296875 -11.078125 C 6.710938 -11.804688 5.816406 -12.171875 4.609375 -12.171875 L 0.96875 -12.171875 L 0.96875 -14.25 L 5.28125 -14.25 C 7.082031 -14.25 8.46875 -13.691406 9.4375 -12.578125 C 10.414062 -11.460938 10.90625 -9.890625 10.90625 -7.859375 L 10.90625 -6.390625 C 10.90625 -4.359375 10.414062 -2.785156 9.4375 -1.671875 C 8.46875 -0.554688 7.082031 0 5.28125 0 L 0.96875 0 Z M 0.96875 -2.078125 "/></g></g></g><g fill="#000000" fill-opacity="1"><g transform="translate(200.013843, 266.205403)"><g/></g></g><g fill="#000000" fill-opacity="1"><g transform="translate(205.08452, 266.205403)"><g><path d="M 1.78125 -11.28125 L 1.46875 -14.25 L 4.15625 -14.25 L 4.484375 -11.28125 L 4.484375 5.078125 L 1.78125 5.078125 Z M 1.78125 -11.28125 "/></g></g></g><g fill="#000000" fill-opacity="1"><g transform="translate(211.169337, 266.205403)"><g><path d="M 1.78125 -11.28125 L 1.46875 -14.25 L 4.15625 -14.25 L 4.484375 -11.28125 L 4.484375 0 L 1.78125 0 Z M 1.78125 -11.28125 "/></g></g></g><g fill="#000000" fill-opacity="1"><g transform="translate(217.254154, 266.205403)"><g><path d="M 2.9375 -9.203125 C 2.9375 -10.523438 3.175781 -11.515625 3.65625 -12.171875 L 1.21875 -12.171875 L 1.21875 -14.25 L 8.109375 -14.25 L 8.109375 -12.171875 L 6.140625 -12.171875 C 5.929688 -11.785156 5.796875 -11.347656 5.734375 -10.859375 C 5.679688 -10.378906 5.65625 -9.828125 5.65625 -9.203125 L 5.65625 0 L 2.9375 0 Z M 2.9375 -9.203125 "/></g></g></g><g fill="#000000" fill-opacity="1"><g transform="translate(226.558852, 266.205403)"><g><path d="M 14.609375 -7.171875 C 14.609375 -4.804688 14.082031 -2.96875 13.03125 -1.65625 C 11.988281 -0.351562 10.503906 0.296875 8.578125 0.296875 C 7.859375 0.296875 7.128906 0.210938 6.390625 0.046875 L 6.671875 -2.03125 C 7.316406 -1.894531 7.863281 -1.828125 8.3125 -1.828125 C 9.601562 -1.828125 10.539062 -2.273438 11.125 -3.171875 C 11.71875 -4.066406 12.015625 -5.375 12.015625 -7.09375 C 12.015625 -8.9375 11.734375 -10.257812 11.171875 -11.0625 C 10.609375 -11.875 9.800781 -12.28125 8.75 -12.28125 C 7.9375 -12.28125 7.269531 -12.046875 6.75 -11.578125 C 6.238281 -11.109375 5.898438 -10.488281 5.734375 -9.71875 L 4.03125 0 L 1.3125 0 L 3.140625 -9.8125 L 1.171875 -14.25 L 3.984375 -14.25 L 5.125 -11.265625 C 5.476562 -12.328125 6.019531 -13.125 6.75 -13.65625 C 7.476562 -14.1875 8.304688 -14.453125 9.234375 -14.453125 C 10.921875 -14.453125 12.238281 -13.863281 13.1875 -12.6875 C 14.132812 -11.519531 14.609375 -9.679688 14.609375 -7.171875 Z M 14.609375 -7.171875 "/></g></g></g><g fill="#000000" fill-opacity="1"><g transform="translate(13.237736, 294.659135)"><g><path d="M 3.34375 0.296875 C 2.851562 0.296875 2.441406 0.128906 2.109375 -0.203125 C 1.785156 -0.535156 1.625 -0.96875 1.625 -1.5 C 1.625 -2.019531 1.785156 -2.453125 2.109375 -2.796875 C 2.441406 -3.148438 2.851562 -3.328125 3.34375 -3.328125 C 3.832031 -3.328125 4.242188 -3.148438 4.578125 -2.796875 C 4.910156 -2.453125 5.078125 -2.019531 5.078125 -1.5 C 5.078125 -0.96875 4.910156 -0.535156 4.578125 -0.203125 C 4.242188 0.128906 3.832031 0.296875 3.34375 0.296875 Z M 3.34375 0.296875 "/></g></g></g><g fill="#000000" fill-opacity="1"><g transform="translate(19.93103, 294.659135)"><g><path d="M 0.5 -1.5 C 1.488281 -1.59375 2.148438 -1.851562 2.484375 -2.28125 C 2.828125 -2.707031 3 -3.394531 3 -4.34375 L 3 -14.25 L 9.84375 -14.25 C 11.195312 -14.25 12.253906 -13.867188 13.015625 -13.109375 C 13.773438 -12.347656 14.15625 -11.148438 14.15625 -9.515625 L 14.15625 0 L 11.4375 0 L 11.4375 -9.640625 C 11.4375 -10.535156 11.238281 -11.179688 10.84375 -11.578125 C 10.457031 -11.972656 9.894531 -12.171875 9.15625 -12.171875 L 5.703125 -12.171875 L 5.703125 -4.640625 C 5.703125 -2.960938 5.3125 -1.742188 4.53125 -0.984375 C 3.757812 -0.222656 2.503906 0.238281 0.765625 0.40625 Z M 0.5 -1.5 "/></g></g></g><g fill="#000000" fill-opacity="1"><g transform="translate(35.599431, 294.659135)"><g><path d="M 1.78125 -11.28125 L 1.46875 -14.25 L 4.15625 -14.25 L 4.484375 -11.28125 L 4.484375 0 L 1.78125 0 Z M 1.78125 -11.28125 "/></g></g></g><g fill="#000000" fill-opacity="1"><g transform="translate(41.684247, 294.659135)"><g><path d="M 12.75 -14.25 C 12.75 -10.832031 12.617188 -8.265625 12.359375 -6.546875 C 12.097656 -4.835938 11.460938 -3.445312 10.453125 -2.375 C 9.453125 -1.300781 7.835938 -0.539062 5.609375 -0.09375 L 0.84375 0.84375 L 0.453125 -1.296875 L 4.75 -2.125 L 1.625 -14.25 L 4.34375 -14.25 L 7.171875 -2.765625 C 8.085938 -3.171875 8.75 -3.78125 9.15625 -4.59375 C 9.5625 -5.40625 9.8125 -6.429688 9.90625 -7.671875 C 10.007812 -8.910156 10.0625 -10.773438 10.0625 -13.265625 L 10.0625 -14.25 Z M 12.75 -14.25 "/></g></g></g><g fill="#000000" fill-opacity="1"><g transform="translate(55.653971, 294.659135)"><g><path d="M 15.3125 -10.34375 C 15.351562 -6.78125 14.359375 -4.113281 12.328125 -2.34375 C 10.296875 -0.582031 7.1875 0.28125 3 0.25 L 1.140625 -14.25 L 3.734375 -14.25 L 4.546875 -7.5 C 5.472656 -7.957031 6.101562 -8.554688 6.4375 -9.296875 C 6.78125 -10.046875 6.96875 -11.164062 7 -12.65625 L 7 -14.234375 L 9.578125 -14.234375 L 9.5625 -12.703125 C 9.53125 -10.847656 9.15625 -9.359375 8.4375 -8.234375 C 7.726562 -7.109375 6.515625 -6.195312 4.796875 -5.5 L 5.203125 -2.046875 C 7.753906 -2.222656 9.632812 -2.984375 10.84375 -4.328125 C 12.050781 -5.679688 12.644531 -7.644531 12.625 -10.21875 L 12.578125 -14.25 L 15.296875 -14.25 Z M 15.3125 -10.34375 "/></g></g></g><g fill="#000000" fill-opacity="1"><g transform="translate(72.18438, 294.659135)"><g/></g></g><g fill="#000000" fill-opacity="1"><g transform="translate(77.258634, 294.659135)"><g><path d="M 4.359375 0 C 4.492188 -2.976562 4.898438 -5.507812 5.578125 -7.59375 C 6.253906 -9.6875 7.367188 -11.8125 8.921875 -13.96875 L 1.109375 -13.96875 L 1.109375 -16.15625 L 11.765625 -16.15625 L 11.765625 -14.578125 C 10.515625 -13.023438 9.5625 -11.539062 8.90625 -10.125 C 8.257812 -8.71875 7.800781 -7.25 7.53125 -5.71875 C 7.257812 -4.1875 7.070312 -2.28125 6.96875 0 Z M 4.359375 0 "/></g></g></g><g fill="#000000" fill-opacity="1"><g transform="translate(90.087451, 294.659135)"><g><path d="M 0.984375 -1.5 C 2.828125 -3.300781 4.242188 -4.738281 5.234375 -5.8125 C 6.222656 -6.894531 7 -7.90625 7.5625 -8.84375 C 8.132812 -9.78125 8.421875 -10.65625 8.421875 -11.46875 C 8.421875 -12.375 8.175781 -13.085938 7.6875 -13.609375 C 7.195312 -14.140625 6.492188 -14.40625 5.578125 -14.40625 C 4.484375 -14.40625 3.394531 -13.785156 2.3125 -12.546875 L 0.859375 -13.96875 C 1.617188 -14.800781 2.390625 -15.421875 3.171875 -15.828125 C 3.960938 -16.242188 4.875 -16.453125 5.90625 -16.453125 C 7.425781 -16.453125 8.640625 -16.007812 9.546875 -15.125 C 10.453125 -14.238281 10.90625 -13.0625 10.90625 -11.59375 C 10.90625 -10.65625 10.644531 -9.695312 10.125 -8.71875 C 9.613281 -7.738281 8.9375 -6.753906 8.09375 -5.765625 C 7.257812 -4.773438 6.132812 -3.53125 4.71875 -2.03125 C 5.863281 -2.132812 6.769531 -2.1875 7.4375 -2.1875 L 11.6875 -2.1875 L 11.6875 0 L 0.984375 0 Z M 0.984375 -1.5 "/></g></g></g><g fill="#000000" fill-opacity="1"><g transform="translate(102.927831, 294.659135)"><g><path d="M 1.0625 -7.328125 L 7 -7.328125 L 7 -5.421875 L 1.0625 -5.421875 Z M 1.0625 -7.328125 "/></g></g></g><g fill="#000000" fill-opacity="1"><g transform="translate(110.964857, 294.659135)"><g><path d="M 11.3125 -14.25 L 11.3125 -12 L 6.5625 0 L 3.859375 0 L 8.59375 -12.171875 L 0.96875 -12.171875 L 0.96875 -18.1875 L 3.421875 -18.1875 L 3.421875 -14.25 Z M 11.3125 -14.25 "/></g></g></g><g fill="#000000" fill-opacity="1"><g transform="translate(123.28661, 294.659135)"><g/></g></g><g fill="#000000" fill-opacity="1"><g transform="translate(128.357287, 294.659135)"><g><path d="M 9.984375 -9.640625 C 9.984375 -10.535156 9.789062 -11.179688 9.40625 -11.578125 C 9.019531 -11.972656 8.453125 -12.171875 7.703125 -12.171875 L 1.46875 -12.171875 L 1.46875 -14.25 L 8.390625 -14.25 C 9.742188 -14.25 10.800781 -13.867188 11.5625 -13.109375 C 12.320312 -12.347656 12.703125 -11.148438 12.703125 -9.515625 L 12.703125 0 L 9.984375 0 Z M 1.390625 -6.890625 L 1.78125 -8.59375 L 4.109375 -8.59375 L 4.109375 0 L 1.390625 0 Z M 1.390625 -6.890625 "/></g></g></g><g fill="#000000" fill-opacity="1"><g transform="translate(142.504483, 294.659135)"><g><path d="M 11.3125 -14.25 L 11.3125 -12 L 6.5625 0 L 3.859375 0 L 8.59375 -12.171875 L 0.96875 -12.171875 L 0.96875 -18.1875 L 3.421875 -18.1875 L 3.421875 -14.25 Z M 11.3125 -14.25 "/></g></g></g><g fill="#000000" fill-opacity="1"><g transform="translate(154.826236, 294.659135)"><g><path d="M 0.96875 -2.078125 L 4.609375 -2.078125 C 5.816406 -2.078125 6.710938 -2.441406 7.296875 -3.171875 C 7.890625 -3.898438 8.1875 -4.929688 8.1875 -6.265625 L 8.1875 -7.984375 C 8.1875 -9.316406 7.890625 -10.347656 7.296875 -11.078125 C 6.710938 -11.804688 5.816406 -12.171875 4.609375 -12.171875 L 0.96875 -12.171875 L 0.96875 -14.25 L 5.28125 -14.25 C 7.082031 -14.25 8.46875 -13.691406 9.4375 -12.578125 C 10.414062 -11.460938 10.90625 -9.890625 10.90625 -7.859375 L 10.90625 -6.390625 C 10.90625 -4.359375 10.414062 -2.785156 9.4375 -1.671875 C 8.46875 -0.554688 7.082031 0 5.28125 0 L 0.96875 0 Z M 0.96875 -2.078125 "/></g></g></g><g fill="#000000" fill-opacity="1"><g transform="translate(166.945152, 294.659135)"><g><path d="M 11.125 0 L 5.8125 -8.09375 L 3.296875 0 L 0.703125 0 L 3.5 -8.71875 L 4.203125 -10.53125 L 1.875 -14.25 L 4.640625 -14.25 L 6.765625 -10.828125 L 8.90625 -7.640625 L 9.53125 -9.84375 L 10.828125 -14.25 L 13.4375 -14.25 L 10.5 -5.28125 L 14.03125 0 Z M 11.125 0 "/></g></g></g><g fill="#000000" fill-opacity="1"><g transform="translate(181.802238, 294.659135)"><g><path d="M 9.984375 -9.640625 C 9.984375 -10.535156 9.789062 -11.179688 9.40625 -11.578125 C 9.019531 -11.972656 8.453125 -12.171875 7.703125 -12.171875 L 1.46875 -12.171875 L 1.46875 -14.25 L 8.390625 -14.25 C 9.742188 -14.25 10.800781 -13.867188 11.5625 -13.109375 C 12.320312 -12.347656 12.703125 -11.148438 12.703125 -9.515625 L 12.703125 0 L 9.984375 0 Z M 1.390625 -6.890625 L 1.78125 -8.59375 L 4.109375 -8.59375 L 4.109375 0 L 1.390625 0 Z M 1.390625 -6.890625 "/></g></g></g><g fill="#000000" fill-opacity="1"><g transform="translate(195.949434, 294.659135)"><g/></g></g><g fill="#000000" fill-opacity="1"><g transform="translate(201.020111, 294.659135)"><g><path d="M 0.5 -1.5 C 1.488281 -1.59375 2.148438 -1.851562 2.484375 -2.28125 C 2.828125 -2.707031 3 -3.394531 3 -4.34375 L 3 -14.25 L 9.84375 -14.25 C 11.195312 -14.25 12.253906 -13.867188 13.015625 -13.109375 C 13.773438 -12.347656 14.15625 -11.148438 14.15625 -9.515625 L 14.15625 0 L 11.4375 0 L 11.4375 -9.640625 C 11.4375 -10.535156 11.238281 -11.179688 10.84375 -11.578125 C 10.457031 -11.972656 9.894531 -12.171875 9.15625 -12.171875 L 5.703125 -12.171875 L 5.703125 -4.640625 C 5.703125 -2.960938 5.3125 -1.742188 4.53125 -0.984375 C 3.757812 -0.222656 2.503906 0.238281 0.765625 0.40625 Z M 0.5 -1.5 "/></g></g></g><g fill="#000000" fill-opacity="1"><g transform="translate(216.688511, 294.659135)"><g><path d="M 7.859375 -9.640625 C 7.859375 -10.535156 7.660156 -11.179688 7.265625 -11.578125 C 6.878906 -11.972656 6.316406 -12.171875 5.578125 -12.171875 L 0.890625 -12.171875 L 0.890625 -14.25 L 6.265625 -14.25 C 7.617188 -14.25 8.675781 -13.867188 9.4375 -13.109375 C 10.195312 -12.347656 10.578125 -11.148438 10.578125 -9.515625 L 10.578125 0 L 7.859375 0 Z M 7.859375 -9.640625 "/></g></g></g><g fill="#000000" fill-opacity="1"><g transform="translate(228.858145, 294.659135)"><g><path d="M 12.75 -14.25 C 12.75 -10.832031 12.617188 -8.265625 12.359375 -6.546875 C 12.097656 -4.835938 11.460938 -3.445312 10.453125 -2.375 C 9.453125 -1.300781 7.835938 -0.539062 5.609375 -0.09375 L 0.84375 0.84375 L 0.453125 -1.296875 L 4.75 -2.125 L 1.625 -14.25 L 4.34375 -14.25 L 7.171875 -2.765625 C 8.085938 -3.171875 8.75 -3.78125 9.15625 -4.59375 C 9.5625 -5.40625 9.8125 -6.429688 9.90625 -7.671875 C 10.007812 -8.910156 10.0625 -10.773438 10.0625 -13.265625 L 10.0625 -14.25 Z M 12.75 -14.25 "/></g></g></g><g fill="#000000" fill-opacity="1"><g transform="translate(242.827869, 294.659135)"><g><path d="M 5.859375 -2.078125 C 6.679688 -2.160156 7.375 -2.359375 7.9375 -2.671875 C 8.507812 -2.984375 8.96875 -3.503906 9.3125 -4.234375 C 9.664062 -4.972656 9.882812 -5.988281 9.96875 -7.28125 L 10.34375 -12.171875 L 1.375 -12.171875 L 1.375 -14.25 L 13.265625 -14.25 L 13.15625 -12.421875 L 12.8125 -7.90625 C 12.6875 -5.425781 12.066406 -3.5 10.953125 -2.125 C 9.835938 -0.757812 8.222656 -0.0390625 6.109375 0.03125 Z M 1.3125 -7.15625 L 1.703125 -8.875 L 4.03125 -8.875 L 4.03125 5.078125 L 1.3125 5.078125 Z M 1.3125 -7.15625 "/></g></g></g><g clip-path="url(#9e9e88bb91)"><path fill="#b6eaff" d="M 109 68.003906 L 109 70.640625 C 109.003906 70.835938 109.074219 71 109.214844 71.132812 C 109.351562 71.265625 109.519531 71.332031 109.710938 71.328125 C 109.847656 71.332031 109.972656 71.371094 110.085938 71.445312 C 110.125 71.472656 110.160156 71.5 110.195312 71.535156 C 110.332031 71.671875 110.402344 71.835938 110.398438 72.03125 L 110.398438 140.460938 C 110.398438 140.652344 110.332031 140.816406 110.195312 140.953125 C 110.058594 141.089844 109.894531 141.160156 109.699219 141.160156 C 109.507812 141.160156 109.34375 141.226562 109.207031 141.363281 C 109.070312 141.5 109 141.664062 109 141.859375 L 109 144.480469 C 109 144.675781 109.066406 144.839844 109.203125 144.976562 C 109.339844 145.113281 109.507812 145.183594 109.699219 145.183594 C 109.894531 145.183594 110.058594 145.25 110.195312 145.386719 C 110.332031 145.523438 110.398438 145.6875 110.398438 145.882812 L 110.398438 159.511719 C 110.398438 159.703125 110.332031 159.871094 110.195312 160.003906 C 110.058594 160.140625 109.894531 160.210938 109.699219 160.210938 C 109.507812 160.210938 109.339844 160.277344 109.203125 160.414062 C 109.066406 160.550781 109 160.71875 109 160.910156 L 109 163.535156 C 109 163.726562 109.066406 163.894531 109.207031 164.027344 C 109.34375 164.164062 109.507812 164.234375 109.699219 164.234375 C 109.894531 164.234375 110.058594 164.304688 110.195312 164.4375 C 110.332031 164.574219 110.398438 164.742188 110.398438 164.933594 L 110.398438 178.5625 C 110.398438 178.757812 110.332031 178.921875 110.195312 179.058594 C 110.058594 179.195312 109.894531 179.265625 109.699219 179.265625 C 109.507812 179.265625 109.34375 179.332031 109.207031 179.46875 C 109.070312 179.605469 109 179.769531 109 179.960938 L 109 182.585938 C 109 182.78125 109.066406 182.945312 109.203125 183.082031 C 109.339844 183.21875 109.507812 183.289062 109.699219 183.289062 C 109.894531 183.289062 110.058594 183.355469 110.195312 183.492188 C 110.332031 183.628906 110.398438 183.792969 110.398438 183.988281 L 110.398438 197.476562 C 110.398438 198.382812 110.3125 199.277344 110.136719 200.164062 C 109.957031 201.050781 109.695312 201.914062 109.351562 202.75 C 109.003906 203.585938 108.582031 204.378906 108.078125 205.132812 C 107.574219 205.886719 107.003906 206.582031 106.363281 207.222656 C 105.722656 207.859375 105.027344 208.433594 104.277344 208.933594 C 103.523438 209.4375 102.730469 209.863281 101.894531 210.207031 C 101.058594 210.554688 100.195312 210.816406 99.308594 210.992188 C 98.421875 211.167969 97.523438 211.257812 96.621094 211.257812 L 55.882812 211.257812 C 54.976562 211.257812 54.082031 211.167969 53.195312 210.992188 C 52.308594 210.816406 51.445312 210.554688 50.609375 210.207031 C 49.773438 209.863281 48.980469 209.4375 48.226562 208.933594 C 47.476562 208.433594 46.777344 207.859375 46.140625 207.222656 C 45.5 206.582031 44.929688 205.886719 44.425781 205.132812 C 43.921875 204.378906 43.5 203.585938 43.152344 202.75 C 42.804688 201.914062 42.546875 201.054688 42.367188 200.164062 C 42.191406 199.277344 42.105469 198.382812 42.105469 197.476562 L 42.105469 183.980469 C 42.105469 183.785156 42.171875 183.621094 42.308594 183.484375 C 42.445312 183.347656 42.609375 183.28125 42.804688 183.28125 C 42.996094 183.28125 43.160156 183.210938 43.296875 183.074219 C 43.433594 182.9375 43.503906 182.773438 43.503906 182.582031 L 43.503906 179.957031 C 43.503906 179.761719 43.433594 179.597656 43.296875 179.460938 C 43.160156 179.324219 42.996094 179.257812 42.804688 179.257812 C 42.609375 179.253906 42.445312 179.1875 42.308594 179.050781 C 42.171875 178.914062 42.105469 178.75 42.105469 178.554688 L 42.105469 164.925781 C 42.105469 164.734375 42.171875 164.566406 42.308594 164.429688 C 42.445312 164.292969 42.609375 164.226562 42.804688 164.226562 C 42.996094 164.226562 43.160156 164.15625 43.296875 164.019531 C 43.433594 163.882812 43.503906 163.71875 43.503906 163.527344 L 43.503906 160.902344 C 43.503906 160.710938 43.4375 160.546875 43.300781 160.410156 C 43.164062 160.273438 42.996094 160.203125 42.804688 160.203125 C 42.609375 160.203125 42.445312 160.132812 42.308594 159.996094 C 42.171875 159.859375 42.105469 159.695312 42.105469 159.503906 L 42.105469 145.875 C 42.105469 145.679688 42.171875 145.515625 42.308594 145.378906 C 42.445312 145.242188 42.609375 145.175781 42.804688 145.175781 C 42.996094 145.175781 43.160156 145.105469 43.296875 144.96875 C 43.433594 144.832031 43.503906 144.667969 43.503906 144.476562 L 43.503906 141.851562 C 43.503906 141.660156 43.433594 141.496094 43.296875 141.359375 C 43.160156 141.222656 42.996094 141.152344 42.804688 141.152344 C 42.609375 141.152344 42.445312 141.085938 42.308594 140.949219 C 42.171875 140.8125 42.105469 140.644531 42.105469 140.453125 L 42.105469 72.023438 C 42.105469 71.832031 42.171875 71.667969 42.308594 71.53125 C 42.445312 71.394531 42.609375 71.328125 42.804688 71.328125 C 42.996094 71.324219 43.160156 71.257812 43.296875 71.121094 C 43.433594 70.984375 43.503906 70.820312 43.503906 70.625 L 43.503906 67.992188 C 43.5 67.796875 43.429688 67.632812 43.289062 67.5 C 43.152344 67.367188 42.984375 67.300781 42.792969 67.304688 C 42.65625 67.300781 42.53125 67.261719 42.417969 67.1875 C 42.378906 67.160156 42.34375 67.132812 42.308594 67.097656 C 42.171875 66.960938 42.105469 66.796875 42.105469 66.601562 L 42.105469 64.230469 C 42.105469 51.480469 49.09375 40.363281 59.449219 34.5 C 59.894531 34.246094 60.296875 33.9375 60.65625 33.578125 C 61.019531 33.21875 61.328125 32.816406 61.582031 32.375 C 61.835938 31.933594 62.03125 31.46875 62.160156 30.972656 C 62.292969 30.480469 62.355469 29.980469 62.355469 29.46875 L 62.355469 18.339844 L 90.152344 18.339844 L 90.152344 29.46875 C 90.152344 29.980469 90.214844 30.480469 90.347656 30.972656 C 90.480469 31.46875 90.671875 31.933594 90.925781 32.375 C 91.183594 32.816406 91.492188 33.21875 91.851562 33.578125 C 92.214844 33.9375 92.617188 34.246094 93.058594 34.5 C 103.414062 40.363281 110.40625 51.480469 110.40625 64.230469 L 110.40625 66.601562 C 110.40625 66.851562 110.300781 67.046875 110.089844 67.1875 C 109.972656 67.265625 109.84375 67.300781 109.703125 67.300781 C 109.511719 67.300781 109.347656 67.371094 109.210938 67.507812 C 109.074219 67.644531 109.003906 67.808594 109.003906 68 Z M 109 68.003906 " fill-opacity="1" fill-rule="nonzero"/></g><g clip-path="url(#9726970940)"><path fill="#112c59" d="M 90.550781 26.25 L 61.953125 26.25 C 61.65625 26.25 61.371094 26.191406 61.097656 26.078125 C 60.824219 25.964844 60.582031 25.804688 60.371094 25.59375 C 60.164062 25.386719 60 25.144531 59.886719 24.871094 C 59.773438 24.597656 59.71875 24.3125 59.71875 24.015625 L 59.71875 8.773438 C 59.71875 8.476562 59.773438 8.191406 59.886719 7.917969 C 60 7.644531 60.164062 7.402344 60.371094 7.195312 C 60.582031 6.984375 60.824219 6.824219 61.097656 6.710938 C 61.371094 6.59375 61.65625 6.539062 61.953125 6.539062 L 90.550781 6.539062 C 90.847656 6.539062 91.132812 6.59375 91.40625 6.710938 C 91.679688 6.824219 91.921875 6.984375 92.132812 7.195312 C 92.339844 7.402344 92.503906 7.644531 92.617188 7.917969 C 92.730469 8.191406 92.785156 8.476562 92.785156 8.773438 L 92.785156 24.015625 C 92.785156 24.3125 92.730469 24.597656 92.617188 24.871094 C 92.503906 25.144531 92.339844 25.386719 92.132812 25.59375 C 91.921875 25.804688 91.679688 25.964844 91.40625 26.078125 C 91.132812 26.191406 90.847656 26.25 90.550781 26.25 Z M 110.398438 80.578125 L 42.105469 80.578125 L 42.105469 123.324219 L 110.398438 123.324219 Z M 110.398438 80.578125 " fill-opacity="1" fill-rule="nonzero"/></g><g clip-path="url(#d2449027dc)"><path fill="#7cc7ed" d="M 109.699219 71.328125 C 109.839844 71.324219 109.96875 71.363281 110.085938 71.441406 L 42.417969 71.441406 C 42.535156 71.363281 42.664062 71.324219 42.804688 71.328125 C 42.996094 71.324219 43.160156 71.257812 43.296875 71.121094 C 43.433594 70.984375 43.503906 70.820312 43.503906 70.625 L 43.503906 68.003906 C 43.503906 67.8125 43.433594 67.648438 43.296875 67.511719 C 43.160156 67.375 42.996094 67.304688 42.804688 67.304688 C 42.664062 67.308594 42.535156 67.269531 42.417969 67.191406 L 110.085938 67.191406 C 109.96875 67.269531 109.839844 67.308594 109.699219 67.304688 C 109.507812 67.304688 109.34375 67.375 109.207031 67.511719 C 109.070312 67.648438 109 67.8125 109 68.003906 L 109 70.628906 C 109 70.820312 109.070312 70.988281 109.207031 71.121094 C 109.34375 71.257812 109.507812 71.328125 109.699219 71.328125 Z M 109 144.476562 L 109 141.851562 C 109 141.660156 109.070312 141.496094 109.207031 141.359375 C 109.34375 141.222656 109.507812 141.152344 109.699219 141.152344 L 42.804688 141.152344 C 42.996094 141.152344 43.160156 141.222656 43.296875 141.359375 C 43.433594 141.496094 43.503906 141.660156 43.503906 141.851562 L 43.503906 144.476562 C 43.503906 144.667969 43.433594 144.835938 43.296875 144.96875 C 43.160156 145.105469 42.996094 145.175781 42.804688 145.175781 L 109.699219 145.175781 C 109.507812 145.175781 109.34375 145.109375 109.207031 144.972656 C 109.070312 144.835938 109 144.671875 109 144.476562 Z M 109 163.53125 L 109 160.90625 C 109 160.710938 109.066406 160.546875 109.203125 160.410156 C 109.339844 160.273438 109.507812 160.207031 109.699219 160.207031 L 42.804688 160.207031 C 42.996094 160.207031 43.164062 160.273438 43.300781 160.410156 C 43.4375 160.546875 43.503906 160.710938 43.503906 160.90625 L 43.503906 163.53125 C 43.503906 163.722656 43.433594 163.886719 43.296875 164.023438 C 43.160156 164.160156 42.996094 164.226562 42.804688 164.230469 L 109.699219 164.230469 C 109.507812 164.230469 109.34375 164.160156 109.207031 164.023438 C 109.066406 163.886719 109 163.722656 109 163.53125 Z M 109 182.582031 L 109 179.957031 C 109 179.761719 109.070312 179.597656 109.207031 179.460938 C 109.34375 179.324219 109.507812 179.257812 109.699219 179.257812 L 42.804688 179.257812 C 42.996094 179.257812 43.160156 179.324219 43.296875 179.460938 C 43.433594 179.597656 43.503906 179.761719 43.503906 179.957031 L 43.503906 182.582031 C 43.503906 182.773438 43.433594 182.9375 43.296875 183.074219 C 43.160156 183.210938 42.996094 183.28125 42.804688 183.28125 L 109.699219 183.28125 C 109.507812 183.28125 109.339844 183.210938 109.203125 183.074219 C 109.066406 182.9375 109 182.773438 109 182.582031 Z M 109 182.582031 " fill-opacity="1" fill-rule="nonzero"/></g><g clip-path="url(#fcebf7cd29)"><g mask="url(#6e7bf6db43)"><g transform="matrix(1, 0, 0, 1, 48, 35)"><g clip-path="url(#29e5c615de)"><g clip-path="url(#3b02a50875)"><g clip-path="url(#f4b9b766c5)"><path fill="#ffffff" d="M 0.890625 0.378906 L 0.890625 175.957031 L 20.898438 175.957031 L 20.898438 0.378906 Z M 0.890625 0.378906 " fill-opacity="1" fill-rule="nonzero"/></g></g></g></g></g></g><g clip-path="url(#f39b146fdf)"><path fill="#ffa5bf" d="M 209.917969 151.144531 C 200.5 147.105469 184.066406 142.324219 170.164062 140.648438 C 149.527344 138.164062 137.015625 137.652344 119.96875 138.839844 C 102.925781 140.03125 85.144531 142.324219 72.199219 147.363281 C 67.628906 149.140625 65.289062 150.488281 63.636719 152.328125 C 63.304688 152.699219 63 153.089844 62.714844 153.511719 C 61.496094 155.285156 60.550781 157.558594 58.933594 160.90625 C 55.035156 168.984375 42.125 204.507812 42.640625 207.089844 C 43.152344 209.660156 78.328125 225.855469 126.386719 228.492188 C 126.554688 228.5 126.730469 228.511719 126.902344 228.519531 C 162.898438 230.414062 189.480469 225.710938 206.710938 220.78125 C 212.605469 219.09375 217.40625 217.382812 221.117188 215.898438 C 235.652344 210.082031 236.210938 207.835938 236.671875 206.164062 C 237.113281 204.574219 222.683594 164.558594 217.921875 156.414062 C 217.671875 155.980469 217.445312 155.640625 217.253906 155.398438 C 216.347656 154.265625 213.695312 152.765625 209.917969 151.144531 Z M 209.917969 151.144531 " fill-opacity="1" fill-rule="evenodd"/></g><g clip-path="url(#287312f908)"><path fill="#d67792" d="M 63.640625 152.328125 C 63.308594 152.703125 63.003906 153.09375 62.71875 153.515625 C 61.5 155.289062 60.554688 157.5625 58.9375 160.910156 C 55.035156 168.984375 42.125 204.507812 42.640625 207.089844 C 43.152344 209.660156 78.328125 225.855469 126.386719 228.492188 C 95.613281 223.476562 67.324219 210.320312 67.855469 202.894531 C 68.429688 194.867188 81.742188 161.066406 81.742188 161.066406 C 74.097656 160.109375 68.078125 156.265625 63.636719 152.328125 Z M 63.640625 152.328125 " fill-opacity="1" fill-rule="evenodd"/></g><g clip-path="url(#351d9604de)"><g mask="url(#b9675c189a)"><g transform="matrix(1, 0, 0, 1, 179, 150)"><g clip-path="url(#0eb851cac7)"><g clip-path="url(#9ae4461249)"><path fill="#f7b7d2" d="M 30.917969 1.144531 C 16.71875 6.015625 1.070312 11.550781 1.070312 11.550781 C 1.070312 11.550781 12.082031 11.933594 15.851562 22.671875 C 19.382812 32.710938 24.4375 56.121094 27.710938 70.78125 C 33.605469 69.09375 38.40625 67.382812 42.117188 65.898438 C 56.652344 60.082031 57.210938 57.835938 57.671875 56.164062 C 58.113281 54.574219 43.683594 14.558594 38.921875 6.414062 C 38.671875 5.980469 38.445312 5.640625 38.253906 5.398438 C 37.347656 4.265625 34.695312 2.765625 30.917969 1.144531 Z M 30.917969 1.144531 " fill-opacity="1" fill-rule="evenodd"/></g></g></g></g></g><path fill="#f7b7d2" d="M 62.714844 153.515625 C 63.765625 156.398438 68.769531 160.132812 83.367188 164.238281 C 116.25 173.492188 178.253906 170.050781 199.347656 164.640625 C 209.507812 162.035156 215.242188 159.132812 217.925781 156.414062 C 217.675781 155.980469 217.449219 155.640625 217.257812 155.398438 C 214.089844 151.441406 189.648438 142.996094 170.167969 140.648438 C 149.53125 138.164062 137.019531 137.652344 119.972656 138.839844 C 102.929688 140.03125 85.148438 142.324219 72.203125 147.363281 C 66.710938 149.5 64.441406 151.007812 62.71875 153.511719 Z M 62.714844 153.515625 " fill-opacity="1" fill-rule="evenodd"/><path fill="#d67792" d="M 77.964844 156.992188 C 75.046875 155.941406 72.878906 154.820312 71.605469 153.65625 C 70.6875 152.816406 74.226562 150.761719 81.644531 148.6875 C 85.226562 147.683594 89.703125 146.679688 95.023438 145.796875 C 113.21875 142.789062 132.855469 140.78125 157.34375 142.765625 C 171.800781 143.9375 183.628906 146.535156 192.140625 148.949219 C 196.792969 150.269531 200.460938 151.53125 203.023438 152.476562 C 210.28125 155.15625 210.027344 156.058594 200.132812 159.242188 C 199.714844 159.375 199.273438 159.507812 198.796875 159.636719 C 187.488281 162.738281 158.703125 165.296875 138.960938 164.882812 C 113.417969 164.34375 89.679688 161.214844 77.960938 156.992188 Z M 77.964844 156.992188 " fill-opacity="1" fill-rule="evenodd"/><g clip-path="url(#2a6a63091b)"><path fill="#623029" d="M 81.644531 148.6875 C 82.085938 148.21875 82.574219 147.765625 83.121094 147.332031 C 88.730469 142.875 95.839844 144.242188 95.839844 144.242188 C 95.839844 144.242188 93.554688 139.132812 97.738281 135.121094 C 101.921875 131.109375 106.402344 130.265625 110.046875 131.289062 C 110.046875 131.289062 111.785156 125.609375 117.683594 124.25 C 123.582031 122.890625 126.847656 124.53125 129.292969 125.816406 C 129.292969 125.816406 133.542969 120.46875 140.34375 120.574219 C 147.148438 120.679688 153.492188 124.699219 152.265625 129.867188 C 152.265625 129.867188 158.175781 126.957031 165.117188 129.046875 C 172.054688 131.136719 172.703125 136.664062 172.703125 136.664062 C 172.703125 136.664062 179.238281 134.878906 183.625 138.050781 C 187.828125 141.089844 187.347656 144.40625 186.304688 146.847656 C 186.304688 146.847656 188.289062 146.894531 192.140625 148.945312 C 193.1875 149.503906 194.285156 150.230469 195.378906 151.167969 C 198.621094 153.949219 199.304688 156.992188 198.796875 159.632812 C 187.488281 162.734375 158.703125 165.292969 138.960938 164.878906 C 113.417969 164.339844 89.679688 161.210938 77.960938 156.988281 C 78.132812 155.113281 78.851562 151.652344 81.644531 148.683594 Z M 81.644531 148.6875 " fill-opacity="1" fill-rule="evenodd"/></g><path fill="#623029" d="M 133.371094 147.621094 C 133.988281 149.683594 135.660156 150.917969 137.71875 151.453125 C 140.980469 152.308594 145.199219 151.445312 148.09375 149.195312 C 150.855469 147.042969 152.832031 143.601562 153.375 140.527344 C 153.710938 138.617188 153.507812 136.847656 152.472656 135.699219 C 149.773438 132.691406 145.410156 131.992188 140.359375 135.09375 C 137.246094 137.007812 134.976562 139.964844 133.890625 142.777344 C 133.195312 144.566406 132.976562 146.292969 133.371094 147.621094 Z M 119.1875 139.796875 C 116.832031 139.160156 113.902344 139.203125 111.453125 139.972656 C 109.886719 140.464844 108.515625 141.253906 107.65625 142.378906 C 106.664062 143.6875 105.855469 145.441406 106.496094 147.386719 C 107.179688 149.460938 109.429688 151.664062 114.402344 153.820312 C 117.917969 155.347656 120.671875 155.550781 122.757812 154.988281 C 125.726562 154.183594 127.253906 151.808594 127.554688 149.796875 C 128.070312 146.316406 126.324219 141.722656 119.1875 139.796875 Z M 88.726562 159.90625 C 90.316406 155.527344 93.21875 151.957031 97.8125 152.464844 C 100.71875 152.789062 102.707031 154.464844 104.03125 156.378906 C 105.957031 159.152344 106.46875 162.414062 106.46875 162.414062 C 106.484375 162.519531 106.476562 162.617188 106.453125 162.714844 C 105.980469 162.660156 105.511719 162.605469 105.046875 162.546875 C 104.953125 162.03125 104.421875 159.441406 102.859375 157.195312 C 101.746094 155.59375 100.09375 154.160156 97.65625 153.890625 C 95.519531 153.652344 93.84375 154.515625 92.554688 155.957031 C 91.53125 157.097656 90.742188 158.585938 90.140625 160.199219 C 89.664062 160.105469 89.191406 160.011719 88.730469 159.910156 Z M 146.601562 164.90625 C 146.546875 164.5 146.507812 164.066406 146.492188 163.609375 C 146.417969 161.335938 146.953125 158.546875 149.308594 156.472656 C 153.863281 152.453125 160.6875 153.820312 165.792969 158.246094 C 166.09375 158.503906 166.125 158.957031 165.867188 159.253906 C 165.613281 159.554688 165.15625 159.585938 164.859375 159.328125 C 160.320312 155.398438 154.292969 153.984375 150.25 157.546875 C 148.265625 159.292969 147.855469 161.652344 147.917969 163.566406 C 147.933594 164.035156 147.980469 164.480469 148.039062 164.886719 C 147.558594 164.894531 147.074219 164.902344 146.597656 164.910156 Z M 186.332031 146.851562 C 186.25 147.191406 185.921875 147.429688 185.5625 147.390625 C 185.5625 147.390625 183.585938 147.179688 181.285156 147.695312 C 179.039062 148.195312 176.46875 149.382812 175.183594 152.214844 C 173.96875 154.890625 175.144531 156.777344 176.613281 157.996094 C 178.179688 159.300781 180.070312 159.886719 180.070312 159.886719 C 180.445312 160.003906 180.660156 160.402344 180.539062 160.78125 C 180.421875 161.15625 180.023438 161.371094 179.644531 161.253906 C 179.644531 161.253906 177.484375 160.582031 175.695312 159.09375 C 174.25 157.894531 173.039062 156.1875 173.246094 153.910156 C 166.839844 154.203125 163.664062 152.753906 162.148438 150.992188 C 160.390625 148.949219 160.734375 146.394531 161.097656 145.054688 C 160.914062 145.035156 160.730469 145.011719 160.546875 144.992188 C 157.644531 144.621094 155.023438 143.832031 154 143.492188 C 152.988281 146.058594 151.210938 148.582031 148.96875 150.332031 C 145.734375 152.851562 141.003906 153.800781 137.351562 152.847656 C 134.800781 152.179688 132.761719 150.597656 131.996094 148.042969 C 131.523438 146.460938 131.730469 144.40625 132.550781 142.273438 C 133.371094 140.164062 134.796875 137.972656 136.710938 136.132812 C 135.3125 135.867188 134.257812 135.394531 133.605469 135.042969 C 133.414062 135.398438 133.179688 135.753906 132.894531 136.109375 C 131.625 137.691406 129.535156 138.707031 127.472656 139.335938 C 126.144531 139.738281 124.832031 139.984375 123.789062 140.136719 C 128.367188 142.773438 129.433594 146.851562 128.957031 150.019531 C 128.59375 152.480469 126.746094 155.402344 123.117188 156.382812 C 120.800781 157.007812 117.726562 156.839844 113.820312 155.148438 C 108.742188 152.941406 106.308594 150.585938 105.351562 148.429688 C 98.527344 149.175781 95.777344 145.382812 95.777344 145.382812 C 95.542969 145.070312 95.605469 144.617188 95.921875 144.382812 C 96.234375 144.144531 96.6875 144.210938 96.921875 144.523438 C 96.921875 144.523438 99.253906 147.546875 104.921875 147.03125 C 104.539062 144.910156 105.398438 142.992188 106.507812 141.527344 C 107.53125 140.183594 109.144531 139.207031 111.015625 138.621094 C 113.207031 137.929688 115.75 137.773438 118.015625 138.109375 C 117.4375 136.46875 116.320312 135.253906 115.144531 134.371094 C 113.054688 132.800781 110.753906 132.261719 110.753906 132.261719 C 110.371094 132.171875 110.128906 131.785156 110.222656 131.402344 C 110.3125 131.019531 110.695312 130.777344 111.082031 130.871094 C 111.082031 130.871094 113.65625 131.46875 116.003906 133.230469 C 117.570312 134.40625 119.03125 136.097656 119.605469 138.441406 C 120.199219 138.601562 120.757812 138.785156 121.285156 138.980469 C 121.363281 138.949219 121.445312 138.929688 121.53125 138.925781 C 121.53125 138.925781 124.253906 138.820312 127.050781 137.96875 C 128.839844 137.425781 130.675781 136.585938 131.777344 135.214844 C 134.417969 131.925781 131.445312 128.5 129.507812 127.0625 C 129.191406 126.832031 129.125 126.378906 129.363281 126.0625 C 129.597656 125.742188 130.042969 125.679688 130.363281 125.914062 C 132.292969 127.347656 134.875 130.421875 134.113281 133.691406 C 134.753906 134.066406 136.152344 134.738281 138.15625 134.890625 C 138.617188 134.539062 139.101562 134.199219 139.605469 133.894531 C 143.46875 131.519531 146.976562 131.15625 149.8125 132.199219 C 150.203125 131.910156 150.964844 131.230469 151.507812 129.996094 C 151.648438 129.675781 151.992188 129.511719 152.324219 129.585938 C 152.308594 129.683594 152.285156 129.785156 152.261719 129.882812 C 152.261719 129.882812 152.382812 129.824219 152.609375 129.726562 C 152.855469 129.925781 152.949219 130.265625 152.816406 130.566406 C 152.347656 131.640625 151.742188 132.378906 151.230469 132.867188 C 152.082031 133.363281 152.851562 134 153.53125 134.757812 C 154.824219 136.195312 155.195312 138.394531 154.773438 140.789062 C 154.695312 141.234375 154.585938 141.6875 154.453125 142.144531 C 155.433594 142.46875 157.9375 143.226562 160.71875 143.578125 C 161.160156 143.632812 161.609375 143.679688 162.0625 143.710938 C 162.089844 143.710938 162.113281 143.710938 162.144531 143.71875 C 164.023438 143.847656 165.929688 143.730469 167.46875 143.085938 C 172.054688 141.167969 172.019531 137.308594 172.019531 137.308594 C 172.011719 136.929688 172.304688 136.605469 172.679688 136.582031 C 172.691406 136.644531 172.695312 136.679688 172.695312 136.679688 C 172.695312 136.679688 172.789062 136.652344 172.964844 136.613281 C 173.238281 136.707031 173.441406 136.96875 173.449219 137.273438 C 173.449219 137.273438 173.605469 142.0625 168.019531 144.402344 C 166.425781 145.070312 164.484375 145.246094 162.535156 145.164062 C 162.222656 146.101562 161.722656 148.320312 163.222656 150.0625 C 164.605469 151.671875 167.574219 152.804688 173.542969 152.464844 C 173.628906 152.195312 173.738281 151.914062 173.867188 151.628906 C 175.070312 148.96875 177.226562 147.519531 179.386719 146.753906 C 182.542969 145.632812 185.695312 145.972656 185.695312 145.972656 C 186.089844 146.015625 186.371094 146.367188 186.328125 146.761719 C 186.316406 146.792969 186.300781 146.824219 186.292969 146.855469 C 186.292969 146.855469 186.296875 146.855469 186.3125 146.855469 Z M 186.332031 146.851562 " fill-opacity="1" fill-rule="evenodd"/></svg>