<svg xmlns="http://www.w3.org/2000/svg" xmlns:xlink="http://www.w3.org/1999/xlink" width="361" zoomAndPan="magnify" viewBox="0 0 270.75 388.499989" height="518" preserveAspectRatio="xMidYMid meet" version="1.0"><defs><g/><clipPath id="cc99aeea76"><path d="M 85 175 L 121 175 L 121 210.765625 L 85 210.765625 Z M 85 175 " clip-rule="nonzero"/></clipPath><clipPath id="ded3e7bd86"><path d="M 130 96 L 242.203125 96 L 242.203125 208 L 130 208 Z M 130 96 " clip-rule="nonzero"/></clipPath><clipPath id="628ad07c4f"><path d="M 28 125 L 86.402344 125 L 86.402344 205 L 28 205 Z M 28 125 " clip-rule="nonzero"/></clipPath><clipPath id="34a196eff0"><path d="M 28 109 L 86.402344 109 L 86.402344 126 L 28 126 Z M 28 109 " clip-rule="nonzero"/></clipPath><clipPath id="1ff0cc411c"><path d="M 28 204 L 86.402344 204 L 86.402344 211 L 28 211 Z M 28 204 " clip-rule="nonzero"/></clipPath><clipPath id="9ef1b68fd3"><path d="M 49 103.316406 L 65 103.316406 L 65 110 L 49 110 Z M 49 103.316406 " clip-rule="nonzero"/></clipPath></defs><g fill="#000000" fill-opacity="1"><g transform="translate(8.784095, 261.091514)"><g><path d="M 11.125 0 L 5.8125 -8.09375 L 3.296875 0 L 0.703125 0 L 3.5 -8.71875 L 4.203125 -10.53125 L 1.875 -14.25 L 4.640625 -14.25 L 6.765625 -10.828125 L 8.90625 -7.640625 L 9.53125 -9.84375 L 10.828125 -14.25 L 13.4375 -14.25 L 10.5 -5.28125 L 14.03125 0 Z M 11.125 0 "/></g></g></g><g fill="#000000" fill-opacity="1"><g transform="translate(23.646212, 261.091514)"><g><path d="M 13.515625 -8.234375 C 13.617188 -5.316406 12.722656 -3.203125 10.828125 -1.890625 C 8.929688 -0.578125 6.273438 0.132812 2.859375 0.25 L 1.390625 -12.171875 L 1.140625 -14.25 L 8.4375 -14.25 C 10.007812 -14.25 11.234375 -13.785156 12.109375 -12.859375 C 12.984375 -11.929688 13.441406 -10.660156 13.484375 -9.046875 Z M 5.25 -2.203125 C 7.144531 -2.367188 8.566406 -2.910156 9.515625 -3.828125 C 10.460938 -4.753906 10.898438 -6.242188 10.828125 -8.296875 L 10.828125 -8.984375 C 10.828125 -9.921875 10.597656 -10.6875 10.140625 -11.28125 C 9.679688 -11.875 9.046875 -12.171875 8.234375 -12.171875 L 4.109375 -12.171875 Z M 5.25 -2.203125 "/></g></g></g><g fill="#000000" fill-opacity="1"><g transform="translate(38.432242, 261.091514)"><g><path d="M 1.78125 -11.28125 L 1.46875 -14.25 L 4.15625 -14.25 L 4.484375 -11.28125 L 4.484375 -7.4375 L 4.46875 -5.828125 L 1.78125 -5.328125 Z M 1.78125 -11.28125 "/></g></g></g><g fill="#000000" fill-opacity="1"><g transform="translate(44.519119, 261.091514)"><g><path d="M 0.96875 -2.078125 L 4.609375 -2.078125 C 5.816406 -2.078125 6.710938 -2.441406 7.296875 -3.171875 C 7.890625 -3.898438 8.1875 -4.929688 8.1875 -6.265625 L 8.1875 -7.984375 C 8.1875 -9.316406 7.890625 -10.347656 7.296875 -11.078125 C 6.710938 -11.804688 5.816406 -12.171875 4.609375 -12.171875 L 0.96875 -12.171875 L 0.96875 -14.25 L 5.28125 -14.25 C 7.082031 -14.25 8.46875 -13.691406 9.4375 -12.578125 C 10.414062 -11.460938 10.90625 -9.890625 10.90625 -7.859375 L 10.90625 -6.390625 C 10.90625 -4.359375 10.414062 -2.785156 9.4375 -1.671875 C 8.46875 -0.554688 7.082031 0 5.28125 0 L 0.96875 0 Z M 0.96875 -2.078125 "/></g></g></g><g fill="#000000" fill-opacity="1"><g transform="translate(56.642138, 261.091514)"><g><path d="M 12.65625 -2.078125 L 12.65625 0 L 1.140625 0 L 1.140625 -2.078125 L 8.1875 -2.078125 L 8.1875 -9.640625 C 8.1875 -10.535156 7.992188 -11.179688 7.609375 -11.578125 C 7.222656 -11.972656 6.65625 -12.171875 5.90625 -12.171875 L 1.140625 -12.171875 L 1.140625 -14.25 L 6.59375 -14.25 C 7.945312 -14.25 9.003906 -13.867188 9.765625 -13.109375 C 10.523438 -12.347656 10.90625 -11.148438 10.90625 -9.515625 L 10.90625 -2.078125 Z M 12.65625 -2.078125 "/></g></g></g><g fill="#000000" fill-opacity="1"><g transform="translate(70.18543, 261.091514)"><g/></g></g><g fill="#000000" fill-opacity="1"><g transform="translate(75.257823, 261.091514)"><g><path d="M 9 -14.25 C 10.351562 -14.25 11.410156 -13.867188 12.171875 -13.109375 C 12.929688 -12.347656 13.3125 -11.148438 13.3125 -9.515625 L 13.3125 0 L 1.640625 0 L 1.640625 -14.25 Z M 10.59375 -2.078125 L 10.59375 -9.640625 C 10.59375 -10.535156 10.398438 -11.179688 10.015625 -11.578125 C 9.628906 -11.972656 9.0625 -12.171875 8.3125 -12.171875 L 4.359375 -12.171875 L 4.359375 -2.078125 Z M 10.59375 -2.078125 "/></g></g></g><g fill="#000000" fill-opacity="1"><g transform="translate(90.094577, 261.091514)"><g><path d="M 1.78125 -11.28125 L 1.46875 -14.25 L 4.15625 -14.25 L 4.484375 -11.28125 L 4.484375 -7.4375 L 4.46875 -5.828125 L 1.78125 -5.328125 Z M 1.78125 -11.28125 "/></g></g></g><g fill="#000000" fill-opacity="1"><g transform="translate(96.181454, 261.091514)"><g><path d="M 15.3125 -10.34375 C 15.351562 -6.78125 14.359375 -4.113281 12.328125 -2.34375 C 10.296875 -0.582031 7.1875 0.28125 3 0.25 L 1.140625 -14.25 L 3.734375 -14.25 L 4.546875 -7.5 C 5.472656 -7.957031 6.101562 -8.554688 6.4375 -9.296875 C 6.78125 -10.046875 6.96875 -11.164062 7 -12.65625 L 7 -14.234375 L 9.578125 -14.234375 L 9.5625 -12.703125 C 9.53125 -10.847656 9.15625 -9.359375 8.4375 -8.234375 C 7.726562 -7.109375 6.515625 -6.195312 4.796875 -5.5 L 5.203125 -2.046875 C 7.753906 -2.222656 9.632812 -2.984375 10.84375 -4.328125 C 12.050781 -5.679688 12.644531 -7.644531 12.625 -10.21875 L 12.578125 -14.25 L 15.296875 -14.25 Z M 15.3125 -10.34375 "/></g></g></g><g fill="#000000" fill-opacity="1"><g transform="translate(112.71746, 261.091514)"><g><path d="M 14.609375 -7.171875 C 14.609375 -4.804688 14.082031 -2.96875 13.03125 -1.65625 C 11.988281 -0.351562 10.503906 0.296875 8.578125 0.296875 C 7.859375 0.296875 7.128906 0.210938 6.390625 0.046875 L 6.671875 -2.03125 C 7.316406 -1.894531 7.863281 -1.828125 8.3125 -1.828125 C 9.601562 -1.828125 10.539062 -2.273438 11.125 -3.171875 C 11.71875 -4.066406 12.015625 -5.375 12.015625 -7.09375 C 12.015625 -8.9375 11.734375 -10.257812 11.171875 -11.0625 C 10.609375 -11.875 9.800781 -12.28125 8.75 -12.28125 C 7.9375 -12.28125 7.269531 -12.046875 6.75 -11.578125 C 6.238281 -11.109375 5.898438 -10.488281 5.734375 -9.71875 L 4.03125 0 L 1.3125 0 L 3.140625 -9.8125 L 1.171875 -14.25 L 3.984375 -14.25 L 5.125 -11.265625 C 5.476562 -12.328125 6.019531 -13.125 6.75 -13.65625 C 7.476562 -14.1875 8.304688 -14.453125 9.234375 -14.453125 C 10.921875 -14.453125 12.238281 -13.863281 13.1875 -12.6875 C 14.132812 -11.519531 14.609375 -9.679688 14.609375 -7.171875 Z M 14.609375 -7.171875 "/></g></g></g><g fill="#000000" fill-opacity="1"><g transform="translate(128.467251, 261.091514)"><g><path d="M 0.5 -1.5 C 1.488281 -1.59375 2.148438 -1.851562 2.484375 -2.28125 C 2.828125 -2.707031 3 -3.394531 3 -4.34375 L 3 -14.25 L 9.84375 -14.25 C 11.195312 -14.25 12.253906 -13.867188 13.015625 -13.109375 C 13.773438 -12.347656 14.15625 -11.148438 14.15625 -9.515625 L 14.15625 0 L 11.4375 0 L 11.4375 -9.640625 C 11.4375 -10.535156 11.238281 -11.179688 10.84375 -11.578125 C 10.457031 -11.972656 9.894531 -12.171875 9.15625 -12.171875 L 5.703125 -12.171875 L 5.703125 -4.640625 C 5.703125 -2.960938 5.3125 -1.742188 4.53125 -0.984375 C 3.757812 -0.222656 2.503906 0.238281 0.765625 0.40625 Z M 0.5 -1.5 "/></g></g></g><g fill="#000000" fill-opacity="1"><g transform="translate(144.140956, 261.091514)"><g><path d="M 15.3125 -10.34375 C 15.351562 -6.78125 14.359375 -4.113281 12.328125 -2.34375 C 10.296875 -0.582031 7.1875 0.28125 3 0.25 L 1.140625 -14.25 L 3.734375 -14.25 L 4.546875 -7.5 C 5.472656 -7.957031 6.101562 -8.554688 6.4375 -9.296875 C 6.78125 -10.046875 6.96875 -11.164062 7 -12.65625 L 7 -14.234375 L 9.578125 -14.234375 L 9.5625 -12.703125 C 9.53125 -10.847656 9.15625 -9.359375 8.4375 -8.234375 C 7.726562 -7.109375 6.515625 -6.195312 4.796875 -5.5 L 5.203125 -2.046875 C 7.753906 -2.222656 9.632812 -2.984375 10.84375 -4.328125 C 12.050781 -5.679688 12.644531 -7.644531 12.625 -10.21875 L 12.578125 -14.25 L 15.296875 -14.25 Z M 15.3125 -10.34375 "/></g></g></g><g fill="#000000" fill-opacity="1"><g transform="translate(160.676961, 261.091514)"><g><path d="M 14.609375 -7.171875 C 14.609375 -4.804688 14.082031 -2.96875 13.03125 -1.65625 C 11.988281 -0.351562 10.503906 0.296875 8.578125 0.296875 C 7.859375 0.296875 7.128906 0.210938 6.390625 0.046875 L 6.671875 -2.03125 C 7.316406 -1.894531 7.863281 -1.828125 8.3125 -1.828125 C 9.601562 -1.828125 10.539062 -2.273438 11.125 -3.171875 C 11.71875 -4.066406 12.015625 -5.375 12.015625 -7.09375 C 12.015625 -8.9375 11.734375 -10.257812 11.171875 -11.0625 C 10.609375 -11.875 9.800781 -12.28125 8.75 -12.28125 C 7.9375 -12.28125 7.269531 -12.046875 6.75 -11.578125 C 6.238281 -11.109375 5.898438 -10.488281 5.734375 -9.71875 L 4.03125 0 L 1.3125 0 L 3.140625 -9.8125 L 1.171875 -14.25 L 3.984375 -14.25 L 5.125 -11.265625 C 5.476562 -12.328125 6.019531 -13.125 6.75 -13.65625 C 7.476562 -14.1875 8.304688 -14.453125 9.234375 -14.453125 C 10.921875 -14.453125 12.238281 -13.863281 13.1875 -12.6875 C 14.132812 -11.519531 14.609375 -9.679688 14.609375 -7.171875 Z M 14.609375 -7.171875 "/></g></g></g><g fill="#000000" fill-opacity="1"><g transform="translate(176.426752, 261.091514)"><g/></g></g><g fill="#000000" fill-opacity="1"><g transform="translate(181.499146, 261.091514)"><g><path d="M 9 -14.25 C 10.351562 -14.25 11.410156 -13.867188 12.171875 -13.109375 C 12.929688 -12.347656 13.3125 -11.148438 13.3125 -9.515625 L 13.3125 0 L 1.640625 0 L 1.640625 -14.25 Z M 10.59375 -2.078125 L 10.59375 -9.640625 C 10.59375 -10.535156 10.398438 -11.179688 10.015625 -11.578125 C 9.628906 -11.972656 9.0625 -12.171875 8.3125 -12.171875 L 4.359375 -12.171875 L 4.359375 -2.078125 Z M 10.59375 -2.078125 "/></g></g></g><g fill="#000000" fill-opacity="1"><g transform="translate(196.3359, 261.091514)"><g><path d="M 0.5 -1.5 C 1.488281 -1.59375 2.148438 -1.851562 2.484375 -2.28125 C 2.828125 -2.707031 3 -3.394531 3 -4.34375 L 3 -14.25 L 9.84375 -14.25 C 11.195312 -14.25 12.253906 -13.867188 13.015625 -13.109375 C 13.773438 -12.347656 14.15625 -11.148438 14.15625 -9.515625 L 14.15625 0 L 11.4375 0 L 11.4375 -9.640625 C 11.4375 -10.535156 11.238281 -11.179688 10.84375 -11.578125 C 10.457031 -11.972656 9.894531 -12.171875 9.15625 -12.171875 L 5.703125 -12.171875 L 5.703125 -4.640625 C 5.703125 -2.960938 5.3125 -1.742188 4.53125 -0.984375 C 3.757812 -0.222656 2.503906 0.238281 0.765625 0.40625 Z M 0.5 -1.5 "/></g></g></g><g fill="#000000" fill-opacity="1"><g transform="translate(212.009605, 261.091514)"><g><path d="M 11.125 0 L 5.8125 -8.09375 L 3.296875 0 L 0.703125 0 L 3.5 -8.71875 L 4.203125 -10.53125 L 1.875 -14.25 L 4.640625 -14.25 L 6.765625 -10.828125 L 8.90625 -7.640625 L 9.53125 -9.84375 L 10.828125 -14.25 L 13.4375 -14.25 L 10.5 -5.28125 L 14.03125 0 Z M 11.125 0 "/></g></g></g><g fill="#000000" fill-opacity="1"><g transform="translate(226.871733, 261.091514)"><g/></g></g><g fill="#000000" fill-opacity="1"><g transform="translate(231.944115, 261.091514)"><g><path d="M 9 -14.25 C 10.351562 -14.25 11.410156 -13.867188 12.171875 -13.109375 C 12.929688 -12.347656 13.3125 -11.148438 13.3125 -9.515625 L 13.3125 0 L 1.640625 0 L 1.640625 -14.25 Z M 10.59375 -2.078125 L 10.59375 -9.640625 C 10.59375 -10.535156 10.398438 -11.179688 10.015625 -11.578125 C 9.628906 -11.972656 9.0625 -12.171875 8.3125 -12.171875 L 4.359375 -12.171875 L 4.359375 -2.078125 Z M 10.59375 -2.078125 "/></g></g></g><g fill="#000000" fill-opacity="1"><g transform="translate(246.780869, 261.091514)"><g><path d="M 11.125 0 L 5.8125 -8.09375 L 3.296875 0 L 0.703125 0 L 3.5 -8.71875 L 4.203125 -10.53125 L 1.875 -14.25 L 4.640625 -14.25 L 6.765625 -10.828125 L 8.90625 -7.640625 L 9.53125 -9.84375 L 10.828125 -14.25 L 13.4375 -14.25 L 10.5 -5.28125 L 14.03125 0 Z M 11.125 0 "/></g></g></g><g fill="#000000" fill-opacity="1"><g transform="translate(8.023356, 289.55488)"><g><path d="M 0.5 -1.5 C 1.488281 -1.59375 2.148438 -1.851562 2.484375 -2.28125 C 2.828125 -2.707031 3 -3.394531 3 -4.34375 L 3 -14.25 L 9.84375 -14.25 C 11.195312 -14.25 12.253906 -13.867188 13.015625 -13.109375 C 13.773438 -12.347656 14.15625 -11.148438 14.15625 -9.515625 L 14.15625 0 L 11.4375 0 L 11.4375 -9.640625 C 11.4375 -10.535156 11.238281 -11.179688 10.84375 -11.578125 C 10.457031 -11.972656 9.894531 -12.171875 9.15625 -12.171875 L 5.703125 -12.171875 L 5.703125 -4.640625 C 5.703125 -2.960938 5.3125 -1.742188 4.53125 -0.984375 C 3.757812 -0.222656 2.503906 0.238281 0.765625 0.40625 Z M 0.5 -1.5 "/></g></g></g><g fill="#000000" fill-opacity="1"><g transform="translate(23.697061, 289.55488)"><g><path d="M 1.78125 -11.28125 L 1.46875 -14.25 L 4.15625 -14.25 L 4.484375 -11.28125 L 4.484375 -7.4375 L 4.46875 -5.828125 L 1.78125 -5.328125 Z M 1.78125 -11.28125 "/></g></g></g><g fill="#000000" fill-opacity="1"><g transform="translate(29.783938, 289.55488)"><g><path d="M 12.75 -14.25 C 12.75 -10.832031 12.617188 -8.265625 12.359375 -6.546875 C 12.097656 -4.835938 11.460938 -3.445312 10.453125 -2.375 C 9.453125 -1.300781 7.835938 -0.539062 5.609375 -0.09375 L 0.84375 0.84375 L 0.453125 -1.296875 L 4.75 -2.125 L 1.625 -14.25 L 4.34375 -14.25 L 7.171875 -2.765625 C 8.085938 -3.171875 8.75 -3.78125 9.15625 -4.59375 C 9.5625 -5.40625 9.8125 -6.429688 9.90625 -7.671875 C 10.007812 -8.910156 10.0625 -10.773438 10.0625 -13.265625 L 10.0625 -14.25 Z M 12.75 -14.25 "/></g></g></g><g fill="#000000" fill-opacity="1"><g transform="translate(43.758391, 289.55488)"><g><path d="M 1.78125 -11.28125 L 1.46875 -14.25 L 4.15625 -14.25 L 4.484375 -11.28125 L 4.484375 0 L 1.78125 0 Z M 1.78125 -11.28125 "/></g></g></g><g fill="#000000" fill-opacity="1"><g transform="translate(49.845268, 289.55488)"><g><path d="M 1.109375 -2.078125 L 5.21875 -2.078125 L 5.21875 -10.046875 C 5.21875 -10.765625 5.070312 -11.289062 4.78125 -11.625 C 4.5 -11.957031 4.070312 -12.164062 3.5 -12.25 L 1.78125 -12.5 L 2.125 -14.5625 L 4.765625 -14.171875 C 5.785156 -14.023438 6.566406 -13.597656 7.109375 -12.890625 C 7.660156 -12.191406 7.9375 -11.257812 7.9375 -10.09375 L 7.9375 0 L 1.109375 0 Z M 1.109375 -2.078125 "/></g></g></g><g fill="#000000" fill-opacity="1"><g transform="translate(59.330649, 289.55488)"><g><path d="M 11.3125 -14.25 L 11.3125 -12 L 6.5625 0 L 3.859375 0 L 8.59375 -12.171875 L 0.96875 -12.171875 L 0.96875 -18.1875 L 3.421875 -18.1875 L 3.421875 -14.25 Z M 11.3125 -14.25 "/></g></g></g><g fill="#000000" fill-opacity="1"><g transform="translate(71.656574, 289.55488)"><g><path d="M 5.859375 -2.078125 C 6.679688 -2.160156 7.375 -2.359375 7.9375 -2.671875 C 8.507812 -2.984375 8.96875 -3.503906 9.3125 -4.234375 C 9.664062 -4.972656 9.882812 -5.988281 9.96875 -7.28125 L 10.34375 -12.171875 L 1.375 -12.171875 L 1.375 -14.25 L 13.265625 -14.25 L 13.15625 -12.421875 L 12.8125 -7.90625 C 12.6875 -5.425781 12.066406 -3.5 10.953125 -2.125 C 9.835938 -0.757812 8.222656 -0.0390625 6.109375 0.03125 Z M 1.3125 -7.15625 L 1.703125 -8.875 L 4.03125 -8.875 L 4.03125 5.078125 L 1.3125 5.078125 Z M 1.3125 -7.15625 "/></g></g></g><g fill="#000000" fill-opacity="1"><g transform="translate(86.036816, 289.55488)"><g><path d="M 12.65625 -2.078125 L 12.65625 0 L 1.140625 0 L 1.140625 -2.078125 L 8.1875 -2.078125 L 8.1875 -9.640625 C 8.1875 -10.535156 7.992188 -11.179688 7.609375 -11.578125 C 7.222656 -11.972656 6.65625 -12.171875 5.90625 -12.171875 L 1.140625 -12.171875 L 1.140625 -14.25 L 6.59375 -14.25 C 7.945312 -14.25 9.003906 -13.867188 9.765625 -13.109375 C 10.523438 -12.347656 10.90625 -11.148438 10.90625 -9.515625 L 10.90625 -2.078125 Z M 12.65625 -2.078125 "/></g></g></g><g fill="#000000" fill-opacity="1"><g transform="translate(99.580107, 289.55488)"><g/></g></g><g fill="#000000" fill-opacity="1"><g transform="translate(104.652501, 289.55488)"><g><path d="M 1.78125 -11.28125 L 1.46875 -14.25 L 4.15625 -14.25 L 4.484375 -11.28125 L 4.484375 0 L 1.78125 0 Z M 1.78125 -11.28125 "/></g></g></g><g fill="#000000" fill-opacity="1"><g transform="translate(110.739378, 289.55488)"><g><path d="M 11.125 0 L 5.8125 -8.09375 L 3.296875 0 L 0.703125 0 L 3.5 -8.71875 L 4.203125 -10.53125 L 1.875 -14.25 L 4.640625 -14.25 L 6.765625 -10.828125 L 8.90625 -7.640625 L 9.53125 -9.84375 L 10.828125 -14.25 L 13.4375 -14.25 L 10.5 -5.28125 L 14.03125 0 Z M 11.125 0 "/></g></g></g><g fill="#000000" fill-opacity="1"><g transform="translate(125.601494, 289.55488)"><g/></g></g><g fill="#000000" fill-opacity="1"><g transform="translate(130.673888, 289.55488)"><g><path d="M 12.75 -14.25 C 12.75 -10.832031 12.617188 -8.265625 12.359375 -6.546875 C 12.097656 -4.835938 11.460938 -3.445312 10.453125 -2.375 C 9.453125 -1.300781 7.835938 -0.539062 5.609375 -0.09375 L 0.84375 0.84375 L 0.453125 -1.296875 L 4.75 -2.125 L 1.625 -14.25 L 4.34375 -14.25 L 7.171875 -2.765625 C 8.085938 -3.171875 8.75 -3.78125 9.15625 -4.59375 C 9.5625 -5.40625 9.8125 -6.429688 9.90625 -7.671875 C 10.007812 -8.910156 10.0625 -10.773438 10.0625 -13.265625 L 10.0625 -14.25 Z M 12.75 -14.25 "/></g></g></g><g fill="#000000" fill-opacity="1"><g transform="translate(144.648341, 289.55488)"><g><path d="M 1.109375 -2.078125 L 5.21875 -2.078125 L 5.21875 -10.046875 C 5.21875 -10.765625 5.070312 -11.289062 4.78125 -11.625 C 4.5 -11.957031 4.070312 -12.164062 3.5 -12.25 L 1.78125 -12.5 L 2.125 -14.5625 L 4.765625 -14.171875 C 5.785156 -14.023438 6.566406 -13.597656 7.109375 -12.890625 C 7.660156 -12.191406 7.9375 -11.257812 7.9375 -10.09375 L 7.9375 0 L 1.109375 0 Z M 1.109375 -2.078125 "/></g></g></g><g fill="#000000" fill-opacity="1"><g transform="translate(154.133722, 289.55488)"><g><path d="M 1.78125 -11.28125 L 1.46875 -14.25 L 4.15625 -14.25 L 4.484375 -11.28125 L 4.484375 0 L 1.78125 0 Z M 1.78125 -11.28125 "/></g></g></g><g fill="#000000" fill-opacity="1"><g transform="translate(160.220599, 289.55488)"><g><path d="M 14.609375 -7.171875 C 14.609375 -4.804688 14.082031 -2.96875 13.03125 -1.65625 C 11.988281 -0.351562 10.503906 0.296875 8.578125 0.296875 C 7.859375 0.296875 7.128906 0.210938 6.390625 0.046875 L 6.671875 -2.03125 C 7.316406 -1.894531 7.863281 -1.828125 8.3125 -1.828125 C 9.601562 -1.828125 10.539062 -2.273438 11.125 -3.171875 C 11.71875 -4.066406 12.015625 -5.375 12.015625 -7.09375 C 12.015625 -8.9375 11.734375 -10.257812 11.171875 -11.0625 C 10.609375 -11.875 9.800781 -12.28125 8.75 -12.28125 C 7.9375 -12.28125 7.269531 -12.046875 6.75 -11.578125 C 6.238281 -11.109375 5.898438 -10.488281 5.734375 -9.71875 L 4.03125 0 L 1.3125 0 L 3.140625 -9.8125 L 1.171875 -14.25 L 3.984375 -14.25 L 5.125 -11.265625 C 5.476562 -12.328125 6.019531 -13.125 6.75 -13.65625 C 7.476562 -14.1875 8.304688 -14.453125 9.234375 -14.453125 C 10.921875 -14.453125 12.238281 -13.863281 13.1875 -12.6875 C 14.132812 -11.519531 14.609375 -9.679688 14.609375 -7.171875 Z M 14.609375 -7.171875 "/></g></g></g><g fill="#000000" fill-opacity="1"><g transform="translate(175.970389, 289.55488)"><g><path d="M 14.609375 -7.171875 C 14.609375 -4.804688 14.082031 -2.96875 13.03125 -1.65625 C 11.988281 -0.351562 10.503906 0.296875 8.578125 0.296875 C 7.859375 0.296875 7.128906 0.210938 6.390625 0.046875 L 6.671875 -2.03125 C 7.316406 -1.894531 7.863281 -1.828125 8.3125 -1.828125 C 9.601562 -1.828125 10.539062 -2.273438 11.125 -3.171875 C 11.71875 -4.066406 12.015625 -5.375 12.015625 -7.09375 C 12.015625 -8.9375 11.734375 -10.257812 11.171875 -11.0625 C 10.609375 -11.875 9.800781 -12.28125 8.75 -12.28125 C 7.9375 -12.28125 7.269531 -12.046875 6.75 -11.578125 C 6.238281 -11.109375 5.898438 -10.488281 5.734375 -9.71875 L 4.03125 0 L 1.3125 0 L 3.140625 -9.8125 L 1.171875 -14.25 L 3.984375 -14.25 L 5.125 -11.265625 C 5.476562 -12.328125 6.019531 -13.125 6.75 -13.65625 C 7.476562 -14.1875 8.304688 -14.453125 9.234375 -14.453125 C 10.921875 -14.453125 12.238281 -13.863281 13.1875 -12.6875 C 14.132812 -11.519531 14.609375 -9.679688 14.609375 -7.171875 Z M 14.609375 -7.171875 "/></g></g></g><g fill="#000000" fill-opacity="1"><g transform="translate(191.72018, 289.55488)"><g/></g></g><g fill="#000000" fill-opacity="1"><g transform="translate(196.792574, 289.55488)"><g><path d="M 9 -14.25 C 10.351562 -14.25 11.410156 -13.867188 12.171875 -13.109375 C 12.929688 -12.347656 13.3125 -11.148438 13.3125 -9.515625 L 13.3125 0 L 1.640625 0 L 1.640625 -14.25 Z M 10.59375 -2.078125 L 10.59375 -9.640625 C 10.59375 -10.535156 10.398438 -11.179688 10.015625 -11.578125 C 9.628906 -11.972656 9.0625 -12.171875 8.3125 -12.171875 L 4.359375 -12.171875 L 4.359375 -2.078125 Z M 10.59375 -2.078125 "/></g></g></g><g fill="#000000" fill-opacity="1"><g transform="translate(211.629328, 289.55488)"><g><path d="M 1.78125 -11.28125 L 1.46875 -14.25 L 4.15625 -14.25 L 4.484375 -11.28125 L 4.484375 -7.4375 L 4.46875 -5.828125 L 1.78125 -5.328125 Z M 1.78125 -11.28125 "/></g></g></g><g fill="#000000" fill-opacity="1"><g transform="translate(217.716205, 289.55488)"><g><path d="M 11.3125 -14.25 L 11.3125 -12 L 6.5625 0 L 3.859375 0 L 8.59375 -12.171875 L 0.96875 -12.171875 L 0.96875 -18.1875 L 3.421875 -18.1875 L 3.421875 -14.25 Z M 11.3125 -14.25 "/></g></g></g><g fill="#000000" fill-opacity="1"><g transform="translate(230.04213, 289.55488)"><g><path d="M 6.34375 0 L 5.78125 -3.125 C 5.3125 -2.269531 4.726562 -1.550781 4.03125 -0.96875 C 3.34375 -0.382812 2.515625 0.0703125 1.546875 0.40625 L 0.5625 -1.75 C 1.726562 -2.15625 2.703125 -2.664062 3.484375 -3.28125 C 4.273438 -3.894531 4.894531 -4.671875 5.34375 -5.609375 L 5.34375 -10.046875 C 5.34375 -10.785156 5.242188 -11.316406 5.046875 -11.640625 C 4.859375 -11.972656 4.492188 -12.1875 3.953125 -12.28125 L 2.359375 -12.5 L 2.71875 -14.5625 L 5.21875 -14.203125 C 6.21875 -14.046875 6.941406 -13.65625 7.390625 -13.03125 C 7.835938 -12.40625 8.0625 -11.503906 8.0625 -10.328125 L 8.0625 -5.453125 L 8.921875 0 Z M 6.34375 0 "/></g></g></g><g fill="#000000" fill-opacity="1"><g transform="translate(240.060097, 289.55488)"><g><path d="M 11.3125 -14.25 L 11.3125 -12 L 6.5625 0 L 3.859375 0 L 8.59375 -12.171875 L 0.96875 -12.171875 L 0.96875 -18.1875 L 3.421875 -18.1875 L 3.421875 -14.25 Z M 11.3125 -14.25 "/></g></g></g><g fill="#000000" fill-opacity="1"><g transform="translate(252.386045, 289.55488)"><g><path d="M 6.34375 0 L 5.78125 -3.125 C 5.3125 -2.269531 4.726562 -1.550781 4.03125 -0.96875 C 3.34375 -0.382812 2.515625 0.0703125 1.546875 0.40625 L 0.5625 -1.75 C 1.726562 -2.15625 2.703125 -2.664062 3.484375 -3.28125 C 4.273438 -3.894531 4.894531 -4.671875 5.34375 -5.609375 L 5.34375 -10.046875 C 5.34375 -10.785156 5.242188 -11.316406 5.046875 -11.640625 C 4.859375 -11.972656 4.492188 -12.1875 3.953125 -12.28125 L 2.359375 -12.5 L 2.71875 -14.5625 L 5.21875 -14.203125 C 6.21875 -14.046875 6.941406 -13.65625 7.390625 -13.03125 C 7.835938 -12.40625 8.0625 -11.503906 8.0625 -10.328125 L 8.0625 -5.453125 L 8.921875 0 Z M 6.34375 0 "/></g></g></g><g fill="#000000" fill-opacity="1"><g transform="translate(12.35372, 318.018245)"><g><path d="M 0.5 -1.5 C 1.488281 -1.59375 2.148438 -1.851562 2.484375 -2.28125 C 2.828125 -2.707031 3 -3.394531 3 -4.34375 L 3 -14.25 L 9.84375 -14.25 C 11.195312 -14.25 12.253906 -13.867188 13.015625 -13.109375 C 13.773438 -12.347656 14.15625 -11.148438 14.15625 -9.515625 L 14.15625 0 L 11.4375 0 L 11.4375 -9.640625 C 11.4375 -10.535156 11.238281 -11.179688 10.84375 -11.578125 C 10.457031 -11.972656 9.894531 -12.171875 9.15625 -12.171875 L 5.703125 -12.171875 L 5.703125 -4.640625 C 5.703125 -2.960938 5.3125 -1.742188 4.53125 -0.984375 C 3.757812 -0.222656 2.503906 0.238281 0.765625 0.40625 Z M 0.5 -1.5 "/></g></g></g><g fill="#000000" fill-opacity="1"><g transform="translate(28.027425, 318.018245)"><g><path d="M 1.78125 -11.28125 L 1.46875 -14.25 L 4.15625 -14.25 L 4.484375 -11.28125 L 4.484375 0 L 1.78125 0 Z M 1.78125 -11.28125 "/></g></g></g><g fill="#000000" fill-opacity="1"><g transform="translate(34.114302, 318.018245)"><g><path d="M 11.3125 -14.25 L 11.3125 -12 L 6.5625 0 L 3.859375 0 L 8.59375 -12.171875 L 0.96875 -12.171875 L 0.96875 -18.1875 L 3.421875 -18.1875 L 3.421875 -14.25 Z M 11.3125 -14.25 "/></g></g></g><g fill="#000000" fill-opacity="1"><g transform="translate(46.440227, 318.018245)"><g><path d="M 11.3125 -14.25 L 11.3125 -12 L 6.5625 0 L 3.859375 0 L 8.59375 -12.171875 L 0.96875 -12.171875 L 0.96875 -18.1875 L 3.421875 -18.1875 L 3.421875 -14.25 Z M 11.3125 -14.25 "/></g></g></g><g fill="#000000" fill-opacity="1"><g transform="translate(58.766151, 318.018245)"><g><path d="M 1.78125 -11.28125 L 1.46875 -14.25 L 4.15625 -14.25 L 4.484375 -11.28125 L 4.484375 0 L 1.78125 0 Z M 1.78125 -11.28125 "/></g></g></g><g fill="#000000" fill-opacity="1"><g transform="translate(64.853028, 318.018245)"><g><path d="M 13.515625 -8.234375 C 13.617188 -5.316406 12.722656 -3.203125 10.828125 -1.890625 C 8.929688 -0.578125 6.273438 0.132812 2.859375 0.25 L 1.390625 -12.171875 L 1.140625 -14.25 L 8.4375 -14.25 C 10.007812 -14.25 11.234375 -13.785156 12.109375 -12.859375 C 12.984375 -11.929688 13.441406 -10.660156 13.484375 -9.046875 Z M 5.25 -2.203125 C 7.144531 -2.367188 8.566406 -2.910156 9.515625 -3.828125 C 10.460938 -4.753906 10.898438 -6.242188 10.828125 -8.296875 L 10.828125 -8.984375 C 10.828125 -9.921875 10.597656 -10.6875 10.140625 -11.28125 C 9.679688 -11.875 9.046875 -12.171875 8.234375 -12.171875 L 4.109375 -12.171875 Z M 5.25 -2.203125 "/></g></g></g><g fill="#000000" fill-opacity="1"><g transform="translate(79.639059, 318.018245)"><g/></g></g><g fill="#000000" fill-opacity="1"><g transform="translate(84.711453, 318.018245)"><g><path d="M 1.78125 -11.28125 L 1.46875 -14.25 L 4.15625 -14.25 L 4.484375 -11.28125 L 4.484375 5.078125 L 1.78125 5.078125 Z M 1.78125 -11.28125 "/></g></g></g><g fill="#000000" fill-opacity="1"><g transform="translate(90.79833, 318.018245)"><g><path d="M 1.78125 -11.28125 L 1.46875 -14.25 L 4.15625 -14.25 L 4.484375 -11.28125 L 4.484375 -7.4375 L 4.46875 -5.828125 L 1.78125 -5.328125 Z M 1.78125 -11.28125 "/></g></g></g><g fill="#000000" fill-opacity="1"><g transform="translate(96.885207, 318.018245)"><g><path d="M 0.96875 -2.078125 L 4.609375 -2.078125 C 5.816406 -2.078125 6.710938 -2.441406 7.296875 -3.171875 C 7.890625 -3.898438 8.1875 -4.929688 8.1875 -6.265625 L 8.1875 -7.984375 C 8.1875 -9.316406 7.890625 -10.347656 7.296875 -11.078125 C 6.710938 -11.804688 5.816406 -12.171875 4.609375 -12.171875 L 0.96875 -12.171875 L 0.96875 -14.25 L 5.28125 -14.25 C 7.082031 -14.25 8.46875 -13.691406 9.4375 -12.578125 C 10.414062 -11.460938 10.90625 -9.890625 10.90625 -7.859375 L 10.90625 -6.390625 C 10.90625 -4.359375 10.414062 -2.785156 9.4375 -1.671875 C 8.46875 -0.554688 7.082031 0 5.28125 0 L 0.96875 0 Z M 0.96875 -2.078125 "/></g></g></g><g fill="#000000" fill-opacity="1"><g transform="translate(109.008226, 318.018245)"><g><path d="M 9.984375 -9.640625 C 9.984375 -10.535156 9.789062 -11.179688 9.40625 -11.578125 C 9.019531 -11.972656 8.453125 -12.171875 7.703125 -12.171875 L 1.46875 -12.171875 L 1.46875 -14.25 L 8.390625 -14.25 C 9.742188 -14.25 10.800781 -13.867188 11.5625 -13.109375 C 12.320312 -12.347656 12.703125 -11.148438 12.703125 -9.515625 L 12.703125 0 L 9.984375 0 Z M 1.390625 -6.890625 L 1.78125 -8.59375 L 4.109375 -8.59375 L 4.109375 0 L 1.390625 0 Z M 1.390625 -6.890625 "/></g></g></g><g fill="#000000" fill-opacity="1"><g transform="translate(123.160212, 318.018245)"><g><path d="M 11.3125 -14.25 L 11.3125 -12 L 6.5625 0 L 3.859375 0 L 8.59375 -12.171875 L 0.96875 -12.171875 L 0.96875 -18.1875 L 3.421875 -18.1875 L 3.421875 -14.25 Z M 11.3125 -14.25 "/></g></g></g><g fill="#000000" fill-opacity="1"><g transform="translate(135.486136, 318.018245)"><g/></g></g><g fill="#000000" fill-opacity="1"><g transform="translate(140.55853, 318.018245)"><g><path d="M 15.3125 -10.34375 C 15.351562 -6.78125 14.359375 -4.113281 12.328125 -2.34375 C 10.296875 -0.582031 7.1875 0.28125 3 0.25 L 1.140625 -14.25 L 3.734375 -14.25 L 4.546875 -7.5 C 5.472656 -7.957031 6.101562 -8.554688 6.4375 -9.296875 C 6.78125 -10.046875 6.96875 -11.164062 7 -12.65625 L 7 -14.234375 L 9.578125 -14.234375 L 9.5625 -12.703125 C 9.53125 -10.847656 9.15625 -9.359375 8.4375 -8.234375 C 7.726562 -7.109375 6.515625 -6.195312 4.796875 -5.5 L 5.203125 -2.046875 C 7.753906 -2.222656 9.632812 -2.984375 10.84375 -4.328125 C 12.050781 -5.679688 12.644531 -7.644531 12.625 -10.21875 L 12.578125 -14.25 L 15.296875 -14.25 Z M 15.3125 -10.34375 "/></g></g></g><g fill="#000000" fill-opacity="1"><g transform="translate(157.094536, 318.018245)"><g><path d="M 1.78125 -11.28125 L 1.46875 -14.25 L 4.15625 -14.25 L 4.484375 -11.28125 L 4.484375 -7.4375 L 4.46875 -5.828125 L 1.78125 -5.328125 Z M 1.78125 -11.28125 "/></g></g></g><g fill="#000000" fill-opacity="1"><g transform="translate(163.181413, 318.018245)"><g/></g></g><g fill="#000000" fill-opacity="1"><g transform="translate(168.253807, 318.018245)"><g><path d="M 1.0625 -7.328125 L 7 -7.328125 L 7 -5.421875 L 1.0625 -5.421875 Z M 1.0625 -7.328125 "/></g></g></g><g fill="#000000" fill-opacity="1"><g transform="translate(176.293554, 318.018245)"><g/></g></g><g fill="#000000" fill-opacity="1"><g transform="translate(181.365947, 318.018245)"><g><path d="M 0.5 -1.5 C 1.488281 -1.59375 2.148438 -1.851562 2.484375 -2.28125 C 2.828125 -2.707031 3 -3.394531 3 -4.34375 L 3 -14.25 L 9.84375 -14.25 C 11.195312 -14.25 12.253906 -13.867188 13.015625 -13.109375 C 13.773438 -12.347656 14.15625 -11.148438 14.15625 -9.515625 L 14.15625 0 L 11.4375 0 L 11.4375 -9.640625 C 11.4375 -10.535156 11.238281 -11.179688 10.84375 -11.578125 C 10.457031 -11.972656 9.894531 -12.171875 9.15625 -12.171875 L 5.703125 -12.171875 L 5.703125 -4.640625 C 5.703125 -2.960938 5.3125 -1.742188 4.53125 -0.984375 C 3.757812 -0.222656 2.503906 0.238281 0.765625 0.40625 Z M 0.5 -1.5 "/></g></g></g><g fill="#000000" fill-opacity="1"><g transform="translate(197.039652, 318.018245)"><g><path d="M 12.75 -14.25 C 12.75 -10.832031 12.617188 -8.265625 12.359375 -6.546875 C 12.097656 -4.835938 11.460938 -3.445312 10.453125 -2.375 C 9.453125 -1.300781 7.835938 -0.539062 5.609375 -0.09375 L 0.84375 0.84375 L 0.453125 -1.296875 L 4.75 -2.125 L 1.625 -14.25 L 4.34375 -14.25 L 7.171875 -2.765625 C 8.085938 -3.171875 8.75 -3.78125 9.15625 -4.59375 C 9.5625 -5.40625 9.8125 -6.429688 9.90625 -7.671875 C 10.007812 -8.910156 10.0625 -10.773438 10.0625 -13.265625 L 10.0625 -14.25 Z M 12.75 -14.25 "/></g></g></g><g fill="#000000" fill-opacity="1"><g transform="translate(211.014106, 318.018245)"><g><path d="M 1.109375 -2.078125 L 5.21875 -2.078125 L 5.21875 -10.046875 C 5.21875 -10.765625 5.070312 -11.289062 4.78125 -11.625 C 4.5 -11.957031 4.070312 -12.164062 3.5 -12.25 L 1.78125 -12.5 L 2.125 -14.5625 L 4.765625 -14.171875 C 5.785156 -14.023438 6.566406 -13.597656 7.109375 -12.890625 C 7.660156 -12.191406 7.9375 -11.257812 7.9375 -10.09375 L 7.9375 0 L 1.109375 0 Z M 1.109375 -2.078125 "/></g></g></g><g fill="#000000" fill-opacity="1"><g transform="translate(220.499486, 318.018245)"><g><path d="M 1.78125 -11.28125 L 1.46875 -14.25 L 4.15625 -14.25 L 4.484375 -11.28125 L 4.484375 0 L 1.78125 0 Z M 1.78125 -11.28125 "/></g></g></g><g fill="#000000" fill-opacity="1"><g transform="translate(226.586363, 318.018245)"><g><path d="M 14.609375 -7.171875 C 14.609375 -4.804688 14.082031 -2.96875 13.03125 -1.65625 C 11.988281 -0.351562 10.503906 0.296875 8.578125 0.296875 C 7.859375 0.296875 7.128906 0.210938 6.390625 0.046875 L 6.671875 -2.03125 C 7.316406 -1.894531 7.863281 -1.828125 8.3125 -1.828125 C 9.601562 -1.828125 10.539062 -2.273438 11.125 -3.171875 C 11.71875 -4.066406 12.015625 -5.375 12.015625 -7.09375 C 12.015625 -8.9375 11.734375 -10.257812 11.171875 -11.0625 C 10.609375 -11.875 9.800781 -12.28125 8.75 -12.28125 C 7.9375 -12.28125 7.269531 -12.046875 6.75 -11.578125 C 6.238281 -11.109375 5.898438 -10.488281 5.734375 -9.71875 L 4.03125 0 L 1.3125 0 L 3.140625 -9.8125 L 1.171875 -14.25 L 3.984375 -14.25 L 5.125 -11.265625 C 5.476562 -12.328125 6.019531 -13.125 6.75 -13.65625 C 7.476562 -14.1875 8.304688 -14.453125 9.234375 -14.453125 C 10.921875 -14.453125 12.238281 -13.863281 13.1875 -12.6875 C 14.132812 -11.519531 14.609375 -9.679688 14.609375 -7.171875 Z M 14.609375 -7.171875 "/></g></g></g><g fill="#000000" fill-opacity="1"><g transform="translate(242.336142, 318.018245)"><g><path d="M 14.609375 -7.171875 C 14.609375 -4.804688 14.082031 -2.96875 13.03125 -1.65625 C 11.988281 -0.351562 10.503906 0.296875 8.578125 0.296875 C 7.859375 0.296875 7.128906 0.210938 6.390625 0.046875 L 6.671875 -2.03125 C 7.316406 -1.894531 7.863281 -1.828125 8.3125 -1.828125 C 9.601562 -1.828125 10.539062 -2.273438 11.125 -3.171875 C 11.71875 -4.066406 12.015625 -5.375 12.015625 -7.09375 C 12.015625 -8.9375 11.734375 -10.257812 11.171875 -11.0625 C 10.609375 -11.875 9.800781 -12.28125 8.75 -12.28125 C 7.9375 -12.28125 7.269531 -12.046875 6.75 -11.578125 C 6.238281 -11.109375 5.898438 -10.488281 5.734375 -9.71875 L 4.03125 0 L 1.3125 0 L 3.140625 -9.8125 L 1.171875 -14.25 L 3.984375 -14.25 L 5.125 -11.265625 C 5.476562 -12.328125 6.019531 -13.125 6.75 -13.65625 C 7.476562 -14.1875 8.304688 -14.453125 9.234375 -14.453125 C 10.921875 -14.453125 12.238281 -13.863281 13.1875 -12.6875 C 14.132812 -11.519531 14.609375 -9.679688 14.609375 -7.171875 Z M 14.609375 -7.171875 "/></g></g></g><g fill="#000000" fill-opacity="1"><g transform="translate(34.415169, 346.481611)"><g><path d="M 1.78125 -11.28125 L 1.46875 -14.25 L 4.15625 -14.25 L 4.484375 -11.28125 L 4.484375 5.078125 L 1.78125 5.078125 Z M 1.78125 -11.28125 "/></g></g></g><g fill="#000000" fill-opacity="1"><g transform="translate(40.502046, 346.481611)"><g><path d="M 12.75 -14.25 C 12.75 -10.832031 12.617188 -8.265625 12.359375 -6.546875 C 12.097656 -4.835938 11.460938 -3.445312 10.453125 -2.375 C 9.453125 -1.300781 7.835938 -0.539062 5.609375 -0.09375 L 0.84375 0.84375 L 0.453125 -1.296875 L 4.75 -2.125 L 1.625 -14.25 L 4.34375 -14.25 L 7.171875 -2.765625 C 8.085938 -3.171875 8.75 -3.78125 9.15625 -4.59375 C 9.5625 -5.40625 9.8125 -6.429688 9.90625 -7.671875 C 10.007812 -8.910156 10.0625 -10.773438 10.0625 -13.265625 L 10.0625 -14.25 Z M 12.75 -14.25 "/></g></g></g><g fill="#000000" fill-opacity="1"><g transform="translate(54.476499, 346.481611)"><g><path d="M 1.140625 -14.25 L 3.859375 -14.25 L 5.21875 -2.203125 C 9.125 -2.597656 11.019531 -4.644531 10.90625 -8.34375 L 10.90625 -9.046875 C 10.90625 -9.960938 10.660156 -10.71875 10.171875 -11.3125 C 9.679688 -11.90625 8.953125 -12.234375 7.984375 -12.296875 L 6.71875 -12.375 L 6.921875 -14.5 L 8.421875 -14.421875 C 9.941406 -14.328125 11.15625 -13.859375 12.0625 -13.015625 C 12.976562 -12.179688 13.472656 -10.972656 13.546875 -9.390625 L 13.5625 -8.671875 C 13.664062 -5.734375 12.757812 -3.546875 10.84375 -2.109375 C 8.925781 -0.679688 6.257812 0.101562 2.84375 0.25 Z M 1.140625 -14.25 "/></g></g></g><g fill="#000000" fill-opacity="1"><g transform="translate(68.932826, 346.481611)"><g><path d="M 14.609375 -7.171875 C 14.609375 -4.804688 14.082031 -2.96875 13.03125 -1.65625 C 11.988281 -0.351562 10.503906 0.296875 8.578125 0.296875 C 7.859375 0.296875 7.128906 0.210938 6.390625 0.046875 L 6.671875 -2.03125 C 7.316406 -1.894531 7.863281 -1.828125 8.3125 -1.828125 C 9.601562 -1.828125 10.539062 -2.273438 11.125 -3.171875 C 11.71875 -4.066406 12.015625 -5.375 12.015625 -7.09375 C 12.015625 -8.9375 11.734375 -10.257812 11.171875 -11.0625 C 10.609375 -11.875 9.800781 -12.28125 8.75 -12.28125 C 7.9375 -12.28125 7.269531 -12.046875 6.75 -11.578125 C 6.238281 -11.109375 5.898438 -10.488281 5.734375 -9.71875 L 4.03125 0 L 1.3125 0 L 3.140625 -9.8125 L 1.171875 -14.25 L 3.984375 -14.25 L 5.125 -11.265625 C 5.476562 -12.328125 6.019531 -13.125 6.75 -13.65625 C 7.476562 -14.1875 8.304688 -14.453125 9.234375 -14.453125 C 10.921875 -14.453125 12.238281 -13.863281 13.1875 -12.6875 C 14.132812 -11.519531 14.609375 -9.679688 14.609375 -7.171875 Z M 14.609375 -7.171875 "/></g></g></g><g fill="#000000" fill-opacity="1"><g transform="translate(84.682617, 346.481611)"><g/></g></g><g fill="#000000" fill-opacity="1"><g transform="translate(89.75501, 346.481611)"><g><path d="M 3.453125 -3.328125 C 4.078125 -3.328125 4.566406 -3.078125 4.921875 -2.578125 C 5.273438 -2.085938 5.453125 -1.414062 5.453125 -0.5625 C 5.453125 0.601562 5.128906 1.625 4.484375 2.5 C 3.847656 3.382812 2.945312 4.046875 1.78125 4.484375 L 1.1875 3.046875 C 1.96875 2.722656 2.566406 2.296875 2.984375 1.765625 C 3.410156 1.234375 3.632812 0.628906 3.65625 -0.046875 C 3.601562 -0.0351562 3.515625 -0.03125 3.390625 -0.03125 C 2.921875 -0.03125 2.515625 -0.175781 2.171875 -0.46875 C 1.835938 -0.757812 1.671875 -1.160156 1.671875 -1.671875 C 1.671875 -2.160156 1.84375 -2.554688 2.1875 -2.859375 C 2.539062 -3.171875 2.960938 -3.328125 3.453125 -3.328125 Z M 3.453125 -3.328125 "/></g></g></g><g fill="#000000" fill-opacity="1"><g transform="translate(96.45057, 346.481611)"><g><path d="M 0.5 -1.5 C 1.488281 -1.59375 2.148438 -1.851562 2.484375 -2.28125 C 2.828125 -2.707031 3 -3.394531 3 -4.34375 L 3 -14.25 L 9.84375 -14.25 C 11.195312 -14.25 12.253906 -13.867188 13.015625 -13.109375 C 13.773438 -12.347656 14.15625 -11.148438 14.15625 -9.515625 L 14.15625 0 L 11.4375 0 L 11.4375 -9.640625 C 11.4375 -10.535156 11.238281 -11.179688 10.84375 -11.578125 C 10.457031 -11.972656 9.894531 -12.171875 9.15625 -12.171875 L 5.703125 -12.171875 L 5.703125 -4.640625 C 5.703125 -2.960938 5.3125 -1.742188 4.53125 -0.984375 C 3.757812 -0.222656 2.503906 0.238281 0.765625 0.40625 Z M 0.5 -1.5 "/></g></g></g><g fill="#000000" fill-opacity="1"><g transform="translate(112.124276, 346.481611)"><g><path d="M 1.78125 -11.28125 L 1.46875 -14.25 L 4.15625 -14.25 L 4.484375 -11.28125 L 4.484375 0 L 1.78125 0 Z M 1.78125 -11.28125 "/></g></g></g><g fill="#000000" fill-opacity="1"><g transform="translate(118.211153, 346.481611)"><g><path d="M 1.109375 -2.078125 L 5.21875 -2.078125 L 5.21875 -10.046875 C 5.21875 -10.765625 5.070312 -11.289062 4.78125 -11.625 C 4.5 -11.957031 4.070312 -12.164062 3.5 -12.25 L 1.78125 -12.5 L 2.125 -14.5625 L 4.765625 -14.171875 C 5.785156 -14.023438 6.566406 -13.597656 7.109375 -12.890625 C 7.660156 -12.191406 7.9375 -11.257812 7.9375 -10.09375 L 7.9375 0 L 1.109375 0 Z M 1.109375 -2.078125 "/></g></g></g><g fill="#000000" fill-opacity="1"><g transform="translate(127.696533, 346.481611)"><g><path d="M 1.78125 -11.28125 L 1.46875 -14.25 L 4.15625 -14.25 L 4.484375 -11.28125 L 4.484375 -7.4375 L 4.46875 -5.828125 L 1.78125 -5.328125 Z M 1.78125 -11.28125 "/></g></g></g><g fill="#000000" fill-opacity="1"><g transform="translate(133.78341, 346.481611)"><g><path d="M 14.609375 -7.171875 C 14.609375 -4.804688 14.082031 -2.96875 13.03125 -1.65625 C 11.988281 -0.351562 10.503906 0.296875 8.578125 0.296875 C 7.859375 0.296875 7.128906 0.210938 6.390625 0.046875 L 6.671875 -2.03125 C 7.316406 -1.894531 7.863281 -1.828125 8.3125 -1.828125 C 9.601562 -1.828125 10.539062 -2.273438 11.125 -3.171875 C 11.71875 -4.066406 12.015625 -5.375 12.015625 -7.09375 C 12.015625 -8.9375 11.734375 -10.257812 11.171875 -11.0625 C 10.609375 -11.875 9.800781 -12.28125 8.75 -12.28125 C 7.9375 -12.28125 7.269531 -12.046875 6.75 -11.578125 C 6.238281 -11.109375 5.898438 -10.488281 5.734375 -9.71875 L 4.03125 0 L 1.3125 0 L 3.140625 -9.8125 L 1.171875 -14.25 L 3.984375 -14.25 L 5.125 -11.265625 C 5.476562 -12.328125 6.019531 -13.125 6.75 -13.65625 C 7.476562 -14.1875 8.304688 -14.453125 9.234375 -14.453125 C 10.921875 -14.453125 12.238281 -13.863281 13.1875 -12.6875 C 14.132812 -11.519531 14.609375 -9.679688 14.609375 -7.171875 Z M 14.609375 -7.171875 "/></g></g></g><g fill="#000000" fill-opacity="1"><g transform="translate(149.533201, 346.481611)"><g><path d="M 2.9375 -9.203125 C 2.9375 -10.523438 3.175781 -11.515625 3.65625 -12.171875 L 1.21875 -12.171875 L 1.21875 -14.25 L 8.109375 -14.25 L 8.109375 -12.171875 L 6.140625 -12.171875 C 5.929688 -11.785156 5.796875 -11.347656 5.734375 -10.859375 C 5.679688 -10.378906 5.65625 -9.828125 5.65625 -9.203125 L 5.65625 0 L 2.9375 0 Z M 2.9375 -9.203125 "/></g></g></g><g fill="#000000" fill-opacity="1"><g transform="translate(158.841049, 346.481611)"><g><path d="M 1.78125 -11.28125 L 1.46875 -14.25 L 4.15625 -14.25 L 4.484375 -11.28125 L 4.484375 0 L 1.78125 0 Z M 1.78125 -11.28125 "/></g></g></g><g fill="#000000" fill-opacity="1"><g transform="translate(164.927926, 346.481611)"><g/></g></g><g fill="#000000" fill-opacity="1"><g transform="translate(170.00032, 346.481611)"><g><path d="M 0.5 -1.5 C 1.488281 -1.59375 2.148438 -1.851562 2.484375 -2.28125 C 2.828125 -2.707031 3 -3.394531 3 -4.34375 L 3 -14.25 L 9.84375 -14.25 C 11.195312 -14.25 12.253906 -13.867188 13.015625 -13.109375 C 13.773438 -12.347656 14.15625 -11.148438 14.15625 -9.515625 L 14.15625 0 L 11.4375 0 L 11.4375 -9.640625 C 11.4375 -10.535156 11.238281 -11.179688 10.84375 -11.578125 C 10.457031 -11.972656 9.894531 -12.171875 9.15625 -12.171875 L 5.703125 -12.171875 L 5.703125 -4.640625 C 5.703125 -2.960938 5.3125 -1.742188 4.53125 -0.984375 C 3.757812 -0.222656 2.503906 0.238281 0.765625 0.40625 Z M 0.5 -1.5 "/></g></g></g><g fill="#000000" fill-opacity="1"><g transform="translate(185.674025, 346.481611)"><g><path d="M 1.78125 -11.28125 L 1.46875 -14.25 L 4.15625 -14.25 L 4.484375 -11.28125 L 4.484375 0 L 1.78125 0 Z M 1.78125 -11.28125 "/></g></g></g><g fill="#000000" fill-opacity="1"><g transform="translate(191.760902, 346.481611)"><g><path d="M 1.671875 -2.078125 L 6.265625 -2.078125 C 7.429688 -2.078125 8.351562 -2.421875 9.03125 -3.109375 C 9.707031 -3.804688 10.046875 -4.867188 10.046875 -6.296875 L 10.046875 -7.984375 C 10.046875 -9.316406 9.773438 -10.347656 9.234375 -11.078125 C 8.691406 -11.804688 7.878906 -12.171875 6.796875 -12.171875 L 4.515625 -12.171875 L 3.953125 -9.65625 C 3.867188 -9.269531 3.828125 -8.941406 3.828125 -8.671875 C 3.828125 -8.160156 3.96875 -7.765625 4.25 -7.484375 C 4.539062 -7.210938 5.019531 -7.007812 5.6875 -6.875 L 5.203125 -5.125 C 3.878906 -5.207031 2.914062 -5.539062 2.3125 -6.125 C 1.71875 -6.707031 1.421875 -7.515625 1.421875 -8.546875 C 1.421875 -9.035156 1.460938 -9.484375 1.546875 -9.890625 L 2.53125 -14.25 L 7.375 -14.25 C 9.070312 -14.25 10.390625 -13.691406 11.328125 -12.578125 C 12.273438 -11.460938 12.75 -9.898438 12.75 -7.890625 L 12.75 -6.421875 C 12.75 -4.304688 12.207031 -2.707031 11.125 -1.625 C 10.050781 -0.539062 8.617188 0 6.828125 0 L 1.671875 0 Z M 1.671875 -2.078125 "/></g></g></g><g fill="#000000" fill-opacity="1"><g transform="translate(205.65927, 346.481611)"><g><path d="M 13.515625 -8.234375 C 13.617188 -5.316406 12.722656 -3.203125 10.828125 -1.890625 C 8.929688 -0.578125 6.273438 0.132812 2.859375 0.25 L 1.390625 -12.171875 L 1.140625 -14.25 L 8.4375 -14.25 C 10.007812 -14.25 11.234375 -13.785156 12.109375 -12.859375 C 12.984375 -11.929688 13.441406 -10.660156 13.484375 -9.046875 Z M 5.25 -2.203125 C 7.144531 -2.367188 8.566406 -2.910156 9.515625 -3.828125 C 10.460938 -4.753906 10.898438 -6.242188 10.828125 -8.296875 L 10.828125 -8.984375 C 10.828125 -9.921875 10.597656 -10.6875 10.140625 -11.28125 C 9.679688 -11.875 9.046875 -12.171875 8.234375 -12.171875 L 4.109375 -12.171875 Z M 5.25 -2.203125 "/></g></g></g><g fill="#000000" fill-opacity="1"><g transform="translate(220.445301, 346.481611)"><g><path d="M 1.78125 -11.28125 L 1.46875 -14.25 L 4.15625 -14.25 L 4.484375 -11.28125 L 4.484375 0 L 1.78125 0 Z M 1.78125 -11.28125 "/></g></g></g><g fill="#000000" fill-opacity="1"><g transform="translate(226.532189, 346.481611)"><g><path d="M 1.109375 -2.078125 L 5.21875 -2.078125 L 5.21875 -10.046875 C 5.21875 -10.765625 5.070312 -11.289062 4.78125 -11.625 C 4.5 -11.957031 4.070312 -12.164062 3.5 -12.25 L 1.78125 -12.5 L 2.125 -14.5625 L 4.765625 -14.171875 C 5.785156 -14.023438 6.566406 -13.597656 7.109375 -12.890625 C 7.660156 -12.191406 7.9375 -11.257812 7.9375 -10.09375 L 7.9375 0 L 1.109375 0 Z M 1.109375 -2.078125 "/></g></g></g><g fill="#000000" fill-opacity="1"><g transform="translate(10.785426, 374.944976)"><g><path d="M 12.75 -14.25 C 12.75 -10.832031 12.617188 -8.265625 12.359375 -6.546875 C 12.097656 -4.835938 11.460938 -3.445312 10.453125 -2.375 C 9.453125 -1.300781 7.835938 -0.539062 5.609375 -0.09375 L 0.84375 0.84375 L 0.453125 -1.296875 L 4.75 -2.125 L 1.625 -14.25 L 4.34375 -14.25 L 7.171875 -2.765625 C 8.085938 -3.171875 8.75 -3.78125 9.15625 -4.59375 C 9.5625 -5.40625 9.8125 -6.429688 9.90625 -7.671875 C 10.007812 -8.910156 10.0625 -10.773438 10.0625 -13.265625 L 10.0625 -14.25 Z M 12.75 -14.25 "/></g></g></g><g fill="#000000" fill-opacity="1"><g transform="translate(24.759879, 374.944976)"><g><path d="M 1.109375 -2.078125 L 5.21875 -2.078125 L 5.21875 -10.046875 C 5.21875 -10.765625 5.070312 -11.289062 4.78125 -11.625 C 4.5 -11.957031 4.070312 -12.164062 3.5 -12.25 L 1.78125 -12.5 L 2.125 -14.5625 L 4.765625 -14.171875 C 5.785156 -14.023438 6.566406 -13.597656 7.109375 -12.890625 C 7.660156 -12.191406 7.9375 -11.257812 7.9375 -10.09375 L 7.9375 0 L 1.109375 0 Z M 1.109375 -2.078125 "/></g></g></g><g fill="#000000" fill-opacity="1"><g transform="translate(34.24526, 374.944976)"><g><path d="M 1.78125 -11.28125 L 1.46875 -14.25 L 4.15625 -14.25 L 4.484375 -11.28125 L 4.484375 0 L 1.78125 0 Z M 1.78125 -11.28125 "/></g></g></g><g fill="#000000" fill-opacity="1"><g transform="translate(40.332137, 374.944976)"><g><path d="M 14.609375 -7.171875 C 14.609375 -4.804688 14.082031 -2.96875 13.03125 -1.65625 C 11.988281 -0.351562 10.503906 0.296875 8.578125 0.296875 C 7.859375 0.296875 7.128906 0.210938 6.390625 0.046875 L 6.671875 -2.03125 C 7.316406 -1.894531 7.863281 -1.828125 8.3125 -1.828125 C 9.601562 -1.828125 10.539062 -2.273438 11.125 -3.171875 C 11.71875 -4.066406 12.015625 -5.375 12.015625 -7.09375 C 12.015625 -8.9375 11.734375 -10.257812 11.171875 -11.0625 C 10.609375 -11.875 9.800781 -12.28125 8.75 -12.28125 C 7.9375 -12.28125 7.269531 -12.046875 6.75 -11.578125 C 6.238281 -11.109375 5.898438 -10.488281 5.734375 -9.71875 L 4.03125 0 L 1.3125 0 L 3.140625 -9.8125 L 1.171875 -14.25 L 3.984375 -14.25 L 5.125 -11.265625 C 5.476562 -12.328125 6.019531 -13.125 6.75 -13.65625 C 7.476562 -14.1875 8.304688 -14.453125 9.234375 -14.453125 C 10.921875 -14.453125 12.238281 -13.863281 13.1875 -12.6875 C 14.132812 -11.519531 14.609375 -9.679688 14.609375 -7.171875 Z M 14.609375 -7.171875 "/></g></g></g><g fill="#000000" fill-opacity="1"><g transform="translate(56.081927, 374.944976)"><g><path d="M 14.609375 -7.171875 C 14.609375 -4.804688 14.082031 -2.96875 13.03125 -1.65625 C 11.988281 -0.351562 10.503906 0.296875 8.578125 0.296875 C 7.859375 0.296875 7.128906 0.210938 6.390625 0.046875 L 6.671875 -2.03125 C 7.316406 -1.894531 7.863281 -1.828125 8.3125 -1.828125 C 9.601562 -1.828125 10.539062 -2.273438 11.125 -3.171875 C 11.71875 -4.066406 12.015625 -5.375 12.015625 -7.09375 C 12.015625 -8.9375 11.734375 -10.257812 11.171875 -11.0625 C 10.609375 -11.875 9.800781 -12.28125 8.75 -12.28125 C 7.9375 -12.28125 7.269531 -12.046875 6.75 -11.578125 C 6.238281 -11.109375 5.898438 -10.488281 5.734375 -9.71875 L 4.03125 0 L 1.3125 0 L 3.140625 -9.8125 L 1.171875 -14.25 L 3.984375 -14.25 L 5.125 -11.265625 C 5.476562 -12.328125 6.019531 -13.125 6.75 -13.65625 C 7.476562 -14.1875 8.304688 -14.453125 9.234375 -14.453125 C 10.921875 -14.453125 12.238281 -13.863281 13.1875 -12.6875 C 14.132812 -11.519531 14.609375 -9.679688 14.609375 -7.171875 Z M 14.609375 -7.171875 "/></g></g></g><g fill="#000000" fill-opacity="1"><g transform="translate(71.831718, 374.944976)"><g/></g></g><g fill="#000000" fill-opacity="1"><g transform="translate(76.904112, 374.944976)"><g><path d="M 1.78125 -11.28125 L 1.46875 -14.25 L 4.15625 -14.25 L 4.484375 -11.28125 L 4.484375 0 L 1.78125 0 Z M 1.78125 -11.28125 "/></g></g></g><g fill="#000000" fill-opacity="1"><g transform="translate(82.990989, 374.944976)"><g><path d="M 1.109375 -2.078125 L 5.21875 -2.078125 L 5.21875 -10.046875 C 5.21875 -10.765625 5.070312 -11.289062 4.78125 -11.625 C 4.5 -11.957031 4.070312 -12.164062 3.5 -12.25 L 1.78125 -12.5 L 2.125 -14.5625 L 4.765625 -14.171875 C 5.785156 -14.023438 6.566406 -13.597656 7.109375 -12.890625 C 7.660156 -12.191406 7.9375 -11.257812 7.9375 -10.09375 L 7.9375 0 L 1.109375 0 Z M 1.109375 -2.078125 "/></g></g></g><g fill="#000000" fill-opacity="1"><g transform="translate(92.476369, 374.944976)"><g><path d="M 1.78125 -11.28125 L 1.46875 -14.25 L 4.15625 -14.25 L 4.484375 -11.28125 L 4.484375 -7.4375 L 4.46875 -5.828125 L 1.78125 -5.328125 Z M 1.78125 -11.28125 "/></g></g></g><g fill="#000000" fill-opacity="1"><g transform="translate(98.563246, 374.944976)"><g><path d="M 11.125 0 L 5.8125 -8.09375 L 3.296875 0 L 0.703125 0 L 3.5 -8.71875 L 4.203125 -10.53125 L 1.875 -14.25 L 4.640625 -14.25 L 6.765625 -10.828125 L 8.90625 -7.640625 L 9.53125 -9.84375 L 10.828125 -14.25 L 13.4375 -14.25 L 10.5 -5.28125 L 14.03125 0 Z M 11.125 0 "/></g></g></g><g fill="#000000" fill-opacity="1"><g transform="translate(113.425363, 374.944976)"><g><path d="M 15.3125 -10.34375 C 15.351562 -6.78125 14.359375 -4.113281 12.328125 -2.34375 C 10.296875 -0.582031 7.1875 0.28125 3 0.25 L 1.140625 -14.25 L 3.734375 -14.25 L 4.546875 -7.5 C 5.472656 -7.957031 6.101562 -8.554688 6.4375 -9.296875 C 6.78125 -10.046875 6.96875 -11.164062 7 -12.65625 L 7 -14.234375 L 9.578125 -14.234375 L 9.5625 -12.703125 C 9.53125 -10.847656 9.15625 -9.359375 8.4375 -8.234375 C 7.726562 -7.109375 6.515625 -6.195312 4.796875 -5.5 L 5.203125 -2.046875 C 7.753906 -2.222656 9.632812 -2.984375 10.84375 -4.328125 C 12.050781 -5.679688 12.644531 -7.644531 12.625 -10.21875 L 12.578125 -14.25 L 15.296875 -14.25 Z M 15.3125 -10.34375 "/></g></g></g><g fill="#000000" fill-opacity="1"><g transform="translate(129.961369, 374.944976)"><g/></g></g><g fill="#000000" fill-opacity="1"><g transform="translate(135.033762, 374.944976)"><g><path d="M 9 -14.25 C 10.351562 -14.25 11.410156 -13.867188 12.171875 -13.109375 C 12.929688 -12.347656 13.3125 -11.148438 13.3125 -9.515625 L 13.3125 0 L 1.640625 0 L 1.640625 -14.25 Z M 10.59375 -2.078125 L 10.59375 -9.640625 C 10.59375 -10.535156 10.398438 -11.179688 10.015625 -11.578125 C 9.628906 -11.972656 9.0625 -12.171875 8.3125 -12.171875 L 4.359375 -12.171875 L 4.359375 -2.078125 Z M 10.59375 -2.078125 "/></g></g></g><g fill="#000000" fill-opacity="1"><g transform="translate(149.870516, 374.944976)"><g><path d="M 1.78125 -11.28125 L 1.46875 -14.25 L 4.15625 -14.25 L 4.484375 -11.28125 L 4.484375 -7.4375 L 4.46875 -5.828125 L 1.78125 -5.328125 Z M 1.78125 -11.28125 "/></g></g></g><g fill="#000000" fill-opacity="1"><g transform="translate(155.957393, 374.944976)"><g><path d="M 11.3125 -14.25 L 11.3125 -12 L 6.5625 0 L 3.859375 0 L 8.59375 -12.171875 L 0.96875 -12.171875 L 0.96875 -18.1875 L 3.421875 -18.1875 L 3.421875 -14.25 Z M 11.3125 -14.25 "/></g></g></g><g fill="#000000" fill-opacity="1"><g transform="translate(168.283318, 374.944976)"><g><path d="M 6.34375 0 L 5.78125 -3.125 C 5.3125 -2.269531 4.726562 -1.550781 4.03125 -0.96875 C 3.34375 -0.382812 2.515625 0.0703125 1.546875 0.40625 L 0.5625 -1.75 C 1.726562 -2.15625 2.703125 -2.664062 3.484375 -3.28125 C 4.273438 -3.894531 4.894531 -4.671875 5.34375 -5.609375 L 5.34375 -10.046875 C 5.34375 -10.785156 5.242188 -11.316406 5.046875 -11.640625 C 4.859375 -11.972656 4.492188 -12.1875 3.953125 -12.28125 L 2.359375 -12.5 L 2.71875 -14.5625 L 5.21875 -14.203125 C 6.21875 -14.046875 6.941406 -13.65625 7.390625 -13.03125 C 7.835938 -12.40625 8.0625 -11.503906 8.0625 -10.328125 L 8.0625 -5.453125 L 8.921875 0 Z M 6.34375 0 "/></g></g></g><g fill="#000000" fill-opacity="1"><g transform="translate(178.301297, 374.944976)"><g><path d="M 11.3125 -14.25 L 11.3125 -12 L 6.5625 0 L 3.859375 0 L 8.59375 -12.171875 L 0.96875 -12.171875 L 0.96875 -18.1875 L 3.421875 -18.1875 L 3.421875 -14.25 Z M 11.3125 -14.25 "/></g></g></g><g fill="#000000" fill-opacity="1"><g transform="translate(190.627222, 374.944976)"><g><path d="M 6.34375 0 L 5.78125 -3.125 C 5.3125 -2.269531 4.726562 -1.550781 4.03125 -0.96875 C 3.34375 -0.382812 2.515625 0.0703125 1.546875 0.40625 L 0.5625 -1.75 C 1.726562 -2.15625 2.703125 -2.664062 3.484375 -3.28125 C 4.273438 -3.894531 4.894531 -4.671875 5.34375 -5.609375 L 5.34375 -10.046875 C 5.34375 -10.785156 5.242188 -11.316406 5.046875 -11.640625 C 4.859375 -11.972656 4.492188 -12.1875 3.953125 -12.28125 L 2.359375 -12.5 L 2.71875 -14.5625 L 5.21875 -14.203125 C 6.21875 -14.046875 6.941406 -13.65625 7.390625 -13.03125 C 7.835938 -12.40625 8.0625 -11.503906 8.0625 -10.328125 L 8.0625 -5.453125 L 8.921875 0 Z M 6.34375 0 "/></g></g></g><g fill="#000000" fill-opacity="1"><g transform="translate(200.6452, 374.944976)"><g/></g></g><g fill="#000000" fill-opacity="1"><g transform="translate(205.717594, 374.944976)"><g><path d="M 11.125 0 L 5.8125 -8.09375 L 3.296875 0 L 0.703125 0 L 3.5 -8.71875 L 4.203125 -10.53125 L 1.875 -14.25 L 4.640625 -14.25 L 6.765625 -10.828125 L 8.90625 -7.640625 L 9.53125 -9.84375 L 10.828125 -14.25 L 13.4375 -14.25 L 10.5 -5.28125 L 14.03125 0 Z M 11.125 0 "/></g></g></g><g fill="#000000" fill-opacity="1"><g transform="translate(220.579722, 374.944976)"><g><path d="M 13.515625 -8.234375 C 13.617188 -5.316406 12.722656 -3.203125 10.828125 -1.890625 C 8.929688 -0.578125 6.273438 0.132812 2.859375 0.25 L 1.390625 -12.171875 L 1.140625 -14.25 L 8.4375 -14.25 C 10.007812 -14.25 11.234375 -13.785156 12.109375 -12.859375 C 12.984375 -11.929688 13.441406 -10.660156 13.484375 -9.046875 Z M 5.25 -2.203125 C 7.144531 -2.367188 8.566406 -2.910156 9.515625 -3.828125 C 10.460938 -4.753906 10.898438 -6.242188 10.828125 -8.296875 L 10.828125 -8.984375 C 10.828125 -9.921875 10.597656 -10.6875 10.140625 -11.28125 C 9.679688 -11.875 9.046875 -12.171875 8.234375 -12.171875 L 4.109375 -12.171875 Z M 5.25 -2.203125 "/></g></g></g><g fill="#000000" fill-opacity="1"><g transform="translate(235.365729, 374.944976)"><g><path d="M 1.78125 -11.28125 L 1.46875 -14.25 L 4.15625 -14.25 L 4.484375 -11.28125 L 4.484375 -7.4375 L 4.46875 -5.828125 L 1.78125 -5.328125 Z M 1.78125 -11.28125 "/></g></g></g><g fill="#000000" fill-opacity="1"><g transform="translate(241.452606, 374.944976)"><g><path d="M 0.96875 -2.078125 L 4.609375 -2.078125 C 5.816406 -2.078125 6.710938 -2.441406 7.296875 -3.171875 C 7.890625 -3.898438 8.1875 -4.929688 8.1875 -6.265625 L 8.1875 -7.984375 C 8.1875 -9.316406 7.890625 -10.347656 7.296875 -11.078125 C 6.710938 -11.804688 5.816406 -12.171875 4.609375 -12.171875 L 0.96875 -12.171875 L 0.96875 -14.25 L 5.28125 -14.25 C 7.082031 -14.25 8.46875 -13.691406 9.4375 -12.578125 C 10.414062 -11.460938 10.90625 -9.890625 10.90625 -7.859375 L 10.90625 -6.390625 C 10.90625 -4.359375 10.414062 -2.785156 9.4375 -1.671875 C 8.46875 -0.554688 7.082031 0 5.28125 0 L 0.96875 0 Z M 0.96875 -2.078125 "/></g></g></g><g fill="#000000" fill-opacity="1"><g transform="translate(253.575637, 374.944976)"><g><path d="M 1.78125 -11.28125 L 1.46875 -14.25 L 4.15625 -14.25 L 4.484375 -11.28125 L 4.484375 0 L 1.78125 0 Z M 1.78125 -11.28125 "/></g></g></g><path fill="#4c8ca5" d="M 208.671875 44.398438 C 202.929688 44.492188 199.101562 46.335938 196.523438 50.425781 C 194.628906 53.425781 193.292969 57.285156 192.3125 61.714844 C 190.898438 68.140625 191.167969 71.296875 191.167969 77.78125 L 191.167969 153.542969 C 191.167969 155.183594 189.828125 156.519531 188.191406 156.519531 L 108.351562 156.519531 C 107.902344 162.457031 107.5 170.308594 107.316406 176.144531 C 105.886719 175.765625 104.386719 175.570312 102.835938 175.570312 C 101.289062 175.570312 99.796875 175.765625 98.371094 176.136719 C 98.820312 161.640625 100.386719 143.621094 102.078125 127.996094 C 98.75 128.390625 95.707031 129.714844 93.4375 134.03125 C 86.453125 147.3125 79.921875 160.875 73.394531 174.429688 C 70.144531 181.175781 66.894531 187.925781 63.503906 194.8125 L 55.484375 190.855469 C 58.75 184.222656 62.042969 177.378906 65.335938 170.542969 C 71.898438 156.910156 78.464844 143.28125 85.519531 129.867188 C 90.417969 120.554688 96.59375 119.121094 103.078125 118.921875 L 107.320312 79.691406 C 107.953125 73.800781 110.824219 70.1875 113.679688 67.800781 C 117.84375 64.3125 122.644531 63.863281 126.933594 63.863281 L 182.746094 63.863281 C 183.941406 56.269531 185.683594 50.855469 188.957031 45.660156 C 193.144531 39.015625 199.308594 35.613281 208.53125 35.464844 Z M 182.1875 144.578125 C 182.1875 146.214844 180.851562 147.550781 179.210938 147.550781 L 109.105469 147.550781 L 111.515625 124.894531 L 182.1875 124.894531 Z M 182.1875 86.039062 L 182.1875 72.835938 L 126.929688 72.835938 C 124.265625 72.835938 121.359375 73.046875 119.417969 74.671875 C 118.070312 75.800781 116.546875 77.621094 116.214844 80.746094 L 115.652344 86.039062 Z M 182.1875 86.039062 " fill-opacity="1" fill-rule="evenodd"/><path fill="#6f6f6f" d="M 127.003906 58.335938 L 176.894531 58.335938 C 180.011719 58.335938 182.574219 60.796875 182.738281 63.871094 L 126.929688 63.871094 C 125.070312 63.871094 123.113281 63.957031 121.152344 64.335938 L 121.152344 64.1875 C 121.152344 60.96875 123.789062 58.335938 127.003906 58.335938 Z M 127.003906 58.335938 " fill-opacity="1" fill-rule="evenodd"/><path fill="#112d51" d="M 210.230469 34.019531 L 233.386719 34.019531 C 235.542969 34.019531 237.300781 35.78125 237.300781 37.933594 L 237.300781 41.933594 C 237.300781 44.085938 235.542969 45.847656 233.386719 45.847656 L 210.230469 45.847656 C 208.078125 45.847656 206.3125 44.085938 206.3125 41.933594 L 206.3125 37.933594 C 206.3125 35.78125 208.070312 34.019531 210.230469 34.019531 Z M 210.230469 34.019531 " fill-opacity="1" fill-rule="evenodd"/><g clip-path="url(#cc99aeea76)"><path fill="#112d51" d="M 102.835938 175.574219 C 107.710938 175.574219 112.132812 177.550781 115.328125 180.75 C 118.523438 183.949219 120.503906 188.367188 120.503906 193.246094 C 120.503906 198.128906 118.523438 202.542969 115.328125 205.742188 C 112.132812 208.941406 107.710938 210.917969 102.835938 210.917969 C 97.960938 210.917969 93.539062 208.941406 90.339844 205.742188 C 87.144531 202.542969 85.164062 198.128906 85.164062 193.246094 C 85.164062 188.367188 87.144531 183.949219 90.339844 180.75 C 93.535156 177.550781 97.957031 175.574219 102.835938 175.574219 Z M 110.996094 185.082031 C 108.90625 182.996094 106.023438 181.703125 102.835938 181.703125 C 99.648438 181.703125 96.765625 182.996094 94.675781 185.082031 C 92.589844 187.171875 91.296875 190.054688 91.296875 193.242188 C 91.296875 196.429688 92.589844 199.3125 94.671875 201.402344 C 96.757812 203.488281 99.644531 204.78125 102.835938 204.78125 C 106.027344 204.78125 108.90625 203.488281 110.996094 201.402344 C 113.082031 199.3125 114.375 196.429688 114.375 193.242188 C 114.375 190.054688 113.082031 187.171875 110.996094 185.082031 Z M 110.996094 185.082031 " fill-opacity="1" fill-rule="nonzero"/></g><path fill="#6f6f6f" d="M 102.835938 186.914062 C 106.332031 186.914062 109.167969 189.75 109.167969 193.246094 C 109.167969 196.742188 106.332031 199.578125 102.835938 199.578125 C 99.339844 199.578125 96.503906 196.742188 96.503906 193.246094 C 96.503906 189.75 99.335938 186.914062 102.835938 186.914062 Z M 102.835938 186.914062 " fill-opacity="1" fill-rule="evenodd"/><path fill="#112d51" d="M 34.238281 174.195312 L 64.828125 189.113281 C 65.480469 189.429688 65.753906 190.222656 65.4375 190.875 L 61.25 199.46875 C 60.929688 200.121094 60.136719 200.394531 59.488281 200.078125 L 28.894531 185.15625 C 28.242188 184.839844 27.96875 184.046875 28.292969 183.398438 L 32.480469 174.804688 C 32.796875 174.152344 33.589844 173.878906 34.238281 174.195312 Z M 34.238281 174.195312 " fill-opacity="1" fill-rule="evenodd"/><g clip-path="url(#ded3e7bd86)"><path fill="#112d51" d="M 186.675781 96.222656 C 202.089844 96.222656 216.042969 102.472656 226.140625 112.570312 C 236.242188 122.671875 242.492188 136.625 242.492188 152.039062 C 242.492188 167.453125 236.242188 181.40625 226.140625 191.507812 C 216.042969 201.609375 202.089844 207.855469 186.675781 207.855469 C 171.261719 207.855469 157.308594 201.609375 147.207031 191.507812 C 137.105469 181.40625 130.855469 167.453125 130.855469 152.039062 C 130.855469 136.625 137.105469 122.671875 147.207031 112.570312 C 157.308594 102.472656 171.261719 96.222656 186.675781 96.222656 Z M 218.21875 120.496094 C 210.144531 112.425781 198.996094 107.4375 186.675781 107.4375 C 174.355469 107.4375 163.207031 112.425781 155.136719 120.5 C 147.066406 128.574219 142.070312 139.722656 142.070312 152.039062 C 142.070312 164.355469 147.066406 175.511719 155.136719 183.578125 C 163.207031 191.648438 174.359375 196.640625 186.675781 196.640625 C 198.992188 196.640625 210.144531 191.644531 218.21875 183.578125 C 226.289062 175.507812 231.285156 164.355469 231.285156 152.039062 C 231.285156 139.722656 226.292969 128.574219 218.21875 120.5 Z M 218.21875 120.496094 " fill-opacity="1" fill-rule="nonzero"/></g><path fill="#112d51" d="M 204.867188 111.277344 L 190.132812 146.859375 L 217.355469 119.636719 L 219.078125 121.359375 L 192.058594 148.371094 L 227.105469 133.136719 L 228.074219 135.355469 L 228.074219 135.359375 L 192.511719 150.820312 L 231.277344 150.820312 L 231.277344 153.25 L 192.507812 153.25 L 228.074219 168.714844 L 227.105469 170.9375 L 192.054688 155.695312 L 219.074219 182.71875 L 217.355469 184.433594 L 190.128906 157.207031 L 204.867188 192.796875 L 202.632812 193.714844 L 187.886719 158.128906 L 187.886719 196.640625 L 185.457031 196.640625 L 185.457031 158.148438 L 170.722656 193.714844 L 168.480469 192.796875 L 183.21875 157.210938 L 155.992188 184.4375 L 155.992188 184.433594 L 154.277344 182.71875 L 181.296875 155.699219 L 146.246094 170.941406 L 145.277344 168.714844 L 180.84375 153.25 L 142.070312 153.25 L 142.070312 150.820312 L 180.839844 150.820312 L 145.277344 135.355469 L 146.246094 133.136719 L 181.296875 148.378906 L 154.277344 121.355469 L 155.992188 119.636719 L 183.222656 146.863281 L 168.480469 111.277344 L 170.722656 110.355469 L 185.457031 145.933594 L 185.457031 107.4375 L 187.886719 107.4375 L 187.886719 145.941406 L 202.625 110.355469 L 202.632812 110.355469 Z M 204.867188 111.277344 " fill-opacity="1" fill-rule="nonzero"/><path fill="#6f6f6f" d="M 186.675781 142.039062 C 192.195312 142.039062 196.667969 146.515625 196.667969 152.035156 C 196.667969 157.554688 192.195312 162.03125 186.675781 162.03125 C 181.152344 162.03125 176.679688 157.554688 176.679688 152.035156 C 176.679688 146.515625 181.152344 142.039062 186.675781 142.039062 Z M 186.675781 142.039062 " fill-opacity="1" fill-rule="evenodd"/><g clip-path="url(#628ad07c4f)"><path fill="#062654" d="M 28.003906 125.863281 L 86.128906 125.863281 L 86.128906 204.140625 L 28.003906 204.140625 Z M 28.003906 125.863281 " fill-opacity="1" fill-rule="nonzero"/></g><path fill="#d67792" d="M 55.886719 162.503906 L 53.660156 142.097656 L 50.34375 172.476562 L 58.234375 167.496094 L 60.46875 187.910156 L 63.785156 157.523438 Z M 55.886719 162.503906 " fill-opacity="1" fill-rule="nonzero"/><g clip-path="url(#34a196eff0)"><path fill="#d67792" d="M 86.125 113.546875 L 86.125 125.859375 L 28.003906 125.859375 L 28.003906 113.546875 C 28.003906 111.144531 29.964844 109.183594 32.363281 109.183594 L 81.765625 109.183594 C 84.164062 109.183594 86.125 111.144531 86.125 113.546875 Z M 86.125 113.546875 " fill-opacity="1" fill-rule="nonzero"/></g><path fill="#062654" d="M 61.367188 116.449219 L 58.140625 116.449219 L 58.140625 113.226562 L 55.996094 113.226562 L 55.996094 116.449219 L 52.765625 116.449219 L 52.765625 118.597656 L 55.996094 118.597656 L 55.996094 121.824219 L 58.140625 121.824219 L 58.140625 118.597656 L 61.367188 118.597656 Z M 61.367188 116.449219 " fill-opacity="1" fill-rule="nonzero"/><g clip-path="url(#1ff0cc411c)"><path fill="#d67792" d="M 86.125 206.539062 L 86.125 204.140625 L 28.003906 204.140625 L 28.003906 206.539062 C 28.003906 208.941406 29.964844 210.902344 32.363281 210.902344 L 81.765625 210.902344 C 84.164062 210.902344 86.125 208.941406 86.125 206.539062 Z M 86.125 206.539062 " fill-opacity="1" fill-rule="nonzero"/></g><g clip-path="url(#9ef1b68fd3)"><path fill="#bcd4e8" d="M 49.800781 109.183594 L 64.328125 109.183594 L 64.328125 106.277344 C 64.328125 105.539062 64.042969 104.792969 63.476562 104.222656 C 62.90625 103.65625 62.167969 103.371094 61.421875 103.371094 L 52.703125 103.371094 C 51.960938 103.371094 51.21875 103.660156 50.648438 104.222656 C 50.082031 104.792969 49.796875 105.539062 49.796875 106.277344 L 49.796875 109.183594 Z M 49.800781 109.183594 " fill-opacity="1" fill-rule="nonzero"/></g><path fill="#39527b" d="M 32.363281 125.863281 L 37.105469 125.863281 L 37.105469 204.140625 L 32.363281 204.140625 Z M 32.363281 125.863281 " fill-opacity="1" fill-rule="nonzero"/><path fill="#f7b7d2" d="M 32.363281 109.136719 L 37.105469 109.136719 L 37.105469 125.863281 L 32.363281 125.863281 Z M 32.363281 109.136719 " fill-opacity="1" fill-rule="nonzero"/><path fill="#f7b7d2" d="M 32.363281 204.140625 L 37.105469 204.140625 L 37.105469 210.902344 L 32.363281 210.902344 Z M 32.363281 204.140625 " fill-opacity="1" fill-rule="nonzero"/></svg>