<svg xmlns="http://www.w3.org/2000/svg" xmlns:xlink="http://www.w3.org/1999/xlink" width="361" zoomAndPan="magnify" viewBox="0 0 270.75 278.250005" height="371" preserveAspectRatio="xMidYMid meet" version="1.0"><defs><g/></defs><g fill="#000000" fill-opacity="1"><g transform="translate(16.593675, 233.756784)"><g><path d="M 8.984375 -14.234375 C 10.335938 -14.234375 11.394531 -13.851562 12.15625 -13.09375 C 12.914062 -12.332031 13.296875 -11.132812 13.296875 -9.5 L 13.296875 0 L 1.640625 0 L 1.640625 -14.234375 Z M 10.59375 -2.078125 L 10.59375 -9.625 C 10.59375 -10.519531 10.394531 -11.164062 10 -11.5625 C 9.613281 -11.957031 9.050781 -12.15625 8.3125 -12.15625 L 4.359375 -12.15625 L 4.359375 -2.078125 Z M 10.59375 -2.078125 "/></g></g></g><g fill="#000000" fill-opacity="1"><g transform="translate(31.40959, 233.756784)"><g><path d="M 1.765625 -11.265625 L 1.46875 -14.234375 L 4.15625 -14.234375 L 4.484375 -11.265625 L 4.484375 -7.421875 L 4.453125 -5.828125 L 1.765625 -5.3125 Z M 1.765625 -11.265625 "/></g></g></g><g fill="#000000" fill-opacity="1"><g transform="translate(37.487917, 233.756784)"><g><path d="M 1.765625 -11.265625 L 1.46875 -14.234375 L 4.15625 -14.234375 L 4.484375 -11.265625 L 4.484375 -7.421875 L 4.453125 -5.828125 L 1.765625 -5.3125 Z M 1.765625 -11.265625 "/></g></g></g><g fill="#000000" fill-opacity="1"><g transform="translate(43.566245, 233.756784)"><g><path d="M 11.296875 -14.234375 L 11.296875 -11.984375 L 6.5625 0 L 3.84375 0 L 8.59375 -12.15625 L 0.96875 -12.15625 L 0.96875 -18.15625 L 3.421875 -18.15625 L 3.421875 -14.234375 Z M 11.296875 -14.234375 "/></g></g></g><g fill="#000000" fill-opacity="1"><g transform="translate(55.874857, 233.756784)"><g><path d="M 14.59375 -7.171875 C 14.59375 -4.804688 14.066406 -2.96875 13.015625 -1.65625 C 11.972656 -0.351562 10.488281 0.296875 8.5625 0.296875 C 7.851562 0.296875 7.125 0.210938 6.375 0.046875 L 6.65625 -2.03125 C 7.300781 -1.894531 7.851562 -1.828125 8.3125 -1.828125 C 9.59375 -1.828125 10.523438 -2.273438 11.109375 -3.171875 C 11.703125 -4.066406 12 -5.375 12 -7.09375 C 12 -8.9375 11.71875 -10.257812 11.15625 -11.0625 C 10.59375 -11.863281 9.785156 -12.265625 8.734375 -12.265625 C 7.921875 -12.265625 7.257812 -12.03125 6.75 -11.5625 C 6.238281 -11.09375 5.894531 -10.472656 5.71875 -9.703125 L 4.03125 0 L 1.3125 0 L 3.140625 -9.796875 L 1.171875 -14.234375 L 3.96875 -14.234375 L 5.109375 -11.25 C 5.460938 -12.3125 6.003906 -13.109375 6.734375 -13.640625 C 7.460938 -14.171875 8.289062 -14.4375 9.21875 -14.4375 C 10.90625 -14.4375 12.222656 -13.847656 13.171875 -12.671875 C 14.117188 -11.503906 14.59375 -9.671875 14.59375 -7.171875 Z M 14.59375 -7.171875 "/></g></g></g><g fill="#000000" fill-opacity="1"><g transform="translate(71.602526, 233.756784)"><g><path d="M 15.296875 -10.328125 C 15.328125 -6.765625 14.328125 -4.101562 12.296875 -2.34375 C 10.273438 -0.582031 7.171875 0.28125 2.984375 0.25 L 1.140625 -14.234375 L 3.71875 -14.234375 L 4.53125 -7.5 C 5.457031 -7.957031 6.085938 -8.554688 6.421875 -9.296875 C 6.765625 -10.035156 6.953125 -11.148438 6.984375 -12.640625 L 6.984375 -14.203125 L 9.578125 -14.203125 L 9.546875 -12.6875 C 9.515625 -10.832031 9.144531 -9.34375 8.4375 -8.21875 C 7.726562 -7.09375 6.507812 -6.1875 4.78125 -5.5 L 5.1875 -2.046875 C 7.738281 -2.222656 9.617188 -2.984375 10.828125 -4.328125 C 12.035156 -5.679688 12.628906 -7.640625 12.609375 -10.203125 L 12.5625 -14.234375 L 15.265625 -14.234375 Z M 15.296875 -10.328125 "/></g></g></g><g fill="#000000" fill-opacity="1"><g transform="translate(88.115305, 233.756784)"><g><path d="M 8.78125 -14.234375 C 10.15625 -14.234375 11.21875 -13.816406 11.96875 -12.984375 C 12.71875 -12.160156 13.09375 -10.914062 13.09375 -9.25 L 13.09375 0 L 10.390625 0 L 10.390625 -9.375 C 10.390625 -11.226562 9.628906 -12.15625 8.109375 -12.15625 L 4.203125 -12.15625 L 4.203125 0 L 1.5 0 L 1.5 -14.234375 Z M 8.78125 -14.234375 "/></g></g></g><g fill="#000000" fill-opacity="1"><g transform="translate(102.753937, 233.756784)"><g/></g></g><g fill="#000000" fill-opacity="1"><g transform="translate(107.819206, 233.756784)"><g><path d="M 11.125 0 L 5.796875 -8.078125 L 3.296875 0 L 0.703125 0 L 3.5 -8.71875 L 4.203125 -10.515625 L 1.875 -14.234375 L 4.640625 -14.234375 L 6.765625 -10.8125 L 8.890625 -7.625 L 9.515625 -9.828125 L 10.8125 -14.234375 L 13.421875 -14.234375 L 10.484375 -5.265625 L 14 0 Z M 11.125 0 "/></g></g></g><g fill="#000000" fill-opacity="1"><g transform="translate(122.660448, 233.756784)"><g><path d="M 11.296875 -14.234375 L 11.296875 -11.984375 L 6.5625 0 L 3.84375 0 L 8.59375 -12.15625 L 0.96875 -12.15625 L 0.96875 -18.15625 L 3.421875 -18.15625 L 3.421875 -14.234375 Z M 11.296875 -14.234375 "/></g></g></g><g fill="#000000" fill-opacity="1"><g transform="translate(134.96906, 233.756784)"><g><path d="M 1.03125 3.78125 C 1.976562 2.1875 2.6875 0.46875 3.15625 -1.375 C 3.632812 -3.226562 3.875 -5.117188 3.875 -7.046875 C 3.875 -8.960938 3.632812 -10.84375 3.15625 -12.6875 C 2.6875 -14.539062 1.976562 -16.265625 1.03125 -17.859375 L 2.640625 -18.5625 C 3.734375 -16.769531 4.5625 -14.9375 5.125 -13.0625 C 5.695312 -11.195312 5.984375 -9.191406 5.984375 -7.046875 C 5.984375 -4.898438 5.695312 -2.890625 5.125 -1.015625 C 4.5625 0.859375 3.734375 2.691406 2.640625 4.484375 Z M 1.03125 3.78125 "/></g></g></g><g fill="#000000" fill-opacity="1"><g transform="translate(142.946862, 233.756784)"><g/></g></g><g fill="#000000" fill-opacity="1"><g transform="translate(148.012131, 233.756784)"><g><path d="M 9.984375 -9.625 C 9.984375 -10.519531 9.785156 -11.164062 9.390625 -11.5625 C 9.003906 -11.957031 8.441406 -12.15625 7.703125 -12.15625 L 1.46875 -12.15625 L 1.46875 -14.234375 L 8.390625 -14.234375 C 9.734375 -14.234375 10.785156 -13.851562 11.546875 -13.09375 C 12.304688 -12.332031 12.6875 -11.132812 12.6875 -9.5 L 12.6875 0 L 9.984375 0 Z M 1.390625 -6.890625 L 1.765625 -8.59375 L 4.109375 -8.59375 L 4.109375 0 L 1.390625 0 Z M 1.390625 -6.890625 "/></g></g></g><g fill="#000000" fill-opacity="1"><g transform="translate(162.144239, 233.756784)"><g><path d="M 12.734375 -14.234375 C 12.734375 -10.828125 12.601562 -8.265625 12.34375 -6.546875 C 12.082031 -4.828125 11.445312 -3.429688 10.4375 -2.359375 C 9.4375 -1.296875 7.820312 -0.539062 5.59375 -0.09375 L 0.828125 0.828125 L 0.453125 -1.296875 L 4.734375 -2.125 L 1.625 -14.234375 L 4.328125 -14.234375 L 7.171875 -2.765625 C 8.078125 -3.171875 8.734375 -3.773438 9.140625 -4.578125 C 9.546875 -5.390625 9.800781 -6.414062 9.90625 -7.65625 C 10.007812 -8.894531 10.0625 -10.757812 10.0625 -13.25 L 10.0625 -14.234375 Z M 12.734375 -14.234375 "/></g></g></g><g fill="#000000" fill-opacity="1"><g transform="translate(176.099064, 233.756784)"><g><path d="M 1.765625 -11.265625 L 1.46875 -14.234375 L 4.15625 -14.234375 L 4.484375 -11.265625 L 4.484375 0 L 1.765625 0 Z M 1.765625 -11.265625 "/></g></g></g><g fill="#000000" fill-opacity="1"><g transform="translate(182.177391, 233.756784)"><g><path d="M 1.109375 -2.078125 L 5.21875 -2.078125 L 5.21875 -10.03125 C 5.21875 -10.757812 5.070312 -11.285156 4.78125 -11.609375 C 4.5 -11.941406 4.070312 -12.148438 3.5 -12.234375 L 1.765625 -12.484375 L 2.125 -14.53125 L 4.765625 -14.15625 C 5.773438 -14.007812 6.550781 -13.582031 7.09375 -12.875 C 7.644531 -12.175781 7.921875 -11.242188 7.921875 -10.078125 L 7.921875 0 L 1.109375 0 Z M 1.109375 -2.078125 "/></g></g></g><g fill="#000000" fill-opacity="1"><g transform="translate(191.649449, 233.756784)"><g><path d="M 0.5 -1.5 C 1.476562 -1.59375 2.132812 -1.847656 2.46875 -2.265625 C 2.8125 -2.691406 2.984375 -3.378906 2.984375 -4.328125 L 2.984375 -14.234375 L 9.828125 -14.234375 C 11.179688 -14.234375 12.238281 -13.851562 13 -13.09375 C 13.757812 -12.332031 14.140625 -11.132812 14.140625 -9.5 L 14.140625 0 L 11.421875 0 L 11.421875 -9.625 C 11.421875 -10.519531 11.226562 -11.164062 10.84375 -11.5625 C 10.457031 -11.957031 9.890625 -12.15625 9.140625 -12.15625 L 5.703125 -12.15625 L 5.703125 -4.640625 C 5.703125 -2.960938 5.3125 -1.742188 4.53125 -0.984375 C 3.757812 -0.222656 2.503906 0.238281 0.765625 0.40625 Z M 0.5 -1.5 "/></g></g></g><g fill="#000000" fill-opacity="1"><g transform="translate(207.301139, 233.756784)"><g/></g></g><g fill="#000000" fill-opacity="1"><g transform="translate(212.366397, 233.756784)"><g><path d="M 1.765625 -11.265625 L 1.46875 -14.234375 L 4.15625 -14.234375 L 4.484375 -11.265625 L 4.484375 -7.421875 L 4.453125 -5.828125 L 1.765625 -5.3125 Z M 1.765625 -11.265625 "/></g></g></g><g fill="#000000" fill-opacity="1"><g transform="translate(218.444724, 233.756784)"><g><path d="M 7.859375 -9.625 C 7.859375 -10.519531 7.660156 -11.164062 7.265625 -11.5625 C 6.878906 -11.957031 6.316406 -12.15625 5.578125 -12.15625 L 0.890625 -12.15625 L 0.890625 -14.234375 L 6.25 -14.234375 C 7.601562 -14.234375 8.660156 -13.851562 9.421875 -13.09375 C 10.179688 -12.332031 10.5625 -11.132812 10.5625 -9.5 L 10.5625 0 L 7.859375 0 Z M 7.859375 -9.625 "/></g></g></g><g fill="#000000" fill-opacity="1"><g transform="translate(230.601379, 233.756784)"><g><path d="M 2.9375 -9.1875 C 2.9375 -10.507812 3.171875 -11.5 3.640625 -12.15625 L 1.21875 -12.15625 L 1.21875 -14.234375 L 8.109375 -14.234375 L 8.109375 -12.15625 L 6.125 -12.15625 C 5.925781 -11.769531 5.796875 -11.332031 5.734375 -10.84375 C 5.671875 -10.363281 5.640625 -9.8125 5.640625 -9.1875 L 5.640625 0 L 2.9375 0 Z M 2.9375 -9.1875 "/></g></g></g><g fill="#000000" fill-opacity="1"><g transform="translate(239.896165, 233.756784)"><g><path d="M 12.734375 -14.234375 C 12.734375 -10.828125 12.601562 -8.265625 12.34375 -6.546875 C 12.082031 -4.828125 11.445312 -3.429688 10.4375 -2.359375 C 9.4375 -1.296875 7.820312 -0.539062 5.59375 -0.09375 L 0.828125 0.828125 L 0.453125 -1.296875 L 4.734375 -2.125 L 1.625 -14.234375 L 4.328125 -14.234375 L 7.171875 -2.765625 C 8.078125 -3.171875 8.734375 -3.773438 9.140625 -4.578125 C 9.546875 -5.390625 9.800781 -6.414062 9.90625 -7.65625 C 10.007812 -8.894531 10.0625 -10.757812 10.0625 -13.25 L 10.0625 -14.234375 Z M 12.734375 -14.234375 "/></g></g></g><g fill="#000000" fill-opacity="1"><g transform="translate(77.308927, 262.18017)"><g><path d="M 5.34375 4.484375 C 4.25 2.691406 3.414062 0.859375 2.84375 -1.015625 C 2.28125 -2.890625 2 -4.898438 2 -7.046875 C 2 -9.191406 2.28125 -11.195312 2.84375 -13.0625 C 3.414062 -14.9375 4.25 -16.769531 5.34375 -18.5625 L 6.9375 -17.859375 C 5.988281 -16.265625 5.28125 -14.539062 4.8125 -12.6875 C 4.34375 -10.84375 4.109375 -8.960938 4.109375 -7.046875 C 4.109375 -5.117188 4.34375 -3.226562 4.8125 -1.375 C 5.28125 0.46875 5.988281 2.1875 6.9375 3.78125 Z M 5.34375 4.484375 "/></g></g></g><g fill="#000000" fill-opacity="1"><g transform="translate(85.286729, 262.18017)"><g><path d="M 8.984375 -14.234375 C 10.335938 -14.234375 11.394531 -13.851562 12.15625 -13.09375 C 12.914062 -12.332031 13.296875 -11.132812 13.296875 -9.5 L 13.296875 0 L 1.640625 0 L 1.640625 -14.234375 Z M 10.59375 -2.078125 L 10.59375 -9.625 C 10.59375 -10.519531 10.394531 -11.164062 10 -11.5625 C 9.613281 -11.957031 9.050781 -12.15625 8.3125 -12.15625 L 4.359375 -12.15625 L 4.359375 -2.078125 Z M 10.59375 -2.078125 "/></g></g></g><g fill="#000000" fill-opacity="1"><g transform="translate(100.102644, 262.18017)"><g><path d="M 1.765625 -11.265625 L 1.46875 -14.234375 L 4.15625 -14.234375 L 4.484375 -11.265625 L 4.484375 -7.421875 L 4.453125 -5.828125 L 1.765625 -5.3125 Z M 1.765625 -11.265625 "/></g></g></g><g fill="#000000" fill-opacity="1"><g transform="translate(106.180971, 262.18017)"><g><path d="M 12.734375 -14.234375 C 12.734375 -10.828125 12.601562 -8.265625 12.34375 -6.546875 C 12.082031 -4.828125 11.445312 -3.429688 10.4375 -2.359375 C 9.4375 -1.296875 7.820312 -0.539062 5.59375 -0.09375 L 0.828125 0.828125 L 0.453125 -1.296875 L 4.734375 -2.125 L 1.625 -14.234375 L 4.328125 -14.234375 L 7.171875 -2.765625 C 8.078125 -3.171875 8.734375 -3.773438 9.140625 -4.578125 C 9.546875 -5.390625 9.800781 -6.414062 9.90625 -7.65625 C 10.007812 -8.894531 10.0625 -10.757812 10.0625 -13.25 L 10.0625 -14.234375 Z M 12.734375 -14.234375 "/></g></g></g><g fill="#000000" fill-opacity="1"><g transform="translate(120.135796, 262.18017)"><g><path d="M 1.109375 -2.078125 L 5.21875 -2.078125 L 5.21875 -10.03125 C 5.21875 -10.757812 5.070312 -11.285156 4.78125 -11.609375 C 4.5 -11.941406 4.070312 -12.148438 3.5 -12.234375 L 1.765625 -12.484375 L 2.125 -14.53125 L 4.765625 -14.15625 C 5.773438 -14.007812 6.550781 -13.582031 7.09375 -12.875 C 7.644531 -12.175781 7.921875 -11.242188 7.921875 -10.078125 L 7.921875 0 L 1.109375 0 Z M 1.109375 -2.078125 "/></g></g></g><g fill="#000000" fill-opacity="1"><g transform="translate(129.607854, 262.18017)"><g><path d="M 1.765625 -11.265625 L 1.46875 -14.234375 L 4.15625 -14.234375 L 4.484375 -11.265625 L 4.484375 0 L 1.765625 0 Z M 1.765625 -11.265625 "/></g></g></g><g fill="#000000" fill-opacity="1"><g transform="translate(135.686182, 262.18017)"><g><path d="M 14.59375 -7.171875 C 14.59375 -4.804688 14.066406 -2.96875 13.015625 -1.65625 C 11.972656 -0.351562 10.488281 0.296875 8.5625 0.296875 C 7.851562 0.296875 7.125 0.210938 6.375 0.046875 L 6.65625 -2.03125 C 7.300781 -1.894531 7.851562 -1.828125 8.3125 -1.828125 C 9.59375 -1.828125 10.523438 -2.273438 11.109375 -3.171875 C 11.703125 -4.066406 12 -5.375 12 -7.09375 C 12 -8.9375 11.71875 -10.257812 11.15625 -11.0625 C 10.59375 -11.863281 9.785156 -12.265625 8.734375 -12.265625 C 7.921875 -12.265625 7.257812 -12.03125 6.75 -11.5625 C 6.238281 -11.09375 5.894531 -10.472656 5.71875 -9.703125 L 4.03125 0 L 1.3125 0 L 3.140625 -9.796875 L 1.171875 -14.234375 L 3.96875 -14.234375 L 5.109375 -11.25 C 5.460938 -12.3125 6.003906 -13.109375 6.734375 -13.640625 C 7.460938 -14.171875 8.289062 -14.4375 9.21875 -14.4375 C 10.90625 -14.4375 12.222656 -13.847656 13.171875 -12.671875 C 14.117188 -11.503906 14.59375 -9.671875 14.59375 -7.171875 Z M 14.59375 -7.171875 "/></g></g></g><g fill="#000000" fill-opacity="1"><g transform="translate(151.41385, 262.18017)"><g><path d="M 14.59375 -7.171875 C 14.59375 -4.804688 14.066406 -2.96875 13.015625 -1.65625 C 11.972656 -0.351562 10.488281 0.296875 8.5625 0.296875 C 7.851562 0.296875 7.125 0.210938 6.375 0.046875 L 6.65625 -2.03125 C 7.300781 -1.894531 7.851562 -1.828125 8.3125 -1.828125 C 9.59375 -1.828125 10.523438 -2.273438 11.109375 -3.171875 C 11.703125 -4.066406 12 -5.375 12 -7.09375 C 12 -8.9375 11.71875 -10.257812 11.15625 -11.0625 C 10.59375 -11.863281 9.785156 -12.265625 8.734375 -12.265625 C 7.921875 -12.265625 7.257812 -12.03125 6.75 -11.5625 C 6.238281 -11.09375 5.894531 -10.472656 5.71875 -9.703125 L 4.03125 0 L 1.3125 0 L 3.140625 -9.796875 L 1.171875 -14.234375 L 3.96875 -14.234375 L 5.109375 -11.25 C 5.460938 -12.3125 6.003906 -13.109375 6.734375 -13.640625 C 7.460938 -14.171875 8.289062 -14.4375 9.21875 -14.4375 C 10.90625 -14.4375 12.222656 -13.847656 13.171875 -12.671875 C 14.117188 -11.503906 14.59375 -9.671875 14.59375 -7.171875 Z M 14.59375 -7.171875 "/></g></g></g><g fill="#000000" fill-opacity="1"><g transform="translate(167.141519, 262.18017)"><g/></g></g><g fill="#000000" fill-opacity="1"><g transform="translate(172.206788, 262.18017)"><g><path d="M 1.765625 -11.265625 L 1.46875 -14.234375 L 4.15625 -14.234375 L 4.484375 -11.265625 L 4.484375 0 L 1.765625 0 Z M 1.765625 -11.265625 "/></g></g></g><g fill="#000000" fill-opacity="1"><g transform="translate(178.285116, 262.18017)"><g><path d="M 11.125 0 L 5.796875 -8.078125 L 3.296875 0 L 0.703125 0 L 3.5 -8.71875 L 4.203125 -10.515625 L 1.875 -14.234375 L 4.640625 -14.234375 L 6.765625 -10.8125 L 8.890625 -7.625 L 9.515625 -9.828125 L 10.8125 -14.234375 L 13.421875 -14.234375 L 10.484375 -5.265625 L 14 0 Z M 11.125 0 "/></g></g></g><path fill="#ccd6dd" d="M 173.042969 49.613281 L 179.554688 56.121094 L 81.828125 153.855469 L 75.3125 147.339844 Z M 45.988281 183.175781 C 44.195312 181.382812 44.195312 178.453125 45.988281 176.660156 L 65.535156 157.113281 C 67.328125 155.320312 70.257812 155.320312 72.050781 157.113281 C 73.84375 158.910156 73.84375 161.835938 72.050781 163.628906 L 52.503906 183.175781 C 50.710938 184.964844 47.785156 184.964844 45.988281 183.175781 Z M 45.988281 183.175781 " fill-opacity="1" fill-rule="nonzero"/><path fill="#d67792" d="M 81.820312 140.824219 L 88.335938 147.339844 L 62.277344 173.402344 L 55.765625 166.878906 Z M 81.820312 140.824219 " fill-opacity="1" fill-rule="nonzero"/><path fill="#112d51" d="M 169.785156 59.382812 C 167.988281 57.589844 167.988281 54.660156 169.785156 52.867188 L 189.328125 33.320312 C 191.125 31.527344 194.050781 31.527344 195.84375 33.320312 C 197.640625 35.113281 197.640625 38.042969 195.84375 39.835938 L 176.300781 59.382812 C 174.503906 61.175781 171.570312 61.175781 169.785156 59.382812 Z M 169.785156 59.382812 " fill-opacity="1" fill-rule="nonzero"/><path fill="#112d51" d="M 173.839844 63.441406 L 165.726562 55.324219 C 164.734375 54.332031 164.734375 52.703125 165.726562 51.710938 L 168.628906 48.808594 C 169.621094 47.816406 171.25 47.816406 172.242188 48.808594 L 180.355469 56.925781 C 181.347656 57.914062 181.347656 59.546875 180.355469 60.539062 L 177.453125 63.441406 C 176.457031 64.429688 174.832031 64.429688 173.839844 63.441406 Z M 209.222656 46.785156 C 201.421875 45.6875 193.679688 39.199219 193.3125 38.890625 L 191.632812 37.46875 L 192.96875 35.734375 C 198.28125 28.8125 212.667969 25.648438 220.390625 29.65625 C 226.203125 32.675781 226.414062 36.390625 226.027344 38.332031 C 225.132812 42.789062 219.570312 46.3125 212.496094 46.902344 C 211.421875 46.984375 210.324219 46.9375 209.222656 46.785156 Z M 198.246094 36.878906 C 201.640625 39.300781 207.523438 42.671875 212.109375 42.304688 C 217.230469 41.875 221.105469 39.433594 221.507812 37.425781 C 221.835938 35.785156 219.347656 34.296875 218.265625 33.738281 C 213.046875 31.011719 203.203125 32.773438 198.246094 36.878906 Z M 198.246094 36.878906 " fill-opacity="1" fill-rule="nonzero"/></svg>