<svg xmlns="http://www.w3.org/2000/svg" xmlns:xlink="http://www.w3.org/1999/xlink" width="361" zoomAndPan="magnify" viewBox="0 0 270.75 338.999992" height="452" preserveAspectRatio="xMidYMid meet" version="1.0"><defs><g/><clipPath id="7a4aa933ed"><path d="M 134 193 L 182 193 L 182 211.417969 L 134 211.417969 Z M 134 193 " clip-rule="nonzero"/></clipPath><clipPath id="2c17f4145a"><path d="M 91 192 L 137 192 L 137 211.417969 L 91 211.417969 Z M 91 192 " clip-rule="nonzero"/></clipPath><clipPath id="851c389d41"><path d="M 37.320312 146 L 52 146 L 52 157 L 37.320312 157 Z M 37.320312 146 " clip-rule="nonzero"/></clipPath><clipPath id="aeb6d8cbe5"><path d="M 219 146 L 232.890625 146 L 232.890625 157 L 219 157 Z M 219 146 " clip-rule="nonzero"/></clipPath><clipPath id="22d3a33867"><path d="M 127.070312 74.394531 L 144.835938 74.394531 L 144.835938 88.308594 L 127.070312 88.308594 Z M 127.070312 74.394531 " clip-rule="nonzero"/></clipPath><clipPath id="18268c75ed"><path d="M 127.480469 74.433594 C 127.296875 76.753906 127.105469 87.5 127.105469 89.828125 C 127.105469 90.476562 129.398438 97.507812 135.953125 97.605469 C 142.195312 97.695312 144.347656 90.5625 144.5 90.339844 C 144.667969 90.085938 144.722656 77.558594 144.808594 74.824219 Z M 127.480469 74.433594 " clip-rule="nonzero"/></clipPath><clipPath id="efee2bc442"><path d="M 120.988281 51.902344 L 150.941406 51.902344 L 150.941406 78.25 L 120.988281 78.25 Z M 120.988281 51.902344 " clip-rule="nonzero"/></clipPath><clipPath id="02b16a84b3"><path d="M 135.914062 51.902344 C 127.671875 51.902344 120.988281 57.800781 120.988281 65.078125 C 120.988281 72.351562 127.671875 78.25 135.914062 78.25 C 144.15625 78.25 150.839844 72.351562 150.839844 65.078125 C 150.839844 57.800781 144.15625 51.902344 135.914062 51.902344 Z M 135.914062 51.902344 " clip-rule="nonzero"/></clipPath><clipPath id="17ee61106c"><path d="M 0.988281 0.902344 L 30.941406 0.902344 L 30.941406 27.25 L 0.988281 27.25 Z M 0.988281 0.902344 " clip-rule="nonzero"/></clipPath><clipPath id="123570b902"><path d="M 15.914062 0.902344 C 7.671875 0.902344 0.988281 6.800781 0.988281 14.078125 C 0.988281 21.351562 7.671875 27.25 15.914062 27.25 C 24.15625 27.25 30.839844 21.351562 30.839844 14.078125 C 30.839844 6.800781 24.15625 0.902344 15.914062 0.902344 Z M 15.914062 0.902344 " clip-rule="nonzero"/></clipPath><clipPath id="6dd4a6d7df"><rect x="0" width="31" y="0" height="28"/></clipPath></defs><g fill="#000000" fill-opacity="1"><g transform="translate(31.872988, 241.06017)"><g><path d="M 10 -9.640625 C 10 -10.535156 9.800781 -11.179688 9.40625 -11.578125 C 9.019531 -11.984375 8.457031 -12.1875 7.71875 -12.1875 L 1.46875 -12.1875 L 1.46875 -14.265625 L 8.40625 -14.265625 C 9.75 -14.265625 10.800781 -13.882812 11.5625 -13.125 C 12.332031 -12.363281 12.71875 -11.160156 12.71875 -9.515625 L 12.71875 0 L 10 0 Z M 1.390625 -6.90625 L 1.78125 -8.609375 L 4.109375 -8.609375 L 4.109375 0 L 1.390625 0 Z M 1.390625 -6.90625 "/></g></g></g><g fill="#000000" fill-opacity="1"><g transform="translate(46.030115, 241.06017)"><g><path d="M 12.765625 -14.265625 C 12.765625 -10.847656 12.632812 -8.28125 12.375 -6.5625 C 12.113281 -4.84375 11.476562 -3.445312 10.46875 -2.375 C 9.457031 -1.300781 7.835938 -0.539062 5.609375 -0.09375 L 0.84375 0.84375 L 0.453125 -1.296875 L 4.75 -2.125 L 1.625 -14.265625 L 4.34375 -14.265625 L 7.1875 -2.765625 C 8.09375 -3.171875 8.75 -3.78125 9.15625 -4.59375 C 9.5625 -5.40625 9.816406 -6.429688 9.921875 -7.671875 C 10.023438 -8.921875 10.078125 -10.785156 10.078125 -13.265625 L 10.078125 -14.265625 Z M 12.765625 -14.265625 "/></g></g></g><g fill="#000000" fill-opacity="1"><g transform="translate(60.009646, 241.06017)"><g><path d="M 1.78125 -11.296875 L 1.46875 -14.265625 L 4.15625 -14.265625 L 4.484375 -11.296875 L 4.484375 0 L 1.78125 0 Z M 1.78125 -11.296875 "/></g></g></g><g fill="#000000" fill-opacity="1"><g transform="translate(66.098734, 241.06017)"><g><path d="M 6.34375 0 L 5.78125 -3.125 C 5.3125 -2.28125 4.726562 -1.5625 4.03125 -0.96875 C 3.34375 -0.382812 2.515625 0.0703125 1.546875 0.40625 L 0.5625 -1.75 C 1.726562 -2.15625 2.703125 -2.664062 3.484375 -3.28125 C 4.273438 -3.90625 4.898438 -4.679688 5.359375 -5.609375 L 5.359375 -10.046875 C 5.359375 -10.796875 5.257812 -11.332031 5.0625 -11.65625 C 4.863281 -11.988281 4.492188 -12.195312 3.953125 -12.28125 L 2.359375 -12.515625 L 2.71875 -14.5625 L 5.234375 -14.203125 C 6.222656 -14.054688 6.941406 -13.671875 7.390625 -13.046875 C 7.835938 -12.421875 8.0625 -11.515625 8.0625 -10.328125 L 8.0625 -5.453125 L 8.9375 0 Z M 6.34375 0 "/></g></g></g><g fill="#000000" fill-opacity="1"><g transform="translate(76.120353, 241.06017)"><g><path d="M 7.859375 -9.640625 C 7.859375 -10.535156 7.664062 -11.179688 7.28125 -11.578125 C 6.894531 -11.984375 6.328125 -12.1875 5.578125 -12.1875 L 0.890625 -12.1875 L 0.890625 -14.265625 L 6.265625 -14.265625 C 7.617188 -14.265625 8.675781 -13.882812 9.4375 -13.125 C 10.195312 -12.363281 10.578125 -11.160156 10.578125 -9.515625 L 10.578125 0 L 7.859375 0 Z M 7.859375 -9.640625 "/></g></g></g><g fill="#000000" fill-opacity="1"><g transform="translate(88.29853, 241.06017)"><g/></g></g><g fill="#000000" fill-opacity="1"><g transform="translate(93.372767, 241.06017)"><g><path d="M 10 -9.640625 C 10 -10.535156 9.800781 -11.179688 9.40625 -11.578125 C 9.019531 -11.984375 8.457031 -12.1875 7.71875 -12.1875 L 1.46875 -12.1875 L 1.46875 -14.265625 L 8.40625 -14.265625 C 9.75 -14.265625 10.800781 -13.882812 11.5625 -13.125 C 12.332031 -12.363281 12.71875 -11.160156 12.71875 -9.515625 L 12.71875 0 L 10 0 Z M 1.390625 -6.90625 L 1.78125 -8.609375 L 4.109375 -8.609375 L 4.109375 0 L 1.390625 0 Z M 1.390625 -6.90625 "/></g></g></g><g fill="#000000" fill-opacity="1"><g transform="translate(107.529894, 241.06017)"><g><path d="M 12.65625 -2.078125 L 12.65625 0 L 1.140625 0 L 1.140625 -2.078125 L 8.203125 -2.078125 L 8.203125 -9.640625 C 8.203125 -10.535156 8.003906 -11.179688 7.609375 -11.578125 C 7.222656 -11.984375 6.65625 -12.1875 5.90625 -12.1875 L 1.140625 -12.1875 L 1.140625 -14.265625 L 6.59375 -14.265625 C 7.945312 -14.265625 9.003906 -13.882812 9.765625 -13.125 C 10.523438 -12.363281 10.90625 -11.160156 10.90625 -9.515625 L 10.90625 -2.078125 Z M 12.65625 -2.078125 "/></g></g></g><g fill="#000000" fill-opacity="1"><g transform="translate(121.078106, 241.06017)"><g><path d="M 1.78125 -11.296875 L 1.46875 -14.265625 L 4.15625 -14.265625 L 4.484375 -11.296875 L 4.484375 -7.4375 L 4.46875 -5.84375 L 1.78125 -5.328125 Z M 1.78125 -11.296875 "/></g></g></g><g fill="#000000" fill-opacity="1"><g transform="translate(127.167194, 241.06017)"><g><path d="M 12.65625 -2.078125 L 12.65625 0 L 1.140625 0 L 1.140625 -2.078125 L 8.203125 -2.078125 L 8.203125 -9.640625 C 8.203125 -10.535156 8.003906 -11.179688 7.609375 -11.578125 C 7.222656 -11.984375 6.65625 -12.1875 5.90625 -12.1875 L 1.140625 -12.1875 L 1.140625 -14.265625 L 6.59375 -14.265625 C 7.945312 -14.265625 9.003906 -13.882812 9.765625 -13.125 C 10.523438 -12.363281 10.90625 -11.160156 10.90625 -9.515625 L 10.90625 -2.078125 Z M 12.65625 -2.078125 "/></g></g></g><g fill="#000000" fill-opacity="1"><g transform="translate(140.715406, 241.06017)"><g><path d="M 13.53125 -8.25 C 13.625 -5.320312 12.722656 -3.203125 10.828125 -1.890625 C 8.941406 -0.578125 6.289062 0.132812 2.875 0.25 L 1.390625 -12.1875 L 1.140625 -14.265625 L 8.453125 -14.265625 C 10.023438 -14.265625 11.242188 -13.796875 12.109375 -12.859375 C 12.984375 -11.929688 13.445312 -10.664062 13.5 -9.0625 Z M 5.25 -2.203125 C 7.144531 -2.378906 8.566406 -2.925781 9.515625 -3.84375 C 10.460938 -4.769531 10.898438 -6.253906 10.828125 -8.296875 L 10.828125 -8.984375 C 10.828125 -9.929688 10.597656 -10.703125 10.140625 -11.296875 C 9.691406 -11.890625 9.0625 -12.1875 8.25 -12.1875 L 4.109375 -12.1875 Z M 5.25 -2.203125 "/></g></g></g><g fill="#000000" fill-opacity="1"><g transform="translate(155.506809, 241.06017)"><g/></g></g><g fill="#000000" fill-opacity="1"><g transform="translate(160.581046, 241.06017)"><g><path d="M 7.859375 -9.640625 C 7.859375 -10.535156 7.664062 -11.179688 7.28125 -11.578125 C 6.894531 -11.984375 6.328125 -12.1875 5.578125 -12.1875 L 0.890625 -12.1875 L 0.890625 -14.265625 L 6.265625 -14.265625 C 7.617188 -14.265625 8.675781 -13.882812 9.4375 -13.125 C 10.195312 -12.363281 10.578125 -11.160156 10.578125 -9.515625 L 10.578125 0 L 7.859375 0 Z M 7.859375 -9.640625 "/></g></g></g><g fill="#000000" fill-opacity="1"><g transform="translate(172.759223, 241.06017)"><g><path d="M 1.78125 -11.296875 L 1.46875 -14.265625 L 4.15625 -14.265625 L 4.484375 -11.296875 L 4.484375 0 L 1.78125 0 Z M 1.78125 -11.296875 "/></g></g></g><g fill="#000000" fill-opacity="1"><g transform="translate(178.848312, 241.06017)"><g><path d="M 8.8125 -6.109375 L 12.359375 0 L 0.890625 0 L 0.890625 -2.078125 L 8.375 -2.078125 L 1.296875 -14.265625 L 4.0625 -14.265625 L 7.328125 -8.625 L 9.6875 -14.265625 L 12.40625 -14.265625 Z M 8.8125 -6.109375 "/></g></g></g><g fill="#000000" fill-opacity="1"><g transform="translate(192.447266, 241.06017)"><g><path d="M 1.78125 -11.296875 L 1.46875 -14.265625 L 4.15625 -14.265625 L 4.484375 -11.296875 L 4.484375 -7.4375 L 4.46875 -5.84375 L 1.78125 -5.328125 Z M 1.78125 -11.296875 "/></g></g></g><g fill="#000000" fill-opacity="1"><g transform="translate(198.536354, 241.06017)"><g><path d="M 11.3125 -14.265625 L 11.3125 -12 L 6.578125 0 L 3.859375 0 L 8.609375 -12.1875 L 0.96875 -12.1875 L 0.96875 -18.1875 L 3.421875 -18.1875 L 3.421875 -14.265625 Z M 11.3125 -14.265625 "/></g></g></g><g fill="#000000" fill-opacity="1"><g transform="translate(210.866758, 241.06017)"><g/></g></g><g fill="#000000" fill-opacity="1"><g transform="translate(215.940995, 241.06017)"><g><path d="M 15.328125 -10.359375 C 15.359375 -6.785156 14.359375 -4.113281 12.328125 -2.34375 C 10.296875 -0.582031 7.1875 0.28125 3 0.25 L 1.140625 -14.265625 L 3.734375 -14.265625 L 4.546875 -7.515625 C 5.472656 -7.972656 6.101562 -8.570312 6.4375 -9.3125 C 6.78125 -10.050781 6.96875 -11.164062 7 -12.65625 L 7 -14.234375 L 9.59375 -14.234375 L 9.5625 -12.71875 C 9.53125 -10.851562 9.160156 -9.359375 8.453125 -8.234375 C 7.742188 -7.109375 6.523438 -6.195312 4.796875 -5.5 L 5.203125 -2.0625 C 7.753906 -2.226562 9.632812 -2.988281 10.84375 -4.34375 C 12.050781 -5.695312 12.648438 -7.65625 12.640625 -10.21875 L 12.59375 -14.265625 L 15.296875 -14.265625 Z M 15.328125 -10.359375 "/></g></g></g><g fill="#000000" fill-opacity="1"><g transform="translate(232.483008, 241.06017)"><g><path d="M 1.78125 -11.296875 L 1.46875 -14.265625 L 4.15625 -14.265625 L 4.484375 -11.296875 L 4.484375 -7.4375 L 4.46875 -5.84375 L 1.78125 -5.328125 Z M 1.78125 -11.296875 "/></g></g></g><g fill="#000000" fill-opacity="1"><g transform="translate(29.788974, 269.533877)"><g><path d="M 11.3125 -14.265625 L 11.3125 -12 L 6.578125 0 L 3.859375 0 L 8.609375 -12.1875 L 0.96875 -12.1875 L 0.96875 -18.1875 L 3.421875 -18.1875 L 3.421875 -14.265625 Z M 11.3125 -14.265625 "/></g></g></g><g fill="#000000" fill-opacity="1"><g transform="translate(42.119378, 269.533877)"><g><path d="M 0.96875 -2.078125 L 4.625 -2.078125 C 5.820312 -2.078125 6.71875 -2.441406 7.3125 -3.171875 C 7.90625 -3.898438 8.203125 -4.929688 8.203125 -6.265625 L 8.203125 -8 C 8.203125 -9.332031 7.90625 -10.363281 7.3125 -11.09375 C 6.71875 -11.820312 5.820312 -12.1875 4.625 -12.1875 L 0.96875 -12.1875 L 0.96875 -14.265625 L 5.28125 -14.265625 C 7.09375 -14.265625 8.484375 -13.703125 9.453125 -12.578125 C 10.421875 -11.460938 10.90625 -9.890625 10.90625 -7.859375 L 10.90625 -6.390625 C 10.90625 -4.359375 10.421875 -2.785156 9.453125 -1.671875 C 8.484375 -0.554688 7.09375 0 5.28125 0 L 0.96875 0 Z M 0.96875 -2.078125 "/></g></g></g><g fill="#000000" fill-opacity="1"><g transform="translate(54.246802, 269.533877)"><g><path d="M 0.96875 -2.078125 L 4.625 -2.078125 C 5.820312 -2.078125 6.71875 -2.441406 7.3125 -3.171875 C 7.90625 -3.898438 8.203125 -4.929688 8.203125 -6.265625 L 8.203125 -8 C 8.203125 -9.332031 7.90625 -10.363281 7.3125 -11.09375 C 6.71875 -11.820312 5.820312 -12.1875 4.625 -12.1875 L 0.96875 -12.1875 L 0.96875 -14.265625 L 5.28125 -14.265625 C 7.09375 -14.265625 8.484375 -13.703125 9.453125 -12.578125 C 10.421875 -11.460938 10.90625 -9.890625 10.90625 -7.859375 L 10.90625 -6.390625 C 10.90625 -4.359375 10.421875 -2.785156 9.453125 -1.671875 C 8.484375 -0.554688 7.09375 0 5.28125 0 L 0.96875 0 Z M 0.96875 -2.078125 "/></g></g></g><g fill="#000000" fill-opacity="1"><g transform="translate(66.374225, 269.533877)"><g/></g></g><g fill="#000000" fill-opacity="1"><g transform="translate(71.448462, 269.533877)"><g><path d="M 0.5 -1.5 C 1.488281 -1.601562 2.148438 -1.863281 2.484375 -2.28125 C 2.828125 -2.707031 3 -3.394531 3 -4.34375 L 3 -14.265625 L 9.84375 -14.265625 C 11.195312 -14.265625 12.253906 -13.882812 13.015625 -13.125 C 13.773438 -12.363281 14.15625 -11.160156 14.15625 -9.515625 L 14.15625 0 L 11.4375 0 L 11.4375 -9.640625 C 11.4375 -10.535156 11.242188 -11.179688 10.859375 -11.578125 C 10.472656 -11.984375 9.90625 -12.1875 9.15625 -12.1875 L 5.703125 -12.1875 L 5.703125 -4.640625 C 5.703125 -2.960938 5.3125 -1.742188 4.53125 -0.984375 C 3.757812 -0.222656 2.503906 0.238281 0.765625 0.40625 Z M 0.5 -1.5 "/></g></g></g><g fill="#000000" fill-opacity="1"><g transform="translate(87.127862, 269.533877)"><g><path d="M 1.78125 -11.296875 L 1.46875 -14.265625 L 4.15625 -14.265625 L 4.484375 -11.296875 L 4.484375 -7.4375 L 4.46875 -5.84375 L 1.78125 -5.328125 Z M 1.78125 -11.296875 "/></g></g></g><g fill="#000000" fill-opacity="1"><g transform="translate(93.21695, 269.533877)"><g><path d="M 8.8125 -14.265625 C 10.175781 -14.265625 11.234375 -13.847656 11.984375 -13.015625 C 12.742188 -12.191406 13.125 -10.941406 13.125 -9.265625 L 13.125 0 L 10.40625 0 L 10.40625 -9.390625 C 10.40625 -11.253906 9.644531 -12.1875 8.125 -12.1875 L 4.21875 -12.1875 L 4.21875 0 L 1.5 0 L 1.5 -14.265625 Z M 8.8125 -14.265625 "/></g></g></g><g fill="#000000" fill-opacity="1"><g transform="translate(107.881499, 269.533877)"><g><path d="M 1.671875 -2.078125 L 6.265625 -2.078125 C 7.429688 -2.078125 8.351562 -2.421875 9.03125 -3.109375 C 9.707031 -3.804688 10.046875 -4.867188 10.046875 -6.296875 L 10.046875 -8 C 10.046875 -9.332031 9.773438 -10.363281 9.234375 -11.09375 C 8.691406 -11.820312 7.878906 -12.1875 6.796875 -12.1875 L 4.515625 -12.1875 L 3.953125 -9.671875 C 3.867188 -9.273438 3.828125 -8.941406 3.828125 -8.671875 C 3.828125 -8.171875 3.96875 -7.78125 4.25 -7.5 C 4.539062 -7.21875 5.019531 -7.007812 5.6875 -6.875 L 5.203125 -5.125 C 3.878906 -5.207031 2.914062 -5.539062 2.3125 -6.125 C 1.71875 -6.707031 1.421875 -7.515625 1.421875 -8.546875 C 1.421875 -9.035156 1.460938 -9.484375 1.546875 -9.890625 L 2.53125 -14.265625 L 7.390625 -14.265625 C 9.078125 -14.265625 10.394531 -13.703125 11.34375 -12.578125 C 12.289062 -11.460938 12.765625 -9.898438 12.765625 -7.890625 L 12.765625 -6.421875 C 12.765625 -4.304688 12.222656 -2.707031 11.140625 -1.625 C 10.054688 -0.539062 8.617188 0 6.828125 0 L 1.671875 0 Z M 1.671875 -2.078125 "/></g></g></g><g fill="#000000" fill-opacity="1"><g transform="translate(121.784916, 269.533877)"><g><path d="M 10 -9.640625 C 10 -10.535156 9.800781 -11.179688 9.40625 -11.578125 C 9.019531 -11.984375 8.457031 -12.1875 7.71875 -12.1875 L 1.46875 -12.1875 L 1.46875 -14.265625 L 8.40625 -14.265625 C 9.75 -14.265625 10.800781 -13.882812 11.5625 -13.125 C 12.332031 -12.363281 12.71875 -11.160156 12.71875 -9.515625 L 12.71875 0 L 10 0 Z M 1.390625 -6.90625 L 1.78125 -8.609375 L 4.109375 -8.609375 L 4.109375 0 L 1.390625 0 Z M 1.390625 -6.90625 "/></g></g></g><g fill="#000000" fill-opacity="1"><g transform="translate(135.942044, 269.533877)"><g><path d="M 11.3125 -14.265625 L 11.3125 -12 L 6.578125 0 L 3.859375 0 L 8.609375 -12.1875 L 0.96875 -12.1875 L 0.96875 -18.1875 L 3.421875 -18.1875 L 3.421875 -14.265625 Z M 11.3125 -14.265625 "/></g></g></g><g fill="#000000" fill-opacity="1"><g transform="translate(148.272447, 269.533877)"><g/></g></g><g fill="#000000" fill-opacity="1"><g transform="translate(153.346684, 269.533877)"><g><path d="M 1.78125 -11.296875 L 1.46875 -14.265625 L 4.15625 -14.265625 L 4.484375 -11.296875 L 4.484375 -7.4375 L 4.46875 -5.84375 L 1.78125 -5.328125 Z M 1.78125 -11.296875 "/></g></g></g><g fill="#000000" fill-opacity="1"><g transform="translate(159.435772, 269.533877)"><g><path d="M 7.28125 -9.21875 C 7.28125 -10.53125 7.519531 -11.519531 8 -12.1875 L 1.140625 -12.1875 L 1.140625 -14.265625 L 12.453125 -14.265625 L 12.453125 -12.1875 L 10.5625 -12.1875 C 10.1875 -11.46875 10 -10.476562 10 -9.21875 L 10 0 L 7.28125 0 Z M 7.28125 -9.21875 "/></g></g></g><g fill="#000000" fill-opacity="1"><g transform="translate(173.110839, 269.533877)"><g><path d="M 0.96875 -2.078125 L 4.625 -2.078125 C 5.820312 -2.078125 6.71875 -2.441406 7.3125 -3.171875 C 7.90625 -3.898438 8.203125 -4.929688 8.203125 -6.265625 L 8.203125 -8 C 8.203125 -9.332031 7.90625 -10.363281 7.3125 -11.09375 C 6.71875 -11.820312 5.820312 -12.1875 4.625 -12.1875 L 0.96875 -12.1875 L 0.96875 -14.265625 L 5.28125 -14.265625 C 7.09375 -14.265625 8.484375 -13.703125 9.453125 -12.578125 C 10.421875 -11.460938 10.90625 -9.890625 10.90625 -7.859375 L 10.90625 -6.390625 C 10.90625 -4.359375 10.421875 -2.785156 9.453125 -1.671875 C 8.484375 -0.554688 7.09375 0 5.28125 0 L 0.96875 0 Z M 0.96875 -2.078125 "/></g></g></g><g fill="#000000" fill-opacity="1"><g transform="translate(185.238263, 269.533877)"><g/></g></g><g fill="#000000" fill-opacity="1"><g transform="translate(190.312499, 269.533877)"><g><path d="M 12.65625 -2.078125 L 12.65625 0 L 1.140625 0 L 1.140625 -2.078125 L 8.203125 -2.078125 L 8.203125 -9.640625 C 8.203125 -10.535156 8.003906 -11.179688 7.609375 -11.578125 C 7.222656 -11.984375 6.65625 -12.1875 5.90625 -12.1875 L 1.140625 -12.1875 L 1.140625 -14.265625 L 6.59375 -14.265625 C 7.945312 -14.265625 9.003906 -13.882812 9.765625 -13.125 C 10.523438 -12.363281 10.90625 -11.160156 10.90625 -9.515625 L 10.90625 -2.078125 Z M 12.65625 -2.078125 "/></g></g></g><g fill="#000000" fill-opacity="1"><g transform="translate(203.860711, 269.533877)"><g><path d="M 11.3125 -14.265625 L 11.3125 -12 L 6.578125 0 L 3.859375 0 L 8.609375 -12.1875 L 0.96875 -12.1875 L 0.96875 -18.1875 L 3.421875 -18.1875 L 3.421875 -14.265625 Z M 11.3125 -14.265625 "/></g></g></g><g fill="#000000" fill-opacity="1"><g transform="translate(216.191114, 269.533877)"><g><path d="M 0.96875 -2.078125 L 4.625 -2.078125 C 5.820312 -2.078125 6.71875 -2.441406 7.3125 -3.171875 C 7.90625 -3.898438 8.203125 -4.929688 8.203125 -6.265625 L 8.203125 -8 C 8.203125 -9.332031 7.90625 -10.363281 7.3125 -11.09375 C 6.71875 -11.820312 5.820312 -12.1875 4.625 -12.1875 L 0.96875 -12.1875 L 0.96875 -14.265625 L 5.28125 -14.265625 C 7.09375 -14.265625 8.484375 -13.703125 9.453125 -12.578125 C 10.421875 -11.460938 10.90625 -9.890625 10.90625 -7.859375 L 10.90625 -6.390625 C 10.90625 -4.359375 10.421875 -2.785156 9.453125 -1.671875 C 8.484375 -0.554688 7.09375 0 5.28125 0 L 0.96875 0 Z M 0.96875 -2.078125 "/></g></g></g><g fill="#000000" fill-opacity="1"><g transform="translate(228.318527, 269.533877)"><g><path d="M 11.3125 -14.265625 L 11.3125 -12 L 6.578125 0 L 3.859375 0 L 8.609375 -12.1875 L 0.96875 -12.1875 L 0.96875 -18.1875 L 3.421875 -18.1875 L 3.421875 -14.265625 Z M 11.3125 -14.265625 "/></g></g></g><g fill="#000000" fill-opacity="1"><g transform="translate(23.560351, 298.007584)"><g><path d="M 1.78125 -11.296875 L 1.46875 -14.265625 L 4.15625 -14.265625 L 4.484375 -11.296875 L 4.484375 0 L 1.78125 0 Z M 1.78125 -11.296875 "/></g></g></g><g fill="#000000" fill-opacity="1"><g transform="translate(29.64944, 298.007584)"><g><path d="M 7.28125 -9.21875 C 7.28125 -10.53125 7.519531 -11.519531 8 -12.1875 L 1.140625 -12.1875 L 1.140625 -14.265625 L 12.453125 -14.265625 L 12.453125 -12.1875 L 10.5625 -12.1875 C 10.1875 -11.46875 10 -10.476562 10 -9.21875 L 10 0 L 7.28125 0 Z M 7.28125 -9.21875 "/></g></g></g><g fill="#000000" fill-opacity="1"><g transform="translate(43.324506, 298.007584)"><g><path d="M 1.78125 -11.296875 L 1.46875 -14.265625 L 4.15625 -14.265625 L 4.484375 -11.296875 L 4.484375 0 L 1.78125 0 Z M 1.78125 -11.296875 "/></g></g></g><g fill="#000000" fill-opacity="1"><g transform="translate(49.413595, 298.007584)"><g><path d="M 5.859375 -2.078125 C 6.691406 -2.160156 7.390625 -2.359375 7.953125 -2.671875 C 8.523438 -2.984375 8.984375 -3.507812 9.328125 -4.25 C 9.671875 -4.988281 9.882812 -6 9.96875 -7.28125 L 10.359375 -12.1875 L 1.375 -12.1875 L 1.375 -14.265625 L 13.265625 -14.265625 L 13.171875 -12.4375 L 12.8125 -7.921875 C 12.695312 -5.429688 12.078125 -3.5 10.953125 -2.125 C 9.835938 -0.757812 8.222656 -0.0390625 6.109375 0.03125 Z M 1.3125 -7.15625 L 1.703125 -8.875 L 4.03125 -8.875 L 4.03125 5.078125 L 1.3125 5.078125 Z M 1.3125 -7.15625 "/></g></g></g><g fill="#000000" fill-opacity="1"><g transform="translate(63.799062, 298.007584)"><g><path d="M 1.671875 -2.078125 L 6.265625 -2.078125 C 7.429688 -2.078125 8.351562 -2.421875 9.03125 -3.109375 C 9.707031 -3.804688 10.046875 -4.867188 10.046875 -6.296875 L 10.046875 -8 C 10.046875 -9.332031 9.773438 -10.363281 9.234375 -11.09375 C 8.691406 -11.820312 7.878906 -12.1875 6.796875 -12.1875 L 4.515625 -12.1875 L 3.953125 -9.671875 C 3.867188 -9.273438 3.828125 -8.941406 3.828125 -8.671875 C 3.828125 -8.171875 3.96875 -7.78125 4.25 -7.5 C 4.539062 -7.21875 5.019531 -7.007812 5.6875 -6.875 L 5.203125 -5.125 C 3.878906 -5.207031 2.914062 -5.539062 2.3125 -6.125 C 1.71875 -6.707031 1.421875 -7.515625 1.421875 -8.546875 C 1.421875 -9.035156 1.460938 -9.484375 1.546875 -9.890625 L 2.53125 -14.265625 L 7.390625 -14.265625 C 9.078125 -14.265625 10.394531 -13.703125 11.34375 -12.578125 C 12.289062 -11.460938 12.765625 -9.898438 12.765625 -7.890625 L 12.765625 -6.421875 C 12.765625 -4.304688 12.222656 -2.707031 11.140625 -1.625 C 10.054688 -0.539062 8.617188 0 6.828125 0 L 1.671875 0 Z M 1.671875 -2.078125 "/></g></g></g><g fill="#000000" fill-opacity="1"><g transform="translate(77.702479, 298.007584)"><g><path d="M 0.5 -1.5 C 1.488281 -1.601562 2.148438 -1.863281 2.484375 -2.28125 C 2.828125 -2.707031 3 -3.394531 3 -4.34375 L 3 -14.265625 L 9.84375 -14.265625 C 11.195312 -14.265625 12.253906 -13.882812 13.015625 -13.125 C 13.773438 -12.363281 14.15625 -11.160156 14.15625 -9.515625 L 14.15625 0 L 11.4375 0 L 11.4375 -9.640625 C 11.4375 -10.535156 11.242188 -11.179688 10.859375 -11.578125 C 10.472656 -11.984375 9.90625 -12.1875 9.15625 -12.1875 L 5.703125 -12.1875 L 5.703125 -4.640625 C 5.703125 -2.960938 5.3125 -1.742188 4.53125 -0.984375 C 3.757812 -0.222656 2.503906 0.238281 0.765625 0.40625 Z M 0.5 -1.5 "/></g></g></g><g fill="#000000" fill-opacity="1"><g transform="translate(93.381879, 298.007584)"><g><path d="M 12.65625 -2.078125 L 12.65625 0 L 1.140625 0 L 1.140625 -2.078125 L 8.203125 -2.078125 L 8.203125 -9.640625 C 8.203125 -10.535156 8.003906 -11.179688 7.609375 -11.578125 C 7.222656 -11.984375 6.65625 -12.1875 5.90625 -12.1875 L 1.140625 -12.1875 L 1.140625 -14.265625 L 6.59375 -14.265625 C 7.945312 -14.265625 9.003906 -13.882812 9.765625 -13.125 C 10.523438 -12.363281 10.90625 -11.160156 10.90625 -9.515625 L 10.90625 -2.078125 Z M 12.65625 -2.078125 "/></g></g></g><g fill="#000000" fill-opacity="1"><g transform="translate(106.930091, 298.007584)"><g/></g></g><g fill="#000000" fill-opacity="1"><g transform="translate(112.004328, 298.007584)"><g><path d="M 10 -9.640625 C 10 -10.535156 9.800781 -11.179688 9.40625 -11.578125 C 9.019531 -11.984375 8.457031 -12.1875 7.71875 -12.1875 L 1.46875 -12.1875 L 1.46875 -14.265625 L 8.40625 -14.265625 C 9.75 -14.265625 10.800781 -13.882812 11.5625 -13.125 C 12.332031 -12.363281 12.71875 -11.160156 12.71875 -9.515625 L 12.71875 0 L 10 0 Z M 1.390625 -6.90625 L 1.78125 -8.609375 L 4.109375 -8.609375 L 4.109375 0 L 1.390625 0 Z M 1.390625 -6.90625 "/></g></g></g><g fill="#000000" fill-opacity="1"><g transform="translate(126.161455, 298.007584)"><g><path d="M 12.765625 -14.265625 C 12.765625 -10.847656 12.632812 -8.28125 12.375 -6.5625 C 12.113281 -4.84375 11.476562 -3.445312 10.46875 -2.375 C 9.457031 -1.300781 7.835938 -0.539062 5.609375 -0.09375 L 0.84375 0.84375 L 0.453125 -1.296875 L 4.75 -2.125 L 1.625 -14.265625 L 4.34375 -14.265625 L 7.1875 -2.765625 C 8.09375 -3.171875 8.75 -3.78125 9.15625 -4.59375 C 9.5625 -5.40625 9.816406 -6.429688 9.921875 -7.671875 C 10.023438 -8.921875 10.078125 -10.785156 10.078125 -13.265625 L 10.078125 -14.265625 Z M 12.765625 -14.265625 "/></g></g></g><g fill="#000000" fill-opacity="1"><g transform="translate(140.140986, 298.007584)"><g><path d="M 1.78125 -11.296875 L 1.46875 -14.265625 L 4.15625 -14.265625 L 4.484375 -11.296875 L 4.484375 -7.4375 L 4.46875 -5.84375 L 1.78125 -5.328125 Z M 1.78125 -11.296875 "/></g></g></g><g fill="#000000" fill-opacity="1"><g transform="translate(146.230074, 298.007584)"><g><path d="M 6.34375 0 L 5.78125 -3.125 C 5.3125 -2.28125 4.726562 -1.5625 4.03125 -0.96875 C 3.34375 -0.382812 2.515625 0.0703125 1.546875 0.40625 L 0.5625 -1.75 C 1.726562 -2.15625 2.703125 -2.664062 3.484375 -3.28125 C 4.273438 -3.90625 4.898438 -4.679688 5.359375 -5.609375 L 5.359375 -10.046875 C 5.359375 -10.796875 5.257812 -11.332031 5.0625 -11.65625 C 4.863281 -11.988281 4.492188 -12.195312 3.953125 -12.28125 L 2.359375 -12.515625 L 2.71875 -14.5625 L 5.234375 -14.203125 C 6.222656 -14.054688 6.941406 -13.671875 7.390625 -13.046875 C 7.835938 -12.421875 8.0625 -11.515625 8.0625 -10.328125 L 8.0625 -5.453125 L 8.9375 0 Z M 6.34375 0 "/></g></g></g><g fill="#000000" fill-opacity="1"><g transform="translate(156.251693, 298.007584)"><g><path d="M 1.671875 -2.078125 L 6.265625 -2.078125 C 7.429688 -2.078125 8.351562 -2.421875 9.03125 -3.109375 C 9.707031 -3.804688 10.046875 -4.867188 10.046875 -6.296875 L 10.046875 -8 C 10.046875 -9.332031 9.773438 -10.363281 9.234375 -11.09375 C 8.691406 -11.820312 7.878906 -12.1875 6.796875 -12.1875 L 4.515625 -12.1875 L 3.953125 -9.671875 C 3.867188 -9.273438 3.828125 -8.941406 3.828125 -8.671875 C 3.828125 -8.171875 3.96875 -7.78125 4.25 -7.5 C 4.539062 -7.21875 5.019531 -7.007812 5.6875 -6.875 L 5.203125 -5.125 C 3.878906 -5.207031 2.914062 -5.539062 2.3125 -6.125 C 1.71875 -6.707031 1.421875 -7.515625 1.421875 -8.546875 C 1.421875 -9.035156 1.460938 -9.484375 1.546875 -9.890625 L 2.53125 -14.265625 L 7.390625 -14.265625 C 9.078125 -14.265625 10.394531 -13.703125 11.34375 -12.578125 C 12.289062 -11.460938 12.765625 -9.898438 12.765625 -7.890625 L 12.765625 -6.421875 C 12.765625 -4.304688 12.222656 -2.707031 11.140625 -1.625 C 10.054688 -0.539062 8.617188 0 6.828125 0 L 1.671875 0 Z M 1.671875 -2.078125 "/></g></g></g><g fill="#000000" fill-opacity="1"><g transform="translate(170.15511, 298.007584)"><g/></g></g><g fill="#000000" fill-opacity="1"><g transform="translate(175.229347, 298.007584)"><g><path d="M 7.859375 -9.640625 C 7.859375 -10.535156 7.664062 -11.179688 7.28125 -11.578125 C 6.894531 -11.984375 6.328125 -12.1875 5.578125 -12.1875 L 0.890625 -12.1875 L 0.890625 -14.265625 L 6.265625 -14.265625 C 7.617188 -14.265625 8.675781 -13.882812 9.4375 -13.125 C 10.195312 -12.363281 10.578125 -11.160156 10.578125 -9.515625 L 10.578125 0 L 7.859375 0 Z M 7.859375 -9.640625 "/></g></g></g><g fill="#000000" fill-opacity="1"><g transform="translate(187.407524, 298.007584)"><g><path d="M 15.328125 -10.359375 C 15.359375 -6.785156 14.359375 -4.113281 12.328125 -2.34375 C 10.296875 -0.582031 7.1875 0.28125 3 0.25 L 1.140625 -14.265625 L 3.734375 -14.265625 L 4.546875 -7.515625 C 5.472656 -7.972656 6.101562 -8.570312 6.4375 -9.3125 C 6.78125 -10.050781 6.96875 -11.164062 7 -12.65625 L 7 -14.234375 L 9.59375 -14.234375 L 9.5625 -12.71875 C 9.53125 -10.851562 9.160156 -9.359375 8.453125 -8.234375 C 7.742188 -7.109375 6.523438 -6.195312 4.796875 -5.5 L 5.203125 -2.0625 C 7.753906 -2.226562 9.632812 -2.988281 10.84375 -4.34375 C 12.050781 -5.695312 12.648438 -7.65625 12.640625 -10.21875 L 12.59375 -14.265625 L 15.296875 -14.265625 Z M 15.328125 -10.359375 "/></g></g></g><g fill="#000000" fill-opacity="1"><g transform="translate(203.949538, 298.007584)"><g><path d="M 1.671875 -2.078125 L 6.265625 -2.078125 C 7.429688 -2.078125 8.351562 -2.421875 9.03125 -3.109375 C 9.707031 -3.804688 10.046875 -4.867188 10.046875 -6.296875 L 10.046875 -8 C 10.046875 -9.332031 9.773438 -10.363281 9.234375 -11.09375 C 8.691406 -11.820312 7.878906 -12.1875 6.796875 -12.1875 L 4.515625 -12.1875 L 3.953125 -9.671875 C 3.867188 -9.273438 3.828125 -8.941406 3.828125 -8.671875 C 3.828125 -8.171875 3.96875 -7.78125 4.25 -7.5 C 4.539062 -7.21875 5.019531 -7.007812 5.6875 -6.875 L 5.203125 -5.125 C 3.878906 -5.207031 2.914062 -5.539062 2.3125 -6.125 C 1.71875 -6.707031 1.421875 -7.515625 1.421875 -8.546875 C 1.421875 -9.035156 1.460938 -9.484375 1.546875 -9.890625 L 2.53125 -14.265625 L 7.390625 -14.265625 C 9.078125 -14.265625 10.394531 -13.703125 11.34375 -12.578125 C 12.289062 -11.460938 12.765625 -9.898438 12.765625 -7.890625 L 12.765625 -6.421875 C 12.765625 -4.304688 12.222656 -2.707031 11.140625 -1.625 C 10.054688 -0.539062 8.617188 0 6.828125 0 L 1.671875 0 Z M 1.671875 -2.078125 "/></g></g></g><g fill="#000000" fill-opacity="1"><g transform="translate(217.852956, 298.007584)"><g><path d="M 11.140625 0 L 5.8125 -8.09375 L 3.296875 0 L 0.703125 0 L 3.5 -8.734375 L 4.21875 -10.53125 L 1.875 -14.265625 L 4.640625 -14.265625 L 6.78125 -10.828125 L 8.90625 -7.640625 L 9.546875 -9.84375 L 10.828125 -14.265625 L 13.453125 -14.265625 L 10.5 -5.28125 L 14.03125 0 Z M 11.140625 0 "/></g></g></g><g fill="#000000" fill-opacity="1"><g transform="translate(232.720483, 298.007584)"><g><path d="M 10 -9.640625 C 10 -10.535156 9.800781 -11.179688 9.40625 -11.578125 C 9.019531 -11.984375 8.457031 -12.1875 7.71875 -12.1875 L 1.46875 -12.1875 L 1.46875 -14.265625 L 8.40625 -14.265625 C 9.75 -14.265625 10.800781 -13.882812 11.5625 -13.125 C 12.332031 -12.363281 12.71875 -11.160156 12.71875 -9.515625 L 12.71875 0 L 10 0 Z M 1.390625 -6.90625 L 1.78125 -8.609375 L 4.109375 -8.609375 L 4.109375 0 L 1.390625 0 Z M 1.390625 -6.90625 "/></g></g></g><g fill="#000000" fill-opacity="1"><g transform="translate(80.800464, 326.481292)"><g><path d="M 3.34375 0.296875 C 2.851562 0.296875 2.441406 0.128906 2.109375 -0.203125 C 1.785156 -0.535156 1.625 -0.96875 1.625 -1.5 C 1.625 -2.019531 1.785156 -2.453125 2.109375 -2.796875 C 2.441406 -3.148438 2.851562 -3.328125 3.34375 -3.328125 C 3.832031 -3.328125 4.242188 -3.148438 4.578125 -2.796875 C 4.910156 -2.453125 5.078125 -2.019531 5.078125 -1.5 C 5.078125 -0.96875 4.910156 -0.535156 4.578125 -0.203125 C 4.242188 0.128906 3.832031 0.296875 3.34375 0.296875 Z M 3.34375 0.296875 "/></g></g></g><g fill="#000000" fill-opacity="1"><g transform="translate(87.498457, 326.481292)"><g><path d="M 9.015625 -14.265625 C 10.359375 -14.265625 11.410156 -13.882812 12.171875 -13.125 C 12.941406 -12.363281 13.328125 -11.160156 13.328125 -9.515625 L 13.328125 0 L 1.65625 0 L 1.65625 -14.265625 Z M 10.609375 -2.078125 L 10.609375 -9.640625 C 10.609375 -10.535156 10.410156 -11.179688 10.015625 -11.578125 C 9.628906 -11.984375 9.066406 -12.1875 8.328125 -12.1875 L 4.359375 -12.1875 L 4.359375 -2.078125 Z M 10.609375 -2.078125 "/></g></g></g><g fill="#000000" fill-opacity="1"><g transform="translate(102.340602, 326.481292)"><g><path d="M 1.78125 -11.296875 L 1.46875 -14.265625 L 4.15625 -14.265625 L 4.484375 -11.296875 L 4.484375 0 L 1.78125 0 Z M 1.78125 -11.296875 "/></g></g></g><g fill="#000000" fill-opacity="1"><g transform="translate(108.42969, 326.481292)"><g><path d="M 7.859375 -9.640625 C 7.859375 -10.535156 7.664062 -11.179688 7.28125 -11.578125 C 6.894531 -11.984375 6.328125 -12.1875 5.578125 -12.1875 L 0.890625 -12.1875 L 0.890625 -14.265625 L 6.265625 -14.265625 C 7.617188 -14.265625 8.675781 -13.882812 9.4375 -13.125 C 10.195312 -12.363281 10.578125 -11.160156 10.578125 -9.515625 L 10.578125 0 L 7.859375 0 Z M 7.859375 -9.640625 "/></g></g></g><g fill="#000000" fill-opacity="1"><g transform="translate(120.607868, 326.481292)"><g><path d="M 1.78125 -11.296875 L 1.46875 -14.265625 L 4.15625 -14.265625 L 4.484375 -11.296875 L 4.484375 -7.4375 L 4.46875 -5.84375 L 1.78125 -5.328125 Z M 1.78125 -11.296875 "/></g></g></g><g fill="#000000" fill-opacity="1"><g transform="translate(126.696956, 326.481292)"><g><path d="M 8.8125 -14.265625 C 10.175781 -14.265625 11.234375 -13.847656 11.984375 -13.015625 C 12.742188 -12.191406 13.125 -10.941406 13.125 -9.265625 L 13.125 0 L 10.40625 0 L 10.40625 -9.390625 C 10.40625 -11.253906 9.644531 -12.1875 8.125 -12.1875 L 4.21875 -12.1875 L 4.21875 0 L 1.5 0 L 1.5 -14.265625 Z M 8.8125 -14.265625 "/></g></g></g><g fill="#000000" fill-opacity="1"><g transform="translate(141.361504, 326.481292)"><g/></g></g><g fill="#000000" fill-opacity="1"><g transform="translate(146.435741, 326.481292)"><g><path d="M 0.5 -1.5 C 1.488281 -1.601562 2.148438 -1.863281 2.484375 -2.28125 C 2.828125 -2.707031 3 -3.394531 3 -4.34375 L 3 -14.265625 L 9.84375 -14.265625 C 11.195312 -14.265625 12.253906 -13.882812 13.015625 -13.125 C 13.773438 -12.363281 14.15625 -11.160156 14.15625 -9.515625 L 14.15625 0 L 11.4375 0 L 11.4375 -9.640625 C 11.4375 -10.535156 11.242188 -11.179688 10.859375 -11.578125 C 10.472656 -11.984375 9.90625 -12.1875 9.15625 -12.1875 L 5.703125 -12.1875 L 5.703125 -4.640625 C 5.703125 -2.960938 5.3125 -1.742188 4.53125 -0.984375 C 3.757812 -0.222656 2.503906 0.238281 0.765625 0.40625 Z M 0.5 -1.5 "/></g></g></g><g fill="#000000" fill-opacity="1"><g transform="translate(162.115141, 326.481292)"><g><path d="M 12.765625 -14.265625 C 12.765625 -10.847656 12.632812 -8.28125 12.375 -6.5625 C 12.113281 -4.84375 11.476562 -3.445312 10.46875 -2.375 C 9.457031 -1.300781 7.835938 -0.539062 5.609375 -0.09375 L 0.84375 0.84375 L 0.453125 -1.296875 L 4.75 -2.125 L 1.625 -14.265625 L 4.34375 -14.265625 L 7.1875 -2.765625 C 8.09375 -3.171875 8.75 -3.78125 9.15625 -4.59375 C 9.5625 -5.40625 9.816406 -6.429688 9.921875 -7.671875 C 10.023438 -8.921875 10.078125 -10.785156 10.078125 -13.265625 L 10.078125 -14.265625 Z M 12.765625 -14.265625 "/></g></g></g><g fill="#000000" fill-opacity="1"><g transform="translate(176.094672, 326.481292)"><g><path d="M 12.65625 -2.078125 L 12.65625 0 L 1.140625 0 L 1.140625 -2.078125 L 8.203125 -2.078125 L 8.203125 -9.640625 C 8.203125 -10.535156 8.003906 -11.179688 7.609375 -11.578125 C 7.222656 -11.984375 6.65625 -12.1875 5.90625 -12.1875 L 1.140625 -12.1875 L 1.140625 -14.265625 L 6.59375 -14.265625 C 7.945312 -14.265625 9.003906 -13.882812 9.765625 -13.125 C 10.523438 -12.363281 10.90625 -11.160156 10.90625 -9.515625 L 10.90625 -2.078125 Z M 12.65625 -2.078125 "/></g></g></g><path fill="#39161d" d="M 113.535156 49.886719 C 113.816406 49.203125 114.984375 40.992188 119.558594 37.398438 C 122.378906 35.179688 128.5 34.671875 129.363281 34.296875 C 129.59375 34.195312 135.234375 30.648438 140.257812 31.46875 C 145.816406 32.375 149.230469 34.398438 151.222656 36.503906 C 154.191406 39.636719 155.167969 44.535156 156.210938 48.605469 L 163.269531 66.703125 C 165.292969 71.9375 171.851562 75.679688 170.71875 81.863281 C 170.34375 83.910156 168.300781 85.332031 167.210938 86.980469 C 163.78125 92.171875 160.382812 99.703125 154.148438 101.769531 C 147.101562 104.101562 139.074219 102.050781 131.808594 102.757812 C 125.125 103.40625 117.253906 107.773438 110.820312 104.085938 C 105.546875 101.0625 103.347656 94.714844 101.402344 89.304688 C 100.550781 86.9375 99.683594 84.496094 99.351562 81.992188 C 97.984375 71.675781 107.25 69.0625 111.210938 61.238281 C 113.011719 57.683594 112.054688 53.515625 113.535156 49.886719 " fill-opacity="1" fill-rule="evenodd"/><path fill="#533e49" d="M 114.09375 150.335938 L 155.320312 150.367188 C 158.535156 156.421875 173.742188 168.027344 173.53125 170.210938 C 173.195312 173.707031 169.367188 177.421875 167.257812 179.878906 C 165.527344 181.894531 163.707031 183.835938 161.757812 185.640625 C 160.097656 187.175781 158.363281 188.640625 156.578125 190.03125 C 155.296875 191.027344 153.972656 191.957031 152.609375 192.835938 C 148.90625 195.222656 139.964844 199.175781 134.671875 196.839844 C 129.375 199.113281 120.488281 195.183594 116.804688 192.804688 C 115.441406 191.929688 114.117188 190.996094 112.835938 190 C 111.050781 188.613281 109.316406 187.148438 107.65625 185.609375 C 105.707031 183.804688 103.882812 181.867188 102.15625 179.851562 C 100.046875 177.394531 96.21875 173.675781 95.878906 170.183594 C 95.667969 168 110.644531 157.460938 114.09375 150.335938 " fill-opacity="1" fill-rule="evenodd"/><g clip-path="url(#7a4aa933ed)"><path fill="#fdbcaa" d="M 143.003906 194.179688 C 145.070312 195.976562 148.324219 196.457031 150.953125 196.621094 C 157.578125 197.042969 163.914062 195.203125 170.398438 194.199219 C 172.890625 193.816406 175.394531 193.257812 177.917969 193.1875 C 178.710938 193.167969 180.007812 193.011719 180.652344 193.597656 C 181.777344 194.617188 181.257812 197.097656 180.886719 198.359375 C 179.914062 201.640625 178.957031 204.953125 177.417969 208.023438 C 176.789062 209.273438 176.359375 210.632812 174.859375 211.03125 C 173.375 211.421875 171.730469 211.261719 170.214844 211.230469 C 167.8125 211.183594 165.40625 211.179688 163.007812 211.109375 C 159.859375 211.019531 156.71875 210.898438 153.574219 210.769531 C 151.390625 210.675781 149.210938 210.667969 147.066406 210.207031 C 145.238281 209.820312 143.511719 209.03125 141.785156 208.34375 C 139.480469 207.425781 137.128906 206.546875 134.910156 205.429688 L 143.003906 194.179688 " fill-opacity="1" fill-rule="evenodd"/></g><path fill="#674c5a" d="M 62.648438 155.179688 C 79.660156 149.464844 89.304688 158.132812 97.339844 163.46875 C 102.941406 167.195312 109.015625 170.101562 114.859375 173.414062 C 121.171875 176.988281 127.152344 181.15625 133.378906 184.878906 C 137.84375 187.550781 147.738281 191.90625 147.703125 198.066406 C 147.691406 200.140625 146.929688 202.148438 146.089844 204.015625 C 145.394531 205.566406 144.550781 207.050781 143.210938 208.128906 C 140.96875 209.933594 137.964844 209.828125 135.277344 209.433594 C 129.867188 208.632812 124.566406 206.925781 119.277344 205.570312 C 114.542969 204.351562 109.769531 203.214844 105.066406 201.871094 C 101.253906 200.78125 97.433594 199.679688 93.691406 198.359375 C 90.464844 197.21875 87.296875 195.9375 84.199219 194.488281 C 81.894531 193.410156 79.675781 192.195312 77.46875 190.9375 C 67.25 185.117188 50.207031 174.109375 58.710938 160.191406 C 58.710938 160.191406 60.636719 155.855469 62.648438 155.179688 " fill-opacity="1" fill-rule="evenodd"/><g clip-path="url(#2c17f4145a)"><path fill="#fdbcaa" d="M 129.519531 195.328125 C 127.34375 196.992188 124.070312 197.269531 121.433594 197.273438 C 114.796875 197.28125 108.582031 195.050781 102.171875 193.648438 C 99.710938 193.113281 97.25 192.398438 94.730469 192.175781 C 93.941406 192.105469 92.65625 191.867188 91.976562 192.410156 C 90.789062 193.359375 91.15625 195.867188 91.453125 197.152344 C 92.21875 200.488281 92.96875 203.851562 94.316406 207.011719 C 94.867188 208.296875 95.210938 209.683594 96.6875 210.171875 C 98.144531 210.652344 99.792969 210.597656 101.308594 210.660156 C 103.710938 210.761719 106.109375 210.902344 108.511719 210.984375 C 111.65625 211.089844 114.800781 211.164062 117.945312 211.230469 C 120.128906 211.273438 122.304688 211.398438 124.476562 211.074219 C 126.324219 210.796875 128.09375 210.117188 129.863281 209.539062 C 132.21875 208.765625 134.617188 208.035156 136.902344 207.058594 L 129.519531 195.328125 " fill-opacity="1" fill-rule="evenodd"/></g><path fill="#765767" d="M 205.144531 151.875 C 194.9375 146.980469 184.1875 154.8125 176.550781 160.707031 C 171.222656 164.816406 165.363281 168.144531 159.769531 171.859375 C 153.726562 175.875 148.046875 180.453125 142.097656 184.605469 C 137.835938 187.585938 128.269531 192.632812 128.734375 198.769531 C 128.894531 200.839844 129.796875 202.789062 130.765625 204.59375 C 131.566406 206.089844 132.511719 207.511719 133.925781 208.492188 C 136.289062 210.136719 139.277344 209.816406 141.929688 209.230469 C 147.269531 208.054688 152.441406 205.976562 157.617188 204.25 C 162.257812 202.703125 166.9375 201.226562 171.535156 199.554688 C 175.261719 198.199219 178.996094 196.832031 182.632812 195.25 C 185.773438 193.886719 188.84375 192.382812 191.832031 190.71875 C 194.054688 189.480469 196.183594 188.113281 198.296875 186.703125 C 208.082031 180.175781 224.308594 167.988281 214.851562 154.710938 L 205.144531 151.875 " fill-opacity="1" fill-rule="evenodd"/><path fill="#fdbcaa" d="M 48.894531 154.800781 C 49.933594 154.457031 51.214844 154.484375 52.300781 154.398438 C 55.375 154.152344 58.433594 154.269531 61.511719 154.292969 C 67.332031 154.339844 72.960938 153.945312 78.734375 153.269531 C 86.402344 152.371094 95.300781 151.910156 101.824219 147.234375 C 103.5625 145.988281 106.359375 143.625 106.730469 141.347656 C 107.003906 139.683594 105.859375 138.042969 104.636719 137.046875 C 102.054688 134.933594 98.074219 134.433594 94.835938 134.472656 C 91.984375 134.503906 89.460938 135.703125 86.855469 136.746094 C 83.738281 137.996094 80.621094 139.25 77.523438 140.550781 C 71.128906 143.242188 64.671875 146.214844 57.988281 148.125 C 54.570312 149.101562 50.972656 149.632812 47.449219 150.105469 L 48.894531 154.800781 " fill-opacity="1" fill-rule="evenodd"/><path fill="#fdbcaa" d="M 221.316406 154.800781 C 220.277344 154.457031 218.996094 154.484375 217.910156 154.398438 C 214.835938 154.152344 211.777344 154.269531 208.699219 154.292969 C 202.882812 154.339844 197.25 153.945312 191.476562 153.269531 C 183.808594 152.371094 174.910156 151.910156 168.386719 147.234375 C 166.648438 145.988281 163.851562 143.625 163.480469 141.351562 C 163.207031 139.683594 164.351562 138.042969 165.574219 137.046875 C 168.15625 134.933594 172.136719 134.433594 175.375 134.472656 C 178.226562 134.503906 180.75 135.703125 183.355469 136.746094 C 186.472656 137.996094 189.589844 139.25 192.6875 140.550781 C 199.082031 143.242188 205.542969 146.214844 212.222656 148.125 C 215.640625 149.101562 219.242188 149.632812 222.761719 150.105469 L 221.316406 154.800781 " fill-opacity="1" fill-rule="evenodd"/><g clip-path="url(#851c389d41)"><path fill="#fdbcaa" d="M 42.214844 152.328125 C 42.121094 152.171875 42.035156 152.011719 41.960938 151.839844 C 41.449219 150.664062 41.617188 149.554688 41.882812 148.351562 C 41.988281 147.871094 42.148438 147.414062 42.324219 146.957031 C 42.402344 146.746094 42.480469 146.476562 42.617188 146.296875 C 42.785156 146.085938 43.011719 146.691406 43.019531 146.808594 C 43.054688 147.210938 42.84375 147.675781 42.792969 148.074219 C 42.625 149.34375 42.90625 150.816406 43.925781 151.667969 C 44.40625 152.074219 45.066406 152.347656 45.703125 152.25 C 45.785156 152.238281 45.863281 152.21875 45.941406 152.199219 C 46.191406 151.976562 46.386719 151.695312 46.480469 151.378906 C 46.714844 150.589844 46.421875 149.480469 45.941406 148.84375 C 45.554688 148.328125 44.832031 148.035156 44.273438 147.777344 C 44.039062 147.667969 43.6875 147.617188 43.488281 147.449219 C 43.359375 147.339844 43.269531 147.152344 43.195312 147.003906 C 43.136719 146.890625 43.027344 146.699219 43.074219 146.5625 C 43.117188 146.4375 43.40625 146.527344 43.496094 146.535156 C 43.9375 146.578125 44.378906 146.664062 44.808594 146.761719 C 45.199219 146.851562 45.59375 146.957031 45.960938 147.113281 C 46.542969 147.363281 47.003906 147.890625 47.492188 148.277344 C 48.035156 148.707031 48.605469 149.109375 49.167969 149.515625 C 49.464844 149.730469 49.753906 149.976562 50.074219 150.160156 C 50.074219 150.160156 51.230469 154.433594 51.210938 154.472656 C 51.164062 154.5625 50.859375 154.585938 50.78125 154.605469 C 50.304688 154.722656 49.828125 154.851562 49.355469 154.96875 C 47.960938 155.316406 46.542969 155.5 45.128906 155.722656 C 44.722656 155.785156 44.296875 155.828125 43.882812 155.902344 C 42.886719 156.609375 41.804688 156.695312 40.613281 156.710938 C 40.125 156.71875 39.640625 156.667969 39.160156 156.605469 C 38.9375 156.574219 38.660156 156.5625 38.453125 156.46875 C 38.207031 156.355469 38.746094 155.992188 38.855469 155.957031 C 39.238281 155.832031 39.738281 155.929688 40.136719 155.886719 C 40.828125 155.816406 41.550781 155.601562 42.15625 155.230469 C 40.957031 155.199219 40.042969 154.632812 39.078125 153.949219 C 38.679688 153.664062 38.320312 153.339844 37.96875 153 C 37.804688 152.84375 37.589844 152.671875 37.480469 152.472656 C 37.347656 152.238281 37.992188 152.261719 38.105469 152.300781 C 38.484375 152.421875 38.832031 152.800781 39.179688 153 C 39.867188 153.40625 40.691406 153.679688 41.503906 153.679688 C 40.734375 153.011719 40.339844 152.136719 39.957031 151.164062 C 39.777344 150.707031 39.660156 150.234375 39.546875 149.757812 C 39.5 149.539062 39.414062 149.273438 39.429688 149.046875 C 39.449219 148.777344 39.972656 149.15625 40.046875 149.246094 C 40.296875 149.558594 40.382812 150.066406 40.558594 150.425781 C 40.925781 151.171875 41.5 151.882812 42.214844 152.328125 Z M 42.421875 155.050781 L 42.417969 155.046875 L 42.414062 155.058594 Z M 46.53125 151.941406 L 46.195312 152.113281 C 46.308594 152.066406 46.421875 152.007812 46.53125 151.941406 " fill-opacity="1" fill-rule="evenodd"/></g><g clip-path="url(#aeb6d8cbe5)"><path fill="#fdbcaa" d="M 227.996094 152.265625 C 228.089844 152.109375 228.175781 151.949219 228.25 151.777344 C 228.765625 150.601562 228.59375 149.492188 228.328125 148.289062 C 228.222656 147.808594 228.0625 147.351562 227.886719 146.894531 C 227.808594 146.683594 227.730469 146.414062 227.59375 146.234375 C 227.429688 146.023438 227.199219 146.628906 227.191406 146.746094 C 227.15625 147.148438 227.367188 147.613281 227.417969 148.011719 C 227.585938 149.28125 227.304688 150.753906 226.289062 151.605469 C 225.804688 152.011719 225.148438 152.285156 224.511719 152.1875 C 224.429688 152.175781 224.347656 152.15625 224.269531 152.136719 C 224.019531 151.914062 223.824219 151.632812 223.730469 151.316406 C 223.496094 150.527344 223.789062 149.417969 224.269531 148.78125 C 224.65625 148.265625 225.378906 147.972656 225.9375 147.710938 C 226.171875 147.605469 226.523438 147.554688 226.722656 147.386719 C 226.855469 147.277344 226.941406 147.089844 227.015625 146.941406 C 227.074219 146.828125 227.1875 146.636719 227.140625 146.5 C 227.097656 146.375 226.804688 146.460938 226.714844 146.472656 C 226.277344 146.515625 225.832031 146.601562 225.402344 146.699219 C 225.011719 146.789062 224.621094 146.894531 224.25 147.050781 C 223.667969 147.300781 223.207031 147.828125 222.71875 148.214844 C 222.175781 148.644531 221.605469 149.042969 221.042969 149.453125 C 220.75 149.667969 220.457031 149.914062 220.136719 150.097656 C 220.136719 150.097656 218.980469 154.371094 219 154.410156 C 219.046875 154.5 219.351562 154.523438 219.433594 154.542969 C 219.910156 154.660156 220.382812 154.789062 220.859375 154.90625 C 222.25 155.257812 223.667969 155.4375 225.085938 155.660156 C 225.492188 155.722656 225.914062 155.765625 226.328125 155.839844 C 227.324219 156.546875 228.40625 156.628906 229.597656 156.648438 C 230.085938 156.65625 230.570312 156.605469 231.050781 156.542969 C 231.273438 156.511719 231.550781 156.5 231.757812 156.40625 C 232.003906 156.292969 231.464844 155.929688 231.355469 155.894531 C 230.976562 155.769531 230.472656 155.867188 230.074219 155.828125 C 229.382812 155.753906 228.660156 155.539062 228.054688 155.167969 C 229.253906 155.136719 230.167969 154.570312 231.132812 153.886719 C 231.53125 153.601562 231.890625 153.277344 232.242188 152.9375 C 232.40625 152.78125 232.621094 152.609375 232.734375 152.410156 C 232.867188 152.175781 232.21875 152.199219 232.105469 152.238281 C 231.726562 152.359375 231.378906 152.738281 231.035156 152.9375 C 230.347656 153.34375 229.519531 153.617188 228.707031 153.617188 C 229.476562 152.949219 229.875 152.074219 230.253906 151.101562 C 230.433594 150.644531 230.554688 150.171875 230.664062 149.695312 C 230.714844 149.476562 230.796875 149.210938 230.78125 148.984375 C 230.765625 148.714844 230.238281 149.09375 230.164062 149.183594 C 229.914062 149.496094 229.828125 150.003906 229.652344 150.363281 C 229.285156 151.109375 228.710938 151.820312 227.996094 152.265625 Z M 227.789062 154.988281 L 227.792969 154.984375 L 227.800781 154.996094 L 227.792969 154.992188 L 227.789062 154.988281 " fill-opacity="1" fill-rule="evenodd"/></g><path fill="#142645" d="M 136.984375 89.46875 C 141.898438 89.039062 145.03125 89.257812 149.980469 89.15625 C 153.878906 89.074219 157.265625 88.804688 160.742188 90.546875 C 170.164062 95.269531 169.828125 103.53125 174.160156 118.535156 C 175.644531 123.679688 177.070312 129.78125 180.894531 132.902344 C 183.542969 135.066406 187.3125 136.160156 190.445312 137.644531 C 196.535156 140.53125 202.589844 143.59375 208.875 146.136719 C 212.226562 147.496094 218.617188 148.023438 218.351562 152.261719 C 218.007812 157.730469 204.089844 156.21875 200.453125 155.996094 C 198.933594 155.902344 197.414062 155.761719 195.902344 155.589844 C 187.433594 154.625 178.234375 154.714844 170.1875 151.964844 C 165.910156 150.5 162.53125 147.632812 159.046875 145.113281 L 158.859375 144.976562 C 158.308594 146.335938 157.761719 147.695312 157.015625 148.992188 C 156.542969 149.8125 155.917969 151.160156 154.980469 151.660156 C 153.773438 152.300781 151.855469 152.136719 150.527344 152.152344 C 149.304688 152.164062 148.082031 152.160156 146.855469 152.15625 C 146.808594 152.351562 146.75 152.453125 146.691406 152.453125 C 144.589844 152.453125 142.488281 152.453125 140.386719 152.453125 C 138.503906 152.453125 136.605469 152.503906 134.710938 152.480469 C 132.820312 152.503906 130.921875 152.453125 129.039062 152.453125 C 126.9375 152.453125 124.835938 152.453125 122.734375 152.453125 C 122.671875 152.453125 122.617188 152.351562 122.566406 152.15625 C 121.34375 152.160156 120.121094 152.164062 118.898438 152.152344 C 117.566406 152.136719 115.652344 152.300781 114.445312 151.660156 C 113.507812 151.160156 112.878906 149.8125 112.410156 148.992188 C 111.664062 147.695312 111.117188 146.335938 110.5625 144.976562 L 110.375 145.113281 C 106.894531 147.632812 103.515625 150.5 99.238281 151.964844 C 91.191406 154.714844 81.992188 154.625 73.523438 155.589844 C 72.011719 155.761719 70.492188 155.902344 68.972656 155.996094 C 65.335938 156.21875 51.417969 157.730469 51.074219 152.261719 C 50.804688 148.023438 57.199219 147.496094 60.550781 146.136719 C 66.835938 143.59375 72.886719 140.53125 78.976562 137.644531 C 82.113281 136.160156 85.882812 135.066406 88.53125 132.902344 C 92.351562 129.78125 93.777344 123.679688 95.265625 118.535156 C 99.59375 103.53125 99.261719 95.269531 108.683594 90.546875 C 112.160156 88.804688 115.546875 89.074219 119.445312 89.15625 C 124.394531 89.257812 127.527344 89.039062 132.441406 89.46875 L 136.984375 89.46875 " fill-opacity="1" fill-rule="evenodd"/><path fill="#fdbcaa" d="M 127.480469 74.433594 C 127.296875 76.753906 127.105469 87.5 127.105469 89.828125 C 127.105469 90.472656 129.398438 97.507812 135.953125 97.605469 C 142.199219 97.695312 144.347656 90.5625 144.5 90.339844 C 144.667969 90.085938 144.722656 77.558594 144.808594 74.824219 L 127.480469 74.433594 " fill-opacity="1" fill-rule="evenodd"/><g clip-path="url(#22d3a33867)"><g clip-path="url(#18268c75ed)"><path fill="#fa987d" d="M 131.882812 43.070312 C 132.453125 42.941406 133.03125 42.859375 133.632812 42.804688 C 135.785156 42.617188 137.988281 42.417969 140.128906 42.816406 C 140.46875 42.882812 140.8125 42.949219 141.144531 43.035156 C 141.234375 43.039062 141.320312 43.042969 141.410156 43.050781 C 141.921875 43.101562 142.429688 43.234375 142.90625 43.417969 C 143.746094 43.738281 144.519531 44.246094 145.253906 44.757812 C 146.351562 45.53125 147.386719 46.398438 148.300781 47.382812 C 149.722656 48.902344 150.875 50.71875 151.804688 52.582031 L 153.199219 57.59375 C 152.644531 59.691406 152.992188 62.566406 153.457031 64.664062 C 153.648438 65.515625 154.074219 66.339844 154.207031 67.203125 C 154.492188 69.023438 154.144531 70.835938 153.695312 72.59375 C 152.75 76.324219 151.265625 79.359375 148.296875 81.917969 C 147.015625 83.023438 145.621094 83.984375 144.230469 84.941406 C 143.367188 85.539062 142.476562 86.101562 141.566406 86.621094 C 140.617188 87.164062 139.496094 87.859375 138.410156 88.070312 L 138.386719 88.074219 C 137.984375 88.230469 137.515625 88.25 137.097656 88.273438 C 135.746094 88.347656 134.316406 88.199219 133.214844 87.371094 C 132.746094 87.125 132.296875 86.859375 131.882812 86.621094 C 130.972656 86.101562 130.078125 85.539062 129.21875 84.941406 C 127.824219 83.984375 126.433594 83.023438 125.152344 81.917969 C 122.183594 79.359375 120.699219 76.324219 119.753906 72.59375 C 119.304688 70.835938 118.957031 69.023438 119.238281 67.203125 C 119.375 66.339844 119.800781 65.515625 119.988281 64.664062 C 120.457031 62.566406 120.804688 59.691406 120.246094 57.59375 L 121.644531 52.582031 C 122.574219 50.71875 123.726562 48.902344 125.144531 47.382812 C 126.0625 46.398438 127.097656 45.53125 128.195312 44.757812 C 128.574219 44.492188 128.96875 44.226562 129.375 43.988281 C 129.425781 43.953125 129.488281 43.921875 129.546875 43.890625 C 129.867188 43.710938 130.199219 43.546875 130.539062 43.417969 C 130.972656 43.25 131.421875 43.128906 131.882812 43.070312 " fill-opacity="1" fill-rule="evenodd"/></g></g><path fill="#fdbcaa" d="M 118.644531 65.398438 C 117.855469 64.304688 116.957031 63.054688 115.609375 62.65625 C 113.429688 62.011719 111.625 64.769531 111.507812 66.628906 C 111.339844 69.328125 113.785156 71.589844 115.75 73.058594 C 116.359375 73.511719 117.242188 74.277344 118.046875 74.332031 C 118.808594 74.382812 119.816406 73.773438 120.558594 73.523438 L 118.644531 65.398438 " fill-opacity="1" fill-rule="evenodd"/><path fill="#fdbcaa" d="M 153.15625 65.398438 C 153.945312 64.304688 154.84375 63.054688 156.191406 62.65625 C 158.371094 62.011719 160.175781 64.769531 160.292969 66.628906 C 160.460938 69.328125 158.011719 71.589844 156.046875 73.058594 C 155.441406 73.511719 154.558594 74.277344 153.753906 74.332031 C 152.992188 74.382812 151.980469 73.773438 151.242188 73.523438 L 153.15625 65.398438 " fill-opacity="1" fill-rule="evenodd"/><path fill="#fdbcaa" d="M 131.058594 38.925781 C 131.628906 38.796875 132.207031 38.714844 132.808594 38.660156 C 134.960938 38.472656 137.167969 38.269531 139.308594 38.671875 C 139.644531 38.734375 139.988281 38.804688 140.324219 38.890625 C 140.410156 38.894531 140.496094 38.898438 140.589844 38.90625 C 141.101562 38.957031 141.605469 39.089844 142.085938 39.273438 C 142.921875 39.59375 143.699219 40.101562 144.429688 40.613281 C 145.527344 41.386719 146.5625 42.253906 147.476562 43.234375 C 148.898438 44.761719 150.050781 46.574219 150.980469 48.4375 L 152.378906 53.449219 C 151.820312 55.546875 152.167969 58.421875 152.632812 60.519531 C 152.824219 61.371094 153.25 62.191406 153.382812 63.058594 C 153.667969 64.882812 153.320312 66.691406 152.871094 68.449219 C 151.925781 72.179688 150.441406 75.214844 147.472656 77.773438 C 146.191406 78.878906 144.800781 79.839844 143.40625 80.796875 C 142.542969 81.394531 141.652344 81.957031 140.742188 82.476562 C 139.792969 83.019531 138.671875 83.714844 137.585938 83.925781 L 137.566406 83.929688 C 137.160156 84.085938 136.695312 84.105469 136.273438 84.128906 C 134.925781 84.203125 133.492188 84.054688 132.390625 83.226562 C 131.925781 82.980469 131.476562 82.714844 131.058594 82.476562 C 130.148438 81.957031 129.257812 81.394531 128.394531 80.796875 C 127 79.839844 125.609375 78.878906 124.328125 77.773438 C 121.359375 75.214844 119.875 72.179688 118.929688 68.449219 C 118.480469 66.691406 118.132812 64.882812 118.414062 63.058594 C 118.550781 62.191406 118.976562 61.371094 119.164062 60.519531 C 119.632812 58.421875 119.980469 55.546875 119.421875 53.449219 L 120.820312 48.4375 C 121.75 46.574219 122.902344 44.761719 124.324219 43.238281 C 125.238281 42.253906 126.273438 41.386719 127.371094 40.613281 C 127.75 40.347656 128.144531 40.082031 128.550781 39.84375 C 128.605469 39.808594 128.664062 39.777344 128.722656 39.746094 C 129.042969 39.566406 129.375 39.402344 129.714844 39.273438 C 130.148438 39.105469 130.601562 38.984375 131.058594 38.925781 " fill-opacity="1" fill-rule="evenodd"/><path fill="#000000" d="M 132.859375 62.703125 C 132.335938 63.492188 131.714844 64.125 130.988281 64.597656 C 130.238281 65.082031 129.382812 65.382812 128.421875 65.507812 C 128.035156 65.550781 127.640625 65.574219 127.246094 65.546875 C 126.96875 65.53125 126.695312 65.484375 126.429688 65.40625 C 126.113281 65.3125 125.820312 65.179688 125.539062 65.023438 C 125.125 64.789062 124.730469 64.515625 124.332031 64.257812 C 124.238281 64.195312 124.148438 64.128906 124.054688 64.066406 C 123.992188 64.027344 123.9375 63.976562 123.871094 63.9375 C 123.71875 63.824219 123.5625 63.734375 123.386719 63.664062 C 123.082031 63.542969 122.789062 63.457031 122.480469 63.375 C 122.804688 63.289062 123.113281 63.207031 123.453125 63.171875 C 123.703125 63.144531 123.929688 63.171875 124.175781 63.214844 C 124.382812 63.273438 124.582031 63.339844 124.777344 63.433594 C 125.058594 63.574219 125.320312 63.761719 125.589844 63.933594 C 125.945312 64.164062 126.296875 64.402344 126.707031 64.542969 C 126.960938 64.632812 127.226562 64.683594 127.496094 64.707031 C 127.785156 64.734375 128.078125 64.734375 128.359375 64.722656 C 129.230469 64.703125 130.015625 64.503906 130.734375 64.148438 C 131.46875 63.785156 132.128906 63.265625 132.710938 62.589844 C 132.742188 62.550781 132.800781 62.542969 132.839844 62.574219 C 132.878906 62.605469 132.886719 62.664062 132.859375 62.703125 " fill-opacity="1" fill-rule="evenodd"/><path fill="#000000" d="M 138.941406 62.703125 C 139.464844 63.492188 140.085938 64.125 140.8125 64.597656 C 141.5625 65.082031 142.417969 65.382812 143.378906 65.507812 C 143.765625 65.550781 144.160156 65.574219 144.554688 65.546875 C 144.832031 65.53125 145.105469 65.484375 145.371094 65.40625 C 145.6875 65.3125 145.980469 65.179688 146.261719 65.023438 C 146.675781 64.789062 147.066406 64.515625 147.46875 64.257812 C 147.5625 64.195312 147.652344 64.128906 147.746094 64.066406 C 147.808594 64.027344 147.863281 63.976562 147.929688 63.9375 C 148.082031 63.824219 148.238281 63.734375 148.414062 63.664062 C 148.71875 63.542969 149.007812 63.457031 149.320312 63.375 C 148.996094 63.289062 148.6875 63.207031 148.347656 63.171875 C 148.097656 63.144531 147.867188 63.171875 147.625 63.214844 C 147.417969 63.273438 147.21875 63.339844 147.023438 63.433594 C 146.738281 63.574219 146.480469 63.761719 146.210938 63.933594 C 145.855469 64.164062 145.503906 64.402344 145.09375 64.542969 C 144.839844 64.632812 144.574219 64.683594 144.304688 64.707031 C 144.015625 64.734375 143.722656 64.734375 143.441406 64.722656 C 142.570312 64.703125 141.785156 64.503906 141.066406 64.148438 C 140.332031 63.785156 139.671875 63.265625 139.089844 62.589844 C 139.058594 62.550781 139 62.542969 138.960938 62.574219 C 138.917969 62.605469 138.910156 62.664062 138.941406 62.703125 " fill-opacity="1" fill-rule="evenodd"/><path fill="#39161d" d="M 123.214844 59.117188 C 123.832031 58.695312 124.601562 58.320312 125.4375 58 C 125.941406 57.8125 126.46875 57.652344 127 57.523438 C 127.476562 57.410156 127.953125 57.332031 128.425781 57.285156 C 128.742188 57.25 129.058594 57.242188 129.363281 57.234375 C 129.46875 57.234375 129.574219 57.226562 129.675781 57.21875 C 129.789062 57.207031 129.886719 57.183594 129.996094 57.164062 C 130.367188 57.109375 130.664062 57.054688 131.027344 57.066406 C 130.792969 56.859375 130.582031 56.707031 130.304688 56.550781 C 130.125 56.453125 129.953125 56.382812 129.75 56.320312 C 129.695312 56.304688 129.636719 56.292969 129.578125 56.285156 C 129.351562 56.25 129.117188 56.253906 128.882812 56.265625 C 128.460938 56.285156 128.035156 56.355469 127.609375 56.457031 C 126.933594 56.625 126.261719 56.875 125.636719 57.1875 C 124.636719 57.683594 123.757812 58.328125 123.09375 58.96875 C 123.054688 59.003906 123.046875 59.0625 123.082031 59.101562 C 123.113281 59.144531 123.171875 59.148438 123.214844 59.117188 " fill-opacity="1" fill-rule="evenodd"/><path fill="#39161d" d="M 148.652344 59.117188 C 148.035156 58.695312 147.265625 58.320312 146.425781 58 C 145.921875 57.8125 145.398438 57.652344 144.863281 57.523438 C 144.390625 57.410156 143.910156 57.332031 143.441406 57.285156 C 143.121094 57.25 142.808594 57.242188 142.5 57.234375 C 142.394531 57.234375 142.292969 57.226562 142.1875 57.21875 C 142.078125 57.207031 141.976562 57.183594 141.867188 57.164062 C 141.5 57.109375 141.199219 57.054688 140.839844 57.066406 C 141.070312 56.859375 141.28125 56.707031 141.5625 56.550781 C 141.742188 56.453125 141.914062 56.382812 142.113281 56.320312 C 142.171875 56.304688 142.226562 56.292969 142.289062 56.285156 C 142.511719 56.25 142.75 56.253906 142.984375 56.265625 C 143.40625 56.285156 143.832031 56.355469 144.257812 56.457031 C 144.933594 56.625 145.601562 56.875 146.230469 57.1875 C 147.230469 57.683594 148.109375 58.328125 148.769531 58.96875 C 148.8125 59.003906 148.816406 59.0625 148.785156 59.101562 C 148.75 59.144531 148.691406 59.148438 148.652344 59.117188 " fill-opacity="1" fill-rule="evenodd"/><path fill="#fdb6a3" d="M 135.9375 64.882812 C 136.933594 65.007812 137.890625 65.570312 138.757812 66.03125 C 139.863281 66.625 140.941406 67.160156 142.203125 67.339844 C 143.570312 67.535156 144.859375 67.21875 146.210938 67.074219 C 147.03125 66.984375 147.960938 66.933594 148.691406 67.378906 C 149.476562 67.851562 149.761719 68.847656 149.761719 69.714844 C 149.761719 71.582031 148.492188 73.335938 146.625 73.644531 C 144.628906 73.980469 142.851562 72.902344 141.195312 71.941406 C 140.132812 71.328125 139.046875 70.75 137.96875 70.171875 C 137.289062 69.808594 136.574219 69.332031 135.808594 69.121094 C 135.113281 69.351562 134.457031 69.78125 133.832031 70.113281 C 132.75 70.691406 131.667969 71.269531 130.605469 71.882812 C 128.949219 72.84375 127.171875 73.921875 125.175781 73.589844 C 123.308594 73.277344 122.039062 71.527344 122.039062 69.65625 C 122.039062 68.792969 122.324219 67.796875 123.105469 67.320312 C 123.839844 66.875 124.769531 66.929688 125.585938 67.015625 C 126.941406 67.160156 128.230469 67.476562 129.597656 67.28125 C 130.859375 67.105469 131.9375 66.566406 133.046875 65.976562 C 133.921875 65.507812 134.890625 64.933594 135.902344 64.824219 L 135.9375 64.882812 " fill-opacity="1" fill-rule="evenodd"/><path fill="#000000" d="M 138.402344 73.066406 C 136.847656 74.144531 134.597656 74.109375 132.914062 73.328125 C 132.804688 73.277344 132.675781 73.324219 132.625 73.4375 C 132.574219 73.546875 132.621094 73.675781 132.730469 73.726562 C 134.546875 74.570312 136.972656 74.59375 138.652344 73.429688 C 138.75 73.359375 138.773438 73.222656 138.707031 73.121094 C 138.636719 73.023438 138.5 73 138.402344 73.066406 " fill-opacity="1" fill-rule="evenodd"/><path fill="#000000" d="M 135.589844 66.898438 C 135.609375 67.152344 135.554688 67.398438 135.507812 67.648438 C 135.453125 67.9375 135.402344 68.234375 135.425781 68.535156 C 135.457031 68.886719 135.5 69.273438 135.632812 69.605469 C 135.675781 69.710938 135.734375 69.808594 135.789062 69.90625 C 135.84375 70.007812 135.898438 70.101562 135.898438 70.21875 C 135.894531 70.308594 135.855469 70.394531 135.816406 70.480469 C 135.757812 70.597656 135.6875 70.707031 135.632812 70.816406 C 135.570312 70.9375 135.621094 71.082031 135.738281 71.140625 C 135.859375 71.203125 136.003906 71.152344 136.0625 71.035156 C 136.1875 70.785156 136.371094 70.519531 136.378906 70.234375 C 136.386719 70.054688 136.328125 69.898438 136.25 69.746094 C 136.195312 69.640625 136.128906 69.535156 136.082031 69.425781 C 135.96875 69.136719 135.933594 68.800781 135.910156 68.492188 C 135.886719 68.238281 135.9375 67.988281 135.984375 67.738281 C 136.039062 67.449219 136.09375 67.160156 136.074219 66.867188 C 136.0625 66.734375 135.949219 66.632812 135.816406 66.640625 C 135.683594 66.652344 135.582031 66.765625 135.589844 66.898438 " fill-opacity="1" fill-rule="evenodd"/><path fill="#39161d" d="M 129.777344 42.722656 C 130.625 42.519531 131.507812 42.390625 132.3125 42.164062 C 133.128906 41.929688 133.96875 41.472656 134.863281 41.636719 C 136.328125 41.910156 138.109375 46.113281 141.945312 49.9375 C 144.339844 52.328125 152.613281 58.722656 153 59.46875 C 153.035156 59.53125 153.296875 60.144531 153.46875 60.027344 C 153.941406 59.714844 154.449219 57.519531 154.597656 56.976562 C 155.558594 53.46875 152.996094 47.269531 151.238281 43.964844 C 148.722656 39.238281 142.902344 35.242188 136.976562 35.53125 C 133.984375 35.675781 130.875 37.214844 128.589844 38.890625 L 128.507812 39.1875 L 126.425781 38.988281 C 121.824219 40.746094 116.96875 43.21875 115.671875 48 C 114.816406 51.152344 115.519531 54.699219 115.773438 57.90625 C 115.839844 58.699219 115.972656 59.476562 116.332031 60.210938 C 116.417969 60.378906 116.585938 60.804688 116.828125 60.84375 C 117.410156 60.933594 118.5 59.777344 118.863281 59.484375 C 120.816406 57.902344 122.589844 56.191406 123.992188 54.171875 C 125.207031 52.421875 126.3125 50.601562 127.292969 48.730469 C 128.574219 46.289062 129.316406 45.308594 129.777344 42.722656 " fill-opacity="1" fill-rule="evenodd"/><path fill="#fbad49" d="M 118 73.121094 C 118.578125 74.335938 118.585938 77.375 118.164062 79.046875 C 118.078125 79.386719 117.976562 79.667969 117.855469 79.859375 C 117.777344 79.980469 117.707031 80.070312 117.605469 80.058594 C 117.40625 80.039062 117.253906 79.929688 117.128906 79.761719 C 116.984375 79.5625 116.878906 79.289062 116.804688 78.96875 C 116.421875 77.351562 116.75 74.773438 116.855469 73.878906 C 116.871094 73.761719 116.484375 73.480469 116.46875 73.597656 C 116.363281 74.515625 115.996094 77.40625 116.386719 79.066406 C 116.578125 79.878906 116.964844 80.421875 117.558594 80.484375 C 117.761719 80.507812 117.953125 80.421875 118.117188 80.226562 C 118.300781 80.007812 118.460938 79.628906 118.582031 79.148438 C 119.023438 77.394531 118.996094 74.210938 118.386719 72.9375 C 118.335938 72.828125 118.207031 72.785156 118.097656 72.835938 C 117.992188 72.886719 117.949219 73.015625 118 73.121094 " fill-opacity="1" fill-rule="evenodd"/><path fill="#fbad49" d="M 153.867188 73.121094 C 153.289062 74.335938 153.28125 77.375 153.703125 79.046875 C 153.789062 79.386719 153.890625 79.667969 154.011719 79.859375 C 154.089844 79.980469 154.164062 80.070312 154.261719 80.058594 C 154.460938 80.039062 154.613281 79.929688 154.738281 79.761719 C 154.882812 79.5625 154.988281 79.289062 155.0625 78.96875 C 155.445312 77.351562 155.117188 74.773438 155.011719 73.878906 C 154.996094 73.761719 155.382812 73.480469 155.398438 73.597656 C 155.507812 74.515625 155.875 77.40625 155.480469 79.066406 C 155.289062 79.878906 154.90625 80.421875 154.308594 80.484375 C 154.105469 80.507812 153.917969 80.421875 153.75 80.226562 C 153.566406 80.007812 153.410156 79.628906 153.289062 79.148438 C 152.84375 77.394531 152.875 74.210938 153.484375 72.9375 C 153.535156 72.828125 153.660156 72.785156 153.769531 72.835938 C 153.875 72.886719 153.917969 73.015625 153.867188 73.121094 " fill-opacity="1" fill-rule="evenodd"/><path fill="#39161d" d="M 134.207031 36.496094 C 134.773438 35.1875 135.050781 33.644531 135.375 32.261719 C 135.640625 31.132812 135.855469 29.988281 135.820312 28.828125 C 135.804688 28.359375 135.75 27.878906 135.632812 27.429688 C 135.070312 25.300781 133.058594 24.84375 131.320312 25.738281 C 130.710938 26.050781 130.214844 26.570312 129.59375 26.859375 C 128.703125 27.273438 127.691406 27.289062 126.859375 27.882812 C 125.203125 29.058594 124.425781 31.925781 125.464844 33.707031 C 126.402344 35.316406 128.09375 36.132812 129.519531 37.15625 L 134.207031 36.496094 " fill-opacity="1" fill-rule="evenodd"/><g clip-path="url(#efee2bc442)"><g clip-path="url(#02b16a84b3)"><g transform="matrix(1, 0, 0, 1, 120, 51)"><g clip-path="url(#6dd4a6d7df)"><g clip-path="url(#17ee61106c)"><g clip-path="url(#123570b902)"><path fill="#fdbcaa" d="M 0.988281 0.902344 L 30.839844 0.902344 L 30.839844 27.25 L 0.988281 27.25 Z M 0.988281 0.902344 " fill-opacity="1" fill-rule="nonzero"/></g></g></g></g></g></g></svg>