<svg xmlns="http://www.w3.org/2000/svg" xmlns:xlink="http://www.w3.org/1999/xlink" width="324" zoomAndPan="magnify" viewBox="0 0 242.87999 269.999989" height="360" preserveAspectRatio="xMidYMid meet" version="1.0"><defs><g/><clipPath id="3714f2fe7e"><path d="M 104.824219 183 L 135.140625 183 L 135.140625 194.398438 L 104.824219 194.398438 Z M 104.824219 183 " clip-rule="nonzero"/></clipPath><clipPath id="bd532804ea"><path d="M 118.257812 183 L 135.140625 183 L 135.140625 194.398438 L 118.257812 194.398438 Z M 118.257812 183 " clip-rule="nonzero"/></clipPath><clipPath id="59ef8c863b"><path d="M 116 15.242188 L 124 15.242188 L 124 36 L 116 36 Z M 116 15.242188 " clip-rule="nonzero"/></clipPath><clipPath id="6c8c270524"><path d="M 183.878906 87.601562 L 203.832031 87.601562 L 203.832031 95.835938 L 183.878906 95.835938 Z M 183.878906 87.601562 " clip-rule="nonzero"/></clipPath></defs><path fill="#ffce00" d="M 119.980469 46.84375 C 94.410156 46.84375 73.683594 67.523438 73.683594 93.03125 C 73.683594 102.027344 76.261719 110.417969 80.71875 117.519531 C 82.703125 120.675781 85.183594 123.488281 88.015625 125.917969 C 92.507812 129.769531 102.183594 139.863281 102.183594 155.285156 C 102.1875 155.433594 102.191406 155.582031 102.195312 155.726562 C 102.382812 160.8125 106.59375 164.824219 111.695312 164.824219 L 128.269531 164.824219 C 133.367188 164.824219 137.582031 160.8125 137.765625 155.726562 C 137.769531 155.582031 137.777344 155.433594 137.78125 155.285156 C 137.78125 139.863281 147.457031 129.769531 151.945312 125.917969 C 154.777344 123.488281 157.261719 120.675781 159.246094 117.519531 C 163.703125 110.417969 166.277344 102.027344 166.277344 93.03125 C 166.277344 67.523438 145.550781 46.84375 119.980469 46.84375 " fill-opacity="1" fill-rule="nonzero"/><path fill="#7f8080" d="M 133.496094 170.335938 L 106.464844 170.335938 C 105.4375 170.335938 104.601562 169.503906 104.601562 168.476562 C 104.601562 167.449219 105.4375 166.617188 106.464844 166.617188 L 133.496094 166.617188 C 134.527344 166.617188 135.359375 167.449219 135.359375 168.476562 C 135.359375 169.503906 134.527344 170.335938 133.496094 170.335938 " fill-opacity="1" fill-rule="nonzero"/><path fill="#7f8080" d="M 133.496094 175.839844 L 106.464844 175.839844 C 105.4375 175.839844 104.601562 175.007812 104.601562 173.980469 C 104.601562 172.953125 105.4375 172.121094 106.464844 172.121094 L 133.496094 172.121094 C 134.527344 172.121094 135.359375 172.953125 135.359375 173.980469 C 135.359375 175.007812 134.527344 175.839844 133.496094 175.839844 " fill-opacity="1" fill-rule="nonzero"/><g clip-path="url(#3714f2fe7e)"><path fill="#7f8080" d="M 134.097656 183.125 C 134.683594 183.125 135.117188 183.664062 134.996094 184.234375 C 134.320312 187.386719 132.390625 191.726562 126.910156 191.726562 C 126.195312 191.726562 125.570312 192.050781 125.03125 192.546875 C 123.71875 193.757812 121.972656 194.398438 120.183594 194.398438 L 119.78125 194.398438 C 117.988281 194.398438 116.246094 193.757812 114.929688 192.546875 C 114.394531 192.050781 113.769531 191.726562 113.054688 191.726562 C 107.570312 191.726562 105.644531 187.386719 104.96875 184.234375 C 104.84375 183.664062 105.277344 183.125 105.863281 183.125 L 134.097656 183.125 " fill-opacity="1" fill-rule="nonzero"/></g><path fill="#7f8080" d="M 133.496094 181.34375 L 106.464844 181.34375 C 105.4375 181.34375 104.601562 180.511719 104.601562 179.484375 C 104.601562 178.457031 105.4375 177.625 106.464844 177.625 L 133.496094 177.625 C 134.527344 177.625 135.359375 178.457031 135.359375 179.484375 C 135.359375 180.511719 134.527344 181.34375 133.496094 181.34375 " fill-opacity="1" fill-rule="nonzero"/><path fill="#f7c700" d="M 166.277344 93.03125 C 166.277344 102.023438 163.703125 110.417969 159.242188 117.519531 C 157.261719 120.675781 154.777344 123.488281 151.945312 125.917969 C 147.457031 129.769531 137.777344 139.863281 137.777344 155.285156 C 137.777344 155.433594 137.773438 155.582031 137.765625 155.726562 C 137.582031 160.8125 133.367188 164.824219 128.269531 164.824219 L 123.375 164.824219 C 128.472656 164.824219 132.6875 160.8125 132.875 155.726562 C 132.878906 155.582031 132.882812 155.433594 132.886719 155.285156 C 132.886719 139.863281 142.5625 129.769531 147.054688 125.917969 C 149.886719 123.488281 152.367188 120.675781 154.351562 117.519531 C 158.808594 110.417969 161.386719 102.023438 161.386719 93.03125 C 161.386719 68.34375 141.96875 48.175781 117.535156 46.90625 C 118.34375 46.863281 119.160156 46.84375 119.980469 46.84375 C 145.550781 46.84375 166.277344 67.523438 166.277344 93.03125 " fill-opacity="1" fill-rule="nonzero"/><path fill="#747575" d="M 135.359375 168.476562 C 135.359375 168.988281 135.152344 169.453125 134.8125 169.789062 C 134.476562 170.128906 134.011719 170.335938 133.496094 170.335938 L 131.921875 170.335938 C 132.4375 170.335938 132.902344 170.128906 133.242188 169.789062 C 133.578125 169.453125 133.785156 168.988281 133.785156 168.476562 C 133.785156 167.449219 132.953125 166.617188 131.921875 166.617188 L 133.496094 166.617188 C 134.523438 166.617188 135.359375 167.449219 135.359375 168.476562 " fill-opacity="1" fill-rule="nonzero"/><path fill="#747575" d="M 135.359375 173.980469 C 135.359375 174.492188 135.152344 174.957031 134.8125 175.292969 C 134.476562 175.632812 134.011719 175.839844 133.496094 175.839844 L 131.921875 175.839844 C 132.4375 175.839844 132.902344 175.632812 133.242188 175.292969 C 133.578125 174.957031 133.785156 174.492188 133.785156 173.980469 C 133.785156 172.953125 132.953125 172.121094 131.921875 172.121094 L 133.496094 172.121094 C 134.523438 172.121094 135.359375 172.953125 135.359375 173.980469 " fill-opacity="1" fill-rule="nonzero"/><g clip-path="url(#bd532804ea)"><path fill="#747575" d="M 134.996094 184.234375 C 134.320312 187.386719 132.390625 191.726562 126.910156 191.726562 C 126.195312 191.726562 125.570312 192.050781 125.03125 192.546875 C 123.71875 193.757812 121.972656 194.398438 120.183594 194.398438 L 119.78125 194.398438 C 119.308594 194.398438 118.835938 194.355469 118.378906 194.265625 L 118.609375 194.265625 C 120.398438 194.265625 122.144531 193.625 123.460938 192.414062 C 123.996094 191.917969 124.621094 191.59375 125.335938 191.59375 C 130.820312 191.59375 132.746094 187.253906 133.421875 184.101562 C 133.507812 183.703125 133.324219 183.324219 133.003906 183.125 L 134.097656 183.125 C 134.683594 183.125 135.117188 183.664062 134.996094 184.234375 " fill-opacity="1" fill-rule="nonzero"/></g><path fill="#747575" d="M 135.359375 179.484375 C 135.359375 179.996094 135.152344 180.460938 134.8125 180.796875 C 134.476562 181.132812 134.011719 181.34375 133.496094 181.34375 L 131.921875 181.34375 C 132.4375 181.34375 132.902344 181.132812 133.242188 180.796875 C 133.578125 180.460938 133.785156 179.996094 133.785156 179.484375 C 133.785156 178.457031 132.953125 177.621094 131.921875 177.621094 L 133.496094 177.621094 C 134.523438 177.621094 135.359375 178.457031 135.359375 179.484375 " fill-opacity="1" fill-rule="nonzero"/><path fill="#ffe575" d="M 87.835938 77.636719 C 87.613281 77.636719 87.390625 77.601562 87.167969 77.535156 C 85.9375 77.167969 85.238281 75.875 85.609375 74.648438 C 87.222656 69.285156 90.148438 64.917969 94.304688 61.671875 C 97.714844 59.007812 101.117188 57.796875 102.839844 57.316406 C 104.074219 56.96875 105.359375 57.6875 105.707031 58.921875 C 106.050781 60.152344 105.332031 61.433594 104.097656 61.78125 C 102.703125 62.171875 99.953125 63.152344 97.167969 65.324219 C 93.785156 67.96875 91.394531 71.554688 90.0625 75.980469 C 89.757812 76.984375 88.835938 77.636719 87.835938 77.636719 " fill-opacity="1" fill-rule="nonzero"/><path fill="#ffce00" d="M 52.710938 95.730469 C 52.597656 95.730469 52.484375 95.722656 52.371094 95.710938 L 39.125 94.371094 C 37.292969 94.183594 35.960938 92.554688 36.148438 90.730469 C 36.332031 88.902344 37.964844 87.574219 39.796875 87.757812 L 53.042969 89.101562 C 54.871094 89.285156 56.207031 90.914062 56.019531 92.742188 C 55.847656 94.453125 54.398438 95.730469 52.710938 95.730469 " fill-opacity="1" fill-rule="nonzero"/><path fill="#ffce00" d="M 64.46875 62.078125 C 63.785156 62.078125 63.097656 61.867188 62.503906 61.4375 L 51.574219 53.46875 C 50.089844 52.386719 49.765625 50.308594 50.851562 48.828125 C 51.9375 47.34375 54.019531 47.019531 55.507812 48.101562 L 66.433594 56.070312 C 67.921875 57.152344 68.246094 59.230469 67.160156 60.714844 C 66.507812 61.605469 65.496094 62.078125 64.46875 62.078125 " fill-opacity="1" fill-rule="nonzero"/><path fill="#ffce00" d="M 89.03125 41.886719 C 87.816406 41.886719 86.648438 41.222656 86.058594 40.070312 L 79.964844 28.128906 C 79.128906 26.492188 79.78125 24.492188 81.421875 23.660156 C 83.0625 22.824219 85.066406 23.476562 85.902344 25.113281 L 91.996094 37.054688 C 92.832031 38.691406 92.179688 40.691406 90.539062 41.523438 C 90.054688 41.769531 89.539062 41.886719 89.03125 41.886719 " fill-opacity="1" fill-rule="nonzero"/><g clip-path="url(#59ef8c863b)"><path fill="#ffce00" d="M 119.980469 35.152344 C 118.140625 35.152344 116.652344 33.667969 116.652344 31.832031 L 116.652344 18.5625 C 116.652344 16.730469 118.140625 15.242188 119.980469 15.242188 C 121.820312 15.242188 123.3125 16.730469 123.3125 18.5625 L 123.3125 31.832031 C 123.3125 33.667969 121.820312 35.152344 119.980469 35.152344 " fill-opacity="1" fill-rule="nonzero"/></g><path fill="#ffce00" d="M 150.933594 41.886719 C 150.425781 41.886719 149.910156 41.769531 149.425781 41.523438 C 147.785156 40.691406 147.132812 38.691406 147.96875 37.054688 L 154.0625 25.113281 C 154.894531 23.476562 156.902344 22.824219 158.539062 23.660156 C 160.179688 24.492188 160.832031 26.492188 159.996094 28.128906 L 153.902344 40.070312 C 153.316406 41.222656 152.144531 41.886719 150.933594 41.886719 " fill-opacity="1" fill-rule="nonzero"/><path fill="#ffce00" d="M 175.496094 62.078125 C 174.46875 62.078125 173.457031 61.605469 172.800781 60.714844 C 171.71875 59.230469 172.042969 57.152344 173.527344 56.070312 L 184.457031 48.101562 C 185.941406 47.019531 188.027344 47.34375 189.109375 48.828125 C 190.195312 50.308594 189.871094 52.386719 188.386719 53.46875 L 177.457031 61.4375 C 176.863281 61.867188 176.175781 62.078125 175.496094 62.078125 " fill-opacity="1" fill-rule="nonzero"/><g clip-path="url(#6c8c270524)"><path fill="#ffce00" d="M 187.253906 95.730469 C 185.5625 95.730469 184.117188 94.453125 183.941406 92.742188 C 183.757812 90.914062 185.089844 89.285156 186.921875 89.101562 L 200.167969 87.757812 C 201.996094 87.574219 203.628906 88.902344 203.816406 90.730469 C 204 92.554688 202.667969 94.183594 200.839844 94.371094 L 187.59375 95.710938 C 187.480469 95.722656 187.363281 95.730469 187.253906 95.730469 " fill-opacity="1" fill-rule="nonzero"/></g><g fill="#000000" fill-opacity="1"><g transform="translate(61.158579, 240.608241)"><g><path d="M 9.015625 -14.265625 C 10.367188 -14.265625 11.425781 -13.882812 12.1875 -13.125 C 12.945312 -12.363281 13.328125 -11.160156 13.328125 -9.515625 L 13.328125 0 L 1.65625 0 L 1.65625 -14.265625 Z M 10.609375 -2.078125 L 10.609375 -9.65625 C 10.609375 -10.550781 10.414062 -11.195312 10.03125 -11.59375 C 9.644531 -11.988281 9.078125 -12.1875 8.328125 -12.1875 L 4.375 -12.1875 L 4.375 -2.078125 Z M 10.609375 -2.078125 "/></g></g></g><g fill="#000000" fill-opacity="1"><g transform="translate(76.013887, 240.608241)"><g><path d="M 1.78125 -11.296875 L 1.46875 -14.265625 L 4.171875 -14.265625 L 4.5 -11.296875 L 4.5 0 L 1.78125 0 Z M 1.78125 -11.296875 "/></g></g></g><g fill="#000000" fill-opacity="1"><g transform="translate(82.108379, 240.608241)"><g><path d="M 7.875 -9.65625 C 7.875 -10.550781 7.675781 -11.195312 7.28125 -11.59375 C 6.894531 -11.988281 6.332031 -12.1875 5.59375 -12.1875 L 0.890625 -12.1875 L 0.890625 -14.265625 L 6.265625 -14.265625 C 7.617188 -14.265625 8.675781 -13.882812 9.4375 -13.125 C 10.207031 -12.363281 10.59375 -11.160156 10.59375 -9.515625 L 10.59375 0 L 7.875 0 Z M 7.875 -9.65625 "/></g></g></g><g fill="#000000" fill-opacity="1"><g transform="translate(94.297351, 240.608241)"><g><path d="M 1.78125 -11.296875 L 1.46875 -14.265625 L 4.171875 -14.265625 L 4.5 -11.296875 L 4.5 -7.4375 L 4.46875 -5.84375 L 1.78125 -5.328125 Z M 1.78125 -11.296875 "/></g></g></g><g fill="#000000" fill-opacity="1"><g transform="translate(100.391843, 240.608241)"><g><path d="M 8.8125 -14.265625 C 10.1875 -14.265625 11.25 -13.847656 12 -13.015625 C 12.75 -12.191406 13.125 -10.941406 13.125 -9.265625 L 13.125 0 L 10.40625 0 L 10.40625 -9.390625 C 10.40625 -11.253906 9.644531 -12.1875 8.125 -12.1875 L 4.21875 -12.1875 L 4.21875 0 L 1.5 0 L 1.5 -14.265625 Z M 8.8125 -14.265625 "/></g></g></g><g fill="#000000" fill-opacity="1"><g transform="translate(115.069397, 240.608241)"><g/></g></g><g fill="#000000" fill-opacity="1"><g transform="translate(120.148133, 240.608241)"><g><path d="M 0.515625 -1.5 C 1.492188 -1.601562 2.148438 -1.863281 2.484375 -2.28125 C 2.828125 -2.707031 3 -3.394531 3 -4.34375 L 3 -14.265625 L 9.859375 -14.265625 C 11.210938 -14.265625 12.269531 -13.882812 13.03125 -13.125 C 13.789062 -12.363281 14.171875 -11.160156 14.171875 -9.515625 L 14.171875 0 L 11.453125 0 L 11.453125 -9.65625 C 11.453125 -10.550781 11.253906 -11.195312 10.859375 -11.59375 C 10.472656 -11.988281 9.910156 -12.1875 9.171875 -12.1875 L 5.71875 -12.1875 L 5.71875 -4.640625 C 5.71875 -2.972656 5.328125 -1.753906 4.546875 -0.984375 C 3.765625 -0.222656 2.503906 0.238281 0.765625 0.40625 Z M 0.515625 -1.5 "/></g></g></g><g fill="#000000" fill-opacity="1"><g transform="translate(135.841431, 240.608241)"><g><path d="M 7.875 -9.65625 C 7.875 -10.550781 7.675781 -11.195312 7.28125 -11.59375 C 6.894531 -11.988281 6.332031 -12.1875 5.59375 -12.1875 L 0.890625 -12.1875 L 0.890625 -14.265625 L 6.265625 -14.265625 C 7.617188 -14.265625 8.675781 -13.882812 9.4375 -13.125 C 10.207031 -12.363281 10.59375 -11.160156 10.59375 -9.515625 L 10.59375 0 L 7.875 0 Z M 7.875 -9.65625 "/></g></g></g><g fill="#000000" fill-opacity="1"><g transform="translate(148.030404, 240.608241)"><g><path d="M 1.78125 -11.296875 L 1.46875 -14.265625 L 4.171875 -14.265625 L 4.5 -11.296875 L 4.5 0 L 1.78125 0 Z M 1.78125 -11.296875 "/></g></g></g><g fill="#000000" fill-opacity="1"><g transform="translate(154.124896, 240.608241)"><g><path d="M 11.140625 0 L 5.8125 -8.09375 L 3.296875 0 L 0.71875 0 L 3.5 -8.734375 L 4.21875 -10.53125 L 1.875 -14.265625 L 4.640625 -14.265625 L 6.78125 -10.84375 L 8.90625 -7.640625 L 9.546875 -9.859375 L 10.84375 -14.265625 L 13.453125 -14.265625 L 10.515625 -5.28125 L 14.046875 0 Z M 11.140625 0 "/></g></g></g><g fill="#000000" fill-opacity="1"><g transform="translate(169.005597, 240.608241)"><g><path d="M 0.515625 -1.5 C 1.492188 -1.601562 2.148438 -1.863281 2.484375 -2.28125 C 2.828125 -2.707031 3 -3.394531 3 -4.34375 L 3 -14.265625 L 9.859375 -14.265625 C 11.210938 -14.265625 12.269531 -13.882812 13.03125 -13.125 C 13.789062 -12.363281 14.171875 -11.160156 14.171875 -9.515625 L 14.171875 0 L 11.453125 0 L 11.453125 -9.65625 C 11.453125 -10.550781 11.253906 -11.195312 10.859375 -11.59375 C 10.472656 -11.988281 9.910156 -12.1875 9.171875 -12.1875 L 5.71875 -12.1875 L 5.71875 -4.640625 C 5.71875 -2.972656 5.328125 -1.753906 4.546875 -0.984375 C 3.765625 -0.222656 2.503906 0.238281 0.765625 0.40625 Z M 0.515625 -1.5 "/></g></g></g></svg>