<svg xmlns="http://www.w3.org/2000/svg" xmlns:xlink="http://www.w3.org/1999/xlink" width="339" zoomAndPan="magnify" viewBox="0 0 254.25 303.749991" height="405" preserveAspectRatio="xMidYMid meet" version="1.0"><defs><g/><clipPath id="11bbea2103"><path d="M 133 30.785156 L 181 30.785156 L 181 100 L 133 100 Z M 133 30.785156 " clip-rule="nonzero"/></clipPath><clipPath id="f6c1d7c4d0"><path d="M 72 30.785156 L 171 30.785156 L 171 100 L 72 100 Z M 72 30.785156 " clip-rule="nonzero"/></clipPath><clipPath id="bc4957b26e"><path d="M 148 183 L 168 183 L 168 193.804688 L 148 193.804688 Z M 148 183 " clip-rule="nonzero"/></clipPath><clipPath id="5bdb980d94"><path d="M 85 183 L 159 183 L 159 193.804688 L 85 193.804688 Z M 85 183 " clip-rule="nonzero"/></clipPath></defs><g clip-path="url(#11bbea2103)"><path fill="#dae7f5" d="M 168.273438 30.785156 L 133.832031 65.226562 L 168.273438 99.667969 L 178.113281 99.667969 C 179.472656 99.667969 180.574219 98.566406 180.574219 97.207031 L 180.574219 33.246094 C 180.574219 31.886719 179.472656 30.785156 178.113281 30.785156 Z M 168.273438 30.785156 " fill-opacity="1" fill-rule="nonzero"/></g><g clip-path="url(#f6c1d7c4d0)"><path fill="#f2f8ff" d="M 72.332031 33.246094 L 72.332031 97.207031 C 72.332031 98.566406 73.433594 99.667969 74.792969 99.667969 L 168.273438 99.667969 C 169.632812 99.667969 170.734375 98.566406 170.734375 97.207031 L 170.734375 33.246094 C 170.734375 31.886719 169.632812 30.785156 168.273438 30.785156 L 74.792969 30.785156 C 73.433594 30.785156 72.332031 31.886719 72.332031 33.246094 Z M 72.332031 33.246094 " fill-opacity="1" fill-rule="nonzero"/></g><path fill="#c8d4e3" d="M 148.59375 50.46875 L 148.59375 79.988281 L 158.433594 79.988281 C 159.792969 79.988281 160.894531 78.886719 160.894531 77.527344 L 160.894531 52.925781 C 160.894531 51.566406 159.792969 50.46875 158.433594 50.46875 Z M 148.59375 50.46875 " fill-opacity="1" fill-rule="nonzero"/><path fill="#dae7f5" d="M 92.011719 52.925781 L 92.011719 77.527344 C 92.011719 78.886719 93.113281 79.988281 94.472656 79.988281 L 148.59375 79.988281 C 149.953125 79.988281 151.054688 78.886719 151.054688 77.527344 L 151.054688 52.925781 C 151.054688 51.566406 149.953125 50.46875 148.59375 50.46875 L 94.472656 50.46875 C 93.113281 50.46875 92.011719 51.566406 92.011719 52.925781 Z M 92.011719 52.925781 " fill-opacity="1" fill-rule="nonzero"/><path fill="#727f8c" d="M 146.132812 60.308594 L 136.292969 60.308594 L 136.292969 70.148438 L 146.132812 70.148438 C 148.851562 70.148438 151.054688 67.945312 151.054688 65.226562 C 151.054688 62.511719 148.851562 60.308594 146.132812 60.308594 Z M 146.132812 60.308594 " fill-opacity="1" fill-rule="nonzero"/><path fill="#818e9c" d="M 136.292969 60.308594 L 106.773438 60.308594 C 104.054688 60.308594 101.851562 62.511719 101.851562 65.226562 C 101.851562 67.945312 104.054688 70.148438 106.773438 70.148438 L 136.292969 70.148438 C 139.011719 70.148438 141.214844 67.945312 141.214844 65.226562 C 141.214844 62.511719 139.011719 60.308594 136.292969 60.308594 Z M 136.292969 60.308594 " fill-opacity="1" fill-rule="nonzero"/><path fill="#818e9c" d="M 126.453125 111.96875 C 119.671875 111.96875 114.152344 106.449219 114.152344 99.667969 C 114.152344 92.886719 119.671875 87.367188 126.453125 87.367188 C 133.234375 87.367188 138.753906 92.886719 138.753906 99.667969 C 138.753906 106.449219 133.234375 111.96875 126.453125 111.96875 Z M 126.453125 92.289062 C 122.382812 92.289062 119.074219 95.597656 119.074219 99.667969 C 119.074219 103.738281 122.382812 107.046875 126.453125 107.046875 C 130.523438 107.046875 133.832031 103.738281 133.832031 99.667969 C 133.832031 95.597656 130.523438 92.289062 126.453125 92.289062 Z M 126.453125 92.289062 " fill-opacity="1" fill-rule="nonzero"/><path fill="#818e9c" d="M 128.914062 179.046875 L 123.992188 179.042969 L 124.023438 117.621094 C 124.027344 114.339844 125.304688 111.253906 127.628906 108.929688 L 131.671875 104.886719 L 135.152344 108.363281 L 131.105469 112.410156 C 129.714844 113.804688 128.945312 115.65625 128.945312 117.625 Z M 128.914062 179.046875 " fill-opacity="1" fill-rule="nonzero"/><path fill="#ffc77c" d="M 145.328125 179.582031 L 139.136719 170.300781 C 138.683594 169.617188 137.914062 169.207031 137.089844 169.207031 L 125.136719 169.207031 L 125.136719 188.886719 L 153.515625 188.886719 L 153.515625 183.964844 C 150.222656 183.964844 147.152344 182.320312 145.328125 179.582031 Z M 145.328125 179.582031 " fill-opacity="1" fill-rule="nonzero"/><path fill="#ffdd88" d="M 133.371094 179.582031 L 127.183594 170.300781 C 126.726562 169.617188 125.960938 169.207031 125.136719 169.207031 L 115.816406 169.207031 C 114.992188 169.207031 114.226562 169.617188 113.769531 170.300781 L 107.582031 179.582031 C 105.753906 182.320312 102.683594 183.964844 99.394531 183.964844 L 99.394531 188.886719 L 141.558594 188.886719 L 141.558594 183.964844 C 138.269531 183.964844 135.199219 182.320312 133.371094 179.582031 Z M 133.371094 179.582031 " fill-opacity="1" fill-rule="nonzero"/><g clip-path="url(#bc4957b26e)"><path fill="#ffdd88" d="M 158.433594 183.964844 L 148.59375 183.964844 L 155.550781 193.804688 L 165.394531 193.804688 C 167.085938 193.804688 168.28125 192.132812 167.71875 190.535156 C 166.371094 186.710938 162.722656 183.964844 158.433594 183.964844 Z M 158.433594 183.964844 " fill-opacity="1" fill-rule="nonzero"/></g><g clip-path="url(#5bdb980d94)"><path fill="#fff494" d="M 148.59375 183.964844 L 94.472656 183.964844 C 90.183594 183.964844 86.535156 186.710938 85.1875 190.535156 C 84.625 192.132812 85.820312 193.804688 87.515625 193.804688 L 155.550781 193.804688 C 157.246094 193.804688 158.441406 192.132812 157.878906 190.535156 C 156.53125 186.710938 152.882812 183.964844 148.59375 183.964844 Z M 148.59375 183.964844 " fill-opacity="1" fill-rule="nonzero"/></g><g fill="#000000" fill-opacity="1"><g transform="translate(22.455942, 233.969761)"><g><path d="M 8.5625 -9.625 C 8.5625 -10.519531 8.363281 -11.164062 7.96875 -11.5625 C 7.582031 -11.957031 7.019531 -12.15625 6.28125 -12.15625 L 1.21875 -12.15625 L 1.21875 -14.234375 L 6.96875 -14.234375 C 8.3125 -14.234375 9.363281 -13.851562 10.125 -13.09375 C 10.882812 -12.332031 11.265625 -11.132812 11.265625 -9.5 L 11.265625 5.0625 L 8.5625 5.0625 Z M 8.5625 -9.625 "/></g></g></g><g fill="#000000" fill-opacity="1"><g transform="translate(35.299022, 233.969761)"><g><path d="M 1.765625 -11.265625 L 1.46875 -14.234375 L 4.15625 -14.234375 L 4.484375 -11.265625 L 4.484375 0 L 1.765625 0 Z M 1.765625 -11.265625 "/></g></g></g><g fill="#000000" fill-opacity="1"><g transform="translate(41.378592, 233.969761)"><g><path d="M 1.765625 -11.265625 L 1.46875 -14.234375 L 4.15625 -14.234375 L 4.484375 -11.265625 L 4.484375 0 L 1.765625 0 Z M 1.765625 -11.265625 "/></g></g></g><g fill="#000000" fill-opacity="1"><g transform="translate(47.458162, 233.969761)"><g><path d="M 0.5 -1.5 C 1.476562 -1.59375 2.132812 -1.847656 2.46875 -2.265625 C 2.8125 -2.691406 2.984375 -3.378906 2.984375 -4.328125 L 2.984375 -14.234375 L 9.828125 -14.234375 C 11.179688 -14.234375 12.238281 -13.851562 13 -13.09375 C 13.757812 -12.332031 14.140625 -11.132812 14.140625 -9.5 L 14.140625 0 L 11.421875 0 L 11.421875 -9.625 C 11.421875 -10.519531 11.226562 -11.164062 10.84375 -11.5625 C 10.457031 -11.957031 9.890625 -12.15625 9.140625 -12.15625 L 5.703125 -12.15625 L 5.703125 -4.640625 C 5.703125 -2.960938 5.3125 -1.742188 4.53125 -0.984375 C 3.757812 -0.222656 2.503906 0.238281 0.765625 0.40625 Z M 0.5 -1.5 "/></g></g></g><g fill="#000000" fill-opacity="1"><g transform="translate(63.113035, 233.969761)"><g/></g></g><g fill="#000000" fill-opacity="1"><g transform="translate(68.179335, 233.969761)"><g><path d="M 15.296875 -10.328125 C 15.328125 -6.765625 14.328125 -4.101562 12.296875 -2.34375 C 10.273438 -0.582031 7.171875 0.28125 2.984375 0.25 L 1.140625 -14.234375 L 3.71875 -14.234375 L 4.53125 -7.5 C 5.457031 -7.957031 6.085938 -8.554688 6.421875 -9.296875 C 6.765625 -10.035156 6.953125 -11.148438 6.984375 -12.640625 L 6.984375 -14.203125 L 9.578125 -14.203125 L 9.546875 -12.6875 C 9.515625 -10.832031 9.144531 -9.34375 8.4375 -8.21875 C 7.726562 -7.09375 6.507812 -6.1875 4.78125 -5.5 L 5.1875 -2.046875 C 7.738281 -2.222656 9.617188 -2.984375 10.828125 -4.328125 C 12.035156 -5.679688 12.628906 -7.640625 12.609375 -10.203125 L 12.5625 -14.234375 L 15.265625 -14.234375 Z M 15.296875 -10.328125 "/></g></g></g><g fill="#000000" fill-opacity="1"><g transform="translate(84.69548, 233.969761)"><g><path d="M 1.765625 -11.265625 L 1.46875 -14.234375 L 4.15625 -14.234375 L 4.484375 -11.265625 L 4.484375 0 L 1.765625 0 Z M 1.765625 -11.265625 "/></g></g></g><g fill="#000000" fill-opacity="1"><g transform="translate(90.775049, 233.969761)"><g><path d="M 7.859375 -9.625 C 7.859375 -10.519531 7.660156 -11.164062 7.265625 -11.5625 C 6.878906 -11.957031 6.316406 -12.15625 5.578125 -12.15625 L 0.890625 -12.15625 L 0.890625 -14.234375 L 6.25 -14.234375 C 7.601562 -14.234375 8.660156 -13.851562 9.421875 -13.09375 C 10.179688 -12.332031 10.5625 -11.132812 10.5625 -9.5 L 10.5625 0 L 7.859375 0 Z M 7.859375 -9.625 "/></g></g></g><g fill="#000000" fill-opacity="1"><g transform="translate(102.934177, 233.969761)"><g><path d="M 7.265625 -9.1875 C 7.265625 -10.507812 7.503906 -11.5 7.984375 -12.15625 L 1.140625 -12.15625 L 1.140625 -14.234375 L 12.4375 -14.234375 L 12.4375 -12.15625 L 10.53125 -12.15625 C 10.164062 -11.445312 9.984375 -10.457031 9.984375 -9.1875 L 9.984375 0 L 7.265625 0 Z M 7.265625 -9.1875 "/></g></g></g><g fill="#000000" fill-opacity="1"><g transform="translate(116.587866, 233.969761)"><g><path d="M 15.296875 -10.328125 C 15.328125 -6.765625 14.328125 -4.101562 12.296875 -2.34375 C 10.273438 -0.582031 7.171875 0.28125 2.984375 0.25 L 1.140625 -14.234375 L 3.71875 -14.234375 L 4.53125 -7.5 C 5.457031 -7.957031 6.085938 -8.554688 6.421875 -9.296875 C 6.765625 -10.035156 6.953125 -11.148438 6.984375 -12.640625 L 6.984375 -14.203125 L 9.578125 -14.203125 L 9.546875 -12.6875 C 9.515625 -10.832031 9.144531 -9.34375 8.4375 -8.21875 C 7.726562 -7.09375 6.507812 -6.1875 4.78125 -5.5 L 5.1875 -2.046875 C 7.738281 -2.222656 9.617188 -2.984375 10.828125 -4.328125 C 12.035156 -5.679688 12.628906 -7.640625 12.609375 -10.203125 L 12.5625 -14.234375 L 15.265625 -14.234375 Z M 15.296875 -10.328125 "/></g></g></g><g fill="#000000" fill-opacity="1"><g transform="translate(133.10401, 233.969761)"><g/></g></g><g fill="#000000" fill-opacity="1"><g transform="translate(138.17031, 233.969761)"><g><path d="M 1.765625 -11.265625 L 1.46875 -14.234375 L 4.15625 -14.234375 L 4.484375 -11.265625 L 4.484375 5.0625 L 1.765625 5.0625 Z M 1.765625 -11.265625 "/></g></g></g><g fill="#000000" fill-opacity="1"><g transform="translate(144.24988, 233.969761)"><g><path d="M 1.765625 -11.265625 L 1.46875 -14.234375 L 4.15625 -14.234375 L 4.484375 -11.265625 L 4.484375 -7.421875 L 4.453125 -5.828125 L 1.765625 -5.3125 Z M 1.765625 -11.265625 "/></g></g></g><g fill="#000000" fill-opacity="1"><g transform="translate(150.32945, 233.969761)"><g><path d="M 1.765625 -11.265625 L 1.46875 -14.234375 L 4.15625 -14.234375 L 4.484375 -11.265625 L 4.484375 -7.421875 L 4.453125 -5.828125 L 1.765625 -5.3125 Z M 1.765625 -11.265625 "/></g></g></g><g fill="#000000" fill-opacity="1"><g transform="translate(156.409019, 233.969761)"><g><path d="M 8.78125 -6.109375 L 12.328125 0 L 0.890625 0 L 0.890625 -2.078125 L 8.359375 -2.078125 L 1.296875 -14.234375 L 4.046875 -14.234375 L 7.3125 -8.609375 L 9.671875 -14.234375 L 12.390625 -14.234375 Z M 8.78125 -6.109375 "/></g></g></g><g fill="#000000" fill-opacity="1"><g transform="translate(169.986715, 233.969761)"><g><path d="M 14.59375 -7.171875 C 14.59375 -4.804688 14.066406 -2.96875 13.015625 -1.65625 C 11.972656 -0.351562 10.488281 0.296875 8.5625 0.296875 C 7.851562 0.296875 7.125 0.210938 6.375 0.046875 L 6.65625 -2.03125 C 7.300781 -1.894531 7.851562 -1.828125 8.3125 -1.828125 C 9.59375 -1.828125 10.523438 -2.273438 11.109375 -3.171875 C 11.703125 -4.066406 12 -5.375 12 -7.09375 C 12 -8.9375 11.71875 -10.257812 11.15625 -11.0625 C 10.59375 -11.863281 9.785156 -12.265625 8.734375 -12.265625 C 7.921875 -12.265625 7.257812 -12.03125 6.75 -11.5625 C 6.238281 -11.09375 5.894531 -10.472656 5.71875 -9.703125 L 4.03125 0 L 1.3125 0 L 3.140625 -9.796875 L 1.171875 -14.234375 L 3.96875 -14.234375 L 5.109375 -11.25 C 5.460938 -12.3125 6.003906 -13.109375 6.734375 -13.640625 C 7.460938 -14.171875 8.289062 -14.4375 9.21875 -14.4375 C 10.90625 -14.4375 12.222656 -13.847656 13.171875 -12.671875 C 14.117188 -11.503906 14.59375 -9.671875 14.59375 -7.171875 Z M 14.59375 -7.171875 "/></g></g></g><g fill="#000000" fill-opacity="1"><g transform="translate(185.717582, 233.969761)"><g><path d="M 9.984375 -9.625 C 9.984375 -10.519531 9.785156 -11.164062 9.390625 -11.5625 C 9.003906 -11.957031 8.441406 -12.15625 7.703125 -12.15625 L 1.46875 -12.15625 L 1.46875 -14.234375 L 8.390625 -14.234375 C 9.734375 -14.234375 10.785156 -13.851562 11.546875 -13.09375 C 12.304688 -12.332031 12.6875 -11.132812 12.6875 -9.5 L 12.6875 0 L 9.984375 0 Z M 1.390625 -6.890625 L 1.765625 -8.59375 L 4.109375 -8.59375 L 4.109375 0 L 1.390625 0 Z M 1.390625 -6.890625 "/></g></g></g><g fill="#000000" fill-opacity="1"><g transform="translate(199.852563, 233.969761)"><g/></g></g><g fill="#000000" fill-opacity="1"><g transform="translate(204.918863, 233.969761)"><g><path d="M 6.328125 0 L 5.78125 -3.109375 C 5.300781 -2.265625 4.710938 -1.550781 4.015625 -0.96875 C 3.328125 -0.382812 2.503906 0.0703125 1.546875 0.40625 L 0.5625 -1.75 C 1.726562 -2.15625 2.703125 -2.664062 3.484375 -3.28125 C 4.265625 -3.894531 4.882812 -4.664062 5.34375 -5.59375 L 5.34375 -10.03125 C 5.34375 -10.769531 5.242188 -11.300781 5.046875 -11.625 C 4.859375 -11.957031 4.492188 -12.171875 3.953125 -12.265625 L 2.359375 -12.484375 L 2.703125 -14.53125 L 5.21875 -14.1875 C 6.21875 -14.03125 6.9375 -13.640625 7.375 -13.015625 C 7.820312 -12.390625 8.046875 -11.488281 8.046875 -10.3125 L 8.046875 -5.453125 L 8.921875 0 Z M 6.328125 0 "/></g></g></g><g fill="#000000" fill-opacity="1"><g transform="translate(214.924808, 233.969761)"><g><path d="M 0.5 -1.5 C 1.476562 -1.59375 2.132812 -1.847656 2.46875 -2.265625 C 2.8125 -2.691406 2.984375 -3.378906 2.984375 -4.328125 L 2.984375 -14.234375 L 9.828125 -14.234375 C 11.179688 -14.234375 12.238281 -13.851562 13 -13.09375 C 13.757812 -12.332031 14.140625 -11.132812 14.140625 -9.5 L 14.140625 0 L 11.421875 0 L 11.421875 -9.625 C 11.421875 -10.519531 11.226562 -11.164062 10.84375 -11.5625 C 10.457031 -11.957031 9.890625 -12.15625 9.140625 -12.15625 L 5.703125 -12.15625 L 5.703125 -4.640625 C 5.703125 -2.960938 5.3125 -1.742188 4.53125 -0.984375 C 3.757812 -0.222656 2.503906 0.238281 0.765625 0.40625 Z M 0.5 -1.5 "/></g></g></g><g fill="#000000" fill-opacity="1"><g transform="translate(29.197773, 262.385937)"><g><path d="M 8.984375 -14.234375 C 10.335938 -14.234375 11.394531 -13.851562 12.15625 -13.09375 C 12.914062 -12.332031 13.296875 -11.132812 13.296875 -9.5 L 13.296875 0 L 1.640625 0 L 1.640625 -14.234375 Z M 10.59375 -2.078125 L 10.59375 -9.625 C 10.59375 -10.519531 10.394531 -11.164062 10 -11.5625 C 9.613281 -11.957031 9.050781 -12.15625 8.3125 -12.15625 L 4.359375 -12.15625 L 4.359375 -2.078125 Z M 10.59375 -2.078125 "/></g></g></g><g fill="#000000" fill-opacity="1"><g transform="translate(44.016706, 262.385937)"><g><path d="M 1.765625 -11.265625 L 1.46875 -14.234375 L 4.15625 -14.234375 L 4.484375 -11.265625 L 4.484375 -7.421875 L 4.453125 -5.828125 L 1.765625 -5.3125 Z M 1.765625 -11.265625 "/></g></g></g><g fill="#000000" fill-opacity="1"><g transform="translate(50.096276, 262.385937)"><g><path d="M 15.296875 -10.328125 C 15.328125 -6.765625 14.328125 -4.101562 12.296875 -2.34375 C 10.273438 -0.582031 7.171875 0.28125 2.984375 0.25 L 1.140625 -14.234375 L 3.71875 -14.234375 L 4.53125 -7.5 C 5.457031 -7.957031 6.085938 -8.554688 6.421875 -9.296875 C 6.765625 -10.035156 6.953125 -11.148438 6.984375 -12.640625 L 6.984375 -14.203125 L 9.578125 -14.203125 L 9.546875 -12.6875 C 9.515625 -10.832031 9.144531 -9.34375 8.4375 -8.21875 C 7.726562 -7.09375 6.507812 -6.1875 4.78125 -5.5 L 5.1875 -2.046875 C 7.738281 -2.222656 9.617188 -2.984375 10.828125 -4.328125 C 12.035156 -5.679688 12.628906 -7.640625 12.609375 -10.203125 L 12.5625 -14.234375 L 15.265625 -14.234375 Z M 15.296875 -10.328125 "/></g></g></g><g fill="#000000" fill-opacity="1"><g transform="translate(66.61242, 262.385937)"><g><path d="M 5.84375 -2.078125 C 6.675781 -2.160156 7.375 -2.359375 7.9375 -2.671875 C 8.5 -2.984375 8.953125 -3.503906 9.296875 -4.234375 C 9.648438 -4.972656 9.867188 -5.984375 9.953125 -7.265625 L 10.328125 -12.15625 L 1.375 -12.15625 L 1.375 -14.234375 L 13.25 -14.234375 L 13.140625 -12.40625 L 12.796875 -7.90625 C 12.671875 -5.414062 12.050781 -3.488281 10.9375 -2.125 C 9.820312 -0.757812 8.210938 -0.0390625 6.109375 0.03125 Z M 1.3125 -7.140625 L 1.703125 -8.859375 L 4.03125 -8.859375 L 4.03125 5.0625 L 1.3125 5.0625 Z M 1.3125 -7.140625 "/></g></g></g><g fill="#000000" fill-opacity="1"><g transform="translate(80.975393, 262.385937)"><g><path d="M 0.5 -1.5 C 1.476562 -1.59375 2.132812 -1.847656 2.46875 -2.265625 C 2.8125 -2.691406 2.984375 -3.378906 2.984375 -4.328125 L 2.984375 -14.234375 L 9.828125 -14.234375 C 11.179688 -14.234375 12.238281 -13.851562 13 -13.09375 C 13.757812 -12.332031 14.140625 -11.132812 14.140625 -9.5 L 14.140625 0 L 11.421875 0 L 11.421875 -9.625 C 11.421875 -10.519531 11.226562 -11.164062 10.84375 -11.5625 C 10.457031 -11.957031 9.890625 -12.15625 9.140625 -12.15625 L 5.703125 -12.15625 L 5.703125 -4.640625 C 5.703125 -2.960938 5.3125 -1.742188 4.53125 -0.984375 C 3.757812 -0.222656 2.503906 0.238281 0.765625 0.40625 Z M 0.5 -1.5 "/></g></g></g><g fill="#000000" fill-opacity="1"><g transform="translate(96.630267, 262.385937)"><g><path d="M 14.59375 -7.171875 C 14.59375 -4.804688 14.066406 -2.96875 13.015625 -1.65625 C 11.972656 -0.351562 10.488281 0.296875 8.5625 0.296875 C 7.851562 0.296875 7.125 0.210938 6.375 0.046875 L 6.65625 -2.03125 C 7.300781 -1.894531 7.851562 -1.828125 8.3125 -1.828125 C 9.59375 -1.828125 10.523438 -2.273438 11.109375 -3.171875 C 11.703125 -4.066406 12 -5.375 12 -7.09375 C 12 -8.9375 11.71875 -10.257812 11.15625 -11.0625 C 10.59375 -11.863281 9.785156 -12.265625 8.734375 -12.265625 C 7.921875 -12.265625 7.257812 -12.03125 6.75 -11.5625 C 6.238281 -11.09375 5.894531 -10.472656 5.71875 -9.703125 L 4.03125 0 L 1.3125 0 L 3.140625 -9.796875 L 1.171875 -14.234375 L 3.96875 -14.234375 L 5.109375 -11.25 C 5.460938 -12.3125 6.003906 -13.109375 6.734375 -13.640625 C 7.460938 -14.171875 8.289062 -14.4375 9.21875 -14.4375 C 10.90625 -14.4375 12.222656 -13.847656 13.171875 -12.671875 C 14.117188 -11.503906 14.59375 -9.671875 14.59375 -7.171875 Z M 14.59375 -7.171875 "/></g></g></g><g fill="#000000" fill-opacity="1"><g transform="translate(112.361134, 262.385937)"><g><path d="M 11.296875 -14.234375 L 11.296875 -11.984375 L 6.5625 0 L 3.84375 0 L 8.59375 -12.15625 L 0.96875 -12.15625 L 0.96875 -18.15625 L 3.421875 -18.15625 L 3.421875 -14.234375 Z M 11.296875 -14.234375 "/></g></g></g><g fill="#000000" fill-opacity="1"><g transform="translate(124.672248, 262.385937)"><g><path d="M 1.03125 3.78125 C 1.976562 2.1875 2.6875 0.46875 3.15625 -1.375 C 3.632812 -3.226562 3.875 -5.117188 3.875 -7.046875 C 3.875 -8.960938 3.632812 -10.84375 3.15625 -12.6875 C 2.6875 -14.539062 1.976562 -16.265625 1.03125 -17.859375 L 2.640625 -18.5625 C 3.734375 -16.769531 4.5625 -14.9375 5.125 -13.0625 C 5.695312 -11.195312 5.984375 -9.191406 5.984375 -7.046875 C 5.984375 -4.898438 5.695312 -2.890625 5.125 -1.015625 C 4.5625 0.859375 3.734375 2.691406 2.640625 4.484375 Z M 1.03125 3.78125 "/></g></g></g><g fill="#000000" fill-opacity="1"><g transform="translate(132.651678, 262.385937)"><g/></g></g><g fill="#000000" fill-opacity="1"><g transform="translate(137.717978, 262.385937)"><g><path d="M 1.765625 -11.265625 L 1.46875 -14.234375 L 4.15625 -14.234375 L 4.484375 -11.265625 L 4.484375 -7.421875 L 4.453125 -5.828125 L 1.765625 -5.3125 Z M 1.765625 -11.265625 "/></g></g></g><g fill="#000000" fill-opacity="1"><g transform="translate(143.417523, 262.385937)"><g><path d="M 0.5 -1.5 C 1.476562 -1.59375 2.132812 -1.847656 2.46875 -2.265625 C 2.8125 -2.691406 2.984375 -3.378906 2.984375 -4.328125 L 2.984375 -14.234375 L 9.828125 -14.234375 C 11.179688 -14.234375 12.238281 -13.851562 13 -13.09375 C 13.757812 -12.332031 14.140625 -11.132812 14.140625 -9.5 L 14.140625 0 L 11.421875 0 L 11.421875 -9.625 C 11.421875 -10.519531 11.226562 -11.164062 10.84375 -11.5625 C 10.457031 -11.957031 9.890625 -12.15625 9.140625 -12.15625 L 5.703125 -12.15625 L 5.703125 -4.640625 C 5.703125 -2.960938 5.3125 -1.742188 4.53125 -0.984375 C 3.757812 -0.222656 2.503906 0.238281 0.765625 0.40625 Z M 0.5 -1.5 "/></g></g></g><g fill="#000000" fill-opacity="1"><g transform="translate(159.072397, 262.385937)"><g><path d="M 7.859375 -9.625 C 7.859375 -10.519531 7.660156 -11.164062 7.265625 -11.5625 C 6.878906 -11.957031 6.316406 -12.15625 5.578125 -12.15625 L 0.890625 -12.15625 L 0.890625 -14.234375 L 6.25 -14.234375 C 7.601562 -14.234375 8.660156 -13.851562 9.421875 -13.09375 C 10.179688 -12.332031 10.5625 -11.132812 10.5625 -9.5 L 10.5625 0 L 7.859375 0 Z M 7.859375 -9.625 "/></g></g></g><g fill="#000000" fill-opacity="1"><g transform="translate(171.231524, 262.385937)"><g><path d="M 1.765625 -11.265625 L 1.46875 -14.234375 L 4.15625 -14.234375 L 4.484375 -11.265625 L 4.484375 0 L 1.765625 0 Z M 1.765625 -11.265625 "/></g></g></g><g fill="#000000" fill-opacity="1"><g transform="translate(177.311094, 262.385937)"><g><path d="M 15.296875 -10.328125 C 15.328125 -6.765625 14.328125 -4.101562 12.296875 -2.34375 C 10.273438 -0.582031 7.171875 0.28125 2.984375 0.25 L 1.140625 -14.234375 L 3.71875 -14.234375 L 4.53125 -7.5 C 5.457031 -7.957031 6.085938 -8.554688 6.421875 -9.296875 C 6.765625 -10.035156 6.953125 -11.148438 6.984375 -12.640625 L 6.984375 -14.203125 L 9.578125 -14.203125 L 9.546875 -12.6875 C 9.515625 -10.832031 9.144531 -9.34375 8.4375 -8.21875 C 7.726562 -7.09375 6.507812 -6.1875 4.78125 -5.5 L 5.1875 -2.046875 C 7.738281 -2.222656 9.617188 -2.984375 10.828125 -4.328125 C 12.035156 -5.679688 12.628906 -7.640625 12.609375 -10.203125 L 12.5625 -14.234375 L 15.265625 -14.234375 Z M 15.296875 -10.328125 "/></g></g></g><g fill="#000000" fill-opacity="1"><g transform="translate(193.827238, 262.385937)"><g><path d="M 5.84375 -2.078125 C 6.675781 -2.160156 7.375 -2.359375 7.9375 -2.671875 C 8.5 -2.984375 8.953125 -3.503906 9.296875 -4.234375 C 9.648438 -4.972656 9.867188 -5.984375 9.953125 -7.265625 L 10.328125 -12.15625 L 1.375 -12.15625 L 1.375 -14.234375 L 13.25 -14.234375 L 13.140625 -12.40625 L 12.796875 -7.90625 C 12.671875 -5.414062 12.050781 -3.488281 10.9375 -2.125 C 9.820312 -0.757812 8.210938 -0.0390625 6.109375 0.03125 Z M 1.3125 -7.140625 L 1.703125 -8.859375 L 4.03125 -8.859375 L 4.03125 5.0625 L 1.3125 5.0625 Z M 1.3125 -7.140625 "/></g></g></g><g fill="#000000" fill-opacity="1"><g transform="translate(208.190211, 262.385937)"><g><path d="M 0.5 -1.5 C 1.476562 -1.59375 2.132812 -1.847656 2.46875 -2.265625 C 2.8125 -2.691406 2.984375 -3.378906 2.984375 -4.328125 L 2.984375 -14.234375 L 9.828125 -14.234375 C 11.179688 -14.234375 12.238281 -13.851562 13 -13.09375 C 13.757812 -12.332031 14.140625 -11.132812 14.140625 -9.5 L 14.140625 0 L 11.421875 0 L 11.421875 -9.625 C 11.421875 -10.519531 11.226562 -11.164062 10.84375 -11.5625 C 10.457031 -11.957031 9.890625 -12.15625 9.140625 -12.15625 L 5.703125 -12.15625 L 5.703125 -4.640625 C 5.703125 -2.960938 5.3125 -1.742188 4.53125 -0.984375 C 3.757812 -0.222656 2.503906 0.238281 0.765625 0.40625 Z M 0.5 -1.5 "/></g></g></g><g fill="#000000" fill-opacity="1"><g transform="translate(90.014464, 290.802112)"><g><path d="M 5.34375 4.484375 C 4.25 2.691406 3.414062 0.859375 2.84375 -1.015625 C 2.28125 -2.890625 2 -4.898438 2 -7.046875 C 2 -9.191406 2.28125 -11.195312 2.84375 -13.0625 C 3.414062 -14.9375 4.25 -16.769531 5.34375 -18.5625 L 6.9375 -17.859375 C 5.988281 -16.265625 5.28125 -14.539062 4.8125 -12.6875 C 4.34375 -10.84375 4.109375 -8.960938 4.109375 -7.046875 C 4.109375 -5.117188 4.34375 -3.226562 4.8125 -1.375 C 5.28125 0.46875 5.988281 2.1875 6.9375 3.78125 Z M 5.34375 4.484375 "/></g></g></g><g fill="#000000" fill-opacity="1"><g transform="translate(97.993893, 290.802112)"><g><path d="M 7.859375 -9.625 C 7.859375 -10.519531 7.660156 -11.164062 7.265625 -11.5625 C 6.878906 -11.957031 6.316406 -12.15625 5.578125 -12.15625 L 0.890625 -12.15625 L 0.890625 -14.234375 L 6.25 -14.234375 C 7.601562 -14.234375 8.660156 -13.851562 9.421875 -13.09375 C 10.179688 -12.332031 10.5625 -11.132812 10.5625 -9.5 L 10.5625 0 L 7.859375 0 Z M 7.859375 -9.625 "/></g></g></g><g fill="#000000" fill-opacity="1"><g transform="translate(110.153021, 290.802112)"><g><path d="M 1.765625 -11.265625 L 1.46875 -14.234375 L 4.15625 -14.234375 L 4.484375 -11.265625 L 4.484375 0 L 1.765625 0 Z M 1.765625 -11.265625 "/></g></g></g><g fill="#000000" fill-opacity="1"><g transform="translate(116.23259, 290.802112)"><g><path d="M 12.640625 -2.078125 L 12.640625 0 L 1.140625 0 L 1.140625 -2.078125 L 8.1875 -2.078125 L 8.1875 -9.625 C 8.1875 -10.519531 7.988281 -11.164062 7.59375 -11.5625 C 7.207031 -11.957031 6.644531 -12.15625 5.90625 -12.15625 L 1.140625 -12.15625 L 1.140625 -14.234375 L 6.578125 -14.234375 C 7.929688 -14.234375 8.988281 -13.851562 9.75 -13.09375 C 10.507812 -12.332031 10.890625 -11.132812 10.890625 -9.5 L 10.890625 -2.078125 Z M 12.640625 -2.078125 "/></g></g></g><g fill="#000000" fill-opacity="1"><g transform="translate(129.759624, 290.802112)"><g><path d="M 1.765625 -11.265625 L 1.46875 -14.234375 L 4.15625 -14.234375 L 4.484375 -11.265625 L 4.484375 -7.421875 L 4.453125 -5.828125 L 1.765625 -5.3125 Z M 1.765625 -11.265625 "/></g></g></g><g fill="#000000" fill-opacity="1"><g transform="translate(135.839193, 290.802112)"><g><path d="M 7.265625 -9.1875 C 7.265625 -10.507812 7.503906 -11.5 7.984375 -12.15625 L 1.140625 -12.15625 L 1.140625 -14.234375 L 12.4375 -14.234375 L 12.4375 -12.15625 L 10.53125 -12.15625 C 10.164062 -11.445312 9.984375 -10.457031 9.984375 -9.1875 L 9.984375 0 L 7.265625 0 Z M 7.265625 -9.1875 "/></g></g></g><g fill="#000000" fill-opacity="1"><g transform="translate(149.492882, 290.802112)"><g><path d="M 12.640625 -2.078125 L 12.640625 0 L 1.140625 0 L 1.140625 -2.078125 L 8.1875 -2.078125 L 8.1875 -9.625 C 8.1875 -10.519531 7.988281 -11.164062 7.59375 -11.5625 C 7.207031 -11.957031 6.644531 -12.15625 5.90625 -12.15625 L 1.140625 -12.15625 L 1.140625 -14.234375 L 6.578125 -14.234375 C 7.929688 -14.234375 8.988281 -13.851562 9.75 -13.09375 C 10.507812 -12.332031 10.890625 -11.132812 10.890625 -9.5 L 10.890625 -2.078125 Z M 12.640625 -2.078125 "/></g></g></g></svg>