<svg xmlns="http://www.w3.org/2000/svg" xmlns:xlink="http://www.w3.org/1999/xlink" width="446" zoomAndPan="magnify" viewBox="0 0 334.5 104.999996" height="140" preserveAspectRatio="xMidYMid meet" version="1.0"><defs><g/><clipPath id="95a278773e"><path d="M 0 0.078125 L 334 0.078125 L 334 104.863281 L 0 104.863281 Z M 0 0.078125 " clip-rule="nonzero"/></clipPath><clipPath id="5653642371"><path d="M 52.390625 0.078125 L 281.25 0.078125 C 295.144531 0.078125 308.472656 5.597656 318.296875 15.421875 C 328.121094 25.25 333.640625 38.574219 333.640625 52.46875 C 333.640625 66.367188 328.121094 79.691406 318.296875 89.515625 C 308.472656 99.34375 295.144531 104.863281 281.25 104.863281 L 52.390625 104.863281 C 38.496094 104.863281 25.171875 99.34375 15.34375 89.515625 C 5.519531 79.691406 0 66.367188 0 52.46875 C 0 38.574219 5.519531 25.25 15.34375 15.421875 C 25.171875 5.597656 38.496094 0.078125 52.390625 0.078125 Z M 52.390625 0.078125 " clip-rule="nonzero"/></clipPath><clipPath id="19d9510f6d"><path d="M 0 0.078125 L 333.820312 0.078125 L 333.820312 104.863281 L 0 104.863281 Z M 0 0.078125 " clip-rule="nonzero"/></clipPath><clipPath id="6ac6e070fe"><path d="M 52.390625 0.078125 L 281.25 0.078125 C 295.144531 0.078125 308.472656 5.597656 318.296875 15.421875 C 328.121094 25.25 333.640625 38.574219 333.640625 52.46875 C 333.640625 66.367188 328.121094 79.691406 318.296875 89.515625 C 308.472656 99.34375 295.144531 104.863281 281.25 104.863281 L 52.390625 104.863281 C 38.496094 104.863281 25.171875 99.34375 15.34375 89.515625 C 5.519531 79.691406 0 66.367188 0 52.46875 C 0 38.574219 5.519531 25.25 15.34375 15.421875 C 25.171875 5.597656 38.496094 0.078125 52.390625 0.078125 Z M 52.390625 0.078125 " clip-rule="nonzero"/></clipPath><clipPath id="de8f12b68c"><rect x="0" width="334" y="0" height="105"/></clipPath><clipPath id="b1826df2ce"><path d="M 29.511719 14.210938 L 113.039062 14.210938 L 113.039062 18.460938 L 29.511719 18.460938 Z M 29.511719 14.210938 " clip-rule="nonzero"/></clipPath><clipPath id="963b5768ae"><path d="M 0.511719 0.210938 L 84.039062 0.210938 L 84.039062 4.460938 L 0.511719 4.460938 Z M 0.511719 0.210938 " clip-rule="nonzero"/></clipPath><clipPath id="23a94a6ff2"><rect x="0" width="85" y="0" height="5"/></clipPath></defs><g clip-path="url(#95a278773e)"><g clip-path="url(#5653642371)"><g transform="matrix(1, 0, 0, 1, 0, 0.000000000000001429)"><g clip-path="url(#de8f12b68c)"><g clip-path="url(#19d9510f6d)"><g clip-path="url(#6ac6e070fe)"><path fill="#e44650" d="M 0 0.078125 L 333.589844 0.078125 L 333.589844 104.863281 L 0 104.863281 Z M 0 0.078125 " fill-opacity="1" fill-rule="nonzero"/></g></g></g></g></g></g><g fill="#ffffff" fill-opacity="1"><g transform="translate(70.453279, 44.262309)"><g><path d="M 9.484375 -9.6875 C 9.484375 -10.894531 8.929688 -11.5 7.828125 -11.5 L 1.34375 -11.5 L 1.34375 -14.171875 L 8.796875 -14.171875 C 10.117188 -14.171875 11.160156 -13.796875 11.921875 -13.046875 C 12.691406 -12.296875 13.078125 -11.117188 13.078125 -9.515625 L 13.078125 0 L 9.484375 0 Z M 1.1875 -6.78125 L 1.6875 -8.4375 L 4.796875 -8.4375 L 4.796875 0 L 1.1875 0 Z M 1.1875 -6.78125 "/></g></g></g><g fill="#ffffff" fill-opacity="1"><g transform="translate(84.680867, 44.262309)"><g><path d="M 13.828125 -8.1875 C 13.929688 -5.28125 13.019531 -3.175781 11.09375 -1.875 C 9.175781 -0.570312 6.378906 0.132812 2.703125 0.25 L 1.34375 -11.5 L 1 -14.171875 L 8.609375 -14.171875 C 10.234375 -14.171875 11.492188 -13.710938 12.390625 -12.796875 C 13.285156 -11.878906 13.753906 -10.617188 13.796875 -9.015625 Z M 5.828125 -2.9375 C 7.003906 -3.007812 7.921875 -3.25 8.578125 -3.65625 C 9.234375 -4.0625 9.6875 -4.632812 9.9375 -5.375 C 10.195312 -6.113281 10.3125 -7.078125 10.28125 -8.265625 L 10.28125 -9.015625 C 10.28125 -9.773438 10.101562 -10.378906 9.75 -10.828125 C 9.40625 -11.273438 8.9375 -11.5 8.34375 -11.5 L 4.921875 -11.5 Z M 5.828125 -2.9375 "/></g></g></g><g fill="#ffffff" fill-opacity="1"><g transform="translate(99.703021, 44.262309)"><g><path d="M 1.515625 -11.265625 L 1.21875 -14.171875 L 4.796875 -14.171875 L 5.09375 -11.265625 L 5.09375 -7.40625 L 5.0625 -5.828125 L 1.515625 -5.21875 Z M 1.515625 -11.265625 "/></g></g></g><g fill="#ffffff" fill-opacity="1"><g transform="translate(106.133994, 44.262309)"><g><path d="M 0.96875 -2.6875 L 4.59375 -2.6875 L 4.59375 -9.859375 C 4.59375 -10.453125 4.476562 -10.875 4.25 -11.125 C 4.03125 -11.375 3.691406 -11.53125 3.234375 -11.59375 L 1.484375 -11.84375 L 1.9375 -14.46875 L 5.046875 -14.078125 C 6.046875 -13.941406 6.816406 -13.507812 7.359375 -12.78125 C 7.898438 -12.050781 8.171875 -11.109375 8.171875 -9.953125 L 8.171875 0 L 0.96875 0 Z M 0.96875 -2.6875 "/></g></g></g><g fill="#ffffff" fill-opacity="1"><g transform="translate(115.594222, 44.262309)"><g><path d="M 0.71875 -2.6875 L 4.6875 -2.6875 C 5.644531 -2.6875 6.351562 -3 6.8125 -3.625 C 7.269531 -4.25 7.5 -5.09375 7.5 -6.15625 L 7.5 -8.015625 C 7.5 -9.078125 7.269531 -9.921875 6.8125 -10.546875 C 6.351562 -11.179688 5.644531 -11.5 4.6875 -11.5 L 0.71875 -11.5 L 0.71875 -14.171875 L 5.65625 -14.171875 C 7.425781 -14.171875 8.773438 -13.601562 9.703125 -12.46875 C 10.628906 -11.34375 11.09375 -9.796875 11.09375 -7.828125 L 11.09375 -6.359375 C 11.09375 -4.390625 10.628906 -2.835938 9.703125 -1.703125 C 8.773438 -0.566406 7.425781 0 5.65625 0 L 0.71875 0 Z M 0.71875 -2.6875 "/></g></g></g><g fill="#ffffff" fill-opacity="1"><g transform="translate(127.636772, 44.262309)"><g><path d="M 9.484375 -9.6875 C 9.484375 -10.894531 8.929688 -11.5 7.828125 -11.5 L 1.34375 -11.5 L 1.34375 -14.171875 L 8.796875 -14.171875 C 10.117188 -14.171875 11.160156 -13.796875 11.921875 -13.046875 C 12.691406 -12.296875 13.078125 -11.117188 13.078125 -9.515625 L 13.078125 0 L 9.484375 0 Z M 1.1875 -6.78125 L 1.6875 -8.4375 L 4.796875 -8.4375 L 4.796875 0 L 1.1875 0 Z M 1.1875 -6.78125 "/></g></g></g><g fill="#ffffff" fill-opacity="1"><g transform="translate(141.86436, 44.262309)"><g/></g></g><g fill="#ffffff" fill-opacity="1"><g transform="translate(146.830356, 44.262309)"><g><path d="M 1.515625 -11.265625 L 1.21875 -14.171875 L 4.796875 -14.171875 L 5.09375 -11.265625 L 5.09375 4.96875 L 1.515625 4.96875 Z M 1.515625 -11.265625 "/></g></g></g><g fill="#ffffff" fill-opacity="1"><g transform="translate(153.261329, 44.262309)"><g><path d="M 14.96875 -7.078125 C 14.96875 -4.773438 14.429688 -2.960938 13.359375 -1.640625 C 12.296875 -0.328125 10.796875 0.328125 8.859375 0.328125 C 8.171875 0.328125 7.410156 0.226562 6.578125 0.03125 L 6.90625 -2.65625 C 7.519531 -2.519531 8.03125 -2.453125 8.4375 -2.453125 C 9.5625 -2.453125 10.363281 -2.828125 10.84375 -3.578125 C 11.320312 -4.335938 11.5625 -5.453125 11.5625 -6.921875 C 11.5625 -8.566406 11.332031 -9.753906 10.875 -10.484375 C 10.425781 -11.222656 9.734375 -11.59375 8.796875 -11.59375 C 8.128906 -11.59375 7.566406 -11.394531 7.109375 -11 C 6.660156 -10.601562 6.375 -10.066406 6.25 -9.390625 L 4.71875 0 L 1.140625 0 L 2.859375 -9.5625 L 0.875 -14.171875 L 4.59375 -14.171875 L 5.59375 -11.34375 C 5.9375 -12.375 6.453125 -13.140625 7.140625 -13.640625 C 7.835938 -14.148438 8.632812 -14.40625 9.53125 -14.40625 C 11.300781 -14.40625 12.648438 -13.796875 13.578125 -12.578125 C 14.503906 -11.359375 14.96875 -9.523438 14.96875 -7.078125 Z M 14.96875 -7.078125 "/></g></g></g><g fill="#ffffff" fill-opacity="1"><g transform="translate(169.202191, 44.262309)"><g><path d="M 2.5 -8.59375 C 2.5 -9.21875 2.5625 -9.78125 2.6875 -10.28125 C 2.8125 -10.789062 2.984375 -11.195312 3.203125 -11.5 L 0.96875 -11.5 L 0.96875 -14.171875 L 8.34375 -14.171875 L 8.34375 -11.5 L 6.484375 -11.5 C 6.296875 -11.132812 6.179688 -10.71875 6.140625 -10.25 C 6.097656 -9.789062 6.078125 -9.238281 6.078125 -8.59375 L 6.078125 0 L 2.5 0 Z M 2.5 -8.59375 "/></g></g></g><g fill="#ffffff" fill-opacity="1"><g transform="translate(178.513445, 44.262309)"><g/></g></g><g fill="#ffffff" fill-opacity="1"><g transform="translate(183.479441, 44.262309)"><g><path d="M 0.453125 -2.015625 C 1.078125 -2.078125 1.546875 -2.195312 1.859375 -2.375 C 2.171875 -2.5625 2.382812 -2.816406 2.5 -3.140625 C 2.625 -3.460938 2.675781 -3.921875 2.65625 -4.515625 L 2.65625 -14.171875 L 10.171875 -14.171875 C 11.503906 -14.171875 12.550781 -13.796875 13.3125 -13.046875 C 14.070312 -12.296875 14.453125 -11.117188 14.453125 -9.515625 L 14.453125 0 L 10.875 0 L 10.875 -9.6875 C 10.875 -10.894531 10.3125 -11.5 9.1875 -11.5 L 6.25 -11.5 L 6.25 -4.984375 C 6.25 -3.734375 6.054688 -2.734375 5.671875 -1.984375 C 5.285156 -1.242188 4.695312 -0.6875 3.90625 -0.3125 C 3.125 0.0625 2.070312 0.304688 0.75 0.421875 Z M 0.453125 -2.015625 "/></g></g></g><g fill="#ffffff" fill-opacity="1"><g transform="translate(199.246487, 44.262309)"><g><path d="M 10.796875 0 L 6.125 -7.21875 L 3.921875 0 L 0.515625 0 L 3.28125 -8.515625 L 4.046875 -10.421875 L 1.734375 -14.171875 L 5.34375 -14.171875 L 7.328125 -10.953125 L 9.109375 -8.25 L 9.78125 -10.5 L 10.78125 -14.171875 L 14.171875 -14.171875 L 11.203125 -5.140625 L 14.625 0 Z M 10.796875 0 "/></g></g></g><g fill="#ffffff" fill-opacity="1"><g transform="translate(214.5666, 44.262309)"><g><path d="M 1.515625 -11.265625 L 1.21875 -14.171875 L 4.796875 -14.171875 L 5.09375 -11.265625 L 5.09375 -7.40625 L 5.0625 -5.828125 L 1.515625 -5.21875 Z M 1.515625 -11.265625 "/></g></g></g><g fill="#ffffff" fill-opacity="1"><g transform="translate(220.997573, 44.262309)"><g><path d="M 9.328125 -5.8125 L 12.609375 0 L 0.75 0 L 0.75 -2.6875 L 7.5 -2.6875 L 1.015625 -14.171875 L 4.625 -14.171875 L 7.421875 -9.1875 L 9.453125 -14.171875 L 12.984375 -14.171875 Z M 9.328125 -5.8125 "/></g></g></g><g fill="#ffffff" fill-opacity="1"><g transform="translate(234.87754, 44.262309)"><g><path d="M 14.96875 -7.078125 C 14.96875 -4.773438 14.429688 -2.960938 13.359375 -1.640625 C 12.296875 -0.328125 10.796875 0.328125 8.859375 0.328125 C 8.171875 0.328125 7.410156 0.226562 6.578125 0.03125 L 6.90625 -2.65625 C 7.519531 -2.519531 8.03125 -2.453125 8.4375 -2.453125 C 9.5625 -2.453125 10.363281 -2.828125 10.84375 -3.578125 C 11.320312 -4.335938 11.5625 -5.453125 11.5625 -6.921875 C 11.5625 -8.566406 11.332031 -9.753906 10.875 -10.484375 C 10.425781 -11.222656 9.734375 -11.59375 8.796875 -11.59375 C 8.128906 -11.59375 7.566406 -11.394531 7.109375 -11 C 6.660156 -10.601562 6.375 -10.066406 6.25 -9.390625 L 4.71875 0 L 1.140625 0 L 2.859375 -9.5625 L 0.875 -14.171875 L 4.59375 -14.171875 L 5.59375 -11.34375 C 5.9375 -12.375 6.453125 -13.140625 7.140625 -13.640625 C 7.835938 -14.148438 8.632812 -14.40625 9.53125 -14.40625 C 11.300781 -14.40625 12.648438 -13.796875 13.578125 -12.578125 C 14.503906 -11.359375 14.96875 -9.523438 14.96875 -7.078125 Z M 14.96875 -7.078125 "/></g></g></g><g fill="#ffffff" fill-opacity="1"><g transform="translate(250.818403, 44.262309)"><g><path d="M 11.5625 -14.171875 L 11.5625 -11.21875 L 7.09375 0 L 3.53125 0 L 7.96875 -11.5 L 0.765625 -11.5 L 0.765625 -17.796875 L 4 -17.796875 L 4 -14.171875 Z M 11.5625 -14.171875 "/></g></g></g><g fill="#ffffff" fill-opacity="1"><g transform="translate(55.136332, 78.710815)"><g><path d="M 1.515625 -11.265625 L 1.21875 -14.171875 L 4.796875 -14.171875 L 5.09375 -11.265625 L 5.09375 4.96875 L 1.515625 4.96875 Z M 1.515625 -11.265625 "/></g></g></g><g fill="#ffffff" fill-opacity="1"><g transform="translate(61.567305, 78.710815)"><g><path d="M 10.796875 0 L 6.125 -7.21875 L 3.921875 0 L 0.515625 0 L 3.28125 -8.515625 L 4.046875 -10.421875 L 1.734375 -14.171875 L 5.34375 -14.171875 L 7.328125 -10.953125 L 9.109375 -8.25 L 9.78125 -10.5 L 10.78125 -14.171875 L 14.171875 -14.171875 L 11.203125 -5.140625 L 14.625 0 Z M 10.796875 0 "/></g></g></g><g fill="#ffffff" fill-opacity="1"><g transform="translate(76.887418, 78.710815)"><g><path d="M 0.71875 -2.6875 L 4.6875 -2.6875 C 5.644531 -2.6875 6.351562 -3 6.8125 -3.625 C 7.269531 -4.25 7.5 -5.09375 7.5 -6.15625 L 7.5 -8.015625 C 7.5 -9.078125 7.269531 -9.921875 6.8125 -10.546875 C 6.351562 -11.179688 5.644531 -11.5 4.6875 -11.5 L 0.71875 -11.5 L 0.71875 -14.171875 L 5.65625 -14.171875 C 7.425781 -14.171875 8.773438 -13.601562 9.703125 -12.46875 C 10.628906 -11.34375 11.09375 -9.796875 11.09375 -7.828125 L 11.09375 -6.359375 C 11.09375 -4.390625 10.628906 -2.835938 9.703125 -1.703125 C 8.773438 -0.566406 7.425781 0 5.65625 0 L 0.71875 0 Z M 0.71875 -2.6875 "/></g></g></g><g fill="#ffffff" fill-opacity="1"><g transform="translate(88.929967, 78.710815)"><g/></g></g><g fill="#ffffff" fill-opacity="1"><g transform="translate(93.895963, 78.710815)"><g><path d="M 1.515625 -11.265625 L 1.21875 -14.171875 L 4.796875 -14.171875 L 5.09375 -11.265625 L 5.09375 0 L 1.515625 0 Z M 1.515625 -11.265625 "/></g></g></g><g fill="#ffffff" fill-opacity="1"><g transform="translate(100.326936, 78.710815)"><g><path d="M 9.328125 -5.8125 L 12.609375 0 L 0.75 0 L 0.75 -2.6875 L 7.5 -2.6875 L 1.015625 -14.171875 L 4.625 -14.171875 L 7.421875 -9.1875 L 9.453125 -14.171875 L 12.984375 -14.171875 Z M 9.328125 -5.8125 "/></g></g></g><g fill="#ffffff" fill-opacity="1"><g transform="translate(114.206903, 78.710815)"><g><path d="M 9.21875 -14.171875 C 10.539062 -14.171875 11.582031 -13.773438 12.34375 -12.984375 C 13.113281 -12.191406 13.5 -10.992188 13.5 -9.390625 L 13.5 0 L 9.90625 0 L 9.90625 -9.5625 C 9.90625 -10.851562 9.351562 -11.5 8.25 -11.5 L 4.921875 -11.5 L 4.921875 0 L 1.34375 0 L 1.34375 -14.171875 Z M 9.21875 -14.171875 "/></g></g></g><g fill="#ffffff" fill-opacity="1"><g transform="translate(128.98076, 78.710815)"><g><path d="M 11.5625 -14.171875 L 11.5625 -11.21875 L 7.09375 0 L 3.53125 0 L 7.96875 -11.5 L 0.765625 -11.5 L 0.765625 -17.796875 L 4 -17.796875 L 4 -14.171875 Z M 11.5625 -14.171875 "/></g></g></g><g fill="#ffffff" fill-opacity="1"><g transform="translate(141.346099, 78.710815)"><g/></g></g><g fill="#ffffff" fill-opacity="1"><g transform="translate(146.312095, 78.710815)"><g><path d="M 1.515625 -11.265625 L 1.21875 -14.171875 L 4.796875 -14.171875 L 5.09375 -11.265625 L 5.09375 4.96875 L 1.515625 4.96875 Z M 1.515625 -11.265625 "/></g></g></g><g fill="#ffffff" fill-opacity="1"><g transform="translate(152.743068, 78.710815)"><g><path d="M 6.109375 0 L 5.65625 -2.65625 C 5.195312 -1.914062 4.65625 -1.285156 4.03125 -0.765625 C 3.414062 -0.253906 2.648438 0.15625 1.734375 0.46875 L 0.421875 -2.359375 C 2.734375 -3.085938 4.304688 -4.242188 5.140625 -5.828125 L 5.140625 -9.875 C 5.140625 -10.476562 5.046875 -10.898438 4.859375 -11.140625 C 4.679688 -11.390625 4.378906 -11.550781 3.953125 -11.625 L 2.390625 -11.84375 L 2.828125 -14.46875 L 5.765625 -14.078125 C 6.773438 -13.941406 7.519531 -13.5625 8 -12.9375 C 8.476562 -12.320312 8.71875 -11.4375 8.71875 -10.28125 L 8.71875 -5.5625 L 9.515625 0 Z M 6.109375 0 "/></g></g></g><g fill="#ffffff" fill-opacity="1"><g transform="translate(163.27099, 78.710815)"><g><path d="M 1.515625 -11.265625 L 1.21875 -14.171875 L 4.796875 -14.171875 L 5.09375 -11.265625 L 5.09375 0 L 1.515625 0 Z M 1.515625 -11.265625 "/></g></g></g><g fill="#ffffff" fill-opacity="1"><g transform="translate(169.701963, 78.710815)"><g><path d="M 14.96875 -7.078125 C 14.96875 -4.773438 14.429688 -2.960938 13.359375 -1.640625 C 12.296875 -0.328125 10.796875 0.328125 8.859375 0.328125 C 8.171875 0.328125 7.410156 0.226562 6.578125 0.03125 L 6.90625 -2.65625 C 7.519531 -2.519531 8.03125 -2.453125 8.4375 -2.453125 C 9.5625 -2.453125 10.363281 -2.828125 10.84375 -3.578125 C 11.320312 -4.335938 11.5625 -5.453125 11.5625 -6.921875 C 11.5625 -8.566406 11.332031 -9.753906 10.875 -10.484375 C 10.425781 -11.222656 9.734375 -11.59375 8.796875 -11.59375 C 8.128906 -11.59375 7.566406 -11.394531 7.109375 -11 C 6.660156 -10.601562 6.375 -10.066406 6.25 -9.390625 L 4.71875 0 L 1.140625 0 L 2.859375 -9.5625 L 0.875 -14.171875 L 4.59375 -14.171875 L 5.59375 -11.34375 C 5.9375 -12.375 6.453125 -13.140625 7.140625 -13.640625 C 7.835938 -14.148438 8.632812 -14.40625 9.53125 -14.40625 C 11.300781 -14.40625 12.648438 -13.796875 13.578125 -12.578125 C 14.503906 -11.359375 14.96875 -9.523438 14.96875 -7.078125 Z M 14.96875 -7.078125 "/></g></g></g><g fill="#ffffff" fill-opacity="1"><g transform="translate(185.642826, 78.710815)"><g><path d="M 9.484375 -9.6875 C 9.484375 -10.894531 8.929688 -11.5 7.828125 -11.5 L 1.34375 -11.5 L 1.34375 -14.171875 L 8.796875 -14.171875 C 10.117188 -14.171875 11.160156 -13.796875 11.921875 -13.046875 C 12.691406 -12.296875 13.078125 -11.117188 13.078125 -9.515625 L 13.078125 0 L 9.484375 0 Z M 1.1875 -6.78125 L 1.6875 -8.4375 L 4.796875 -8.4375 L 4.796875 0 L 1.1875 0 Z M 1.1875 -6.78125 "/></g></g></g><g fill="#ffffff" fill-opacity="1"><g transform="translate(199.870414, 78.710815)"><g/></g></g><g fill="#ffffff" fill-opacity="1"><g transform="translate(204.83641, 78.710815)"><g><path d="M 12.734375 -2.6875 L 12.734375 0 L 0.9375 0 L 0.9375 -2.6875 L 7.5 -2.6875 L 7.5 -9.6875 C 7.5 -10.894531 6.9375 -11.5 5.8125 -11.5 L 0.9375 -11.5 L 0.9375 -14.171875 L 6.796875 -14.171875 C 8.128906 -14.171875 9.175781 -13.796875 9.9375 -13.046875 C 10.695312 -12.296875 11.078125 -11.117188 11.078125 -9.515625 L 11.078125 -2.6875 Z M 12.734375 -2.6875 "/></g></g></g><g fill="#ffffff" fill-opacity="1"><g transform="translate(218.319105, 78.710815)"><g><path d="M 9.21875 -14.171875 C 10.539062 -14.171875 11.582031 -13.773438 12.34375 -12.984375 C 13.113281 -12.191406 13.5 -10.992188 13.5 -9.390625 L 13.5 0 L 9.90625 0 L 9.90625 -9.5625 C 9.90625 -10.851562 9.351562 -11.5 8.25 -11.5 L 4.921875 -11.5 L 4.921875 0 L 1.34375 0 L 1.34375 -14.171875 Z M 9.21875 -14.171875 "/></g></g></g><g fill="#ffffff" fill-opacity="1"><g transform="translate(233.092962, 78.710815)"><g><path d="M 7.203125 -9.6875 C 7.203125 -10.894531 6.644531 -11.5 5.53125 -11.5 L 0.6875 -11.5 L 0.6875 -14.171875 L 6.5 -14.171875 C 7.820312 -14.171875 8.867188 -13.796875 9.640625 -13.046875 C 10.410156 -12.296875 10.796875 -11.117188 10.796875 -9.515625 L 10.796875 0 L 7.203125 0 Z M 7.203125 -9.6875 "/></g></g></g><g fill="#ffffff" fill-opacity="1"><g transform="translate(245.210004, 78.710815)"><g><path d="M 14.96875 -7.078125 C 14.96875 -4.773438 14.429688 -2.960938 13.359375 -1.640625 C 12.296875 -0.328125 10.796875 0.328125 8.859375 0.328125 C 8.171875 0.328125 7.410156 0.226562 6.578125 0.03125 L 6.90625 -2.65625 C 7.519531 -2.519531 8.03125 -2.453125 8.4375 -2.453125 C 9.5625 -2.453125 10.363281 -2.828125 10.84375 -3.578125 C 11.320312 -4.335938 11.5625 -5.453125 11.5625 -6.921875 C 11.5625 -8.566406 11.332031 -9.753906 10.875 -10.484375 C 10.425781 -11.222656 9.734375 -11.59375 8.796875 -11.59375 C 8.128906 -11.59375 7.566406 -11.394531 7.109375 -11 C 6.660156 -10.601562 6.375 -10.066406 6.25 -9.390625 L 4.71875 0 L 1.140625 0 L 2.859375 -9.5625 L 0.875 -14.171875 L 4.59375 -14.171875 L 5.59375 -11.34375 C 5.9375 -12.375 6.453125 -13.140625 7.140625 -13.640625 C 7.835938 -14.148438 8.632812 -14.40625 9.53125 -14.40625 C 11.300781 -14.40625 12.648438 -13.796875 13.578125 -12.578125 C 14.503906 -11.359375 14.96875 -9.523438 14.96875 -7.078125 Z M 14.96875 -7.078125 "/></g></g></g><g fill="#ffffff" fill-opacity="1"><g transform="translate(261.150866, 78.710815)"><g><path d="M 11.5625 -14.171875 L 11.5625 -11.21875 L 7.09375 0 L 3.53125 0 L 7.96875 -11.5 L 0.765625 -11.5 L 0.765625 -17.796875 L 4 -17.796875 L 4 -14.171875 Z M 11.5625 -14.171875 "/></g></g></g><g fill="#ffffff" fill-opacity="1"><g transform="translate(273.516929, 78.710815)"><g/></g></g><g clip-path="url(#b1826df2ce)"><g transform="matrix(1, 0, 0, 1, 29, 14)"><g clip-path="url(#23a94a6ff2)"><g clip-path="url(#963b5768ae)"><path fill="#e44650" d="M 0.511719 0.210938 L 84.042969 0.210938 L 84.042969 4.460938 L 0.511719 4.460938 Z M 0.511719 0.210938 " fill-opacity="1" fill-rule="nonzero"/></g></g></g></g></svg>