<svg xmlns="http://www.w3.org/2000/svg" xmlns:xlink="http://www.w3.org/1999/xlink" width="808" zoomAndPan="magnify" viewBox="0 0 606 72.749999" height="97" preserveAspectRatio="xMidYMid meet" version="1.2"><defs><clipPath id="cc4c0bd17a"><path d="M 1.039062 0 L 604.550781 0 L 604.550781 72.164062 L 1.039062 72.164062 Z M 1.039062 0 "/></clipPath><clipPath id="1afa04048f"><path d="M 37.117188 0 L 568.375 0 C 588.300781 0 604.457031 16.152344 604.457031 36.082031 C 604.457031 56.007812 588.300781 72.164062 568.375 72.164062 L 37.117188 72.164062 C 17.191406 72.164062 1.039062 56.007812 1.039062 36.082031 C 1.039062 16.152344 17.191406 0 37.117188 0 Z M 37.117188 0 "/></clipPath><clipPath id="cd97593e32"><path d="M 0.0390625 0 L 603.484375 0 L 603.484375 72.164062 L 0.0390625 72.164062 Z M 0.0390625 0 "/></clipPath><clipPath id="c04bfc75ff"><path d="M 36.117188 0 L 567.375 0 C 587.300781 0 603.457031 16.152344 603.457031 36.082031 C 603.457031 56.007812 587.300781 72.164062 567.375 72.164062 L 36.117188 72.164062 C 16.191406 72.164062 0.0390625 56.007812 0.0390625 36.082031 C 0.0390625 16.152344 16.191406 0 36.117188 0 Z M 36.117188 0 "/></clipPath><clipPath id="e4cfa6b13a"><rect x="0" width="604" y="0" height="73"/></clipPath><clipPath id="fe839807a1"><path d="M 211.390625 2.324219 L 284.472656 2.324219 L 284.472656 25.386719 L 211.390625 25.386719 Z M 211.390625 2.324219 "/></clipPath><clipPath id="dfbfdaddcd"><path d="M 0.390625 0.324219 L 73.472656 0.324219 L 73.472656 23.386719 L 0.390625 23.386719 Z M 0.390625 0.324219 "/></clipPath><clipPath id="e6cff92e19"><rect x="0" width="74" y="0" height="24"/></clipPath></defs><g id="25c322c682"><g clip-rule="nonzero" clip-path="url(#cc4c0bd17a)"><g clip-rule="nonzero" clip-path="url(#1afa04048f)"><g transform="matrix(1,0,0,1,1,0.000000000000000581)"><g clip-path="url(#e4cfa6b13a)"><g clip-rule="nonzero" clip-path="url(#cd97593e32)"><g clip-rule="nonzero" clip-path="url(#c04bfc75ff)"><path style=" stroke:none;fill-rule:nonzero;fill:#e44650;fill-opacity:1;" d="M 0.0390625 0 L 603.550781 0 L 603.550781 72.164062 L 0.0390625 72.164062 Z M 0.0390625 0 "/></g></g></g></g></g></g><g style="fill:#ffffff;fill-opacity:1;"><g transform="translate(36.680812, 47.088185)"><path style="stroke:none" d="M 1.9375 -14.421875 L 1.5625 -18.140625 L 6.125 -18.140625 L 6.515625 -14.421875 L 6.515625 6.359375 L 1.9375 6.359375 Z M 1.9375 -14.421875 "/></g></g><g style="fill:#ffffff;fill-opacity:1;"><g transform="translate(44.905124, 47.088185)"><path style="stroke:none" d="M 13.8125 0 L 7.84375 -9.25 L 5.015625 0 L 0.671875 0 L 4.1875 -10.890625 L 5.171875 -13.34375 L 2.21875 -18.140625 L 6.828125 -18.140625 L 9.375 -14.015625 L 11.65625 -10.546875 L 12.515625 -13.4375 L 13.78125 -18.140625 L 18.140625 -18.140625 L 14.328125 -6.578125 L 18.703125 0 Z M 13.8125 0 "/></g></g><g style="fill:#ffffff;fill-opacity:1;"><g transform="translate(64.497395, 47.088185)"><path style="stroke:none" d="M 0.921875 -3.4375 L 6 -3.4375 C 7.226562 -3.4375 8.132812 -3.835938 8.71875 -4.640625 C 9.300781 -5.441406 9.59375 -6.519531 9.59375 -7.875 L 9.59375 -10.265625 C 9.59375 -11.617188 9.300781 -12.695312 8.71875 -13.5 C 8.132812 -14.300781 7.226562 -14.703125 6 -14.703125 L 0.921875 -14.703125 L 0.921875 -18.140625 L 7.25 -18.140625 C 9.507812 -18.140625 11.234375 -17.410156 12.421875 -15.953125 C 13.609375 -14.503906 14.203125 -12.519531 14.203125 -10 L 14.203125 -8.125 C 14.203125 -5.613281 13.609375 -3.628906 12.421875 -2.171875 C 11.234375 -0.722656 9.507812 0 7.25 0 L 0.921875 0 Z M 0.921875 -3.4375 "/></g></g><g style="fill:#ffffff;fill-opacity:1;"><g transform="translate(79.898126, 47.088185)"><path style="stroke:none" d=""/></g></g><g style="fill:#ffffff;fill-opacity:1;"><g transform="translate(86.248944, 47.088185)"><path style="stroke:none" d="M 1.9375 -14.421875 L 1.5625 -18.140625 L 6.125 -18.140625 L 6.515625 -14.421875 L 6.515625 0 L 1.9375 0 Z M 1.9375 -14.421875 "/></g></g><g style="fill:#ffffff;fill-opacity:1;"><g transform="translate(94.473257, 47.088185)"><path style="stroke:none" d="M 11.9375 -7.4375 L 16.140625 0 L 0.953125 0 L 0.953125 -3.4375 L 9.59375 -3.4375 L 1.296875 -18.140625 L 5.90625 -18.140625 L 9.5 -11.75 L 12.109375 -18.140625 L 16.609375 -18.140625 Z M 11.9375 -7.4375 "/></g></g><g style="fill:#ffffff;fill-opacity:1;"><g transform="translate(112.223796, 47.088185)"><path style="stroke:none" d="M 11.78125 -18.140625 C 13.476562 -18.140625 14.816406 -17.628906 15.796875 -16.609375 C 16.785156 -15.597656 17.28125 -14.0625 17.28125 -12 L 17.28125 0 L 12.671875 0 L 12.671875 -12.234375 C 12.671875 -13.878906 11.960938 -14.703125 10.546875 -14.703125 L 6.296875 -14.703125 L 6.296875 0 L 1.71875 0 L 1.71875 -18.140625 Z M 11.78125 -18.140625 "/></g></g><g style="fill:#ffffff;fill-opacity:1;"><g transform="translate(131.117482, 47.088185)"><path style="stroke:none" d="M 14.796875 -18.140625 L 14.796875 -14.359375 L 9.078125 0 L 4.515625 0 L 10.203125 -14.703125 L 0.984375 -14.703125 L 0.984375 -22.78125 L 5.109375 -22.78125 L 5.109375 -18.140625 Z M 14.796875 -18.140625 "/></g></g><g style="fill:#ffffff;fill-opacity:1;"><g transform="translate(146.931025, 47.088185)"><path style="stroke:none" d=""/></g></g><g style="fill:#ffffff;fill-opacity:1;"><g transform="translate(153.281843, 47.088185)"><path style="stroke:none" d="M 1.9375 -14.421875 L 1.5625 -18.140625 L 6.125 -18.140625 L 6.515625 -14.421875 L 6.515625 6.359375 L 1.9375 6.359375 Z M 1.9375 -14.421875 "/></g></g><g style="fill:#ffffff;fill-opacity:1;"><g transform="translate(161.506155, 47.088185)"><path style="stroke:none" d="M 7.8125 0 L 7.25 -3.40625 C 6.65625 -2.445312 5.957031 -1.640625 5.15625 -0.984375 C 4.363281 -0.328125 3.382812 0.203125 2.21875 0.609375 L 0.546875 -3.015625 C 3.503906 -3.953125 5.515625 -5.4375 6.578125 -7.46875 L 6.578125 -12.640625 C 6.578125 -13.398438 6.457031 -13.9375 6.21875 -14.25 C 5.988281 -14.570312 5.597656 -14.773438 5.046875 -14.859375 L 3.046875 -15.15625 L 3.625 -18.515625 L 7.375 -18.015625 C 8.664062 -17.835938 9.617188 -17.351562 10.234375 -16.5625 C 10.847656 -15.769531 11.15625 -14.632812 11.15625 -13.15625 L 11.15625 -7.109375 L 12.171875 0 Z M 7.8125 0 "/></g></g><g style="fill:#ffffff;fill-opacity:1;"><g transform="translate(174.96989, 47.088185)"><path style="stroke:none" d="M 1.9375 -14.421875 L 1.5625 -18.140625 L 6.125 -18.140625 L 6.515625 -14.421875 L 6.515625 0 L 1.9375 0 Z M 1.9375 -14.421875 "/></g></g><g style="fill:#ffffff;fill-opacity:1;"><g transform="translate(183.194202, 47.088185)"><path style="stroke:none" d="M 19.15625 -9.046875 C 19.15625 -6.109375 18.472656 -3.796875 17.109375 -2.109375 C 15.742188 -0.429688 13.820312 0.40625 11.34375 0.40625 C 10.445312 0.40625 9.472656 0.28125 8.421875 0.03125 L 8.828125 -3.40625 C 9.609375 -3.226562 10.265625 -3.140625 10.796875 -3.140625 C 12.234375 -3.140625 13.257812 -3.617188 13.875 -4.578125 C 14.488281 -5.546875 14.796875 -6.972656 14.796875 -8.859375 C 14.796875 -10.953125 14.503906 -12.46875 13.921875 -13.40625 C 13.347656 -14.351562 12.457031 -14.828125 11.25 -14.828125 C 10.394531 -14.828125 9.675781 -14.570312 9.09375 -14.0625 C 8.519531 -13.5625 8.15625 -12.875 8 -12 L 6.03125 0 L 1.46875 0 L 3.65625 -12.234375 L 1.109375 -18.140625 L 5.875 -18.140625 L 7.140625 -14.515625 C 7.585938 -15.828125 8.253906 -16.804688 9.140625 -17.453125 C 10.035156 -18.097656 11.054688 -18.421875 12.203125 -18.421875 C 14.460938 -18.421875 16.1875 -17.640625 17.375 -16.078125 C 18.5625 -14.523438 19.15625 -12.179688 19.15625 -9.046875 Z M 19.15625 -9.046875 "/></g></g><g style="fill:#ffffff;fill-opacity:1;"><g transform="translate(203.580334, 47.088185)"><path style="stroke:none" d="M 12.140625 -12.390625 C 12.140625 -13.929688 11.425781 -14.703125 10 -14.703125 L 1.71875 -14.703125 L 1.71875 -18.140625 L 11.25 -18.140625 C 12.9375 -18.140625 14.269531 -17.65625 15.25 -16.6875 C 16.238281 -15.726562 16.734375 -14.222656 16.734375 -12.171875 L 16.734375 0 L 12.140625 0 Z M 1.53125 -8.671875 L 2.15625 -10.796875 L 6.125 -10.796875 L 6.125 0 L 1.53125 0 Z M 1.53125 -8.671875 "/></g></g><g style="fill:#ffffff;fill-opacity:1;"><g transform="translate(221.775425, 47.088185)"><path style="stroke:none" d=""/></g></g><g style="fill:#ffffff;fill-opacity:1;"><g transform="translate(228.126232, 47.088185)"><path style="stroke:none" d="M 16.296875 -3.4375 L 16.296875 0 L 1.203125 0 L 1.203125 -3.4375 L 9.59375 -3.4375 L 9.59375 -12.390625 C 9.59375 -13.929688 8.875 -14.703125 7.4375 -14.703125 L 1.203125 -14.703125 L 1.203125 -18.140625 L 8.703125 -18.140625 C 10.398438 -18.140625 11.734375 -17.65625 12.703125 -16.6875 C 13.679688 -15.726562 14.171875 -14.222656 14.171875 -12.171875 L 14.171875 -3.4375 Z M 16.296875 -3.4375 "/></g></g><g style="fill:#ffffff;fill-opacity:1;"><g transform="translate(245.368706, 47.088185)"><path style="stroke:none" d="M 11.78125 -18.140625 C 13.476562 -18.140625 14.816406 -17.628906 15.796875 -16.609375 C 16.785156 -15.597656 17.28125 -14.0625 17.28125 -12 L 17.28125 0 L 12.671875 0 L 12.671875 -12.234375 C 12.671875 -13.878906 11.960938 -14.703125 10.546875 -14.703125 L 6.296875 -14.703125 L 6.296875 0 L 1.71875 0 L 1.71875 -18.140625 Z M 11.78125 -18.140625 "/></g></g><g style="fill:#ffffff;fill-opacity:1;"><g transform="translate(264.262404, 47.088185)"><path style="stroke:none" d="M 9.21875 -12.390625 C 9.21875 -13.929688 8.503906 -14.703125 7.078125 -14.703125 L 0.890625 -14.703125 L 0.890625 -18.140625 L 8.328125 -18.140625 C 10.015625 -18.140625 11.347656 -17.65625 12.328125 -16.6875 C 13.316406 -15.726562 13.8125 -14.222656 13.8125 -12.171875 L 13.8125 0 L 9.21875 0 Z M 9.21875 -12.390625 "/></g></g><g style="fill:#ffffff;fill-opacity:1;"><g transform="translate(279.7584, 47.088185)"><path style="stroke:none" d="M 19.15625 -9.046875 C 19.15625 -6.109375 18.472656 -3.796875 17.109375 -2.109375 C 15.742188 -0.429688 13.820312 0.40625 11.34375 0.40625 C 10.445312 0.40625 9.472656 0.28125 8.421875 0.03125 L 8.828125 -3.40625 C 9.609375 -3.226562 10.265625 -3.140625 10.796875 -3.140625 C 12.234375 -3.140625 13.257812 -3.617188 13.875 -4.578125 C 14.488281 -5.546875 14.796875 -6.972656 14.796875 -8.859375 C 14.796875 -10.953125 14.503906 -12.46875 13.921875 -13.40625 C 13.347656 -14.351562 12.457031 -14.828125 11.25 -14.828125 C 10.394531 -14.828125 9.675781 -14.570312 9.09375 -14.0625 C 8.519531 -13.5625 8.15625 -12.875 8 -12 L 6.03125 0 L 1.46875 0 L 3.65625 -12.234375 L 1.109375 -18.140625 L 5.875 -18.140625 L 7.140625 -14.515625 C 7.585938 -15.828125 8.253906 -16.804688 9.140625 -17.453125 C 10.035156 -18.097656 11.054688 -18.421875 12.203125 -18.421875 C 14.460938 -18.421875 16.1875 -17.640625 17.375 -16.078125 C 18.5625 -14.523438 19.15625 -12.179688 19.15625 -9.046875 Z M 19.15625 -9.046875 "/></g></g><g style="fill:#ffffff;fill-opacity:1;"><g transform="translate(300.14452, 47.088185)"><path style="stroke:none" d="M 14.796875 -18.140625 L 14.796875 -14.359375 L 9.078125 0 L 4.515625 0 L 10.203125 -14.703125 L 0.984375 -14.703125 L 0.984375 -22.78125 L 5.109375 -22.78125 L 5.109375 -18.140625 Z M 14.796875 -18.140625 "/></g></g><g style="fill:#ffffff;fill-opacity:1;"><g transform="translate(315.958074, 47.088185)"><path style="stroke:none" d=""/></g></g><g style="fill:#ffffff;fill-opacity:1;"><g transform="translate(322.308892, 47.088185)"><path style="stroke:none" d="M 12.140625 -12.390625 C 12.140625 -13.929688 11.425781 -14.703125 10 -14.703125 L 1.71875 -14.703125 L 1.71875 -18.140625 L 11.25 -18.140625 C 12.9375 -18.140625 14.269531 -17.65625 15.25 -16.6875 C 16.238281 -15.726562 16.734375 -14.222656 16.734375 -12.171875 L 16.734375 0 L 12.140625 0 Z M 1.53125 -8.671875 L 2.15625 -10.796875 L 6.125 -10.796875 L 6.125 0 L 1.53125 0 Z M 1.53125 -8.671875 "/></g></g><g style="fill:#ffffff;fill-opacity:1;"><g transform="translate(340.503995, 47.088185)"><path style="stroke:none" d="M 17.6875 -10.484375 C 17.820312 -6.753906 16.660156 -4.054688 14.203125 -2.390625 C 11.742188 -0.734375 8.164062 0.164062 3.46875 0.3125 L 1.71875 -14.703125 L 1.265625 -18.140625 L 11.015625 -18.140625 C 13.097656 -18.140625 14.707031 -17.550781 15.84375 -16.375 C 16.988281 -15.195312 17.59375 -13.582031 17.65625 -11.53125 Z M 7.46875 -3.75 C 8.96875 -3.851562 10.132812 -4.164062 10.96875 -4.6875 C 11.8125 -5.207031 12.394531 -5.9375 12.71875 -6.875 C 13.050781 -7.820312 13.195312 -9.054688 13.15625 -10.578125 L 13.15625 -11.53125 C 13.15625 -12.5 12.929688 -13.269531 12.484375 -13.84375 C 12.035156 -14.414062 11.429688 -14.703125 10.671875 -14.703125 L 6.296875 -14.703125 Z M 7.46875 -3.75 "/></g></g><g style="fill:#ffffff;fill-opacity:1;"><g transform="translate(359.715205, 47.088185)"><path style="stroke:none" d="M 1.9375 -14.421875 L 1.5625 -18.140625 L 6.125 -18.140625 L 6.515625 -14.421875 L 6.515625 -9.46875 L 6.484375 -7.46875 L 1.9375 -6.671875 Z M 1.9375 -14.421875 "/></g></g><g style="fill:#ffffff;fill-opacity:1;"><g transform="translate(367.939529, 47.088185)"><path style="stroke:none" d="M 1.234375 -3.4375 L 5.875 -3.4375 L 5.875 -12.609375 C 5.875 -13.367188 5.726562 -13.90625 5.4375 -14.21875 C 5.15625 -14.539062 4.71875 -14.742188 4.125 -14.828125 L 1.90625 -15.15625 L 2.484375 -18.515625 L 6.453125 -18.015625 C 7.742188 -17.835938 8.734375 -17.285156 9.421875 -16.359375 C 10.109375 -15.429688 10.453125 -14.222656 10.453125 -12.734375 L 10.453125 0 L 1.234375 0 Z M 1.234375 -3.4375 "/></g></g><g style="fill:#ffffff;fill-opacity:1;"><g transform="translate(380.037823, 47.088185)"><path style="stroke:none" d="M 0.921875 -3.4375 L 6 -3.4375 C 7.226562 -3.4375 8.132812 -3.835938 8.71875 -4.640625 C 9.300781 -5.441406 9.59375 -6.519531 9.59375 -7.875 L 9.59375 -10.265625 C 9.59375 -11.617188 9.300781 -12.695312 8.71875 -13.5 C 8.132812 -14.300781 7.226562 -14.703125 6 -14.703125 L 0.921875 -14.703125 L 0.921875 -18.140625 L 7.25 -18.140625 C 9.507812 -18.140625 11.234375 -17.410156 12.421875 -15.953125 C 13.609375 -14.503906 14.203125 -12.519531 14.203125 -10 L 14.203125 -8.125 C 14.203125 -5.613281 13.609375 -3.628906 12.421875 -2.171875 C 11.234375 -0.722656 9.507812 0 7.25 0 L 0.921875 0 Z M 0.921875 -3.4375 "/></g></g><g style="fill:#ffffff;fill-opacity:1;"><g transform="translate(395.438565, 47.088185)"><path style="stroke:none" d="M 12.140625 -12.390625 C 12.140625 -13.929688 11.425781 -14.703125 10 -14.703125 L 1.71875 -14.703125 L 1.71875 -18.140625 L 11.25 -18.140625 C 12.9375 -18.140625 14.269531 -17.65625 15.25 -16.6875 C 16.238281 -15.726562 16.734375 -14.222656 16.734375 -12.171875 L 16.734375 0 L 12.140625 0 Z M 1.53125 -8.671875 L 2.15625 -10.796875 L 6.125 -10.796875 L 6.125 0 L 1.53125 0 Z M 1.53125 -8.671875 "/></g></g><g style="fill:#ffffff;fill-opacity:1;"><g transform="translate(413.633645, 47.088185)"><path style="stroke:none" d=""/></g></g><g style="fill:#ffffff;fill-opacity:1;"><g transform="translate(419.984463, 47.088185)"><path style="stroke:none" d="M 1.9375 -14.421875 L 1.5625 -18.140625 L 6.125 -18.140625 L 6.515625 -14.421875 L 6.515625 6.359375 L 1.9375 6.359375 Z M 1.9375 -14.421875 "/></g></g><g style="fill:#ffffff;fill-opacity:1;"><g transform="translate(428.208763, 47.088185)"><path style="stroke:none" d="M 19.15625 -9.046875 C 19.15625 -6.109375 18.472656 -3.796875 17.109375 -2.109375 C 15.742188 -0.429688 13.820312 0.40625 11.34375 0.40625 C 10.445312 0.40625 9.472656 0.28125 8.421875 0.03125 L 8.828125 -3.40625 C 9.609375 -3.226562 10.265625 -3.140625 10.796875 -3.140625 C 12.234375 -3.140625 13.257812 -3.617188 13.875 -4.578125 C 14.488281 -5.546875 14.796875 -6.972656 14.796875 -8.859375 C 14.796875 -10.953125 14.503906 -12.46875 13.921875 -13.40625 C 13.347656 -14.351562 12.457031 -14.828125 11.25 -14.828125 C 10.394531 -14.828125 9.675781 -14.570312 9.09375 -14.0625 C 8.519531 -13.5625 8.15625 -12.875 8 -12 L 6.03125 0 L 1.46875 0 L 3.65625 -12.234375 L 1.109375 -18.140625 L 5.875 -18.140625 L 7.140625 -14.515625 C 7.585938 -15.828125 8.253906 -16.804688 9.140625 -17.453125 C 10.035156 -18.097656 11.054688 -18.421875 12.203125 -18.421875 C 14.460938 -18.421875 16.1875 -17.640625 17.375 -16.078125 C 18.5625 -14.523438 19.15625 -12.179688 19.15625 -9.046875 Z M 19.15625 -9.046875 "/></g></g><g style="fill:#ffffff;fill-opacity:1;"><g transform="translate(448.594929, 47.088185)"><path style="stroke:none" d="M 3.203125 -10.984375 C 3.203125 -11.796875 3.28125 -12.523438 3.4375 -13.171875 C 3.601562 -13.816406 3.820312 -14.328125 4.09375 -14.703125 L 1.234375 -14.703125 L 1.234375 -18.140625 L 10.671875 -18.140625 L 10.671875 -14.703125 L 8.296875 -14.703125 C 8.054688 -14.242188 7.910156 -13.71875 7.859375 -13.125 C 7.804688 -12.53125 7.78125 -11.816406 7.78125 -10.984375 L 7.78125 0 L 3.203125 0 Z M 3.203125 -10.984375 "/></g></g><g style="fill:#ffffff;fill-opacity:1;"><g transform="translate(460.502693, 47.088185)"><path style="stroke:none" d=""/></g></g><g style="fill:#ffffff;fill-opacity:1;"><g transform="translate(466.853534, 47.088185)"><path style="stroke:none" d="M 0.578125 -2.578125 C 1.378906 -2.660156 1.976562 -2.816406 2.375 -3.046875 C 2.78125 -3.285156 3.054688 -3.609375 3.203125 -4.015625 C 3.359375 -4.429688 3.425781 -5.019531 3.40625 -5.78125 L 3.40625 -18.140625 L 13.03125 -18.140625 C 14.71875 -18.140625 16.046875 -17.65625 17.015625 -16.6875 C 17.992188 -15.726562 18.484375 -14.222656 18.484375 -12.171875 L 18.484375 0 L 13.90625 0 L 13.90625 -12.390625 C 13.90625 -13.929688 13.1875 -14.703125 11.75 -14.703125 L 8 -14.703125 L 8 -6.390625 C 8 -4.773438 7.75 -3.488281 7.25 -2.53125 C 6.757812 -1.582031 6.007812 -0.867188 5 -0.390625 C 4 0.078125 2.648438 0.390625 0.953125 0.546875 Z M 0.578125 -2.578125 "/></g></g><g style="fill:#ffffff;fill-opacity:1;"><g transform="translate(487.01735, 47.088185)"><path style="stroke:none" d="M 13.8125 0 L 7.84375 -9.25 L 5.015625 0 L 0.671875 0 L 4.1875 -10.890625 L 5.171875 -13.34375 L 2.21875 -18.140625 L 6.828125 -18.140625 L 9.375 -14.015625 L 11.65625 -10.546875 L 12.515625 -13.4375 L 13.78125 -18.140625 L 18.140625 -18.140625 L 14.328125 -6.578125 L 18.703125 0 Z M 13.8125 0 "/></g></g><g style="fill:#ffffff;fill-opacity:1;"><g transform="translate(506.609644, 47.088185)"><path style="stroke:none" d="M 1.9375 -14.421875 L 1.5625 -18.140625 L 6.125 -18.140625 L 6.515625 -14.421875 L 6.515625 -9.46875 L 6.484375 -7.46875 L 1.9375 -6.671875 Z M 1.9375 -14.421875 "/></g></g><g style="fill:#ffffff;fill-opacity:1;"><g transform="translate(514.833945, 47.088185)"><path style="stroke:none" d="M 11.9375 -7.4375 L 16.140625 0 L 0.953125 0 L 0.953125 -3.4375 L 9.59375 -3.4375 L 1.296875 -18.140625 L 5.90625 -18.140625 L 9.5 -11.75 L 12.109375 -18.140625 L 16.609375 -18.140625 Z M 11.9375 -7.4375 "/></g></g><g style="fill:#ffffff;fill-opacity:1;"><g transform="translate(532.584484, 47.088185)"><path style="stroke:none" d="M 19.15625 -9.046875 C 19.15625 -6.109375 18.472656 -3.796875 17.109375 -2.109375 C 15.742188 -0.429688 13.820312 0.40625 11.34375 0.40625 C 10.445312 0.40625 9.472656 0.28125 8.421875 0.03125 L 8.828125 -3.40625 C 9.609375 -3.226562 10.265625 -3.140625 10.796875 -3.140625 C 12.234375 -3.140625 13.257812 -3.617188 13.875 -4.578125 C 14.488281 -5.546875 14.796875 -6.972656 14.796875 -8.859375 C 14.796875 -10.953125 14.503906 -12.46875 13.921875 -13.40625 C 13.347656 -14.351562 12.457031 -14.828125 11.25 -14.828125 C 10.394531 -14.828125 9.675781 -14.570312 9.09375 -14.0625 C 8.519531 -13.5625 8.15625 -12.875 8 -12 L 6.03125 0 L 1.46875 0 L 3.65625 -12.234375 L 1.109375 -18.140625 L 5.875 -18.140625 L 7.140625 -14.515625 C 7.585938 -15.828125 8.253906 -16.804688 9.140625 -17.453125 C 10.035156 -18.097656 11.054688 -18.421875 12.203125 -18.421875 C 14.460938 -18.421875 16.1875 -17.640625 17.375 -16.078125 C 18.5625 -14.523438 19.15625 -12.179688 19.15625 -9.046875 Z M 19.15625 -9.046875 "/></g></g><g style="fill:#ffffff;fill-opacity:1;"><g transform="translate(552.970604, 47.088185)"><path style="stroke:none" d="M 14.796875 -18.140625 L 14.796875 -14.359375 L 9.078125 0 L 4.515625 0 L 10.203125 -14.703125 L 0.984375 -14.703125 L 0.984375 -22.78125 L 5.109375 -22.78125 L 5.109375 -18.140625 Z M 14.796875 -18.140625 "/></g></g><g clip-rule="nonzero" clip-path="url(#fe839807a1)"><g transform="matrix(1,0,0,1,211,2)"><g clip-path="url(#e6cff92e19)"><g clip-rule="nonzero" clip-path="url(#dfbfdaddcd)"><path style=" stroke:none;fill-rule:nonzero;fill:#e44650;fill-opacity:1;" d="M 0.390625 0.324219 L 73.457031 0.324219 L 73.457031 23.386719 L 0.390625 23.386719 Z M 0.390625 0.324219 "/></g></g></g></g></g></svg>