<svg xmlns="http://www.w3.org/2000/svg" xmlns:xlink="http://www.w3.org/1999/xlink" width="669" zoomAndPan="magnify" viewBox="0 0 501.75 79.499998" height="106" preserveAspectRatio="xMidYMid meet" version="1.2"><defs><clipPath id="4b460c0605"><path d="M 1.445312 1.21875 L 500 1.21875 L 500 78.773438 L 1.445312 78.773438 Z M 1.445312 1.21875 "/></clipPath><clipPath id="76ff2f02f0"><path d="M 11.878906 1.21875 L 489.453125 1.21875 C 495.214844 1.21875 499.886719 5.890625 499.886719 11.65625 L 499.886719 68.339844 C 499.886719 74.101562 495.214844 78.773438 489.453125 78.773438 L 11.878906 78.773438 C 6.117188 78.773438 1.445312 74.101562 1.445312 68.339844 L 1.445312 11.65625 C 1.445312 5.890625 6.117188 1.21875 11.878906 1.21875 Z M 11.878906 1.21875 "/></clipPath><clipPath id="90fb7aeca4"><path d="M 0.445312 0.21875 L 498.910156 0.21875 L 498.910156 77.773438 L 0.445312 77.773438 Z M 0.445312 0.21875 "/></clipPath><clipPath id="9dfcc0cffc"><path d="M 10.878906 0.21875 L 488.453125 0.21875 C 494.214844 0.21875 498.886719 4.890625 498.886719 10.65625 L 498.886719 67.339844 C 498.886719 73.101562 494.214844 77.773438 488.453125 77.773438 L 10.878906 77.773438 C 5.117188 77.773438 0.445312 73.101562 0.445312 67.339844 L 0.445312 10.65625 C 0.445312 4.890625 5.117188 0.21875 10.878906 0.21875 Z M 10.878906 0.21875 "/></clipPath><clipPath id="883df124b6"><rect x="0" width="499" y="0" height="78"/></clipPath><clipPath id="85bde16665"><path d="M 424.234375 13.558594 L 482.902344 13.558594 L 482.902344 68.371094 L 424.234375 68.371094 Z M 424.234375 13.558594 "/></clipPath><clipPath id="bc3306d108"><path d="M 453.542969 13.558594 C 437.359375 13.558594 424.234375 25.828125 424.234375 40.964844 C 424.234375 56.101562 437.359375 68.371094 453.542969 68.371094 C 469.730469 68.371094 482.851562 56.101562 482.851562 40.964844 C 482.851562 25.828125 469.730469 13.558594 453.542969 13.558594 Z M 453.542969 13.558594 "/></clipPath><clipPath id="7a1067ddc3"><path d="M 0.234375 0.558594 L 58.902344 0.558594 L 58.902344 55.371094 L 0.234375 55.371094 Z M 0.234375 0.558594 "/></clipPath><clipPath id="aeba5c250e"><path d="M 29.542969 0.558594 C 13.359375 0.558594 0.234375 12.828125 0.234375 27.964844 C 0.234375 43.101562 13.359375 55.371094 29.542969 55.371094 C 45.730469 55.371094 58.851562 43.101562 58.851562 27.964844 C 58.851562 12.828125 45.730469 0.558594 29.542969 0.558594 Z M 29.542969 0.558594 "/></clipPath><clipPath id="12c86353bc"><rect x="0" width="59" y="0" height="56"/></clipPath><clipPath id="4455026114"><rect x="0" width="26" y="0" height="61"/></clipPath><clipPath id="673759ec36"><rect x="0" width="302" y="0" height="56"/></clipPath></defs><g id="a1aeba3a3c"><g clip-rule="nonzero" clip-path="url(#4b460c0605)"><g clip-rule="nonzero" clip-path="url(#76ff2f02f0)"><g transform="matrix(1,0,0,1,1,1)"><g clip-path="url(#883df124b6)"><g clip-rule="nonzero" clip-path="url(#90fb7aeca4)"><g clip-rule="nonzero" clip-path="url(#9dfcc0cffc)"><path style=" stroke:none;fill-rule:nonzero;fill:#176598;fill-opacity:1;" d="M 0.445312 0.21875 L 498.777344 0.21875 L 498.777344 77.773438 L 0.445312 77.773438 Z M 0.445312 0.21875 "/></g></g></g></g></g></g><g clip-rule="nonzero" clip-path="url(#85bde16665)"><g clip-rule="nonzero" clip-path="url(#bc3306d108)"><g transform="matrix(1,0,0,1,424,13)"><g clip-path="url(#12c86353bc)"><g clip-rule="nonzero" clip-path="url(#7a1067ddc3)"><g clip-rule="nonzero" clip-path="url(#aeba5c250e)"><path style=" stroke:none;fill-rule:nonzero;fill:#ffffff;fill-opacity:1;" d="M 0.234375 0.558594 L 58.902344 0.558594 L 58.902344 55.371094 L 0.234375 55.371094 Z M 0.234375 0.558594 "/></g></g></g></g></g></g><g transform="matrix(1,0,0,1,441,8)"><g clip-path="url(#4455026114)"><g style="fill:#052554;fill-opacity:1;"><g transform="translate(0.884957, 46.764419)"><path style="stroke:none" d="M 11.25 0.546875 C 8.957031 0.546875 6.941406 0.191406 5.203125 -0.515625 C 3.472656 -1.234375 2.046875 -2.25 0.921875 -3.5625 L 4.484375 -8.5 C 5.398438 -7.644531 6.367188 -6.972656 7.390625 -6.484375 C 8.410156 -6.003906 9.421875 -5.765625 10.421875 -5.765625 C 11.734375 -5.765625 12.757812 -6 13.5 -6.46875 C 14.25 -6.9375 14.625 -7.613281 14.625 -8.5 C 14.625 -9.289062 14.429688 -9.9375 14.046875 -10.4375 C 13.671875 -10.945312 12.957031 -11.332031 11.90625 -11.59375 C 10.851562 -11.851562 9.351562 -11.984375 7.40625 -11.984375 L 7.40625 -17.46875 C 9.71875 -17.46875 11.347656 -17.75 12.296875 -18.3125 C 13.242188 -18.875 13.71875 -19.6875 13.71875 -20.75 C 13.71875 -21.601562 13.457031 -22.257812 12.9375 -22.71875 C 12.414062 -23.175781 11.671875 -23.40625 10.703125 -23.40625 C 9.785156 -23.40625 8.945312 -23.210938 8.1875 -22.828125 C 7.425781 -22.453125 6.554688 -21.851562 5.578125 -21.03125 L 1.640625 -25.78125 C 4.628906 -28.28125 7.769531 -29.53125 11.0625 -29.53125 C 14.289062 -29.53125 16.847656 -28.8125 18.734375 -27.375 C 20.628906 -25.945312 21.578125 -23.9375 21.578125 -21.34375 C 21.578125 -18.539062 20.023438 -16.457031 16.921875 -15.09375 L 16.921875 -14.90625 C 18.648438 -14.382812 20.007812 -13.535156 21 -12.359375 C 22 -11.191406 22.5 -9.722656 22.5 -7.953125 C 22.5 -6.179688 21.988281 -4.65625 20.96875 -3.375 C 19.945312 -2.101562 18.582031 -1.128906 16.875 -0.453125 C 15.164062 0.210938 13.289062 0.546875 11.25 0.546875 Z M 11.25 0.546875 "/></g></g></g></g><g transform="matrix(1,0,0,1,108,11)"><g clip-path="url(#673759ec36)"><g style="fill:#ffffff;fill-opacity:1;"><g transform="translate(0.341318, 42.870601)"><path style="stroke:none" d="M 2.578125 -19.203125 L 2.078125 -24.140625 L 8.15625 -24.140625 L 8.671875 -19.203125 L 8.671875 -12.59375 L 8.625 -9.9375 L 2.578125 -8.875 Z M 2.578125 -19.203125 "/></g></g><g style="fill:#ffffff;fill-opacity:1;"><g transform="translate(11.289916, 42.870601)"><path style="stroke:none" d="M 25.5 -12.046875 C 25.5 -8.128906 24.585938 -5.050781 22.765625 -2.8125 C 20.953125 -0.570312 18.394531 0.546875 15.09375 0.546875 C 13.90625 0.546875 12.609375 0.378906 11.203125 0.046875 L 11.75 -4.53125 C 12.789062 -4.300781 13.664062 -4.1875 14.375 -4.1875 C 16.289062 -4.1875 17.65625 -4.828125 18.46875 -6.109375 C 19.289062 -7.390625 19.703125 -9.285156 19.703125 -11.796875 C 19.703125 -14.585938 19.3125 -16.609375 18.53125 -17.859375 C 17.757812 -19.117188 16.570312 -19.75 14.96875 -19.75 C 13.84375 -19.75 12.890625 -19.410156 12.109375 -18.734375 C 11.335938 -18.054688 10.851562 -17.140625 10.65625 -15.984375 L 8.03125 0 L 1.9375 0 L 4.859375 -16.28125 L 1.484375 -24.140625 L 7.828125 -24.140625 L 9.515625 -19.328125 C 10.109375 -21.066406 10.992188 -22.363281 12.171875 -23.21875 C 13.359375 -24.082031 14.710938 -24.515625 16.234375 -24.515625 C 19.253906 -24.515625 21.550781 -23.476562 23.125 -21.40625 C 24.707031 -19.34375 25.5 -16.222656 25.5 -12.046875 Z M 25.5 -12.046875 "/></g></g><g style="fill:#ffffff;fill-opacity:1;"><g transform="translate(38.4289, 42.870601)"><path style="stroke:none" d="M 2.578125 -19.203125 L 2.078125 -24.140625 L 8.15625 -24.140625 L 8.671875 -19.203125 L 8.671875 -12.59375 L 8.625 -9.9375 L 2.578125 -8.875 Z M 2.578125 -19.203125 "/></g></g><g style="fill:#ffffff;fill-opacity:1;"><g transform="translate(49.377499, 42.870601)"><path style="stroke:none" d="M 1.65625 -4.5625 L 7.828125 -4.5625 L 7.828125 -16.78125 C 7.828125 -17.800781 7.632812 -18.519531 7.25 -18.9375 C 6.875 -19.363281 6.289062 -19.632812 5.5 -19.75 L 2.53125 -20.171875 L 3.296875 -24.65625 L 8.578125 -23.96875 C 10.296875 -23.75 11.613281 -23.019531 12.53125 -21.78125 C 13.445312 -20.539062 13.90625 -18.929688 13.90625 -16.953125 L 13.90625 0 L 1.65625 0 Z M 1.65625 -4.5625 "/></g></g><g style="fill:#ffffff;fill-opacity:1;"><g transform="translate(65.483341, 42.870601)"><path style="stroke:none" d="M 2.234375 -4.5625 L 10.78125 -4.5625 C 12.414062 -4.5625 13.691406 -5.085938 14.609375 -6.140625 C 15.523438 -7.203125 15.984375 -8.664062 15.984375 -10.53125 L 15.984375 -13.65625 C 15.984375 -15.4375 15.582031 -16.867188 14.78125 -17.953125 C 13.976562 -19.035156 12.800781 -19.578125 11.25 -19.578125 L 8.203125 -19.578125 L 7.4375 -15.984375 C 7.351562 -15.617188 7.3125 -15.265625 7.3125 -14.921875 C 7.3125 -14.222656 7.519531 -13.679688 7.9375 -13.296875 C 8.363281 -12.921875 9.054688 -12.632812 10.015625 -12.4375 L 9.046875 -8.625 C 6.535156 -8.675781 4.71875 -9.238281 3.59375 -10.3125 C 2.46875 -11.382812 1.90625 -12.835938 1.90625 -14.671875 C 1.90625 -15.347656 1.960938 -15.96875 2.078125 -16.53125 L 3.765625 -24.140625 L 12.6875 -24.140625 C 15.613281 -24.140625 17.910156 -23.164062 19.578125 -21.21875 C 21.242188 -19.28125 22.078125 -16.660156 22.078125 -13.359375 L 22.078125 -10.828125 C 22.078125 -7.441406 21.1875 -4.789062 19.40625 -2.875 C 17.632812 -0.957031 15.238281 0 12.21875 0 L 2.234375 0 Z M 2.234375 -4.5625 "/></g></g><g style="fill:#ffffff;fill-opacity:1;"><g transform="translate(89.029159, 42.870601)"><path style="stroke:none" d=""/></g></g><g style="fill:#ffffff;fill-opacity:1;"><g transform="translate(97.483669, 42.870601)"><path style="stroke:none" d="M 0.765625 -3.421875 C 1.835938 -3.535156 2.640625 -3.75 3.171875 -4.0625 C 3.703125 -4.375 4.066406 -4.800781 4.265625 -5.34375 C 4.460938 -5.894531 4.550781 -6.675781 4.53125 -7.6875 L 4.53125 -24.140625 L 17.328125 -24.140625 C 19.585938 -24.140625 21.363281 -23.5 22.65625 -22.21875 C 23.957031 -20.9375 24.609375 -18.925781 24.609375 -16.1875 L 24.609375 0 L 18.515625 0 L 18.515625 -16.484375 C 18.515625 -18.546875 17.554688 -19.578125 15.640625 -19.578125 L 10.65625 -19.578125 L 10.65625 -8.5 C 10.65625 -6.351562 10.320312 -4.644531 9.65625 -3.375 C 9 -2.113281 8 -1.164062 6.65625 -0.53125 C 5.320312 0.101562 3.523438 0.519531 1.265625 0.71875 Z M 0.765625 -3.421875 "/></g></g><g style="fill:#ffffff;fill-opacity:1;"><g transform="translate(124.326742, 42.870601)"><path style="stroke:none" d="M 2.578125 -19.203125 L 2.078125 -24.140625 L 8.15625 -24.140625 L 8.671875 -19.203125 L 8.671875 0 L 2.578125 0 Z M 2.578125 -19.203125 "/></g></g><g style="fill:#ffffff;fill-opacity:1;"><g transform="translate(135.275341, 42.870601)"><path style="stroke:none" d="M 10.40625 0 L 9.640625 -4.53125 C 8.847656 -3.257812 7.921875 -2.1875 6.859375 -1.3125 C 5.804688 -0.4375 4.503906 0.265625 2.953125 0.796875 L 0.71875 -4.015625 C 4.664062 -5.253906 7.34375 -7.226562 8.75 -9.9375 L 8.75 -16.828125 C 8.75 -17.835938 8.59375 -18.554688 8.28125 -18.984375 C 7.976562 -19.410156 7.457031 -19.675781 6.71875 -19.78125 L 4.0625 -20.171875 L 4.8125 -24.65625 L 9.8125 -23.96875 C 11.53125 -23.75 12.796875 -23.109375 13.609375 -22.046875 C 14.429688 -20.992188 14.84375 -19.476562 14.84375 -17.5 L 14.84375 -9.46875 L 16.1875 0 Z M 10.40625 0 "/></g></g><g style="fill:#ffffff;fill-opacity:1;"><g transform="translate(153.198904, 42.870601)"><path style="stroke:none" d="M 12.265625 -16.484375 C 12.265625 -18.546875 11.316406 -19.578125 9.421875 -19.578125 L 1.1875 -19.578125 L 1.1875 -24.140625 L 11.078125 -24.140625 C 13.328125 -24.140625 15.109375 -23.5 16.421875 -22.21875 C 17.734375 -20.9375 18.390625 -18.925781 18.390625 -16.1875 L 18.390625 0 L 12.265625 0 Z M 12.265625 -16.484375 "/></g></g><g style="fill:#ffffff;fill-opacity:1;"><g transform="translate(173.827912, 42.870601)"><path style="stroke:none" d="M 11.125 -14.625 C 11.125 -15.695312 11.226562 -16.660156 11.4375 -17.515625 C 11.644531 -18.378906 11.929688 -19.066406 12.296875 -19.578125 L 1.484375 -19.578125 L 1.484375 -24.140625 L 21.3125 -24.140625 L 21.3125 -19.578125 L 18.015625 -19.578125 C 17.472656 -18.367188 17.203125 -16.71875 17.203125 -14.625 L 17.203125 0 L 11.125 0 Z M 11.125 -14.625 "/></g></g><g style="fill:#ffffff;fill-opacity:1;"><g transform="translate(196.739642, 42.870601)"><path style="stroke:none" d="M 25.5 -12.046875 C 25.5 -8.128906 24.585938 -5.050781 22.765625 -2.8125 C 20.953125 -0.570312 18.394531 0.546875 15.09375 0.546875 C 13.90625 0.546875 12.609375 0.378906 11.203125 0.046875 L 11.75 -4.53125 C 12.789062 -4.300781 13.664062 -4.1875 14.375 -4.1875 C 16.289062 -4.1875 17.65625 -4.828125 18.46875 -6.109375 C 19.289062 -7.390625 19.703125 -9.285156 19.703125 -11.796875 C 19.703125 -14.585938 19.3125 -16.609375 18.53125 -17.859375 C 17.757812 -19.117188 16.570312 -19.75 14.96875 -19.75 C 13.84375 -19.75 12.890625 -19.410156 12.109375 -18.734375 C 11.335938 -18.054688 10.851562 -17.140625 10.65625 -15.984375 L 8.03125 0 L 1.9375 0 L 4.859375 -16.28125 L 1.484375 -24.140625 L 7.828125 -24.140625 L 9.515625 -19.328125 C 10.109375 -21.066406 10.992188 -22.363281 12.171875 -23.21875 C 13.359375 -24.082031 14.710938 -24.515625 16.234375 -24.515625 C 19.253906 -24.515625 21.550781 -23.476562 23.125 -21.40625 C 24.707031 -19.34375 25.5 -16.222656 25.5 -12.046875 Z M 25.5 -12.046875 "/></g></g><g style="fill:#ffffff;fill-opacity:1;"><g transform="translate(223.878615, 42.870601)"><path style="stroke:none" d=""/></g></g><g style="fill:#ffffff;fill-opacity:1;"><g transform="translate(232.333147, 42.870601)"><path style="stroke:none" d="M 12.265625 -16.484375 C 12.265625 -18.546875 11.316406 -19.578125 9.421875 -19.578125 L 1.1875 -19.578125 L 1.1875 -24.140625 L 11.078125 -24.140625 C 13.328125 -24.140625 15.109375 -23.5 16.421875 -22.21875 C 17.734375 -20.9375 18.390625 -18.925781 18.390625 -16.1875 L 18.390625 0 L 12.265625 0 Z M 12.265625 -16.484375 "/></g></g><g style="fill:#ffffff;fill-opacity:1;"><g transform="translate(252.962144, 42.870601)"><path style="stroke:none" d="M 11.125 -14.625 C 11.125 -15.695312 11.226562 -16.660156 11.4375 -17.515625 C 11.644531 -18.378906 11.929688 -19.066406 12.296875 -19.578125 L 1.484375 -19.578125 L 1.484375 -24.140625 L 21.3125 -24.140625 L 21.3125 -19.578125 L 18.015625 -19.578125 C 17.472656 -18.367188 17.203125 -16.71875 17.203125 -14.625 L 17.203125 0 L 11.125 0 Z M 11.125 -14.625 "/></g></g><g style="fill:#ffffff;fill-opacity:1;"><g transform="translate(275.873874, 42.870601)"><path style="stroke:none" d="M 15.6875 -24.140625 C 17.9375 -24.140625 19.71875 -23.460938 21.03125 -22.109375 C 22.34375 -20.753906 23 -18.710938 23 -15.984375 L 23 0 L 16.875 0 L 16.875 -16.28125 C 16.875 -18.476562 15.925781 -19.578125 14.03125 -19.578125 L 8.375 -19.578125 L 8.375 0 L 2.28125 0 L 2.28125 -24.140625 Z M 15.6875 -24.140625 "/></g></g></g></g></g></svg>