<svg xmlns="http://www.w3.org/2000/svg" xmlns:xlink="http://www.w3.org/1999/xlink" width="669" zoomAndPan="magnify" viewBox="0 0 501.75 79.499998" height="106" preserveAspectRatio="xMidYMid meet" version="1.2"><defs><clipPath id="11ba8249bf"><path d="M 1.445312 1.21875 L 500 1.21875 L 500 78.773438 L 1.445312 78.773438 Z M 1.445312 1.21875 "/></clipPath><clipPath id="607299df3d"><path d="M 11.878906 1.21875 L 489.453125 1.21875 C 495.214844 1.21875 499.886719 5.890625 499.886719 11.65625 L 499.886719 68.339844 C 499.886719 74.101562 495.214844 78.773438 489.453125 78.773438 L 11.878906 78.773438 C 6.117188 78.773438 1.445312 74.101562 1.445312 68.339844 L 1.445312 11.65625 C 1.445312 5.890625 6.117188 1.21875 11.878906 1.21875 Z M 11.878906 1.21875 "/></clipPath><clipPath id="7805505491"><path d="M 0.445312 0.21875 L 498.910156 0.21875 L 498.910156 77.773438 L 0.445312 77.773438 Z M 0.445312 0.21875 "/></clipPath><clipPath id="0d095f6f66"><path d="M 10.878906 0.21875 L 488.453125 0.21875 C 494.214844 0.21875 498.886719 4.890625 498.886719 10.65625 L 498.886719 67.339844 C 498.886719 73.101562 494.214844 77.773438 488.453125 77.773438 L 10.878906 77.773438 C 5.117188 77.773438 0.445312 73.101562 0.445312 67.339844 L 0.445312 10.65625 C 0.445312 4.890625 5.117188 0.21875 10.878906 0.21875 Z M 10.878906 0.21875 "/></clipPath><clipPath id="d1b8b3c402"><rect x="0" width="499" y="0" height="78"/></clipPath><clipPath id="f422b8fdee"><path d="M 424.234375 13.558594 L 482.902344 13.558594 L 482.902344 68.371094 L 424.234375 68.371094 Z M 424.234375 13.558594 "/></clipPath><clipPath id="a3b3a3c93a"><path d="M 453.542969 13.558594 C 437.359375 13.558594 424.234375 25.828125 424.234375 40.964844 C 424.234375 56.101562 437.359375 68.371094 453.542969 68.371094 C 469.730469 68.371094 482.851562 56.101562 482.851562 40.964844 C 482.851562 25.828125 469.730469 13.558594 453.542969 13.558594 Z M 453.542969 13.558594 "/></clipPath><clipPath id="e00900ff9a"><path d="M 0.234375 0.558594 L 58.902344 0.558594 L 58.902344 55.371094 L 0.234375 55.371094 Z M 0.234375 0.558594 "/></clipPath><clipPath id="8fe84e7a84"><path d="M 29.542969 0.558594 C 13.359375 0.558594 0.234375 12.828125 0.234375 27.964844 C 0.234375 43.101562 13.359375 55.371094 29.542969 55.371094 C 45.730469 55.371094 58.851562 43.101562 58.851562 27.964844 C 58.851562 12.828125 45.730469 0.558594 29.542969 0.558594 Z M 29.542969 0.558594 "/></clipPath><clipPath id="be90f3a581"><rect x="0" width="59" y="0" height="56"/></clipPath><clipPath id="5e12665d97"><rect x="0" width="27" y="0" height="61"/></clipPath><clipPath id="864a3507e4"><rect x="0" width="166" y="0" height="56"/></clipPath></defs><g id="d4b9cbe6b9"><g clip-rule="nonzero" clip-path="url(#11ba8249bf)"><g clip-rule="nonzero" clip-path="url(#607299df3d)"><g transform="matrix(1,0,0,1,1,1)"><g clip-path="url(#d1b8b3c402)"><g clip-rule="nonzero" clip-path="url(#7805505491)"><g clip-rule="nonzero" clip-path="url(#0d095f6f66)"><path style=" stroke:none;fill-rule:nonzero;fill:#176598;fill-opacity:1;" d="M 0.445312 0.21875 L 498.777344 0.21875 L 498.777344 77.773438 L 0.445312 77.773438 Z M 0.445312 0.21875 "/></g></g></g></g></g></g><g clip-rule="nonzero" clip-path="url(#f422b8fdee)"><g clip-rule="nonzero" clip-path="url(#a3b3a3c93a)"><g transform="matrix(1,0,0,1,424,13)"><g clip-path="url(#be90f3a581)"><g clip-rule="nonzero" clip-path="url(#e00900ff9a)"><g clip-rule="nonzero" clip-path="url(#8fe84e7a84)"><path style=" stroke:none;fill-rule:nonzero;fill:#ffffff;fill-opacity:1;" d="M 0.234375 0.558594 L 58.902344 0.558594 L 58.902344 55.371094 L 0.234375 55.371094 Z M 0.234375 0.558594 "/></g></g></g></g></g></g><g transform="matrix(1,0,0,1,438,8)"><g clip-path="url(#5e12665d97)"><g style="fill:#052554;fill-opacity:1;"><g transform="translate(1.105117, 46.764419)"><path style="stroke:none" d="M 23.6875 -6.484375 L 20.578125 -6.484375 L 20.578125 0 L 13.265625 0 L 13.265625 -6.484375 L 0.921875 -6.484375 L 0.921875 -11.984375 L 10.796875 -28.984375 L 20.578125 -28.984375 L 20.578125 -12.4375 L 23.6875 -12.4375 Z M 13.265625 -12.4375 L 13.265625 -15.734375 C 13.265625 -16.953125 13.320312 -18.71875 13.4375 -21.03125 C 13.5 -21.757812 13.53125 -22.273438 13.53125 -22.578125 L 13.34375 -22.578125 C 12.863281 -21.421875 12.070312 -19.6875 10.96875 -17.375 L 8.328125 -12.4375 Z M 13.265625 -12.4375 "/></g></g></g></g><g transform="matrix(1,0,0,1,244,11)"><g clip-path="url(#864a3507e4)"><g style="fill:#ffffff;fill-opacity:1;"><g transform="translate(0.629452, 42.870601)"><path style="stroke:none" d="M 2.578125 -19.203125 L 2.078125 -24.140625 L 8.15625 -24.140625 L 8.671875 -19.203125 L 8.671875 -12.59375 L 8.625 -9.9375 L 2.578125 -8.875 Z M 2.578125 -19.203125 "/></g></g><g style="fill:#ffffff;fill-opacity:1;"><g transform="translate(11.578051, 42.870601)"><path style="stroke:none" d="M 25.5 -12.046875 C 25.5 -8.128906 24.585938 -5.050781 22.765625 -2.8125 C 20.953125 -0.570312 18.394531 0.546875 15.09375 0.546875 C 13.90625 0.546875 12.609375 0.378906 11.203125 0.046875 L 11.75 -4.53125 C 12.789062 -4.300781 13.664062 -4.1875 14.375 -4.1875 C 16.289062 -4.1875 17.65625 -4.828125 18.46875 -6.109375 C 19.289062 -7.390625 19.703125 -9.285156 19.703125 -11.796875 C 19.703125 -14.585938 19.3125 -16.609375 18.53125 -17.859375 C 17.757812 -19.117188 16.570312 -19.75 14.96875 -19.75 C 13.84375 -19.75 12.890625 -19.410156 12.109375 -18.734375 C 11.335938 -18.054688 10.851562 -17.140625 10.65625 -15.984375 L 8.03125 0 L 1.9375 0 L 4.859375 -16.28125 L 1.484375 -24.140625 L 7.828125 -24.140625 L 9.515625 -19.328125 C 10.109375 -21.066406 10.992188 -22.363281 12.171875 -23.21875 C 13.359375 -24.082031 14.710938 -24.515625 16.234375 -24.515625 C 19.253906 -24.515625 21.550781 -23.476562 23.125 -21.40625 C 24.707031 -19.34375 25.5 -16.222656 25.5 -12.046875 Z M 25.5 -12.046875 "/></g></g><g style="fill:#ffffff;fill-opacity:1;"><g transform="translate(38.717035, 42.870601)"><path style="stroke:none" d="M 2.578125 -19.203125 L 2.078125 -24.140625 L 8.15625 -24.140625 L 8.671875 -19.203125 L 8.671875 -12.59375 L 8.625 -9.9375 L 2.578125 -8.875 Z M 2.578125 -19.203125 "/></g></g><g style="fill:#ffffff;fill-opacity:1;"><g transform="translate(49.665633, 42.870601)"><path style="stroke:none" d="M 1.65625 -4.5625 L 7.828125 -4.5625 L 7.828125 -16.78125 C 7.828125 -17.800781 7.632812 -18.519531 7.25 -18.9375 C 6.875 -19.363281 6.289062 -19.632812 5.5 -19.75 L 2.53125 -20.171875 L 3.296875 -24.65625 L 8.578125 -23.96875 C 10.296875 -23.75 11.613281 -23.019531 12.53125 -21.78125 C 13.445312 -20.539062 13.90625 -18.929688 13.90625 -16.953125 L 13.90625 0 L 1.65625 0 Z M 1.65625 -4.5625 "/></g></g><g style="fill:#ffffff;fill-opacity:1;"><g transform="translate(65.771475, 42.870601)"><path style="stroke:none" d="M 2.234375 -4.5625 L 10.78125 -4.5625 C 12.414062 -4.5625 13.691406 -5.085938 14.609375 -6.140625 C 15.523438 -7.203125 15.984375 -8.664062 15.984375 -10.53125 L 15.984375 -13.65625 C 15.984375 -15.4375 15.582031 -16.867188 14.78125 -17.953125 C 13.976562 -19.035156 12.800781 -19.578125 11.25 -19.578125 L 8.203125 -19.578125 L 7.4375 -15.984375 C 7.351562 -15.617188 7.3125 -15.265625 7.3125 -14.921875 C 7.3125 -14.222656 7.519531 -13.679688 7.9375 -13.296875 C 8.363281 -12.921875 9.054688 -12.632812 10.015625 -12.4375 L 9.046875 -8.625 C 6.535156 -8.675781 4.71875 -9.238281 3.59375 -10.3125 C 2.46875 -11.382812 1.90625 -12.835938 1.90625 -14.671875 C 1.90625 -15.347656 1.960938 -15.96875 2.078125 -16.53125 L 3.765625 -24.140625 L 12.6875 -24.140625 C 15.613281 -24.140625 17.910156 -23.164062 19.578125 -21.21875 C 21.242188 -19.28125 22.078125 -16.660156 22.078125 -13.359375 L 22.078125 -10.828125 C 22.078125 -7.441406 21.1875 -4.789062 19.40625 -2.875 C 17.632812 -0.957031 15.238281 0 12.21875 0 L 2.234375 0 Z M 2.234375 -4.5625 "/></g></g><g style="fill:#ffffff;fill-opacity:1;"><g transform="translate(89.317294, 42.870601)"><path style="stroke:none" d=""/></g></g><g style="fill:#ffffff;fill-opacity:1;"><g transform="translate(97.771803, 42.870601)"><path style="stroke:none" d="M 19.703125 -24.140625 L 19.703125 -19.109375 L 12.09375 0 L 6 0 L 13.578125 -19.578125 L 1.3125 -19.578125 L 1.3125 -30.3125 L 6.8125 -30.3125 L 6.8125 -24.140625 Z M 19.703125 -24.140625 "/></g></g><g style="fill:#ffffff;fill-opacity:1;"><g transform="translate(118.823544, 42.870601)"><path style="stroke:none" d="M 19.703125 -24.140625 L 19.703125 -19.109375 L 12.09375 0 L 6 0 L 13.578125 -19.578125 L 1.3125 -19.578125 L 1.3125 -30.3125 L 6.8125 -30.3125 L 6.8125 -24.140625 Z M 19.703125 -24.140625 "/></g></g><g style="fill:#ffffff;fill-opacity:1;"><g transform="translate(139.875285, 42.870601)"><path style="stroke:none" d="M 15.6875 -24.140625 C 17.9375 -24.140625 19.71875 -23.460938 21.03125 -22.109375 C 22.34375 -20.753906 23 -18.710938 23 -15.984375 L 23 0 L 16.875 0 L 16.875 -16.28125 C 16.875 -18.476562 15.925781 -19.578125 14.03125 -19.578125 L 8.375 -19.578125 L 8.375 0 L 2.28125 0 L 2.28125 -24.140625 Z M 15.6875 -24.140625 "/></g></g></g></g></g></svg>