<svg xmlns="http://www.w3.org/2000/svg" xmlns:xlink="http://www.w3.org/1999/xlink" width="669" zoomAndPan="magnify" viewBox="0 0 501.75 79.499998" height="106" preserveAspectRatio="xMidYMid meet" version="1.2"><defs><clipPath id="3c22b05dbb"><path d="M 1.445312 1.21875 L 500 1.21875 L 500 78.773438 L 1.445312 78.773438 Z M 1.445312 1.21875 "/></clipPath><clipPath id="6b024f1a38"><path d="M 11.878906 1.21875 L 489.453125 1.21875 C 495.214844 1.21875 499.886719 5.890625 499.886719 11.65625 L 499.886719 68.339844 C 499.886719 74.101562 495.214844 78.773438 489.453125 78.773438 L 11.878906 78.773438 C 6.117188 78.773438 1.445312 74.101562 1.445312 68.339844 L 1.445312 11.65625 C 1.445312 5.890625 6.117188 1.21875 11.878906 1.21875 Z M 11.878906 1.21875 "/></clipPath><clipPath id="5f2f3b5989"><path d="M 0.445312 0.21875 L 498.910156 0.21875 L 498.910156 77.773438 L 0.445312 77.773438 Z M 0.445312 0.21875 "/></clipPath><clipPath id="18d911036e"><path d="M 10.878906 0.21875 L 488.453125 0.21875 C 494.214844 0.21875 498.886719 4.890625 498.886719 10.65625 L 498.886719 67.339844 C 498.886719 73.101562 494.214844 77.773438 488.453125 77.773438 L 10.878906 77.773438 C 5.117188 77.773438 0.445312 73.101562 0.445312 67.339844 L 0.445312 10.65625 C 0.445312 4.890625 5.117188 0.21875 10.878906 0.21875 Z M 10.878906 0.21875 "/></clipPath><clipPath id="147cd02512"><rect x="0" width="499" y="0" height="78"/></clipPath><clipPath id="c567513926"><path d="M 424.234375 13.558594 L 482.902344 13.558594 L 482.902344 68.371094 L 424.234375 68.371094 Z M 424.234375 13.558594 "/></clipPath><clipPath id="a3b3ba4665"><path d="M 453.542969 13.558594 C 437.359375 13.558594 424.234375 25.828125 424.234375 40.964844 C 424.234375 56.101562 437.359375 68.371094 453.542969 68.371094 C 469.730469 68.371094 482.851562 56.101562 482.851562 40.964844 C 482.851562 25.828125 469.730469 13.558594 453.542969 13.558594 Z M 453.542969 13.558594 "/></clipPath><clipPath id="ffdefbcd5f"><path d="M 0.234375 0.558594 L 58.902344 0.558594 L 58.902344 55.371094 L 0.234375 55.371094 Z M 0.234375 0.558594 "/></clipPath><clipPath id="b5d7954cd2"><path d="M 29.542969 0.558594 C 13.359375 0.558594 0.234375 12.828125 0.234375 27.964844 C 0.234375 43.101562 13.359375 55.371094 29.542969 55.371094 C 45.730469 55.371094 58.851562 43.101562 58.851562 27.964844 C 58.851562 12.828125 45.730469 0.558594 29.542969 0.558594 Z M 29.542969 0.558594 "/></clipPath><clipPath id="0ec4d267bb"><rect x="0" width="59" y="0" height="56"/></clipPath><clipPath id="67aabb82aa"><rect x="0" width="26" y="0" height="61"/></clipPath><clipPath id="663ba4cc13"><rect x="0" width="100" y="0" height="57"/></clipPath></defs><g id="75290a89fb"><g clip-rule="nonzero" clip-path="url(#3c22b05dbb)"><g clip-rule="nonzero" clip-path="url(#6b024f1a38)"><g transform="matrix(1,0,0,1,1,1)"><g clip-path="url(#147cd02512)"><g clip-rule="nonzero" clip-path="url(#5f2f3b5989)"><g clip-rule="nonzero" clip-path="url(#18d911036e)"><path style=" stroke:none;fill-rule:nonzero;fill:#176598;fill-opacity:1;" d="M 0.445312 0.21875 L 498.777344 0.21875 L 498.777344 77.773438 L 0.445312 77.773438 Z M 0.445312 0.21875 "/></g></g></g></g></g></g><g clip-rule="nonzero" clip-path="url(#c567513926)"><g clip-rule="nonzero" clip-path="url(#a3b3ba4665)"><g transform="matrix(1,0,0,1,424,13)"><g clip-path="url(#0ec4d267bb)"><g clip-rule="nonzero" clip-path="url(#ffdefbcd5f)"><g clip-rule="nonzero" clip-path="url(#b5d7954cd2)"><path style=" stroke:none;fill-rule:nonzero;fill:#ffffff;fill-opacity:1;" d="M 0.234375 0.558594 L 58.902344 0.558594 L 58.902344 55.371094 L 0.234375 55.371094 Z M 0.234375 0.558594 "/></g></g></g></g></g></g><g transform="matrix(1,0,0,1,441,8)"><g clip-path="url(#67aabb82aa)"><g style="fill:#052554;fill-opacity:1;"><g transform="translate(0.884957, 46.764419)"><path style="stroke:none" d="M 1.640625 -4.484375 C 4.597656 -7.191406 6.863281 -9.332031 8.4375 -10.90625 C 10.007812 -12.476562 11.296875 -14 12.296875 -15.46875 C 13.304688 -16.945312 13.8125 -18.3125 13.8125 -19.5625 C 13.8125 -20.8125 13.488281 -21.765625 12.84375 -22.421875 C 12.207031 -23.078125 11.335938 -23.40625 10.234375 -23.40625 C 9.378906 -23.40625 8.59375 -23.164062 7.875 -22.6875 C 7.164062 -22.21875 6.367188 -21.546875 5.484375 -20.671875 L 1.28125 -24.875 C 2.832031 -26.519531 4.367188 -27.707031 5.890625 -28.4375 C 7.421875 -29.164062 9.238281 -29.53125 11.34375 -29.53125 C 13.289062 -29.53125 15.019531 -29.132812 16.53125 -28.34375 C 18.039062 -27.550781 19.210938 -26.4375 20.046875 -25 C 20.890625 -23.570312 21.3125 -21.914062 21.3125 -20.03125 C 21.3125 -17.925781 20.539062 -15.726562 19 -13.4375 C 17.457031 -11.15625 15.453125 -8.75 12.984375 -6.21875 C 14.929688 -6.457031 16.546875 -6.578125 17.828125 -6.578125 L 22.671875 -6.578125 L 22.671875 0 L 1.640625 0 Z M 1.640625 -4.484375 "/></g></g></g></g><g transform="matrix(1,0,0,1,306,10)"><g clip-path="url(#663ba4cc13)"><g style="fill:#ffffff;fill-opacity:1;"><g transform="translate(1.439619, 44.39042)"><path style="stroke:none" d="M 1.6875 -24.140625 L 7.828125 -24.140625 L 9.890625 -4.984375 C 12.828125 -5.265625 14.914062 -6.128906 16.15625 -7.578125 C 17.394531 -9.035156 17.984375 -11.101562 17.921875 -13.78125 L 17.921875 -15.09375 C 17.921875 -16.363281 17.578125 -17.441406 16.890625 -18.328125 C 16.203125 -19.210938 15.164062 -19.695312 13.78125 -19.78125 L 11.71875 -19.921875 L 12.171875 -24.609375 L 14.75 -24.484375 C 17.375 -24.335938 19.523438 -23.523438 21.203125 -22.046875 C 22.878906 -20.566406 23.757812 -18.460938 23.84375 -15.734375 L 23.890625 -14.546875 C 24.054688 -9.585938 22.453125 -5.914062 19.078125 -3.53125 C 15.710938 -1.144531 10.863281 0.171875 4.53125 0.421875 Z M 1.6875 -24.140625 "/></g></g><g style="fill:#ffffff;fill-opacity:1;"><g transform="translate(26.4226, 44.39042)"><path style="stroke:none" d="M 19.703125 -24.140625 L 19.703125 -19.109375 L 12.09375 0 L 6 0 L 13.578125 -19.578125 L 1.3125 -19.578125 L 1.3125 -30.3125 L 6.8125 -30.3125 L 6.8125 -24.140625 Z M 19.703125 -24.140625 "/></g></g><g style="fill:#ffffff;fill-opacity:1;"><g transform="translate(47.474248, 44.39042)"><path style="stroke:none" d="M 10.359375 -4.53125 C 12.273438 -4.695312 13.695312 -5.34375 14.625 -6.46875 C 15.5625 -7.59375 16.128906 -9.507812 16.328125 -12.21875 L 16.875 -19.578125 L 2.15625 -19.578125 L 2.15625 -24.140625 L 23.421875 -24.140625 L 23.21875 -20.203125 L 22.75 -13.828125 C 22.300781 -4.660156 18.328125 -0.0351562 10.828125 0.046875 Z M 1.8125 -11.796875 L 2.65625 -14.71875 L 7.953125 -14.71875 L 7.953125 8.453125 L 1.8125 8.453125 Z M 1.8125 -11.796875 "/></g></g><g style="fill:#ffffff;fill-opacity:1;"><g transform="translate(72.414963, 44.39042)"><path style="stroke:none" d="M 25.5 -12.046875 C 25.5 -8.128906 24.585938 -5.050781 22.765625 -2.8125 C 20.953125 -0.570312 18.394531 0.546875 15.09375 0.546875 C 13.90625 0.546875 12.609375 0.378906 11.203125 0.046875 L 11.75 -4.53125 C 12.789062 -4.300781 13.664062 -4.1875 14.375 -4.1875 C 16.289062 -4.1875 17.65625 -4.828125 18.46875 -6.109375 C 19.289062 -7.390625 19.703125 -9.285156 19.703125 -11.796875 C 19.703125 -14.585938 19.3125 -16.609375 18.53125 -17.859375 C 17.757812 -19.117188 16.570312 -19.75 14.96875 -19.75 C 13.84375 -19.75 12.890625 -19.410156 12.109375 -18.734375 C 11.335938 -18.054688 10.851562 -17.140625 10.65625 -15.984375 L 8.03125 0 L 1.9375 0 L 4.859375 -16.28125 L 1.484375 -24.140625 L 7.828125 -24.140625 L 9.515625 -19.328125 C 10.109375 -21.066406 10.992188 -22.363281 12.171875 -23.21875 C 13.359375 -24.082031 14.710938 -24.515625 16.234375 -24.515625 C 19.253906 -24.515625 21.550781 -23.476562 23.125 -21.40625 C 24.707031 -19.34375 25.5 -16.222656 25.5 -12.046875 Z M 25.5 -12.046875 "/></g></g></g></g></g></svg>