<svg xmlns="http://www.w3.org/2000/svg" xmlns:xlink="http://www.w3.org/1999/xlink" width="669" zoomAndPan="magnify" viewBox="0 0 501.75 79.499998" height="106" preserveAspectRatio="xMidYMid meet" version="1.2"><defs><clipPath id="4f2e3bbb09"><path d="M 1.445312 1.21875 L 500 1.21875 L 500 78.773438 L 1.445312 78.773438 Z M 1.445312 1.21875 "/></clipPath><clipPath id="6b359094cf"><path d="M 11.878906 1.21875 L 489.453125 1.21875 C 495.214844 1.21875 499.886719 5.890625 499.886719 11.65625 L 499.886719 68.339844 C 499.886719 74.101562 495.214844 78.773438 489.453125 78.773438 L 11.878906 78.773438 C 6.117188 78.773438 1.445312 74.101562 1.445312 68.339844 L 1.445312 11.65625 C 1.445312 5.890625 6.117188 1.21875 11.878906 1.21875 Z M 11.878906 1.21875 "/></clipPath><clipPath id="34cfca0b56"><path d="M 0.445312 0.21875 L 498.910156 0.21875 L 498.910156 77.773438 L 0.445312 77.773438 Z M 0.445312 0.21875 "/></clipPath><clipPath id="650127ac92"><path d="M 10.878906 0.21875 L 488.453125 0.21875 C 494.214844 0.21875 498.886719 4.890625 498.886719 10.65625 L 498.886719 67.339844 C 498.886719 73.101562 494.214844 77.773438 488.453125 77.773438 L 10.878906 77.773438 C 5.117188 77.773438 0.445312 73.101562 0.445312 67.339844 L 0.445312 10.65625 C 0.445312 4.890625 5.117188 0.21875 10.878906 0.21875 Z M 10.878906 0.21875 "/></clipPath><clipPath id="d55e577e9d"><rect x="0" width="499" y="0" height="78"/></clipPath><clipPath id="3548388935"><path d="M 424.234375 13.558594 L 482.902344 13.558594 L 482.902344 68.371094 L 424.234375 68.371094 Z M 424.234375 13.558594 "/></clipPath><clipPath id="805cab61e0"><path d="M 453.542969 13.558594 C 437.359375 13.558594 424.234375 25.828125 424.234375 40.964844 C 424.234375 56.101562 437.359375 68.371094 453.542969 68.371094 C 469.730469 68.371094 482.851562 56.101562 482.851562 40.964844 C 482.851562 25.828125 469.730469 13.558594 453.542969 13.558594 Z M 453.542969 13.558594 "/></clipPath><clipPath id="2c9aa93e3a"><path d="M 0.234375 0.558594 L 58.902344 0.558594 L 58.902344 55.371094 L 0.234375 55.371094 Z M 0.234375 0.558594 "/></clipPath><clipPath id="162c713a7f"><path d="M 29.542969 0.558594 C 13.359375 0.558594 0.234375 12.828125 0.234375 27.964844 C 0.234375 43.101562 13.359375 55.371094 29.542969 55.371094 C 45.730469 55.371094 58.851562 43.101562 58.851562 27.964844 C 58.851562 12.828125 45.730469 0.558594 29.542969 0.558594 Z M 29.542969 0.558594 "/></clipPath><clipPath id="35c4eb9f00"><rect x="0" width="59" y="0" height="56"/></clipPath><clipPath id="4df073b1ff"><rect x="0" width="25" y="0" height="61"/></clipPath><clipPath id="7b6b485401"><rect x="0" width="357" y="0" height="53"/></clipPath></defs><g id="b63daaab16"><g clip-rule="nonzero" clip-path="url(#4f2e3bbb09)"><g clip-rule="nonzero" clip-path="url(#6b359094cf)"><g transform="matrix(1,0,0,1,1,1)"><g clip-path="url(#d55e577e9d)"><g clip-rule="nonzero" clip-path="url(#34cfca0b56)"><g clip-rule="nonzero" clip-path="url(#650127ac92)"><path style=" stroke:none;fill-rule:nonzero;fill:#176598;fill-opacity:1;" d="M 0.445312 0.21875 L 498.777344 0.21875 L 498.777344 77.773438 L 0.445312 77.773438 Z M 0.445312 0.21875 "/></g></g></g></g></g></g><g clip-rule="nonzero" clip-path="url(#3548388935)"><g clip-rule="nonzero" clip-path="url(#805cab61e0)"><g transform="matrix(1,0,0,1,424,13)"><g clip-path="url(#35c4eb9f00)"><g clip-rule="nonzero" clip-path="url(#2c9aa93e3a)"><g clip-rule="nonzero" clip-path="url(#162c713a7f)"><path style=" stroke:none;fill-rule:nonzero;fill:#ffffff;fill-opacity:1;" d="M 0.234375 0.558594 L 58.902344 0.558594 L 58.902344 55.371094 L 0.234375 55.371094 Z M 0.234375 0.558594 "/></g></g></g></g></g></g><g transform="matrix(1,0,0,1,442,8)"><g clip-path="url(#4df073b1ff)"><g style="fill:#052554;fill-opacity:1;"><g transform="translate(0.983332, 46.764419)"><path style="stroke:none" d="M 1.59375 -6.3125 L 7.8125 -6.3125 L 7.8125 -21.3125 L 2.328125 -21.3125 L 2.328125 -26.15625 C 3.941406 -26.457031 5.328125 -26.828125 6.484375 -27.265625 C 7.648438 -27.710938 8.796875 -28.285156 9.921875 -28.984375 L 15.6875 -28.984375 L 15.6875 -6.3125 L 20.890625 -6.3125 L 20.890625 0 L 1.59375 0 Z M 1.59375 -6.3125 "/></g></g></g></g><g transform="matrix(1,0,0,1,53,11)"><g clip-path="url(#7b6b485401)"><g style="fill:#ffffff;fill-opacity:1;"><g transform="translate(0.772858, 41.18688)"><path style="stroke:none" d="M 23.9375 -11.3125 C 23.9375 -7.632812 23.082031 -4.742188 21.375 -2.640625 C 19.664062 -0.535156 17.265625 0.515625 14.171875 0.515625 C 13.054688 0.515625 11.835938 0.359375 10.515625 0.046875 L 11.03125 -4.25 C 12.007812 -4.03125 12.832031 -3.921875 13.5 -3.921875 C 15.289062 -3.921875 16.570312 -4.523438 17.34375 -5.734375 C 18.113281 -6.941406 18.5 -8.722656 18.5 -11.078125 C 18.5 -13.691406 18.132812 -15.585938 17.40625 -16.765625 C 16.675781 -17.941406 15.554688 -18.53125 14.046875 -18.53125 C 12.992188 -18.53125 12.101562 -18.210938 11.375 -17.578125 C 10.644531 -16.941406 10.1875 -16.082031 10 -15 L 7.546875 0 L 1.828125 0 L 4.5625 -15.28125 L 1.390625 -22.65625 L 7.34375 -22.65625 L 8.921875 -18.140625 C 9.484375 -19.773438 10.316406 -20.992188 11.421875 -21.796875 C 12.535156 -22.609375 13.804688 -23.015625 15.234375 -23.015625 C 18.066406 -23.015625 20.222656 -22.039062 21.703125 -20.09375 C 23.191406 -18.15625 23.9375 -15.226562 23.9375 -11.3125 Z M 23.9375 -11.3125 "/></g></g><g style="fill:#ffffff;fill-opacity:1;"><g transform="translate(26.253057, 41.18688)"><path style="stroke:none" d="M 3.21875 -22.265625 L 3.0625 -27.265625 L 8.53125 -27.265625 L 8.375 -22.265625 L 7.296875 -14.5625 L 4.28125 -14.5625 Z M 12.234375 -22.265625 L 12.078125 -27.265625 L 17.546875 -27.265625 L 17.390625 -22.265625 L 16.3125 -14.5625 L 13.296875 -14.5625 Z M 12.234375 -22.265625 "/></g></g><g style="fill:#ffffff;fill-opacity:1;"><g transform="translate(46.851536, 41.18688)"><path style="stroke:none" d="M 23.9375 -11.3125 C 23.9375 -7.632812 23.082031 -4.742188 21.375 -2.640625 C 19.664062 -0.535156 17.265625 0.515625 14.171875 0.515625 C 13.054688 0.515625 11.835938 0.359375 10.515625 0.046875 L 11.03125 -4.25 C 12.007812 -4.03125 12.832031 -3.921875 13.5 -3.921875 C 15.289062 -3.921875 16.570312 -4.523438 17.34375 -5.734375 C 18.113281 -6.941406 18.5 -8.722656 18.5 -11.078125 C 18.5 -13.691406 18.132812 -15.585938 17.40625 -16.765625 C 16.675781 -17.941406 15.554688 -18.53125 14.046875 -18.53125 C 12.992188 -18.53125 12.101562 -18.210938 11.375 -17.578125 C 10.644531 -16.941406 10.1875 -16.082031 10 -15 L 7.546875 0 L 1.828125 0 L 4.5625 -15.28125 L 1.390625 -22.65625 L 7.34375 -22.65625 L 8.921875 -18.140625 C 9.484375 -19.773438 10.316406 -20.992188 11.421875 -21.796875 C 12.535156 -22.609375 13.804688 -23.015625 15.234375 -23.015625 C 18.066406 -23.015625 20.222656 -22.039062 21.703125 -20.09375 C 23.191406 -18.15625 23.9375 -15.226562 23.9375 -11.3125 Z M 23.9375 -11.3125 "/></g></g><g style="fill:#ffffff;fill-opacity:1;"><g transform="translate(72.331735, 41.18688)"><path style="stroke:none" d="M 23.9375 -11.3125 C 23.9375 -7.632812 23.082031 -4.742188 21.375 -2.640625 C 19.664062 -0.535156 17.265625 0.515625 14.171875 0.515625 C 13.054688 0.515625 11.835938 0.359375 10.515625 0.046875 L 11.03125 -4.25 C 12.007812 -4.03125 12.832031 -3.921875 13.5 -3.921875 C 15.289062 -3.921875 16.570312 -4.523438 17.34375 -5.734375 C 18.113281 -6.941406 18.5 -8.722656 18.5 -11.078125 C 18.5 -13.691406 18.132812 -15.585938 17.40625 -16.765625 C 16.675781 -17.941406 15.554688 -18.53125 14.046875 -18.53125 C 12.992188 -18.53125 12.101562 -18.210938 11.375 -17.578125 C 10.644531 -16.941406 10.1875 -16.082031 10 -15 L 7.546875 0 L 1.828125 0 L 4.5625 -15.28125 L 1.390625 -22.65625 L 7.34375 -22.65625 L 8.921875 -18.140625 C 9.484375 -19.773438 10.316406 -20.992188 11.421875 -21.796875 C 12.535156 -22.609375 13.804688 -23.015625 15.234375 -23.015625 C 18.066406 -23.015625 20.222656 -22.039062 21.703125 -20.09375 C 23.191406 -18.15625 23.9375 -15.226562 23.9375 -11.3125 Z M 23.9375 -11.3125 "/></g></g><g style="fill:#ffffff;fill-opacity:1;"><g transform="translate(97.811933, 41.18688)"><path style="stroke:none" d=""/></g></g><g style="fill:#ffffff;fill-opacity:1;"><g transform="translate(105.749695, 41.18688)"><path style="stroke:none" d="M 2.421875 -18.015625 L 1.9375 -22.65625 L 7.65625 -22.65625 L 8.140625 -18.015625 L 8.140625 0 L 2.421875 0 Z M 2.421875 -18.015625 "/></g></g><g style="fill:#ffffff;fill-opacity:1;"><g transform="translate(116.029093, 41.18688)"><path style="stroke:none" d="M 17.265625 0 L 9.796875 -11.546875 L 6.265625 0 L 0.828125 0 L 5.234375 -13.609375 L 6.46875 -16.671875 L 2.78125 -22.65625 L 8.53125 -22.65625 L 11.703125 -17.5 L 14.5625 -13.171875 L 15.640625 -16.78125 L 17.21875 -22.65625 L 22.65625 -22.65625 L 17.90625 -8.21875 L 23.375 0 Z M 17.265625 0 "/></g></g><g style="fill:#ffffff;fill-opacity:1;"><g transform="translate(140.517073, 41.18688)"><path style="stroke:none" d=""/></g></g><g style="fill:#ffffff;fill-opacity:1;"><g transform="translate(148.454835, 41.18688)"><path style="stroke:none" d="M 9.71875 -4.25 C 11.519531 -4.40625 12.859375 -5.007812 13.734375 -6.0625 C 14.609375 -7.125 15.132812 -8.925781 15.3125 -11.46875 L 15.828125 -18.375 L 2.03125 -18.375 L 2.03125 -22.65625 L 21.984375 -22.65625 L 21.78125 -18.96875 L 21.359375 -12.984375 C 20.929688 -4.378906 17.195312 -0.0351562 10.15625 0.046875 Z M 1.703125 -11.078125 L 2.5 -13.8125 L 7.46875 -13.8125 L 7.46875 7.9375 L 1.703125 7.9375 Z M 1.703125 -11.078125 "/></g></g><g style="fill:#ffffff;fill-opacity:1;"><g transform="translate(171.871219, 41.18688)"><path style="stroke:none" d="M 3.21875 -22.265625 L 3.0625 -27.265625 L 8.53125 -27.265625 L 8.375 -22.265625 L 7.296875 -14.5625 L 4.28125 -14.5625 Z M 12.234375 -22.265625 L 12.078125 -27.265625 L 17.546875 -27.265625 L 17.390625 -22.265625 L 16.3125 -14.5625 L 13.296875 -14.5625 Z M 12.234375 -22.265625 "/></g></g><g style="fill:#ffffff;fill-opacity:1;"><g transform="translate(192.469699, 41.18688)"><path style="stroke:none" d="M 23.9375 -11.3125 C 23.9375 -7.632812 23.082031 -4.742188 21.375 -2.640625 C 19.664062 -0.535156 17.265625 0.515625 14.171875 0.515625 C 13.054688 0.515625 11.835938 0.359375 10.515625 0.046875 L 11.03125 -4.25 C 12.007812 -4.03125 12.832031 -3.921875 13.5 -3.921875 C 15.289062 -3.921875 16.570312 -4.523438 17.34375 -5.734375 C 18.113281 -6.941406 18.5 -8.722656 18.5 -11.078125 C 18.5 -13.691406 18.132812 -15.585938 17.40625 -16.765625 C 16.675781 -17.941406 15.554688 -18.53125 14.046875 -18.53125 C 12.992188 -18.53125 12.101562 -18.210938 11.375 -17.578125 C 10.644531 -16.941406 10.1875 -16.082031 10 -15 L 7.546875 0 L 1.828125 0 L 4.5625 -15.28125 L 1.390625 -22.65625 L 7.34375 -22.65625 L 8.921875 -18.140625 C 9.484375 -19.773438 10.316406 -20.992188 11.421875 -21.796875 C 12.535156 -22.609375 13.804688 -23.015625 15.234375 -23.015625 C 18.066406 -23.015625 20.222656 -22.039062 21.703125 -20.09375 C 23.191406 -18.15625 23.9375 -15.226562 23.9375 -11.3125 Z M 23.9375 -11.3125 "/></g></g><g style="fill:#ffffff;fill-opacity:1;"><g transform="translate(217.949907, 41.18688)"><path style="stroke:none" d="M 23.9375 -11.3125 C 23.9375 -7.632812 23.082031 -4.742188 21.375 -2.640625 C 19.664062 -0.535156 17.265625 0.515625 14.171875 0.515625 C 13.054688 0.515625 11.835938 0.359375 10.515625 0.046875 L 11.03125 -4.25 C 12.007812 -4.03125 12.832031 -3.921875 13.5 -3.921875 C 15.289062 -3.921875 16.570312 -4.523438 17.34375 -5.734375 C 18.113281 -6.941406 18.5 -8.722656 18.5 -11.078125 C 18.5 -13.691406 18.132812 -15.585938 17.40625 -16.765625 C 16.675781 -17.941406 15.554688 -18.53125 14.046875 -18.53125 C 12.992188 -18.53125 12.101562 -18.210938 11.375 -17.578125 C 10.644531 -16.941406 10.1875 -16.082031 10 -15 L 7.546875 0 L 1.828125 0 L 4.5625 -15.28125 L 1.390625 -22.65625 L 7.34375 -22.65625 L 8.921875 -18.140625 C 9.484375 -19.773438 10.316406 -20.992188 11.421875 -21.796875 C 12.535156 -22.609375 13.804688 -23.015625 15.234375 -23.015625 C 18.066406 -23.015625 20.222656 -22.039062 21.703125 -20.09375 C 23.191406 -18.15625 23.9375 -15.226562 23.9375 -11.3125 Z M 23.9375 -11.3125 "/></g></g><g style="fill:#ffffff;fill-opacity:1;"><g transform="translate(243.430095, 41.18688)"><path style="stroke:none" d=""/></g></g><g style="fill:#ffffff;fill-opacity:1;"><g transform="translate(251.367846, 41.18688)"><path style="stroke:none" d="M 5.953125 -6.515625 C 7.171875 -6.515625 8.113281 -6.050781 8.78125 -5.125 C 9.457031 -4.195312 9.796875 -2.898438 9.796875 -1.234375 C 9.796875 0.878906 9.207031 2.703125 8.03125 4.234375 C 6.851562 5.773438 5.164062 6.890625 2.96875 7.578125 L 1.859375 4.640625 C 3.234375 4.160156 4.289062 3.488281 5.03125 2.625 C 5.78125 1.769531 6.15625 0.828125 6.15625 -0.203125 L 5.828125 -0.203125 C 4.898438 -0.203125 4.113281 -0.476562 3.46875 -1.03125 C 2.820312 -1.582031 2.5 -2.347656 2.5 -3.328125 C 2.5 -4.253906 2.828125 -5.015625 3.484375 -5.609375 C 4.148438 -6.210938 4.972656 -6.515625 5.953125 -6.515625 Z M 5.953125 -6.515625 "/></g></g><g style="fill:#ffffff;fill-opacity:1;"><g transform="translate(262.956968, 41.18688)"><path style="stroke:none" d="M 10.4375 -13.734375 C 10.4375 -14.734375 10.535156 -15.632812 10.734375 -16.4375 C 10.929688 -17.25 11.203125 -17.894531 11.546875 -18.375 L 1.390625 -18.375 L 1.390625 -22.65625 L 20 -22.65625 L 20 -18.375 L 16.90625 -18.375 C 16.40625 -17.238281 16.15625 -15.691406 16.15625 -13.734375 L 16.15625 0 L 10.4375 0 Z M 10.4375 -13.734375 "/></g></g><g style="fill:#ffffff;fill-opacity:1;"><g transform="translate(284.468302, 41.18688)"><path style="stroke:none" d="M 3.21875 -22.265625 L 3.0625 -27.265625 L 8.53125 -27.265625 L 8.375 -22.265625 L 7.296875 -14.5625 L 4.28125 -14.5625 Z M 12.234375 -22.265625 L 12.078125 -27.265625 L 17.546875 -27.265625 L 17.390625 -22.265625 L 16.3125 -14.5625 L 13.296875 -14.5625 Z M 12.234375 -22.265625 "/></g></g><g style="fill:#ffffff;fill-opacity:1;"><g transform="translate(305.066782, 41.18688)"><path style="stroke:none" d="M 23.9375 -11.3125 C 23.9375 -7.632812 23.082031 -4.742188 21.375 -2.640625 C 19.664062 -0.535156 17.265625 0.515625 14.171875 0.515625 C 13.054688 0.515625 11.835938 0.359375 10.515625 0.046875 L 11.03125 -4.25 C 12.007812 -4.03125 12.832031 -3.921875 13.5 -3.921875 C 15.289062 -3.921875 16.570312 -4.523438 17.34375 -5.734375 C 18.113281 -6.941406 18.5 -8.722656 18.5 -11.078125 C 18.5 -13.691406 18.132812 -15.585938 17.40625 -16.765625 C 16.675781 -17.941406 15.554688 -18.53125 14.046875 -18.53125 C 12.992188 -18.53125 12.101562 -18.210938 11.375 -17.578125 C 10.644531 -16.941406 10.1875 -16.082031 10 -15 L 7.546875 0 L 1.828125 0 L 4.5625 -15.28125 L 1.390625 -22.65625 L 7.34375 -22.65625 L 8.921875 -18.140625 C 9.484375 -19.773438 10.316406 -20.992188 11.421875 -21.796875 C 12.535156 -22.609375 13.804688 -23.015625 15.234375 -23.015625 C 18.066406 -23.015625 20.222656 -22.039062 21.703125 -20.09375 C 23.191406 -18.15625 23.9375 -15.226562 23.9375 -11.3125 Z M 23.9375 -11.3125 "/></g></g><g style="fill:#ffffff;fill-opacity:1;"><g transform="translate(330.546969, 41.18688)"><path style="stroke:none" d="M 23.9375 -11.3125 C 23.9375 -7.632812 23.082031 -4.742188 21.375 -2.640625 C 19.664062 -0.535156 17.265625 0.515625 14.171875 0.515625 C 13.054688 0.515625 11.835938 0.359375 10.515625 0.046875 L 11.03125 -4.25 C 12.007812 -4.03125 12.832031 -3.921875 13.5 -3.921875 C 15.289062 -3.921875 16.570312 -4.523438 17.34375 -5.734375 C 18.113281 -6.941406 18.5 -8.722656 18.5 -11.078125 C 18.5 -13.691406 18.132812 -15.585938 17.40625 -16.765625 C 16.675781 -17.941406 15.554688 -18.53125 14.046875 -18.53125 C 12.992188 -18.53125 12.101562 -18.210938 11.375 -17.578125 C 10.644531 -16.941406 10.1875 -16.082031 10 -15 L 7.546875 0 L 1.828125 0 L 4.5625 -15.28125 L 1.390625 -22.65625 L 7.34375 -22.65625 L 8.921875 -18.140625 C 9.484375 -19.773438 10.316406 -20.992188 11.421875 -21.796875 C 12.535156 -22.609375 13.804688 -23.015625 15.234375 -23.015625 C 18.066406 -23.015625 20.222656 -22.039062 21.703125 -20.09375 C 23.191406 -18.15625 23.9375 -15.226562 23.9375 -11.3125 Z M 23.9375 -11.3125 "/></g></g></g></g></g></svg>