<svg xmlns="http://www.w3.org/2000/svg" xmlns:xlink="http://www.w3.org/1999/xlink" width="669" zoomAndPan="magnify" viewBox="0 0 501.75 79.499998" height="106" preserveAspectRatio="xMidYMid meet" version="1.2"><defs><clipPath id="0a742a5dbe"><path d="M 1.445312 1.21875 L 500 1.21875 L 500 78.773438 L 1.445312 78.773438 Z M 1.445312 1.21875 "/></clipPath><clipPath id="c226fdfe55"><path d="M 11.878906 1.21875 L 489.453125 1.21875 C 495.214844 1.21875 499.886719 5.890625 499.886719 11.65625 L 499.886719 68.339844 C 499.886719 74.101562 495.214844 78.773438 489.453125 78.773438 L 11.878906 78.773438 C 6.117188 78.773438 1.445312 74.101562 1.445312 68.339844 L 1.445312 11.65625 C 1.445312 5.890625 6.117188 1.21875 11.878906 1.21875 Z M 11.878906 1.21875 "/></clipPath><clipPath id="f62bb0c024"><path d="M 0.445312 0.21875 L 498.910156 0.21875 L 498.910156 77.773438 L 0.445312 77.773438 Z M 0.445312 0.21875 "/></clipPath><clipPath id="944bca30c2"><path d="M 10.878906 0.21875 L 488.453125 0.21875 C 494.214844 0.21875 498.886719 4.890625 498.886719 10.65625 L 498.886719 67.339844 C 498.886719 73.101562 494.214844 77.773438 488.453125 77.773438 L 10.878906 77.773438 C 5.117188 77.773438 0.445312 73.101562 0.445312 67.339844 L 0.445312 10.65625 C 0.445312 4.890625 5.117188 0.21875 10.878906 0.21875 Z M 10.878906 0.21875 "/></clipPath><clipPath id="3e1aaead62"><rect x="0" width="499" y="0" height="78"/></clipPath><clipPath id="afe11fe225"><path d="M 424.234375 13.558594 L 482.902344 13.558594 L 482.902344 68.371094 L 424.234375 68.371094 Z M 424.234375 13.558594 "/></clipPath><clipPath id="443b5ae91f"><path d="M 453.542969 13.558594 C 437.359375 13.558594 424.234375 25.828125 424.234375 40.964844 C 424.234375 56.101562 437.359375 68.371094 453.542969 68.371094 C 469.730469 68.371094 482.851562 56.101562 482.851562 40.964844 C 482.851562 25.828125 469.730469 13.558594 453.542969 13.558594 Z M 453.542969 13.558594 "/></clipPath><clipPath id="d722fa557f"><path d="M 0.234375 0.558594 L 58.902344 0.558594 L 58.902344 55.371094 L 0.234375 55.371094 Z M 0.234375 0.558594 "/></clipPath><clipPath id="bdf9740388"><path d="M 29.542969 0.558594 C 13.359375 0.558594 0.234375 12.828125 0.234375 27.964844 C 0.234375 43.101562 13.359375 55.371094 29.542969 55.371094 C 45.730469 55.371094 58.851562 43.101562 58.851562 27.964844 C 58.851562 12.828125 45.730469 0.558594 29.542969 0.558594 Z M 29.542969 0.558594 "/></clipPath><clipPath id="f8bd4027d5"><rect x="0" width="59" y="0" height="56"/></clipPath><clipPath id="73c566778a"><rect x="0" width="18" y="0" height="61"/></clipPath><clipPath id="a5990a720b"><rect x="0" width="225" y="0" height="53"/></clipPath></defs><g id="cbbfce71c8"><g clip-rule="nonzero" clip-path="url(#0a742a5dbe)"><g clip-rule="nonzero" clip-path="url(#c226fdfe55)"><g transform="matrix(1,0,0,1,1,1)"><g clip-path="url(#3e1aaead62)"><g clip-rule="nonzero" clip-path="url(#f62bb0c024)"><g clip-rule="nonzero" clip-path="url(#944bca30c2)"><path style=" stroke:none;fill-rule:nonzero;fill:#052554;fill-opacity:1;" d="M 0.445312 0.21875 L 498.777344 0.21875 L 498.777344 77.773438 L 0.445312 77.773438 Z M 0.445312 0.21875 "/></g></g></g></g></g></g><g clip-rule="nonzero" clip-path="url(#afe11fe225)"><g clip-rule="nonzero" clip-path="url(#443b5ae91f)"><g transform="matrix(1,0,0,1,424,13)"><g clip-path="url(#f8bd4027d5)"><g clip-rule="nonzero" clip-path="url(#d722fa557f)"><g clip-rule="nonzero" clip-path="url(#bdf9740388)"><path style=" stroke:none;fill-rule:nonzero;fill:#ffffff;fill-opacity:1;" d="M 0.234375 0.558594 L 58.902344 0.558594 L 58.902344 55.371094 L 0.234375 55.371094 Z M 0.234375 0.558594 "/></g></g></g></g></g></g><g transform="matrix(1,0,0,1,445,8)"><g clip-path="url(#73c566778a)"><g style="fill:#052554;fill-opacity:1;"><g transform="translate(0.996306, 46.764419)"><path style="stroke:none" d="M 4.578125 -23.859375 L 4.296875 -30.625 L 12.15625 -30.625 L 11.890625 -23.859375 L 10.796875 -11.15625 L 5.671875 -11.15625 Z M 8.234375 0.546875 C 6.921875 0.546875 5.828125 0.09375 4.953125 -0.8125 C 4.085938 -1.726562 3.65625 -2.859375 3.65625 -4.203125 C 3.65625 -5.546875 4.085938 -6.671875 4.953125 -7.578125 C 5.828125 -8.492188 6.921875 -8.953125 8.234375 -8.953125 C 9.535156 -8.953125 10.617188 -8.492188 11.484375 -7.578125 C 12.359375 -6.671875 12.796875 -5.546875 12.796875 -4.203125 C 12.796875 -2.859375 12.359375 -1.726562 11.484375 -0.8125 C 10.617188 0.09375 9.535156 0.546875 8.234375 0.546875 Z M 8.234375 0.546875 "/></g></g></g></g><g transform="matrix(1,0,0,1,188,11)"><g clip-path="url(#a5990a720b)"><g style="fill:#ffffff;fill-opacity:1;"><g transform="translate(1.412055, 41.113622)"><path style="stroke:none" d="M 14.640625 -22.65625 C 16.753906 -22.65625 18.425781 -22.050781 19.65625 -20.84375 C 20.894531 -19.644531 21.515625 -17.765625 21.515625 -15.203125 L 21.515625 0 L 2.109375 0 L 2.109375 -22.65625 Z M 15.75 -4.28125 L 15.75 -15.484375 C 15.75 -17.410156 14.863281 -18.375 13.09375 -18.375 L 7.8125 -18.375 L 7.8125 -4.28125 Z M 15.75 -4.28125 "/></g></g><g style="fill:#ffffff;fill-opacity:1;"><g transform="translate(24.907815, 41.113622)"><path style="stroke:none" d="M 2.421875 -18.015625 L 1.9375 -22.65625 L 7.65625 -22.65625 L 8.140625 -18.015625 L 8.140625 -11.828125 L 8.09375 -9.328125 L 2.421875 -8.328125 Z M 2.421875 -18.015625 "/></g></g><g style="fill:#ffffff;fill-opacity:1;"><g transform="translate(35.187214, 41.113622)"><path style="stroke:none" d="M 20.359375 -4.28125 L 20.359375 0 L 1.515625 0 L 1.515625 -4.28125 L 11.984375 -4.28125 L 11.984375 -15.484375 C 11.984375 -17.410156 11.082031 -18.375 9.28125 -18.375 L 1.515625 -18.375 L 1.515625 -22.65625 L 10.875 -22.65625 C 12.988281 -22.65625 14.65625 -22.050781 15.875 -20.84375 C 17.09375 -19.644531 17.703125 -17.765625 17.703125 -15.203125 L 17.703125 -4.28125 Z M 20.359375 -4.28125 "/></g></g><g style="fill:#ffffff;fill-opacity:1;"><g transform="translate(56.738219, 41.113622)"><path style="stroke:none" d="M 2.421875 -18.015625 L 1.9375 -22.65625 L 7.65625 -22.65625 L 8.140625 -18.015625 L 8.140625 0 L 2.421875 0 Z M 2.421875 -18.015625 "/></g></g><g style="fill:#ffffff;fill-opacity:1;"><g transform="translate(67.017617, 41.113622)"><path style="stroke:none" d="M 25.40625 -16.03125 C 25.457031 -10.601562 23.878906 -6.507812 20.671875 -3.75 C 17.472656 -0.988281 12.515625 0.390625 5.796875 0.390625 L 4.5625 0.390625 L 1.59375 -22.65625 L 7.03125 -22.65625 L 8.171875 -12.859375 C 9.234375 -13.390625 9.945312 -14.179688 10.3125 -15.234375 C 10.6875 -16.296875 10.859375 -17.882812 10.828125 -20 L 10.828125 -22.625 L 16.265625 -22.625 L 16.265625 -20.125 C 16.210938 -17.207031 15.628906 -14.84375 14.515625 -13.03125 C 13.410156 -11.21875 11.457031 -9.835938 8.65625 -8.890625 L 9.203125 -4.328125 C 12.984375 -4.566406 15.679688 -5.65625 17.296875 -7.59375 C 18.910156 -9.539062 19.707031 -12.25 19.6875 -15.71875 L 19.609375 -22.65625 L 25.359375 -22.65625 Z M 25.40625 -16.03125 "/></g></g><g style="fill:#ffffff;fill-opacity:1;"><g transform="translate(93.926609, 41.113622)"><path style="stroke:none" d="M 14.71875 -22.65625 C 16.84375 -22.65625 18.519531 -22.019531 19.75 -20.75 C 20.976562 -19.476562 21.59375 -17.5625 21.59375 -15 L 21.59375 0 L 15.828125 0 L 15.828125 -15.28125 C 15.828125 -17.34375 14.941406 -18.375 13.171875 -18.375 L 7.859375 -18.375 L 7.859375 0 L 2.140625 0 L 2.140625 -22.65625 Z M 14.71875 -22.65625 "/></g></g><g style="fill:#ffffff;fill-opacity:1;"><g transform="translate(117.541439, 41.113622)"><path style="stroke:none" d=""/></g></g><g style="fill:#ffffff;fill-opacity:1;"><g transform="translate(125.479201, 41.113622)"><path style="stroke:none" d="M 14.640625 -22.65625 C 16.753906 -22.65625 18.425781 -22.050781 19.65625 -20.84375 C 20.894531 -19.644531 21.515625 -17.765625 21.515625 -15.203125 L 21.515625 0 L 2.109375 0 L 2.109375 -22.65625 Z M 15.75 -4.28125 L 15.75 -15.484375 C 15.75 -17.410156 14.863281 -18.375 13.09375 -18.375 L 7.8125 -18.375 L 7.8125 -4.28125 Z M 15.75 -4.28125 "/></g></g><g style="fill:#ffffff;fill-opacity:1;"><g transform="translate(148.974961, 41.113622)"><path style="stroke:none" d="M 2.421875 -18.015625 L 1.9375 -22.65625 L 7.65625 -22.65625 L 8.140625 -18.015625 L 8.140625 -11.828125 L 8.09375 -9.328125 L 2.421875 -8.328125 Z M 2.421875 -18.015625 "/></g></g><g style="fill:#ffffff;fill-opacity:1;"><g transform="translate(159.25436, 41.113622)"><path style="stroke:none" d="M 25.40625 -16.03125 C 25.457031 -10.601562 23.878906 -6.507812 20.671875 -3.75 C 17.472656 -0.988281 12.515625 0.390625 5.796875 0.390625 L 4.5625 0.390625 L 1.59375 -22.65625 L 7.03125 -22.65625 L 8.171875 -12.859375 C 9.234375 -13.390625 9.945312 -14.179688 10.3125 -15.234375 C 10.6875 -16.296875 10.859375 -17.882812 10.828125 -20 L 10.828125 -22.625 L 16.265625 -22.625 L 16.265625 -20.125 C 16.210938 -17.207031 15.628906 -14.84375 14.515625 -13.03125 C 13.410156 -11.21875 11.457031 -9.835938 8.65625 -8.890625 L 9.203125 -4.328125 C 12.984375 -4.566406 15.679688 -5.65625 17.296875 -7.59375 C 18.910156 -9.539062 19.707031 -12.25 19.6875 -15.71875 L 19.609375 -22.65625 L 25.359375 -22.65625 Z M 25.40625 -16.03125 "/></g></g><g style="fill:#ffffff;fill-opacity:1;"><g transform="translate(186.163341, 41.113622)"><path style="stroke:none" d="M 9.765625 0 L 9.046875 -4.25 C 8.304688 -3.050781 7.4375 -2.039062 6.4375 -1.21875 C 5.445312 -0.40625 4.226562 0.25 2.78125 0.75 L 0.671875 -3.765625 C 4.378906 -4.929688 6.894531 -6.785156 8.21875 -9.328125 L 8.21875 -15.796875 C 8.21875 -16.742188 8.070312 -17.414062 7.78125 -17.8125 C 7.488281 -18.21875 7 -18.472656 6.3125 -18.578125 L 3.8125 -18.9375 L 4.53125 -23.140625 L 9.203125 -22.5 C 10.816406 -22.289062 12.007812 -21.6875 12.78125 -20.6875 C 13.550781 -19.695312 13.9375 -18.28125 13.9375 -16.4375 L 13.9375 -8.890625 L 15.203125 0 Z M 9.765625 0 "/></g></g><g style="fill:#ffffff;fill-opacity:1;"><g transform="translate(202.991401, 41.113622)"><path style="stroke:none" d="M 10.4375 -13.734375 C 10.4375 -14.734375 10.535156 -15.632812 10.734375 -16.4375 C 10.929688 -17.25 11.203125 -17.894531 11.546875 -18.375 L 1.390625 -18.375 L 1.390625 -22.65625 L 20 -22.65625 L 20 -18.375 L 16.90625 -18.375 C 16.40625 -17.238281 16.15625 -15.691406 16.15625 -13.734375 L 16.15625 0 L 10.4375 0 Z M 10.4375 -13.734375 "/></g></g></g></g></g></svg>