<svg xmlns="http://www.w3.org/2000/svg" xmlns:xlink="http://www.w3.org/1999/xlink" width="688" zoomAndPan="magnify" viewBox="0 0 516 440.25" height="587" preserveAspectRatio="xMidYMid meet" version="1.2"><defs><clipPath id="bc325493e3"><path d="M 14.710938 7.058594 L 515.488281 7.058594 L 515.488281 81.078125 L 14.710938 81.078125 Z M 14.710938 7.058594 "/></clipPath><clipPath id="10752bf849"><path d="M 25.195312 7.058594 L 504.953125 7.058594 C 510.742188 7.058594 515.4375 11.753906 515.4375 17.542969 L 515.4375 70.59375 C 515.4375 76.382812 510.742188 81.078125 504.953125 81.078125 L 25.195312 81.078125 C 19.40625 81.078125 14.710938 76.382812 14.710938 70.59375 L 14.710938 17.542969 C 14.710938 11.753906 19.40625 7.058594 25.195312 7.058594 Z M 25.195312 7.058594 "/></clipPath><clipPath id="1615b7a656"><path d="M 0.710938 0.0585938 L 501.488281 0.0585938 L 501.488281 74.078125 L 0.710938 74.078125 Z M 0.710938 0.0585938 "/></clipPath><clipPath id="04af890fdf"><path d="M 11.195312 0.0585938 L 490.953125 0.0585938 C 496.742188 0.0585938 501.4375 4.753906 501.4375 10.542969 L 501.4375 63.59375 C 501.4375 69.382812 496.742188 74.078125 490.953125 74.078125 L 11.195312 74.078125 C 5.40625 74.078125 0.710938 69.382812 0.710938 63.59375 L 0.710938 10.542969 C 0.710938 4.753906 5.40625 0.0585938 11.195312 0.0585938 Z M 11.195312 0.0585938 "/></clipPath><clipPath id="9ee515e83e"><rect x="0" width="502" y="0" height="75"/></clipPath><clipPath id="a0e233a4ed"><path d="M 12.613281 1.226562 L 513.53125 1.226562 L 513.53125 79.132812 L 12.613281 79.132812 Z M 12.613281 1.226562 "/></clipPath><clipPath id="6cfc477e42"><path d="M 23.09375 1.226562 L 502.855469 1.226562 C 508.644531 1.226562 513.335938 5.917969 513.335938 11.707031 L 513.335938 68.652344 C 513.335938 74.441406 508.644531 79.132812 502.855469 79.132812 L 23.09375 79.132812 C 17.304688 79.132812 12.613281 74.441406 12.613281 68.652344 L 12.613281 11.707031 C 12.613281 5.917969 17.304688 1.226562 23.09375 1.226562 Z M 23.09375 1.226562 "/></clipPath><clipPath id="858e2111e8"><path d="M 0.613281 0.226562 L 501.40625 0.226562 L 501.40625 78.132812 L 0.613281 78.132812 Z M 0.613281 0.226562 "/></clipPath><clipPath id="37326e18e6"><path d="M 11.09375 0.226562 L 490.855469 0.226562 C 496.644531 0.226562 501.335938 4.917969 501.335938 10.707031 L 501.335938 67.652344 C 501.335938 73.441406 496.644531 78.132812 490.855469 78.132812 L 11.09375 78.132812 C 5.304688 78.132812 0.613281 73.441406 0.613281 67.652344 L 0.613281 10.707031 C 0.613281 4.917969 5.304688 0.226562 11.09375 0.226562 Z M 11.09375 0.226562 "/></clipPath><clipPath id="cf3e455f83"><rect x="0" width="502" y="0" height="79"/></clipPath><clipPath id="85a080046e"><path d="M 437.339844 13.621094 L 496.277344 13.621094 L 496.277344 68.683594 L 437.339844 68.683594 Z M 437.339844 13.621094 "/></clipPath><clipPath id="cb348a1e6b"><path d="M 466.78125 13.621094 C 450.523438 13.621094 437.339844 25.945312 437.339844 41.152344 C 437.339844 56.355469 450.523438 68.683594 466.78125 68.683594 C 483.042969 68.683594 496.226562 56.355469 496.226562 41.152344 C 496.226562 25.945312 483.042969 13.621094 466.78125 13.621094 Z M 466.78125 13.621094 "/></clipPath><clipPath id="6e169745aa"><path d="M 0.339844 0.621094 L 59.277344 0.621094 L 59.277344 55.683594 L 0.339844 55.683594 Z M 0.339844 0.621094 "/></clipPath><clipPath id="02dc1aec08"><path d="M 29.78125 0.621094 C 13.523438 0.621094 0.339844 12.945312 0.339844 28.152344 C 0.339844 43.355469 13.523438 55.683594 29.78125 55.683594 C 46.042969 55.683594 59.226562 43.355469 59.226562 28.152344 C 59.226562 12.945312 46.042969 0.621094 29.78125 0.621094 Z M 29.78125 0.621094 "/></clipPath><clipPath id="140f740864"><rect x="0" width="60" y="0" height="56"/></clipPath><clipPath id="3e8f58ebd8"><rect x="0" width="25" y="0" height="61"/></clipPath><clipPath id="1c81472cb7"><rect x="0" width="358" y="0" height="53"/></clipPath><clipPath id="5a471eec6b"><path d="M 14.710938 96.121094 L 515.488281 96.121094 L 515.488281 170.140625 L 14.710938 170.140625 Z M 14.710938 96.121094 "/></clipPath><clipPath id="6145d172d5"><path d="M 25.195312 96.121094 L 504.953125 96.121094 C 510.742188 96.121094 515.4375 100.8125 515.4375 106.605469 L 515.4375 159.65625 C 515.4375 165.445312 510.742188 170.140625 504.953125 170.140625 L 25.195312 170.140625 C 19.40625 170.140625 14.710938 165.445312 14.710938 159.65625 L 14.710938 106.605469 C 14.710938 100.8125 19.40625 96.121094 25.195312 96.121094 Z M 25.195312 96.121094 "/></clipPath><clipPath id="3c601b0b11"><path d="M 0.710938 0.121094 L 501.488281 0.121094 L 501.488281 74.140625 L 0.710938 74.140625 Z M 0.710938 0.121094 "/></clipPath><clipPath id="19302a49c2"><path d="M 11.195312 0.121094 L 490.953125 0.121094 C 496.742188 0.121094 501.4375 4.8125 501.4375 10.605469 L 501.4375 63.65625 C 501.4375 69.445312 496.742188 74.140625 490.953125 74.140625 L 11.195312 74.140625 C 5.40625 74.140625 0.710938 69.445312 0.710938 63.65625 L 0.710938 10.605469 C 0.710938 4.8125 5.40625 0.121094 11.195312 0.121094 Z M 11.195312 0.121094 "/></clipPath><clipPath id="9f2b95f9ed"><rect x="0" width="502" y="0" height="75"/></clipPath><clipPath id="e1c8e430cb"><path d="M 12.613281 90.289062 L 513.53125 90.289062 L 513.53125 168.195312 L 12.613281 168.195312 Z M 12.613281 90.289062 "/></clipPath><clipPath id="3af087f970"><path d="M 23.09375 90.289062 L 502.855469 90.289062 C 508.644531 90.289062 513.335938 94.980469 513.335938 100.769531 L 513.335938 157.714844 C 513.335938 163.503906 508.644531 168.195312 502.855469 168.195312 L 23.09375 168.195312 C 17.304688 168.195312 12.613281 163.503906 12.613281 157.714844 L 12.613281 100.769531 C 12.613281 94.980469 17.304688 90.289062 23.09375 90.289062 Z M 23.09375 90.289062 "/></clipPath><clipPath id="d4c63c84d4"><path d="M 0.613281 0.289062 L 501.40625 0.289062 L 501.40625 78.195312 L 0.613281 78.195312 Z M 0.613281 0.289062 "/></clipPath><clipPath id="002684c967"><path d="M 11.09375 0.289062 L 490.855469 0.289062 C 496.644531 0.289062 501.335938 4.980469 501.335938 10.769531 L 501.335938 67.714844 C 501.335938 73.503906 496.644531 78.195312 490.855469 78.195312 L 11.09375 78.195312 C 5.304688 78.195312 0.613281 73.503906 0.613281 67.714844 L 0.613281 10.769531 C 0.613281 4.980469 5.304688 0.289062 11.09375 0.289062 Z M 11.09375 0.289062 "/></clipPath><clipPath id="3227c9b3f8"><rect x="0" width="502" y="0" height="79"/></clipPath><clipPath id="a97ad41dbe"><path d="M 437.339844 102.679688 L 496.277344 102.679688 L 496.277344 157.746094 L 437.339844 157.746094 Z M 437.339844 102.679688 "/></clipPath><clipPath id="b108d0816e"><path d="M 466.78125 102.679688 C 450.523438 102.679688 437.339844 115.007812 437.339844 130.214844 C 437.339844 145.417969 450.523438 157.746094 466.78125 157.746094 C 483.042969 157.746094 496.226562 145.417969 496.226562 130.214844 C 496.226562 115.007812 483.042969 102.679688 466.78125 102.679688 Z M 466.78125 102.679688 "/></clipPath><clipPath id="055685ed09"><path d="M 0.339844 0.679688 L 59.277344 0.679688 L 59.277344 55.746094 L 0.339844 55.746094 Z M 0.339844 0.679688 "/></clipPath><clipPath id="4ee821e83d"><path d="M 29.78125 0.679688 C 13.523438 0.679688 0.339844 13.007812 0.339844 28.214844 C 0.339844 43.417969 13.523438 55.746094 29.78125 55.746094 C 46.042969 55.746094 59.226562 43.417969 59.226562 28.214844 C 59.226562 13.007812 46.042969 0.679688 29.78125 0.679688 Z M 29.78125 0.679688 "/></clipPath><clipPath id="0da2ca65d5"><rect x="0" width="60" y="0" height="56"/></clipPath><clipPath id="7a950c222e"><rect x="0" width="27" y="0" height="61"/></clipPath><clipPath id="5315aa2970"><rect x="0" width="100" y="0" height="57"/></clipPath><clipPath id="e8d450fdc4"><path d="M 14.710938 185.671875 L 515.488281 185.671875 L 515.488281 259.691406 L 14.710938 259.691406 Z M 14.710938 185.671875 "/></clipPath><clipPath id="3903738270"><path d="M 25.195312 185.671875 L 504.953125 185.671875 C 510.742188 185.671875 515.4375 190.367188 515.4375 196.15625 L 515.4375 249.207031 C 515.4375 254.996094 510.742188 259.691406 504.953125 259.691406 L 25.195312 259.691406 C 19.40625 259.691406 14.710938 254.996094 14.710938 249.207031 L 14.710938 196.15625 C 14.710938 190.367188 19.40625 185.671875 25.195312 185.671875 Z M 25.195312 185.671875 "/></clipPath><clipPath id="170f5ab44e"><path d="M 0.710938 0.671875 L 501.488281 0.671875 L 501.488281 74.691406 L 0.710938 74.691406 Z M 0.710938 0.671875 "/></clipPath><clipPath id="4c5e390e85"><path d="M 11.195312 0.671875 L 490.953125 0.671875 C 496.742188 0.671875 501.4375 5.367188 501.4375 11.15625 L 501.4375 64.207031 C 501.4375 69.996094 496.742188 74.691406 490.953125 74.691406 L 11.195312 74.691406 C 5.40625 74.691406 0.710938 69.996094 0.710938 64.207031 L 0.710938 11.15625 C 0.710938 5.367188 5.40625 0.671875 11.195312 0.671875 Z M 11.195312 0.671875 "/></clipPath><clipPath id="c155cb239d"><rect x="0" width="502" y="0" height="75"/></clipPath><clipPath id="dd605afc55"><path d="M 12.613281 179.839844 L 513.53125 179.839844 L 513.53125 257.746094 L 12.613281 257.746094 Z M 12.613281 179.839844 "/></clipPath><clipPath id="0cd74c5805"><path d="M 23.09375 179.839844 L 502.855469 179.839844 C 508.644531 179.839844 513.335938 184.53125 513.335938 190.320312 L 513.335938 247.265625 C 513.335938 253.054688 508.644531 257.746094 502.855469 257.746094 L 23.09375 257.746094 C 17.304688 257.746094 12.613281 253.054688 12.613281 247.265625 L 12.613281 190.320312 C 12.613281 184.53125 17.304688 179.839844 23.09375 179.839844 Z M 23.09375 179.839844 "/></clipPath><clipPath id="469224fd5c"><path d="M 0.613281 0.839844 L 501.40625 0.839844 L 501.40625 78.746094 L 0.613281 78.746094 Z M 0.613281 0.839844 "/></clipPath><clipPath id="0b7223f696"><path d="M 11.09375 0.839844 L 490.855469 0.839844 C 496.644531 0.839844 501.335938 5.53125 501.335938 11.320312 L 501.335938 68.265625 C 501.335938 74.054688 496.644531 78.746094 490.855469 78.746094 L 11.09375 78.746094 C 5.304688 78.746094 0.613281 74.054688 0.613281 68.265625 L 0.613281 11.320312 C 0.613281 5.53125 5.304688 0.839844 11.09375 0.839844 Z M 11.09375 0.839844 "/></clipPath><clipPath id="b2868057d5"><rect x="0" width="502" y="0" height="79"/></clipPath><clipPath id="31aa58f2f4"><path d="M 437.339844 192.234375 L 496.277344 192.234375 L 496.277344 247.296875 L 437.339844 247.296875 Z M 437.339844 192.234375 "/></clipPath><clipPath id="541efa1665"><path d="M 466.78125 192.234375 C 450.523438 192.234375 437.339844 204.558594 437.339844 219.765625 C 437.339844 234.972656 450.523438 247.296875 466.78125 247.296875 C 483.042969 247.296875 496.226562 234.972656 496.226562 219.765625 C 496.226562 204.558594 483.042969 192.234375 466.78125 192.234375 Z M 466.78125 192.234375 "/></clipPath><clipPath id="c9700cb7a8"><path d="M 0.339844 0.234375 L 59.277344 0.234375 L 59.277344 55.296875 L 0.339844 55.296875 Z M 0.339844 0.234375 "/></clipPath><clipPath id="a5643abb1b"><path d="M 29.78125 0.234375 C 13.523438 0.234375 0.339844 12.558594 0.339844 27.765625 C 0.339844 42.972656 13.523438 55.296875 29.78125 55.296875 C 46.042969 55.296875 59.226562 42.972656 59.226562 27.765625 C 59.226562 12.558594 46.042969 0.234375 29.78125 0.234375 Z M 29.78125 0.234375 "/></clipPath><clipPath id="2585e0337e"><rect x="0" width="60" y="0" height="56"/></clipPath><clipPath id="5cbaccc9f0"><rect x="0" width="27" y="0" height="61"/></clipPath><clipPath id="9046231869"><rect x="0" width="304" y="0" height="57"/></clipPath><clipPath id="7246940b39"><path d="M 13.328125 275.5 L 514.101562 275.5 L 514.101562 349.519531 L 13.328125 349.519531 Z M 13.328125 275.5 "/></clipPath><clipPath id="edf4437929"><path d="M 23.808594 275.5 L 503.570312 275.5 C 509.359375 275.5 514.050781 280.191406 514.050781 285.980469 L 514.050781 339.035156 C 514.050781 344.824219 509.359375 349.519531 503.570312 349.519531 L 23.808594 349.519531 C 18.019531 349.519531 13.328125 344.824219 13.328125 339.035156 L 13.328125 285.980469 C 13.328125 280.191406 18.019531 275.5 23.808594 275.5 Z M 23.808594 275.5 "/></clipPath><clipPath id="3735837973"><path d="M 0.328125 0.5 L 501.101562 0.5 L 501.101562 74.519531 L 0.328125 74.519531 Z M 0.328125 0.5 "/></clipPath><clipPath id="2352cdd629"><path d="M 10.808594 0.5 L 490.570312 0.5 C 496.359375 0.5 501.050781 5.191406 501.050781 10.980469 L 501.050781 64.035156 C 501.050781 69.824219 496.359375 74.519531 490.570312 74.519531 L 10.808594 74.519531 C 5.019531 74.519531 0.328125 69.824219 0.328125 64.035156 L 0.328125 10.980469 C 0.328125 5.191406 5.019531 0.5 10.808594 0.5 Z M 10.808594 0.5 "/></clipPath><clipPath id="19094fa51d"><rect x="0" width="502" y="0" height="75"/></clipPath><clipPath id="a092516d14"><path d="M 11.226562 269.667969 L 512 269.667969 L 512 347.574219 L 11.226562 347.574219 Z M 11.226562 269.667969 "/></clipPath><clipPath id="e7f0c81a51"><path d="M 21.707031 269.667969 L 501.46875 269.667969 C 507.257812 269.667969 511.953125 274.359375 511.953125 280.148438 L 511.953125 337.09375 C 511.953125 342.882812 507.257812 347.574219 501.46875 347.574219 L 21.707031 347.574219 C 15.917969 347.574219 11.226562 342.882812 11.226562 337.09375 L 11.226562 280.148438 C 11.226562 274.359375 15.917969 269.667969 21.707031 269.667969 Z M 21.707031 269.667969 "/></clipPath><clipPath id="fb2269b067"><path d="M 0.226562 0.667969 L 500.96875 0.667969 L 500.96875 78.574219 L 0.226562 78.574219 Z M 0.226562 0.667969 "/></clipPath><clipPath id="3731d91a55"><path d="M 10.707031 0.667969 L 490.46875 0.667969 C 496.257812 0.667969 500.953125 5.359375 500.953125 11.148438 L 500.953125 68.09375 C 500.953125 73.882812 496.257812 78.574219 490.46875 78.574219 L 10.707031 78.574219 C 4.917969 78.574219 0.226562 73.882812 0.226562 68.09375 L 0.226562 11.148438 C 0.226562 5.359375 4.917969 0.667969 10.707031 0.667969 Z M 10.707031 0.667969 "/></clipPath><clipPath id="c3fac967f5"><rect x="0" width="501" y="0" height="79"/></clipPath><clipPath id="483a22f0fa"><path d="M 435.953125 282.058594 L 494.890625 282.058594 L 494.890625 337.125 L 435.953125 337.125 Z M 435.953125 282.058594 "/></clipPath><clipPath id="54ca7de663"><path d="M 465.398438 282.058594 C 449.136719 282.058594 435.953125 294.386719 435.953125 309.59375 C 435.953125 324.796875 449.136719 337.125 465.398438 337.125 C 481.65625 337.125 494.839844 324.796875 494.839844 309.59375 C 494.839844 294.386719 481.65625 282.058594 465.398438 282.058594 Z M 465.398438 282.058594 "/></clipPath><clipPath id="b30af8fc9e"><path d="M 0.953125 0.0585938 L 59.890625 0.0585938 L 59.890625 55.125 L 0.953125 55.125 Z M 0.953125 0.0585938 "/></clipPath><clipPath id="21199c8715"><path d="M 30.398438 0.0585938 C 14.136719 0.0585938 0.953125 12.386719 0.953125 27.59375 C 0.953125 42.796875 14.136719 55.125 30.398438 55.125 C 46.65625 55.125 59.839844 42.796875 59.839844 27.59375 C 59.839844 12.386719 46.65625 0.0585938 30.398438 0.0585938 Z M 30.398438 0.0585938 "/></clipPath><clipPath id="e03fd49058"><rect x="0" width="60" y="0" height="56"/></clipPath><clipPath id="c8e4bd2c19"><rect x="0" width="26" y="0" height="61"/></clipPath><clipPath id="5850853a31"><rect x="0" width="168" y="0" height="57"/></clipPath><clipPath id="dca167406f"><path d="M 11.226562 365.371094 L 512 365.371094 L 512 439.390625 L 11.226562 439.390625 Z M 11.226562 365.371094 "/></clipPath><clipPath id="b668e62b9c"><path d="M 21.707031 365.371094 L 501.46875 365.371094 C 507.257812 365.371094 511.953125 370.0625 511.953125 375.851562 L 511.953125 428.90625 C 511.953125 434.695312 507.257812 439.390625 501.46875 439.390625 L 21.707031 439.390625 C 15.917969 439.390625 11.226562 434.695312 11.226562 428.90625 L 11.226562 375.851562 C 11.226562 370.0625 15.917969 365.371094 21.707031 365.371094 Z M 21.707031 365.371094 "/></clipPath><clipPath id="ce91fa278c"><path d="M 0.226562 0.371094 L 500.96875 0.371094 L 500.96875 74.390625 L 0.226562 74.390625 Z M 0.226562 0.371094 "/></clipPath><clipPath id="e7341c0a83"><path d="M 10.707031 0.371094 L 490.46875 0.371094 C 496.257812 0.371094 500.953125 5.0625 500.953125 10.851562 L 500.953125 63.90625 C 500.953125 69.695312 496.257812 74.390625 490.46875 74.390625 L 10.707031 74.390625 C 4.917969 74.390625 0.226562 69.695312 0.226562 63.90625 L 0.226562 10.851562 C 0.226562 5.0625 4.917969 0.371094 10.707031 0.371094 Z M 10.707031 0.371094 "/></clipPath><clipPath id="e0fc57db82"><rect x="0" width="501" y="0" height="75"/></clipPath><clipPath id="f7a944b52b"><path d="M 9.125 359.539062 L 510 359.539062 L 510 437.445312 L 9.125 437.445312 Z M 9.125 359.539062 "/></clipPath><clipPath id="e926f64435"><path d="M 19.609375 359.539062 L 499.371094 359.539062 C 505.160156 359.539062 509.851562 364.230469 509.851562 370.019531 L 509.851562 426.964844 C 509.851562 432.753906 505.160156 437.445312 499.371094 437.445312 L 19.609375 437.445312 C 13.820312 437.445312 9.125 432.753906 9.125 426.964844 L 9.125 370.019531 C 9.125 364.230469 13.820312 359.539062 19.609375 359.539062 Z M 19.609375 359.539062 "/></clipPath><clipPath id="fefce6f9f3"><path d="M 0.125 0.539062 L 501 0.539062 L 501 78.445312 L 0.125 78.445312 Z M 0.125 0.539062 "/></clipPath><clipPath id="59108b6892"><path d="M 10.609375 0.539062 L 490.371094 0.539062 C 496.160156 0.539062 500.851562 5.230469 500.851562 11.019531 L 500.851562 67.964844 C 500.851562 73.753906 496.160156 78.445312 490.371094 78.445312 L 10.609375 78.445312 C 4.820312 78.445312 0.125 73.753906 0.125 67.964844 L 0.125 11.019531 C 0.125 5.230469 4.820312 0.539062 10.609375 0.539062 Z M 10.609375 0.539062 "/></clipPath><clipPath id="3a487d45eb"><rect x="0" width="501" y="0" height="79"/></clipPath><clipPath id="01ea7f00b5"><path d="M 433.855469 371.929688 L 492.792969 371.929688 L 492.792969 426.996094 L 433.855469 426.996094 Z M 433.855469 371.929688 "/></clipPath><clipPath id="67cf1ba66b"><path d="M 463.296875 371.929688 C 447.035156 371.929688 433.855469 384.257812 433.855469 399.464844 C 433.855469 414.667969 447.035156 426.996094 463.296875 426.996094 C 479.558594 426.996094 492.738281 414.667969 492.738281 399.464844 C 492.738281 384.257812 479.558594 371.929688 463.296875 371.929688 Z M 463.296875 371.929688 "/></clipPath><clipPath id="027390700c"><path d="M 0.855469 0.929688 L 59.792969 0.929688 L 59.792969 55.996094 L 0.855469 55.996094 Z M 0.855469 0.929688 "/></clipPath><clipPath id="6d3686edae"><path d="M 30.296875 0.929688 C 14.035156 0.929688 0.855469 13.257812 0.855469 28.464844 C 0.855469 43.667969 14.035156 55.996094 30.296875 55.996094 C 46.558594 55.996094 59.738281 43.667969 59.738281 28.464844 C 59.738281 13.257812 46.558594 0.929688 30.296875 0.929688 Z M 30.296875 0.929688 "/></clipPath><clipPath id="451a788e3f"><rect x="0" width="60" y="0" height="56"/></clipPath><clipPath id="41fee9f58d"><rect x="0" width="19" y="0" height="60"/></clipPath><clipPath id="8923f892a1"><rect x="0" width="226" y="0" height="54"/></clipPath></defs><g id="19c85f9ca2"><g clip-rule="nonzero" clip-path="url(#bc325493e3)"><g clip-rule="nonzero" clip-path="url(#10752bf849)"><g transform="matrix(1,0,0,1,14,7)"><g clip-path="url(#9ee515e83e)"><g clip-rule="nonzero" clip-path="url(#1615b7a656)"><g clip-rule="nonzero" clip-path="url(#04af890fdf)"><path style=" stroke:none;fill-rule:nonzero;fill:#8c8c8c;fill-opacity:1;" d="M 0.710938 0.0585938 L 501.488281 0.0585938 L 501.488281 74.078125 L 0.710938 74.078125 Z M 0.710938 0.0585938 "/></g></g></g></g></g></g><g clip-rule="nonzero" clip-path="url(#a0e233a4ed)"><g clip-rule="nonzero" clip-path="url(#6cfc477e42)"><g transform="matrix(1,0,0,1,12,1)"><g clip-path="url(#cf3e455f83)"><g clip-rule="nonzero" clip-path="url(#858e2111e8)"><g clip-rule="nonzero" clip-path="url(#37326e18e6)"><path style=" stroke:none;fill-rule:nonzero;fill:#176598;fill-opacity:1;" d="M 0.613281 0.226562 L 501.226562 0.226562 L 501.226562 78.132812 L 0.613281 78.132812 Z M 0.613281 0.226562 "/></g></g></g></g></g></g><g clip-rule="nonzero" clip-path="url(#85a080046e)"><g clip-rule="nonzero" clip-path="url(#cb348a1e6b)"><g transform="matrix(1,0,0,1,437,13)"><g clip-path="url(#140f740864)"><g clip-rule="nonzero" clip-path="url(#6e169745aa)"><g clip-rule="nonzero" clip-path="url(#02dc1aec08)"><path style=" stroke:none;fill-rule:nonzero;fill:#ffffff;fill-opacity:1;" d="M 0.339844 0.621094 L 59.277344 0.621094 L 59.277344 55.683594 L 0.339844 55.683594 Z M 0.339844 0.621094 "/></g></g></g></g></g></g><g transform="matrix(1,0,0,1,455,8)"><g clip-path="url(#3e8f58ebd8)"><g style="fill:#052554;fill-opacity:1;"><g transform="translate(1.173143, 47.015138)"><path style="stroke:none" d="M 1.609375 -6.34375 L 7.859375 -6.34375 L 7.859375 -21.40625 L 2.34375 -21.40625 L 2.34375 -26.265625 C 3.96875 -26.566406 5.359375 -26.941406 6.515625 -27.390625 C 7.679688 -27.835938 8.832031 -28.410156 9.96875 -29.109375 L 15.75 -29.109375 L 15.75 -6.34375 L 20.984375 -6.34375 L 20.984375 0 L 1.609375 0 Z M 1.609375 -6.34375 "/></g></g></g></g><g transform="matrix(1,0,0,1,65,11)"><g clip-path="url(#1c81472cb7)"><g style="fill:#ffffff;fill-opacity:1;"><g transform="translate(0.180906, 41.425799)"><path style="stroke:none" d="M 24.046875 -11.359375 C 24.046875 -7.671875 23.1875 -4.769531 21.46875 -2.65625 C 19.757812 -0.539062 17.347656 0.515625 14.234375 0.515625 C 13.117188 0.515625 11.894531 0.359375 10.5625 0.046875 L 11.078125 -4.265625 C 12.066406 -4.054688 12.894531 -3.953125 13.5625 -3.953125 C 15.363281 -3.953125 16.648438 -4.554688 17.421875 -5.765625 C 18.191406 -6.972656 18.578125 -8.757812 18.578125 -11.125 C 18.578125 -13.757812 18.210938 -15.664062 17.484375 -16.84375 C 16.753906 -18.03125 15.628906 -18.625 14.109375 -18.625 C 13.046875 -18.625 12.148438 -18.300781 11.421875 -17.65625 C 10.691406 -17.019531 10.234375 -16.160156 10.046875 -15.078125 L 7.578125 0 L 1.828125 0 L 4.578125 -15.359375 L 1.390625 -22.765625 L 7.375 -22.765625 L 8.96875 -18.21875 C 9.53125 -19.863281 10.367188 -21.09375 11.484375 -21.90625 C 12.597656 -22.71875 13.875 -23.125 15.3125 -23.125 C 18.15625 -23.125 20.320312 -22.144531 21.8125 -20.1875 C 23.300781 -18.238281 24.046875 -15.296875 24.046875 -11.359375 Z M 24.046875 -11.359375 "/></g></g><g style="fill:#ffffff;fill-opacity:1;"><g transform="translate(25.777751, 41.425799)"><path style="stroke:none" d="M 3.234375 -22.375 L 3.078125 -27.390625 L 8.578125 -27.390625 L 8.40625 -22.375 L 7.34375 -14.640625 L 4.3125 -14.640625 Z M 12.28125 -22.375 L 12.125 -27.390625 L 17.625 -27.390625 L 17.453125 -22.375 L 16.390625 -14.640625 L 13.359375 -14.640625 Z M 12.28125 -22.375 "/></g></g><g style="fill:#ffffff;fill-opacity:1;"><g transform="translate(46.47053, 41.425799)"><path style="stroke:none" d="M 24.046875 -11.359375 C 24.046875 -7.671875 23.1875 -4.769531 21.46875 -2.65625 C 19.757812 -0.539062 17.347656 0.515625 14.234375 0.515625 C 13.117188 0.515625 11.894531 0.359375 10.5625 0.046875 L 11.078125 -4.265625 C 12.066406 -4.054688 12.894531 -3.953125 13.5625 -3.953125 C 15.363281 -3.953125 16.648438 -4.554688 17.421875 -5.765625 C 18.191406 -6.972656 18.578125 -8.757812 18.578125 -11.125 C 18.578125 -13.757812 18.210938 -15.664062 17.484375 -16.84375 C 16.753906 -18.03125 15.628906 -18.625 14.109375 -18.625 C 13.046875 -18.625 12.148438 -18.300781 11.421875 -17.65625 C 10.691406 -17.019531 10.234375 -16.160156 10.046875 -15.078125 L 7.578125 0 L 1.828125 0 L 4.578125 -15.359375 L 1.390625 -22.765625 L 7.375 -22.765625 L 8.96875 -18.21875 C 9.53125 -19.863281 10.367188 -21.09375 11.484375 -21.90625 C 12.597656 -22.71875 13.875 -23.125 15.3125 -23.125 C 18.15625 -23.125 20.320312 -22.144531 21.8125 -20.1875 C 23.300781 -18.238281 24.046875 -15.296875 24.046875 -11.359375 Z M 24.046875 -11.359375 "/></g></g><g style="fill:#ffffff;fill-opacity:1;"><g transform="translate(72.067376, 41.425799)"><path style="stroke:none" d="M 24.046875 -11.359375 C 24.046875 -7.671875 23.1875 -4.769531 21.46875 -2.65625 C 19.757812 -0.539062 17.347656 0.515625 14.234375 0.515625 C 13.117188 0.515625 11.894531 0.359375 10.5625 0.046875 L 11.078125 -4.265625 C 12.066406 -4.054688 12.894531 -3.953125 13.5625 -3.953125 C 15.363281 -3.953125 16.648438 -4.554688 17.421875 -5.765625 C 18.191406 -6.972656 18.578125 -8.757812 18.578125 -11.125 C 18.578125 -13.757812 18.210938 -15.664062 17.484375 -16.84375 C 16.753906 -18.03125 15.628906 -18.625 14.109375 -18.625 C 13.046875 -18.625 12.148438 -18.300781 11.421875 -17.65625 C 10.691406 -17.019531 10.234375 -16.160156 10.046875 -15.078125 L 7.578125 0 L 1.828125 0 L 4.578125 -15.359375 L 1.390625 -22.765625 L 7.375 -22.765625 L 8.96875 -18.21875 C 9.53125 -19.863281 10.367188 -21.09375 11.484375 -21.90625 C 12.597656 -22.71875 13.875 -23.125 15.3125 -23.125 C 18.15625 -23.125 20.320312 -22.144531 21.8125 -20.1875 C 23.300781 -18.238281 24.046875 -15.296875 24.046875 -11.359375 Z M 24.046875 -11.359375 "/></g></g><g style="fill:#ffffff;fill-opacity:1;"><g transform="translate(97.664221, 41.425799)"><path style="stroke:none" d=""/></g></g><g style="fill:#ffffff;fill-opacity:1;"><g transform="translate(105.638322, 41.425799)"><path style="stroke:none" d="M 2.4375 -18.109375 L 1.953125 -22.765625 L 7.703125 -22.765625 L 8.171875 -18.109375 L 8.171875 0 L 2.4375 0 Z M 2.4375 -18.109375 "/></g></g><g style="fill:#ffffff;fill-opacity:1;"><g transform="translate(115.96478, 41.425799)"><path style="stroke:none" d="M 17.34375 0 L 9.84375 -11.609375 L 6.296875 0 L 0.84375 0 L 5.265625 -13.671875 L 6.5 -16.75 L 2.796875 -22.765625 L 8.578125 -22.765625 L 11.765625 -17.578125 L 14.640625 -13.234375 L 15.703125 -16.859375 L 17.3125 -22.765625 L 22.765625 -22.765625 L 17.984375 -8.25 L 23.484375 0 Z M 17.34375 0 "/></g></g><g style="fill:#ffffff;fill-opacity:1;"><g transform="translate(140.564864, 41.425799)"><path style="stroke:none" d=""/></g></g><g style="fill:#ffffff;fill-opacity:1;"><g transform="translate(148.538965, 41.425799)"><path style="stroke:none" d="M 9.765625 -4.265625 C 11.578125 -4.421875 12.921875 -5.03125 13.796875 -6.09375 C 14.671875 -7.164062 15.203125 -8.976562 15.390625 -11.53125 L 15.90625 -18.46875 L 2.03125 -18.46875 L 2.03125 -22.765625 L 22.09375 -22.765625 L 21.890625 -19.0625 L 21.453125 -13.046875 C 21.023438 -4.398438 17.273438 -0.0351562 10.203125 0.046875 Z M 1.71875 -11.125 L 2.515625 -13.875 L 7.5 -13.875 L 7.5 7.96875 L 1.71875 7.96875 Z M 1.71875 -11.125 "/></g></g><g style="fill:#ffffff;fill-opacity:1;"><g transform="translate(172.062548, 41.425799)"><path style="stroke:none" d="M 3.234375 -22.375 L 3.078125 -27.390625 L 8.578125 -27.390625 L 8.40625 -22.375 L 7.34375 -14.640625 L 4.3125 -14.640625 Z M 12.28125 -22.375 L 12.125 -27.390625 L 17.625 -27.390625 L 17.453125 -22.375 L 16.390625 -14.640625 L 13.359375 -14.640625 Z M 12.28125 -22.375 "/></g></g><g style="fill:#ffffff;fill-opacity:1;"><g transform="translate(192.755327, 41.425799)"><path style="stroke:none" d="M 24.046875 -11.359375 C 24.046875 -7.671875 23.1875 -4.769531 21.46875 -2.65625 C 19.757812 -0.539062 17.347656 0.515625 14.234375 0.515625 C 13.117188 0.515625 11.894531 0.359375 10.5625 0.046875 L 11.078125 -4.265625 C 12.066406 -4.054688 12.894531 -3.953125 13.5625 -3.953125 C 15.363281 -3.953125 16.648438 -4.554688 17.421875 -5.765625 C 18.191406 -6.972656 18.578125 -8.757812 18.578125 -11.125 C 18.578125 -13.757812 18.210938 -15.664062 17.484375 -16.84375 C 16.753906 -18.03125 15.628906 -18.625 14.109375 -18.625 C 13.046875 -18.625 12.148438 -18.300781 11.421875 -17.65625 C 10.691406 -17.019531 10.234375 -16.160156 10.046875 -15.078125 L 7.578125 0 L 1.828125 0 L 4.578125 -15.359375 L 1.390625 -22.765625 L 7.375 -22.765625 L 8.96875 -18.21875 C 9.53125 -19.863281 10.367188 -21.09375 11.484375 -21.90625 C 12.597656 -22.71875 13.875 -23.125 15.3125 -23.125 C 18.15625 -23.125 20.320312 -22.144531 21.8125 -20.1875 C 23.300781 -18.238281 24.046875 -15.296875 24.046875 -11.359375 Z M 24.046875 -11.359375 "/></g></g><g style="fill:#ffffff;fill-opacity:1;"><g transform="translate(218.352183, 41.425799)"><path style="stroke:none" d="M 24.046875 -11.359375 C 24.046875 -7.671875 23.1875 -4.769531 21.46875 -2.65625 C 19.757812 -0.539062 17.347656 0.515625 14.234375 0.515625 C 13.117188 0.515625 11.894531 0.359375 10.5625 0.046875 L 11.078125 -4.265625 C 12.066406 -4.054688 12.894531 -3.953125 13.5625 -3.953125 C 15.363281 -3.953125 16.648438 -4.554688 17.421875 -5.765625 C 18.191406 -6.972656 18.578125 -8.757812 18.578125 -11.125 C 18.578125 -13.757812 18.210938 -15.664062 17.484375 -16.84375 C 16.753906 -18.03125 15.628906 -18.625 14.109375 -18.625 C 13.046875 -18.625 12.148438 -18.300781 11.421875 -17.65625 C 10.691406 -17.019531 10.234375 -16.160156 10.046875 -15.078125 L 7.578125 0 L 1.828125 0 L 4.578125 -15.359375 L 1.390625 -22.765625 L 7.375 -22.765625 L 8.96875 -18.21875 C 9.53125 -19.863281 10.367188 -21.09375 11.484375 -21.90625 C 12.597656 -22.71875 13.875 -23.125 15.3125 -23.125 C 18.15625 -23.125 20.320312 -22.144531 21.8125 -20.1875 C 23.300781 -18.238281 24.046875 -15.296875 24.046875 -11.359375 Z M 24.046875 -11.359375 "/></g></g><g style="fill:#ffffff;fill-opacity:1;"><g transform="translate(243.949018, 41.425799)"><path style="stroke:none" d=""/></g></g><g style="fill:#ffffff;fill-opacity:1;"><g transform="translate(251.923108, 41.425799)"><path style="stroke:none" d="M 5.984375 -6.546875 C 7.203125 -6.546875 8.148438 -6.078125 8.828125 -5.140625 C 9.503906 -4.210938 9.84375 -2.910156 9.84375 -1.234375 C 9.84375 0.890625 9.25 2.722656 8.0625 4.265625 C 6.882812 5.804688 5.191406 6.921875 2.984375 7.609375 L 1.875 4.671875 C 3.257812 4.191406 4.320312 3.519531 5.0625 2.65625 C 5.8125 1.789062 6.1875 0.835938 6.1875 -0.203125 L 5.859375 -0.203125 C 4.929688 -0.203125 4.140625 -0.476562 3.484375 -1.03125 C 2.835938 -1.59375 2.515625 -2.363281 2.515625 -3.34375 C 2.515625 -4.28125 2.84375 -5.046875 3.5 -5.640625 C 4.164062 -6.242188 4.992188 -6.546875 5.984375 -6.546875 Z M 5.984375 -6.546875 "/></g></g><g style="fill:#ffffff;fill-opacity:1;"><g transform="translate(263.565285, 41.425799)"><path style="stroke:none" d="M 10.484375 -13.796875 C 10.484375 -14.804688 10.582031 -15.71875 10.78125 -16.53125 C 10.976562 -17.34375 11.253906 -17.988281 11.609375 -18.46875 L 1.390625 -18.46875 L 1.390625 -22.765625 L 20.09375 -22.765625 L 20.09375 -18.46875 L 16.984375 -18.46875 C 16.484375 -17.320312 16.234375 -15.765625 16.234375 -13.796875 L 16.234375 0 L 10.484375 0 Z M 10.484375 -13.796875 "/></g></g><g style="fill:#ffffff;fill-opacity:1;"><g transform="translate(285.175097, 41.425799)"><path style="stroke:none" d="M 3.234375 -22.375 L 3.078125 -27.390625 L 8.578125 -27.390625 L 8.40625 -22.375 L 7.34375 -14.640625 L 4.3125 -14.640625 Z M 12.28125 -22.375 L 12.125 -27.390625 L 17.625 -27.390625 L 17.453125 -22.375 L 16.390625 -14.640625 L 13.359375 -14.640625 Z M 12.28125 -22.375 "/></g></g><g style="fill:#ffffff;fill-opacity:1;"><g transform="translate(305.867876, 41.425799)"><path style="stroke:none" d="M 24.046875 -11.359375 C 24.046875 -7.671875 23.1875 -4.769531 21.46875 -2.65625 C 19.757812 -0.539062 17.347656 0.515625 14.234375 0.515625 C 13.117188 0.515625 11.894531 0.359375 10.5625 0.046875 L 11.078125 -4.265625 C 12.066406 -4.054688 12.894531 -3.953125 13.5625 -3.953125 C 15.363281 -3.953125 16.648438 -4.554688 17.421875 -5.765625 C 18.191406 -6.972656 18.578125 -8.757812 18.578125 -11.125 C 18.578125 -13.757812 18.210938 -15.664062 17.484375 -16.84375 C 16.753906 -18.03125 15.628906 -18.625 14.109375 -18.625 C 13.046875 -18.625 12.148438 -18.300781 11.421875 -17.65625 C 10.691406 -17.019531 10.234375 -16.160156 10.046875 -15.078125 L 7.578125 0 L 1.828125 0 L 4.578125 -15.359375 L 1.390625 -22.765625 L 7.375 -22.765625 L 8.96875 -18.21875 C 9.53125 -19.863281 10.367188 -21.09375 11.484375 -21.90625 C 12.597656 -22.71875 13.875 -23.125 15.3125 -23.125 C 18.15625 -23.125 20.320312 -22.144531 21.8125 -20.1875 C 23.300781 -18.238281 24.046875 -15.296875 24.046875 -11.359375 Z M 24.046875 -11.359375 "/></g></g><g style="fill:#ffffff;fill-opacity:1;"><g transform="translate(331.46471, 41.425799)"><path style="stroke:none" d="M 24.046875 -11.359375 C 24.046875 -7.671875 23.1875 -4.769531 21.46875 -2.65625 C 19.757812 -0.539062 17.347656 0.515625 14.234375 0.515625 C 13.117188 0.515625 11.894531 0.359375 10.5625 0.046875 L 11.078125 -4.265625 C 12.066406 -4.054688 12.894531 -3.953125 13.5625 -3.953125 C 15.363281 -3.953125 16.648438 -4.554688 17.421875 -5.765625 C 18.191406 -6.972656 18.578125 -8.757812 18.578125 -11.125 C 18.578125 -13.757812 18.210938 -15.664062 17.484375 -16.84375 C 16.753906 -18.03125 15.628906 -18.625 14.109375 -18.625 C 13.046875 -18.625 12.148438 -18.300781 11.421875 -17.65625 C 10.691406 -17.019531 10.234375 -16.160156 10.046875 -15.078125 L 7.578125 0 L 1.828125 0 L 4.578125 -15.359375 L 1.390625 -22.765625 L 7.375 -22.765625 L 8.96875 -18.21875 C 9.53125 -19.863281 10.367188 -21.09375 11.484375 -21.90625 C 12.597656 -22.71875 13.875 -23.125 15.3125 -23.125 C 18.15625 -23.125 20.320312 -22.144531 21.8125 -20.1875 C 23.300781 -18.238281 24.046875 -15.296875 24.046875 -11.359375 Z M 24.046875 -11.359375 "/></g></g></g></g><g clip-rule="nonzero" clip-path="url(#5a471eec6b)"><g clip-rule="nonzero" clip-path="url(#6145d172d5)"><g transform="matrix(1,0,0,1,14,96)"><g clip-path="url(#9f2b95f9ed)"><g clip-rule="nonzero" clip-path="url(#3c601b0b11)"><g clip-rule="nonzero" clip-path="url(#19302a49c2)"><path style=" stroke:none;fill-rule:nonzero;fill:#8c8c8c;fill-opacity:1;" d="M 0.710938 0.121094 L 501.488281 0.121094 L 501.488281 74.140625 L 0.710938 74.140625 Z M 0.710938 0.121094 "/></g></g></g></g></g></g><g clip-rule="nonzero" clip-path="url(#e1c8e430cb)"><g clip-rule="nonzero" clip-path="url(#3af087f970)"><g transform="matrix(1,0,0,1,12,90)"><g clip-path="url(#3227c9b3f8)"><g clip-rule="nonzero" clip-path="url(#d4c63c84d4)"><g clip-rule="nonzero" clip-path="url(#002684c967)"><path style=" stroke:none;fill-rule:nonzero;fill:#176598;fill-opacity:1;" d="M 0.613281 0.289062 L 501.226562 0.289062 L 501.226562 78.195312 L 0.613281 78.195312 Z M 0.613281 0.289062 "/></g></g></g></g></g></g><g clip-rule="nonzero" clip-path="url(#a97ad41dbe)"><g clip-rule="nonzero" clip-path="url(#b108d0816e)"><g transform="matrix(1,0,0,1,437,102)"><g clip-path="url(#0da2ca65d5)"><g clip-rule="nonzero" clip-path="url(#055685ed09)"><g clip-rule="nonzero" clip-path="url(#4ee821e83d)"><path style=" stroke:none;fill-rule:nonzero;fill:#ffffff;fill-opacity:1;" d="M 0.339844 0.679688 L 59.277344 0.679688 L 59.277344 55.746094 L 0.339844 55.746094 Z M 0.339844 0.679688 "/></g></g></g></g></g></g><g transform="matrix(1,0,0,1,454,97)"><g clip-path="url(#7a950c222e)"><g style="fill:#052554;fill-opacity:1;"><g transform="translate(1.06974, 47.077308)"><path style="stroke:none" d="M 1.65625 -4.5 C 4.625 -7.226562 6.894531 -9.378906 8.46875 -10.953125 C 10.050781 -12.523438 11.347656 -14.050781 12.359375 -15.53125 C 13.367188 -17.019531 13.875 -18.394531 13.875 -19.65625 C 13.875 -20.90625 13.550781 -21.859375 12.90625 -22.515625 C 12.257812 -23.179688 11.382812 -23.515625 10.28125 -23.515625 C 9.425781 -23.515625 8.640625 -23.273438 7.921875 -22.796875 C 7.203125 -22.328125 6.398438 -21.644531 5.515625 -20.75 L 1.28125 -24.984375 C 2.84375 -26.640625 4.390625 -27.832031 5.921875 -28.5625 C 7.453125 -29.300781 9.273438 -29.671875 11.390625 -29.671875 C 13.347656 -29.671875 15.082031 -29.269531 16.59375 -28.46875 C 18.113281 -27.675781 19.296875 -26.554688 20.140625 -25.109375 C 20.984375 -23.671875 21.40625 -22.003906 21.40625 -20.109375 C 21.40625 -17.992188 20.628906 -15.789062 19.078125 -13.5 C 17.535156 -11.207031 15.523438 -8.789062 13.046875 -6.25 C 15.003906 -6.488281 16.625 -6.609375 17.90625 -6.609375 L 22.78125 -6.609375 L 22.78125 0 L 1.65625 0 Z M 1.65625 -4.5 "/></g></g></g></g><g transform="matrix(1,0,0,1,319,100)"><g clip-path="url(#5315aa2970)"><g style="fill:#ffffff;fill-opacity:1;"><g transform="translate(1.007427, 43.701603)"><path style="stroke:none" d="M 1.703125 -24.25 L 7.859375 -24.25 L 9.9375 -5.015625 C 12.882812 -5.296875 14.976562 -6.164062 16.21875 -7.625 C 17.46875 -9.082031 18.0625 -11.15625 18 -13.84375 L 18 -15.15625 C 18 -16.4375 17.648438 -17.519531 16.953125 -18.40625 C 16.265625 -19.300781 15.226562 -19.789062 13.84375 -19.875 L 11.765625 -20 L 12.234375 -24.71875 L 14.828125 -24.59375 C 17.453125 -24.445312 19.609375 -23.628906 21.296875 -22.140625 C 22.984375 -20.660156 23.867188 -18.546875 23.953125 -15.796875 L 24 -14.609375 C 24.164062 -9.628906 22.554688 -5.941406 19.171875 -3.546875 C 15.785156 -1.148438 10.910156 0.171875 4.546875 0.421875 Z M 1.703125 -24.25 "/></g></g><g style="fill:#ffffff;fill-opacity:1;"><g transform="translate(26.104779, 43.701603)"><path style="stroke:none" d="M 19.796875 -24.25 L 19.796875 -19.203125 L 12.140625 0 L 6.03125 0 L 13.625 -19.65625 L 1.3125 -19.65625 L 1.3125 -30.453125 L 6.84375 -30.453125 L 6.84375 -24.25 Z M 19.796875 -24.25 "/></g></g><g style="fill:#ffffff;fill-opacity:1;"><g transform="translate(47.2528, 43.701603)"><path style="stroke:none" d="M 10.40625 -4.546875 C 12.332031 -4.710938 13.757812 -5.363281 14.6875 -6.5 C 15.625 -7.632812 16.191406 -9.5625 16.390625 -12.28125 L 16.9375 -19.65625 L 2.171875 -19.65625 L 2.171875 -24.25 L 23.53125 -24.25 L 23.3125 -20.296875 L 22.84375 -13.890625 C 22.394531 -4.679688 18.40625 -0.0351562 10.875 0.046875 Z M 1.828125 -11.84375 L 2.671875 -14.78125 L 7.984375 -14.78125 L 7.984375 8.5 L 1.828125 8.5 Z M 1.828125 -11.84375 "/></g></g><g style="fill:#ffffff;fill-opacity:1;"><g transform="translate(72.307693, 43.701603)"><path style="stroke:none" d="M 25.609375 -12.109375 C 25.609375 -8.171875 24.691406 -5.078125 22.859375 -2.828125 C 21.035156 -0.578125 18.46875 0.546875 15.15625 0.546875 C 13.96875 0.546875 12.664062 0.378906 11.25 0.046875 L 11.8125 -4.546875 C 12.851562 -4.316406 13.726562 -4.203125 14.4375 -4.203125 C 16.363281 -4.203125 17.738281 -4.84375 18.5625 -6.125 C 19.382812 -7.414062 19.796875 -9.320312 19.796875 -11.84375 C 19.796875 -14.644531 19.40625 -16.675781 18.625 -17.9375 C 17.84375 -19.195312 16.644531 -19.828125 15.03125 -19.828125 C 13.894531 -19.828125 12.9375 -19.488281 12.15625 -18.8125 C 11.382812 -18.132812 10.898438 -17.210938 10.703125 -16.046875 L 8.0625 0 L 1.953125 0 L 4.890625 -16.34375 L 1.484375 -24.25 L 7.859375 -24.25 L 9.5625 -19.40625 C 10.15625 -21.164062 11.046875 -22.472656 12.234375 -23.328125 C 13.421875 -24.191406 14.78125 -24.625 16.3125 -24.625 C 19.34375 -24.625 21.648438 -23.582031 23.234375 -21.5 C 24.816406 -19.425781 25.609375 -16.296875 25.609375 -12.109375 Z M 25.609375 -12.109375 "/></g></g></g></g><g clip-rule="nonzero" clip-path="url(#e8d450fdc4)"><g clip-rule="nonzero" clip-path="url(#3903738270)"><g transform="matrix(1,0,0,1,14,185)"><g clip-path="url(#c155cb239d)"><g clip-rule="nonzero" clip-path="url(#170f5ab44e)"><g clip-rule="nonzero" clip-path="url(#4c5e390e85)"><path style=" stroke:none;fill-rule:nonzero;fill:#8c8c8c;fill-opacity:1;" d="M 0.710938 0.671875 L 501.488281 0.671875 L 501.488281 74.691406 L 0.710938 74.691406 Z M 0.710938 0.671875 "/></g></g></g></g></g></g><g clip-rule="nonzero" clip-path="url(#dd605afc55)"><g clip-rule="nonzero" clip-path="url(#0cd74c5805)"><g transform="matrix(1,0,0,1,12,179)"><g clip-path="url(#b2868057d5)"><g clip-rule="nonzero" clip-path="url(#469224fd5c)"><g clip-rule="nonzero" clip-path="url(#0b7223f696)"><path style=" stroke:none;fill-rule:nonzero;fill:#176598;fill-opacity:1;" d="M 0.613281 0.839844 L 501.226562 0.839844 L 501.226562 78.746094 L 0.613281 78.746094 Z M 0.613281 0.839844 "/></g></g></g></g></g></g><g clip-rule="nonzero" clip-path="url(#31aa58f2f4)"><g clip-rule="nonzero" clip-path="url(#541efa1665)"><g transform="matrix(1,0,0,1,437,192)"><g clip-path="url(#2585e0337e)"><g clip-rule="nonzero" clip-path="url(#c9700cb7a8)"><g clip-rule="nonzero" clip-path="url(#a5643abb1b)"><path style=" stroke:none;fill-rule:nonzero;fill:#ffffff;fill-opacity:1;" d="M 0.339844 0.234375 L 59.277344 0.234375 L 59.277344 55.296875 L 0.339844 55.296875 Z M 0.339844 0.234375 "/></g></g></g></g></g></g><g transform="matrix(1,0,0,1,454,187)"><g clip-path="url(#5cbaccc9f0)"><g style="fill:#052554;fill-opacity:1;"><g transform="translate(1.06974, 46.628906)"><path style="stroke:none" d="M 11.296875 0.546875 C 9.003906 0.546875 6.984375 0.1875 5.234375 -0.53125 C 3.492188 -1.25 2.054688 -2.265625 0.921875 -3.578125 L 4.5 -8.546875 C 5.414062 -7.679688 6.382812 -7.003906 7.40625 -6.515625 C 8.4375 -6.023438 9.457031 -5.78125 10.46875 -5.78125 C 11.78125 -5.78125 12.8125 -6.015625 13.5625 -6.484375 C 14.3125 -6.960938 14.6875 -7.648438 14.6875 -8.546875 C 14.6875 -9.335938 14.492188 -9.984375 14.109375 -10.484375 C 13.734375 -10.992188 13.015625 -11.378906 11.953125 -11.640625 C 10.898438 -11.898438 9.394531 -12.03125 7.4375 -12.03125 L 7.4375 -17.546875 C 9.757812 -17.546875 11.394531 -17.828125 12.34375 -18.390625 C 13.300781 -18.953125 13.78125 -19.769531 13.78125 -20.84375 C 13.78125 -21.707031 13.519531 -22.367188 13 -22.828125 C 12.476562 -23.285156 11.726562 -23.515625 10.75 -23.515625 C 9.832031 -23.515625 8.988281 -23.320312 8.21875 -22.9375 C 7.457031 -22.550781 6.585938 -21.945312 5.609375 -21.125 L 1.65625 -25.90625 C 4.65625 -28.414062 7.804688 -29.671875 11.109375 -29.671875 C 14.359375 -29.671875 16.929688 -28.945312 18.828125 -27.5 C 20.722656 -26.0625 21.671875 -24.046875 21.671875 -21.453125 C 21.671875 -18.628906 20.109375 -16.53125 16.984375 -15.15625 L 16.984375 -14.96875 C 18.734375 -14.445312 20.101562 -13.597656 21.09375 -12.421875 C 22.09375 -11.242188 22.59375 -9.765625 22.59375 -7.984375 C 22.59375 -6.210938 22.078125 -4.679688 21.046875 -3.390625 C 20.023438 -2.109375 18.65625 -1.128906 16.9375 -0.453125 C 15.226562 0.210938 13.347656 0.546875 11.296875 0.546875 Z M 11.296875 0.546875 "/></g></g></g></g><g transform="matrix(1,0,0,1,119,189)"><g clip-path="url(#9046231869)"><g style="fill:#ffffff;fill-opacity:1;"><g transform="translate(0.997734, 43.731009)"><path style="stroke:none" d="M 2.59375 -19.28125 L 2.078125 -24.25 L 8.203125 -24.25 L 8.703125 -19.28125 L 8.703125 -12.65625 L 8.65625 -9.984375 L 2.59375 -8.921875 Z M 2.59375 -19.28125 "/></g></g><g style="fill:#ffffff;fill-opacity:1;"><g transform="translate(11.996455, 43.731009)"><path style="stroke:none" d="M 25.609375 -12.109375 C 25.609375 -8.171875 24.691406 -5.078125 22.859375 -2.828125 C 21.035156 -0.578125 18.46875 0.546875 15.15625 0.546875 C 13.96875 0.546875 12.664062 0.378906 11.25 0.046875 L 11.8125 -4.546875 C 12.851562 -4.316406 13.726562 -4.203125 14.4375 -4.203125 C 16.363281 -4.203125 17.738281 -4.84375 18.5625 -6.125 C 19.382812 -7.414062 19.796875 -9.320312 19.796875 -11.84375 C 19.796875 -14.644531 19.40625 -16.675781 18.625 -17.9375 C 17.84375 -19.195312 16.644531 -19.828125 15.03125 -19.828125 C 13.894531 -19.828125 12.9375 -19.488281 12.15625 -18.8125 C 11.382812 -18.132812 10.898438 -17.210938 10.703125 -16.046875 L 8.0625 0 L 1.953125 0 L 4.890625 -16.34375 L 1.484375 -24.25 L 7.859375 -24.25 L 9.5625 -19.40625 C 10.15625 -21.164062 11.046875 -22.472656 12.234375 -23.328125 C 13.421875 -24.191406 14.78125 -24.625 16.3125 -24.625 C 19.34375 -24.625 21.648438 -23.582031 23.234375 -21.5 C 24.816406 -19.425781 25.609375 -16.296875 25.609375 -12.109375 Z M 25.609375 -12.109375 "/></g></g><g style="fill:#ffffff;fill-opacity:1;"><g transform="translate(39.25968, 43.731009)"><path style="stroke:none" d="M 2.59375 -19.28125 L 2.078125 -24.25 L 8.203125 -24.25 L 8.703125 -19.28125 L 8.703125 -12.65625 L 8.65625 -9.984375 L 2.59375 -8.921875 Z M 2.59375 -19.28125 "/></g></g><g style="fill:#ffffff;fill-opacity:1;"><g transform="translate(50.258401, 43.731009)"><path style="stroke:none" d="M 1.65625 -4.59375 L 7.859375 -4.59375 L 7.859375 -16.859375 C 7.859375 -17.878906 7.664062 -18.597656 7.28125 -19.015625 C 6.894531 -19.441406 6.304688 -19.710938 5.515625 -19.828125 L 2.546875 -20.25 L 3.3125 -24.765625 L 8.625 -24.078125 C 10.351562 -23.847656 11.675781 -23.109375 12.59375 -21.859375 C 13.507812 -20.617188 13.96875 -19.007812 13.96875 -17.03125 L 13.96875 0 L 1.65625 0 Z M 1.65625 -4.59375 "/></g></g><g style="fill:#ffffff;fill-opacity:1;"><g transform="translate(66.437975, 43.731009)"><path style="stroke:none" d="M 2.25 -4.59375 L 10.828125 -4.59375 C 12.472656 -4.59375 13.753906 -5.117188 14.671875 -6.171875 C 15.585938 -7.234375 16.046875 -8.703125 16.046875 -10.578125 L 16.046875 -13.71875 C 16.046875 -15.5 15.640625 -16.929688 14.828125 -18.015625 C 14.023438 -19.109375 12.847656 -19.65625 11.296875 -19.65625 L 8.234375 -19.65625 L 7.46875 -16.046875 C 7.382812 -15.679688 7.34375 -15.328125 7.34375 -14.984375 C 7.34375 -14.285156 7.554688 -13.742188 7.984375 -13.359375 C 8.410156 -12.972656 9.101562 -12.679688 10.0625 -12.484375 L 9.09375 -8.65625 C 6.570312 -8.71875 4.742188 -9.285156 3.609375 -10.359375 C 2.472656 -11.429688 1.90625 -12.890625 1.90625 -14.734375 C 1.90625 -15.410156 1.960938 -16.035156 2.078125 -16.609375 L 3.78125 -24.25 L 12.734375 -24.25 C 15.679688 -24.25 17.988281 -23.269531 19.65625 -21.3125 C 21.332031 -19.363281 22.171875 -16.734375 22.171875 -13.421875 L 22.171875 -10.875 C 22.171875 -7.476562 21.273438 -4.816406 19.484375 -2.890625 C 17.703125 -0.960938 15.300781 0 12.28125 0 L 2.25 0 Z M 2.25 -4.59375 "/></g></g><g style="fill:#ffffff;fill-opacity:1;"><g transform="translate(90.091585, 43.731009)"><path style="stroke:none" d=""/></g></g><g style="fill:#ffffff;fill-opacity:1;"><g transform="translate(98.584799, 43.731009)"><path style="stroke:none" d="M 0.765625 -3.4375 C 1.835938 -3.550781 2.640625 -3.765625 3.171875 -4.078125 C 3.710938 -4.390625 4.082031 -4.820312 4.28125 -5.375 C 4.488281 -5.925781 4.578125 -6.710938 4.546875 -7.734375 L 4.546875 -24.25 L 17.40625 -24.25 C 19.675781 -24.25 21.460938 -23.601562 22.765625 -22.3125 C 24.066406 -21.03125 24.71875 -19.015625 24.71875 -16.265625 L 24.71875 0 L 18.59375 0 L 18.59375 -16.5625 C 18.59375 -18.625 17.632812 -19.65625 15.71875 -19.65625 L 10.703125 -19.65625 L 10.703125 -8.53125 C 10.703125 -6.382812 10.367188 -4.671875 9.703125 -3.390625 C 9.035156 -2.117188 8.03125 -1.164062 6.6875 -0.53125 C 5.34375 0.101562 3.539062 0.519531 1.28125 0.71875 Z M 0.765625 -3.4375 "/></g></g><g style="fill:#ffffff;fill-opacity:1;"><g transform="translate(125.55076, 43.731009)"><path style="stroke:none" d="M 2.59375 -19.28125 L 2.078125 -24.25 L 8.203125 -24.25 L 8.703125 -19.28125 L 8.703125 0 L 2.59375 0 Z M 2.59375 -19.28125 "/></g></g><g style="fill:#ffffff;fill-opacity:1;"><g transform="translate(136.54948, 43.731009)"><path style="stroke:none" d="M 10.453125 0 L 9.6875 -4.546875 C 8.894531 -3.273438 7.96875 -2.195312 6.90625 -1.3125 C 5.84375 -0.4375 4.53125 0.269531 2.96875 0.8125 L 0.71875 -4.03125 C 4.6875 -5.28125 7.378906 -7.265625 8.796875 -9.984375 L 8.796875 -16.90625 C 8.796875 -17.925781 8.640625 -18.644531 8.328125 -19.0625 C 8.015625 -19.488281 7.488281 -19.757812 6.75 -19.875 L 4.078125 -20.25 L 4.84375 -24.765625 L 9.859375 -24.078125 C 11.578125 -23.847656 12.847656 -23.203125 13.671875 -22.140625 C 14.492188 -21.085938 14.90625 -19.566406 14.90625 -17.578125 L 14.90625 -9.515625 L 16.265625 0 Z M 10.453125 0 "/></g></g><g style="fill:#ffffff;fill-opacity:1;"><g transform="translate(154.555097, 43.731009)"><path style="stroke:none" d="M 12.3125 -16.5625 C 12.3125 -18.625 11.363281 -19.65625 9.46875 -19.65625 L 1.1875 -19.65625 L 1.1875 -24.25 L 11.125 -24.25 C 13.394531 -24.25 15.1875 -23.601562 16.5 -22.3125 C 17.8125 -21.03125 18.46875 -19.015625 18.46875 -16.265625 L 18.46875 0 L 12.3125 0 Z M 12.3125 -16.5625 "/></g></g><g style="fill:#ffffff;fill-opacity:1;"><g transform="translate(175.278544, 43.731009)"><path style="stroke:none" d="M 11.171875 -14.6875 C 11.171875 -15.769531 11.273438 -16.742188 11.484375 -17.609375 C 11.703125 -18.472656 11.992188 -19.15625 12.359375 -19.65625 L 1.484375 -19.65625 L 1.484375 -24.25 L 21.40625 -24.25 L 21.40625 -19.65625 L 18.09375 -19.65625 C 17.550781 -18.445312 17.28125 -16.789062 17.28125 -14.6875 L 17.28125 0 L 11.171875 0 Z M 11.171875 -14.6875 "/></g></g><g style="fill:#ffffff;fill-opacity:1;"><g transform="translate(198.295162, 43.731009)"><path style="stroke:none" d="M 25.609375 -12.109375 C 25.609375 -8.171875 24.691406 -5.078125 22.859375 -2.828125 C 21.035156 -0.578125 18.46875 0.546875 15.15625 0.546875 C 13.96875 0.546875 12.664062 0.378906 11.25 0.046875 L 11.8125 -4.546875 C 12.851562 -4.316406 13.726562 -4.203125 14.4375 -4.203125 C 16.363281 -4.203125 17.738281 -4.84375 18.5625 -6.125 C 19.382812 -7.414062 19.796875 -9.320312 19.796875 -11.84375 C 19.796875 -14.644531 19.40625 -16.675781 18.625 -17.9375 C 17.84375 -19.195312 16.644531 -19.828125 15.03125 -19.828125 C 13.894531 -19.828125 12.9375 -19.488281 12.15625 -18.8125 C 11.382812 -18.132812 10.898438 -17.210938 10.703125 -16.046875 L 8.0625 0 L 1.953125 0 L 4.890625 -16.34375 L 1.484375 -24.25 L 7.859375 -24.25 L 9.5625 -19.40625 C 10.15625 -21.164062 11.046875 -22.472656 12.234375 -23.328125 C 13.421875 -24.191406 14.78125 -24.625 16.3125 -24.625 C 19.34375 -24.625 21.648438 -23.582031 23.234375 -21.5 C 24.816406 -19.425781 25.609375 -16.296875 25.609375 -12.109375 Z M 25.609375 -12.109375 "/></g></g><g style="fill:#ffffff;fill-opacity:1;"><g transform="translate(225.558377, 43.731009)"><path style="stroke:none" d=""/></g></g><g style="fill:#ffffff;fill-opacity:1;"><g transform="translate(234.051613, 43.731009)"><path style="stroke:none" d="M 12.3125 -16.5625 C 12.3125 -18.625 11.363281 -19.65625 9.46875 -19.65625 L 1.1875 -19.65625 L 1.1875 -24.25 L 11.125 -24.25 C 13.394531 -24.25 15.1875 -23.601562 16.5 -22.3125 C 17.8125 -21.03125 18.46875 -19.015625 18.46875 -16.265625 L 18.46875 0 L 12.3125 0 Z M 12.3125 -16.5625 "/></g></g><g style="fill:#ffffff;fill-opacity:1;"><g transform="translate(254.77505, 43.731009)"><path style="stroke:none" d="M 11.171875 -14.6875 C 11.171875 -15.769531 11.273438 -16.742188 11.484375 -17.609375 C 11.703125 -18.472656 11.992188 -19.15625 12.359375 -19.65625 L 1.484375 -19.65625 L 1.484375 -24.25 L 21.40625 -24.25 L 21.40625 -19.65625 L 18.09375 -19.65625 C 17.550781 -18.445312 17.28125 -16.789062 17.28125 -14.6875 L 17.28125 0 L 11.171875 0 Z M 11.171875 -14.6875 "/></g></g><g style="fill:#ffffff;fill-opacity:1;"><g transform="translate(277.791668, 43.731009)"><path style="stroke:none" d="M 15.75 -24.25 C 18.019531 -24.25 19.8125 -23.566406 21.125 -22.203125 C 22.445312 -20.847656 23.109375 -18.796875 23.109375 -16.046875 L 23.109375 0 L 16.9375 0 L 16.9375 -16.34375 C 16.9375 -18.550781 15.988281 -19.65625 14.09375 -19.65625 L 8.40625 -19.65625 L 8.40625 0 L 2.296875 0 L 2.296875 -24.25 Z M 15.75 -24.25 "/></g></g></g></g><g clip-rule="nonzero" clip-path="url(#7246940b39)"><g clip-rule="nonzero" clip-path="url(#edf4437929)"><g transform="matrix(1,0,0,1,13,275)"><g clip-path="url(#19094fa51d)"><g clip-rule="nonzero" clip-path="url(#3735837973)"><g clip-rule="nonzero" clip-path="url(#2352cdd629)"><path style=" stroke:none;fill-rule:nonzero;fill:#8c8c8c;fill-opacity:1;" d="M 0.328125 0.5 L 501.101562 0.5 L 501.101562 74.519531 L 0.328125 74.519531 Z M 0.328125 0.5 "/></g></g></g></g></g></g><g clip-rule="nonzero" clip-path="url(#a092516d14)"><g clip-rule="nonzero" clip-path="url(#e7f0c81a51)"><g transform="matrix(1,0,0,1,11,269)"><g clip-path="url(#c3fac967f5)"><g clip-rule="nonzero" clip-path="url(#fb2269b067)"><g clip-rule="nonzero" clip-path="url(#3731d91a55)"><path style=" stroke:none;fill-rule:nonzero;fill:#176598;fill-opacity:1;" d="M 0.226562 0.667969 L 500.839844 0.667969 L 500.839844 78.574219 L 0.226562 78.574219 Z M 0.226562 0.667969 "/></g></g></g></g></g></g><g clip-rule="nonzero" clip-path="url(#483a22f0fa)"><g clip-rule="nonzero" clip-path="url(#54ca7de663)"><g transform="matrix(1,0,0,1,435,282)"><g clip-path="url(#e03fd49058)"><g clip-rule="nonzero" clip-path="url(#b30af8fc9e)"><g clip-rule="nonzero" clip-path="url(#21199c8715)"><path style=" stroke:none;fill-rule:nonzero;fill:#ffffff;fill-opacity:1;" d="M 0.953125 0.0585938 L 59.890625 0.0585938 L 59.890625 55.125 L 0.953125 55.125 Z M 0.953125 0.0585938 "/></g></g></g></g></g></g><g transform="matrix(1,0,0,1,453,277)"><g clip-path="url(#c8e4bd2c19)"><g style="fill:#052554;fill-opacity:1;"><g transform="translate(0.684102, 46.455895)"><path style="stroke:none" d="M 23.78125 -6.515625 L 20.671875 -6.515625 L 20.671875 0 L 13.3125 0 L 13.3125 -6.515625 L 0.921875 -6.515625 L 0.921875 -12.03125 L 10.84375 -29.109375 L 20.671875 -29.109375 L 20.671875 -12.484375 L 23.78125 -12.484375 Z M 13.3125 -12.484375 L 13.3125 -15.796875 C 13.3125 -17.023438 13.375 -18.800781 13.5 -21.125 C 13.5625 -21.851562 13.59375 -22.375 13.59375 -22.6875 L 13.40625 -22.6875 C 12.914062 -21.519531 12.117188 -19.773438 11.015625 -17.453125 L 8.359375 -12.484375 Z M 13.3125 -12.484375 "/></g></g></g></g><g transform="matrix(1,0,0,1,254,279)"><g clip-path="url(#5850853a31)"><g style="fill:#ffffff;fill-opacity:1;"><g transform="translate(1.519186, 43.557983)"><path style="stroke:none" d="M 2.59375 -19.28125 L 2.078125 -24.25 L 8.203125 -24.25 L 8.703125 -19.28125 L 8.703125 -12.65625 L 8.65625 -9.984375 L 2.59375 -8.921875 Z M 2.59375 -19.28125 "/></g></g><g style="fill:#ffffff;fill-opacity:1;"><g transform="translate(12.517906, 43.557983)"><path style="stroke:none" d="M 25.609375 -12.109375 C 25.609375 -8.171875 24.691406 -5.078125 22.859375 -2.828125 C 21.035156 -0.578125 18.46875 0.546875 15.15625 0.546875 C 13.96875 0.546875 12.664062 0.378906 11.25 0.046875 L 11.8125 -4.546875 C 12.851562 -4.316406 13.726562 -4.203125 14.4375 -4.203125 C 16.363281 -4.203125 17.738281 -4.84375 18.5625 -6.125 C 19.382812 -7.414062 19.796875 -9.320312 19.796875 -11.84375 C 19.796875 -14.644531 19.40625 -16.675781 18.625 -17.9375 C 17.84375 -19.195312 16.644531 -19.828125 15.03125 -19.828125 C 13.894531 -19.828125 12.9375 -19.488281 12.15625 -18.8125 C 11.382812 -18.132812 10.898438 -17.210938 10.703125 -16.046875 L 8.0625 0 L 1.953125 0 L 4.890625 -16.34375 L 1.484375 -24.25 L 7.859375 -24.25 L 9.5625 -19.40625 C 10.15625 -21.164062 11.046875 -22.472656 12.234375 -23.328125 C 13.421875 -24.191406 14.78125 -24.625 16.3125 -24.625 C 19.34375 -24.625 21.648438 -23.582031 23.234375 -21.5 C 24.816406 -19.425781 25.609375 -16.296875 25.609375 -12.109375 Z M 25.609375 -12.109375 "/></g></g><g style="fill:#ffffff;fill-opacity:1;"><g transform="translate(39.781132, 43.557983)"><path style="stroke:none" d="M 2.59375 -19.28125 L 2.078125 -24.25 L 8.203125 -24.25 L 8.703125 -19.28125 L 8.703125 -12.65625 L 8.65625 -9.984375 L 2.59375 -8.921875 Z M 2.59375 -19.28125 "/></g></g><g style="fill:#ffffff;fill-opacity:1;"><g transform="translate(50.779852, 43.557983)"><path style="stroke:none" d="M 1.65625 -4.59375 L 7.859375 -4.59375 L 7.859375 -16.859375 C 7.859375 -17.878906 7.664062 -18.597656 7.28125 -19.015625 C 6.894531 -19.441406 6.304688 -19.710938 5.515625 -19.828125 L 2.546875 -20.25 L 3.3125 -24.765625 L 8.625 -24.078125 C 10.351562 -23.847656 11.675781 -23.109375 12.59375 -21.859375 C 13.507812 -20.617188 13.96875 -19.007812 13.96875 -17.03125 L 13.96875 0 L 1.65625 0 Z M 1.65625 -4.59375 "/></g></g><g style="fill:#ffffff;fill-opacity:1;"><g transform="translate(66.959426, 43.557983)"><path style="stroke:none" d="M 2.25 -4.59375 L 10.828125 -4.59375 C 12.472656 -4.59375 13.753906 -5.117188 14.671875 -6.171875 C 15.585938 -7.234375 16.046875 -8.703125 16.046875 -10.578125 L 16.046875 -13.71875 C 16.046875 -15.5 15.640625 -16.929688 14.828125 -18.015625 C 14.023438 -19.109375 12.847656 -19.65625 11.296875 -19.65625 L 8.234375 -19.65625 L 7.46875 -16.046875 C 7.382812 -15.679688 7.34375 -15.328125 7.34375 -14.984375 C 7.34375 -14.285156 7.554688 -13.742188 7.984375 -13.359375 C 8.410156 -12.972656 9.101562 -12.679688 10.0625 -12.484375 L 9.09375 -8.65625 C 6.570312 -8.71875 4.742188 -9.285156 3.609375 -10.359375 C 2.472656 -11.429688 1.90625 -12.890625 1.90625 -14.734375 C 1.90625 -15.410156 1.960938 -16.035156 2.078125 -16.609375 L 3.78125 -24.25 L 12.734375 -24.25 C 15.679688 -24.25 17.988281 -23.269531 19.65625 -21.3125 C 21.332031 -19.363281 22.171875 -16.734375 22.171875 -13.421875 L 22.171875 -10.875 C 22.171875 -7.476562 21.273438 -4.816406 19.484375 -2.890625 C 17.703125 -0.960938 15.300781 0 12.28125 0 L 2.25 0 Z M 2.25 -4.59375 "/></g></g><g style="fill:#ffffff;fill-opacity:1;"><g transform="translate(90.613037, 43.557983)"><path style="stroke:none" d=""/></g></g><g style="fill:#ffffff;fill-opacity:1;"><g transform="translate(99.106251, 43.557983)"><path style="stroke:none" d="M 19.796875 -24.25 L 19.796875 -19.203125 L 12.140625 0 L 6.03125 0 L 13.625 -19.65625 L 1.3125 -19.65625 L 1.3125 -30.453125 L 6.84375 -30.453125 L 6.84375 -24.25 Z M 19.796875 -24.25 "/></g></g><g style="fill:#ffffff;fill-opacity:1;"><g transform="translate(120.254366, 43.557983)"><path style="stroke:none" d="M 19.796875 -24.25 L 19.796875 -19.203125 L 12.140625 0 L 6.03125 0 L 13.625 -19.65625 L 1.3125 -19.65625 L 1.3125 -30.453125 L 6.84375 -30.453125 L 6.84375 -24.25 Z M 19.796875 -24.25 "/></g></g><g style="fill:#ffffff;fill-opacity:1;"><g transform="translate(141.402481, 43.557983)"><path style="stroke:none" d="M 15.75 -24.25 C 18.019531 -24.25 19.8125 -23.566406 21.125 -22.203125 C 22.445312 -20.847656 23.109375 -18.796875 23.109375 -16.046875 L 23.109375 0 L 16.9375 0 L 16.9375 -16.34375 C 16.9375 -18.550781 15.988281 -19.65625 14.09375 -19.65625 L 8.40625 -19.65625 L 8.40625 0 L 2.296875 0 L 2.296875 -24.25 Z M 15.75 -24.25 "/></g></g></g></g><g clip-rule="nonzero" clip-path="url(#dca167406f)"><g clip-rule="nonzero" clip-path="url(#b668e62b9c)"><g transform="matrix(1,0,0,1,11,365)"><g clip-path="url(#e0fc57db82)"><g clip-rule="nonzero" clip-path="url(#ce91fa278c)"><g clip-rule="nonzero" clip-path="url(#e7341c0a83)"><path style=" stroke:none;fill-rule:nonzero;fill:#8c8c8c;fill-opacity:1;" d="M 0.226562 0.371094 L 501.003906 0.371094 L 501.003906 74.390625 L 0.226562 74.390625 Z M 0.226562 0.371094 "/></g></g></g></g></g></g><g clip-rule="nonzero" clip-path="url(#f7a944b52b)"><g clip-rule="nonzero" clip-path="url(#e926f64435)"><g transform="matrix(1,0,0,1,9,359)"><g clip-path="url(#3a487d45eb)"><g clip-rule="nonzero" clip-path="url(#fefce6f9f3)"><g clip-rule="nonzero" clip-path="url(#59108b6892)"><path style=" stroke:none;fill-rule:nonzero;fill:#052554;fill-opacity:1;" d="M 0.125 0.539062 L 500.742188 0.539062 L 500.742188 78.445312 L 0.125 78.445312 Z M 0.125 0.539062 "/></g></g></g></g></g></g><g clip-rule="nonzero" clip-path="url(#01ea7f00b5)"><g clip-rule="nonzero" clip-path="url(#67cf1ba66b)"><g transform="matrix(1,0,0,1,433,371)"><g clip-path="url(#451a788e3f)"><g clip-rule="nonzero" clip-path="url(#027390700c)"><g clip-rule="nonzero" clip-path="url(#6d3686edae)"><path style=" stroke:none;fill-rule:nonzero;fill:#ffffff;fill-opacity:1;" d="M 0.855469 0.929688 L 59.792969 0.929688 L 59.792969 55.996094 L 0.855469 55.996094 Z M 0.855469 0.929688 "/></g></g></g></g></g></g><g transform="matrix(1,0,0,1,454,367)"><g clip-path="url(#41fee9f58d)"><g style="fill:#052554;fill-opacity:1;"><g transform="translate(1.714509, 46.32731)"><path style="stroke:none" d="M 4.59375 -23.96875 L 4.3125 -30.765625 L 12.21875 -30.765625 L 11.9375 -23.96875 L 10.84375 -11.203125 L 5.6875 -11.203125 Z M 8.265625 0.546875 C 6.953125 0.546875 5.859375 0.0859375 4.984375 -0.828125 C 4.109375 -1.742188 3.671875 -2.875 3.671875 -4.21875 C 3.671875 -5.570312 4.109375 -6.707031 4.984375 -7.625 C 5.859375 -8.539062 6.953125 -9 8.265625 -9 C 9.578125 -9 10.671875 -8.539062 11.546875 -7.625 C 12.421875 -6.707031 12.859375 -5.570312 12.859375 -4.21875 C 12.859375 -2.875 12.421875 -1.742188 11.546875 -0.828125 C 10.671875 0.0859375 9.578125 0.546875 8.265625 0.546875 Z M 8.265625 0.546875 "/></g></g></g></g><g transform="matrix(1,0,0,1,197,369)"><g clip-path="url(#8923f892a1)"><g style="fill:#ffffff;fill-opacity:1;"><g transform="translate(0.955668, 41.66437)"><path style="stroke:none" d="M 14.71875 -22.765625 C 16.84375 -22.765625 18.519531 -22.160156 19.75 -20.953125 C 20.988281 -19.742188 21.609375 -17.847656 21.609375 -15.265625 L 21.609375 0 L 2.109375 0 L 2.109375 -22.765625 Z M 15.828125 -4.3125 L 15.828125 -15.546875 C 15.828125 -17.492188 14.9375 -18.46875 13.15625 -18.46875 L 7.859375 -18.46875 L 7.859375 -4.3125 Z M 15.828125 -4.3125 "/></g></g><g style="fill:#ffffff;fill-opacity:1;"><g transform="translate(24.558991, 41.66437)"><path style="stroke:none" d="M 2.4375 -18.109375 L 1.953125 -22.765625 L 7.703125 -22.765625 L 8.171875 -18.109375 L 8.171875 -11.875 L 8.140625 -9.375 L 2.4375 -8.375 Z M 2.4375 -18.109375 "/></g></g><g style="fill:#ffffff;fill-opacity:1;"><g transform="translate(34.885448, 41.66437)"><path style="stroke:none" d="M 20.453125 -4.3125 L 20.453125 0 L 1.515625 0 L 1.515625 -4.3125 L 12.046875 -4.3125 L 12.046875 -15.546875 C 12.046875 -17.492188 11.140625 -18.46875 9.328125 -18.46875 L 1.515625 -18.46875 L 1.515625 -22.765625 L 10.921875 -22.765625 C 13.046875 -22.765625 14.71875 -22.160156 15.9375 -20.953125 C 17.164062 -19.742188 17.78125 -17.847656 17.78125 -15.265625 L 17.78125 -4.3125 Z M 20.453125 -4.3125 "/></g></g><g style="fill:#ffffff;fill-opacity:1;"><g transform="translate(56.535113, 41.66437)"><path style="stroke:none" d="M 2.4375 -18.109375 L 1.953125 -22.765625 L 7.703125 -22.765625 L 8.171875 -18.109375 L 8.171875 0 L 2.4375 0 Z M 2.4375 -18.109375 "/></g></g><g style="fill:#ffffff;fill-opacity:1;"><g transform="translate(66.86157, 41.66437)"><path style="stroke:none" d="M 25.515625 -16.109375 C 25.566406 -10.660156 23.984375 -6.546875 20.765625 -3.765625 C 17.554688 -0.984375 12.578125 0.40625 5.828125 0.40625 L 4.578125 0.40625 L 1.59375 -22.765625 L 7.0625 -22.765625 L 8.21875 -12.921875 C 9.28125 -13.453125 9.992188 -14.25 10.359375 -15.3125 C 10.734375 -16.375 10.910156 -17.96875 10.890625 -20.09375 L 10.890625 -22.734375 L 16.34375 -22.734375 L 16.34375 -20.21875 C 16.289062 -17.289062 15.707031 -14.914062 14.59375 -13.09375 C 13.476562 -11.28125 11.507812 -9.894531 8.6875 -8.9375 L 9.25 -4.34375 C 13.050781 -4.582031 15.757812 -5.675781 17.375 -7.625 C 19 -9.582031 19.800781 -12.304688 19.78125 -15.796875 L 19.703125 -22.765625 L 25.484375 -22.765625 Z M 25.515625 -16.109375 "/></g></g><g style="fill:#ffffff;fill-opacity:1;"><g transform="translate(93.89375, 41.66437)"><path style="stroke:none" d="M 14.796875 -22.765625 C 16.921875 -22.765625 18.597656 -22.125 19.828125 -20.84375 C 21.066406 -19.570312 21.6875 -17.648438 21.6875 -15.078125 L 21.6875 0 L 15.90625 0 L 15.90625 -15.359375 C 15.90625 -17.429688 15.015625 -18.46875 13.234375 -18.46875 L 7.890625 -18.46875 L 7.890625 0 L 2.15625 0 L 2.15625 -22.765625 Z M 14.796875 -22.765625 "/></g></g><g style="fill:#ffffff;fill-opacity:1;"><g transform="translate(117.616688, 41.66437)"><path style="stroke:none" d=""/></g></g><g style="fill:#ffffff;fill-opacity:1;"><g transform="translate(125.590789, 41.66437)"><path style="stroke:none" d="M 14.71875 -22.765625 C 16.84375 -22.765625 18.519531 -22.160156 19.75 -20.953125 C 20.988281 -19.742188 21.609375 -17.847656 21.609375 -15.265625 L 21.609375 0 L 2.109375 0 L 2.109375 -22.765625 Z M 15.828125 -4.3125 L 15.828125 -15.546875 C 15.828125 -17.492188 14.9375 -18.46875 13.15625 -18.46875 L 7.859375 -18.46875 L 7.859375 -4.3125 Z M 15.828125 -4.3125 "/></g></g><g style="fill:#ffffff;fill-opacity:1;"><g transform="translate(149.194112, 41.66437)"><path style="stroke:none" d="M 2.4375 -18.109375 L 1.953125 -22.765625 L 7.703125 -22.765625 L 8.171875 -18.109375 L 8.171875 -11.875 L 8.140625 -9.375 L 2.4375 -8.375 Z M 2.4375 -18.109375 "/></g></g><g style="fill:#ffffff;fill-opacity:1;"><g transform="translate(159.520569, 41.66437)"><path style="stroke:none" d="M 25.515625 -16.109375 C 25.566406 -10.660156 23.984375 -6.546875 20.765625 -3.765625 C 17.554688 -0.984375 12.578125 0.40625 5.828125 0.40625 L 4.578125 0.40625 L 1.59375 -22.765625 L 7.0625 -22.765625 L 8.21875 -12.921875 C 9.28125 -13.453125 9.992188 -14.25 10.359375 -15.3125 C 10.734375 -16.375 10.910156 -17.96875 10.890625 -20.09375 L 10.890625 -22.734375 L 16.34375 -22.734375 L 16.34375 -20.21875 C 16.289062 -17.289062 15.707031 -14.914062 14.59375 -13.09375 C 13.476562 -11.28125 11.507812 -9.894531 8.6875 -8.9375 L 9.25 -4.34375 C 13.050781 -4.582031 15.757812 -5.675781 17.375 -7.625 C 19 -9.582031 19.800781 -12.304688 19.78125 -15.796875 L 19.703125 -22.765625 L 25.484375 -22.765625 Z M 25.515625 -16.109375 "/></g></g><g style="fill:#ffffff;fill-opacity:1;"><g transform="translate(186.552739, 41.66437)"><path style="stroke:none" d="M 9.8125 0 L 9.09375 -4.265625 C 8.34375 -3.066406 7.46875 -2.054688 6.46875 -1.234375 C 5.476562 -0.410156 4.253906 0.25 2.796875 0.75 L 0.671875 -3.78125 C 4.398438 -4.957031 6.925781 -6.820312 8.25 -9.375 L 8.25 -15.875 C 8.25 -16.832031 8.101562 -17.507812 7.8125 -17.90625 C 7.519531 -18.300781 7.03125 -18.550781 6.34375 -18.65625 L 3.828125 -19.015625 L 4.546875 -23.25 L 9.25 -22.609375 C 10.875 -22.398438 12.070312 -21.796875 12.84375 -20.796875 C 13.613281 -19.796875 14 -18.367188 14 -16.515625 L 14 -8.9375 L 15.265625 0 Z M 9.8125 0 "/></g></g><g style="fill:#ffffff;fill-opacity:1;"><g transform="translate(203.457838, 41.66437)"><path style="stroke:none" d="M 10.484375 -13.796875 C 10.484375 -14.804688 10.582031 -15.71875 10.78125 -16.53125 C 10.976562 -17.34375 11.253906 -17.988281 11.609375 -18.46875 L 1.390625 -18.46875 L 1.390625 -22.765625 L 20.09375 -22.765625 L 20.09375 -18.46875 L 16.984375 -18.46875 C 16.484375 -17.320312 16.234375 -15.765625 16.234375 -13.796875 L 16.234375 0 L 10.484375 0 Z M 10.484375 -13.796875 "/></g></g></g></g></g></svg>