<svg xmlns="http://www.w3.org/2000/svg" xmlns:xlink="http://www.w3.org/1999/xlink" width="940" zoomAndPan="magnify" viewBox="0 0 705 517.49999" height="690" preserveAspectRatio="xMidYMid meet" version="1.0"><defs><g/><clipPath id="25b61f04e1"><path d="M 0.339844 193.789062 L 704.410156 193.789062 L 704.410156 310 L 0.339844 310 Z M 0.339844 193.789062 " clip-rule="nonzero"/></clipPath><clipPath id="a3b8e6b4a9"><path d="M 10.832031 193.789062 L 693.75 193.789062 C 699.542969 193.789062 704.242188 198.484375 704.242188 204.28125 L 704.242188 299.511719 C 704.242188 305.304688 699.542969 310 693.75 310 L 10.832031 310 C 5.035156 310 0.339844 305.304688 0.339844 299.511719 L 0.339844 204.28125 C 0.339844 198.484375 5.035156 193.789062 10.832031 193.789062 Z M 10.832031 193.789062 " clip-rule="nonzero"/></clipPath><clipPath id="39335101ac"><path d="M 0.339844 0.789062 L 704.300781 0.789062 L 704.300781 117 L 0.339844 117 Z M 0.339844 0.789062 " clip-rule="nonzero"/></clipPath><clipPath id="0961fddef5"><path d="M 10.832031 0.789062 L 693.75 0.789062 C 699.542969 0.789062 704.242188 5.484375 704.242188 11.28125 L 704.242188 106.511719 C 704.242188 112.304688 699.542969 117 693.75 117 L 10.832031 117 C 5.035156 117 0.339844 112.304688 0.339844 106.511719 L 0.339844 11.28125 C 0.339844 5.484375 5.035156 0.789062 10.832031 0.789062 Z M 10.832031 0.789062 " clip-rule="nonzero"/></clipPath><clipPath id="f515d281c2"><rect x="0" width="705" y="0" height="117"/></clipPath><clipPath id="3acb8530f6"><path d="M 46.898438 0 L 651.261719 0 L 651.261719 107.292969 L 46.898438 107.292969 Z M 46.898438 0 " clip-rule="nonzero"/></clipPath><clipPath id="76c59e3c3e"><path d="M 57.390625 0 L 640.648438 0 C 646.441406 0 651.136719 4.695312 651.136719 10.488281 L 651.136719 96.804688 C 651.136719 102.597656 646.441406 107.292969 640.648438 107.292969 L 57.390625 107.292969 C 51.597656 107.292969 46.898438 102.597656 46.898438 96.804688 L 46.898438 10.488281 C 46.898438 4.695312 51.597656 0 57.390625 0 Z M 57.390625 0 " clip-rule="nonzero"/></clipPath><clipPath id="5bd5479455"><path d="M 0.898438 0 L 605.261719 0 L 605.261719 107.292969 L 0.898438 107.292969 Z M 0.898438 0 " clip-rule="nonzero"/></clipPath><clipPath id="00998038a0"><path d="M 11.390625 0 L 594.648438 0 C 600.441406 0 605.136719 4.695312 605.136719 10.488281 L 605.136719 96.804688 C 605.136719 102.597656 600.441406 107.292969 594.648438 107.292969 L 11.390625 107.292969 C 5.597656 107.292969 0.898438 102.597656 0.898438 96.804688 L 0.898438 10.488281 C 0.898438 4.695312 5.597656 0 11.390625 0 Z M 11.390625 0 " clip-rule="nonzero"/></clipPath><clipPath id="af2c09bac8"><rect x="0" width="606" y="0" height="108"/></clipPath><clipPath id="db469adb40"><path d="M 201.730469 402.175781 L 496.378906 402.175781 L 496.378906 516.984375 L 201.730469 516.984375 Z M 201.730469 402.175781 " clip-rule="nonzero"/></clipPath><clipPath id="23f41a16c2"><path d="M 212.222656 402.175781 L 485.816406 402.175781 C 491.609375 402.175781 496.304688 406.871094 496.304688 412.664062 L 496.304688 506.496094 C 496.304688 512.289062 491.609375 516.984375 485.816406 516.984375 L 212.222656 516.984375 C 206.429688 516.984375 201.730469 512.289062 201.730469 506.496094 L 201.730469 412.664062 C 201.730469 406.871094 206.429688 402.175781 212.222656 402.175781 Z M 212.222656 402.175781 " clip-rule="nonzero"/></clipPath><clipPath id="ec5b8d7c3c"><path d="M 0.730469 0.175781 L 295.378906 0.175781 L 295.378906 114.984375 L 0.730469 114.984375 Z M 0.730469 0.175781 " clip-rule="nonzero"/></clipPath><clipPath id="ceb823531f"><path d="M 11.222656 0.175781 L 284.816406 0.175781 C 290.609375 0.175781 295.304688 4.871094 295.304688 10.664062 L 295.304688 104.496094 C 295.304688 110.289062 290.609375 114.984375 284.816406 114.984375 L 11.222656 114.984375 C 5.429688 114.984375 0.730469 110.289062 0.730469 104.496094 L 0.730469 10.664062 C 0.730469 4.871094 5.429688 0.175781 11.222656 0.175781 Z M 11.222656 0.175781 " clip-rule="nonzero"/></clipPath><clipPath id="a094ee6dac"><rect x="0" width="296" y="0" height="115"/></clipPath><clipPath id="cb9b17070d"><path d="M 339.261719 135.808594 L 376.957031 135.808594 L 376.957031 179.691406 L 339.261719 179.691406 Z M 339.261719 135.808594 " clip-rule="nonzero"/></clipPath><clipPath id="0dc206d5ca"><path d="M 358.109375 179.554688 L 339.261719 157.679688 L 350.195312 157.679688 L 350.195312 135.808594 L 366.023438 135.808594 L 366.023438 157.679688 L 376.957031 157.679688 Z M 358.109375 179.554688 " clip-rule="nonzero"/></clipPath><clipPath id="e450378603"><path d="M 0.261719 0.808594 L 37.957031 0.808594 L 37.957031 44.585938 L 0.261719 44.585938 Z M 0.261719 0.808594 " clip-rule="nonzero"/></clipPath><clipPath id="caaf6969d4"><path d="M 19.109375 44.554688 L 0.261719 22.679688 L 11.195312 22.679688 L 11.195312 0.808594 L 27.023438 0.808594 L 27.023438 22.679688 L 37.957031 22.679688 Z M 19.109375 44.554688 " clip-rule="nonzero"/></clipPath><clipPath id="14f5a582a3"><rect x="0" width="38" y="0" height="45"/></clipPath><clipPath id="97176336a1"><path d="M 339.261719 331.4375 L 376.957031 331.4375 L 376.957031 375.320312 L 339.261719 375.320312 Z M 339.261719 331.4375 " clip-rule="nonzero"/></clipPath><clipPath id="7fc5b302c8"><path d="M 358.109375 375.183594 L 339.261719 353.3125 L 350.195312 353.3125 L 350.195312 331.4375 L 366.023438 331.4375 L 366.023438 353.3125 L 376.957031 353.3125 Z M 358.109375 375.183594 " clip-rule="nonzero"/></clipPath><clipPath id="5b772628f5"><path d="M 0.261719 0.4375 L 37.957031 0.4375 L 37.957031 44.238281 L 0.261719 44.238281 Z M 0.261719 0.4375 " clip-rule="nonzero"/></clipPath><clipPath id="61445b7e2e"><path d="M 19.109375 44.183594 L 0.261719 22.3125 L 11.195312 22.3125 L 11.195312 0.4375 L 27.023438 0.4375 L 27.023438 22.3125 L 37.957031 22.3125 Z M 19.109375 44.183594 " clip-rule="nonzero"/></clipPath><clipPath id="5b815fa422"><rect x="0" width="38" y="0" height="45"/></clipPath></defs><g clip-path="url(#25b61f04e1)"><g clip-path="url(#a3b8e6b4a9)"><g transform="matrix(1, 0, 0, 1, 0, 193)"><g clip-path="url(#f515d281c2)"><g clip-path="url(#39335101ac)"><g clip-path="url(#0961fddef5)"><path fill="#176598" d="M 0.339844 0.789062 L 704.410156 0.789062 L 704.410156 117 L 0.339844 117 Z M 0.339844 0.789062 " fill-opacity="1" fill-rule="nonzero"/></g></g></g></g></g></g><g fill="#ffffff" fill-opacity="1"><g transform="translate(15.431145, 241.7434)"><g><path d="M 15.140625 -2.484375 L 15.140625 0 L 1.359375 0 L 1.359375 -2.484375 L 9.796875 -2.484375 L 9.796875 -11.53125 C 9.796875 -12.59375 9.5625 -13.363281 9.09375 -13.84375 C 8.632812 -14.320312 7.957031 -14.5625 7.0625 -14.5625 L 1.359375 -14.5625 L 1.359375 -17.046875 L 7.890625 -17.046875 C 9.503906 -17.046875 10.765625 -16.585938 11.671875 -15.671875 C 12.585938 -14.765625 13.046875 -13.332031 13.046875 -11.375 L 13.046875 -2.484375 Z M 15.140625 -2.484375 "/></g></g></g><g fill="#ffffff" fill-opacity="1"><g transform="translate(31.623206, 241.7434)"><g><path d="M 10.53125 -7.3125 L 14.765625 0 L 1.0625 0 L 1.0625 -2.484375 L 10.015625 -2.484375 L 1.546875 -17.046875 L 4.859375 -17.046875 L 8.765625 -10.3125 L 11.578125 -17.046875 L 14.828125 -17.046875 Z M 10.53125 -7.3125 "/></g></g></g><g fill="#ffffff" fill-opacity="1"><g transform="translate(47.875919, 241.7434)"><g><path d="M 17.46875 -8.578125 C 17.46875 -5.753906 16.835938 -3.554688 15.578125 -1.984375 C 14.328125 -0.421875 12.550781 0.359375 10.25 0.359375 C 9.40625 0.359375 8.535156 0.257812 7.640625 0.0625 L 7.96875 -2.421875 C 8.738281 -2.265625 9.398438 -2.1875 9.953125 -2.1875 C 11.484375 -2.1875 12.601562 -2.71875 13.3125 -3.78125 C 14.019531 -4.851562 14.375 -6.421875 14.375 -8.484375 C 14.375 -10.691406 14.035156 -12.273438 13.359375 -13.234375 C 12.679688 -14.191406 11.71875 -14.671875 10.46875 -14.671875 C 9.488281 -14.671875 8.691406 -14.394531 8.078125 -13.84375 C 7.460938 -13.289062 7.054688 -12.546875 6.859375 -11.609375 L 4.828125 0 L 1.578125 0 L 3.765625 -11.734375 L 1.390625 -17.046875 L 4.765625 -17.046875 L 6.125 -13.46875 C 6.550781 -14.738281 7.195312 -15.691406 8.0625 -16.328125 C 8.9375 -16.960938 9.929688 -17.28125 11.046875 -17.28125 C 13.066406 -17.28125 14.640625 -16.578125 15.765625 -15.171875 C 16.898438 -13.773438 17.46875 -11.578125 17.46875 -8.578125 Z M 17.46875 -8.578125 "/></g></g></g><g fill="#ffffff" fill-opacity="1"><g transform="translate(66.706018, 241.7434)"><g/></g></g><g fill="#ffffff" fill-opacity="1"><g transform="translate(72.770459, 241.7434)"><g><path d="M 0.609375 -1.796875 C 1.773438 -1.910156 2.5625 -2.21875 2.96875 -2.71875 C 3.375 -3.226562 3.578125 -4.050781 3.578125 -5.1875 L 3.578125 -17.046875 L 11.765625 -17.046875 C 13.378906 -17.046875 14.640625 -16.585938 15.546875 -15.671875 C 16.460938 -14.765625 16.921875 -13.332031 16.921875 -11.375 L 16.921875 0 L 13.671875 0 L 13.671875 -11.53125 C 13.671875 -12.59375 13.4375 -13.363281 12.96875 -13.84375 C 12.507812 -14.320312 11.835938 -14.5625 10.953125 -14.5625 L 6.828125 -14.5625 L 6.828125 -5.546875 C 6.828125 -3.546875 6.359375 -2.085938 5.421875 -1.171875 C 4.492188 -0.265625 2.988281 0.285156 0.90625 0.484375 Z M 0.609375 -1.796875 "/></g></g></g><g fill="#ffffff" fill-opacity="1"><g transform="translate(91.509597, 241.7434)"><g><path d="M 1.328125 -2.484375 L 6.25 -2.484375 L 6.25 -12.015625 C 6.25 -12.878906 6.078125 -13.507812 5.734375 -13.90625 C 5.390625 -14.300781 4.875 -14.550781 4.1875 -14.65625 L 2.125 -14.953125 L 2.546875 -17.40625 L 5.703125 -16.953125 C 6.910156 -16.773438 7.84375 -16.265625 8.5 -15.421875 C 9.164062 -14.578125 9.5 -13.460938 9.5 -12.078125 L 9.5 0 L 1.328125 0 Z M 1.328125 -2.484375 "/></g></g></g><g fill="#ffffff" fill-opacity="1"><g transform="translate(102.850103, 241.7434)"><g><path d="M 2.125 -13.5 L 1.765625 -17.046875 L 4.96875 -17.046875 L 5.375 -13.5 L 5.375 0 L 2.125 0 Z M 2.125 -13.5 "/></g></g></g><g fill="#ffffff" fill-opacity="1"><g transform="translate(110.127441, 241.7434)"><g><path d="M 17.46875 -8.578125 C 17.46875 -5.753906 16.835938 -3.554688 15.578125 -1.984375 C 14.328125 -0.421875 12.550781 0.359375 10.25 0.359375 C 9.40625 0.359375 8.535156 0.257812 7.640625 0.0625 L 7.96875 -2.421875 C 8.738281 -2.265625 9.398438 -2.1875 9.953125 -2.1875 C 11.484375 -2.1875 12.601562 -2.71875 13.3125 -3.78125 C 14.019531 -4.851562 14.375 -6.421875 14.375 -8.484375 C 14.375 -10.691406 14.035156 -12.273438 13.359375 -13.234375 C 12.679688 -14.191406 11.71875 -14.671875 10.46875 -14.671875 C 9.488281 -14.671875 8.691406 -14.394531 8.078125 -13.84375 C 7.460938 -13.289062 7.054688 -12.546875 6.859375 -11.609375 L 4.828125 0 L 1.578125 0 L 3.765625 -11.734375 L 1.390625 -17.046875 L 4.765625 -17.046875 L 6.125 -13.46875 C 6.550781 -14.738281 7.195312 -15.691406 8.0625 -16.328125 C 8.9375 -16.960938 9.929688 -17.28125 11.046875 -17.28125 C 13.066406 -17.28125 14.640625 -16.578125 15.765625 -15.171875 C 16.898438 -13.773438 17.46875 -11.578125 17.46875 -8.578125 Z M 17.46875 -8.578125 "/></g></g></g><g fill="#ffffff" fill-opacity="1"><g transform="translate(128.95754, 241.7434)"><g><path d="M 0.609375 -1.796875 C 1.773438 -1.910156 2.5625 -2.21875 2.96875 -2.71875 C 3.375 -3.226562 3.578125 -4.050781 3.578125 -5.1875 L 3.578125 -17.046875 L 11.765625 -17.046875 C 13.378906 -17.046875 14.640625 -16.585938 15.546875 -15.671875 C 16.460938 -14.765625 16.921875 -13.332031 16.921875 -11.375 L 16.921875 0 L 13.671875 0 L 13.671875 -11.53125 C 13.671875 -12.59375 13.4375 -13.363281 12.96875 -13.84375 C 12.507812 -14.320312 11.835938 -14.5625 10.953125 -14.5625 L 6.828125 -14.5625 L 6.828125 -5.546875 C 6.828125 -3.546875 6.359375 -2.085938 5.421875 -1.171875 C 4.492188 -0.265625 2.988281 0.285156 0.90625 0.484375 Z M 0.609375 -1.796875 "/></g></g></g><g fill="#ffffff" fill-opacity="1"><g transform="translate(147.696678, 241.7434)"><g><path d="M 2.484375 -17.734375 L 2.390625 -20.890625 L 5.578125 -20.890625 L 5.484375 -17.734375 L 4.890625 -12.40625 L 3.09375 -12.40625 Z M 8.375 -17.734375 L 8.28125 -20.890625 L 11.46875 -20.890625 L 11.375 -17.734375 L 10.78125 -12.40625 L 8.984375 -12.40625 Z M 8.375 -17.734375 "/></g></g></g><g fill="#ffffff" fill-opacity="1"><g transform="translate(161.58426, 241.7434)"><g/></g></g><g fill="#ffffff" fill-opacity="1"><g transform="translate(167.648702, 241.7434)"><g><path d="M 0.609375 -1.796875 C 1.773438 -1.910156 2.5625 -2.21875 2.96875 -2.71875 C 3.375 -3.226562 3.578125 -4.050781 3.578125 -5.1875 L 3.578125 -17.046875 L 11.765625 -17.046875 C 13.378906 -17.046875 14.640625 -16.585938 15.546875 -15.671875 C 16.460938 -14.765625 16.921875 -13.332031 16.921875 -11.375 L 16.921875 0 L 13.671875 0 L 13.671875 -11.53125 C 13.671875 -12.59375 13.4375 -13.363281 12.96875 -13.84375 C 12.507812 -14.320312 11.835938 -14.5625 10.953125 -14.5625 L 6.828125 -14.5625 L 6.828125 -5.546875 C 6.828125 -3.546875 6.359375 -2.085938 5.421875 -1.171875 C 4.492188 -0.265625 2.988281 0.285156 0.90625 0.484375 Z M 0.609375 -1.796875 "/></g></g></g><g fill="#ffffff" fill-opacity="1"><g transform="translate(186.387839, 241.7434)"><g><path d="M 15.140625 -2.484375 L 15.140625 0 L 1.359375 0 L 1.359375 -2.484375 L 9.796875 -2.484375 L 9.796875 -11.53125 C 9.796875 -12.59375 9.5625 -13.363281 9.09375 -13.84375 C 8.632812 -14.320312 7.957031 -14.5625 7.0625 -14.5625 L 1.359375 -14.5625 L 1.359375 -17.046875 L 7.890625 -17.046875 C 9.503906 -17.046875 10.765625 -16.585938 11.671875 -15.671875 C 12.585938 -14.765625 13.046875 -13.332031 13.046875 -11.375 L 13.046875 -2.484375 Z M 15.140625 -2.484375 "/></g></g></g><g fill="#ffffff" fill-opacity="1"><g transform="translate(202.5799, 241.7434)"><g><path d="M 2.125 -13.5 L 1.765625 -17.046875 L 4.96875 -17.046875 L 5.375 -13.5 L 5.375 -8.890625 L 5.34375 -6.96875 L 2.125 -6.375 Z M 2.125 -13.5 "/></g></g></g><g fill="#ffffff" fill-opacity="1"><g transform="translate(209.402398, 241.7434)"><g><path d="M 0.609375 -1.796875 C 1.773438 -1.910156 2.5625 -2.21875 2.96875 -2.71875 C 3.375 -3.226562 3.578125 -4.050781 3.578125 -5.1875 L 3.578125 -17.046875 L 11.765625 -17.046875 C 13.378906 -17.046875 14.640625 -16.585938 15.546875 -15.671875 C 16.460938 -14.765625 16.921875 -13.332031 16.921875 -11.375 L 16.921875 0 L 13.671875 0 L 13.671875 -11.53125 C 13.671875 -12.59375 13.4375 -13.363281 12.96875 -13.84375 C 12.507812 -14.320312 11.835938 -14.5625 10.953125 -14.5625 L 6.828125 -14.5625 L 6.828125 -5.546875 C 6.828125 -3.546875 6.359375 -2.085938 5.421875 -1.171875 C 4.492188 -0.265625 2.988281 0.285156 0.90625 0.484375 Z M 0.609375 -1.796875 "/></g></g></g><g fill="#ffffff" fill-opacity="1"><g transform="translate(228.141524, 241.7434)"><g><path d="M 15.140625 -2.484375 L 15.140625 0 L 1.359375 0 L 1.359375 -2.484375 L 9.796875 -2.484375 L 9.796875 -11.53125 C 9.796875 -12.59375 9.5625 -13.363281 9.09375 -13.84375 C 8.632812 -14.320312 7.957031 -14.5625 7.0625 -14.5625 L 1.359375 -14.5625 L 1.359375 -17.046875 L 7.890625 -17.046875 C 9.503906 -17.046875 10.765625 -16.585938 11.671875 -15.671875 C 12.585938 -14.765625 13.046875 -13.332031 13.046875 -11.375 L 13.046875 -2.484375 Z M 15.140625 -2.484375 "/></g></g></g><g fill="#ffffff" fill-opacity="1"><g transform="translate(244.333597, 241.7434)"><g/></g></g><g fill="#ffffff" fill-opacity="1"><g transform="translate(250.398027, 241.7434)"><g><path d="M 2.484375 -17.734375 L 2.390625 -20.890625 L 5.578125 -20.890625 L 5.484375 -17.734375 L 4.890625 -12.40625 L 3.09375 -12.40625 Z M 8.375 -17.734375 L 8.28125 -20.890625 L 11.46875 -20.890625 L 11.375 -17.734375 L 10.78125 -12.40625 L 8.984375 -12.40625 Z M 8.375 -17.734375 "/></g></g></g><g fill="#ffffff" fill-opacity="1"><g transform="translate(264.285609, 241.7434)"><g><path d="M 15.140625 -2.484375 L 15.140625 0 L 1.359375 0 L 1.359375 -2.484375 L 9.796875 -2.484375 L 9.796875 -11.53125 C 9.796875 -12.59375 9.5625 -13.363281 9.09375 -13.84375 C 8.632812 -14.320312 7.957031 -14.5625 7.0625 -14.5625 L 1.359375 -14.5625 L 1.359375 -17.046875 L 7.890625 -17.046875 C 9.503906 -17.046875 10.765625 -16.585938 11.671875 -15.671875 C 12.585938 -14.765625 13.046875 -13.332031 13.046875 -11.375 L 13.046875 -2.484375 Z M 15.140625 -2.484375 "/></g></g></g><g fill="#ffffff" fill-opacity="1"><g transform="translate(280.477659, 241.7434)"><g><path d="M 2.125 -13.5 L 1.765625 -17.046875 L 4.96875 -17.046875 L 5.375 -13.5 L 5.375 0 L 2.125 0 Z M 2.125 -13.5 "/></g></g></g><g fill="#ffffff" fill-opacity="1"><g transform="translate(287.75502, 241.7434)"><g><path d="M 18.3125 -12.375 C 18.351562 -8.101562 17.160156 -4.910156 14.734375 -2.796875 C 12.304688 -0.691406 8.585938 0.335938 3.578125 0.296875 L 1.359375 -17.046875 L 4.453125 -17.046875 L 5.421875 -8.984375 C 6.535156 -9.523438 7.296875 -10.238281 7.703125 -11.125 C 8.109375 -12.019531 8.332031 -13.359375 8.375 -15.140625 L 8.375 -17.015625 L 11.46875 -17.015625 L 11.4375 -15.1875 C 11.394531 -12.96875 10.945312 -11.1875 10.09375 -9.84375 C 9.25 -8.5 7.796875 -7.410156 5.734375 -6.578125 L 6.21875 -2.453125 C 9.269531 -2.660156 11.519531 -3.570312 12.96875 -5.1875 C 14.414062 -6.800781 15.128906 -9.144531 15.109375 -12.21875 L 15.046875 -17.046875 L 18.28125 -17.046875 Z M 18.3125 -12.375 "/></g></g></g><g fill="#ffffff" fill-opacity="1"><g transform="translate(307.525087, 241.7434)"><g><path d="M 2.125 -13.5 L 1.765625 -17.046875 L 4.96875 -17.046875 L 5.375 -13.5 L 5.375 -8.890625 L 5.34375 -6.96875 L 2.125 -6.375 Z M 2.125 -13.5 "/></g></g></g><g fill="#ffffff" fill-opacity="1"><g transform="translate(314.802448, 241.7434)"><g><path d="M 2.125 -13.5 L 1.765625 -17.046875 L 4.96875 -17.046875 L 5.375 -13.5 L 5.375 -8.890625 L 5.34375 -6.96875 L 2.125 -6.375 Z M 2.125 -13.5 "/></g></g></g><g fill="#ffffff" fill-opacity="1"><g transform="translate(322.079764, 241.7434)"><g/></g></g><g fill="#ffffff" fill-opacity="1"><g transform="translate(328.144217, 241.7434)"><g><path d="M 2.125 -13.5 L 1.765625 -17.046875 L 4.96875 -17.046875 L 5.375 -13.5 L 5.375 -8.890625 L 5.34375 -6.96875 L 2.125 -6.375 Z M 2.125 -13.5 "/></g></g></g><g fill="#ffffff" fill-opacity="1"><g transform="translate(335.421556, 241.7434)"><g><path d="M 2 -2.484375 L 7.484375 -2.484375 C 8.878906 -2.484375 9.984375 -2.894531 10.796875 -3.71875 C 11.609375 -4.550781 12.015625 -5.816406 12.015625 -7.515625 L 12.015625 -9.546875 C 12.015625 -11.148438 11.6875 -12.382812 11.03125 -13.25 C 10.382812 -14.125 9.414062 -14.5625 8.125 -14.5625 L 5.390625 -14.5625 L 4.734375 -11.5625 C 4.628906 -11.09375 4.578125 -10.695312 4.578125 -10.375 C 4.578125 -9.769531 4.75 -9.300781 5.09375 -8.96875 C 5.4375 -8.632812 6.003906 -8.382812 6.796875 -8.21875 L 6.21875 -6.125 C 4.644531 -6.226562 3.5 -6.628906 2.78125 -7.328125 C 2.0625 -8.023438 1.703125 -8.988281 1.703125 -10.21875 C 1.703125 -10.800781 1.75 -11.335938 1.84375 -11.828125 L 3.03125 -17.046875 L 8.828125 -17.046875 C 10.847656 -17.046875 12.421875 -16.378906 13.546875 -15.046875 C 14.679688 -13.710938 15.25 -11.84375 15.25 -9.4375 L 15.25 -7.671875 C 15.25 -5.140625 14.601562 -3.226562 13.3125 -1.9375 C 12.019531 -0.644531 10.300781 0 8.15625 0 L 2 0 Z M 2 -2.484375 "/></g></g></g><g fill="#ffffff" fill-opacity="1"><g transform="translate(352.038137, 241.7434)"><g/></g></g><g fill="#ffffff" fill-opacity="1"><g transform="translate(358.102589, 241.7434)"><g><path d="M 13.53125 -17.046875 L 13.53125 -14.34375 L 7.859375 0 L 4.609375 0 L 10.28125 -14.5625 L 1.15625 -14.5625 L 1.15625 -21.75 L 4.09375 -21.75 L 4.09375 -17.046875 Z M 13.53125 -17.046875 "/></g></g></g><g fill="#ffffff" fill-opacity="1"><g transform="translate(372.83919, 241.7434)"><g><path d="M 15.25 -17.046875 C 15.25 -12.960938 15.09375 -9.894531 14.78125 -7.84375 C 14.46875 -5.789062 13.707031 -4.117188 12.5 -2.828125 C 11.300781 -1.546875 9.367188 -0.644531 6.703125 -0.125 L 1 1 L 0.546875 -1.546875 L 5.671875 -2.546875 L 1.9375 -17.046875 L 5.1875 -17.046875 L 8.578125 -3.3125 C 9.671875 -3.789062 10.457031 -4.515625 10.9375 -5.484375 C 11.425781 -6.453125 11.734375 -7.679688 11.859375 -9.171875 C 11.984375 -10.660156 12.046875 -12.890625 12.046875 -15.859375 L 12.046875 -17.046875 Z M 15.25 -17.046875 "/></g></g></g><g fill="#ffffff" fill-opacity="1"><g transform="translate(389.54671, 241.7434)"><g/></g></g><g fill="#ffffff" fill-opacity="1"><g transform="translate(395.611162, 241.7434)"><g><path d="M 0.609375 -1.796875 C 1.773438 -1.910156 2.5625 -2.21875 2.96875 -2.71875 C 3.375 -3.226562 3.578125 -4.050781 3.578125 -5.1875 L 3.578125 -17.046875 L 11.765625 -17.046875 C 13.378906 -17.046875 14.640625 -16.585938 15.546875 -15.671875 C 16.460938 -14.765625 16.921875 -13.332031 16.921875 -11.375 L 16.921875 0 L 13.671875 0 L 13.671875 -11.53125 C 13.671875 -12.59375 13.4375 -13.363281 12.96875 -13.84375 C 12.507812 -14.320312 11.835938 -14.5625 10.953125 -14.5625 L 6.828125 -14.5625 L 6.828125 -5.546875 C 6.828125 -3.546875 6.359375 -2.085938 5.421875 -1.171875 C 4.492188 -0.265625 2.988281 0.285156 0.90625 0.484375 Z M 0.609375 -1.796875 "/></g></g></g><g fill="#ffffff" fill-opacity="1"><g transform="translate(414.350289, 241.7434)"><g><path d="M 2.125 -13.5 L 1.765625 -17.046875 L 4.96875 -17.046875 L 5.375 -13.5 L 5.375 0 L 2.125 0 Z M 2.125 -13.5 "/></g></g></g><g fill="#ffffff" fill-opacity="1"><g transform="translate(421.62765, 241.7434)"><g><path d="M 2.125 -13.5 L 1.765625 -17.046875 L 4.96875 -17.046875 L 5.375 -13.5 L 5.375 -8.890625 L 5.34375 -6.96875 L 2.125 -6.375 Z M 2.125 -13.5 "/></g></g></g><g fill="#ffffff" fill-opacity="1"><g transform="translate(428.904966, 241.7434)"><g><path d="M 10.53125 -17.046875 C 12.164062 -17.046875 13.429688 -16.550781 14.328125 -15.5625 C 15.222656 -14.570312 15.671875 -13.070312 15.671875 -11.0625 L 15.671875 0 L 12.4375 0 L 12.4375 -11.21875 C 12.4375 -13.445312 11.523438 -14.5625 9.703125 -14.5625 L 5.03125 -14.5625 L 5.03125 0 L 1.796875 0 L 1.796875 -17.046875 Z M 10.53125 -17.046875 "/></g></g></g><g fill="#ffffff" fill-opacity="1"><g transform="translate(446.431229, 241.7434)"><g><path d="M 1.328125 -2.484375 L 6.25 -2.484375 L 6.25 -12.015625 C 6.25 -12.878906 6.078125 -13.507812 5.734375 -13.90625 C 5.390625 -14.300781 4.875 -14.550781 4.1875 -14.65625 L 2.125 -14.953125 L 2.546875 -17.40625 L 5.703125 -16.953125 C 6.910156 -16.773438 7.84375 -16.265625 8.5 -15.421875 C 9.164062 -14.578125 9.5 -13.460938 9.5 -12.078125 L 9.5 0 L 1.328125 0 Z M 1.328125 -2.484375 "/></g></g></g><g fill="#ffffff" fill-opacity="1"><g transform="translate(457.771712, 241.7434)"><g><path d="M 11.953125 -11.53125 C 11.953125 -12.59375 11.71875 -13.363281 11.25 -13.84375 C 10.78125 -14.320312 10.101562 -14.5625 9.21875 -14.5625 L 1.765625 -14.5625 L 1.765625 -17.046875 L 10.03125 -17.046875 C 11.65625 -17.046875 12.921875 -16.585938 13.828125 -15.671875 C 14.734375 -14.765625 15.1875 -13.332031 15.1875 -11.375 L 15.1875 0 L 11.953125 0 Z M 1.671875 -8.25 L 2.125 -10.28125 L 4.90625 -10.28125 L 4.90625 0 L 1.671875 0 Z M 1.671875 -8.25 "/></g></g></g><g fill="#ffffff" fill-opacity="1"><g transform="translate(474.69152, 241.7434)"><g/></g></g><g fill="#ffffff" fill-opacity="1"><g transform="translate(480.755973, 241.7434)"><g><path d="M 0.609375 -1.796875 C 1.773438 -1.910156 2.5625 -2.21875 2.96875 -2.71875 C 3.375 -3.226562 3.578125 -4.050781 3.578125 -5.1875 L 3.578125 -17.046875 L 11.765625 -17.046875 C 13.378906 -17.046875 14.640625 -16.585938 15.546875 -15.671875 C 16.460938 -14.765625 16.921875 -13.332031 16.921875 -11.375 L 16.921875 0 L 13.671875 0 L 13.671875 -11.53125 C 13.671875 -12.59375 13.4375 -13.363281 12.96875 -13.84375 C 12.507812 -14.320312 11.835938 -14.5625 10.953125 -14.5625 L 6.828125 -14.5625 L 6.828125 -5.546875 C 6.828125 -3.546875 6.359375 -2.085938 5.421875 -1.171875 C 4.492188 -0.265625 2.988281 0.285156 0.90625 0.484375 Z M 0.609375 -1.796875 "/></g></g></g><g fill="#ffffff" fill-opacity="1"><g transform="translate(499.4951, 241.7434)"><g><path d="M 13.53125 -17.046875 L 13.53125 -14.34375 L 7.859375 0 L 4.609375 0 L 10.28125 -14.5625 L 1.15625 -14.5625 L 1.15625 -21.75 L 4.09375 -21.75 L 4.09375 -17.046875 Z M 13.53125 -17.046875 "/></g></g></g><g fill="#ffffff" fill-opacity="1"><g transform="translate(514.2317, 241.7434)"><g><path d="M 15.140625 -2.484375 L 15.140625 0 L 1.359375 0 L 1.359375 -2.484375 L 9.796875 -2.484375 L 9.796875 -11.53125 C 9.796875 -12.59375 9.5625 -13.363281 9.09375 -13.84375 C 8.632812 -14.320312 7.957031 -14.5625 7.0625 -14.5625 L 1.359375 -14.5625 L 1.359375 -17.046875 L 7.890625 -17.046875 C 9.503906 -17.046875 10.765625 -16.585938 11.671875 -15.671875 C 12.585938 -14.765625 13.046875 -13.332031 13.046875 -11.375 L 13.046875 -2.484375 Z M 15.140625 -2.484375 "/></g></g></g><g fill="#ffffff" fill-opacity="1"><g transform="translate(530.423773, 241.7434)"><g><path d="M 7 -2.484375 C 7.988281 -2.585938 8.820312 -2.828125 9.5 -3.203125 C 10.1875 -3.578125 10.734375 -4.203125 11.140625 -5.078125 C 11.554688 -5.960938 11.816406 -7.171875 11.921875 -8.703125 L 12.375 -14.5625 L 1.640625 -14.5625 L 1.640625 -17.046875 L 15.859375 -17.046875 L 15.734375 -14.859375 L 15.3125 -9.46875 C 15.175781 -6.488281 14.4375 -4.179688 13.09375 -2.546875 C 11.757812 -0.910156 9.832031 -0.0507812 7.3125 0.03125 Z M 1.578125 -8.546875 L 2.03125 -10.609375 L 4.828125 -10.609375 L 4.828125 6.0625 L 1.578125 6.0625 Z M 1.578125 -8.546875 "/></g></g></g><g fill="#ffffff" fill-opacity="1"><g transform="translate(547.616465, 241.7434)"><g><path d="M 13.53125 -17.046875 L 13.53125 -14.34375 L 7.859375 0 L 4.609375 0 L 10.28125 -14.5625 L 1.15625 -14.5625 L 1.15625 -21.75 L 4.09375 -21.75 L 4.09375 -17.046875 Z M 13.53125 -17.046875 "/></g></g></g><g fill="#ffffff" fill-opacity="1"><g transform="translate(562.353066, 241.7434)"><g><path d="M 2.484375 -17.734375 L 2.390625 -20.890625 L 5.578125 -20.890625 L 5.484375 -17.734375 L 4.890625 -12.40625 L 3.09375 -12.40625 Z M 8.375 -17.734375 L 8.28125 -20.890625 L 11.46875 -20.890625 L 11.375 -17.734375 L 10.78125 -12.40625 L 8.984375 -12.40625 Z M 8.375 -17.734375 "/></g></g></g><g fill="#ffffff" fill-opacity="1"><g transform="translate(576.240648, 241.7434)"><g/></g></g><g fill="#ffffff" fill-opacity="1"><g transform="translate(582.305101, 241.7434)"><g><path d="M 13.53125 -17.046875 L 13.53125 -14.34375 L 7.859375 0 L 4.609375 0 L 10.28125 -14.5625 L 1.15625 -14.5625 L 1.15625 -21.75 L 4.09375 -21.75 L 4.09375 -17.046875 Z M 13.53125 -17.046875 "/></g></g></g><g fill="#ffffff" fill-opacity="1"><g transform="translate(597.041701, 241.7434)"><g><path d="M 15.25 -17.046875 C 15.25 -12.960938 15.09375 -9.894531 14.78125 -7.84375 C 14.46875 -5.789062 13.707031 -4.117188 12.5 -2.828125 C 11.300781 -1.546875 9.367188 -0.644531 6.703125 -0.125 L 1 1 L 0.546875 -1.546875 L 5.671875 -2.546875 L 1.9375 -17.046875 L 5.1875 -17.046875 L 8.578125 -3.3125 C 9.671875 -3.789062 10.457031 -4.515625 10.9375 -5.484375 C 11.425781 -6.453125 11.734375 -7.679688 11.859375 -9.171875 C 11.984375 -10.660156 12.046875 -12.890625 12.046875 -15.859375 L 12.046875 -17.046875 Z M 15.25 -17.046875 "/></g></g></g><g fill="#ffffff" fill-opacity="1"><g transform="translate(613.749221, 241.7434)"><g/></g></g><g fill="#ffffff" fill-opacity="1"><g transform="translate(619.813674, 241.7434)"><g><path d="M 8.703125 -3.546875 L 11.796875 6.0625 L 8.671875 6.0625 L 1.21875 -17.046875 L 4.34375 -17.046875 L 7.40625 -7.546875 L 11.28125 -17.046875 L 14.34375 -17.046875 Z M 8.703125 -3.546875 "/></g></g></g><g fill="#ffffff" fill-opacity="1"><g transform="translate(634.853478, 241.7434)"><g><path d="M 2.125 -13.5 L 1.765625 -17.046875 L 4.96875 -17.046875 L 5.375 -13.5 L 5.375 0 L 2.125 0 Z M 2.125 -13.5 "/></g></g></g><g fill="#ffffff" fill-opacity="1"><g transform="translate(642.13084, 241.7434)"><g><path d="M 10.53125 -17.046875 C 12.164062 -17.046875 13.429688 -16.550781 14.328125 -15.5625 C 15.222656 -14.570312 15.671875 -13.070312 15.671875 -11.0625 L 15.671875 0 L 12.4375 0 L 12.4375 -11.21875 C 12.4375 -13.445312 11.523438 -14.5625 9.703125 -14.5625 L 5.03125 -14.5625 L 5.03125 0 L 1.796875 0 L 1.796875 -17.046875 Z M 10.53125 -17.046875 "/></g></g></g><g fill="#ffffff" fill-opacity="1"><g transform="translate(659.657057, 241.7434)"><g><path d="M 13.53125 -17.046875 L 13.53125 -14.34375 L 7.859375 0 L 4.609375 0 L 10.28125 -14.5625 L 1.15625 -14.5625 L 1.15625 -21.75 L 4.09375 -21.75 L 4.09375 -17.046875 Z M 13.53125 -17.046875 "/></g></g></g><g fill="#ffffff" fill-opacity="1"><g transform="translate(674.393703, 241.7434)"><g><path d="M 13.53125 -17.046875 L 13.53125 -14.34375 L 7.859375 0 L 4.609375 0 L 10.28125 -14.5625 L 1.15625 -14.5625 L 1.15625 -21.75 L 4.09375 -21.75 L 4.09375 -17.046875 Z M 13.53125 -17.046875 "/></g></g></g><g fill="#ffffff" fill-opacity="1"><g transform="translate(88.075796, 283.702857)"><g><path d="M 8.734375 -17.046875 C 10.753906 -17.046875 12.289062 -16.382812 13.34375 -15.0625 C 14.394531 -13.738281 14.921875 -11.863281 14.921875 -9.4375 L 14.921875 6.0625 L 11.671875 6.0625 L 11.671875 -9.546875 C 11.671875 -12.890625 10.429688 -14.5625 7.953125 -14.5625 L 5.15625 -14.5625 L 4.671875 -12.09375 C 4.585938 -11.675781 4.546875 -11.210938 4.546875 -10.703125 C 4.546875 -10.054688 4.664062 -9.539062 4.90625 -9.15625 C 5.15625 -8.769531 5.5625 -8.53125 6.125 -8.4375 L 5.453125 -6.421875 C 4.054688 -6.546875 3.050781 -6.941406 2.4375 -7.609375 C 1.820312 -8.273438 1.515625 -9.1875 1.515625 -10.34375 C 1.515625 -10.988281 1.585938 -11.625 1.734375 -12.25 L 2.765625 -17.046875 Z M 8.734375 -17.046875 "/></g></g></g><g fill="#ffffff" fill-opacity="1"><g transform="translate(104.904632, 283.702857)"><g><path d="M 8.703125 -11.015625 C 8.703125 -12.585938 8.984375 -13.769531 9.546875 -14.5625 L 1.359375 -14.5625 L 1.359375 -17.046875 L 14.890625 -17.046875 L 14.890625 -14.5625 L 12.609375 -14.5625 C 12.171875 -13.707031 11.953125 -12.523438 11.953125 -11.015625 L 11.953125 0 L 8.703125 0 Z M 8.703125 -11.015625 "/></g></g></g><g fill="#ffffff" fill-opacity="1"><g transform="translate(121.248307, 283.702857)"><g><path d="M 11.953125 -11.53125 C 11.953125 -12.59375 11.71875 -13.363281 11.25 -13.84375 C 10.78125 -14.320312 10.101562 -14.5625 9.21875 -14.5625 L 1.765625 -14.5625 L 1.765625 -17.046875 L 10.03125 -17.046875 C 11.65625 -17.046875 12.921875 -16.585938 13.828125 -15.671875 C 14.734375 -14.765625 15.1875 -13.332031 15.1875 -11.375 L 15.1875 0 L 11.953125 0 Z M 1.671875 -8.25 L 2.125 -10.28125 L 4.90625 -10.28125 L 4.90625 0 L 1.671875 0 Z M 1.671875 -8.25 "/></g></g></g><g fill="#ffffff" fill-opacity="1"><g transform="translate(138.168104, 283.702857)"><g/></g></g><g fill="#ffffff" fill-opacity="1"><g transform="translate(144.232546, 283.702857)"><g><path d="M 13.53125 -17.046875 L 13.53125 -14.34375 L 7.859375 0 L 4.609375 0 L 10.28125 -14.5625 L 1.15625 -14.5625 L 1.15625 -21.75 L 4.09375 -21.75 L 4.09375 -17.046875 Z M 13.53125 -17.046875 "/></g></g></g><g fill="#ffffff" fill-opacity="1"><g transform="translate(158.969146, 283.702857)"><g><path d="M 18.3125 -12.375 C 18.351562 -8.101562 17.160156 -4.910156 14.734375 -2.796875 C 12.304688 -0.691406 8.585938 0.335938 3.578125 0.296875 L 1.359375 -17.046875 L 4.453125 -17.046875 L 5.421875 -8.984375 C 6.535156 -9.523438 7.296875 -10.238281 7.703125 -11.125 C 8.109375 -12.019531 8.332031 -13.359375 8.375 -15.140625 L 8.375 -17.015625 L 11.46875 -17.015625 L 11.4375 -15.1875 C 11.394531 -12.96875 10.945312 -11.1875 10.09375 -9.84375 C 9.25 -8.5 7.796875 -7.410156 5.734375 -6.578125 L 6.21875 -2.453125 C 9.269531 -2.660156 11.519531 -3.570312 12.96875 -5.1875 C 14.414062 -6.800781 15.128906 -9.144531 15.109375 -12.21875 L 15.046875 -17.046875 L 18.28125 -17.046875 Z M 18.3125 -12.375 "/></g></g></g><g fill="#ffffff" fill-opacity="1"><g transform="translate(178.739236, 283.702857)"><g/></g></g><g fill="#ffffff" fill-opacity="1"><g transform="translate(184.803677, 283.702857)"><g><path d="M 2.125 -13.5 L 1.765625 -17.046875 L 4.96875 -17.046875 L 5.375 -13.5 L 5.375 6.0625 L 2.125 6.0625 Z M 2.125 -13.5 "/></g></g></g><g fill="#ffffff" fill-opacity="1"><g transform="translate(192.081016, 283.702857)"><g><path d="M 2.125 -13.5 L 1.765625 -17.046875 L 4.96875 -17.046875 L 5.375 -13.5 L 5.375 0 L 2.125 0 Z M 2.125 -13.5 "/></g></g></g><g fill="#ffffff" fill-opacity="1"><g transform="translate(199.358354, 283.702857)"><g><path d="M 2.125 -13.5 L 1.765625 -17.046875 L 4.96875 -17.046875 L 5.375 -13.5 L 5.375 -8.890625 L 5.34375 -6.96875 L 2.125 -6.375 Z M 2.125 -13.5 "/></g></g></g><g fill="#ffffff" fill-opacity="1"><g transform="translate(206.635693, 283.702857)"><g><path d="M 13.53125 -17.046875 L 13.53125 -14.34375 L 7.859375 0 L 4.609375 0 L 10.28125 -14.5625 L 1.15625 -14.5625 L 1.15625 -21.75 L 4.09375 -21.75 L 4.09375 -17.046875 Z M 13.53125 -17.046875 "/></g></g></g><g fill="#ffffff" fill-opacity="1"><g transform="translate(221.372293, 283.702857)"><g><path d="M 15.25 -17.046875 C 15.25 -12.960938 15.09375 -9.894531 14.78125 -7.84375 C 14.46875 -5.789062 13.707031 -4.117188 12.5 -2.828125 C 11.300781 -1.546875 9.367188 -0.644531 6.703125 -0.125 L 1 1 L 0.546875 -1.546875 L 5.671875 -2.546875 L 1.9375 -17.046875 L 5.1875 -17.046875 L 8.578125 -3.3125 C 9.671875 -3.789062 10.457031 -4.515625 10.9375 -5.484375 C 11.425781 -6.453125 11.734375 -7.679688 11.859375 -9.171875 C 11.984375 -10.660156 12.046875 -12.890625 12.046875 -15.859375 L 12.046875 -17.046875 Z M 15.25 -17.046875 "/></g></g></g><g fill="#ffffff" fill-opacity="1"><g transform="translate(238.079836, 283.702857)"><g><path d="M 11.953125 -11.53125 C 11.953125 -12.59375 11.71875 -13.363281 11.25 -13.84375 C 10.78125 -14.320312 10.101562 -14.5625 9.21875 -14.5625 L 1.765625 -14.5625 L 1.765625 -17.046875 L 10.03125 -17.046875 C 11.65625 -17.046875 12.921875 -16.585938 13.828125 -15.671875 C 14.734375 -14.765625 15.1875 -13.332031 15.1875 -11.375 L 15.1875 0 L 11.953125 0 Z M 1.671875 -8.25 L 2.125 -10.28125 L 4.90625 -10.28125 L 4.90625 0 L 1.671875 0 Z M 1.671875 -8.25 "/></g></g></g><g fill="#ffffff" fill-opacity="1"><g transform="translate(261.064074, 283.702857)"><g><path d="M 2.125 -13.5 L 1.765625 -17.046875 L 4.96875 -17.046875 L 5.375 -13.5 L 5.375 -8.890625 L 5.34375 -6.96875 L 2.125 -6.375 Z M 2.125 -13.5 "/></g></g></g><g fill="#ffffff" fill-opacity="1"><g transform="translate(268.341413, 283.702857)"><g><path d="M 13.53125 -17.046875 L 13.53125 -14.34375 L 7.859375 0 L 4.609375 0 L 10.28125 -14.5625 L 1.15625 -14.5625 L 1.15625 -21.75 L 4.09375 -21.75 L 4.09375 -17.046875 Z M 13.53125 -17.046875 "/></g></g></g><g fill="#ffffff" fill-opacity="1"><g transform="translate(282.168332, 283.702857)"><g><path d="M 13.3125 0 L 6.9375 -9.671875 L 3.9375 0 L 0.84375 0 L 4.1875 -10.4375 L 5.03125 -12.59375 L 2.25 -17.046875 L 5.546875 -17.046875 L 8.09375 -12.953125 L 10.640625 -9.125 L 11.40625 -11.765625 L 12.953125 -17.046875 L 16.078125 -17.046875 L 12.5625 -6.3125 L 16.765625 0 Z M 13.3125 0 "/></g></g></g><g fill="#ffffff" fill-opacity="1"><g transform="translate(299.937158, 283.702857)"><g><path d="M 17.46875 -8.578125 C 17.46875 -5.753906 16.835938 -3.554688 15.578125 -1.984375 C 14.328125 -0.421875 12.550781 0.359375 10.25 0.359375 C 9.40625 0.359375 8.535156 0.257812 7.640625 0.0625 L 7.96875 -2.421875 C 8.738281 -2.265625 9.398438 -2.1875 9.953125 -2.1875 C 11.484375 -2.1875 12.601562 -2.71875 13.3125 -3.78125 C 14.019531 -4.851562 14.375 -6.421875 14.375 -8.484375 C 14.375 -10.691406 14.035156 -12.273438 13.359375 -13.234375 C 12.679688 -14.191406 11.71875 -14.671875 10.46875 -14.671875 C 9.488281 -14.671875 8.691406 -14.394531 8.078125 -13.84375 C 7.460938 -13.289062 7.054688 -12.546875 6.859375 -11.609375 L 4.828125 0 L 1.578125 0 L 3.765625 -11.734375 L 1.390625 -17.046875 L 4.765625 -17.046875 L 6.125 -13.46875 C 6.550781 -14.738281 7.195312 -15.691406 8.0625 -16.328125 C 8.9375 -16.960938 9.929688 -17.28125 11.046875 -17.28125 C 13.066406 -17.28125 14.640625 -16.578125 15.765625 -15.171875 C 16.898438 -13.773438 17.46875 -11.578125 17.46875 -8.578125 Z M 17.46875 -8.578125 "/></g></g></g><g fill="#ffffff" fill-opacity="1"><g transform="translate(318.767245, 283.702857)"><g><path d="M 18.3125 -12.375 C 18.351562 -8.101562 17.160156 -4.910156 14.734375 -2.796875 C 12.304688 -0.691406 8.585938 0.335938 3.578125 0.296875 L 1.359375 -17.046875 L 4.453125 -17.046875 L 5.421875 -8.984375 C 6.535156 -9.523438 7.296875 -10.238281 7.703125 -11.125 C 8.109375 -12.019531 8.332031 -13.359375 8.375 -15.140625 L 8.375 -17.015625 L 11.46875 -17.015625 L 11.4375 -15.1875 C 11.394531 -12.96875 10.945312 -11.1875 10.09375 -9.84375 C 9.25 -8.5 7.796875 -7.410156 5.734375 -6.578125 L 6.21875 -2.453125 C 9.269531 -2.660156 11.519531 -3.570312 12.96875 -5.1875 C 14.414062 -6.800781 15.128906 -9.144531 15.109375 -12.21875 L 15.046875 -17.046875 L 18.28125 -17.046875 Z M 18.3125 -12.375 "/></g></g></g><g fill="#ffffff" fill-opacity="1"><g transform="translate(338.537335, 283.702857)"><g><path d="M 11.953125 -11.53125 C 11.953125 -12.59375 11.71875 -13.363281 11.25 -13.84375 C 10.78125 -14.320312 10.101562 -14.5625 9.21875 -14.5625 L 1.765625 -14.5625 L 1.765625 -17.046875 L 10.03125 -17.046875 C 11.65625 -17.046875 12.921875 -16.585938 13.828125 -15.671875 C 14.734375 -14.765625 15.1875 -13.332031 15.1875 -11.375 L 15.1875 0 L 11.953125 0 Z M 1.671875 -8.25 L 2.125 -10.28125 L 4.90625 -10.28125 L 4.90625 0 L 1.671875 0 Z M 1.671875 -8.25 "/></g></g></g><g fill="#ffffff" fill-opacity="1"><g transform="translate(355.457121, 283.702857)"><g/></g></g><g fill="#ffffff" fill-opacity="1"><g transform="translate(361.521573, 283.702857)"><g><path d="M 8.703125 -11.015625 C 8.703125 -12.585938 8.984375 -13.769531 9.546875 -14.5625 L 1.359375 -14.5625 L 1.359375 -17.046875 L 14.890625 -17.046875 L 14.890625 -14.5625 L 12.609375 -14.5625 C 12.171875 -13.707031 11.953125 -12.523438 11.953125 -11.015625 L 11.953125 0 L 8.703125 0 Z M 8.703125 -11.015625 "/></g></g></g><g fill="#ffffff" fill-opacity="1"><g transform="translate(377.865248, 283.702857)"><g><path d="M 10.53125 -7.3125 L 14.765625 0 L 1.0625 0 L 1.0625 -2.484375 L 10.015625 -2.484375 L 1.546875 -17.046875 L 4.859375 -17.046875 L 8.765625 -10.3125 L 11.578125 -17.046875 L 14.828125 -17.046875 Z M 10.53125 -7.3125 "/></g></g></g><g fill="#ffffff" fill-opacity="1"><g transform="translate(394.117961, 283.702857)"><g><path d="M 15.140625 -2.484375 L 15.140625 0 L 1.359375 0 L 1.359375 -2.484375 L 9.796875 -2.484375 L 9.796875 -11.53125 C 9.796875 -12.59375 9.5625 -13.363281 9.09375 -13.84375 C 8.632812 -14.320312 7.957031 -14.5625 7.0625 -14.5625 L 1.359375 -14.5625 L 1.359375 -17.046875 L 7.890625 -17.046875 C 9.503906 -17.046875 10.765625 -16.585938 11.671875 -15.671875 C 12.585938 -14.765625 13.046875 -13.332031 13.046875 -11.375 L 13.046875 -2.484375 Z M 15.140625 -2.484375 "/></g></g></g><g fill="#ffffff" fill-opacity="1"><g transform="translate(410.310034, 283.702857)"><g/></g></g><g fill="#ffffff" fill-opacity="1"><g transform="translate(416.374464, 283.702857)"><g><path d="M 0.609375 -1.796875 C 1.773438 -1.910156 2.5625 -2.21875 2.96875 -2.71875 C 3.375 -3.226562 3.578125 -4.050781 3.578125 -5.1875 L 3.578125 -17.046875 L 11.765625 -17.046875 C 13.378906 -17.046875 14.640625 -16.585938 15.546875 -15.671875 C 16.460938 -14.765625 16.921875 -13.332031 16.921875 -11.375 L 16.921875 0 L 13.671875 0 L 13.671875 -11.53125 C 13.671875 -12.59375 13.4375 -13.363281 12.96875 -13.84375 C 12.507812 -14.320312 11.835938 -14.5625 10.953125 -14.5625 L 6.828125 -14.5625 L 6.828125 -5.546875 C 6.828125 -3.546875 6.359375 -2.085938 5.421875 -1.171875 C 4.492188 -0.265625 2.988281 0.285156 0.90625 0.484375 Z M 0.609375 -1.796875 "/></g></g></g><g fill="#ffffff" fill-opacity="1"><g transform="translate(435.113612, 283.702857)"><g><path d="M 17.46875 -8.578125 C 17.46875 -5.753906 16.835938 -3.554688 15.578125 -1.984375 C 14.328125 -0.421875 12.550781 0.359375 10.25 0.359375 C 9.40625 0.359375 8.535156 0.257812 7.640625 0.0625 L 7.96875 -2.421875 C 8.738281 -2.265625 9.398438 -2.1875 9.953125 -2.1875 C 11.484375 -2.1875 12.601562 -2.71875 13.3125 -3.78125 C 14.019531 -4.851562 14.375 -6.421875 14.375 -8.484375 C 14.375 -10.691406 14.035156 -12.273438 13.359375 -13.234375 C 12.679688 -14.191406 11.71875 -14.671875 10.46875 -14.671875 C 9.488281 -14.671875 8.691406 -14.394531 8.078125 -13.84375 C 7.460938 -13.289062 7.054688 -12.546875 6.859375 -11.609375 L 4.828125 0 L 1.578125 0 L 3.765625 -11.734375 L 1.390625 -17.046875 L 4.765625 -17.046875 L 6.125 -13.46875 C 6.550781 -14.738281 7.195312 -15.691406 8.0625 -16.328125 C 8.9375 -16.960938 9.929688 -17.28125 11.046875 -17.28125 C 13.066406 -17.28125 14.640625 -16.578125 15.765625 -15.171875 C 16.898438 -13.773438 17.46875 -11.578125 17.46875 -8.578125 Z M 17.46875 -8.578125 "/></g></g></g><g fill="#ffffff" fill-opacity="1"><g transform="translate(453.943699, 283.702857)"><g><path d="M 7 -2.484375 C 7.988281 -2.585938 8.820312 -2.828125 9.5 -3.203125 C 10.1875 -3.578125 10.734375 -4.203125 11.140625 -5.078125 C 11.554688 -5.960938 11.816406 -7.171875 11.921875 -8.703125 L 12.375 -14.5625 L 1.640625 -14.5625 L 1.640625 -17.046875 L 15.859375 -17.046875 L 15.734375 -14.859375 L 15.3125 -9.46875 C 15.175781 -6.488281 14.4375 -4.179688 13.09375 -2.546875 C 11.757812 -0.910156 9.832031 -0.0507812 7.3125 0.03125 Z M 1.578125 -8.546875 L 2.03125 -10.609375 L 4.828125 -10.609375 L 4.828125 6.0625 L 1.578125 6.0625 Z M 1.578125 -8.546875 "/></g></g></g><g fill="#ffffff" fill-opacity="1"><g transform="translate(471.136392, 283.702857)"><g><path d="M 2.125 -13.5 L 1.765625 -17.046875 L 4.96875 -17.046875 L 5.375 -13.5 L 5.375 0 L 2.125 0 Z M 2.125 -13.5 "/></g></g></g><g fill="#ffffff" fill-opacity="1"><g transform="translate(478.413754, 283.702857)"><g><path d="M 17.46875 -8.578125 C 17.46875 -5.753906 16.835938 -3.554688 15.578125 -1.984375 C 14.328125 -0.421875 12.550781 0.359375 10.25 0.359375 C 9.40625 0.359375 8.535156 0.257812 7.640625 0.0625 L 7.96875 -2.421875 C 8.738281 -2.265625 9.398438 -2.1875 9.953125 -2.1875 C 11.484375 -2.1875 12.601562 -2.71875 13.3125 -3.78125 C 14.019531 -4.851562 14.375 -6.421875 14.375 -8.484375 C 14.375 -10.691406 14.035156 -12.273438 13.359375 -13.234375 C 12.679688 -14.191406 11.71875 -14.671875 10.46875 -14.671875 C 9.488281 -14.671875 8.691406 -14.394531 8.078125 -13.84375 C 7.460938 -13.289062 7.054688 -12.546875 6.859375 -11.609375 L 4.828125 0 L 1.578125 0 L 3.765625 -11.734375 L 1.390625 -17.046875 L 4.765625 -17.046875 L 6.125 -13.46875 C 6.550781 -14.738281 7.195312 -15.691406 8.0625 -16.328125 C 8.9375 -16.960938 9.929688 -17.28125 11.046875 -17.28125 C 13.066406 -17.28125 14.640625 -16.578125 15.765625 -15.171875 C 16.898438 -13.773438 17.46875 -11.578125 17.46875 -8.578125 Z M 17.46875 -8.578125 "/></g></g></g><g fill="#ffffff" fill-opacity="1"><g transform="translate(497.243841, 283.702857)"><g><path d="M 17.46875 -8.578125 C 17.46875 -5.753906 16.835938 -3.554688 15.578125 -1.984375 C 14.328125 -0.421875 12.550781 0.359375 10.25 0.359375 C 9.40625 0.359375 8.535156 0.257812 7.640625 0.0625 L 7.96875 -2.421875 C 8.738281 -2.265625 9.398438 -2.1875 9.953125 -2.1875 C 11.484375 -2.1875 12.601562 -2.71875 13.3125 -3.78125 C 14.019531 -4.851562 14.375 -6.421875 14.375 -8.484375 C 14.375 -10.691406 14.035156 -12.273438 13.359375 -13.234375 C 12.679688 -14.191406 11.71875 -14.671875 10.46875 -14.671875 C 9.488281 -14.671875 8.691406 -14.394531 8.078125 -13.84375 C 7.460938 -13.289062 7.054688 -12.546875 6.859375 -11.609375 L 4.828125 0 L 1.578125 0 L 3.765625 -11.734375 L 1.390625 -17.046875 L 4.765625 -17.046875 L 6.125 -13.46875 C 6.550781 -14.738281 7.195312 -15.691406 8.0625 -16.328125 C 8.9375 -16.960938 9.929688 -17.28125 11.046875 -17.28125 C 13.066406 -17.28125 14.640625 -16.578125 15.765625 -15.171875 C 16.898438 -13.773438 17.46875 -11.578125 17.46875 -8.578125 Z M 17.46875 -8.578125 "/></g></g></g><g fill="#ffffff" fill-opacity="1"><g transform="translate(516.073928, 283.702857)"><g><path d="M 11.953125 -11.53125 C 11.953125 -12.59375 11.71875 -13.363281 11.25 -13.84375 C 10.78125 -14.320312 10.101562 -14.5625 9.21875 -14.5625 L 1.765625 -14.5625 L 1.765625 -17.046875 L 10.03125 -17.046875 C 11.65625 -17.046875 12.921875 -16.585938 13.828125 -15.671875 C 14.734375 -14.765625 15.1875 -13.332031 15.1875 -11.375 L 15.1875 0 L 11.953125 0 Z M 1.671875 -8.25 L 2.125 -10.28125 L 4.90625 -10.28125 L 4.90625 0 L 1.671875 0 Z M 1.671875 -8.25 "/></g></g></g><g fill="#ffffff" fill-opacity="1"><g transform="translate(532.993736, 283.702857)"><g/></g></g><g fill="#ffffff" fill-opacity="1"><g transform="translate(539.058189, 283.702857)"><g><path d="M 2.484375 -17.734375 L 2.390625 -20.890625 L 5.578125 -20.890625 L 5.484375 -17.734375 L 4.890625 -12.40625 L 3.09375 -12.40625 Z M 8.375 -17.734375 L 8.28125 -20.890625 L 11.46875 -20.890625 L 11.375 -17.734375 L 10.78125 -12.40625 L 8.984375 -12.40625 Z M 8.375 -17.734375 "/></g></g></g><g fill="#ffffff" fill-opacity="1"><g transform="translate(552.945771, 283.702857)"><g><path d="M 8.703125 -3.546875 L 11.796875 6.0625 L 8.671875 6.0625 L 1.21875 -17.046875 L 4.34375 -17.046875 L 7.40625 -7.546875 L 11.28125 -17.046875 L 14.34375 -17.046875 Z M 8.703125 -3.546875 "/></g></g></g><g fill="#ffffff" fill-opacity="1"><g transform="translate(567.985576, 283.702857)"><g><path d="M 9.40625 -11.53125 C 9.40625 -12.59375 9.171875 -13.363281 8.703125 -13.84375 C 8.234375 -14.320312 7.554688 -14.5625 6.671875 -14.5625 L 1.0625 -14.5625 L 1.0625 -17.046875 L 7.484375 -17.046875 C 9.109375 -17.046875 10.375 -16.585938 11.28125 -15.671875 C 12.1875 -14.765625 12.640625 -13.332031 12.640625 -11.375 L 12.640625 0 L 9.40625 0 Z M 9.40625 -11.53125 "/></g></g></g><g fill="#ffffff" fill-opacity="1"><g transform="translate(582.540253, 283.702857)"><g><path d="M 13.3125 0 L 6.9375 -9.671875 L 3.9375 0 L 0.84375 0 L 4.1875 -10.4375 L 5.03125 -12.59375 L 2.25 -17.046875 L 5.546875 -17.046875 L 8.09375 -12.953125 L 10.640625 -9.125 L 11.40625 -11.765625 L 12.953125 -17.046875 L 16.078125 -17.046875 L 12.5625 -6.3125 L 16.765625 0 Z M 13.3125 0 "/></g></g></g><g fill="#ffffff" fill-opacity="1"><g transform="translate(600.30908, 283.702857)"><g><path d="M 15.140625 -2.484375 L 15.140625 0 L 1.359375 0 L 1.359375 -2.484375 L 9.796875 -2.484375 L 9.796875 -11.53125 C 9.796875 -12.59375 9.5625 -13.363281 9.09375 -13.84375 C 8.632812 -14.320312 7.957031 -14.5625 7.0625 -14.5625 L 1.359375 -14.5625 L 1.359375 -17.046875 L 7.890625 -17.046875 C 9.503906 -17.046875 10.765625 -16.585938 11.671875 -15.671875 C 12.585938 -14.765625 13.046875 -13.332031 13.046875 -11.375 L 13.046875 -2.484375 Z M 15.140625 -2.484375 "/></g></g></g><g clip-path="url(#3acb8530f6)"><g clip-path="url(#76c59e3c3e)"><g transform="matrix(1, 0, 0, 1, 46, 0)"><g clip-path="url(#af2c09bac8)"><g clip-path="url(#5bd5479455)"><g clip-path="url(#00998038a0)"><path fill="#176598" d="M 0.898438 0 L 605.261719 0 L 605.261719 107.292969 L 0.898438 107.292969 Z M 0.898438 0 " fill-opacity="1" fill-rule="nonzero"/></g></g></g></g></g></g><g fill="#ffffff" fill-opacity="1"><g transform="translate(73.815259, 43.458009)"><g><path d="M 8.703125 -11.015625 C 8.703125 -12.585938 8.984375 -13.769531 9.546875 -14.5625 L 1.359375 -14.5625 L 1.359375 -17.046875 L 14.890625 -17.046875 L 14.890625 -14.5625 L 12.609375 -14.5625 C 12.171875 -13.707031 11.953125 -12.523438 11.953125 -11.015625 L 11.953125 0 L 8.703125 0 Z M 8.703125 -11.015625 "/></g></g></g><g fill="#ffffff" fill-opacity="1"><g transform="translate(90.158934, 43.458009)"><g><path d="M 2.125 -13.5 L 1.765625 -17.046875 L 4.96875 -17.046875 L 5.375 -13.5 L 5.375 0 L 2.125 0 Z M 2.125 -13.5 "/></g></g></g><g fill="#ffffff" fill-opacity="1"><g transform="translate(97.436272, 43.458009)"><g><path d="M 17.46875 -8.578125 C 17.46875 -5.753906 16.835938 -3.554688 15.578125 -1.984375 C 14.328125 -0.421875 12.550781 0.359375 10.25 0.359375 C 9.40625 0.359375 8.535156 0.257812 7.640625 0.0625 L 7.96875 -2.421875 C 8.738281 -2.265625 9.398438 -2.1875 9.953125 -2.1875 C 11.484375 -2.1875 12.601562 -2.71875 13.3125 -3.78125 C 14.019531 -4.851562 14.375 -6.421875 14.375 -8.484375 C 14.375 -10.691406 14.035156 -12.273438 13.359375 -13.234375 C 12.679688 -14.191406 11.71875 -14.671875 10.46875 -14.671875 C 9.488281 -14.671875 8.691406 -14.394531 8.078125 -13.84375 C 7.460938 -13.289062 7.054688 -12.546875 6.859375 -11.609375 L 4.828125 0 L 1.578125 0 L 3.765625 -11.734375 L 1.390625 -17.046875 L 4.765625 -17.046875 L 6.125 -13.46875 C 6.550781 -14.738281 7.195312 -15.691406 8.0625 -16.328125 C 8.9375 -16.960938 9.929688 -17.28125 11.046875 -17.28125 C 13.066406 -17.28125 14.640625 -16.578125 15.765625 -15.171875 C 16.898438 -13.773438 17.46875 -11.578125 17.46875 -8.578125 Z M 17.46875 -8.578125 "/></g></g></g><g fill="#ffffff" fill-opacity="1"><g transform="translate(116.266371, 43.458009)"><g><path d="M 15.25 -17.046875 C 15.25 -12.960938 15.09375 -9.894531 14.78125 -7.84375 C 14.46875 -5.789062 13.707031 -4.117188 12.5 -2.828125 C 11.300781 -1.546875 9.367188 -0.644531 6.703125 -0.125 L 1 1 L 0.546875 -1.546875 L 5.671875 -2.546875 L 1.9375 -17.046875 L 5.1875 -17.046875 L 8.578125 -3.3125 C 9.671875 -3.789062 10.457031 -4.515625 10.9375 -5.484375 C 11.425781 -6.453125 11.734375 -7.679688 11.859375 -9.171875 C 11.984375 -10.660156 12.046875 -12.890625 12.046875 -15.859375 L 12.046875 -17.046875 Z M 15.25 -17.046875 "/></g></g></g><g fill="#ffffff" fill-opacity="1"><g transform="translate(132.973914, 43.458009)"><g><path d="M 13.53125 -17.046875 L 13.53125 -14.34375 L 7.859375 0 L 4.609375 0 L 10.28125 -14.5625 L 1.15625 -14.5625 L 1.15625 -21.75 L 4.09375 -21.75 L 4.09375 -17.046875 Z M 13.53125 -17.046875 "/></g></g></g><g fill="#ffffff" fill-opacity="1"><g transform="translate(147.710514, 43.458009)"><g/></g></g><g fill="#ffffff" fill-opacity="1"><g transform="translate(153.774955, 43.458009)"><g><path d="M 13.53125 -17.046875 L 13.53125 -14.34375 L 7.859375 0 L 4.609375 0 L 10.28125 -14.5625 L 1.15625 -14.5625 L 1.15625 -21.75 L 4.09375 -21.75 L 4.09375 -17.046875 Z M 13.53125 -17.046875 "/></g></g></g><g fill="#ffffff" fill-opacity="1"><g transform="translate(168.511556, 43.458009)"><g><path d="M 2.125 -13.5 L 1.765625 -17.046875 L 4.96875 -17.046875 L 5.375 -13.5 L 5.375 -8.890625 L 5.34375 -6.96875 L 2.125 -6.375 Z M 2.125 -13.5 "/></g></g></g><g fill="#ffffff" fill-opacity="1"><g transform="translate(175.788894, 43.458009)"><g><path d="M 15.140625 -2.484375 L 15.140625 0 L 1.359375 0 L 1.359375 -2.484375 L 9.796875 -2.484375 L 9.796875 -11.53125 C 9.796875 -12.59375 9.5625 -13.363281 9.09375 -13.84375 C 8.632812 -14.320312 7.957031 -14.5625 7.0625 -14.5625 L 1.359375 -14.5625 L 1.359375 -17.046875 L 7.890625 -17.046875 C 9.503906 -17.046875 10.765625 -16.585938 11.671875 -15.671875 C 12.585938 -14.765625 13.046875 -13.332031 13.046875 -11.375 L 13.046875 -2.484375 Z M 15.140625 -2.484375 "/></g></g></g><g fill="#ffffff" fill-opacity="1"><g transform="translate(191.980955, 43.458009)"><g><path d="M 2.125 -13.5 L 1.765625 -17.046875 L 4.96875 -17.046875 L 5.375 -13.5 L 5.375 0 L 2.125 0 Z M 2.125 -13.5 "/></g></g></g><g fill="#ffffff" fill-opacity="1"><g transform="translate(199.258294, 43.458009)"><g><path d="M 17.46875 -8.578125 C 17.46875 -5.753906 16.835938 -3.554688 15.578125 -1.984375 C 14.328125 -0.421875 12.550781 0.359375 10.25 0.359375 C 9.40625 0.359375 8.535156 0.257812 7.640625 0.0625 L 7.96875 -2.421875 C 8.738281 -2.265625 9.398438 -2.1875 9.953125 -2.1875 C 11.484375 -2.1875 12.601562 -2.71875 13.3125 -3.78125 C 14.019531 -4.851562 14.375 -6.421875 14.375 -8.484375 C 14.375 -10.691406 14.035156 -12.273438 13.359375 -13.234375 C 12.679688 -14.191406 11.71875 -14.671875 10.46875 -14.671875 C 9.488281 -14.671875 8.691406 -14.394531 8.078125 -13.84375 C 7.460938 -13.289062 7.054688 -12.546875 6.859375 -11.609375 L 4.828125 0 L 1.578125 0 L 3.765625 -11.734375 L 1.390625 -17.046875 L 4.765625 -17.046875 L 6.125 -13.46875 C 6.550781 -14.738281 7.195312 -15.691406 8.0625 -16.328125 C 8.9375 -16.960938 9.929688 -17.28125 11.046875 -17.28125 C 13.066406 -17.28125 14.640625 -16.578125 15.765625 -15.171875 C 16.898438 -13.773438 17.46875 -11.578125 17.46875 -8.578125 Z M 17.46875 -8.578125 "/></g></g></g><g fill="#ffffff" fill-opacity="1"><g transform="translate(218.088393, 43.458009)"><g><path d="M 11.953125 -11.53125 C 11.953125 -12.59375 11.71875 -13.363281 11.25 -13.84375 C 10.78125 -14.320312 10.101562 -14.5625 9.21875 -14.5625 L 1.765625 -14.5625 L 1.765625 -17.046875 L 10.03125 -17.046875 C 11.65625 -17.046875 12.921875 -16.585938 13.828125 -15.671875 C 14.734375 -14.765625 15.1875 -13.332031 15.1875 -11.375 L 15.1875 0 L 11.953125 0 Z M 1.671875 -8.25 L 2.125 -10.28125 L 4.90625 -10.28125 L 4.90625 0 L 1.671875 0 Z M 1.671875 -8.25 "/></g></g></g><g fill="#ffffff" fill-opacity="1"><g transform="translate(235.00819, 43.458009)"><g><path d="M 1.25 4.515625 C 2.375 2.617188 3.21875 0.566406 3.78125 -1.640625 C 4.351562 -3.859375 4.640625 -6.125 4.640625 -8.4375 C 4.640625 -10.738281 4.351562 -12.992188 3.78125 -15.203125 C 3.21875 -17.421875 2.375 -19.476562 1.25 -21.375 L 3.15625 -22.234375 C 4.46875 -20.085938 5.460938 -17.890625 6.140625 -15.640625 C 6.816406 -13.398438 7.15625 -11 7.15625 -8.4375 C 7.15625 -5.863281 6.816406 -3.453125 6.140625 -1.203125 C 5.460938 1.035156 4.46875 3.226562 3.15625 5.375 Z M 1.25 4.515625 "/></g></g></g><g fill="#ffffff" fill-opacity="1"><g transform="translate(244.559687, 43.458009)"><g/></g></g><g fill="#ffffff" fill-opacity="1"><g transform="translate(250.624129, 43.458009)"><g><path d="M 10.25 -11.53125 C 10.25 -12.59375 10.015625 -13.363281 9.546875 -13.84375 C 9.085938 -14.320312 8.410156 -14.5625 7.515625 -14.5625 L 1.453125 -14.5625 L 1.453125 -17.046875 L 8.34375 -17.046875 C 9.957031 -17.046875 11.21875 -16.585938 12.125 -15.671875 C 13.039062 -14.765625 13.5 -13.332031 13.5 -11.375 L 13.5 6.0625 L 10.25 6.0625 Z M 10.25 -11.53125 "/></g></g></g><g fill="#ffffff" fill-opacity="1"><g transform="translate(265.997492, 43.458009)"><g><path d="M 16.171875 -9.859375 C 16.285156 -6.359375 15.207031 -3.820312 12.9375 -2.25 C 10.675781 -0.6875 7.503906 0.160156 3.421875 0.296875 L 1.671875 -14.5625 L 1.359375 -17.046875 L 10.09375 -17.046875 C 11.976562 -17.046875 13.441406 -16.488281 14.484375 -15.375 C 15.523438 -14.257812 16.078125 -12.742188 16.140625 -10.828125 Z M 6.28125 -2.640625 C 8.539062 -2.835938 10.238281 -3.488281 11.375 -4.59375 C 12.507812 -5.695312 13.035156 -7.472656 12.953125 -9.921875 L 12.953125 -10.734375 C 12.953125 -11.867188 12.675781 -12.789062 12.125 -13.5 C 11.582031 -14.207031 10.828125 -14.5625 9.859375 -14.5625 L 4.90625 -14.5625 Z M 6.28125 -2.640625 "/></g></g></g><g fill="#ffffff" fill-opacity="1"><g transform="translate(283.675334, 43.458009)"><g><path d="M 17.46875 -8.578125 C 17.46875 -5.753906 16.835938 -3.554688 15.578125 -1.984375 C 14.328125 -0.421875 12.550781 0.359375 10.25 0.359375 C 9.40625 0.359375 8.535156 0.257812 7.640625 0.0625 L 7.96875 -2.421875 C 8.738281 -2.265625 9.398438 -2.1875 9.953125 -2.1875 C 11.484375 -2.1875 12.601562 -2.71875 13.3125 -3.78125 C 14.019531 -4.851562 14.375 -6.421875 14.375 -8.484375 C 14.375 -10.691406 14.035156 -12.273438 13.359375 -13.234375 C 12.679688 -14.191406 11.71875 -14.671875 10.46875 -14.671875 C 9.488281 -14.671875 8.691406 -14.394531 8.078125 -13.84375 C 7.460938 -13.289062 7.054688 -12.546875 6.859375 -11.609375 L 4.828125 0 L 1.578125 0 L 3.765625 -11.734375 L 1.390625 -17.046875 L 4.765625 -17.046875 L 6.125 -13.46875 C 6.550781 -14.738281 7.195312 -15.691406 8.0625 -16.328125 C 8.9375 -16.960938 9.929688 -17.28125 11.046875 -17.28125 C 13.066406 -17.28125 14.640625 -16.578125 15.765625 -15.171875 C 16.898438 -13.773438 17.46875 -11.578125 17.46875 -8.578125 Z M 17.46875 -8.578125 "/></g></g></g><g fill="#ffffff" fill-opacity="1"><g transform="translate(302.505444, 43.458009)"><g><path d="M 11.953125 -11.53125 C 11.953125 -12.59375 11.71875 -13.363281 11.25 -13.84375 C 10.78125 -14.320312 10.101562 -14.5625 9.21875 -14.5625 L 1.765625 -14.5625 L 1.765625 -17.046875 L 10.03125 -17.046875 C 11.65625 -17.046875 12.921875 -16.585938 13.828125 -15.671875 C 14.734375 -14.765625 15.1875 -13.332031 15.1875 -11.375 L 15.1875 0 L 11.953125 0 Z M 1.671875 -8.25 L 2.125 -10.28125 L 4.90625 -10.28125 L 4.90625 0 L 1.671875 0 Z M 1.671875 -8.25 "/></g></g></g><g fill="#ffffff" fill-opacity="1"><g transform="translate(319.42523, 43.458009)"><g/></g></g><g fill="#ffffff" fill-opacity="1"><g transform="translate(325.489683, 43.458009)"><g><path d="M 0.609375 -1.796875 C 1.773438 -1.910156 2.5625 -2.21875 2.96875 -2.71875 C 3.375 -3.226562 3.578125 -4.050781 3.578125 -5.1875 L 3.578125 -17.046875 L 11.765625 -17.046875 C 13.378906 -17.046875 14.640625 -16.585938 15.546875 -15.671875 C 16.460938 -14.765625 16.921875 -13.332031 16.921875 -11.375 L 16.921875 0 L 13.671875 0 L 13.671875 -11.53125 C 13.671875 -12.59375 13.4375 -13.363281 12.96875 -13.84375 C 12.507812 -14.320312 11.835938 -14.5625 10.953125 -14.5625 L 6.828125 -14.5625 L 6.828125 -5.546875 C 6.828125 -3.546875 6.359375 -2.085938 5.421875 -1.171875 C 4.492188 -0.265625 2.988281 0.285156 0.90625 0.484375 Z M 0.609375 -1.796875 "/></g></g></g><g fill="#ffffff" fill-opacity="1"><g transform="translate(344.228809, 43.458009)"><g><path d="M 2.125 -13.5 L 1.765625 -17.046875 L 4.96875 -17.046875 L 5.375 -13.5 L 5.375 -8.890625 L 5.34375 -6.96875 L 2.125 -6.375 Z M 2.125 -13.5 "/></g></g></g><g fill="#ffffff" fill-opacity="1"><g transform="translate(351.051318, 43.458009)"><g><path d="M 0.609375 -1.796875 C 1.773438 -1.910156 2.5625 -2.21875 2.96875 -2.71875 C 3.375 -3.226562 3.578125 -4.050781 3.578125 -5.1875 L 3.578125 -17.046875 L 11.765625 -17.046875 C 13.378906 -17.046875 14.640625 -16.585938 15.546875 -15.671875 C 16.460938 -14.765625 16.921875 -13.332031 16.921875 -11.375 L 16.921875 0 L 13.671875 0 L 13.671875 -11.53125 C 13.671875 -12.59375 13.4375 -13.363281 12.96875 -13.84375 C 12.507812 -14.320312 11.835938 -14.5625 10.953125 -14.5625 L 6.828125 -14.5625 L 6.828125 -5.546875 C 6.828125 -3.546875 6.359375 -2.085938 5.421875 -1.171875 C 4.492188 -0.265625 2.988281 0.285156 0.90625 0.484375 Z M 0.609375 -1.796875 "/></g></g></g><g fill="#ffffff" fill-opacity="1"><g transform="translate(369.790445, 43.458009)"><g><path d="M 10.53125 -17.046875 C 12.164062 -17.046875 13.429688 -16.550781 14.328125 -15.5625 C 15.222656 -14.570312 15.671875 -13.070312 15.671875 -11.0625 L 15.671875 0 L 12.4375 0 L 12.4375 -11.21875 C 12.4375 -13.445312 11.523438 -14.5625 9.703125 -14.5625 L 5.03125 -14.5625 L 5.03125 0 L 1.796875 0 L 1.796875 -17.046875 Z M 10.53125 -17.046875 "/></g></g></g><g fill="#ffffff" fill-opacity="1"><g transform="translate(387.316685, 43.458009)"><g><path d="M 0.609375 -1.796875 C 1.773438 -1.910156 2.5625 -2.21875 2.96875 -2.71875 C 3.375 -3.226562 3.578125 -4.050781 3.578125 -5.1875 L 3.578125 -17.046875 L 11.765625 -17.046875 C 13.378906 -17.046875 14.640625 -16.585938 15.546875 -15.671875 C 16.460938 -14.765625 16.921875 -13.332031 16.921875 -11.375 L 16.921875 0 L 13.671875 0 L 13.671875 -11.53125 C 13.671875 -12.59375 13.4375 -13.363281 12.96875 -13.84375 C 12.507812 -14.320312 11.835938 -14.5625 10.953125 -14.5625 L 6.828125 -14.5625 L 6.828125 -5.546875 C 6.828125 -3.546875 6.359375 -2.085938 5.421875 -1.171875 C 4.492188 -0.265625 2.988281 0.285156 0.90625 0.484375 Z M 0.609375 -1.796875 "/></g></g></g><g fill="#ffffff" fill-opacity="1"><g transform="translate(406.055834, 43.458009)"><g><path d="M 15.140625 -2.484375 L 15.140625 0 L 1.359375 0 L 1.359375 -2.484375 L 9.796875 -2.484375 L 9.796875 -11.53125 C 9.796875 -12.59375 9.5625 -13.363281 9.09375 -13.84375 C 8.632812 -14.320312 7.957031 -14.5625 7.0625 -14.5625 L 1.359375 -14.5625 L 1.359375 -17.046875 L 7.890625 -17.046875 C 9.503906 -17.046875 10.765625 -16.585938 11.671875 -15.671875 C 12.585938 -14.765625 13.046875 -13.332031 13.046875 -11.375 L 13.046875 -2.484375 Z M 15.140625 -2.484375 "/></g></g></g><g fill="#ffffff" fill-opacity="1"><g transform="translate(422.247883, 43.458009)"><g/></g></g><g fill="#ffffff" fill-opacity="1"><g transform="translate(428.312313, 43.458009)"><g><path d="M 9.40625 -11.53125 C 9.40625 -12.59375 9.171875 -13.363281 8.703125 -13.84375 C 8.234375 -14.320312 7.554688 -14.5625 6.671875 -14.5625 L 1.0625 -14.5625 L 1.0625 -17.046875 L 7.484375 -17.046875 C 9.109375 -17.046875 10.375 -16.585938 11.28125 -15.671875 C 12.1875 -14.765625 12.640625 -13.332031 12.640625 -11.375 L 12.640625 0 L 9.40625 0 Z M 9.40625 -11.53125 "/></g></g></g><g fill="#ffffff" fill-opacity="1"><g transform="translate(442.866991, 43.458009)"><g><path d="M 2.125 -13.5 L 1.765625 -17.046875 L 4.96875 -17.046875 L 5.375 -13.5 L 5.375 0 L 2.125 0 Z M 2.125 -13.5 "/></g></g></g><g fill="#ffffff" fill-opacity="1"><g transform="translate(450.14433, 43.458009)"><g><path d="M 18.3125 -12.375 C 18.351562 -8.101562 17.160156 -4.910156 14.734375 -2.796875 C 12.304688 -0.691406 8.585938 0.335938 3.578125 0.296875 L 1.359375 -17.046875 L 4.453125 -17.046875 L 5.421875 -8.984375 C 6.535156 -9.523438 7.296875 -10.238281 7.703125 -11.125 C 8.109375 -12.019531 8.332031 -13.359375 8.375 -15.140625 L 8.375 -17.015625 L 11.46875 -17.015625 L 11.4375 -15.1875 C 11.394531 -12.96875 10.945312 -11.1875 10.09375 -9.84375 C 9.25 -8.5 7.796875 -7.410156 5.734375 -6.578125 L 6.21875 -2.453125 C 9.269531 -2.660156 11.519531 -3.570312 12.96875 -5.1875 C 14.414062 -6.800781 15.128906 -9.144531 15.109375 -12.21875 L 15.046875 -17.046875 L 18.28125 -17.046875 Z M 18.3125 -12.375 "/></g></g></g><g fill="#ffffff" fill-opacity="1"><g transform="translate(469.914419, 43.458009)"><g><path d="M 2.125 -13.5 L 1.765625 -17.046875 L 4.96875 -17.046875 L 5.375 -13.5 L 5.375 -8.890625 L 5.34375 -6.96875 L 2.125 -6.375 Z M 2.125 -13.5 "/></g></g></g><g fill="#ffffff" fill-opacity="1"><g transform="translate(477.191735, 43.458009)"><g><path d="M 7 -2.484375 C 7.988281 -2.585938 8.820312 -2.828125 9.5 -3.203125 C 10.1875 -3.578125 10.734375 -4.203125 11.140625 -5.078125 C 11.554688 -5.960938 11.816406 -7.171875 11.921875 -8.703125 L 12.375 -14.5625 L 1.640625 -14.5625 L 1.640625 -17.046875 L 15.859375 -17.046875 L 15.734375 -14.859375 L 15.3125 -9.46875 C 15.175781 -6.488281 14.4375 -4.179688 13.09375 -2.546875 C 11.757812 -0.910156 9.832031 -0.0507812 7.3125 0.03125 Z M 1.578125 -8.546875 L 2.03125 -10.609375 L 4.828125 -10.609375 L 4.828125 6.0625 L 1.578125 6.0625 Z M 1.578125 -8.546875 "/></g></g></g><g fill="#ffffff" fill-opacity="1"><g transform="translate(494.384474, 43.458009)"><g><path d="M 11.953125 -11.53125 C 11.953125 -12.59375 11.71875 -13.363281 11.25 -13.84375 C 10.78125 -14.320312 10.101562 -14.5625 9.21875 -14.5625 L 1.765625 -14.5625 L 1.765625 -17.046875 L 10.03125 -17.046875 C 11.65625 -17.046875 12.921875 -16.585938 13.828125 -15.671875 C 14.734375 -14.765625 15.1875 -13.332031 15.1875 -11.375 L 15.1875 0 L 11.953125 0 Z M 1.671875 -8.25 L 2.125 -10.28125 L 4.90625 -10.28125 L 4.90625 0 L 1.671875 0 Z M 1.671875 -8.25 "/></g></g></g><g fill="#ffffff" fill-opacity="1"><g transform="translate(511.304282, 43.458009)"><g/></g></g><g fill="#ffffff" fill-opacity="1"><g transform="translate(517.368689, 43.458009)"><g><path d="M 13.53125 -17.046875 L 13.53125 -14.34375 L 7.859375 0 L 4.609375 0 L 10.28125 -14.5625 L 1.15625 -14.5625 L 1.15625 -21.75 L 4.09375 -21.75 L 4.09375 -17.046875 Z M 13.53125 -17.046875 "/></g></g></g><g fill="#ffffff" fill-opacity="1"><g transform="translate(532.10529, 43.458009)"><g><path d="M 15.25 -17.046875 C 15.25 -12.960938 15.09375 -9.894531 14.78125 -7.84375 C 14.46875 -5.789062 13.707031 -4.117188 12.5 -2.828125 C 11.300781 -1.546875 9.367188 -0.644531 6.703125 -0.125 L 1 1 L 0.546875 -1.546875 L 5.671875 -2.546875 L 1.9375 -17.046875 L 5.1875 -17.046875 L 8.578125 -3.3125 C 9.671875 -3.789062 10.457031 -4.515625 10.9375 -5.484375 C 11.425781 -6.453125 11.734375 -7.679688 11.859375 -9.171875 C 11.984375 -10.660156 12.046875 -12.890625 12.046875 -15.859375 L 12.046875 -17.046875 Z M 15.25 -17.046875 "/></g></g></g><g fill="#ffffff" fill-opacity="1"><g transform="translate(548.812855, 43.458009)"><g/></g></g><g fill="#ffffff" fill-opacity="1"><g transform="translate(554.877262, 43.458009)"><g><path d="M 8.703125 -3.546875 L 11.796875 6.0625 L 8.671875 6.0625 L 1.21875 -17.046875 L 4.34375 -17.046875 L 7.40625 -7.546875 L 11.28125 -17.046875 L 14.34375 -17.046875 Z M 8.703125 -3.546875 "/></g></g></g><g fill="#ffffff" fill-opacity="1"><g transform="translate(569.917113, 43.458009)"><g><path d="M 2.125 -13.5 L 1.765625 -17.046875 L 4.96875 -17.046875 L 5.375 -13.5 L 5.375 0 L 2.125 0 Z M 2.125 -13.5 "/></g></g></g><g fill="#ffffff" fill-opacity="1"><g transform="translate(577.194474, 43.458009)"><g><path d="M 10.53125 -17.046875 C 12.164062 -17.046875 13.429688 -16.550781 14.328125 -15.5625 C 15.222656 -14.570312 15.671875 -13.070312 15.671875 -11.0625 L 15.671875 0 L 12.4375 0 L 12.4375 -11.21875 C 12.4375 -13.445312 11.523438 -14.5625 9.703125 -14.5625 L 5.03125 -14.5625 L 5.03125 0 L 1.796875 0 L 1.796875 -17.046875 Z M 10.53125 -17.046875 "/></g></g></g><g fill="#ffffff" fill-opacity="1"><g transform="translate(594.720691, 43.458009)"><g><path d="M 13.53125 -17.046875 L 13.53125 -14.34375 L 7.859375 0 L 4.609375 0 L 10.28125 -14.5625 L 1.15625 -14.5625 L 1.15625 -21.75 L 4.09375 -21.75 L 4.09375 -17.046875 Z M 13.53125 -17.046875 "/></g></g></g><g fill="#ffffff" fill-opacity="1"><g transform="translate(609.457292, 43.458009)"><g><path d="M 13.53125 -17.046875 L 13.53125 -14.34375 L 7.859375 0 L 4.609375 0 L 10.28125 -14.5625 L 1.15625 -14.5625 L 1.15625 -21.75 L 4.09375 -21.75 L 4.09375 -17.046875 Z M 13.53125 -17.046875 "/></g></g></g><g fill="#ffffff" fill-opacity="1"><g transform="translate(156.844407, 85.417466)"><g/></g></g><g fill="#ffffff" fill-opacity="1"><g transform="translate(162.90886, 85.417466)"><g><path d="M 6.40625 5.375 C 5.082031 3.226562 4.082031 1.035156 3.40625 -1.203125 C 2.726562 -3.453125 2.390625 -5.863281 2.390625 -8.4375 C 2.390625 -11 2.726562 -13.398438 3.40625 -15.640625 C 4.082031 -17.890625 5.082031 -20.085938 6.40625 -22.234375 L 8.3125 -21.375 C 7.175781 -19.476562 6.320312 -17.421875 5.75 -15.203125 C 5.1875 -12.992188 4.90625 -10.738281 4.90625 -8.4375 C 4.90625 -6.125 5.1875 -3.859375 5.75 -1.640625 C 6.320312 0.566406 7.175781 2.617188 8.3125 4.515625 Z M 6.40625 5.375 "/></g></g></g><g fill="#ffffff" fill-opacity="1"><g transform="translate(172.460357, 85.417466)"><g><path d="M 2.125 -13.5 L 1.765625 -17.046875 L 4.96875 -17.046875 L 5.375 -13.5 L 5.375 -8.890625 L 5.34375 -6.96875 L 2.125 -6.375 Z M 2.125 -13.5 "/></g></g></g><g fill="#ffffff" fill-opacity="1"><g transform="translate(179.737696, 85.417466)"><g><path d="M 17.46875 -8.578125 C 17.46875 -5.753906 16.835938 -3.554688 15.578125 -1.984375 C 14.328125 -0.421875 12.550781 0.359375 10.25 0.359375 C 9.40625 0.359375 8.535156 0.257812 7.640625 0.0625 L 7.96875 -2.421875 C 8.738281 -2.265625 9.398438 -2.1875 9.953125 -2.1875 C 11.484375 -2.1875 12.601562 -2.71875 13.3125 -3.78125 C 14.019531 -4.851562 14.375 -6.421875 14.375 -8.484375 C 14.375 -10.691406 14.035156 -12.273438 13.359375 -13.234375 C 12.679688 -14.191406 11.71875 -14.671875 10.46875 -14.671875 C 9.488281 -14.671875 8.691406 -14.394531 8.078125 -13.84375 C 7.460938 -13.289062 7.054688 -12.546875 6.859375 -11.609375 L 4.828125 0 L 1.578125 0 L 3.765625 -11.734375 L 1.390625 -17.046875 L 4.765625 -17.046875 L 6.125 -13.46875 C 6.550781 -14.738281 7.195312 -15.691406 8.0625 -16.328125 C 8.9375 -16.960938 9.929688 -17.28125 11.046875 -17.28125 C 13.066406 -17.28125 14.640625 -16.578125 15.765625 -15.171875 C 16.898438 -13.773438 17.46875 -11.578125 17.46875 -8.578125 Z M 17.46875 -8.578125 "/></g></g></g><g fill="#ffffff" fill-opacity="1"><g transform="translate(198.567795, 85.417466)"><g><path d="M 2.125 -13.5 L 1.765625 -17.046875 L 4.96875 -17.046875 L 5.375 -13.5 L 5.375 0 L 2.125 0 Z M 2.125 -13.5 "/></g></g></g><g fill="#ffffff" fill-opacity="1"><g transform="translate(205.845134, 85.417466)"><g><path d="M 13.3125 0 L 6.9375 -9.671875 L 3.9375 0 L 0.84375 0 L 4.1875 -10.4375 L 5.03125 -12.59375 L 2.25 -17.046875 L 5.546875 -17.046875 L 8.09375 -12.953125 L 10.640625 -9.125 L 11.40625 -11.765625 L 12.953125 -17.046875 L 16.078125 -17.046875 L 12.5625 -6.3125 L 16.765625 0 Z M 13.3125 0 "/></g></g></g><g fill="#ffffff" fill-opacity="1"><g transform="translate(223.61396, 85.417466)"><g><path d="M 13.53125 -17.046875 L 13.53125 -14.34375 L 7.859375 0 L 4.609375 0 L 10.28125 -14.5625 L 1.15625 -14.5625 L 1.15625 -21.75 L 4.09375 -21.75 L 4.09375 -17.046875 Z M 13.53125 -17.046875 "/></g></g></g><g fill="#ffffff" fill-opacity="1"><g transform="translate(238.350561, 85.417466)"><g><path d="M 11.953125 -11.53125 C 11.953125 -12.59375 11.71875 -13.363281 11.25 -13.84375 C 10.78125 -14.320312 10.101562 -14.5625 9.21875 -14.5625 L 1.765625 -14.5625 L 1.765625 -17.046875 L 10.03125 -17.046875 C 11.65625 -17.046875 12.921875 -16.585938 13.828125 -15.671875 C 14.734375 -14.765625 15.1875 -13.332031 15.1875 -11.375 L 15.1875 0 L 11.953125 0 Z M 1.671875 -8.25 L 2.125 -10.28125 L 4.90625 -10.28125 L 4.90625 0 L 1.671875 0 Z M 1.671875 -8.25 "/></g></g></g><g fill="#ffffff" fill-opacity="1"><g transform="translate(255.270358, 85.417466)"><g/></g></g><g fill="#ffffff" fill-opacity="1"><g transform="translate(261.334799, 85.417466)"><g><path d="M 10.765625 -17.046875 C 12.378906 -17.046875 13.640625 -16.585938 14.546875 -15.671875 C 15.460938 -14.765625 15.921875 -13.332031 15.921875 -11.375 L 15.921875 0 L 1.96875 0 L 1.96875 -17.046875 Z M 12.671875 -2.484375 L 12.671875 -11.53125 C 12.671875 -12.59375 12.4375 -13.363281 11.96875 -13.84375 C 11.507812 -14.320312 10.835938 -14.5625 9.953125 -14.5625 L 5.21875 -14.5625 L 5.21875 -2.484375 Z M 12.671875 -2.484375 "/></g></g></g><g fill="#ffffff" fill-opacity="1"><g transform="translate(279.073294, 85.417466)"><g><path d="M 2.125 -13.5 L 1.765625 -17.046875 L 4.96875 -17.046875 L 5.375 -13.5 L 5.375 0 L 2.125 0 Z M 2.125 -13.5 "/></g></g></g><g fill="#ffffff" fill-opacity="1"><g transform="translate(286.350633, 85.417466)"><g><path d="M 9.40625 -11.53125 C 9.40625 -12.59375 9.171875 -13.363281 8.703125 -13.84375 C 8.234375 -14.320312 7.554688 -14.5625 6.671875 -14.5625 L 1.0625 -14.5625 L 1.0625 -17.046875 L 7.484375 -17.046875 C 9.109375 -17.046875 10.375 -16.585938 11.28125 -15.671875 C 12.1875 -14.765625 12.640625 -13.332031 12.640625 -11.375 L 12.640625 0 L 9.40625 0 Z M 9.40625 -11.53125 "/></g></g></g><g fill="#ffffff" fill-opacity="1"><g transform="translate(300.905299, 85.417466)"><g><path d="M 2.125 -13.5 L 1.765625 -17.046875 L 4.96875 -17.046875 L 5.375 -13.5 L 5.375 -8.890625 L 5.34375 -6.96875 L 2.125 -6.375 Z M 2.125 -13.5 "/></g></g></g><g fill="#ffffff" fill-opacity="1"><g transform="translate(308.182638, 85.417466)"><g><path d="M 10.53125 -17.046875 C 12.164062 -17.046875 13.429688 -16.550781 14.328125 -15.5625 C 15.222656 -14.570312 15.671875 -13.070312 15.671875 -11.0625 L 15.671875 0 L 12.4375 0 L 12.4375 -11.21875 C 12.4375 -13.445312 11.523438 -14.5625 9.703125 -14.5625 L 5.03125 -14.5625 L 5.03125 0 L 1.796875 0 L 1.796875 -17.046875 Z M 10.53125 -17.046875 "/></g></g></g><g fill="#ffffff" fill-opacity="1"><g transform="translate(325.708878, 85.417466)"><g><path d="M 11.953125 -11.53125 C 11.953125 -12.59375 11.71875 -13.363281 11.25 -13.84375 C 10.78125 -14.320312 10.101562 -14.5625 9.21875 -14.5625 L 1.765625 -14.5625 L 1.765625 -17.046875 L 10.03125 -17.046875 C 11.65625 -17.046875 12.921875 -16.585938 13.828125 -15.671875 C 14.734375 -14.765625 15.1875 -13.332031 15.1875 -11.375 L 15.1875 0 L 11.953125 0 Z M 1.671875 -8.25 L 2.125 -10.28125 L 4.90625 -10.28125 L 4.90625 0 L 1.671875 0 Z M 1.671875 -8.25 "/></g></g></g><g fill="#ffffff" fill-opacity="1"><g transform="translate(342.628675, 85.417466)"><g/></g></g><g fill="#ffffff" fill-opacity="1"><g transform="translate(348.693117, 85.417466)"><g><path d="M 13.53125 -17.046875 L 13.53125 -14.34375 L 7.859375 0 L 4.609375 0 L 10.28125 -14.5625 L 1.15625 -14.5625 L 1.15625 -21.75 L 4.09375 -21.75 L 4.09375 -17.046875 Z M 13.53125 -17.046875 "/></g></g></g><g fill="#ffffff" fill-opacity="1"><g transform="translate(363.429717, 85.417466)"><g><path d="M 1.359375 -17.046875 L 4.609375 -17.046875 L 6.25 -2.640625 C 10.914062 -3.109375 13.179688 -5.554688 13.046875 -9.984375 L 13.046875 -10.828125 C 13.046875 -11.921875 12.75 -12.820312 12.15625 -13.53125 C 11.570312 -14.238281 10.703125 -14.628906 9.546875 -14.703125 L 8.03125 -14.796875 L 8.28125 -17.34375 L 10.0625 -17.25 C 11.882812 -17.132812 13.34375 -16.578125 14.4375 -15.578125 C 15.53125 -14.578125 16.113281 -13.125 16.1875 -11.21875 L 16.21875 -10.375 C 16.34375 -6.851562 15.253906 -4.238281 12.953125 -2.53125 C 10.660156 -0.820312 7.472656 0.117188 3.390625 0.296875 Z M 1.359375 -17.046875 "/></g></g></g><g fill="#ffffff" fill-opacity="1"><g transform="translate(380.713394, 85.417466)"><g><path d="M 9.40625 -11.53125 C 9.40625 -12.59375 9.171875 -13.363281 8.703125 -13.84375 C 8.234375 -14.320312 7.554688 -14.5625 6.671875 -14.5625 L 1.0625 -14.5625 L 1.0625 -17.046875 L 7.484375 -17.046875 C 9.109375 -17.046875 10.375 -16.585938 11.28125 -15.671875 C 12.1875 -14.765625 12.640625 -13.332031 12.640625 -11.375 L 12.640625 0 L 9.40625 0 Z M 9.40625 -11.53125 "/></g></g></g><g fill="#ffffff" fill-opacity="1"><g transform="translate(395.268048, 85.417466)"><g><path d="M 2.125 -13.5 L 1.765625 -17.046875 L 4.96875 -17.046875 L 5.375 -13.5 L 5.375 0 L 2.125 0 Z M 2.125 -13.5 "/></g></g></g><g fill="#ffffff" fill-opacity="1"><g transform="translate(402.545387, 85.417466)"><g><path d="M 2 -2.484375 L 7.484375 -2.484375 C 8.878906 -2.484375 9.984375 -2.894531 10.796875 -3.71875 C 11.609375 -4.550781 12.015625 -5.816406 12.015625 -7.515625 L 12.015625 -9.546875 C 12.015625 -11.148438 11.6875 -12.382812 11.03125 -13.25 C 10.382812 -14.125 9.414062 -14.5625 8.125 -14.5625 L 5.390625 -14.5625 L 4.734375 -11.5625 C 4.628906 -11.09375 4.578125 -10.695312 4.578125 -10.375 C 4.578125 -9.769531 4.75 -9.300781 5.09375 -8.96875 C 5.4375 -8.632812 6.003906 -8.382812 6.796875 -8.21875 L 6.21875 -6.125 C 4.644531 -6.226562 3.5 -6.628906 2.78125 -7.328125 C 2.0625 -8.023438 1.703125 -8.988281 1.703125 -10.21875 C 1.703125 -10.800781 1.75 -11.335938 1.84375 -11.828125 L 3.03125 -17.046875 L 8.828125 -17.046875 C 10.847656 -17.046875 12.421875 -16.378906 13.546875 -15.046875 C 14.679688 -13.710938 15.25 -11.84375 15.25 -9.4375 L 15.25 -7.671875 C 15.25 -5.140625 14.601562 -3.226562 13.3125 -1.9375 C 12.019531 -0.644531 10.300781 0 8.15625 0 L 2 0 Z M 2 -2.484375 "/></g></g></g><g fill="#ffffff" fill-opacity="1"><g transform="translate(419.161968, 85.417466)"><g/></g></g><g fill="#ffffff" fill-opacity="1"><g transform="translate(425.226398, 85.417466)"><g><path d="M 13.53125 -17.046875 L 13.53125 -14.34375 L 7.859375 0 L 4.609375 0 L 10.28125 -14.5625 L 1.15625 -14.5625 L 1.15625 -21.75 L 4.09375 -21.75 L 4.09375 -17.046875 Z M 13.53125 -17.046875 "/></g></g></g><g fill="#ffffff" fill-opacity="1"><g transform="translate(439.962998, 85.417466)"><g><path d="M 18.3125 -12.375 C 18.351562 -8.101562 17.160156 -4.910156 14.734375 -2.796875 C 12.304688 -0.691406 8.585938 0.335938 3.578125 0.296875 L 1.359375 -17.046875 L 4.453125 -17.046875 L 5.421875 -8.984375 C 6.535156 -9.523438 7.296875 -10.238281 7.703125 -11.125 C 8.109375 -12.019531 8.332031 -13.359375 8.375 -15.140625 L 8.375 -17.015625 L 11.46875 -17.015625 L 11.4375 -15.1875 C 11.394531 -12.96875 10.945312 -11.1875 10.09375 -9.84375 C 9.25 -8.5 7.796875 -7.410156 5.734375 -6.578125 L 6.21875 -2.453125 C 9.269531 -2.660156 11.519531 -3.570312 12.96875 -5.1875 C 14.414062 -6.800781 15.128906 -9.144531 15.109375 -12.21875 L 15.046875 -17.046875 L 18.28125 -17.046875 Z M 18.3125 -12.375 "/></g></g></g><g fill="#ffffff" fill-opacity="1"><g transform="translate(459.73311, 85.417466)"><g/></g></g><g fill="#ffffff" fill-opacity="1"><g transform="translate(465.79754, 85.417466)"><g><path d="M 2.125 -13.5 L 1.765625 -17.046875 L 4.96875 -17.046875 L 5.375 -13.5 L 5.375 -8.890625 L 5.34375 -6.96875 L 2.125 -6.375 Z M 2.125 -13.5 "/></g></g></g><g fill="#ffffff" fill-opacity="1"><g transform="translate(473.074879, 85.417466)"><g><path d="M 18.3125 -12.375 C 18.351562 -8.101562 17.160156 -4.910156 14.734375 -2.796875 C 12.304688 -0.691406 8.585938 0.335938 3.578125 0.296875 L 1.359375 -17.046875 L 4.453125 -17.046875 L 5.421875 -8.984375 C 6.535156 -9.523438 7.296875 -10.238281 7.703125 -11.125 C 8.109375 -12.019531 8.332031 -13.359375 8.375 -15.140625 L 8.375 -17.015625 L 11.46875 -17.015625 L 11.4375 -15.1875 C 11.394531 -12.96875 10.945312 -11.1875 10.09375 -9.84375 C 9.25 -8.5 7.796875 -7.410156 5.734375 -6.578125 L 6.21875 -2.453125 C 9.269531 -2.660156 11.519531 -3.570312 12.96875 -5.1875 C 14.414062 -6.800781 15.128906 -9.144531 15.109375 -12.21875 L 15.046875 -17.046875 L 18.28125 -17.046875 Z M 18.3125 -12.375 "/></g></g></g><g fill="#ffffff" fill-opacity="1"><g transform="translate(491.935287, 85.417466)"><g><path d="M 13.3125 0 L 6.9375 -9.671875 L 3.9375 0 L 0.84375 0 L 4.1875 -10.4375 L 5.03125 -12.59375 L 2.25 -17.046875 L 5.546875 -17.046875 L 8.09375 -12.953125 L 10.640625 -9.125 L 11.40625 -11.765625 L 12.953125 -17.046875 L 16.078125 -17.046875 L 12.5625 -6.3125 L 16.765625 0 Z M 13.3125 0 "/></g></g></g><g fill="#ffffff" fill-opacity="1"><g transform="translate(509.704113, 85.417466)"><g><path d="M 9.40625 -11.53125 C 9.40625 -12.59375 9.171875 -13.363281 8.703125 -13.84375 C 8.234375 -14.320312 7.554688 -14.5625 6.671875 -14.5625 L 1.0625 -14.5625 L 1.0625 -17.046875 L 7.484375 -17.046875 C 9.109375 -17.046875 10.375 -16.585938 11.28125 -15.671875 C 12.1875 -14.765625 12.640625 -13.332031 12.640625 -11.375 L 12.640625 0 L 9.40625 0 Z M 9.40625 -11.53125 "/></g></g></g><g fill="#ffffff" fill-opacity="1"><g transform="translate(524.258768, 85.417466)"><g><path d="M 11.953125 -11.53125 C 11.953125 -12.59375 11.71875 -13.363281 11.25 -13.84375 C 10.78125 -14.320312 10.101562 -14.5625 9.21875 -14.5625 L 1.765625 -14.5625 L 1.765625 -17.046875 L 10.03125 -17.046875 C 11.65625 -17.046875 12.921875 -16.585938 13.828125 -15.671875 C 14.734375 -14.765625 15.1875 -13.332031 15.1875 -11.375 L 15.1875 0 L 11.953125 0 Z M 1.671875 -8.25 L 2.125 -10.28125 L 4.90625 -10.28125 L 4.90625 0 L 1.671875 0 Z M 1.671875 -8.25 "/></g></g></g><g clip-path="url(#db469adb40)"><g clip-path="url(#23f41a16c2)"><g transform="matrix(1, 0, 0, 1, 201, 402)"><g clip-path="url(#a094ee6dac)"><g clip-path="url(#ec5b8d7c3c)"><g clip-path="url(#ceb823531f)"><path fill="#176598" d="M 0.730469 0.175781 L 295.378906 0.175781 L 295.378906 114.984375 L 0.730469 114.984375 Z M 0.730469 0.175781 " fill-opacity="1" fill-rule="nonzero"/></g></g></g></g></g></g><g fill="#ffffff" fill-opacity="1"><g transform="translate(226.188395, 449.379753)"><g><path d="M 15.140625 -2.484375 L 15.140625 0 L 1.359375 0 L 1.359375 -2.484375 L 9.796875 -2.484375 L 9.796875 -11.53125 C 9.796875 -12.59375 9.5625 -13.363281 9.09375 -13.84375 C 8.632812 -14.320312 7.957031 -14.5625 7.0625 -14.5625 L 1.359375 -14.5625 L 1.359375 -17.046875 L 7.890625 -17.046875 C 9.503906 -17.046875 10.765625 -16.585938 11.671875 -15.671875 C 12.585938 -14.765625 13.046875 -13.332031 13.046875 -11.375 L 13.046875 -2.484375 Z M 15.140625 -2.484375 "/></g></g></g><g fill="#ffffff" fill-opacity="1"><g transform="translate(242.380456, 449.379753)"><g><path d="M 2.125 -13.5 L 1.765625 -17.046875 L 4.96875 -17.046875 L 5.375 -13.5 L 5.375 0 L 2.125 0 Z M 2.125 -13.5 "/></g></g></g><g fill="#ffffff" fill-opacity="1"><g transform="translate(249.657794, 449.379753)"><g><path d="M 18.3125 -12.375 C 18.351562 -8.101562 17.160156 -4.910156 14.734375 -2.796875 C 12.304688 -0.691406 8.585938 0.335938 3.578125 0.296875 L 1.359375 -17.046875 L 4.453125 -17.046875 L 5.421875 -8.984375 C 6.535156 -9.523438 7.296875 -10.238281 7.703125 -11.125 C 8.109375 -12.019531 8.332031 -13.359375 8.375 -15.140625 L 8.375 -17.015625 L 11.46875 -17.015625 L 11.4375 -15.1875 C 11.394531 -12.96875 10.945312 -11.1875 10.09375 -9.84375 C 9.25 -8.5 7.796875 -7.410156 5.734375 -6.578125 L 6.21875 -2.453125 C 9.269531 -2.660156 11.519531 -3.570312 12.96875 -5.1875 C 14.414062 -6.800781 15.128906 -9.144531 15.109375 -12.21875 L 15.046875 -17.046875 L 18.28125 -17.046875 Z M 18.3125 -12.375 "/></g></g></g><g fill="#ffffff" fill-opacity="1"><g transform="translate(269.427884, 449.379753)"><g><path d="M 2.125 -13.5 L 1.765625 -17.046875 L 4.96875 -17.046875 L 5.375 -13.5 L 5.375 -8.890625 L 5.34375 -6.96875 L 2.125 -6.375 Z M 2.125 -13.5 "/></g></g></g><g fill="#ffffff" fill-opacity="1"><g transform="translate(276.705223, 449.379753)"><g><path d="M 2.125 -13.5 L 1.765625 -17.046875 L 4.96875 -17.046875 L 5.375 -13.5 L 5.375 -8.890625 L 5.34375 -6.96875 L 2.125 -6.375 Z M 2.125 -13.5 "/></g></g></g><g fill="#ffffff" fill-opacity="1"><g transform="translate(283.982562, 449.379753)"><g><path d="M 11.953125 -11.53125 C 11.953125 -12.59375 11.71875 -13.363281 11.25 -13.84375 C 10.78125 -14.320312 10.101562 -14.5625 9.21875 -14.5625 L 1.765625 -14.5625 L 1.765625 -17.046875 L 10.03125 -17.046875 C 11.65625 -17.046875 12.921875 -16.585938 13.828125 -15.671875 C 14.734375 -14.765625 15.1875 -13.332031 15.1875 -11.375 L 15.1875 0 L 11.953125 0 Z M 1.671875 -8.25 L 2.125 -10.28125 L 4.90625 -10.28125 L 4.90625 0 L 1.671875 0 Z M 1.671875 -8.25 "/></g></g></g><g fill="#ffffff" fill-opacity="1"><g transform="translate(300.902359, 449.379753)"><g/></g></g><g fill="#ffffff" fill-opacity="1"><g transform="translate(306.9668, 449.379753)"><g><path d="M 10.765625 -17.046875 C 12.378906 -17.046875 13.640625 -16.585938 14.546875 -15.671875 C 15.460938 -14.765625 15.921875 -13.332031 15.921875 -11.375 L 15.921875 0 L 1.96875 0 L 1.96875 -17.046875 Z M 12.671875 -2.484375 L 12.671875 -11.53125 C 12.671875 -12.59375 12.4375 -13.363281 11.96875 -13.84375 C 11.507812 -14.320312 10.835938 -14.5625 9.953125 -14.5625 L 5.21875 -14.5625 L 5.21875 -2.484375 Z M 12.671875 -2.484375 "/></g></g></g><g fill="#ffffff" fill-opacity="1"><g transform="translate(324.705295, 449.379753)"><g><path d="M 18.3125 -12.375 C 18.351562 -8.101562 17.160156 -4.910156 14.734375 -2.796875 C 12.304688 -0.691406 8.585938 0.335938 3.578125 0.296875 L 1.359375 -17.046875 L 4.453125 -17.046875 L 5.421875 -8.984375 C 6.535156 -9.523438 7.296875 -10.238281 7.703125 -11.125 C 8.109375 -12.019531 8.332031 -13.359375 8.375 -15.140625 L 8.375 -17.015625 L 11.46875 -17.015625 L 11.4375 -15.1875 C 11.394531 -12.96875 10.945312 -11.1875 10.09375 -9.84375 C 9.25 -8.5 7.796875 -7.410156 5.734375 -6.578125 L 6.21875 -2.453125 C 9.269531 -2.660156 11.519531 -3.570312 12.96875 -5.1875 C 14.414062 -6.800781 15.128906 -9.144531 15.109375 -12.21875 L 15.046875 -17.046875 L 18.28125 -17.046875 Z M 18.3125 -12.375 "/></g></g></g><g fill="#ffffff" fill-opacity="1"><g transform="translate(344.475384, 449.379753)"><g/></g></g><g fill="#ffffff" fill-opacity="1"><g transform="translate(350.539826, 449.379753)"><g><path d="M 0.609375 -1.796875 C 1.773438 -1.910156 2.5625 -2.21875 2.96875 -2.71875 C 3.375 -3.226562 3.578125 -4.050781 3.578125 -5.1875 L 3.578125 -17.046875 L 11.765625 -17.046875 C 13.378906 -17.046875 14.640625 -16.585938 15.546875 -15.671875 C 16.460938 -14.765625 16.921875 -13.332031 16.921875 -11.375 L 16.921875 0 L 13.671875 0 L 13.671875 -11.53125 C 13.671875 -12.59375 13.4375 -13.363281 12.96875 -13.84375 C 12.507812 -14.320312 11.835938 -14.5625 10.953125 -14.5625 L 6.828125 -14.5625 L 6.828125 -5.546875 C 6.828125 -3.546875 6.359375 -2.085938 5.421875 -1.171875 C 4.492188 -0.265625 2.988281 0.285156 0.90625 0.484375 Z M 0.609375 -1.796875 "/></g></g></g><g fill="#ffffff" fill-opacity="1"><g transform="translate(369.278963, 449.379753)"><g><path d="M 13.3125 0 L 6.9375 -9.671875 L 3.9375 0 L 0.84375 0 L 4.1875 -10.4375 L 5.03125 -12.59375 L 2.25 -17.046875 L 5.546875 -17.046875 L 8.09375 -12.953125 L 10.640625 -9.125 L 11.40625 -11.765625 L 12.953125 -17.046875 L 16.078125 -17.046875 L 12.5625 -6.3125 L 16.765625 0 Z M 13.3125 0 "/></g></g></g><g fill="#ffffff" fill-opacity="1"><g transform="translate(387.04779, 449.379753)"><g/></g></g><g fill="#ffffff" fill-opacity="1"><g transform="translate(393.112231, 449.379753)"><g><path d="M 15.140625 -2.484375 L 15.140625 0 L 1.359375 0 L 1.359375 -2.484375 L 9.796875 -2.484375 L 9.796875 -11.53125 C 9.796875 -12.59375 9.5625 -13.363281 9.09375 -13.84375 C 8.632812 -14.320312 7.957031 -14.5625 7.0625 -14.5625 L 1.359375 -14.5625 L 1.359375 -17.046875 L 7.890625 -17.046875 C 9.503906 -17.046875 10.765625 -16.585938 11.671875 -15.671875 C 12.585938 -14.765625 13.046875 -13.332031 13.046875 -11.375 L 13.046875 -2.484375 Z M 15.140625 -2.484375 "/></g></g></g><g fill="#ffffff" fill-opacity="1"><g transform="translate(409.304292, 449.379753)"><g><path d="M 2.125 -13.5 L 1.765625 -17.046875 L 4.96875 -17.046875 L 5.375 -13.5 L 5.375 0 L 2.125 0 Z M 2.125 -13.5 "/></g></g></g><g fill="#ffffff" fill-opacity="1"><g transform="translate(416.581631, 449.379753)"><g><path d="M 0.609375 -1.796875 C 1.773438 -1.910156 2.5625 -2.21875 2.96875 -2.71875 C 3.375 -3.226562 3.578125 -4.050781 3.578125 -5.1875 L 3.578125 -17.046875 L 11.765625 -17.046875 C 13.378906 -17.046875 14.640625 -16.585938 15.546875 -15.671875 C 16.460938 -14.765625 16.921875 -13.332031 16.921875 -11.375 L 16.921875 0 L 13.671875 0 L 13.671875 -11.53125 C 13.671875 -12.59375 13.4375 -13.363281 12.96875 -13.84375 C 12.507812 -14.320312 11.835938 -14.5625 10.953125 -14.5625 L 6.828125 -14.5625 L 6.828125 -5.546875 C 6.828125 -3.546875 6.359375 -2.085938 5.421875 -1.171875 C 4.492188 -0.265625 2.988281 0.285156 0.90625 0.484375 Z M 0.609375 -1.796875 "/></g></g></g><g fill="#ffffff" fill-opacity="1"><g transform="translate(435.32078, 449.379753)"><g><path d="M 1.15625 -2.484375 L 5.515625 -2.484375 C 6.953125 -2.484375 8.023438 -2.914062 8.734375 -3.78125 C 9.441406 -4.65625 9.796875 -5.890625 9.796875 -7.484375 L 9.796875 -9.546875 C 9.796875 -11.148438 9.441406 -12.382812 8.734375 -13.25 C 8.023438 -14.125 6.953125 -14.5625 5.515625 -14.5625 L 1.15625 -14.5625 L 1.15625 -17.046875 L 6.3125 -17.046875 C 8.46875 -17.046875 10.128906 -16.378906 11.296875 -15.046875 C 12.460938 -13.710938 13.046875 -11.832031 13.046875 -9.40625 L 13.046875 -7.640625 C 13.046875 -5.210938 12.460938 -3.332031 11.296875 -2 C 10.128906 -0.664062 8.46875 0 6.3125 0 L 1.15625 0 Z M 1.15625 -2.484375 "/></g></g></g><g fill="#ffffff" fill-opacity="1"><g transform="translate(449.814794, 449.379753)"><g><path d="M 13.53125 -17.046875 L 13.53125 -14.34375 L 7.859375 0 L 4.609375 0 L 10.28125 -14.5625 L 1.15625 -14.5625 L 1.15625 -21.75 L 4.09375 -21.75 L 4.09375 -17.046875 Z M 13.53125 -17.046875 "/></g></g></g><g fill="#ffffff" fill-opacity="1"><g transform="translate(464.551394, 449.379753)"><g><path d="M 2.125 -13.5 L 1.765625 -17.046875 L 4.96875 -17.046875 L 5.375 -13.5 L 5.375 0 L 2.125 0 Z M 2.125 -13.5 "/></g></g></g><g fill="#ffffff" fill-opacity="1"><g transform="translate(315.644927, 491.33921)"><g><path d="M 10.765625 -17.046875 C 12.378906 -17.046875 13.640625 -16.585938 14.546875 -15.671875 C 15.460938 -14.765625 15.921875 -13.332031 15.921875 -11.375 L 15.921875 0 L 1.96875 0 L 1.96875 -17.046875 Z M 12.671875 -2.484375 L 12.671875 -11.53125 C 12.671875 -12.59375 12.4375 -13.363281 11.96875 -13.84375 C 11.507812 -14.320312 10.835938 -14.5625 9.953125 -14.5625 L 5.21875 -14.5625 L 5.21875 -2.484375 Z M 12.671875 -2.484375 "/></g></g></g><g fill="#ffffff" fill-opacity="1"><g transform="translate(333.383421, 491.33921)"><g><path d="M 1.15625 -2.484375 L 5.515625 -2.484375 C 6.953125 -2.484375 8.023438 -2.914062 8.734375 -3.78125 C 9.441406 -4.65625 9.796875 -5.890625 9.796875 -7.484375 L 9.796875 -9.546875 C 9.796875 -11.148438 9.441406 -12.382812 8.734375 -13.25 C 8.023438 -14.125 6.953125 -14.5625 5.515625 -14.5625 L 1.15625 -14.5625 L 1.15625 -17.046875 L 6.3125 -17.046875 C 8.46875 -17.046875 10.128906 -16.378906 11.296875 -15.046875 C 12.460938 -13.710938 13.046875 -11.832031 13.046875 -9.40625 L 13.046875 -7.640625 C 13.046875 -5.210938 12.460938 -3.332031 11.296875 -2 C 10.128906 -0.664062 8.46875 0 6.3125 0 L 1.15625 0 Z M 1.15625 -2.484375 "/></g></g></g><g fill="#ffffff" fill-opacity="1"><g transform="translate(347.877446, 491.33921)"><g><path d="M 13.53125 -17.046875 L 13.53125 -14.34375 L 7.859375 0 L 4.609375 0 L 10.28125 -14.5625 L 1.15625 -14.5625 L 1.15625 -21.75 L 4.09375 -21.75 L 4.09375 -17.046875 Z M 13.53125 -17.046875 "/></g></g></g><g fill="#ffffff" fill-opacity="1"><g transform="translate(362.614047, 491.33921)"><g><path d="M 18.3125 -12.375 C 18.351562 -8.101562 17.160156 -4.910156 14.734375 -2.796875 C 12.304688 -0.691406 8.585938 0.335938 3.578125 0.296875 L 1.359375 -17.046875 L 4.453125 -17.046875 L 5.421875 -8.984375 C 6.535156 -9.523438 7.296875 -10.238281 7.703125 -11.125 C 8.109375 -12.019531 8.332031 -13.359375 8.375 -15.140625 L 8.375 -17.015625 L 11.46875 -17.015625 L 11.4375 -15.1875 C 11.394531 -12.96875 10.945312 -11.1875 10.09375 -9.84375 C 9.25 -8.5 7.796875 -7.410156 5.734375 -6.578125 L 6.21875 -2.453125 C 9.269531 -2.660156 11.519531 -3.570312 12.96875 -5.1875 C 14.414062 -6.800781 15.128906 -9.144531 15.109375 -12.21875 L 15.046875 -17.046875 L 18.28125 -17.046875 Z M 18.3125 -12.375 "/></g></g></g><g clip-path="url(#cb9b17070d)"><g clip-path="url(#0dc206d5ca)"><g transform="matrix(1, 0, 0, 1, 339, 135)"><g clip-path="url(#14f5a582a3)"><g clip-path="url(#e450378603)"><g clip-path="url(#caaf6969d4)"><path fill="#052554" d="M 0.261719 0.808594 L 37.957031 0.808594 L 37.957031 44.542969 L 0.261719 44.542969 Z M 0.261719 0.808594 " fill-opacity="1" fill-rule="nonzero"/></g></g></g></g></g></g><g clip-path="url(#97176336a1)"><g clip-path="url(#7fc5b302c8)"><g transform="matrix(1, 0, 0, 1, 339, 331)"><g clip-path="url(#5b815fa422)"><g clip-path="url(#5b772628f5)"><g clip-path="url(#61445b7e2e)"><path fill="#052554" d="M 0.261719 0.4375 L 37.957031 0.4375 L 37.957031 44.171875 L 0.261719 44.171875 Z M 0.261719 0.4375 " fill-opacity="1" fill-rule="nonzero"/></g></g></g></g></g></g></svg>