<svg xmlns="http://www.w3.org/2000/svg" xmlns:xlink="http://www.w3.org/1999/xlink" width="1451" zoomAndPan="magnify" viewBox="0 0 1088.25 375.749989" height="501" preserveAspectRatio="xMidYMid meet" version="1.2"><defs><clipPath id="a0aea9800a"><path d="M 0 157.410156 L 1087.5 157.410156 L 1087.5 231.066406 L 0 231.066406 Z M 0 157.410156 "/></clipPath><clipPath id="09fc4eaab1"><path d="M 10.492188 157.410156 L 1076.867188 157.410156 C 1082.664062 157.410156 1087.359375 162.109375 1087.359375 167.902344 L 1087.359375 220.574219 C 1087.359375 226.367188 1082.664062 231.066406 1076.867188 231.066406 L 10.492188 231.066406 C 4.699219 231.066406 0 226.367188 0 220.574219 L 0 167.902344 C 0 162.109375 4.699219 157.410156 10.492188 157.410156 Z M 10.492188 157.410156 "/></clipPath><clipPath id="b174ca473b"><path d="M 0 0.410156 L 1087.410156 0.410156 L 1087.410156 74.066406 L 0 74.066406 Z M 0 0.410156 "/></clipPath><clipPath id="0d7038b20e"><path d="M 10.492188 0.410156 L 1076.867188 0.410156 C 1082.664062 0.410156 1087.359375 5.109375 1087.359375 10.902344 L 1087.359375 63.574219 C 1087.359375 69.367188 1082.664062 74.066406 1076.867188 74.066406 L 10.492188 74.066406 C 4.699219 74.066406 0 69.367188 0 63.574219 L 0 10.902344 C 0 5.109375 4.699219 0.410156 10.492188 0.410156 Z M 10.492188 0.410156 "/></clipPath><clipPath id="ee724ec94c"><rect x="0" width="1088" y="0" height="75"/></clipPath><clipPath id="b2bd663b3c"><path d="M 118.980469 0.00390625 L 987.886719 0.00390625 L 987.886719 73.660156 L 118.980469 73.660156 Z M 118.980469 0.00390625 "/></clipPath><clipPath id="1a8ab746ac"><path d="M 129.476562 0.00390625 L 977.246094 0.00390625 C 983.042969 0.00390625 987.738281 4.703125 987.738281 10.496094 L 987.738281 63.167969 C 987.738281 68.960938 983.042969 73.660156 977.246094 73.660156 L 129.476562 73.660156 C 123.679688 73.660156 118.980469 68.960938 118.980469 63.167969 L 118.980469 10.496094 C 118.980469 4.703125 123.679688 0.00390625 129.476562 0.00390625 Z M 129.476562 0.00390625 "/></clipPath><clipPath id="2346ccf9b0"><path d="M 0.980469 0.00390625 L 869.878906 0.00390625 L 869.878906 73.660156 L 0.980469 73.660156 Z M 0.980469 0.00390625 "/></clipPath><clipPath id="f467731504"><path d="M 11.476562 0.00390625 L 859.246094 0.00390625 C 865.042969 0.00390625 869.738281 4.703125 869.738281 10.496094 L 869.738281 63.167969 C 869.738281 68.960938 865.042969 73.660156 859.246094 73.660156 L 11.476562 73.660156 C 5.679688 73.660156 0.980469 68.960938 0.980469 63.167969 L 0.980469 10.496094 C 0.980469 4.703125 5.679688 0.00390625 11.476562 0.00390625 Z M 11.476562 0.00390625 "/></clipPath><clipPath id="ba7b798be4"><rect x="0" width="870" y="0" height="74"/></clipPath><clipPath id="b3e0280514"><path d="M 388.425781 311.757812 L 718.316406 311.757812 L 718.316406 375.304688 L 388.425781 375.304688 Z M 388.425781 311.757812 "/></clipPath><clipPath id="e398b23e40"><path d="M 398.917969 311.757812 L 707.804688 311.757812 C 713.597656 311.757812 718.296875 316.457031 718.296875 322.25 L 718.296875 364.8125 C 718.296875 370.605469 713.597656 375.304688 707.804688 375.304688 L 398.917969 375.304688 C 393.125 375.304688 388.425781 370.605469 388.425781 364.8125 L 388.425781 322.25 C 388.425781 316.457031 393.125 311.757812 398.917969 311.757812 Z M 398.917969 311.757812 "/></clipPath><clipPath id="ae7f313fb2"><path d="M 0.425781 0.757812 L 330.304688 0.757812 L 330.304688 64.304688 L 0.425781 64.304688 Z M 0.425781 0.757812 "/></clipPath><clipPath id="cb125d4325"><path d="M 10.917969 0.757812 L 319.804688 0.757812 C 325.597656 0.757812 330.296875 5.457031 330.296875 11.25 L 330.296875 53.8125 C 330.296875 59.605469 325.597656 64.304688 319.804688 64.304688 L 10.917969 64.304688 C 5.125 64.304688 0.425781 59.605469 0.425781 53.8125 L 0.425781 11.25 C 0.425781 5.457031 5.125 0.757812 10.917969 0.757812 Z M 10.917969 0.757812 "/></clipPath><clipPath id="e392bc7e6a"><rect x="0" width="331" y="0" height="65"/></clipPath><clipPath id="00029f33d0"><path d="M 528.464844 86.492188 L 587.246094 86.492188 L 587.246094 145.269531 L 528.464844 145.269531 Z M 528.464844 86.492188 "/></clipPath><clipPath id="42cff804d9"><path d="M 557.855469 145.269531 L 528.464844 115.878906 L 543.160156 115.878906 L 543.160156 86.492188 L 572.550781 86.492188 L 572.550781 115.878906 L 587.246094 115.878906 Z M 557.855469 145.269531 "/></clipPath><clipPath id="a19069d57d"><path d="M 0.464844 0.492188 L 59.246094 0.492188 L 59.246094 59.269531 L 0.464844 59.269531 Z M 0.464844 0.492188 "/></clipPath><clipPath id="739e9d45df"><path d="M 29.855469 59.269531 L 0.464844 29.878906 L 15.160156 29.878906 L 15.160156 0.492188 L 44.550781 0.492188 L 44.550781 29.878906 L 59.246094 29.878906 Z M 29.855469 59.269531 "/></clipPath><clipPath id="fd77624b6c"><rect x="0" width="60" y="0" height="60"/></clipPath><clipPath id="6fe8efa159"><path d="M 528.464844 243.917969 L 587.246094 243.917969 L 587.246094 302.699219 L 528.464844 302.699219 Z M 528.464844 243.917969 "/></clipPath><clipPath id="752c1ab0ed"><path d="M 557.855469 302.699219 L 528.464844 273.308594 L 543.160156 273.308594 L 543.160156 243.917969 L 572.550781 243.917969 L 572.550781 273.308594 L 587.246094 273.308594 Z M 557.855469 302.699219 "/></clipPath><clipPath id="7b1daf741d"><path d="M 0.464844 0.917969 L 59.246094 0.917969 L 59.246094 59.699219 L 0.464844 59.699219 Z M 0.464844 0.917969 "/></clipPath><clipPath id="d8152faa6f"><path d="M 29.855469 59.699219 L 0.464844 30.308594 L 15.160156 30.308594 L 15.160156 0.917969 L 44.550781 0.917969 L 44.550781 30.308594 L 59.246094 30.308594 Z M 29.855469 59.699219 "/></clipPath><clipPath id="270ab0f210"><rect x="0" width="60" y="0" height="60"/></clipPath></defs><g id="cf47967159"><g clip-rule="nonzero" clip-path="url(#a0aea9800a)"><g clip-rule="nonzero" clip-path="url(#09fc4eaab1)"><g transform="matrix(1,0,0,1,0,157)"><g clip-path="url(#ee724ec94c)"><g clip-rule="nonzero" clip-path="url(#b174ca473b)"><g clip-rule="nonzero" clip-path="url(#0d7038b20e)"><path style=" stroke:none;fill-rule:nonzero;fill:#176598;fill-opacity:1;" d="M 0 0.410156 L 1087.28125 0.410156 L 1087.28125 74.066406 L 0 74.066406 Z M 0 0.410156 "/></g></g></g></g></g></g><g style="fill:#ffffff;fill-opacity:1;"><g transform="translate(26.196788, 203.129063)"><path style="stroke:none" d="M 7.484375 -14.609375 C 9.210938 -14.609375 10.523438 -14.039062 11.421875 -12.90625 C 12.328125 -11.769531 12.78125 -10.160156 12.78125 -8.078125 L 12.78125 5.203125 L 10 5.203125 L 10 -8.1875 C 10 -11.039062 8.9375 -12.46875 6.8125 -12.46875 L 4.421875 -12.46875 L 4 -10.375 C 3.925781 -10.007812 3.890625 -9.609375 3.890625 -9.171875 C 3.890625 -8.617188 3.992188 -8.175781 4.203125 -7.84375 C 4.410156 -7.519531 4.757812 -7.3125 5.25 -7.21875 L 4.671875 -5.515625 C 3.484375 -5.617188 2.625 -5.953125 2.09375 -6.515625 C 1.5625 -7.085938 1.296875 -7.867188 1.296875 -8.859375 C 1.296875 -9.410156 1.359375 -9.957031 1.484375 -10.5 L 2.359375 -14.609375 Z M 7.484375 -14.609375 "/></g></g><g style="fill:#ffffff;fill-opacity:1;"><g transform="translate(40.612531, 203.129063)"><path style="stroke:none" d="M 7.453125 -9.4375 C 7.453125 -10.78125 7.695312 -11.789062 8.1875 -12.46875 L 1.171875 -12.46875 L 1.171875 -14.609375 L 12.765625 -14.609375 L 12.765625 -12.46875 L 10.8125 -12.46875 C 10.425781 -11.738281 10.234375 -10.726562 10.234375 -9.4375 L 10.234375 0 L 7.453125 0 Z M 7.453125 -9.4375 "/></g></g><g style="fill:#ffffff;fill-opacity:1;"><g transform="translate(54.612682, 203.129063)"><path style="stroke:none" d="M 10.234375 -9.875 C 10.234375 -10.789062 10.035156 -11.453125 9.640625 -11.859375 C 9.242188 -12.265625 8.664062 -12.46875 7.90625 -12.46875 L 1.5 -12.46875 L 1.5 -14.609375 L 8.59375 -14.609375 C 9.976562 -14.609375 11.0625 -14.21875 11.84375 -13.4375 C 12.625 -12.65625 13.015625 -11.425781 13.015625 -9.75 L 13.015625 0 L 10.234375 0 Z M 1.421875 -7.0625 L 1.8125 -8.8125 L 4.203125 -8.8125 L 4.203125 0 L 1.421875 0 Z M 1.421875 -7.0625 "/></g></g><g style="fill:#ffffff;fill-opacity:1;"><g transform="translate(69.106351, 203.129063)"><path style="stroke:none" d=""/></g></g><g style="fill:#ffffff;fill-opacity:1;"><g transform="translate(74.301215, 203.129063)"><path style="stroke:none" d="M 11.59375 -14.609375 L 11.59375 -12.296875 L 6.734375 0 L 3.953125 0 L 8.8125 -12.46875 L 0.984375 -12.46875 L 0.984375 -18.625 L 3.515625 -18.625 L 3.515625 -14.609375 Z M 11.59375 -14.609375 "/></g></g><g style="fill:#ffffff;fill-opacity:1;"><g transform="translate(86.924732, 203.129063)"><path style="stroke:none" d="M 15.6875 -10.609375 C 15.726562 -6.953125 14.707031 -4.21875 12.625 -2.40625 C 10.550781 -0.59375 7.363281 0.296875 3.0625 0.265625 L 1.171875 -14.609375 L 3.8125 -14.609375 L 4.65625 -7.6875 C 5.601562 -8.15625 6.25 -8.769531 6.59375 -9.53125 C 6.945312 -10.289062 7.140625 -11.4375 7.171875 -12.96875 L 7.171875 -14.578125 L 9.828125 -14.578125 L 9.796875 -13.015625 C 9.765625 -11.109375 9.382812 -9.578125 8.65625 -8.421875 C 7.925781 -7.273438 6.675781 -6.347656 4.90625 -5.640625 L 5.328125 -2.109375 C 7.941406 -2.273438 9.867188 -3.050781 11.109375 -4.4375 C 12.347656 -5.820312 12.957031 -7.832031 12.9375 -10.46875 L 12.890625 -14.609375 L 15.671875 -14.609375 Z M 15.6875 -10.609375 "/></g></g><g style="fill:#ffffff;fill-opacity:1;"><g transform="translate(103.859986, 203.129063)"><path style="stroke:none" d=""/></g></g><g style="fill:#ffffff;fill-opacity:1;"><g transform="translate(109.05485, 203.129063)"><path style="stroke:none" d="M 1.8125 -11.5625 L 1.5 -14.609375 L 4.265625 -14.609375 L 4.59375 -11.5625 L 4.59375 5.203125 L 1.8125 5.203125 Z M 1.8125 -11.5625 "/></g></g><g style="fill:#ffffff;fill-opacity:1;"><g transform="translate(115.288682, 203.129063)"><path style="stroke:none" d="M 1.8125 -11.5625 L 1.5 -14.609375 L 4.265625 -14.609375 L 4.59375 -11.5625 L 4.59375 0 L 1.8125 0 Z M 1.8125 -11.5625 "/></g></g><g style="fill:#ffffff;fill-opacity:1;"><g transform="translate(121.522514, 203.129063)"><path style="stroke:none" d="M 1.8125 -11.5625 L 1.5 -14.609375 L 4.265625 -14.609375 L 4.59375 -11.5625 L 4.59375 -7.609375 L 4.578125 -5.96875 L 1.8125 -5.453125 Z M 1.8125 -11.5625 "/></g></g><g style="fill:#ffffff;fill-opacity:1;"><g transform="translate(127.756346, 203.129063)"><path style="stroke:none" d="M 11.59375 -14.609375 L 11.59375 -12.296875 L 6.734375 0 L 3.953125 0 L 8.8125 -12.46875 L 0.984375 -12.46875 L 0.984375 -18.625 L 3.515625 -18.625 L 3.515625 -14.609375 Z M 11.59375 -14.609375 "/></g></g><g style="fill:#ffffff;fill-opacity:1;"><g transform="translate(140.379863, 203.129063)"><path style="stroke:none" d="M 13.0625 -14.609375 C 13.0625 -11.109375 12.925781 -8.476562 12.65625 -6.71875 C 12.394531 -4.957031 11.75 -3.523438 10.71875 -2.421875 C 9.6875 -1.328125 8.03125 -0.554688 5.75 -0.109375 L 0.859375 0.859375 L 0.46875 -1.328125 L 4.859375 -2.1875 L 1.65625 -14.609375 L 4.4375 -14.609375 L 7.359375 -2.828125 C 8.285156 -3.242188 8.957031 -3.867188 9.375 -4.703125 C 9.789062 -5.535156 10.050781 -6.585938 10.15625 -7.859375 C 10.257812 -9.128906 10.3125 -11.039062 10.3125 -13.59375 L 10.3125 -14.609375 Z M 13.0625 -14.609375 "/></g></g><g style="fill:#ffffff;fill-opacity:1;"><g transform="translate(154.691708, 203.129063)"><path style="stroke:none" d="M 10.234375 -9.875 C 10.234375 -10.789062 10.035156 -11.453125 9.640625 -11.859375 C 9.242188 -12.265625 8.664062 -12.46875 7.90625 -12.46875 L 1.5 -12.46875 L 1.5 -14.609375 L 8.59375 -14.609375 C 9.976562 -14.609375 11.0625 -14.21875 11.84375 -13.4375 C 12.625 -12.65625 13.015625 -11.425781 13.015625 -9.75 L 13.015625 0 L 10.234375 0 Z M 1.421875 -7.0625 L 1.8125 -8.8125 L 4.203125 -8.8125 L 4.203125 0 L 1.421875 0 Z M 1.421875 -7.0625 "/></g></g><g style="fill:#ffffff;fill-opacity:1;"><g transform="translate(169.185377, 203.129063)"><path style="stroke:none" d=""/></g></g><g style="fill:#ffffff;fill-opacity:1;"><g transform="translate(174.380241, 203.129063)"><path style="stroke:none" d="M 1.8125 -11.5625 L 1.5 -14.609375 L 4.265625 -14.609375 L 4.59375 -11.5625 L 4.59375 -7.609375 L 4.578125 -5.96875 L 1.8125 -5.453125 Z M 1.8125 -11.5625 "/></g></g><g style="fill:#ffffff;fill-opacity:1;"><g transform="translate(180.614074, 203.129063)"><path style="stroke:none" d="M 11.59375 -14.609375 L 11.59375 -12.296875 L 6.734375 0 L 3.953125 0 L 8.8125 -12.46875 L 0.984375 -12.46875 L 0.984375 -18.625 L 3.515625 -18.625 L 3.515625 -14.609375 Z M 11.59375 -14.609375 "/></g></g><g style="fill:#ffffff;fill-opacity:1;"><g transform="translate(192.458281, 203.129063)"><path style="stroke:none" d="M 11.40625 0 L 5.953125 -8.28125 L 3.375 0 L 0.734375 0 L 3.578125 -8.9375 L 4.3125 -10.78125 L 1.921875 -14.609375 L 4.75 -14.609375 L 6.9375 -11.09375 L 9.125 -7.828125 L 9.765625 -10.078125 L 11.09375 -14.609375 L 13.765625 -14.609375 L 10.75 -5.40625 L 14.375 0 Z M 11.40625 0 "/></g></g><g style="fill:#ffffff;fill-opacity:1;"><g transform="translate(207.679224, 203.129063)"><path style="stroke:none" d="M 14.96875 -7.359375 C 14.96875 -4.929688 14.429688 -3.046875 13.359375 -1.703125 C 12.285156 -0.359375 10.757812 0.3125 8.78125 0.3125 C 8.050781 0.3125 7.304688 0.222656 6.546875 0.046875 L 6.828125 -2.078125 C 7.492188 -1.941406 8.054688 -1.875 8.515625 -1.875 C 9.835938 -1.875 10.800781 -2.332031 11.40625 -3.25 C 12.007812 -4.164062 12.3125 -5.507812 12.3125 -7.28125 C 12.3125 -9.164062 12.019531 -10.519531 11.4375 -11.34375 C 10.863281 -12.164062 10.039062 -12.578125 8.96875 -12.578125 C 8.132812 -12.578125 7.453125 -12.335938 6.921875 -11.859375 C 6.390625 -11.378906 6.039062 -10.742188 5.875 -9.953125 L 4.125 0 L 1.34375 0 L 3.21875 -10.0625 L 1.1875 -14.609375 L 4.078125 -14.609375 L 5.25 -11.53125 C 5.613281 -12.625 6.164062 -13.441406 6.90625 -13.984375 C 7.65625 -14.535156 8.503906 -14.8125 9.453125 -14.8125 C 11.191406 -14.8125 12.546875 -14.207031 13.515625 -13 C 14.484375 -11.800781 14.96875 -9.921875 14.96875 -7.359375 Z M 14.96875 -7.359375 "/></g></g><g style="fill:#ffffff;fill-opacity:1;"><g transform="translate(223.809278, 203.129063)"><path style="stroke:none" d="M 15.6875 -10.609375 C 15.726562 -6.953125 14.707031 -4.21875 12.625 -2.40625 C 10.550781 -0.59375 7.363281 0.296875 3.0625 0.265625 L 1.171875 -14.609375 L 3.8125 -14.609375 L 4.65625 -7.6875 C 5.601562 -8.15625 6.25 -8.769531 6.59375 -9.53125 C 6.945312 -10.289062 7.140625 -11.4375 7.171875 -12.96875 L 7.171875 -14.578125 L 9.828125 -14.578125 L 9.796875 -13.015625 C 9.765625 -11.109375 9.382812 -9.578125 8.65625 -8.421875 C 7.925781 -7.273438 6.675781 -6.347656 4.90625 -5.640625 L 5.328125 -2.109375 C 7.941406 -2.273438 9.867188 -3.050781 11.109375 -4.4375 C 12.347656 -5.820312 12.957031 -7.832031 12.9375 -10.46875 L 12.890625 -14.609375 L 15.671875 -14.609375 Z M 15.6875 -10.609375 "/></g></g><g style="fill:#ffffff;fill-opacity:1;"><g transform="translate(240.74452, 203.129063)"><path style="stroke:none" d="M 10.234375 -9.875 C 10.234375 -10.789062 10.035156 -11.453125 9.640625 -11.859375 C 9.242188 -12.265625 8.664062 -12.46875 7.90625 -12.46875 L 1.5 -12.46875 L 1.5 -14.609375 L 8.59375 -14.609375 C 9.976562 -14.609375 11.0625 -14.21875 11.84375 -13.4375 C 12.625 -12.65625 13.015625 -11.425781 13.015625 -9.75 L 13.015625 0 L 10.234375 0 Z M 1.421875 -7.0625 L 1.8125 -8.8125 L 4.203125 -8.8125 L 4.203125 0 L 1.421875 0 Z M 1.421875 -7.0625 "/></g></g><g style="fill:#ffffff;fill-opacity:1;"><g transform="translate(255.2382, 203.129063)"><path style="stroke:none" d=""/></g></g><g style="fill:#ffffff;fill-opacity:1;"><g transform="translate(260.433053, 203.129063)"><path style="stroke:none" d="M 7.453125 -9.4375 C 7.453125 -10.78125 7.695312 -11.789062 8.1875 -12.46875 L 1.171875 -12.46875 L 1.171875 -14.609375 L 12.765625 -14.609375 L 12.765625 -12.46875 L 10.8125 -12.46875 C 10.425781 -11.738281 10.234375 -10.726562 10.234375 -9.4375 L 10.234375 0 L 7.453125 0 Z M 7.453125 -9.4375 "/></g></g><g style="fill:#ffffff;fill-opacity:1;"><g transform="translate(274.433215, 203.129063)"><path style="stroke:none" d="M 9.015625 -6.265625 L 12.65625 0 L 0.90625 0 L 0.90625 -2.125 L 8.578125 -2.125 L 1.328125 -14.609375 L 4.15625 -14.609375 L 7.515625 -8.828125 L 9.921875 -14.609375 L 12.703125 -14.609375 Z M 9.015625 -6.265625 "/></g></g><g style="fill:#ffffff;fill-opacity:1;"><g transform="translate(288.355451, 203.129063)"><path style="stroke:none" d="M 12.96875 -2.125 L 12.96875 0 L 1.171875 0 L 1.171875 -2.125 L 8.390625 -2.125 L 8.390625 -9.875 C 8.390625 -10.789062 8.191406 -11.453125 7.796875 -11.859375 C 7.398438 -12.265625 6.816406 -12.46875 6.046875 -12.46875 L 1.171875 -12.46875 L 1.171875 -14.609375 L 6.75 -14.609375 C 8.132812 -14.609375 9.21875 -14.21875 10 -13.4375 C 10.78125 -12.65625 11.171875 -11.425781 11.171875 -9.75 L 11.171875 -2.125 Z M 12.96875 -2.125 "/></g></g><g style="fill:#ffffff;fill-opacity:1;"><g transform="translate(302.225721, 203.129063)"><path style="stroke:none" d=""/></g></g><g style="fill:#ffffff;fill-opacity:1;"><g transform="translate(307.420596, 203.129063)"><path style="stroke:none" d="M 0.515625 -1.53125 C 1.523438 -1.632812 2.203125 -1.898438 2.546875 -2.328125 C 2.890625 -2.765625 3.0625 -3.46875 3.0625 -4.4375 L 3.0625 -14.609375 L 10.078125 -14.609375 C 11.460938 -14.609375 12.546875 -14.21875 13.328125 -13.4375 C 14.109375 -12.65625 14.5 -11.425781 14.5 -9.75 L 14.5 0 L 11.71875 0 L 11.71875 -9.875 C 11.71875 -10.789062 11.519531 -11.453125 11.125 -11.859375 C 10.726562 -12.265625 10.144531 -12.46875 9.375 -12.46875 L 5.84375 -12.46875 L 5.84375 -4.75 C 5.84375 -3.039062 5.441406 -1.796875 4.640625 -1.015625 C 3.847656 -0.234375 2.5625 0.242188 0.78125 0.421875 Z M 0.515625 -1.53125 "/></g></g><g style="fill:#ffffff;fill-opacity:1;"><g transform="translate(323.472735, 203.129063)"><path style="stroke:none" d="M 14.96875 -7.359375 C 14.96875 -4.929688 14.429688 -3.046875 13.359375 -1.703125 C 12.285156 -0.359375 10.757812 0.3125 8.78125 0.3125 C 8.050781 0.3125 7.304688 0.222656 6.546875 0.046875 L 6.828125 -2.078125 C 7.492188 -1.941406 8.054688 -1.875 8.515625 -1.875 C 9.835938 -1.875 10.800781 -2.332031 11.40625 -3.25 C 12.007812 -4.164062 12.3125 -5.507812 12.3125 -7.28125 C 12.3125 -9.164062 12.019531 -10.519531 11.4375 -11.34375 C 10.863281 -12.164062 10.039062 -12.578125 8.96875 -12.578125 C 8.132812 -12.578125 7.453125 -12.335938 6.921875 -11.859375 C 6.390625 -11.378906 6.039062 -10.742188 5.875 -9.953125 L 4.125 0 L 1.34375 0 L 3.21875 -10.0625 L 1.1875 -14.609375 L 4.078125 -14.609375 L 5.25 -11.53125 C 5.613281 -12.625 6.164062 -13.441406 6.90625 -13.984375 C 7.65625 -14.535156 8.503906 -14.8125 9.453125 -14.8125 C 11.191406 -14.8125 12.546875 -14.207031 13.515625 -13 C 14.484375 -11.800781 14.96875 -9.921875 14.96875 -7.359375 Z M 14.96875 -7.359375 "/></g></g><g style="fill:#ffffff;fill-opacity:1;"><g transform="translate(339.602777, 203.129063)"><path style="stroke:none" d="M 6 -2.125 C 6.851562 -2.21875 7.566406 -2.421875 8.140625 -2.734375 C 8.722656 -3.054688 9.191406 -3.59375 9.546875 -4.34375 C 9.898438 -5.101562 10.125 -6.140625 10.21875 -7.453125 L 10.609375 -12.46875 L 1.40625 -12.46875 L 1.40625 -14.609375 L 13.59375 -14.609375 L 13.484375 -12.734375 L 13.125 -8.109375 C 13 -5.554688 12.363281 -3.578125 11.21875 -2.171875 C 10.082031 -0.773438 8.429688 -0.0390625 6.265625 0.03125 Z M 1.34375 -7.328125 L 1.734375 -9.09375 L 4.125 -9.09375 L 4.125 5.203125 L 1.34375 5.203125 Z M 1.34375 -7.328125 "/></g></g><g style="fill:#ffffff;fill-opacity:1;"><g transform="translate(354.330213, 203.129063)"><path style="stroke:none" d="M 1.8125 -11.5625 L 1.5 -14.609375 L 4.265625 -14.609375 L 4.59375 -11.5625 L 4.59375 0 L 1.8125 0 Z M 1.8125 -11.5625 "/></g></g><g style="fill:#ffffff;fill-opacity:1;"><g transform="translate(360.564045, 203.129063)"><path style="stroke:none" d="M 14.96875 -7.359375 C 14.96875 -4.929688 14.429688 -3.046875 13.359375 -1.703125 C 12.285156 -0.359375 10.757812 0.3125 8.78125 0.3125 C 8.050781 0.3125 7.304688 0.222656 6.546875 0.046875 L 6.828125 -2.078125 C 7.492188 -1.941406 8.054688 -1.875 8.515625 -1.875 C 9.835938 -1.875 10.800781 -2.332031 11.40625 -3.25 C 12.007812 -4.164062 12.3125 -5.507812 12.3125 -7.28125 C 12.3125 -9.164062 12.019531 -10.519531 11.4375 -11.34375 C 10.863281 -12.164062 10.039062 -12.578125 8.96875 -12.578125 C 8.132812 -12.578125 7.453125 -12.335938 6.921875 -11.859375 C 6.390625 -11.378906 6.039062 -10.742188 5.875 -9.953125 L 4.125 0 L 1.34375 0 L 3.21875 -10.0625 L 1.1875 -14.609375 L 4.078125 -14.609375 L 5.25 -11.53125 C 5.613281 -12.625 6.164062 -13.441406 6.90625 -13.984375 C 7.65625 -14.535156 8.503906 -14.8125 9.453125 -14.8125 C 11.191406 -14.8125 12.546875 -14.207031 13.515625 -13 C 14.484375 -11.800781 14.96875 -9.921875 14.96875 -7.359375 Z M 14.96875 -7.359375 "/></g></g><g style="fill:#ffffff;fill-opacity:1;"><g transform="translate(376.69411, 203.129063)"><path style="stroke:none" d="M 14.96875 -7.359375 C 14.96875 -4.929688 14.429688 -3.046875 13.359375 -1.703125 C 12.285156 -0.359375 10.757812 0.3125 8.78125 0.3125 C 8.050781 0.3125 7.304688 0.222656 6.546875 0.046875 L 6.828125 -2.078125 C 7.492188 -1.941406 8.054688 -1.875 8.515625 -1.875 C 9.835938 -1.875 10.800781 -2.332031 11.40625 -3.25 C 12.007812 -4.164062 12.3125 -5.507812 12.3125 -7.28125 C 12.3125 -9.164062 12.019531 -10.519531 11.4375 -11.34375 C 10.863281 -12.164062 10.039062 -12.578125 8.96875 -12.578125 C 8.132812 -12.578125 7.453125 -12.335938 6.921875 -11.859375 C 6.390625 -11.378906 6.039062 -10.742188 5.875 -9.953125 L 4.125 0 L 1.34375 0 L 3.21875 -10.0625 L 1.1875 -14.609375 L 4.078125 -14.609375 L 5.25 -11.53125 C 5.613281 -12.625 6.164062 -13.441406 6.90625 -13.984375 C 7.65625 -14.535156 8.503906 -14.8125 9.453125 -14.8125 C 11.191406 -14.8125 12.546875 -14.207031 13.515625 -13 C 14.484375 -11.800781 14.96875 -9.921875 14.96875 -7.359375 Z M 14.96875 -7.359375 "/></g></g><g style="fill:#ffffff;fill-opacity:1;"><g transform="translate(392.824152, 203.129063)"><path style="stroke:none" d="M 10.234375 -9.875 C 10.234375 -10.789062 10.035156 -11.453125 9.640625 -11.859375 C 9.242188 -12.265625 8.664062 -12.46875 7.90625 -12.46875 L 1.5 -12.46875 L 1.5 -14.609375 L 8.59375 -14.609375 C 9.976562 -14.609375 11.0625 -14.21875 11.84375 -13.4375 C 12.625 -12.65625 13.015625 -11.425781 13.015625 -9.75 L 13.015625 0 L 10.234375 0 Z M 1.421875 -7.0625 L 1.8125 -8.8125 L 4.203125 -8.8125 L 4.203125 0 L 1.421875 0 Z M 1.421875 -7.0625 "/></g></g><g style="fill:#ffffff;fill-opacity:1;"><g transform="translate(407.317809, 203.129063)"><path style="stroke:none" d=""/></g></g><g style="fill:#ffffff;fill-opacity:1;"><g transform="translate(412.512685, 203.129063)"><path style="stroke:none" d="M 2.125 -15.203125 L 2.046875 -17.90625 L 4.78125 -17.90625 L 4.703125 -15.203125 L 4.1875 -10.625 L 2.65625 -10.625 Z M 7.171875 -15.203125 L 7.09375 -17.90625 L 9.828125 -17.90625 L 9.75 -15.203125 L 9.234375 -10.625 L 7.703125 -10.625 Z M 7.171875 -15.203125 "/></g></g><g style="fill:#ffffff;fill-opacity:1;"><g transform="translate(424.408904, 203.129063)"><path style="stroke:none" d="M 7.453125 -3.046875 L 10.109375 5.203125 L 7.4375 5.203125 L 1.046875 -14.609375 L 3.71875 -14.609375 L 6.34375 -6.46875 L 9.671875 -14.609375 L 12.296875 -14.609375 Z M 7.453125 -3.046875 "/></g></g><g style="fill:#ffffff;fill-opacity:1;"><g transform="translate(437.292161, 203.129063)"><path style="stroke:none" d="M 8.0625 -9.875 C 8.0625 -10.789062 7.859375 -11.453125 7.453125 -11.859375 C 7.054688 -12.265625 6.476562 -12.46875 5.71875 -12.46875 L 0.90625 -12.46875 L 0.90625 -14.609375 L 6.421875 -14.609375 C 7.804688 -14.609375 8.882812 -14.21875 9.65625 -13.4375 C 10.4375 -12.65625 10.828125 -11.425781 10.828125 -9.75 L 10.828125 0 L 8.0625 0 Z M 8.0625 -9.875 "/></g></g><g style="fill:#ffffff;fill-opacity:1;"><g transform="translate(449.759871, 203.129063)"><path style="stroke:none" d="M 11.40625 0 L 5.953125 -8.28125 L 3.375 0 L 0.734375 0 L 3.578125 -8.9375 L 4.3125 -10.78125 L 1.921875 -14.609375 L 4.75 -14.609375 L 6.9375 -11.09375 L 9.125 -7.828125 L 9.765625 -10.078125 L 11.09375 -14.609375 L 13.765625 -14.609375 L 10.75 -5.40625 L 14.375 0 Z M 11.40625 0 "/></g></g><g style="fill:#ffffff;fill-opacity:1;"><g transform="translate(464.98078, 203.129063)"><path style="stroke:none" d="M 12.96875 -2.125 L 12.96875 0 L 1.171875 0 L 1.171875 -2.125 L 8.390625 -2.125 L 8.390625 -9.875 C 8.390625 -10.789062 8.191406 -11.453125 7.796875 -11.859375 C 7.398438 -12.265625 6.816406 -12.46875 6.046875 -12.46875 L 1.171875 -12.46875 L 1.171875 -14.609375 L 6.75 -14.609375 C 8.132812 -14.609375 9.21875 -14.21875 10 -13.4375 C 10.78125 -12.65625 11.171875 -11.425781 11.171875 -9.75 L 11.171875 -2.125 Z M 12.96875 -2.125 "/></g></g><g style="fill:#ffffff;fill-opacity:1;"><g transform="translate(478.851073, 203.129063)"><path style="stroke:none" d=""/></g></g><g style="fill:#ffffff;fill-opacity:1;"><g transform="translate(484.045948, 203.129063)"><path style="stroke:none" d="M 12.96875 -2.125 L 12.96875 0 L 1.171875 0 L 1.171875 -2.125 L 8.390625 -2.125 L 8.390625 -9.875 C 8.390625 -10.789062 8.191406 -11.453125 7.796875 -11.859375 C 7.398438 -12.265625 6.816406 -12.46875 6.046875 -12.46875 L 1.171875 -12.46875 L 1.171875 -14.609375 L 6.75 -14.609375 C 8.132812 -14.609375 9.21875 -14.21875 10 -13.4375 C 10.78125 -12.65625 11.171875 -11.425781 11.171875 -9.75 L 11.171875 -2.125 Z M 12.96875 -2.125 "/></g></g><g style="fill:#ffffff;fill-opacity:1;"><g transform="translate(497.916195, 203.129063)"><path style="stroke:none" d="M 9.015625 -6.265625 L 12.65625 0 L 0.90625 0 L 0.90625 -2.125 L 8.578125 -2.125 L 1.328125 -14.609375 L 4.15625 -14.609375 L 7.515625 -8.828125 L 9.921875 -14.609375 L 12.703125 -14.609375 Z M 9.015625 -6.265625 "/></g></g><g style="fill:#ffffff;fill-opacity:1;"><g transform="translate(511.838454, 203.129063)"><path style="stroke:none" d="M 14.96875 -7.359375 C 14.96875 -4.929688 14.429688 -3.046875 13.359375 -1.703125 C 12.285156 -0.359375 10.757812 0.3125 8.78125 0.3125 C 8.050781 0.3125 7.304688 0.222656 6.546875 0.046875 L 6.828125 -2.078125 C 7.492188 -1.941406 8.054688 -1.875 8.515625 -1.875 C 9.835938 -1.875 10.800781 -2.332031 11.40625 -3.25 C 12.007812 -4.164062 12.3125 -5.507812 12.3125 -7.28125 C 12.3125 -9.164062 12.019531 -10.519531 11.4375 -11.34375 C 10.863281 -12.164062 10.039062 -12.578125 8.96875 -12.578125 C 8.132812 -12.578125 7.453125 -12.335938 6.921875 -11.859375 C 6.390625 -11.378906 6.039062 -10.742188 5.875 -9.953125 L 4.125 0 L 1.34375 0 L 3.21875 -10.0625 L 1.1875 -14.609375 L 4.078125 -14.609375 L 5.25 -11.53125 C 5.613281 -12.625 6.164062 -13.441406 6.90625 -13.984375 C 7.65625 -14.535156 8.503906 -14.8125 9.453125 -14.8125 C 11.191406 -14.8125 12.546875 -14.207031 13.515625 -13 C 14.484375 -11.800781 14.96875 -9.921875 14.96875 -7.359375 Z M 14.96875 -7.359375 "/></g></g><g style="fill:#ffffff;fill-opacity:1;"><g transform="translate(527.968496, 203.129063)"><path style="stroke:none" d=""/></g></g><g style="fill:#ffffff;fill-opacity:1;"><g transform="translate(533.163371, 203.129063)"><path style="stroke:none" d="M 0.515625 -1.53125 C 1.523438 -1.632812 2.203125 -1.898438 2.546875 -2.328125 C 2.890625 -2.765625 3.0625 -3.46875 3.0625 -4.4375 L 3.0625 -14.609375 L 10.078125 -14.609375 C 11.460938 -14.609375 12.546875 -14.21875 13.328125 -13.4375 C 14.109375 -12.65625 14.5 -11.425781 14.5 -9.75 L 14.5 0 L 11.71875 0 L 11.71875 -9.875 C 11.71875 -10.789062 11.519531 -11.453125 11.125 -11.859375 C 10.726562 -12.265625 10.144531 -12.46875 9.375 -12.46875 L 5.84375 -12.46875 L 5.84375 -4.75 C 5.84375 -3.039062 5.441406 -1.796875 4.640625 -1.015625 C 3.847656 -0.234375 2.5625 0.242188 0.78125 0.421875 Z M 0.515625 -1.53125 "/></g></g><g style="fill:#ffffff;fill-opacity:1;"><g transform="translate(549.21551, 203.129063)"><path style="stroke:none" d="M 1.140625 -2.125 L 5.359375 -2.125 L 5.359375 -10.296875 C 5.359375 -11.035156 5.207031 -11.570312 4.90625 -11.90625 C 4.613281 -12.25 4.171875 -12.460938 3.578125 -12.546875 L 1.8125 -12.8125 L 2.1875 -14.921875 L 4.890625 -14.53125 C 5.921875 -14.375 6.71875 -13.9375 7.28125 -13.21875 C 7.851562 -12.5 8.140625 -11.539062 8.140625 -10.34375 L 8.140625 0 L 1.140625 0 Z M 1.140625 -2.125 "/></g></g><g style="fill:#ffffff;fill-opacity:1;"><g transform="translate(558.929884, 203.129063)"><path style="stroke:none" d="M 1.8125 -11.5625 L 1.5 -14.609375 L 4.265625 -14.609375 L 4.59375 -11.5625 L 4.59375 0 L 1.8125 0 Z M 1.8125 -11.5625 "/></g></g><g style="fill:#ffffff;fill-opacity:1;"><g transform="translate(565.163716, 203.129063)"><path style="stroke:none" d="M 14.96875 -7.359375 C 14.96875 -4.929688 14.429688 -3.046875 13.359375 -1.703125 C 12.285156 -0.359375 10.757812 0.3125 8.78125 0.3125 C 8.050781 0.3125 7.304688 0.222656 6.546875 0.046875 L 6.828125 -2.078125 C 7.492188 -1.941406 8.054688 -1.875 8.515625 -1.875 C 9.835938 -1.875 10.800781 -2.332031 11.40625 -3.25 C 12.007812 -4.164062 12.3125 -5.507812 12.3125 -7.28125 C 12.3125 -9.164062 12.019531 -10.519531 11.4375 -11.34375 C 10.863281 -12.164062 10.039062 -12.578125 8.96875 -12.578125 C 8.132812 -12.578125 7.453125 -12.335938 6.921875 -11.859375 C 6.390625 -11.378906 6.039062 -10.742188 5.875 -9.953125 L 4.125 0 L 1.34375 0 L 3.21875 -10.0625 L 1.1875 -14.609375 L 4.078125 -14.609375 L 5.25 -11.53125 C 5.613281 -12.625 6.164062 -13.441406 6.90625 -13.984375 C 7.65625 -14.535156 8.503906 -14.8125 9.453125 -14.8125 C 11.191406 -14.8125 12.546875 -14.207031 13.515625 -13 C 14.484375 -11.800781 14.96875 -9.921875 14.96875 -7.359375 Z M 14.96875 -7.359375 "/></g></g><g style="fill:#ffffff;fill-opacity:1;"><g transform="translate(581.293758, 203.129063)"><path style="stroke:none" d="M 0.515625 -1.53125 C 1.523438 -1.632812 2.203125 -1.898438 2.546875 -2.328125 C 2.890625 -2.765625 3.0625 -3.46875 3.0625 -4.4375 L 3.0625 -14.609375 L 10.078125 -14.609375 C 11.460938 -14.609375 12.546875 -14.21875 13.328125 -13.4375 C 14.109375 -12.65625 14.5 -11.425781 14.5 -9.75 L 14.5 0 L 11.71875 0 L 11.71875 -9.875 C 11.71875 -10.789062 11.519531 -11.453125 11.125 -11.859375 C 10.726562 -12.265625 10.144531 -12.46875 9.375 -12.46875 L 5.84375 -12.46875 L 5.84375 -4.75 C 5.84375 -3.039062 5.441406 -1.796875 4.640625 -1.015625 C 3.847656 -0.234375 2.5625 0.242188 0.78125 0.421875 Z M 0.515625 -1.53125 "/></g></g><g style="fill:#ffffff;fill-opacity:1;"><g transform="translate(597.345896, 203.129063)"><path style="stroke:none" d="M 2.125 -15.203125 L 2.046875 -17.90625 L 4.78125 -17.90625 L 4.703125 -15.203125 L 4.1875 -10.625 L 2.65625 -10.625 Z M 7.171875 -15.203125 L 7.09375 -17.90625 L 9.828125 -17.90625 L 9.75 -15.203125 L 9.234375 -10.625 L 7.703125 -10.625 Z M 7.171875 -15.203125 "/></g></g><g style="fill:#ffffff;fill-opacity:1;"><g transform="translate(609.242116, 203.129063)"><path style="stroke:none" d=""/></g></g><g style="fill:#ffffff;fill-opacity:1;"><g transform="translate(614.436991, 203.129063)"><path style="stroke:none" d="M 0.515625 -1.53125 C 1.523438 -1.632812 2.203125 -1.898438 2.546875 -2.328125 C 2.890625 -2.765625 3.0625 -3.46875 3.0625 -4.4375 L 3.0625 -14.609375 L 10.078125 -14.609375 C 11.460938 -14.609375 12.546875 -14.21875 13.328125 -13.4375 C 14.109375 -12.65625 14.5 -11.425781 14.5 -9.75 L 14.5 0 L 11.71875 0 L 11.71875 -9.875 C 11.71875 -10.789062 11.519531 -11.453125 11.125 -11.859375 C 10.726562 -12.265625 10.144531 -12.46875 9.375 -12.46875 L 5.84375 -12.46875 L 5.84375 -4.75 C 5.84375 -3.039062 5.441406 -1.796875 4.640625 -1.015625 C 3.847656 -0.234375 2.5625 0.242188 0.78125 0.421875 Z M 0.515625 -1.53125 "/></g></g><g style="fill:#ffffff;fill-opacity:1;"><g transform="translate(630.48913, 203.129063)"><path style="stroke:none" d="M 12.96875 -2.125 L 12.96875 0 L 1.171875 0 L 1.171875 -2.125 L 8.390625 -2.125 L 8.390625 -9.875 C 8.390625 -10.789062 8.191406 -11.453125 7.796875 -11.859375 C 7.398438 -12.265625 6.816406 -12.46875 6.046875 -12.46875 L 1.171875 -12.46875 L 1.171875 -14.609375 L 6.75 -14.609375 C 8.132812 -14.609375 9.21875 -14.21875 10 -13.4375 C 10.78125 -12.65625 11.171875 -11.425781 11.171875 -9.75 L 11.171875 -2.125 Z M 12.96875 -2.125 "/></g></g><g style="fill:#ffffff;fill-opacity:1;"><g transform="translate(644.359423, 203.129063)"><path style="stroke:none" d="M 1.8125 -11.5625 L 1.5 -14.609375 L 4.265625 -14.609375 L 4.59375 -11.5625 L 4.59375 -7.609375 L 4.578125 -5.96875 L 1.8125 -5.453125 Z M 1.8125 -11.5625 "/></g></g><g style="fill:#ffffff;fill-opacity:1;"><g transform="translate(650.203601, 203.129063)"><path style="stroke:none" d="M 0.515625 -1.53125 C 1.523438 -1.632812 2.203125 -1.898438 2.546875 -2.328125 C 2.890625 -2.765625 3.0625 -3.46875 3.0625 -4.4375 L 3.0625 -14.609375 L 10.078125 -14.609375 C 11.460938 -14.609375 12.546875 -14.21875 13.328125 -13.4375 C 14.109375 -12.65625 14.5 -11.425781 14.5 -9.75 L 14.5 0 L 11.71875 0 L 11.71875 -9.875 C 11.71875 -10.789062 11.519531 -11.453125 11.125 -11.859375 C 10.726562 -12.265625 10.144531 -12.46875 9.375 -12.46875 L 5.84375 -12.46875 L 5.84375 -4.75 C 5.84375 -3.039062 5.441406 -1.796875 4.640625 -1.015625 C 3.847656 -0.234375 2.5625 0.242188 0.78125 0.421875 Z M 0.515625 -1.53125 "/></g></g><g style="fill:#ffffff;fill-opacity:1;"><g transform="translate(666.255739, 203.129063)"><path style="stroke:none" d="M 12.96875 -2.125 L 12.96875 0 L 1.171875 0 L 1.171875 -2.125 L 8.390625 -2.125 L 8.390625 -9.875 C 8.390625 -10.789062 8.191406 -11.453125 7.796875 -11.859375 C 7.398438 -12.265625 6.816406 -12.46875 6.046875 -12.46875 L 1.171875 -12.46875 L 1.171875 -14.609375 L 6.75 -14.609375 C 8.132812 -14.609375 9.21875 -14.21875 10 -13.4375 C 10.78125 -12.65625 11.171875 -11.425781 11.171875 -9.75 L 11.171875 -2.125 Z M 12.96875 -2.125 "/></g></g><g style="fill:#ffffff;fill-opacity:1;"><g transform="translate(680.125987, 203.129063)"><path style="stroke:none" d=""/></g></g><g style="fill:#ffffff;fill-opacity:1;"><g transform="translate(685.320862, 203.129063)"><path style="stroke:none" d="M 2.125 -15.203125 L 2.046875 -17.90625 L 4.78125 -17.90625 L 4.703125 -15.203125 L 4.1875 -10.625 L 2.65625 -10.625 Z M 7.171875 -15.203125 L 7.09375 -17.90625 L 9.828125 -17.90625 L 9.75 -15.203125 L 9.234375 -10.625 L 7.703125 -10.625 Z M 7.171875 -15.203125 "/></g></g><g style="fill:#ffffff;fill-opacity:1;"><g transform="translate(697.217082, 203.129063)"><path style="stroke:none" d="M 12.96875 -2.125 L 12.96875 0 L 1.171875 0 L 1.171875 -2.125 L 8.390625 -2.125 L 8.390625 -9.875 C 8.390625 -10.789062 8.191406 -11.453125 7.796875 -11.859375 C 7.398438 -12.265625 6.816406 -12.46875 6.046875 -12.46875 L 1.171875 -12.46875 L 1.171875 -14.609375 L 6.75 -14.609375 C 8.132812 -14.609375 9.21875 -14.21875 10 -13.4375 C 10.78125 -12.65625 11.171875 -11.425781 11.171875 -9.75 L 11.171875 -2.125 Z M 12.96875 -2.125 "/></g></g><g style="fill:#ffffff;fill-opacity:1;"><g transform="translate(711.087375, 203.129063)"><path style="stroke:none" d="M 1.8125 -11.5625 L 1.5 -14.609375 L 4.265625 -14.609375 L 4.59375 -11.5625 L 4.59375 0 L 1.8125 0 Z M 1.8125 -11.5625 "/></g></g><g style="fill:#ffffff;fill-opacity:1;"><g transform="translate(717.321207, 203.129063)"><path style="stroke:none" d="M 15.6875 -10.609375 C 15.726562 -6.953125 14.707031 -4.21875 12.625 -2.40625 C 10.550781 -0.59375 7.363281 0.296875 3.0625 0.265625 L 1.171875 -14.609375 L 3.8125 -14.609375 L 4.65625 -7.6875 C 5.601562 -8.15625 6.25 -8.769531 6.59375 -9.53125 C 6.945312 -10.289062 7.140625 -11.4375 7.171875 -12.96875 L 7.171875 -14.578125 L 9.828125 -14.578125 L 9.796875 -13.015625 C 9.765625 -11.109375 9.382812 -9.578125 8.65625 -8.421875 C 7.925781 -7.273438 6.675781 -6.347656 4.90625 -5.640625 L 5.328125 -2.109375 C 7.941406 -2.273438 9.867188 -3.050781 11.109375 -4.4375 C 12.347656 -5.820312 12.957031 -7.832031 12.9375 -10.46875 L 12.890625 -14.609375 L 15.671875 -14.609375 Z M 15.6875 -10.609375 "/></g></g><g style="fill:#ffffff;fill-opacity:1;"><g transform="translate(734.256449, 203.129063)"><path style="stroke:none" d="M 1.8125 -11.5625 L 1.5 -14.609375 L 4.265625 -14.609375 L 4.59375 -11.5625 L 4.59375 -7.609375 L 4.578125 -5.96875 L 1.8125 -5.453125 Z M 1.8125 -11.5625 "/></g></g><g style="fill:#ffffff;fill-opacity:1;"><g transform="translate(740.490281, 203.129063)"><path style="stroke:none" d="M 1.8125 -11.5625 L 1.5 -14.609375 L 4.265625 -14.609375 L 4.59375 -11.5625 L 4.59375 -7.609375 L 4.578125 -5.96875 L 1.8125 -5.453125 Z M 1.8125 -11.5625 "/></g></g><g style="fill:#ffffff;fill-opacity:1;"><g transform="translate(746.724113, 203.129063)"><path style="stroke:none" d=""/></g></g><g style="fill:#ffffff;fill-opacity:1;"><g transform="translate(751.918989, 203.129063)"><path style="stroke:none" d="M 1.8125 -11.5625 L 1.5 -14.609375 L 4.265625 -14.609375 L 4.59375 -11.5625 L 4.59375 -7.609375 L 4.578125 -5.96875 L 1.8125 -5.453125 Z M 1.8125 -11.5625 "/></g></g><g style="fill:#ffffff;fill-opacity:1;"><g transform="translate(758.152821, 203.129063)"><path style="stroke:none" d="M 1.71875 -2.125 L 6.421875 -2.125 C 7.617188 -2.125 8.5625 -2.476562 9.25 -3.1875 C 9.945312 -3.90625 10.296875 -4.988281 10.296875 -6.4375 L 10.296875 -8.1875 C 10.296875 -9.550781 10.015625 -10.601562 9.453125 -11.34375 C 8.898438 -12.09375 8.070312 -12.46875 6.96875 -12.46875 L 4.625 -12.46875 L 4.046875 -9.90625 C 3.960938 -9.5 3.921875 -9.160156 3.921875 -8.890625 C 3.921875 -8.367188 4.066406 -7.960938 4.359375 -7.671875 C 4.660156 -7.390625 5.148438 -7.179688 5.828125 -7.046875 L 5.328125 -5.25 C 3.972656 -5.332031 2.988281 -5.671875 2.375 -6.265625 C 1.757812 -6.867188 1.453125 -7.695312 1.453125 -8.75 C 1.453125 -9.257812 1.492188 -9.722656 1.578125 -10.140625 L 2.59375 -14.609375 L 7.5625 -14.609375 C 9.289062 -14.609375 10.640625 -14.035156 11.609375 -12.890625 C 12.578125 -11.742188 13.0625 -10.140625 13.0625 -8.078125 L 13.0625 -6.578125 C 13.0625 -4.410156 12.507812 -2.769531 11.40625 -1.65625 C 10.300781 -0.550781 8.828125 0 6.984375 0 L 1.71875 0 Z M 1.71875 -2.125 "/></g></g><g style="fill:#ffffff;fill-opacity:1;"><g transform="translate(772.386739, 203.129063)"><path style="stroke:none" d=""/></g></g><g style="fill:#ffffff;fill-opacity:1;"><g transform="translate(777.581615, 203.129063)"><path style="stroke:none" d="M 11.59375 -14.609375 L 11.59375 -12.296875 L 6.734375 0 L 3.953125 0 L 8.8125 -12.46875 L 0.984375 -12.46875 L 0.984375 -18.625 L 3.515625 -18.625 L 3.515625 -14.609375 Z M 11.59375 -14.609375 "/></g></g><g style="fill:#ffffff;fill-opacity:1;"><g transform="translate(790.205132, 203.129063)"><path style="stroke:none" d="M 13.0625 -14.609375 C 13.0625 -11.109375 12.925781 -8.476562 12.65625 -6.71875 C 12.394531 -4.957031 11.75 -3.523438 10.71875 -2.421875 C 9.6875 -1.328125 8.03125 -0.554688 5.75 -0.109375 L 0.859375 0.859375 L 0.46875 -1.328125 L 4.859375 -2.1875 L 1.65625 -14.609375 L 4.4375 -14.609375 L 7.359375 -2.828125 C 8.285156 -3.242188 8.957031 -3.867188 9.375 -4.703125 C 9.789062 -5.535156 10.050781 -6.585938 10.15625 -7.859375 C 10.257812 -9.128906 10.3125 -11.039062 10.3125 -13.59375 L 10.3125 -14.609375 Z M 13.0625 -14.609375 "/></g></g><g style="fill:#ffffff;fill-opacity:1;"><g transform="translate(804.516954, 203.129063)"><path style="stroke:none" d=""/></g></g><g style="fill:#ffffff;fill-opacity:1;"><g transform="translate(809.711829, 203.129063)"><path style="stroke:none" d="M 0.515625 -1.53125 C 1.523438 -1.632812 2.203125 -1.898438 2.546875 -2.328125 C 2.890625 -2.765625 3.0625 -3.46875 3.0625 -4.4375 L 3.0625 -14.609375 L 10.078125 -14.609375 C 11.460938 -14.609375 12.546875 -14.21875 13.328125 -13.4375 C 14.109375 -12.65625 14.5 -11.425781 14.5 -9.75 L 14.5 0 L 11.71875 0 L 11.71875 -9.875 C 11.71875 -10.789062 11.519531 -11.453125 11.125 -11.859375 C 10.726562 -12.265625 10.144531 -12.46875 9.375 -12.46875 L 5.84375 -12.46875 L 5.84375 -4.75 C 5.84375 -3.039062 5.441406 -1.796875 4.640625 -1.015625 C 3.847656 -0.234375 2.5625 0.242188 0.78125 0.421875 Z M 0.515625 -1.53125 "/></g></g><g style="fill:#ffffff;fill-opacity:1;"><g transform="translate(825.763968, 203.129063)"><path style="stroke:none" d="M 1.8125 -11.5625 L 1.5 -14.609375 L 4.265625 -14.609375 L 4.59375 -11.5625 L 4.59375 0 L 1.8125 0 Z M 1.8125 -11.5625 "/></g></g><g style="fill:#ffffff;fill-opacity:1;"><g transform="translate(831.9978, 203.129063)"><path style="stroke:none" d="M 1.8125 -11.5625 L 1.5 -14.609375 L 4.265625 -14.609375 L 4.59375 -11.5625 L 4.59375 -7.609375 L 4.578125 -5.96875 L 1.8125 -5.453125 Z M 1.8125 -11.5625 "/></g></g><g style="fill:#ffffff;fill-opacity:1;"><g transform="translate(838.231632, 203.129063)"><path style="stroke:none" d="M 9.015625 -14.609375 C 10.421875 -14.609375 11.507812 -14.179688 12.28125 -13.328125 C 13.050781 -12.484375 13.4375 -11.203125 13.4375 -9.484375 L 13.4375 0 L 10.65625 0 L 10.65625 -9.609375 C 10.65625 -11.515625 9.875 -12.46875 8.3125 -12.46875 L 4.3125 -12.46875 L 4.3125 0 L 1.53125 0 L 1.53125 -14.609375 Z M 9.015625 -14.609375 "/></g></g><g style="fill:#ffffff;fill-opacity:1;"><g transform="translate(853.244814, 203.129063)"><path style="stroke:none" d="M 1.140625 -2.125 L 5.359375 -2.125 L 5.359375 -10.296875 C 5.359375 -11.035156 5.207031 -11.570312 4.90625 -11.90625 C 4.613281 -12.25 4.171875 -12.460938 3.578125 -12.546875 L 1.8125 -12.8125 L 2.1875 -14.921875 L 4.890625 -14.53125 C 5.921875 -14.375 6.71875 -13.9375 7.28125 -13.21875 C 7.851562 -12.5 8.140625 -11.539062 8.140625 -10.34375 L 8.140625 0 L 1.140625 0 Z M 1.140625 -2.125 "/></g></g><g style="fill:#ffffff;fill-opacity:1;"><g transform="translate(862.959188, 203.129063)"><path style="stroke:none" d="M 10.234375 -9.875 C 10.234375 -10.789062 10.035156 -11.453125 9.640625 -11.859375 C 9.242188 -12.265625 8.664062 -12.46875 7.90625 -12.46875 L 1.5 -12.46875 L 1.5 -14.609375 L 8.59375 -14.609375 C 9.976562 -14.609375 11.0625 -14.21875 11.84375 -13.4375 C 12.625 -12.65625 13.015625 -11.425781 13.015625 -9.75 L 13.015625 0 L 10.234375 0 Z M 1.421875 -7.0625 L 1.8125 -8.8125 L 4.203125 -8.8125 L 4.203125 0 L 1.421875 0 Z M 1.421875 -7.0625 "/></g></g><g style="fill:#ffffff;fill-opacity:1;"><g transform="translate(877.4528, 203.129063)"><path style="stroke:none" d=""/></g></g><g style="fill:#ffffff;fill-opacity:1;"><g transform="translate(882.647675, 203.129063)"><path style="stroke:none" d="M 0.515625 -1.53125 C 1.523438 -1.632812 2.203125 -1.898438 2.546875 -2.328125 C 2.890625 -2.765625 3.0625 -3.46875 3.0625 -4.4375 L 3.0625 -14.609375 L 10.078125 -14.609375 C 11.460938 -14.609375 12.546875 -14.21875 13.328125 -13.4375 C 14.109375 -12.65625 14.5 -11.425781 14.5 -9.75 L 14.5 0 L 11.71875 0 L 11.71875 -9.875 C 11.71875 -10.789062 11.519531 -11.453125 11.125 -11.859375 C 10.726562 -12.265625 10.144531 -12.46875 9.375 -12.46875 L 5.84375 -12.46875 L 5.84375 -4.75 C 5.84375 -3.039062 5.441406 -1.796875 4.640625 -1.015625 C 3.847656 -0.234375 2.5625 0.242188 0.78125 0.421875 Z M 0.515625 -1.53125 "/></g></g><g style="fill:#ffffff;fill-opacity:1;"><g transform="translate(898.699814, 203.129063)"><path style="stroke:none" d="M 11.59375 -14.609375 L 11.59375 -12.296875 L 6.734375 0 L 3.953125 0 L 8.8125 -12.46875 L 0.984375 -12.46875 L 0.984375 -18.625 L 3.515625 -18.625 L 3.515625 -14.609375 Z M 11.59375 -14.609375 "/></g></g><g style="fill:#ffffff;fill-opacity:1;"><g transform="translate(911.323377, 203.129063)"><path style="stroke:none" d="M 12.96875 -2.125 L 12.96875 0 L 1.171875 0 L 1.171875 -2.125 L 8.390625 -2.125 L 8.390625 -9.875 C 8.390625 -10.789062 8.191406 -11.453125 7.796875 -11.859375 C 7.398438 -12.265625 6.816406 -12.46875 6.046875 -12.46875 L 1.171875 -12.46875 L 1.171875 -14.609375 L 6.75 -14.609375 C 8.132812 -14.609375 9.21875 -14.21875 10 -13.4375 C 10.78125 -12.65625 11.171875 -11.425781 11.171875 -9.75 L 11.171875 -2.125 Z M 12.96875 -2.125 "/></g></g><g style="fill:#ffffff;fill-opacity:1;"><g transform="translate(925.193578, 203.129063)"><path style="stroke:none" d="M 6 -2.125 C 6.851562 -2.21875 7.566406 -2.421875 8.140625 -2.734375 C 8.722656 -3.054688 9.191406 -3.59375 9.546875 -4.34375 C 9.898438 -5.101562 10.125 -6.140625 10.21875 -7.453125 L 10.609375 -12.46875 L 1.40625 -12.46875 L 1.40625 -14.609375 L 13.59375 -14.609375 L 13.484375 -12.734375 L 13.125 -8.109375 C 13 -5.554688 12.363281 -3.578125 11.21875 -2.171875 C 10.082031 -0.773438 8.429688 -0.0390625 6.265625 0.03125 Z M 1.34375 -7.328125 L 1.734375 -9.09375 L 4.125 -9.09375 L 4.125 5.203125 L 1.34375 5.203125 Z M 1.34375 -7.328125 "/></g></g><g style="fill:#ffffff;fill-opacity:1;"><g transform="translate(939.921037, 203.129063)"><path style="stroke:none" d="M 11.59375 -14.609375 L 11.59375 -12.296875 L 6.734375 0 L 3.953125 0 L 8.8125 -12.46875 L 0.984375 -12.46875 L 0.984375 -18.625 L 3.515625 -18.625 L 3.515625 -14.609375 Z M 11.59375 -14.609375 "/></g></g><g style="fill:#ffffff;fill-opacity:1;"><g transform="translate(952.5446, 203.129063)"><path style="stroke:none" d="M 2.125 -15.203125 L 2.046875 -17.90625 L 4.78125 -17.90625 L 4.703125 -15.203125 L 4.1875 -10.625 L 2.65625 -10.625 Z M 7.171875 -15.203125 L 7.09375 -17.90625 L 9.828125 -17.90625 L 9.75 -15.203125 L 9.234375 -10.625 L 7.703125 -10.625 Z M 7.171875 -15.203125 "/></g></g><g style="fill:#ffffff;fill-opacity:1;"><g transform="translate(964.44082, 203.129063)"><path style="stroke:none" d=""/></g></g><g style="fill:#ffffff;fill-opacity:1;"><g transform="translate(969.635696, 203.129063)"><path style="stroke:none" d="M 11.59375 -14.609375 L 11.59375 -12.296875 L 6.734375 0 L 3.953125 0 L 8.8125 -12.46875 L 0.984375 -12.46875 L 0.984375 -18.625 L 3.515625 -18.625 L 3.515625 -14.609375 Z M 11.59375 -14.609375 "/></g></g><g style="fill:#ffffff;fill-opacity:1;"><g transform="translate(982.259167, 203.129063)"><path style="stroke:none" d="M 13.0625 -14.609375 C 13.0625 -11.109375 12.925781 -8.476562 12.65625 -6.71875 C 12.394531 -4.957031 11.75 -3.523438 10.71875 -2.421875 C 9.6875 -1.328125 8.03125 -0.554688 5.75 -0.109375 L 0.859375 0.859375 L 0.46875 -1.328125 L 4.859375 -2.1875 L 1.65625 -14.609375 L 4.4375 -14.609375 L 7.359375 -2.828125 C 8.285156 -3.242188 8.957031 -3.867188 9.375 -4.703125 C 9.789062 -5.535156 10.050781 -6.585938 10.15625 -7.859375 C 10.257812 -9.128906 10.3125 -11.039062 10.3125 -13.59375 L 10.3125 -14.609375 Z M 13.0625 -14.609375 "/></g></g><g style="fill:#ffffff;fill-opacity:1;"><g transform="translate(996.57108, 203.129063)"><path style="stroke:none" d=""/></g></g><g style="fill:#ffffff;fill-opacity:1;"><g transform="translate(1001.765864, 203.129063)"><path style="stroke:none" d="M 7.453125 -3.046875 L 10.109375 5.203125 L 7.4375 5.203125 L 1.046875 -14.609375 L 3.71875 -14.609375 L 6.34375 -6.46875 L 9.671875 -14.609375 L 12.296875 -14.609375 Z M 7.453125 -3.046875 "/></g></g><g style="fill:#ffffff;fill-opacity:1;"><g transform="translate(1014.649166, 203.129063)"><path style="stroke:none" d="M 1.8125 -11.5625 L 1.5 -14.609375 L 4.265625 -14.609375 L 4.59375 -11.5625 L 4.59375 0 L 1.8125 0 Z M 1.8125 -11.5625 "/></g></g><g style="fill:#ffffff;fill-opacity:1;"><g transform="translate(1020.882998, 203.129063)"><path style="stroke:none" d="M 9.015625 -14.609375 C 10.421875 -14.609375 11.507812 -14.179688 12.28125 -13.328125 C 13.050781 -12.484375 13.4375 -11.203125 13.4375 -9.484375 L 13.4375 0 L 10.65625 0 L 10.65625 -9.609375 C 10.65625 -11.515625 9.875 -12.46875 8.3125 -12.46875 L 4.3125 -12.46875 L 4.3125 0 L 1.53125 0 L 1.53125 -14.609375 Z M 9.015625 -14.609375 "/></g></g><g style="fill:#ffffff;fill-opacity:1;"><g transform="translate(1035.896088, 203.129063)"><path style="stroke:none" d="M 11.59375 -14.609375 L 11.59375 -12.296875 L 6.734375 0 L 3.953125 0 L 8.8125 -12.46875 L 0.984375 -12.46875 L 0.984375 -18.625 L 3.515625 -18.625 L 3.515625 -14.609375 Z M 11.59375 -14.609375 "/></g></g><g style="fill:#ffffff;fill-opacity:1;"><g transform="translate(1048.519651, 203.129063)"><path style="stroke:none" d="M 11.59375 -14.609375 L 11.59375 -12.296875 L 6.734375 0 L 3.953125 0 L 8.8125 -12.46875 L 0.984375 -12.46875 L 0.984375 -18.625 L 3.515625 -18.625 L 3.515625 -14.609375 Z M 11.59375 -14.609375 "/></g></g><g clip-rule="nonzero" clip-path="url(#b2bd663b3c)"><g clip-rule="nonzero" clip-path="url(#1a8ab746ac)"><g transform="matrix(1,0,0,1,118,0.000000000000001135)"><g clip-path="url(#ba7b798be4)"><g clip-rule="nonzero" clip-path="url(#2346ccf9b0)"><g clip-rule="nonzero" clip-path="url(#f467731504)"><path style=" stroke:none;fill-rule:nonzero;fill:#176598;fill-opacity:1;" d="M 0.980469 0.00390625 L 869.597656 0.00390625 L 869.597656 73.660156 L 0.980469 73.660156 Z M 0.980469 0.00390625 "/></g></g></g></g></g></g><g style="fill:#ffffff;fill-opacity:1;"><g transform="translate(150.413641, 45.722961)"><path style="stroke:none" d=""/></g></g><g style="fill:#ffffff;fill-opacity:1;"><g transform="translate(155.613183, 45.722961)"><path style="stroke:none" d="M 5.484375 4.59375 C 4.359375 2.757812 3.503906 0.882812 2.921875 -1.03125 C 2.335938 -2.957031 2.046875 -5.019531 2.046875 -7.21875 C 2.046875 -9.425781 2.335938 -11.488281 2.921875 -13.40625 C 3.503906 -15.332031 4.359375 -17.210938 5.484375 -19.046875 L 7.125 -18.3125 C 6.15625 -16.6875 5.425781 -14.925781 4.9375 -13.03125 C 4.445312 -11.132812 4.203125 -9.195312 4.203125 -7.21875 C 4.203125 -5.25 4.445312 -3.316406 4.9375 -1.421875 C 5.425781 0.472656 6.15625 2.238281 7.125 3.875 Z M 5.484375 4.59375 "/></g></g><g style="fill:#ffffff;fill-opacity:1;"><g transform="translate(163.795093, 45.722961)"><path style="stroke:none" d="M 1.8125 -11.5625 L 1.5 -14.609375 L 4.265625 -14.609375 L 4.59375 -11.5625 L 4.59375 -7.609375 L 4.578125 -5.96875 L 1.8125 -5.453125 Z M 1.8125 -11.5625 "/></g></g><g style="fill:#ffffff;fill-opacity:1;"><g transform="translate(170.028925, 45.722961)"><path style="stroke:none" d="M 14.96875 -7.359375 C 14.96875 -4.929688 14.429688 -3.046875 13.359375 -1.703125 C 12.285156 -0.359375 10.757812 0.3125 8.78125 0.3125 C 8.050781 0.3125 7.304688 0.222656 6.546875 0.046875 L 6.828125 -2.078125 C 7.492188 -1.941406 8.054688 -1.875 8.515625 -1.875 C 9.835938 -1.875 10.800781 -2.332031 11.40625 -3.25 C 12.007812 -4.164062 12.3125 -5.507812 12.3125 -7.28125 C 12.3125 -9.164062 12.019531 -10.519531 11.4375 -11.34375 C 10.863281 -12.164062 10.039062 -12.578125 8.96875 -12.578125 C 8.132812 -12.578125 7.453125 -12.335938 6.921875 -11.859375 C 6.390625 -11.378906 6.039062 -10.742188 5.875 -9.953125 L 4.125 0 L 1.34375 0 L 3.21875 -10.0625 L 1.1875 -14.609375 L 4.078125 -14.609375 L 5.25 -11.53125 C 5.613281 -12.625 6.164062 -13.441406 6.90625 -13.984375 C 7.65625 -14.535156 8.503906 -14.8125 9.453125 -14.8125 C 11.191406 -14.8125 12.546875 -14.207031 13.515625 -13 C 14.484375 -11.800781 14.96875 -9.921875 14.96875 -7.359375 Z M 14.96875 -7.359375 "/></g></g><g style="fill:#ffffff;fill-opacity:1;"><g transform="translate(186.158979, 45.722961)"><path style="stroke:none" d="M 1.8125 -11.5625 L 1.5 -14.609375 L 4.265625 -14.609375 L 4.59375 -11.5625 L 4.59375 0 L 1.8125 0 Z M 1.8125 -11.5625 "/></g></g><g style="fill:#ffffff;fill-opacity:1;"><g transform="translate(192.392811, 45.722961)"><path style="stroke:none" d="M 11.40625 0 L 5.953125 -8.28125 L 3.375 0 L 0.734375 0 L 3.578125 -8.9375 L 4.3125 -10.78125 L 1.921875 -14.609375 L 4.75 -14.609375 L 6.9375 -11.09375 L 9.125 -7.828125 L 9.765625 -10.078125 L 11.09375 -14.609375 L 13.765625 -14.609375 L 10.75 -5.40625 L 14.375 0 Z M 11.40625 0 "/></g></g><g style="fill:#ffffff;fill-opacity:1;"><g transform="translate(207.613754, 45.722961)"><path style="stroke:none" d="M 11.59375 -14.609375 L 11.59375 -12.296875 L 6.734375 0 L 3.953125 0 L 8.8125 -12.46875 L 0.984375 -12.46875 L 0.984375 -18.625 L 3.515625 -18.625 L 3.515625 -14.609375 Z M 11.59375 -14.609375 "/></g></g><g style="fill:#ffffff;fill-opacity:1;"><g transform="translate(220.237271, 45.722961)"><path style="stroke:none" d="M 10.234375 -9.875 C 10.234375 -10.789062 10.035156 -11.453125 9.640625 -11.859375 C 9.242188 -12.265625 8.664062 -12.46875 7.90625 -12.46875 L 1.5 -12.46875 L 1.5 -14.609375 L 8.59375 -14.609375 C 9.976562 -14.609375 11.0625 -14.21875 11.84375 -13.4375 C 12.625 -12.65625 13.015625 -11.425781 13.015625 -9.75 L 13.015625 0 L 10.234375 0 Z M 1.421875 -7.0625 L 1.8125 -8.8125 L 4.203125 -8.8125 L 4.203125 0 L 1.421875 0 Z M 1.421875 -7.0625 "/></g></g><g style="fill:#ffffff;fill-opacity:1;"><g transform="translate(234.73094, 45.722961)"><path style="stroke:none" d=""/></g></g><g style="fill:#ffffff;fill-opacity:1;"><g transform="translate(239.925804, 45.722961)"><path style="stroke:none" d="M 9.21875 -14.609375 C 10.601562 -14.609375 11.6875 -14.21875 12.46875 -13.4375 C 13.25 -12.65625 13.640625 -11.425781 13.640625 -9.75 L 13.640625 0 L 1.6875 0 L 1.6875 -14.609375 Z M 10.859375 -2.125 L 10.859375 -9.875 C 10.859375 -10.789062 10.660156 -11.453125 10.265625 -11.859375 C 9.867188 -12.265625 9.285156 -12.46875 8.515625 -12.46875 L 4.46875 -12.46875 L 4.46875 -2.125 Z M 10.859375 -2.125 "/></g></g><g style="fill:#ffffff;fill-opacity:1;"><g transform="translate(255.120776, 45.722961)"><path style="stroke:none" d="M 1.8125 -11.5625 L 1.5 -14.609375 L 4.265625 -14.609375 L 4.59375 -11.5625 L 4.59375 0 L 1.8125 0 Z M 1.8125 -11.5625 "/></g></g><g style="fill:#ffffff;fill-opacity:1;"><g transform="translate(261.354608, 45.722961)"><path style="stroke:none" d="M 8.0625 -9.875 C 8.0625 -10.789062 7.859375 -11.453125 7.453125 -11.859375 C 7.054688 -12.265625 6.476562 -12.46875 5.71875 -12.46875 L 0.90625 -12.46875 L 0.90625 -14.609375 L 6.421875 -14.609375 C 7.804688 -14.609375 8.882812 -14.21875 9.65625 -13.4375 C 10.4375 -12.65625 10.828125 -11.425781 10.828125 -9.75 L 10.828125 0 L 8.0625 0 Z M 8.0625 -9.875 "/></g></g><g style="fill:#ffffff;fill-opacity:1;"><g transform="translate(273.822284, 45.722961)"><path style="stroke:none" d="M 1.8125 -11.5625 L 1.5 -14.609375 L 4.265625 -14.609375 L 4.59375 -11.5625 L 4.59375 -7.609375 L 4.578125 -5.96875 L 1.8125 -5.453125 Z M 1.8125 -11.5625 "/></g></g><g style="fill:#ffffff;fill-opacity:1;"><g transform="translate(280.056116, 45.722961)"><path style="stroke:none" d="M 9.015625 -14.609375 C 10.421875 -14.609375 11.507812 -14.179688 12.28125 -13.328125 C 13.050781 -12.484375 13.4375 -11.203125 13.4375 -9.484375 L 13.4375 0 L 10.65625 0 L 10.65625 -9.609375 C 10.65625 -11.515625 9.875 -12.46875 8.3125 -12.46875 L 4.3125 -12.46875 L 4.3125 0 L 1.53125 0 L 1.53125 -14.609375 Z M 9.015625 -14.609375 "/></g></g><g style="fill:#ffffff;fill-opacity:1;"><g transform="translate(295.069263, 45.722961)"><path style="stroke:none" d="M 10.234375 -9.875 C 10.234375 -10.789062 10.035156 -11.453125 9.640625 -11.859375 C 9.242188 -12.265625 8.664062 -12.46875 7.90625 -12.46875 L 1.5 -12.46875 L 1.5 -14.609375 L 8.59375 -14.609375 C 9.976562 -14.609375 11.0625 -14.21875 11.84375 -13.4375 C 12.625 -12.65625 13.015625 -11.425781 13.015625 -9.75 L 13.015625 0 L 10.234375 0 Z M 1.421875 -7.0625 L 1.8125 -8.8125 L 4.203125 -8.8125 L 4.203125 0 L 1.421875 0 Z M 1.421875 -7.0625 "/></g></g><g style="fill:#ffffff;fill-opacity:1;"><g transform="translate(309.562932, 45.722961)"><path style="stroke:none" d=""/></g></g><g style="fill:#ffffff;fill-opacity:1;"><g transform="translate(314.757796, 45.722961)"><path style="stroke:none" d="M 11.59375 -14.609375 L 11.59375 -12.296875 L 6.734375 0 L 3.953125 0 L 8.8125 -12.46875 L 0.984375 -12.46875 L 0.984375 -18.625 L 3.515625 -18.625 L 3.515625 -14.609375 Z M 11.59375 -14.609375 "/></g></g><g style="fill:#ffffff;fill-opacity:1;"><g transform="translate(327.381314, 45.722961)"><path style="stroke:none" d="M 1.171875 -14.609375 L 3.953125 -14.609375 L 5.359375 -2.265625 C 9.359375 -2.660156 11.296875 -4.753906 11.171875 -8.546875 L 11.171875 -9.28125 C 11.171875 -10.207031 10.921875 -10.972656 10.421875 -11.578125 C 9.921875 -12.191406 9.175781 -12.535156 8.1875 -12.609375 L 6.890625 -12.6875 L 7.09375 -14.859375 L 8.625 -14.78125 C 10.1875 -14.675781 11.429688 -14.195312 12.359375 -13.34375 C 13.296875 -12.488281 13.800781 -11.242188 13.875 -9.609375 L 13.90625 -8.890625 C 14.007812 -5.867188 13.078125 -3.625 11.109375 -2.15625 C 9.140625 -0.695312 6.40625 0.109375 2.90625 0.265625 Z M 1.171875 -14.609375 "/></g></g><g style="fill:#ffffff;fill-opacity:1;"><g transform="translate(342.186676, 45.722961)"><path style="stroke:none" d="M 8.0625 -9.875 C 8.0625 -10.789062 7.859375 -11.453125 7.453125 -11.859375 C 7.054688 -12.265625 6.476562 -12.46875 5.71875 -12.46875 L 0.90625 -12.46875 L 0.90625 -14.609375 L 6.421875 -14.609375 C 7.804688 -14.609375 8.882812 -14.21875 9.65625 -13.4375 C 10.4375 -12.65625 10.828125 -11.425781 10.828125 -9.75 L 10.828125 0 L 8.0625 0 Z M 8.0625 -9.875 "/></g></g><g style="fill:#ffffff;fill-opacity:1;"><g transform="translate(354.654352, 45.722961)"><path style="stroke:none" d="M 1.8125 -11.5625 L 1.5 -14.609375 L 4.265625 -14.609375 L 4.59375 -11.5625 L 4.59375 0 L 1.8125 0 Z M 1.8125 -11.5625 "/></g></g><g style="fill:#ffffff;fill-opacity:1;"><g transform="translate(360.888184, 45.722961)"><path style="stroke:none" d="M 1.71875 -2.125 L 6.421875 -2.125 C 7.617188 -2.125 8.5625 -2.476562 9.25 -3.1875 C 9.945312 -3.90625 10.296875 -4.988281 10.296875 -6.4375 L 10.296875 -8.1875 C 10.296875 -9.550781 10.015625 -10.601562 9.453125 -11.34375 C 8.898438 -12.09375 8.070312 -12.46875 6.96875 -12.46875 L 4.625 -12.46875 L 4.046875 -9.90625 C 3.960938 -9.5 3.921875 -9.160156 3.921875 -8.890625 C 3.921875 -8.367188 4.066406 -7.960938 4.359375 -7.671875 C 4.660156 -7.390625 5.148438 -7.179688 5.828125 -7.046875 L 5.328125 -5.25 C 3.972656 -5.332031 2.988281 -5.671875 2.375 -6.265625 C 1.757812 -6.867188 1.453125 -7.695312 1.453125 -8.75 C 1.453125 -9.257812 1.492188 -9.722656 1.578125 -10.140625 L 2.59375 -14.609375 L 7.5625 -14.609375 C 9.289062 -14.609375 10.640625 -14.035156 11.609375 -12.890625 C 12.578125 -11.742188 13.0625 -10.140625 13.0625 -8.078125 L 13.0625 -6.578125 C 13.0625 -4.410156 12.507812 -2.769531 11.40625 -1.65625 C 10.300781 -0.550781 8.828125 0 6.984375 0 L 1.71875 0 Z M 1.71875 -2.125 "/></g></g><g style="fill:#ffffff;fill-opacity:1;"><g transform="translate(375.122102, 45.722961)"><path style="stroke:none" d=""/></g></g><g style="fill:#ffffff;fill-opacity:1;"><g transform="translate(380.316955, 45.722961)"><path style="stroke:none" d="M 11.59375 -14.609375 L 11.59375 -12.296875 L 6.734375 0 L 3.953125 0 L 8.8125 -12.46875 L 0.984375 -12.46875 L 0.984375 -18.625 L 3.515625 -18.625 L 3.515625 -14.609375 Z M 11.59375 -14.609375 "/></g></g><g style="fill:#ffffff;fill-opacity:1;"><g transform="translate(392.940472, 45.722961)"><path style="stroke:none" d="M 15.6875 -10.609375 C 15.726562 -6.953125 14.707031 -4.21875 12.625 -2.40625 C 10.550781 -0.59375 7.363281 0.296875 3.0625 0.265625 L 1.171875 -14.609375 L 3.8125 -14.609375 L 4.65625 -7.6875 C 5.601562 -8.15625 6.25 -8.769531 6.59375 -9.53125 C 6.945312 -10.289062 7.140625 -11.4375 7.171875 -12.96875 L 7.171875 -14.578125 L 9.828125 -14.578125 L 9.796875 -13.015625 C 9.765625 -11.109375 9.382812 -9.578125 8.65625 -8.421875 C 7.925781 -7.273438 6.675781 -6.347656 4.90625 -5.640625 L 5.328125 -2.109375 C 7.941406 -2.273438 9.867188 -3.050781 11.109375 -4.4375 C 12.347656 -5.820312 12.957031 -7.832031 12.9375 -10.46875 L 12.890625 -14.609375 L 15.671875 -14.609375 Z M 15.6875 -10.609375 "/></g></g><g style="fill:#ffffff;fill-opacity:1;"><g transform="translate(409.875738, 45.722961)"><path style="stroke:none" d=""/></g></g><g style="fill:#ffffff;fill-opacity:1;"><g transform="translate(415.07059, 45.722961)"><path style="stroke:none" d="M 1.8125 -11.5625 L 1.5 -14.609375 L 4.265625 -14.609375 L 4.59375 -11.5625 L 4.59375 -7.609375 L 4.578125 -5.96875 L 1.8125 -5.453125 Z M 1.8125 -11.5625 "/></g></g><g style="fill:#ffffff;fill-opacity:1;"><g transform="translate(421.304423, 45.722961)"><path style="stroke:none" d="M 15.6875 -10.609375 C 15.726562 -6.953125 14.707031 -4.21875 12.625 -2.40625 C 10.550781 -0.59375 7.363281 0.296875 3.0625 0.265625 L 1.171875 -14.609375 L 3.8125 -14.609375 L 4.65625 -7.6875 C 5.601562 -8.15625 6.25 -8.769531 6.59375 -9.53125 C 6.945312 -10.289062 7.140625 -11.4375 7.171875 -12.96875 L 7.171875 -14.578125 L 9.828125 -14.578125 L 9.796875 -13.015625 C 9.765625 -11.109375 9.382812 -9.578125 8.65625 -8.421875 C 7.925781 -7.273438 6.675781 -6.347656 4.90625 -5.640625 L 5.328125 -2.109375 C 7.941406 -2.273438 9.867188 -3.050781 11.109375 -4.4375 C 12.347656 -5.820312 12.957031 -7.832031 12.9375 -10.46875 L 12.890625 -14.609375 L 15.671875 -14.609375 Z M 15.6875 -10.609375 "/></g></g><g style="fill:#ffffff;fill-opacity:1;"><g transform="translate(437.460379, 45.722961)"><path style="stroke:none" d="M 11.40625 0 L 5.953125 -8.28125 L 3.375 0 L 0.734375 0 L 3.578125 -8.9375 L 4.3125 -10.78125 L 1.921875 -14.609375 L 4.75 -14.609375 L 6.9375 -11.09375 L 9.125 -7.828125 L 9.765625 -10.078125 L 11.09375 -14.609375 L 13.765625 -14.609375 L 10.75 -5.40625 L 14.375 0 Z M 11.40625 0 "/></g></g><g style="fill:#ffffff;fill-opacity:1;"><g transform="translate(452.681311, 45.722961)"><path style="stroke:none" d="M 8.0625 -9.875 C 8.0625 -10.789062 7.859375 -11.453125 7.453125 -11.859375 C 7.054688 -12.265625 6.476562 -12.46875 5.71875 -12.46875 L 0.90625 -12.46875 L 0.90625 -14.609375 L 6.421875 -14.609375 C 7.804688 -14.609375 8.882812 -14.21875 9.65625 -13.4375 C 10.4375 -12.65625 10.828125 -11.425781 10.828125 -9.75 L 10.828125 0 L 8.0625 0 Z M 8.0625 -9.875 "/></g></g><g style="fill:#ffffff;fill-opacity:1;"><g transform="translate(465.148998, 45.722961)"><path style="stroke:none" d="M 10.234375 -9.875 C 10.234375 -10.789062 10.035156 -11.453125 9.640625 -11.859375 C 9.242188 -12.265625 8.664062 -12.46875 7.90625 -12.46875 L 1.5 -12.46875 L 1.5 -14.609375 L 8.59375 -14.609375 C 9.976562 -14.609375 11.0625 -14.21875 11.84375 -13.4375 C 12.625 -12.65625 13.015625 -11.425781 13.015625 -9.75 L 13.015625 0 L 10.234375 0 Z M 1.421875 -7.0625 L 1.8125 -8.8125 L 4.203125 -8.8125 L 4.203125 0 L 1.421875 0 Z M 1.421875 -7.0625 "/></g></g><g style="fill:#ffffff;fill-opacity:1;"><g transform="translate(479.642678, 45.722961)"><path style="stroke:none" d=""/></g></g><g style="fill:#ffffff;fill-opacity:1;"><g transform="translate(484.837531, 45.722961)"><path style="stroke:none" d="M 7.453125 -9.4375 C 7.453125 -10.78125 7.695312 -11.789062 8.1875 -12.46875 L 1.171875 -12.46875 L 1.171875 -14.609375 L 12.765625 -14.609375 L 12.765625 -12.46875 L 10.8125 -12.46875 C 10.425781 -11.738281 10.234375 -10.726562 10.234375 -9.4375 L 10.234375 0 L 7.453125 0 Z M 7.453125 -9.4375 "/></g></g><g style="fill:#ffffff;fill-opacity:1;"><g transform="translate(498.83767, 45.722961)"><path style="stroke:none" d="M 1.8125 -11.5625 L 1.5 -14.609375 L 4.265625 -14.609375 L 4.59375 -11.5625 L 4.59375 0 L 1.8125 0 Z M 1.8125 -11.5625 "/></g></g><g style="fill:#ffffff;fill-opacity:1;"><g transform="translate(505.071502, 45.722961)"><path style="stroke:none" d="M 14.96875 -7.359375 C 14.96875 -4.929688 14.429688 -3.046875 13.359375 -1.703125 C 12.285156 -0.359375 10.757812 0.3125 8.78125 0.3125 C 8.050781 0.3125 7.304688 0.222656 6.546875 0.046875 L 6.828125 -2.078125 C 7.492188 -1.941406 8.054688 -1.875 8.515625 -1.875 C 9.835938 -1.875 10.800781 -2.332031 11.40625 -3.25 C 12.007812 -4.164062 12.3125 -5.507812 12.3125 -7.28125 C 12.3125 -9.164062 12.019531 -10.519531 11.4375 -11.34375 C 10.863281 -12.164062 10.039062 -12.578125 8.96875 -12.578125 C 8.132812 -12.578125 7.453125 -12.335938 6.921875 -11.859375 C 6.390625 -11.378906 6.039062 -10.742188 5.875 -9.953125 L 4.125 0 L 1.34375 0 L 3.21875 -10.0625 L 1.1875 -14.609375 L 4.078125 -14.609375 L 5.25 -11.53125 C 5.613281 -12.625 6.164062 -13.441406 6.90625 -13.984375 C 7.65625 -14.535156 8.503906 -14.8125 9.453125 -14.8125 C 11.191406 -14.8125 12.546875 -14.207031 13.515625 -13 C 14.484375 -11.800781 14.96875 -9.921875 14.96875 -7.359375 Z M 14.96875 -7.359375 "/></g></g><g style="fill:#ffffff;fill-opacity:1;"><g transform="translate(521.201567, 45.722961)"><path style="stroke:none" d="M 13.0625 -14.609375 C 13.0625 -11.109375 12.925781 -8.476562 12.65625 -6.71875 C 12.394531 -4.957031 11.75 -3.523438 10.71875 -2.421875 C 9.6875 -1.328125 8.03125 -0.554688 5.75 -0.109375 L 0.859375 0.859375 L 0.46875 -1.328125 L 4.859375 -2.1875 L 1.65625 -14.609375 L 4.4375 -14.609375 L 7.359375 -2.828125 C 8.285156 -3.242188 8.957031 -3.867188 9.375 -4.703125 C 9.789062 -5.535156 10.050781 -6.585938 10.15625 -7.859375 C 10.257812 -9.128906 10.3125 -11.039062 10.3125 -13.59375 L 10.3125 -14.609375 Z M 13.0625 -14.609375 "/></g></g><g style="fill:#ffffff;fill-opacity:1;"><g transform="translate(535.513412, 45.722961)"><path style="stroke:none" d="M 11.59375 -14.609375 L 11.59375 -12.296875 L 6.734375 0 L 3.953125 0 L 8.8125 -12.46875 L 0.984375 -12.46875 L 0.984375 -18.625 L 3.515625 -18.625 L 3.515625 -14.609375 Z M 11.59375 -14.609375 "/></g></g><g style="fill:#ffffff;fill-opacity:1;"><g transform="translate(548.136929, 45.722961)"><path style="stroke:none" d=""/></g></g><g style="fill:#ffffff;fill-opacity:1;"><g transform="translate(553.331805, 45.722961)"><path style="stroke:none" d="M 11.59375 -14.609375 L 11.59375 -12.296875 L 6.734375 0 L 3.953125 0 L 8.8125 -12.46875 L 0.984375 -12.46875 L 0.984375 -18.625 L 3.515625 -18.625 L 3.515625 -14.609375 Z M 11.59375 -14.609375 "/></g></g><g style="fill:#ffffff;fill-opacity:1;"><g transform="translate(565.955322, 45.722961)"><path style="stroke:none" d="M 1.8125 -11.5625 L 1.5 -14.609375 L 4.265625 -14.609375 L 4.59375 -11.5625 L 4.59375 -7.609375 L 4.578125 -5.96875 L 1.8125 -5.453125 Z M 1.8125 -11.5625 "/></g></g><g style="fill:#ffffff;fill-opacity:1;"><g transform="translate(572.189154, 45.722961)"><path style="stroke:none" d="M 12.96875 -2.125 L 12.96875 0 L 1.171875 0 L 1.171875 -2.125 L 8.390625 -2.125 L 8.390625 -9.875 C 8.390625 -10.789062 8.191406 -11.453125 7.796875 -11.859375 C 7.398438 -12.265625 6.816406 -12.46875 6.046875 -12.46875 L 1.171875 -12.46875 L 1.171875 -14.609375 L 6.75 -14.609375 C 8.132812 -14.609375 9.21875 -14.21875 10 -13.4375 C 10.78125 -12.65625 11.171875 -11.425781 11.171875 -9.75 L 11.171875 -2.125 Z M 12.96875 -2.125 "/></g></g><g style="fill:#ffffff;fill-opacity:1;"><g transform="translate(586.059401, 45.722961)"><path style="stroke:none" d="M 1.8125 -11.5625 L 1.5 -14.609375 L 4.265625 -14.609375 L 4.59375 -11.5625 L 4.59375 0 L 1.8125 0 Z M 1.8125 -11.5625 "/></g></g><g style="fill:#ffffff;fill-opacity:1;"><g transform="translate(592.293233, 45.722961)"><path style="stroke:none" d="M 14.96875 -7.359375 C 14.96875 -4.929688 14.429688 -3.046875 13.359375 -1.703125 C 12.285156 -0.359375 10.757812 0.3125 8.78125 0.3125 C 8.050781 0.3125 7.304688 0.222656 6.546875 0.046875 L 6.828125 -2.078125 C 7.492188 -1.941406 8.054688 -1.875 8.515625 -1.875 C 9.835938 -1.875 10.800781 -2.332031 11.40625 -3.25 C 12.007812 -4.164062 12.3125 -5.507812 12.3125 -7.28125 C 12.3125 -9.164062 12.019531 -10.519531 11.4375 -11.34375 C 10.863281 -12.164062 10.039062 -12.578125 8.96875 -12.578125 C 8.132812 -12.578125 7.453125 -12.335938 6.921875 -11.859375 C 6.390625 -11.378906 6.039062 -10.742188 5.875 -9.953125 L 4.125 0 L 1.34375 0 L 3.21875 -10.0625 L 1.1875 -14.609375 L 4.078125 -14.609375 L 5.25 -11.53125 C 5.613281 -12.625 6.164062 -13.441406 6.90625 -13.984375 C 7.65625 -14.535156 8.503906 -14.8125 9.453125 -14.8125 C 11.191406 -14.8125 12.546875 -14.207031 13.515625 -13 C 14.484375 -11.800781 14.96875 -9.921875 14.96875 -7.359375 Z M 14.96875 -7.359375 "/></g></g><g style="fill:#ffffff;fill-opacity:1;"><g transform="translate(608.423321, 45.722961)"><path style="stroke:none" d="M 10.234375 -9.875 C 10.234375 -10.789062 10.035156 -11.453125 9.640625 -11.859375 C 9.242188 -12.265625 8.664062 -12.46875 7.90625 -12.46875 L 1.5 -12.46875 L 1.5 -14.609375 L 8.59375 -14.609375 C 9.976562 -14.609375 11.0625 -14.21875 11.84375 -13.4375 C 12.625 -12.65625 13.015625 -11.425781 13.015625 -9.75 L 13.015625 0 L 10.234375 0 Z M 1.421875 -7.0625 L 1.8125 -8.8125 L 4.203125 -8.8125 L 4.203125 0 L 1.421875 0 Z M 1.421875 -7.0625 "/></g></g><g style="fill:#ffffff;fill-opacity:1;"><g transform="translate(622.916978, 45.722961)"><path style="stroke:none" d="M 1.0625 3.875 C 2.03125 2.238281 2.753906 0.472656 3.234375 -1.421875 C 3.722656 -3.316406 3.96875 -5.25 3.96875 -7.21875 C 3.96875 -9.195312 3.722656 -11.132812 3.234375 -13.03125 C 2.753906 -14.925781 2.03125 -16.6875 1.0625 -18.3125 L 2.703125 -19.046875 C 3.828125 -17.210938 4.675781 -15.332031 5.25 -13.40625 C 5.832031 -11.488281 6.125 -9.425781 6.125 -7.21875 C 6.125 -5.019531 5.832031 -2.957031 5.25 -1.03125 C 4.675781 0.882812 3.828125 2.757812 2.703125 4.59375 Z M 1.0625 3.875 "/></g></g><g style="fill:#ffffff;fill-opacity:1;"><g transform="translate(631.0989, 45.722961)"><path style="stroke:none" d=""/></g></g><g style="fill:#ffffff;fill-opacity:1;"><g transform="translate(636.29373, 45.722961)"><path style="stroke:none" d="M 8.78125 -9.875 C 8.78125 -10.789062 8.582031 -11.453125 8.1875 -11.859375 C 7.789062 -12.265625 7.207031 -12.46875 6.4375 -12.46875 L 1.25 -12.46875 L 1.25 -14.609375 L 7.140625 -14.609375 C 8.523438 -14.609375 9.609375 -14.21875 10.390625 -13.4375 C 11.171875 -12.65625 11.5625 -11.425781 11.5625 -9.75 L 11.5625 5.203125 L 8.78125 5.203125 Z M 8.78125 -9.875 "/></g></g><g style="fill:#ffffff;fill-opacity:1;"><g transform="translate(649.462754, 45.722961)"><path style="stroke:none" d="M 13.84375 -8.4375 C 13.945312 -5.445312 13.03125 -3.28125 11.09375 -1.9375 C 9.15625 -0.59375 6.4375 0.140625 2.9375 0.265625 L 1.421875 -12.46875 L 1.171875 -14.609375 L 8.65625 -14.609375 C 10.257812 -14.609375 11.507812 -14.128906 12.40625 -13.171875 C 13.300781 -12.222656 13.773438 -10.925781 13.828125 -9.28125 Z M 5.375 -2.265625 C 7.3125 -2.429688 8.765625 -2.988281 9.734375 -3.9375 C 10.710938 -4.882812 11.164062 -6.40625 11.09375 -8.5 L 11.09375 -9.203125 C 11.09375 -10.171875 10.859375 -10.957031 10.390625 -11.5625 C 9.921875 -12.164062 9.269531 -12.46875 8.4375 -12.46875 L 4.203125 -12.46875 Z M 5.375 -2.265625 "/></g></g><g style="fill:#ffffff;fill-opacity:1;"><g transform="translate(664.60576, 45.722961)"><path style="stroke:none" d="M 14.96875 -7.359375 C 14.96875 -4.929688 14.429688 -3.046875 13.359375 -1.703125 C 12.285156 -0.359375 10.757812 0.3125 8.78125 0.3125 C 8.050781 0.3125 7.304688 0.222656 6.546875 0.046875 L 6.828125 -2.078125 C 7.492188 -1.941406 8.054688 -1.875 8.515625 -1.875 C 9.835938 -1.875 10.800781 -2.332031 11.40625 -3.25 C 12.007812 -4.164062 12.3125 -5.507812 12.3125 -7.28125 C 12.3125 -9.164062 12.019531 -10.519531 11.4375 -11.34375 C 10.863281 -12.164062 10.039062 -12.578125 8.96875 -12.578125 C 8.132812 -12.578125 7.453125 -12.335938 6.921875 -11.859375 C 6.390625 -11.378906 6.039062 -10.742188 5.875 -9.953125 L 4.125 0 L 1.34375 0 L 3.21875 -10.0625 L 1.1875 -14.609375 L 4.078125 -14.609375 L 5.25 -11.53125 C 5.613281 -12.625 6.164062 -13.441406 6.90625 -13.984375 C 7.65625 -14.535156 8.503906 -14.8125 9.453125 -14.8125 C 11.191406 -14.8125 12.546875 -14.207031 13.515625 -13 C 14.484375 -11.800781 14.96875 -9.921875 14.96875 -7.359375 Z M 14.96875 -7.359375 "/></g></g><g style="fill:#ffffff;fill-opacity:1;"><g transform="translate(680.735801, 45.722961)"><path style="stroke:none" d="M 10.234375 -9.875 C 10.234375 -10.789062 10.035156 -11.453125 9.640625 -11.859375 C 9.242188 -12.265625 8.664062 -12.46875 7.90625 -12.46875 L 1.5 -12.46875 L 1.5 -14.609375 L 8.59375 -14.609375 C 9.976562 -14.609375 11.0625 -14.21875 11.84375 -13.4375 C 12.625 -12.65625 13.015625 -11.425781 13.015625 -9.75 L 13.015625 0 L 10.234375 0 Z M 1.421875 -7.0625 L 1.8125 -8.8125 L 4.203125 -8.8125 L 4.203125 0 L 1.421875 0 Z M 1.421875 -7.0625 "/></g></g><g style="fill:#ffffff;fill-opacity:1;"><g transform="translate(695.229459, 45.722961)"><path style="stroke:none" d=""/></g></g><g style="fill:#ffffff;fill-opacity:1;"><g transform="translate(700.424334, 45.722961)"><path style="stroke:none" d="M 0.515625 -1.53125 C 1.523438 -1.632812 2.203125 -1.898438 2.546875 -2.328125 C 2.890625 -2.765625 3.0625 -3.46875 3.0625 -4.4375 L 3.0625 -14.609375 L 10.078125 -14.609375 C 11.460938 -14.609375 12.546875 -14.21875 13.328125 -13.4375 C 14.109375 -12.65625 14.5 -11.425781 14.5 -9.75 L 14.5 0 L 11.71875 0 L 11.71875 -9.875 C 11.71875 -10.789062 11.519531 -11.453125 11.125 -11.859375 C 10.726562 -12.265625 10.144531 -12.46875 9.375 -12.46875 L 5.84375 -12.46875 L 5.84375 -4.75 C 5.84375 -3.039062 5.441406 -1.796875 4.640625 -1.015625 C 3.847656 -0.234375 2.5625 0.242188 0.78125 0.421875 Z M 0.515625 -1.53125 "/></g></g><g style="fill:#ffffff;fill-opacity:1;"><g transform="translate(716.476473, 45.722961)"><path style="stroke:none" d="M 1.8125 -11.5625 L 1.5 -14.609375 L 4.265625 -14.609375 L 4.59375 -11.5625 L 4.59375 -7.609375 L 4.578125 -5.96875 L 1.8125 -5.453125 Z M 1.8125 -11.5625 "/></g></g><g style="fill:#ffffff;fill-opacity:1;"><g transform="translate(722.320651, 45.722961)"><path style="stroke:none" d="M 0.515625 -1.53125 C 1.523438 -1.632812 2.203125 -1.898438 2.546875 -2.328125 C 2.890625 -2.765625 3.0625 -3.46875 3.0625 -4.4375 L 3.0625 -14.609375 L 10.078125 -14.609375 C 11.460938 -14.609375 12.546875 -14.21875 13.328125 -13.4375 C 14.109375 -12.65625 14.5 -11.425781 14.5 -9.75 L 14.5 0 L 11.71875 0 L 11.71875 -9.875 C 11.71875 -10.789062 11.519531 -11.453125 11.125 -11.859375 C 10.726562 -12.265625 10.144531 -12.46875 9.375 -12.46875 L 5.84375 -12.46875 L 5.84375 -4.75 C 5.84375 -3.039062 5.441406 -1.796875 4.640625 -1.015625 C 3.847656 -0.234375 2.5625 0.242188 0.78125 0.421875 Z M 0.515625 -1.53125 "/></g></g><g style="fill:#ffffff;fill-opacity:1;"><g transform="translate(738.37279, 45.722961)"><path style="stroke:none" d="M 9.015625 -14.609375 C 10.421875 -14.609375 11.507812 -14.179688 12.28125 -13.328125 C 13.050781 -12.484375 13.4375 -11.203125 13.4375 -9.484375 L 13.4375 0 L 10.65625 0 L 10.65625 -9.609375 C 10.65625 -11.515625 9.875 -12.46875 8.3125 -12.46875 L 4.3125 -12.46875 L 4.3125 0 L 1.53125 0 L 1.53125 -14.609375 Z M 9.015625 -14.609375 "/></g></g><g style="fill:#ffffff;fill-opacity:1;"><g transform="translate(753.385925, 45.722961)"><path style="stroke:none" d="M 0.515625 -1.53125 C 1.523438 -1.632812 2.203125 -1.898438 2.546875 -2.328125 C 2.890625 -2.765625 3.0625 -3.46875 3.0625 -4.4375 L 3.0625 -14.609375 L 10.078125 -14.609375 C 11.460938 -14.609375 12.546875 -14.21875 13.328125 -13.4375 C 14.109375 -12.65625 14.5 -11.425781 14.5 -9.75 L 14.5 0 L 11.71875 0 L 11.71875 -9.875 C 11.71875 -10.789062 11.519531 -11.453125 11.125 -11.859375 C 10.726562 -12.265625 10.144531 -12.46875 9.375 -12.46875 L 5.84375 -12.46875 L 5.84375 -4.75 C 5.84375 -3.039062 5.441406 -1.796875 4.640625 -1.015625 C 3.847656 -0.234375 2.5625 0.242188 0.78125 0.421875 Z M 0.515625 -1.53125 "/></g></g><g style="fill:#ffffff;fill-opacity:1;"><g transform="translate(769.438064, 45.722961)"><path style="stroke:none" d="M 12.96875 -2.125 L 12.96875 0 L 1.171875 0 L 1.171875 -2.125 L 8.390625 -2.125 L 8.390625 -9.875 C 8.390625 -10.789062 8.191406 -11.453125 7.796875 -11.859375 C 7.398438 -12.265625 6.816406 -12.46875 6.046875 -12.46875 L 1.171875 -12.46875 L 1.171875 -14.609375 L 6.75 -14.609375 C 8.132812 -14.609375 9.21875 -14.21875 10 -13.4375 C 10.78125 -12.65625 11.171875 -11.425781 11.171875 -9.75 L 11.171875 -2.125 Z M 12.96875 -2.125 "/></g></g><g style="fill:#ffffff;fill-opacity:1;"><g transform="translate(783.308311, 45.722961)"><path style="stroke:none" d=""/></g></g><g style="fill:#ffffff;fill-opacity:1;"><g transform="translate(788.503187, 45.722961)"><path style="stroke:none" d="M 8.0625 -9.875 C 8.0625 -10.789062 7.859375 -11.453125 7.453125 -11.859375 C 7.054688 -12.265625 6.476562 -12.46875 5.71875 -12.46875 L 0.90625 -12.46875 L 0.90625 -14.609375 L 6.421875 -14.609375 C 7.804688 -14.609375 8.882812 -14.21875 9.65625 -13.4375 C 10.4375 -12.65625 10.828125 -11.425781 10.828125 -9.75 L 10.828125 0 L 8.0625 0 Z M 8.0625 -9.875 "/></g></g><g style="fill:#ffffff;fill-opacity:1;"><g transform="translate(800.970851, 45.722961)"><path style="stroke:none" d="M 1.8125 -11.5625 L 1.5 -14.609375 L 4.265625 -14.609375 L 4.59375 -11.5625 L 4.59375 0 L 1.8125 0 Z M 1.8125 -11.5625 "/></g></g><g style="fill:#ffffff;fill-opacity:1;"><g transform="translate(807.204683, 45.722961)"><path style="stroke:none" d="M 15.6875 -10.609375 C 15.726562 -6.953125 14.707031 -4.21875 12.625 -2.40625 C 10.550781 -0.59375 7.363281 0.296875 3.0625 0.265625 L 1.171875 -14.609375 L 3.8125 -14.609375 L 4.65625 -7.6875 C 5.601562 -8.15625 6.25 -8.769531 6.59375 -9.53125 C 6.945312 -10.289062 7.140625 -11.4375 7.171875 -12.96875 L 7.171875 -14.578125 L 9.828125 -14.578125 L 9.796875 -13.015625 C 9.765625 -11.109375 9.382812 -9.578125 8.65625 -8.421875 C 7.925781 -7.273438 6.675781 -6.347656 4.90625 -5.640625 L 5.328125 -2.109375 C 7.941406 -2.273438 9.867188 -3.050781 11.109375 -4.4375 C 12.347656 -5.820312 12.957031 -7.832031 12.9375 -10.46875 L 12.890625 -14.609375 L 15.671875 -14.609375 Z M 15.6875 -10.609375 "/></g></g><g style="fill:#ffffff;fill-opacity:1;"><g transform="translate(824.139971, 45.722961)"><path style="stroke:none" d="M 1.8125 -11.5625 L 1.5 -14.609375 L 4.265625 -14.609375 L 4.59375 -11.5625 L 4.59375 -7.609375 L 4.578125 -5.96875 L 1.8125 -5.453125 Z M 1.8125 -11.5625 "/></g></g><g style="fill:#ffffff;fill-opacity:1;"><g transform="translate(830.373803, 45.722961)"><path style="stroke:none" d="M 6 -2.125 C 6.851562 -2.21875 7.566406 -2.421875 8.140625 -2.734375 C 8.722656 -3.054688 9.191406 -3.59375 9.546875 -4.34375 C 9.898438 -5.101562 10.125 -6.140625 10.21875 -7.453125 L 10.609375 -12.46875 L 1.40625 -12.46875 L 1.40625 -14.609375 L 13.59375 -14.609375 L 13.484375 -12.734375 L 13.125 -8.109375 C 13 -5.554688 12.363281 -3.578125 11.21875 -2.171875 C 10.082031 -0.773438 8.429688 -0.0390625 6.265625 0.03125 Z M 1.34375 -7.328125 L 1.734375 -9.09375 L 4.125 -9.09375 L 4.125 5.203125 L 1.34375 5.203125 Z M 1.34375 -7.328125 "/></g></g><g style="fill:#ffffff;fill-opacity:1;"><g transform="translate(845.101217, 45.722961)"><path style="stroke:none" d="M 10.234375 -9.875 C 10.234375 -10.789062 10.035156 -11.453125 9.640625 -11.859375 C 9.242188 -12.265625 8.664062 -12.46875 7.90625 -12.46875 L 1.5 -12.46875 L 1.5 -14.609375 L 8.59375 -14.609375 C 9.976562 -14.609375 11.0625 -14.21875 11.84375 -13.4375 C 12.625 -12.65625 13.015625 -11.425781 13.015625 -9.75 L 13.015625 0 L 10.234375 0 Z M 1.421875 -7.0625 L 1.8125 -8.8125 L 4.203125 -8.8125 L 4.203125 0 L 1.421875 0 Z M 1.421875 -7.0625 "/></g></g><g style="fill:#ffffff;fill-opacity:1;"><g transform="translate(859.594874, 45.722961)"><path style="stroke:none" d=""/></g></g><g style="fill:#ffffff;fill-opacity:1;"><g transform="translate(864.78975, 45.722961)"><path style="stroke:none" d="M 11.59375 -14.609375 L 11.59375 -12.296875 L 6.734375 0 L 3.953125 0 L 8.8125 -12.46875 L 0.984375 -12.46875 L 0.984375 -18.625 L 3.515625 -18.625 L 3.515625 -14.609375 Z M 11.59375 -14.609375 "/></g></g><g style="fill:#ffffff;fill-opacity:1;"><g transform="translate(877.413267, 45.722961)"><path style="stroke:none" d="M 13.0625 -14.609375 C 13.0625 -11.109375 12.925781 -8.476562 12.65625 -6.71875 C 12.394531 -4.957031 11.75 -3.523438 10.71875 -2.421875 C 9.6875 -1.328125 8.03125 -0.554688 5.75 -0.109375 L 0.859375 0.859375 L 0.46875 -1.328125 L 4.859375 -2.1875 L 1.65625 -14.609375 L 4.4375 -14.609375 L 7.359375 -2.828125 C 8.285156 -3.242188 8.957031 -3.867188 9.375 -4.703125 C 9.789062 -5.535156 10.050781 -6.585938 10.15625 -7.859375 C 10.257812 -9.128906 10.3125 -11.039062 10.3125 -13.59375 L 10.3125 -14.609375 Z M 13.0625 -14.609375 "/></g></g><g style="fill:#ffffff;fill-opacity:1;"><g transform="translate(891.725135, 45.722961)"><path style="stroke:none" d=""/></g></g><g style="fill:#ffffff;fill-opacity:1;"><g transform="translate(896.92001, 45.722961)"><path style="stroke:none" d="M 7.453125 -3.046875 L 10.109375 5.203125 L 7.4375 5.203125 L 1.046875 -14.609375 L 3.71875 -14.609375 L 6.34375 -6.46875 L 9.671875 -14.609375 L 12.296875 -14.609375 Z M 7.453125 -3.046875 "/></g></g><g style="fill:#ffffff;fill-opacity:1;"><g transform="translate(909.80322, 45.722961)"><path style="stroke:none" d="M 1.8125 -11.5625 L 1.5 -14.609375 L 4.265625 -14.609375 L 4.59375 -11.5625 L 4.59375 0 L 1.8125 0 Z M 1.8125 -11.5625 "/></g></g><g style="fill:#ffffff;fill-opacity:1;"><g transform="translate(916.037053, 45.722961)"><path style="stroke:none" d="M 9.015625 -14.609375 C 10.421875 -14.609375 11.507812 -14.179688 12.28125 -13.328125 C 13.050781 -12.484375 13.4375 -11.203125 13.4375 -9.484375 L 13.4375 0 L 10.65625 0 L 10.65625 -9.609375 C 10.65625 -11.515625 9.875 -12.46875 8.3125 -12.46875 L 4.3125 -12.46875 L 4.3125 0 L 1.53125 0 L 1.53125 -14.609375 Z M 9.015625 -14.609375 "/></g></g><g style="fill:#ffffff;fill-opacity:1;"><g transform="translate(931.050234, 45.722961)"><path style="stroke:none" d="M 11.59375 -14.609375 L 11.59375 -12.296875 L 6.734375 0 L 3.953125 0 L 8.8125 -12.46875 L 0.984375 -12.46875 L 0.984375 -18.625 L 3.515625 -18.625 L 3.515625 -14.609375 Z M 11.59375 -14.609375 "/></g></g><g style="fill:#ffffff;fill-opacity:1;"><g transform="translate(943.673706, 45.722961)"><path style="stroke:none" d="M 11.59375 -14.609375 L 11.59375 -12.296875 L 6.734375 0 L 3.953125 0 L 8.8125 -12.46875 L 0.984375 -12.46875 L 0.984375 -18.625 L 3.515625 -18.625 L 3.515625 -14.609375 Z M 11.59375 -14.609375 "/></g></g><g clip-rule="nonzero" clip-path="url(#b3e0280514)"><g clip-rule="nonzero" clip-path="url(#e398b23e40)"><g transform="matrix(1,0,0,1,388,311)"><g clip-path="url(#e392bc7e6a)"><g clip-rule="nonzero" clip-path="url(#ae7f313fb2)"><g clip-rule="nonzero" clip-path="url(#cb125d4325)"><path style=" stroke:none;fill-rule:nonzero;fill:#176598;fill-opacity:1;" d="M 0.425781 0.757812 L 330.316406 0.757812 L 330.316406 64.304688 L 0.425781 64.304688 Z M 0.425781 0.757812 "/></g></g></g></g></g></g><g style="fill:#ffffff;fill-opacity:1;"><g transform="translate(416.964221, 352.230802)"><path style="stroke:none" d="M 9.21875 -14.609375 C 10.601562 -14.609375 11.6875 -14.21875 12.46875 -13.4375 C 13.25 -12.65625 13.640625 -11.425781 13.640625 -9.75 L 13.640625 0 L 1.6875 0 L 1.6875 -14.609375 Z M 10.859375 -2.125 L 10.859375 -9.875 C 10.859375 -10.789062 10.660156 -11.453125 10.265625 -11.859375 C 9.867188 -12.265625 9.285156 -12.46875 8.515625 -12.46875 L 4.46875 -12.46875 L 4.46875 -2.125 Z M 10.859375 -2.125 "/></g></g><g style="fill:#ffffff;fill-opacity:1;"><g transform="translate(432.159193, 352.230802)"><path style="stroke:none" d="M 0.984375 -2.125 L 4.734375 -2.125 C 5.960938 -2.125 6.878906 -2.492188 7.484375 -3.234375 C 8.085938 -3.984375 8.390625 -5.046875 8.390625 -6.421875 L 8.390625 -8.1875 C 8.390625 -9.550781 8.085938 -10.601562 7.484375 -11.34375 C 6.878906 -12.09375 5.960938 -12.46875 4.734375 -12.46875 L 0.984375 -12.46875 L 0.984375 -14.609375 L 5.40625 -14.609375 C 7.257812 -14.609375 8.679688 -14.035156 9.671875 -12.890625 C 10.671875 -11.742188 11.171875 -10.132812 11.171875 -8.0625 L 11.171875 -6.546875 C 11.171875 -4.472656 10.671875 -2.863281 9.671875 -1.71875 C 8.679688 -0.570312 7.257812 0 5.40625 0 L 0.984375 0 Z M 0.984375 -2.125 "/></g></g><g style="fill:#ffffff;fill-opacity:1;"><g transform="translate(444.574914, 352.230802)"><path style="stroke:none" d="M 11.59375 -14.609375 L 11.59375 -12.296875 L 6.734375 0 L 3.953125 0 L 8.8125 -12.46875 L 0.984375 -12.46875 L 0.984375 -18.625 L 3.515625 -18.625 L 3.515625 -14.609375 Z M 11.59375 -14.609375 "/></g></g><g style="fill:#ffffff;fill-opacity:1;"><g transform="translate(457.198431, 352.230802)"><path style="stroke:none" d="M 15.6875 -10.609375 C 15.726562 -6.953125 14.707031 -4.21875 12.625 -2.40625 C 10.550781 -0.59375 7.363281 0.296875 3.0625 0.265625 L 1.171875 -14.609375 L 3.8125 -14.609375 L 4.65625 -7.6875 C 5.601562 -8.15625 6.25 -8.769531 6.59375 -9.53125 C 6.945312 -10.289062 7.140625 -11.4375 7.171875 -12.96875 L 7.171875 -14.578125 L 9.828125 -14.578125 L 9.796875 -13.015625 C 9.765625 -11.109375 9.382812 -9.578125 8.65625 -8.421875 C 7.925781 -7.273438 6.675781 -6.347656 4.90625 -5.640625 L 5.328125 -2.109375 C 7.941406 -2.273438 9.867188 -3.050781 11.109375 -4.4375 C 12.347656 -5.820312 12.957031 -7.832031 12.9375 -10.46875 L 12.890625 -14.609375 L 15.671875 -14.609375 Z M 15.6875 -10.609375 "/></g></g><g style="fill:#ffffff;fill-opacity:1;"><g transform="translate(474.133685, 352.230802)"><path style="stroke:none" d=""/></g></g><g style="fill:#ffffff;fill-opacity:1;"><g transform="translate(479.328549, 352.230802)"><path style="stroke:none" d="M 12.96875 -2.125 L 12.96875 0 L 1.171875 0 L 1.171875 -2.125 L 8.390625 -2.125 L 8.390625 -9.875 C 8.390625 -10.789062 8.191406 -11.453125 7.796875 -11.859375 C 7.398438 -12.265625 6.816406 -12.46875 6.046875 -12.46875 L 1.171875 -12.46875 L 1.171875 -14.609375 L 6.75 -14.609375 C 8.132812 -14.609375 9.21875 -14.21875 10 -13.4375 C 10.78125 -12.65625 11.171875 -11.425781 11.171875 -9.75 L 11.171875 -2.125 Z M 12.96875 -2.125 "/></g></g><g style="fill:#ffffff;fill-opacity:1;"><g transform="translate(493.19883, 352.230802)"><path style="stroke:none" d="M 1.8125 -11.5625 L 1.5 -14.609375 L 4.265625 -14.609375 L 4.59375 -11.5625 L 4.59375 0 L 1.8125 0 Z M 1.8125 -11.5625 "/></g></g><g style="fill:#ffffff;fill-opacity:1;"><g transform="translate(499.432662, 352.230802)"><path style="stroke:none" d="M 15.6875 -10.609375 C 15.726562 -6.953125 14.707031 -4.21875 12.625 -2.40625 C 10.550781 -0.59375 7.363281 0.296875 3.0625 0.265625 L 1.171875 -14.609375 L 3.8125 -14.609375 L 4.65625 -7.6875 C 5.601562 -8.15625 6.25 -8.769531 6.59375 -9.53125 C 6.945312 -10.289062 7.140625 -11.4375 7.171875 -12.96875 L 7.171875 -14.578125 L 9.828125 -14.578125 L 9.796875 -13.015625 C 9.765625 -11.109375 9.382812 -9.578125 8.65625 -8.421875 C 7.925781 -7.273438 6.675781 -6.347656 4.90625 -5.640625 L 5.328125 -2.109375 C 7.941406 -2.273438 9.867188 -3.050781 11.109375 -4.4375 C 12.347656 -5.820312 12.957031 -7.832031 12.9375 -10.46875 L 12.890625 -14.609375 L 15.671875 -14.609375 Z M 15.6875 -10.609375 "/></g></g><g style="fill:#ffffff;fill-opacity:1;"><g transform="translate(516.367915, 352.230802)"><path style="stroke:none" d="M 1.8125 -11.5625 L 1.5 -14.609375 L 4.265625 -14.609375 L 4.59375 -11.5625 L 4.59375 -7.609375 L 4.578125 -5.96875 L 1.8125 -5.453125 Z M 1.8125 -11.5625 "/></g></g><g style="fill:#ffffff;fill-opacity:1;"><g transform="translate(522.601748, 352.230802)"><path style="stroke:none" d="M 1.8125 -11.5625 L 1.5 -14.609375 L 4.265625 -14.609375 L 4.59375 -11.5625 L 4.59375 -7.609375 L 4.578125 -5.96875 L 1.8125 -5.453125 Z M 1.8125 -11.5625 "/></g></g><g style="fill:#ffffff;fill-opacity:1;"><g transform="translate(528.83558, 352.230802)"><path style="stroke:none" d="M 10.234375 -9.875 C 10.234375 -10.789062 10.035156 -11.453125 9.640625 -11.859375 C 9.242188 -12.265625 8.664062 -12.46875 7.90625 -12.46875 L 1.5 -12.46875 L 1.5 -14.609375 L 8.59375 -14.609375 C 9.976562 -14.609375 11.0625 -14.21875 11.84375 -13.4375 C 12.625 -12.65625 13.015625 -11.425781 13.015625 -9.75 L 13.015625 0 L 10.234375 0 Z M 1.421875 -7.0625 L 1.8125 -8.8125 L 4.203125 -8.8125 L 4.203125 0 L 1.421875 0 Z M 1.421875 -7.0625 "/></g></g><g style="fill:#ffffff;fill-opacity:1;"><g transform="translate(543.329249, 352.230802)"><path style="stroke:none" d=""/></g></g><g style="fill:#ffffff;fill-opacity:1;"><g transform="translate(548.524113, 352.230802)"><path style="stroke:none" d="M 9.21875 -14.609375 C 10.601562 -14.609375 11.6875 -14.21875 12.46875 -13.4375 C 13.25 -12.65625 13.640625 -11.425781 13.640625 -9.75 L 13.640625 0 L 1.6875 0 L 1.6875 -14.609375 Z M 10.859375 -2.125 L 10.859375 -9.875 C 10.859375 -10.789062 10.660156 -11.453125 10.265625 -11.859375 C 9.867188 -12.265625 9.285156 -12.46875 8.515625 -12.46875 L 4.46875 -12.46875 L 4.46875 -2.125 Z M 10.859375 -2.125 "/></g></g><g style="fill:#ffffff;fill-opacity:1;"><g transform="translate(563.719084, 352.230802)"><path style="stroke:none" d="M 15.6875 -10.609375 C 15.726562 -6.953125 14.707031 -4.21875 12.625 -2.40625 C 10.550781 -0.59375 7.363281 0.296875 3.0625 0.265625 L 1.171875 -14.609375 L 3.8125 -14.609375 L 4.65625 -7.6875 C 5.601562 -8.15625 6.25 -8.769531 6.59375 -9.53125 C 6.945312 -10.289062 7.140625 -11.4375 7.171875 -12.96875 L 7.171875 -14.578125 L 9.828125 -14.578125 L 9.796875 -13.015625 C 9.765625 -11.109375 9.382812 -9.578125 8.65625 -8.421875 C 7.925781 -7.273438 6.675781 -6.347656 4.90625 -5.640625 L 5.328125 -2.109375 C 7.941406 -2.273438 9.867188 -3.050781 11.109375 -4.4375 C 12.347656 -5.820312 12.957031 -7.832031 12.9375 -10.46875 L 12.890625 -14.609375 L 15.671875 -14.609375 Z M 15.6875 -10.609375 "/></g></g><g style="fill:#ffffff;fill-opacity:1;"><g transform="translate(580.654338, 352.230802)"><path style="stroke:none" d=""/></g></g><g style="fill:#ffffff;fill-opacity:1;"><g transform="translate(585.849202, 352.230802)"><path style="stroke:none" d="M 0.515625 -1.53125 C 1.523438 -1.632812 2.203125 -1.898438 2.546875 -2.328125 C 2.890625 -2.765625 3.0625 -3.46875 3.0625 -4.4375 L 3.0625 -14.609375 L 10.078125 -14.609375 C 11.460938 -14.609375 12.546875 -14.21875 13.328125 -13.4375 C 14.109375 -12.65625 14.5 -11.425781 14.5 -9.75 L 14.5 0 L 11.71875 0 L 11.71875 -9.875 C 11.71875 -10.789062 11.519531 -11.453125 11.125 -11.859375 C 10.726562 -12.265625 10.144531 -12.46875 9.375 -12.46875 L 5.84375 -12.46875 L 5.84375 -4.75 C 5.84375 -3.039062 5.441406 -1.796875 4.640625 -1.015625 C 3.847656 -0.234375 2.5625 0.242188 0.78125 0.421875 Z M 0.515625 -1.53125 "/></g></g><g style="fill:#ffffff;fill-opacity:1;"><g transform="translate(601.901329, 352.230802)"><path style="stroke:none" d="M 11.40625 0 L 5.953125 -8.28125 L 3.375 0 L 0.734375 0 L 3.578125 -8.9375 L 4.3125 -10.78125 L 1.921875 -14.609375 L 4.75 -14.609375 L 6.9375 -11.09375 L 9.125 -7.828125 L 9.765625 -10.078125 L 11.09375 -14.609375 L 13.765625 -14.609375 L 10.75 -5.40625 L 14.375 0 Z M 11.40625 0 "/></g></g><g style="fill:#ffffff;fill-opacity:1;"><g transform="translate(617.122272, 352.230802)"><path style="stroke:none" d=""/></g></g><g style="fill:#ffffff;fill-opacity:1;"><g transform="translate(622.317147, 352.230802)"><path style="stroke:none" d="M 12.96875 -2.125 L 12.96875 0 L 1.171875 0 L 1.171875 -2.125 L 8.390625 -2.125 L 8.390625 -9.875 C 8.390625 -10.789062 8.191406 -11.453125 7.796875 -11.859375 C 7.398438 -12.265625 6.816406 -12.46875 6.046875 -12.46875 L 1.171875 -12.46875 L 1.171875 -14.609375 L 6.75 -14.609375 C 8.132812 -14.609375 9.21875 -14.21875 10 -13.4375 C 10.78125 -12.65625 11.171875 -11.425781 11.171875 -9.75 L 11.171875 -2.125 Z M 12.96875 -2.125 "/></g></g><g style="fill:#ffffff;fill-opacity:1;"><g transform="translate(636.187417, 352.230802)"><path style="stroke:none" d="M 1.8125 -11.5625 L 1.5 -14.609375 L 4.265625 -14.609375 L 4.59375 -11.5625 L 4.59375 0 L 1.8125 0 Z M 1.8125 -11.5625 "/></g></g><g style="fill:#ffffff;fill-opacity:1;"><g transform="translate(642.421249, 352.230802)"><path style="stroke:none" d="M 0.515625 -1.53125 C 1.523438 -1.632812 2.203125 -1.898438 2.546875 -2.328125 C 2.890625 -2.765625 3.0625 -3.46875 3.0625 -4.4375 L 3.0625 -14.609375 L 10.078125 -14.609375 C 11.460938 -14.609375 12.546875 -14.21875 13.328125 -13.4375 C 14.109375 -12.65625 14.5 -11.425781 14.5 -9.75 L 14.5 0 L 11.71875 0 L 11.71875 -9.875 C 11.71875 -10.789062 11.519531 -11.453125 11.125 -11.859375 C 10.726562 -12.265625 10.144531 -12.46875 9.375 -12.46875 L 5.84375 -12.46875 L 5.84375 -4.75 C 5.84375 -3.039062 5.441406 -1.796875 4.640625 -1.015625 C 3.847656 -0.234375 2.5625 0.242188 0.78125 0.421875 Z M 0.515625 -1.53125 "/></g></g><g style="fill:#ffffff;fill-opacity:1;"><g transform="translate(658.473364, 352.230802)"><path style="stroke:none" d="M 0.984375 -2.125 L 4.734375 -2.125 C 5.960938 -2.125 6.878906 -2.492188 7.484375 -3.234375 C 8.085938 -3.984375 8.390625 -5.046875 8.390625 -6.421875 L 8.390625 -8.1875 C 8.390625 -9.550781 8.085938 -10.601562 7.484375 -11.34375 C 6.878906 -12.09375 5.960938 -12.46875 4.734375 -12.46875 L 0.984375 -12.46875 L 0.984375 -14.609375 L 5.40625 -14.609375 C 7.257812 -14.609375 8.679688 -14.035156 9.671875 -12.890625 C 10.671875 -11.742188 11.171875 -10.132812 11.171875 -8.0625 L 11.171875 -6.546875 C 11.171875 -4.472656 10.671875 -2.863281 9.671875 -1.71875 C 8.679688 -0.570312 7.257812 0 5.40625 0 L 0.984375 0 Z M 0.984375 -2.125 "/></g></g><g style="fill:#ffffff;fill-opacity:1;"><g transform="translate(670.889108, 352.230802)"><path style="stroke:none" d="M 11.59375 -14.609375 L 11.59375 -12.296875 L 6.734375 0 L 3.953125 0 L 8.8125 -12.46875 L 0.984375 -12.46875 L 0.984375 -18.625 L 3.515625 -18.625 L 3.515625 -14.609375 Z M 11.59375 -14.609375 "/></g></g><g style="fill:#ffffff;fill-opacity:1;"><g transform="translate(683.512626, 352.230802)"><path style="stroke:none" d="M 1.8125 -11.5625 L 1.5 -14.609375 L 4.265625 -14.609375 L 4.59375 -11.5625 L 4.59375 0 L 1.8125 0 Z M 1.8125 -11.5625 "/></g></g><g clip-rule="nonzero" clip-path="url(#00029f33d0)"><g clip-rule="nonzero" clip-path="url(#42cff804d9)"><g transform="matrix(1,0,0,1,528,86)"><g clip-path="url(#fd77624b6c)"><g clip-rule="nonzero" clip-path="url(#a19069d57d)"><g clip-rule="nonzero" clip-path="url(#739e9d45df)"><path style=" stroke:none;fill-rule:nonzero;fill:#052554;fill-opacity:1;" d="M 0.464844 0.492188 L 59.246094 0.492188 L 59.246094 59.269531 L 0.464844 59.269531 Z M 0.464844 0.492188 "/></g></g></g></g></g></g><g clip-rule="nonzero" clip-path="url(#6fe8efa159)"><g clip-rule="nonzero" clip-path="url(#752c1ab0ed)"><g transform="matrix(1,0,0,1,528,243)"><g clip-path="url(#270ab0f210)"><g clip-rule="nonzero" clip-path="url(#7b1daf741d)"><g clip-rule="nonzero" clip-path="url(#d8152faa6f)"><path style=" stroke:none;fill-rule:nonzero;fill:#052554;fill-opacity:1;" d="M 0.464844 0.917969 L 59.246094 0.917969 L 59.246094 59.699219 L 0.464844 59.699219 Z M 0.464844 0.917969 "/></g></g></g></g></g></g></g></svg>