<?xml version="1.0" standalone="no"?>
<!DOCTYPE svg PUBLIC "-//W3C//DTD SVG 20010904//EN" "http://www.w3.org/TR/2001/REC-SVG-20010904/DTD/svg10.dtd">
<svg xmlns="http://www.w3.org/2000/svg" version="1.0" width="98" height="99" viewBox="0 0 98.000000 99.000000" preserveAspectRatio="xMidYMid meet">

<g transform="translate(0.000000,99.000000) scale(0.100000,-0.100000)" fill="#052554" stroke="none">
<path d="M351 945 c-227 -64 -381 -302 -343 -532 31 -186 170 -341 347 -388 276 -71 554 96 611 367 47 220 -63 431 -276 531 -57 28 -76 31 -175 34 -76 2 -127 -2 -164 -12z m269 -260 c0 -3 -17 -32 -37 -65 -34 -54 -42 -60 -80 -66 -23 -3 -47 -4 -53 -2 -18 6 125 138 149 138 12 0 21 -2 21 -5z m158 -89 c7 -103 -11 -119 -153 -141 -54 -8 -100 -16 -102 -19 -2 -2 23 -39 56 -82 46 -59 57 -80 45 -82 -32 -7 -65 10 -159 84 l-97 77 -98 -7 c-87 -6 -100 -5 -108 10 -12 21 1 57 32 93 33 37 63 44 113 25 37 -14 65 -16 187 -10 164 8 195 14 210 42 30 55 39 65 54 62 13 -2 18 -16 20 -52z"/>
</g>
</svg>