<?xml version="1.0" standalone="no"?>
<!DOCTYPE svg PUBLIC "-//W3C//DTD SVG 20010904//EN" "http://www.w3.org/TR/2001/REC-SVG-20010904/DTD/svg10.dtd">
<svg xmlns="http://www.w3.org/2000/svg" version="1.0" width="96" height="97" viewBox="0 0 96.000000 97.000000" preserveAspectRatio="xMidYMid meet">

<g transform="translate(0.000000,97.000000) scale(0.100000,-0.100000)" fill="#052554" stroke="none">
<path d="M325 939 c-171 -60 -289 -202 -317 -382 -48 -311 228 -587 539 -539 184 29 325 147 383 322 18 54 21 82 18 171 -3 99 -6 110 -42 185 -52 104 -121 173 -223 222 -73 35 -85 37 -188 40 -91 2 -120 -1 -170 -19z m194 -408 l-42 -37 22 -93 c12 -51 21 -94 19 -96 -2 -2 -32 -15 -68 -30 -36 -15 -66 -28 -67 -29 -1 -1 6 -31 17 -67 11 -35 20 -65 20 -66 0 -2 -10 -3 -22 -3 -38 0 -144 56 -193 101 -49 46 -102 125 -90 137 3 4 57 21 118 38 l112 30 5 80 5 79 69 14 69 15 31 65 31 66 3 -83 3 -84 -42 -37z"/>
</g>
</svg>