<?xml version="1.0" standalone="no"?>
<!DOCTYPE svg PUBLIC "-//W3C//DTD SVG 20010904//EN" "http://www.w3.org/TR/2001/REC-SVG-20010904/DTD/svg10.dtd">
<svg xmlns="http://www.w3.org/2000/svg" version="1.0" width="96" height="96" viewBox="0 0 96.000000 96.000000" preserveAspectRatio="xMidYMid meet">

<g transform="translate(0.000000,96.000000) scale(0.100000,-0.100000)" fill="#052554" stroke="none">
<path d="M368 944 c-88 -21 -156 -60 -225 -129 -251 -251 -151 -671 188 -785 53 -18 81 -21 169 -18 97 3 111 6 183 40 102 49 171 118 223 222 37 75 39 86 42 185 3 84 0 119 -16 167 -74 236 -324 377 -564 318z m132 -239 l41 -74 82 51 c45 28 93 58 107 67 l25 16 -19 -30 c-11 -16 -43 -66 -73 -110 l-53 -80 53 -17 c88 -30 84 -28 67 -37 -8 -5 -39 -14 -67 -21 -29 -6 -53 -14 -53 -16 0 -2 25 -54 56 -115 30 -61 53 -113 51 -115 -2 -2 -41 28 -86 66 -46 38 -87 68 -91 65 -4 -3 -10 -15 -14 -28 -3 -13 -13 -41 -22 -62 l-16 -40 -23 63 c-13 35 -26 66 -29 69 -3 4 -43 -10 -88 -30 -45 -21 -83 -36 -84 -34 -1 1 20 38 47 82 l49 80 -66 12 c-37 7 -69 15 -72 18 -3 2 27 20 67 39 l72 34 -60 69 c-33 37 -57 69 -53 71 4 1 47 -13 94 -32 48 -18 89 -31 92 -28 4 3 6 19 6 36 0 34 11 106 16 106 1 0 21 -34 44 -75z"/>
</g>
</svg>