<svg xmlns="http://www.w3.org/2000/svg" xmlns:xlink="http://www.w3.org/1999/xlink" width="366" zoomAndPan="magnify" viewBox="0 0 274.5 175.5" height="234" preserveAspectRatio="xMidYMid meet" version="1.0"><defs><g/><clipPath id="2e252a7c95"><path d="M 0.140625 0 L 273.859375 0 L 273.859375 174.355469 L 0.140625 174.355469 Z M 0.140625 0 " clip-rule="nonzero"/></clipPath><clipPath id="c7624ab652"><path d="M 34.542969 0 L 238.917969 0 C 257.917969 0 273.320312 15.402344 273.320312 34.402344 L 273.320312 139.953125 C 273.320312 158.953125 257.917969 174.355469 238.917969 174.355469 L 34.542969 174.355469 C 15.542969 174.355469 0.140625 158.953125 0.140625 139.953125 L 0.140625 34.402344 C 0.140625 15.402344 15.542969 0 34.542969 0 Z M 34.542969 0 " clip-rule="nonzero"/></clipPath><clipPath id="392d01573a"><path d="M 0.140625 0 L 273.441406 0 L 273.441406 174.355469 L 0.140625 174.355469 Z M 0.140625 0 " clip-rule="nonzero"/></clipPath><clipPath id="e0cca587bd"><path d="M 34.542969 0 L 238.917969 0 C 257.917969 0 273.320312 15.402344 273.320312 34.402344 L 273.320312 139.953125 C 273.320312 158.953125 257.917969 174.355469 238.917969 174.355469 L 34.542969 174.355469 C 15.542969 174.355469 0.140625 158.953125 0.140625 139.953125 L 0.140625 34.402344 C 0.140625 15.402344 15.542969 0 34.542969 0 Z M 34.542969 0 " clip-rule="nonzero"/></clipPath><clipPath id="5c3f2a0335"><rect x="0" width="274" y="0" height="175"/></clipPath><clipPath id="14f773f533"><path d="M 97.792969 31.601562 L 165.5 31.601562 L 165.5 99.308594 L 97.792969 99.308594 Z M 97.792969 31.601562 " clip-rule="nonzero"/></clipPath><clipPath id="d04401ade9"><path d="M 131.648438 31.601562 C 112.949219 31.601562 97.792969 46.757812 97.792969 65.457031 C 97.792969 84.152344 112.949219 99.308594 131.648438 99.308594 C 150.34375 99.308594 165.5 84.152344 165.5 65.457031 C 165.5 46.757812 150.34375 31.601562 131.648438 31.601562 Z M 131.648438 31.601562 " clip-rule="nonzero"/></clipPath><clipPath id="e05e3e6334"><path d="M 0.792969 0.601562 L 68.5 0.601562 L 68.5 68.308594 L 0.792969 68.308594 Z M 0.792969 0.601562 " clip-rule="nonzero"/></clipPath><clipPath id="72c4d3df10"><path d="M 34.648438 0.601562 C 15.949219 0.601562 0.792969 15.757812 0.792969 34.457031 C 0.792969 53.152344 15.949219 68.308594 34.648438 68.308594 C 53.34375 68.308594 68.5 53.152344 68.5 34.457031 C 68.5 15.757812 53.34375 0.601562 34.648438 0.601562 Z M 34.648438 0.601562 " clip-rule="nonzero"/></clipPath><clipPath id="3284cb5900"><rect x="0" width="69" y="0" height="69"/></clipPath><clipPath id="e34e623194"><path d="M 97.792969 31.601562 L 165.5 31.601562 L 165.5 99.308594 L 97.792969 99.308594 Z M 97.792969 31.601562 " clip-rule="nonzero"/></clipPath><clipPath id="68673806dc"><path d="M 131.648438 31.601562 C 112.949219 31.601562 97.792969 46.757812 97.792969 65.453125 C 97.792969 84.152344 112.949219 99.308594 131.648438 99.308594 C 150.34375 99.308594 165.5 84.152344 165.5 65.453125 C 165.5 46.757812 150.34375 31.601562 131.648438 31.601562 Z M 131.648438 31.601562 " clip-rule="nonzero"/></clipPath><clipPath id="8b3c36f5b6"><path d="M 97.792969 33.6875 L 163 33.6875 L 163 99 L 97.792969 99 Z M 97.792969 33.6875 " clip-rule="nonzero"/></clipPath></defs><g clip-path="url(#2e252a7c95)"><g clip-path="url(#c7624ab652)"><g transform="matrix(1, 0, 0, 1, 0, 0)"><g clip-path="url(#5c3f2a0335)"><g clip-path="url(#392d01573a)"><g clip-path="url(#e0cca587bd)"><path fill="#f2f1c1" d="M 0.140625 0 L 273.253906 0 L 273.253906 174.355469 L 0.140625 174.355469 Z M 0.140625 0 " fill-opacity="1" fill-rule="nonzero"/></g></g></g></g></g></g><g fill="#112c59" fill-opacity="1"><g transform="translate(52.162143, 139.155344)"><g><path d="M 0.46875 -2.125 C 1.132812 -2.195312 1.632812 -2.328125 1.96875 -2.515625 C 2.300781 -2.710938 2.53125 -2.984375 2.65625 -3.328125 C 2.78125 -3.671875 2.832031 -4.160156 2.8125 -4.796875 L 2.8125 -15.03125 L 10.796875 -15.03125 C 12.203125 -15.03125 13.304688 -14.628906 14.109375 -13.828125 C 14.921875 -13.035156 15.328125 -11.785156 15.328125 -10.078125 L 15.328125 0 L 11.53125 0 L 11.53125 -10.265625 C 11.53125 -11.546875 10.929688 -12.1875 9.734375 -12.1875 L 6.640625 -12.1875 L 6.640625 -5.296875 C 6.640625 -3.960938 6.429688 -2.898438 6.015625 -2.109375 C 5.597656 -1.316406 4.972656 -0.722656 4.140625 -0.328125 C 3.304688 0.0664062 2.191406 0.328125 0.796875 0.453125 Z M 0.46875 -2.125 "/></g></g></g><g fill="#112c59" fill-opacity="1"><g transform="translate(68.872575, 139.155344)"><g><path d="M 1.609375 -11.953125 L 1.296875 -15.03125 L 5.078125 -15.03125 L 5.390625 -11.953125 L 5.390625 0 L 1.609375 0 Z M 1.609375 -11.953125 "/></g></g></g><g fill="#112c59" fill-opacity="1"><g transform="translate(75.688324, 139.155344)"><g><path d="M 1.046875 -15.03125 L 4.875 -15.03125 L 6.15625 -3.109375 C 7.988281 -3.285156 9.289062 -3.820312 10.0625 -4.71875 C 10.832031 -5.625 11.195312 -6.910156 11.15625 -8.578125 L 11.15625 -9.40625 C 11.15625 -10.1875 10.941406 -10.851562 10.515625 -11.40625 C 10.085938 -11.96875 9.441406 -12.273438 8.578125 -12.328125 L 7.296875 -12.40625 L 7.578125 -15.328125 L 9.1875 -15.25 C 10.820312 -15.15625 12.160156 -14.644531 13.203125 -13.71875 C 14.242188 -12.800781 14.789062 -11.492188 14.84375 -9.796875 L 14.875 -9.0625 C 14.976562 -5.96875 13.976562 -3.675781 11.875 -2.1875 C 9.78125 -0.707031 6.757812 0.109375 2.8125 0.265625 Z M 1.046875 -15.03125 "/></g></g></g><g fill="#112c59" fill-opacity="1"><g transform="translate(91.240869, 139.155344)"><g><path d="M 6.453125 -2.8125 C 7.640625 -2.914062 8.523438 -3.316406 9.109375 -4.015625 C 9.691406 -4.722656 10.039062 -5.921875 10.15625 -7.609375 L 10.5 -12.1875 L 1.34375 -12.1875 L 1.34375 -15.03125 L 14.578125 -15.03125 L 14.453125 -12.578125 L 14.171875 -8.609375 C 13.890625 -2.898438 11.410156 -0.0195312 6.734375 0.03125 Z M 1.125 -7.34375 L 1.65625 -9.15625 L 4.953125 -9.15625 L 4.953125 5.265625 L 1.125 5.265625 Z M 1.125 -7.34375 "/></g></g></g><g fill="#112c59" fill-opacity="1"><g transform="translate(106.767099, 139.155344)"><g><path d="M 7.640625 -10.265625 C 7.640625 -11.546875 7.050781 -12.1875 5.875 -12.1875 L 0.734375 -12.1875 L 0.734375 -15.03125 L 6.890625 -15.03125 C 8.296875 -15.03125 9.40625 -14.628906 10.21875 -13.828125 C 11.039062 -13.035156 11.453125 -11.785156 11.453125 -10.078125 L 11.453125 0 L 7.640625 0 Z M 7.640625 -10.265625 "/></g></g></g><g fill="#112c59" fill-opacity="1"><g transform="translate(119.609132, 139.155344)"><g><path d="M 1.609375 -11.953125 L 1.296875 -15.03125 L 5.078125 -15.03125 L 5.390625 -11.953125 L 5.390625 0 L 1.609375 0 Z M 1.609375 -11.953125 "/></g></g></g><g fill="#112c59" fill-opacity="1"><g transform="translate(126.42488, 139.155344)"><g/></g></g><g fill="#112c59" fill-opacity="1"><g transform="translate(131.688004, 139.155344)"><g><path d="M 9.71875 -15.03125 C 11.125 -15.03125 12.234375 -14.628906 13.046875 -13.828125 C 13.859375 -13.035156 14.265625 -11.785156 14.265625 -10.078125 L 14.265625 0 L 1.390625 0 L 1.390625 -15.03125 Z M 10.453125 -2.84375 L 10.453125 -10.265625 C 10.453125 -11.546875 9.863281 -12.1875 8.6875 -12.1875 L 5.1875 -12.1875 L 5.1875 -2.84375 Z M 10.453125 -2.84375 "/></g></g></g><g fill="#112c59" fill-opacity="1"><g transform="translate(147.266864, 139.155344)"><g><path d="M 1.609375 -11.953125 L 1.296875 -15.03125 L 5.078125 -15.03125 L 5.390625 -11.953125 L 5.390625 -7.84375 L 5.375 -6.1875 L 1.609375 -5.53125 Z M 1.609375 -11.953125 "/></g></g></g><g fill="#112c59" fill-opacity="1"><g transform="translate(154.082613, 139.155344)"><g><path d="M 12.265625 -15.03125 L 12.265625 -11.90625 L 7.53125 0 L 3.734375 0 L 8.453125 -12.1875 L 0.8125 -12.1875 L 0.8125 -18.875 L 4.234375 -18.875 L 4.234375 -15.03125 Z M 12.265625 -15.03125 "/></g></g></g><g fill="#112c59" fill-opacity="1"><g transform="translate(167.187796, 139.155344)"><g><path d="M 1.609375 -11.953125 L 1.296875 -15.03125 L 5.078125 -15.03125 L 5.390625 -11.953125 L 5.390625 -7.84375 L 5.375 -6.1875 L 1.609375 -5.53125 Z M 1.609375 -11.953125 "/></g></g></g><g fill="#112c59" fill-opacity="1"><g transform="translate(174.003545, 139.155344)"><g><path d="M 1.046875 -15.03125 L 4.875 -15.03125 L 6.15625 -3.109375 C 7.988281 -3.285156 9.289062 -3.820312 10.0625 -4.71875 C 10.832031 -5.625 11.195312 -6.910156 11.15625 -8.578125 L 11.15625 -9.40625 C 11.15625 -10.1875 10.941406 -10.851562 10.515625 -11.40625 C 10.085938 -11.96875 9.441406 -12.273438 8.578125 -12.328125 L 7.296875 -12.40625 L 7.578125 -15.328125 L 9.1875 -15.25 C 10.820312 -15.15625 12.160156 -14.644531 13.203125 -13.71875 C 14.242188 -12.800781 14.789062 -11.492188 14.84375 -9.796875 L 14.875 -9.0625 C 14.976562 -5.96875 13.976562 -3.675781 11.875 -2.1875 C 9.78125 -0.707031 6.757812 0.109375 2.8125 0.265625 Z M 1.046875 -15.03125 "/></g></g></g><g fill="#112c59" fill-opacity="1"><g transform="translate(189.55609, 139.155344)"><g/></g></g><g fill="#112c59" fill-opacity="1"><g transform="translate(194.819213, 139.155344)"><g><path d="M 1.609375 -11.953125 L 1.296875 -15.03125 L 5.078125 -15.03125 L 5.390625 -11.953125 L 5.390625 -7.84375 L 5.375 -6.1875 L 1.609375 -5.53125 Z M 1.609375 -11.953125 "/></g></g></g><g fill="#112c59" fill-opacity="1"><g transform="translate(201.634962, 139.155344)"><g><path d="M 7.640625 -10.265625 C 7.640625 -11.546875 7.050781 -12.1875 5.875 -12.1875 L 0.734375 -12.1875 L 0.734375 -15.03125 L 6.890625 -15.03125 C 8.296875 -15.03125 9.40625 -14.628906 10.21875 -13.828125 C 11.039062 -13.035156 11.453125 -11.785156 11.453125 -10.078125 L 11.453125 0 L 7.640625 0 Z M 7.640625 -10.265625 "/></g></g></g><g fill="#112c59" fill-opacity="1"><g transform="translate(214.476995, 139.155344)"><g><path d="M 1.609375 -11.953125 L 1.296875 -15.03125 L 5.078125 -15.03125 L 5.390625 -11.953125 L 5.390625 -7.84375 L 5.375 -6.1875 L 1.609375 -5.53125 Z M 1.609375 -11.953125 "/></g></g></g><g clip-path="url(#14f773f533)"><g clip-path="url(#d04401ade9)"><g transform="matrix(1, 0, 0, 1, 97, 31)"><g clip-path="url(#3284cb5900)"><g clip-path="url(#e05e3e6334)"><g clip-path="url(#72c4d3df10)"><path fill="#ffffff" d="M 0.792969 0.601562 L 68.5 0.601562 L 68.5 68.308594 L 0.792969 68.308594 Z M 0.792969 0.601562 " fill-opacity="1" fill-rule="nonzero"/></g></g></g></g></g></g><g clip-path="url(#e34e623194)"><g clip-path="url(#68673806dc)"><path stroke-linecap="butt" transform="matrix(0.747869, 0, 0, 0.747869, 97.794211, 31.601907)" fill="none" stroke-linejoin="miter" d="M 45.267571 -0.000460434 C 20.264246 -0.000460434 -0.00166141 20.265447 -0.00166141 45.263549 C -0.00166141 70.266874 20.264246 90.532782 45.267571 90.532782 C 70.265673 90.532782 90.531581 70.266874 90.531581 45.263549 C 90.531581 20.265447 70.265673 -0.000460434 45.267571 -0.000460434 Z M 45.267571 -0.000460434 " stroke="#052554" stroke-width="16" stroke-opacity="1" stroke-miterlimit="4"/></g></g><g clip-path="url(#8b3c36f5b6)"><path fill="#052554" d="M 122.945312 34.78125 C 116.929688 36.21875 112.285156 38.882812 107.566406 43.597656 C 90.414062 60.753906 97.246094 89.460938 120.417969 97.253906 C 124.039062 98.484375 125.953125 98.6875 131.96875 98.484375 C 138.597656 98.277344 139.554688 98.074219 144.476562 95.75 C 151.445312 92.398438 156.164062 87.683594 159.71875 80.574219 C 162.246094 75.449219 162.382812 74.699219 162.585938 67.929688 C 162.792969 62.191406 162.585938 59.796875 161.496094 56.515625 C 157.941406 45.308594 148.03125 36.558594 136.480469 34.441406 C 131.285156 33.484375 127.800781 33.550781 122.945312 34.78125 Z M 118.84375 53.101562 C 120.621094 53.988281 123.5625 56.3125 125.476562 58.226562 L 128.824219 61.710938 L 126.707031 63.898438 L 124.519531 66.085938 L 121.921875 63.351562 C 118.570312 59.933594 116.453125 56.925781 115.222656 53.921875 C 113.992188 50.980469 114.472656 50.84375 118.84375 53.101562 Z M 134.085938 66.90625 L 137.984375 70.800781 L 140.988281 70.050781 C 143.722656 69.367188 144.066406 69.433594 145.570312 70.871094 L 147.210938 72.511719 L 145.707031 74.5625 C 144.953125 75.722656 144.269531 76.886719 144.269531 77.226562 C 144.269531 78.113281 140.578125 81.53125 139.691406 81.53125 C 139.28125 81.53125 138.1875 82.148438 137.300781 82.898438 L 135.589844 84.199219 L 134.085938 82.625 C 132.789062 81.257812 132.582031 80.507812 132.992188 77.910156 C 133.472656 74.902344 133.402344 74.835938 129.644531 71.007812 C 127.527344 68.957031 125.816406 66.972656 125.816406 66.699219 C 125.816406 65.949219 128.6875 63.078125 129.507812 63.078125 C 129.917969 63.078125 131.96875 64.789062 134.085938 66.90625 Z M 146.320312 79.34375 C 146.320312 80.300781 142.289062 83.855469 141.742188 83.378906 C 141.535156 83.105469 142.152344 81.941406 143.246094 80.847656 C 145.160156 78.796875 146.320312 78.25 146.320312 79.34375 Z M 146.320312 79.34375 " fill-opacity="1" fill-rule="nonzero"/></g><path fill="#052554" d="M 135.386719 73.195312 C 135.386719 74.152344 139.828125 78.113281 140.851562 78.113281 C 141.398438 78.113281 140.648438 76.886719 139.144531 75.382812 C 136.546875 72.714844 135.386719 72.03125 135.386719 73.195312 Z M 135.386719 73.195312 " fill-opacity="1" fill-rule="nonzero"/></svg>