<svg xmlns="http://www.w3.org/2000/svg" xmlns:xlink="http://www.w3.org/1999/xlink" width="368" zoomAndPan="magnify" viewBox="0 0 276 171.750001" height="229" preserveAspectRatio="xMidYMid meet" version="1.0"><defs><g/><clipPath id="4164159333"><path d="M 0.199219 0 L 274 0 L 274 171.042969 L 0.199219 171.042969 Z M 0.199219 0 " clip-rule="nonzero"/></clipPath><clipPath id="ac18f97595"><path d="M 34.652344 0 L 239.3125 0 C 258.339844 0 273.761719 15.421875 273.761719 34.449219 L 273.761719 136.59375 C 273.761719 155.621094 258.339844 171.042969 239.3125 171.042969 L 34.652344 171.042969 C 15.625 171.042969 0.199219 155.621094 0.199219 136.59375 L 0.199219 34.449219 C 0.199219 15.421875 15.625 0 34.652344 0 Z M 34.652344 0 " clip-rule="nonzero"/></clipPath><clipPath id="97d02c8e59"><path d="M 0.199219 0 L 273.882812 0 L 273.882812 171.042969 L 0.199219 171.042969 Z M 0.199219 0 " clip-rule="nonzero"/></clipPath><clipPath id="341c517265"><path d="M 34.652344 0 L 239.3125 0 C 258.339844 0 273.761719 15.421875 273.761719 34.449219 L 273.761719 136.59375 C 273.761719 155.621094 258.339844 171.042969 239.3125 171.042969 L 34.652344 171.042969 C 15.625 171.042969 0.199219 155.621094 0.199219 136.59375 L 0.199219 34.449219 C 0.199219 15.421875 15.625 0 34.652344 0 Z M 34.652344 0 " clip-rule="nonzero"/></clipPath><clipPath id="4887eb03f7"><rect x="0" width="274" y="0" height="172"/></clipPath><clipPath id="369530c906"><path d="M 103.082031 26.894531 L 170.882812 26.894531 L 170.882812 94.695312 L 103.082031 94.695312 Z M 103.082031 26.894531 " clip-rule="nonzero"/></clipPath><clipPath id="4c1bd0ade0"><path d="M 136.980469 26.894531 C 118.257812 26.894531 103.082031 42.070312 103.082031 60.792969 C 103.082031 79.515625 118.257812 94.695312 136.980469 94.695312 C 155.703125 94.695312 170.882812 79.515625 170.882812 60.792969 C 170.882812 42.070312 155.703125 26.894531 136.980469 26.894531 Z M 136.980469 26.894531 " clip-rule="nonzero"/></clipPath><clipPath id="aabf615711"><path d="M 0.0820312 0.894531 L 67.882812 0.894531 L 67.882812 68.695312 L 0.0820312 68.695312 Z M 0.0820312 0.894531 " clip-rule="nonzero"/></clipPath><clipPath id="86dccf7153"><path d="M 33.980469 0.894531 C 15.257812 0.894531 0.0820312 16.070312 0.0820312 34.792969 C 0.0820312 53.515625 15.257812 68.695312 33.980469 68.695312 C 52.703125 68.695312 67.882812 53.515625 67.882812 34.792969 C 67.882812 16.070312 52.703125 0.894531 33.980469 0.894531 Z M 33.980469 0.894531 " clip-rule="nonzero"/></clipPath><clipPath id="2236626f9a"><rect x="0" width="68" y="0" height="69"/></clipPath><clipPath id="09410a9e33"><path d="M 103.082031 26.894531 L 170.878906 26.894531 L 170.878906 94.695312 L 103.082031 94.695312 Z M 103.082031 26.894531 " clip-rule="nonzero"/></clipPath><clipPath id="4f458e4915"><path d="M 136.980469 26.894531 C 118.257812 26.894531 103.082031 42.070312 103.082031 60.792969 C 103.082031 79.515625 118.257812 94.695312 136.980469 94.695312 C 155.703125 94.695312 170.878906 79.515625 170.878906 60.792969 C 170.878906 42.070312 155.703125 26.894531 136.980469 26.894531 Z M 136.980469 26.894531 " clip-rule="nonzero"/></clipPath><clipPath id="4159e4e26e"><path d="M 100.707031 25 L 171 25 L 171 95 L 100.707031 95 Z M 100.707031 25 " clip-rule="nonzero"/></clipPath></defs><g clip-path="url(#4164159333)"><g clip-path="url(#ac18f97595)"><g transform="matrix(1, 0, 0, 1, 0.000000000000000056, -0.000000000000000852)"><g clip-path="url(#4887eb03f7)"><g clip-path="url(#97d02c8e59)"><g clip-path="url(#341c517265)"><path fill="#f2f1c1" d="M 0.199219 0 L 273.472656 0 L 273.472656 171.042969 L 0.199219 171.042969 Z M 0.199219 0 " fill-opacity="1" fill-rule="nonzero"/></g></g></g></g></g></g><g fill="#112c59" fill-opacity="1"><g transform="translate(22.146659, 134.454392)"><g><path d="M 9.71875 -15.03125 C 11.125 -15.03125 12.234375 -14.628906 13.046875 -13.828125 C 13.859375 -13.035156 14.265625 -11.785156 14.265625 -10.078125 L 14.265625 0 L 1.390625 0 L 1.390625 -15.03125 Z M 10.453125 -2.84375 L 10.453125 -10.265625 C 10.453125 -11.546875 9.863281 -12.1875 8.6875 -12.1875 L 5.1875 -12.1875 L 5.1875 -2.84375 Z M 10.453125 -2.84375 "/></g></g></g><g fill="#112c59" fill-opacity="1"><g transform="translate(37.726374, 134.454392)"><g><path d="M 1.609375 -11.953125 L 1.296875 -15.03125 L 5.078125 -15.03125 L 5.390625 -11.953125 L 5.390625 -7.84375 L 5.375 -6.1875 L 1.609375 -5.53125 Z M 1.609375 -11.953125 "/></g></g></g><g fill="#112c59" fill-opacity="1"><g transform="translate(44.542498, 134.454392)"><g><path d="M 1.03125 -2.84375 L 4.875 -2.84375 L 4.875 -10.453125 C 4.875 -11.085938 4.753906 -11.535156 4.515625 -11.796875 C 4.273438 -12.054688 3.910156 -12.222656 3.421875 -12.296875 L 1.578125 -12.5625 L 2.046875 -15.34375 L 5.34375 -14.921875 C 6.414062 -14.785156 7.234375 -14.332031 7.796875 -13.5625 C 8.367188 -12.789062 8.65625 -11.789062 8.65625 -10.5625 L 8.65625 0 L 1.03125 0 Z M 1.03125 -2.84375 "/></g></g></g><g fill="#112c59" fill-opacity="1"><g transform="translate(54.569304, 134.454392)"><g><path d="M 0.765625 -2.84375 L 4.96875 -2.84375 C 5.988281 -2.84375 6.738281 -3.175781 7.21875 -3.84375 C 7.707031 -4.507812 7.953125 -5.40625 7.953125 -6.53125 L 7.953125 -8.5 C 7.953125 -9.625 7.707031 -10.519531 7.21875 -11.1875 C 6.738281 -11.851562 5.988281 -12.1875 4.96875 -12.1875 L 0.765625 -12.1875 L 0.765625 -15.03125 L 6 -15.03125 C 7.875 -15.03125 9.300781 -14.425781 10.28125 -13.21875 C 11.269531 -12.019531 11.765625 -10.378906 11.765625 -8.296875 L 11.765625 -6.734375 C 11.765625 -4.648438 11.269531 -3.003906 10.28125 -1.796875 C 9.300781 -0.597656 7.875 0 6 0 L 0.765625 0 Z M 0.765625 -2.84375 "/></g></g></g><g fill="#112c59" fill-opacity="1"><g transform="translate(67.333088, 134.454392)"><g><path d="M 1.609375 -11.953125 L 1.296875 -15.03125 L 5.078125 -15.03125 L 5.390625 -11.953125 L 5.390625 0 L 1.609375 0 Z M 1.609375 -11.953125 "/></g></g></g><g fill="#112c59" fill-opacity="1"><g transform="translate(74.149213, 134.454392)"><g><path d="M 14.671875 -8.6875 C 14.773438 -5.59375 13.804688 -3.359375 11.765625 -1.984375 C 9.734375 -0.609375 6.769531 0.140625 2.875 0.265625 L 1.421875 -12.1875 L 1.046875 -15.03125 L 9.140625 -15.03125 C 10.859375 -15.03125 12.191406 -14.539062 13.140625 -13.5625 C 14.085938 -12.59375 14.585938 -11.257812 14.640625 -9.5625 Z M 6.1875 -3.109375 C 7.4375 -3.191406 8.40625 -3.445312 9.09375 -3.875 C 9.789062 -4.3125 10.273438 -4.921875 10.546875 -5.703125 C 10.816406 -6.484375 10.9375 -7.503906 10.90625 -8.765625 L 10.90625 -9.5625 C 10.90625 -10.363281 10.71875 -11 10.34375 -11.46875 C 9.976562 -11.945312 9.476562 -12.1875 8.84375 -12.1875 L 5.21875 -12.1875 Z M 6.1875 -3.109375 "/></g></g></g><g fill="#112c59" fill-opacity="1"><g transform="translate(90.071044, 134.454392)"><g><path d="M 15.875 -7.5 C 15.875 -5.0625 15.304688 -3.144531 14.171875 -1.75 C 13.046875 -0.351562 11.457031 0.34375 9.40625 0.34375 C 8.664062 0.34375 7.859375 0.238281 6.984375 0.03125 L 7.3125 -2.8125 C 7.96875 -2.675781 8.515625 -2.609375 8.953125 -2.609375 C 10.140625 -2.609375 10.988281 -3.003906 11.5 -3.796875 C 12.007812 -4.597656 12.265625 -5.78125 12.265625 -7.34375 C 12.265625 -9.082031 12.023438 -10.34375 11.546875 -11.125 C 11.066406 -11.90625 10.320312 -12.296875 9.3125 -12.296875 C 8.613281 -12.296875 8.019531 -12.082031 7.53125 -11.65625 C 7.050781 -11.238281 6.753906 -10.671875 6.640625 -9.953125 L 5 0 L 1.21875 0 L 3.03125 -10.140625 L 0.921875 -15.03125 L 4.875 -15.03125 L 5.921875 -12.03125 C 6.296875 -13.125 6.847656 -13.9375 7.578125 -14.46875 C 8.316406 -15 9.160156 -15.265625 10.109375 -15.265625 C 11.984375 -15.265625 13.410156 -14.617188 14.390625 -13.328125 C 15.378906 -12.046875 15.875 -10.101562 15.875 -7.5 Z M 15.875 -7.5 "/></g></g></g><g fill="#112c59" fill-opacity="1"><g transform="translate(106.966608, 134.454392)"><g/></g></g><g fill="#112c59" fill-opacity="1"><g transform="translate(112.230027, 134.454392)"><g><path d="M 9.71875 -15.03125 C 11.125 -15.03125 12.234375 -14.628906 13.046875 -13.828125 C 13.859375 -13.035156 14.265625 -11.785156 14.265625 -10.078125 L 14.265625 0 L 1.390625 0 L 1.390625 -15.03125 Z M 10.453125 -2.84375 L 10.453125 -10.265625 C 10.453125 -11.546875 9.863281 -12.1875 8.6875 -12.1875 L 5.1875 -12.1875 L 5.1875 -2.84375 Z M 10.453125 -2.84375 "/></g></g></g><g fill="#112c59" fill-opacity="1"><g transform="translate(127.809742, 134.454392)"><g><path d="M 1.609375 -11.953125 L 1.296875 -15.03125 L 5.078125 -15.03125 L 5.390625 -11.953125 L 5.390625 -7.84375 L 5.375 -6.1875 L 1.609375 -5.53125 Z M 1.609375 -11.953125 "/></g></g></g><g fill="#112c59" fill-opacity="1"><g transform="translate(134.625866, 134.454392)"><g><path d="M 7.640625 -10.265625 C 7.640625 -11.546875 7.050781 -12.1875 5.875 -12.1875 L 0.734375 -12.1875 L 0.734375 -15.03125 L 6.890625 -15.03125 C 8.296875 -15.03125 9.40625 -14.628906 10.21875 -13.828125 C 11.039062 -13.035156 11.453125 -11.785156 11.453125 -10.078125 L 11.453125 0 L 7.640625 0 Z M 7.640625 -10.265625 "/></g></g></g><g fill="#112c59" fill-opacity="1"><g transform="translate(147.468603, 134.454392)"><g><path d="M 15.875 -7.5 C 15.875 -5.0625 15.304688 -3.144531 14.171875 -1.75 C 13.046875 -0.351562 11.457031 0.34375 9.40625 0.34375 C 8.664062 0.34375 7.859375 0.238281 6.984375 0.03125 L 7.3125 -2.8125 C 7.96875 -2.675781 8.515625 -2.609375 8.953125 -2.609375 C 10.140625 -2.609375 10.988281 -3.003906 11.5 -3.796875 C 12.007812 -4.597656 12.265625 -5.78125 12.265625 -7.34375 C 12.265625 -9.082031 12.023438 -10.34375 11.546875 -11.125 C 11.066406 -11.90625 10.320312 -12.296875 9.3125 -12.296875 C 8.613281 -12.296875 8.019531 -12.082031 7.53125 -11.65625 C 7.050781 -11.238281 6.753906 -10.671875 6.640625 -9.953125 L 5 0 L 1.21875 0 L 3.03125 -10.140625 L 0.921875 -15.03125 L 4.875 -15.03125 L 5.921875 -12.03125 C 6.296875 -13.125 6.847656 -13.9375 7.578125 -14.46875 C 8.316406 -15 9.160156 -15.265625 10.109375 -15.265625 C 11.984375 -15.265625 13.410156 -14.617188 14.390625 -13.328125 C 15.378906 -12.046875 15.875 -10.101562 15.875 -7.5 Z M 15.875 -7.5 "/></g></g></g><g fill="#112c59" fill-opacity="1"><g transform="translate(164.364168, 134.454392)"><g><path d="M 1.609375 -11.953125 L 1.296875 -15.03125 L 5.078125 -15.03125 L 5.390625 -11.953125 L 5.390625 0 L 1.609375 0 Z M 1.609375 -11.953125 "/></g></g></g><g fill="#112c59" fill-opacity="1"><g transform="translate(171.180292, 134.454392)"><g><path d="M 9.765625 -15.03125 C 11.171875 -15.03125 12.28125 -14.609375 13.09375 -13.765625 C 13.914062 -12.921875 14.328125 -11.648438 14.328125 -9.953125 L 14.328125 0 L 10.5 0 L 10.5 -10.140625 C 10.5 -11.503906 9.910156 -12.1875 8.734375 -12.1875 L 5.21875 -12.1875 L 5.21875 0 L 1.421875 0 L 1.421875 -15.03125 Z M 9.765625 -15.03125 "/></g></g></g><g fill="#112c59" fill-opacity="1"><g transform="translate(186.838949, 134.454392)"><g/></g></g><g fill="#112c59" fill-opacity="1"><g transform="translate(192.102367, 134.454392)"><g><path d="M 14.0625 -15.03125 C 14.039062 -11.539062 13.898438 -8.90625 13.640625 -7.125 C 13.390625 -5.34375 12.71875 -3.84375 11.625 -2.625 C 10.539062 -1.40625 8.789062 -0.554688 6.375 -0.078125 L 0.734375 1.03125 L 0.203125 -1.953125 L 4.390625 -2.734375 L 1.375 -15.03125 L 5.15625 -15.03125 L 7.8125 -3.578125 C 8.601562 -3.960938 9.175781 -4.550781 9.53125 -5.34375 C 9.882812 -6.132812 10.097656 -7.09375 10.171875 -8.21875 C 10.253906 -9.34375 10.296875 -11.046875 10.296875 -13.328125 L 10.296875 -15.03125 Z M 14.0625 -15.03125 "/></g></g></g><g fill="#112c59" fill-opacity="1"><g transform="translate(207.261004, 134.454392)"><g><path d="M 1.609375 -11.953125 L 1.296875 -15.03125 L 5.078125 -15.03125 L 5.390625 -11.953125 L 5.390625 0 L 1.609375 0 Z M 1.609375 -11.953125 "/></g></g></g><g fill="#112c59" fill-opacity="1"><g transform="translate(214.077116, 134.454392)"><g><path d="M 7.640625 -10.265625 C 7.640625 -11.546875 7.050781 -12.1875 5.875 -12.1875 L 0.734375 -12.1875 L 0.734375 -15.03125 L 6.890625 -15.03125 C 8.296875 -15.03125 9.40625 -14.628906 10.21875 -13.828125 C 11.039062 -13.035156 11.453125 -11.785156 11.453125 -10.078125 L 11.453125 0 L 7.640625 0 Z M 7.640625 -10.265625 "/></g></g></g><g fill="#112c59" fill-opacity="1"><g transform="translate(226.919864, 134.454392)"><g><path d="M 1.609375 -11.953125 L 1.296875 -15.03125 L 5.078125 -15.03125 L 5.390625 -11.953125 L 5.390625 -7.84375 L 5.375 -6.1875 L 1.609375 -5.53125 Z M 1.609375 -11.953125 "/></g></g></g><g fill="#112c59" fill-opacity="1"><g transform="translate(233.736, 134.454392)"><g><path d="M 11.453125 0 L 6.5 -7.65625 L 4.15625 0 L 0.546875 0 L 3.46875 -9.03125 L 4.296875 -11.0625 L 1.84375 -15.03125 L 5.65625 -15.03125 L 7.765625 -11.609375 L 9.65625 -8.734375 L 10.375 -11.140625 L 11.421875 -15.03125 L 15.03125 -15.03125 L 11.875 -5.453125 L 15.5 0 Z M 11.453125 0 "/></g></g></g><g fill="#112c59" fill-opacity="1"><g transform="translate(249.979084, 134.454392)"><g/></g></g><g clip-path="url(#369530c906)"><g clip-path="url(#4c1bd0ade0)"><g transform="matrix(1, 0, 0, 1, 103, 26)"><g clip-path="url(#2236626f9a)"><g clip-path="url(#aabf615711)"><g clip-path="url(#86dccf7153)"><path fill="#ffffff" d="M 0.0820312 0.894531 L 67.882812 0.894531 L 67.882812 68.695312 L 0.0820312 68.695312 Z M 0.0820312 0.894531 " fill-opacity="1" fill-rule="nonzero"/></g></g></g></g></g></g><g clip-path="url(#09410a9e33)"><g clip-path="url(#4f458e4915)"><path stroke-linecap="butt" transform="matrix(0.74891, 0, 0, 0.74891, 103.080595, 26.893809)" fill="none" stroke-linejoin="miter" d="M 45.265627 0.000964062 C 20.265747 0.000964062 0.00191828 20.264793 0.00191828 45.264672 C 0.00191828 70.264552 20.265747 90.533597 45.265627 90.533597 C 70.265506 90.533597 90.529335 70.264552 90.529335 45.264672 C 90.529335 20.264793 70.265506 0.000964062 45.265627 0.000964062 Z M 45.265627 0.000964062 " stroke="#052554" stroke-width="16" stroke-opacity="1" stroke-miterlimit="4"/></g></g><g clip-path="url(#4159e4e26e)"><path fill="#052554" d="M 127.757812 26.074219 C 121.289062 27.617188 116.289062 30.484375 111.21875 35.554688 C 92.769531 54.003906 100.121094 84.875 125.035156 93.253906 C 128.933594 94.574219 130.992188 94.796875 137.457031 94.574219 C 144.589844 94.355469 145.617188 94.136719 150.910156 91.636719 C 158.40625 88.035156 163.476562 82.960938 167.300781 75.320312 C 170.019531 69.804688 170.167969 68.996094 170.386719 61.722656 C 170.609375 55.546875 170.386719 52.972656 169.210938 49.445312 C 165.390625 37.390625 154.730469 27.984375 142.308594 25.707031 C 136.722656 24.675781 132.976562 24.75 127.757812 26.074219 Z M 143.632812 43.859375 C 150.6875 48.785156 151.863281 59.738281 145.910156 65.324219 C 144.882812 66.277344 144.074219 67.601562 144.074219 68.335938 C 144.074219 69.070312 143.265625 70.613281 142.308594 71.71875 C 140.691406 73.554688 140.03125 73.773438 136.136719 73.773438 C 131.210938 73.773438 128.636719 72.230469 128.636719 69.363281 C 128.636719 68.484375 127.976562 67.160156 127.09375 66.351562 C 123.640625 63.191406 121.65625 57.238281 122.683594 52.828125 C 124.890625 42.832031 135.621094 38.273438 143.632812 43.859375 Z M 123.492188 63.707031 C 123.492188 64 124.375 65.175781 125.40625 66.277344 C 126.433594 67.453125 127.167969 68.484375 126.949219 68.703125 C 126.726562 68.996094 122.390625 67.308594 120.699219 66.351562 C 120.554688 66.203125 120.625 65.46875 120.921875 64.660156 C 121.363281 63.191406 123.492188 62.457031 123.492188 63.707031 Z M 152.011719 65.027344 C 152.160156 66.277344 151.570312 66.792969 149.070312 67.746094 C 144.589844 69.511719 144.441406 69.363281 147.085938 66.058594 C 149.660156 62.898438 151.644531 62.457031 152.011719 65.027344 Z M 130.84375 74.804688 C 130.84375 75.023438 128.785156 75.980469 126.285156 76.9375 C 122.757812 78.183594 121.582031 78.332031 121.140625 77.671875 C 120.039062 75.90625 120.921875 74.730469 124.226562 73.40625 C 127.167969 72.230469 127.683594 72.230469 129.152344 73.1875 C 130.109375 73.847656 130.84375 74.511719 130.84375 74.804688 Z M 148.777344 73.40625 C 151.203125 74.4375 152.160156 75.246094 152.160156 76.273438 C 152.160156 78.625 151.054688 78.699219 145.984375 76.640625 L 141.132812 74.730469 L 142.824219 73.335938 C 144.882812 71.644531 144.734375 71.644531 148.777344 73.40625 Z M 148.777344 73.40625 " fill-opacity="1" fill-rule="nonzero"/></g><path fill="#052554" d="M 127.683594 56.355469 C 125.257812 59 126.652344 61.648438 130.476562 61.648438 C 134.226562 61.648438 135.839844 58.632812 133.34375 56.207031 C 131.800781 54.664062 129.152344 54.738281 127.683594 56.355469 Z M 127.683594 56.355469 " fill-opacity="1" fill-rule="nonzero"/><path fill="#052554" d="M 139.8125 56.207031 C 137.898438 57.53125 137.753906 58.929688 139.371094 60.472656 C 140.691406 61.867188 144.148438 62.015625 145.398438 60.765625 C 146.71875 59.441406 146.425781 56.648438 144.882812 55.765625 C 142.898438 54.738281 141.722656 54.8125 139.8125 56.207031 Z M 139.8125 56.207031 " fill-opacity="1" fill-rule="nonzero"/><path fill="#052554" d="M 135.03125 64.515625 C 133.34375 67.453125 133.34375 67.527344 136.722656 67.527344 L 139.589844 67.527344 L 138.121094 64.953125 C 137.238281 63.558594 136.503906 62.382812 136.429688 62.382812 C 136.355469 62.382812 135.769531 63.339844 135.03125 64.515625 Z M 135.03125 64.515625 " fill-opacity="1" fill-rule="nonzero"/></svg>