<svg xmlns="http://www.w3.org/2000/svg" xmlns:xlink="http://www.w3.org/1999/xlink" width="372" zoomAndPan="magnify" viewBox="0 0 279 175.5" height="234" preserveAspectRatio="xMidYMid meet" version="1.0"><defs><g/><clipPath id="e5373b1969"><path d="M 2.074219 0 L 275.867188 0 L 275.867188 174.355469 L 2.074219 174.355469 Z M 2.074219 0 " clip-rule="nonzero"/></clipPath><clipPath id="22d27b0481"><path d="M 36.476562 0 L 240.855469 0 C 259.855469 0 275.257812 15.402344 275.257812 34.402344 L 275.257812 139.953125 C 275.257812 158.953125 259.855469 174.355469 240.855469 174.355469 L 36.476562 174.355469 C 17.476562 174.355469 2.074219 158.953125 2.074219 139.953125 L 2.074219 34.402344 C 2.074219 15.402344 17.476562 0 36.476562 0 Z M 36.476562 0 " clip-rule="nonzero"/></clipPath><clipPath id="9b326f45ec"><path d="M 0.0742188 0 L 273.371094 0 L 273.371094 174.355469 L 0.0742188 174.355469 Z M 0.0742188 0 " clip-rule="nonzero"/></clipPath><clipPath id="c83c2083d3"><path d="M 34.476562 0 L 238.855469 0 C 257.855469 0 273.257812 15.402344 273.257812 34.402344 L 273.257812 139.953125 C 273.257812 158.953125 257.855469 174.355469 238.855469 174.355469 L 34.476562 174.355469 C 15.476562 174.355469 0.0742188 158.953125 0.0742188 139.953125 L 0.0742188 34.402344 C 0.0742188 15.402344 15.476562 0 34.476562 0 Z M 34.476562 0 " clip-rule="nonzero"/></clipPath><clipPath id="8c1bba47c8"><rect x="0" width="274" y="0" height="175"/></clipPath><clipPath id="19301a954e"><path d="M 98.785156 23.109375 L 166.492188 23.109375 L 166.492188 90.816406 L 98.785156 90.816406 Z M 98.785156 23.109375 " clip-rule="nonzero"/></clipPath><clipPath id="ff0a887ed4"><path d="M 132.640625 23.109375 C 113.941406 23.109375 98.785156 38.265625 98.785156 56.964844 C 98.785156 75.660156 113.941406 90.816406 132.640625 90.816406 C 151.335938 90.816406 166.492188 75.660156 166.492188 56.964844 C 166.492188 38.265625 151.335938 23.109375 132.640625 23.109375 Z M 132.640625 23.109375 " clip-rule="nonzero"/></clipPath><clipPath id="a5776e5770"><path d="M 0.785156 0.109375 L 68.492188 0.109375 L 68.492188 67.816406 L 0.785156 67.816406 Z M 0.785156 0.109375 " clip-rule="nonzero"/></clipPath><clipPath id="5abe0424ca"><path d="M 34.640625 0.109375 C 15.941406 0.109375 0.785156 15.265625 0.785156 33.964844 C 0.785156 52.660156 15.941406 67.816406 34.640625 67.816406 C 53.335938 67.816406 68.492188 52.660156 68.492188 33.964844 C 68.492188 15.265625 53.335938 0.109375 34.640625 0.109375 Z M 34.640625 0.109375 " clip-rule="nonzero"/></clipPath><clipPath id="4550f8ddeb"><rect x="0" width="69" y="0" height="68"/></clipPath><clipPath id="ae9ac0697e"><path d="M 98.785156 23.109375 L 166.492188 23.109375 L 166.492188 90.816406 L 98.785156 90.816406 Z M 98.785156 23.109375 " clip-rule="nonzero"/></clipPath><clipPath id="2793199314"><path d="M 132.636719 23.109375 C 113.941406 23.109375 98.785156 38.265625 98.785156 56.960938 C 98.785156 75.660156 113.941406 90.816406 132.636719 90.816406 C 151.335938 90.816406 166.492188 75.660156 166.492188 56.960938 C 166.492188 38.265625 151.335938 23.109375 132.636719 23.109375 Z M 132.636719 23.109375 " clip-rule="nonzero"/></clipPath><clipPath id="b46a3afc3b"><path d="M 101 27 L 164.527344 27 L 164.527344 90 L 101 90 Z M 101 27 " clip-rule="nonzero"/></clipPath></defs><g clip-path="url(#e5373b1969)"><g clip-path="url(#22d27b0481)"><g transform="matrix(1, 0, 0, 1, 2, 0)"><g clip-path="url(#8c1bba47c8)"><g clip-path="url(#9b326f45ec)"><g clip-path="url(#c83c2083d3)"><path fill="#f2f1c1" d="M 0.0742188 0 L 273.1875 0 L 273.1875 174.355469 L 0.0742188 174.355469 Z M 0.0742188 0 " fill-opacity="1" fill-rule="nonzero"/></g></g></g></g></g></g><g fill="#112c59" fill-opacity="1"><g transform="translate(39.030917, 131.411405)"><g><path d="M 1.609375 -11.953125 L 1.296875 -15.03125 L 5.078125 -15.03125 L 5.390625 -11.953125 L 5.390625 5.265625 L 1.609375 5.265625 Z M 1.609375 -11.953125 "/></g></g></g><g fill="#112c59" fill-opacity="1"><g transform="translate(45.846665, 131.411405)"><g><path d="M 1.609375 -11.953125 L 1.296875 -15.03125 L 5.078125 -15.03125 L 5.390625 -11.953125 L 5.390625 -7.84375 L 5.375 -6.1875 L 1.609375 -5.53125 Z M 1.609375 -11.953125 "/></g></g></g><g fill="#112c59" fill-opacity="1"><g transform="translate(52.662414, 131.411405)"><g><path d="M 1.609375 -11.953125 L 1.296875 -15.03125 L 5.078125 -15.03125 L 5.390625 -11.953125 L 5.390625 0 L 1.609375 0 Z M 1.609375 -11.953125 "/></g></g></g><g fill="#112c59" fill-opacity="1"><g transform="translate(59.478162, 131.411405)"><g><path d="M 14.0625 -15.03125 C 14.039062 -11.539062 13.898438 -8.90625 13.640625 -7.125 C 13.390625 -5.34375 12.71875 -3.84375 11.625 -2.625 C 10.539062 -1.40625 8.789062 -0.554688 6.375 -0.078125 L 0.734375 1.03125 L 0.203125 -1.953125 L 4.390625 -2.734375 L 1.375 -15.03125 L 5.15625 -15.03125 L 7.8125 -3.578125 C 8.601562 -3.960938 9.175781 -4.550781 9.53125 -5.34375 C 9.882812 -6.132812 10.097656 -7.09375 10.171875 -8.21875 C 10.253906 -9.34375 10.296875 -11.046875 10.296875 -13.328125 L 10.296875 -15.03125 Z M 14.0625 -15.03125 "/></g></g></g><g fill="#112c59" fill-opacity="1"><g transform="translate(74.63597, 131.411405)"><g/></g></g><g fill="#112c59" fill-opacity="1"><g transform="translate(79.899093, 131.411405)"><g><path d="M 14.671875 -8.6875 C 14.773438 -5.59375 13.804688 -3.359375 11.765625 -1.984375 C 9.734375 -0.609375 6.769531 0.140625 2.875 0.265625 L 1.421875 -12.1875 L 1.046875 -15.03125 L 9.140625 -15.03125 C 10.859375 -15.03125 12.191406 -14.539062 13.140625 -13.5625 C 14.085938 -12.59375 14.585938 -11.257812 14.640625 -9.5625 Z M 6.1875 -3.109375 C 7.4375 -3.191406 8.40625 -3.445312 9.09375 -3.875 C 9.789062 -4.3125 10.273438 -4.921875 10.546875 -5.703125 C 10.816406 -6.484375 10.9375 -7.503906 10.90625 -8.765625 L 10.90625 -9.5625 C 10.90625 -10.363281 10.71875 -11 10.34375 -11.46875 C 9.976562 -11.945312 9.476562 -12.1875 8.84375 -12.1875 L 5.21875 -12.1875 Z M 6.1875 -3.109375 "/></g></g></g><g fill="#112c59" fill-opacity="1"><g transform="translate(95.82005, 131.411405)"><g><path d="M 1.609375 -11.953125 L 1.296875 -15.03125 L 5.078125 -15.03125 L 5.390625 -11.953125 L 5.390625 -7.84375 L 5.375 -6.1875 L 1.609375 -5.53125 Z M 1.609375 -11.953125 "/></g></g></g><g fill="#112c59" fill-opacity="1"><g transform="translate(102.635798, 131.411405)"><g><path d="M 1.609375 -11.953125 L 1.296875 -15.03125 L 5.078125 -15.03125 L 5.390625 -11.953125 L 5.390625 -7.84375 L 5.375 -6.1875 L 1.609375 -5.53125 Z M 1.609375 -11.953125 "/></g></g></g><g fill="#112c59" fill-opacity="1"><g transform="translate(109.451547, 131.411405)"><g><path d="M 1.046875 -15.03125 L 4.875 -15.03125 L 6.15625 -3.109375 C 7.988281 -3.285156 9.289062 -3.820312 10.0625 -4.71875 C 10.832031 -5.625 11.195312 -6.910156 11.15625 -8.578125 L 11.15625 -9.40625 C 11.15625 -10.1875 10.941406 -10.851562 10.515625 -11.40625 C 10.085938 -11.96875 9.441406 -12.273438 8.578125 -12.328125 L 7.296875 -12.40625 L 7.578125 -15.328125 L 9.1875 -15.25 C 10.820312 -15.15625 12.160156 -14.644531 13.203125 -13.71875 C 14.242188 -12.800781 14.789062 -11.492188 14.84375 -9.796875 L 14.875 -9.0625 C 14.976562 -5.96875 13.976562 -3.675781 11.875 -2.1875 C 9.78125 -0.707031 6.757812 0.109375 2.8125 0.265625 Z M 1.046875 -15.03125 "/></g></g></g><g fill="#112c59" fill-opacity="1"><g transform="translate(125.004092, 131.411405)"><g/></g></g><g fill="#112c59" fill-opacity="1"><g transform="translate(130.267215, 131.411405)"><g><path d="M 1.609375 -11.953125 L 1.296875 -15.03125 L 5.078125 -15.03125 L 5.390625 -11.953125 L 5.390625 -7.84375 L 5.375 -6.1875 L 1.609375 -5.53125 Z M 1.609375 -11.953125 "/></g></g></g><g fill="#112c59" fill-opacity="1"><g transform="translate(137.082964, 131.411405)"><g><path d="M 12.265625 -15.03125 L 12.265625 -11.90625 L 7.53125 0 L 3.734375 0 L 8.453125 -12.1875 L 0.8125 -12.1875 L 0.8125 -18.875 L 4.234375 -18.875 L 4.234375 -15.03125 Z M 12.265625 -15.03125 "/></g></g></g><g fill="#112c59" fill-opacity="1"><g transform="translate(150.188147, 131.411405)"><g><path d="M 0.765625 -2.84375 L 4.96875 -2.84375 C 5.988281 -2.84375 6.738281 -3.175781 7.21875 -3.84375 C 7.707031 -4.507812 7.953125 -5.40625 7.953125 -6.53125 L 7.953125 -8.5 C 7.953125 -9.625 7.707031 -10.519531 7.21875 -11.1875 C 6.738281 -11.851562 5.988281 -12.1875 4.96875 -12.1875 L 0.765625 -12.1875 L 0.765625 -15.03125 L 6 -15.03125 C 7.875 -15.03125 9.300781 -14.425781 10.28125 -13.21875 C 11.269531 -12.019531 11.765625 -10.378906 11.765625 -8.296875 L 11.765625 -6.734375 C 11.765625 -4.648438 11.269531 -3.003906 10.28125 -1.796875 C 9.300781 -0.597656 7.875 0 6 0 L 0.765625 0 Z M 0.765625 -2.84375 "/></g></g></g><g fill="#112c59" fill-opacity="1"><g transform="translate(162.951234, 131.411405)"><g/></g></g><g fill="#112c59" fill-opacity="1"><g transform="translate(168.214358, 131.411405)"><g><path d="M 0.46875 -2.125 C 1.132812 -2.195312 1.632812 -2.328125 1.96875 -2.515625 C 2.300781 -2.710938 2.53125 -2.984375 2.65625 -3.328125 C 2.78125 -3.671875 2.832031 -4.160156 2.8125 -4.796875 L 2.8125 -15.03125 L 10.796875 -15.03125 C 12.203125 -15.03125 13.304688 -14.628906 14.109375 -13.828125 C 14.921875 -13.035156 15.328125 -11.785156 15.328125 -10.078125 L 15.328125 0 L 11.53125 0 L 11.53125 -10.265625 C 11.53125 -11.546875 10.929688 -12.1875 9.734375 -12.1875 L 6.640625 -12.1875 L 6.640625 -5.296875 C 6.640625 -3.960938 6.429688 -2.898438 6.015625 -2.109375 C 5.597656 -1.316406 4.972656 -0.722656 4.140625 -0.328125 C 3.304688 0.0664062 2.191406 0.328125 0.796875 0.453125 Z M 0.46875 -2.125 "/></g></g></g><g fill="#112c59" fill-opacity="1"><g transform="translate(184.92479, 131.411405)"><g><path d="M 7.640625 -10.265625 C 7.640625 -11.546875 7.050781 -12.1875 5.875 -12.1875 L 0.734375 -12.1875 L 0.734375 -15.03125 L 6.890625 -15.03125 C 8.296875 -15.03125 9.40625 -14.628906 10.21875 -13.828125 C 11.039062 -13.035156 11.453125 -11.785156 11.453125 -10.078125 L 11.453125 0 L 7.640625 0 Z M 7.640625 -10.265625 "/></g></g></g><g fill="#112c59" fill-opacity="1"><g transform="translate(197.766823, 131.411405)"><g><path d="M 1.609375 -11.953125 L 1.296875 -15.03125 L 5.078125 -15.03125 L 5.390625 -11.953125 L 5.390625 -7.84375 L 5.375 -6.1875 L 1.609375 -5.53125 Z M 1.609375 -11.953125 "/></g></g></g><g fill="#112c59" fill-opacity="1"><g transform="translate(204.582572, 131.411405)"><g><path d="M 6.921875 -9.109375 C 6.921875 -9.773438 6.984375 -10.375 7.109375 -10.90625 C 7.242188 -11.445312 7.425781 -11.875 7.65625 -12.1875 L 0.921875 -12.1875 L 0.921875 -15.03125 L 13.265625 -15.03125 L 13.265625 -12.1875 L 11.21875 -12.1875 C 10.882812 -11.4375 10.71875 -10.410156 10.71875 -9.109375 L 10.71875 0 L 6.921875 0 Z M 6.921875 -9.109375 "/></g></g></g><g fill="#112c59" fill-opacity="1"><g transform="translate(218.845642, 131.411405)"><g><path d="M 9.765625 -15.03125 C 11.171875 -15.03125 12.28125 -14.609375 13.09375 -13.765625 C 13.914062 -12.921875 14.328125 -11.648438 14.328125 -9.953125 L 14.328125 0 L 10.5 0 L 10.5 -10.140625 C 10.5 -11.503906 9.910156 -12.1875 8.734375 -12.1875 L 5.21875 -12.1875 L 5.21875 0 L 1.421875 0 L 1.421875 -15.03125 Z M 9.765625 -15.03125 "/></g></g></g><g fill="#112c59" fill-opacity="1"><g transform="translate(234.505251, 131.411405)"><g/></g></g><g clip-path="url(#19301a954e)"><g clip-path="url(#ff0a887ed4)"><g transform="matrix(1, 0, 0, 1, 98, 23)"><g clip-path="url(#4550f8ddeb)"><g clip-path="url(#a5776e5770)"><g clip-path="url(#5abe0424ca)"><path fill="#ffffff" d="M 0.785156 0.109375 L 68.492188 0.109375 L 68.492188 67.816406 L 0.785156 67.816406 Z M 0.785156 0.109375 " fill-opacity="1" fill-rule="nonzero"/></g></g></g></g></g></g><g clip-path="url(#ae9ac0697e)"><g clip-path="url(#2793199314)"><path stroke-linecap="butt" transform="matrix(0.747869, 0, 0, 0.747869, 98.78577, 23.110094)" fill="none" stroke-linejoin="miter" d="M 45.263189 -0.000961422 C 20.265087 -0.000961422 -0.00082085 20.264946 -0.00082085 45.263048 C -0.00082085 70.266373 20.265087 90.532281 45.263189 90.532281 C 70.266514 90.532281 90.532421 70.266373 90.532421 45.263048 C 90.532421 20.264946 70.266514 -0.000961422 45.263189 -0.000961422 Z M 45.263189 -0.000961422 " stroke="#052554" stroke-width="16" stroke-opacity="1" stroke-miterlimit="4"/></g></g><g clip-path="url(#b46a3afc3b)"><path fill="#052554" d="M 123.648438 28.617188 C 108.976562 32.753906 99.019531 48.140625 101.476562 63.007812 C 103.480469 75.03125 112.464844 85.054688 123.910156 88.089844 C 141.75 92.683594 159.722656 81.886719 163.410156 64.367188 C 166.445312 50.144531 159.335938 36.503906 145.566406 30.039062 C 141.878906 28.226562 140.652344 28.035156 134.253906 27.839844 C 129.339844 27.710938 126.042969 27.96875 123.648438 28.617188 Z M 141.039062 45.425781 C 141.039062 45.617188 139.941406 47.492188 138.648438 49.625 C 136.449219 53.117188 135.933594 53.503906 133.476562 53.894531 C 131.988281 54.085938 130.4375 54.152344 130.050781 54.023438 C 128.886719 53.632812 138.132812 45.101562 139.683594 45.101562 C 140.457031 45.101562 141.039062 45.230469 141.039062 45.425781 Z M 151.253906 51.179688 C 151.707031 57.835938 150.542969 58.871094 141.363281 60.292969 C 137.871094 60.808594 134.898438 61.328125 134.769531 61.523438 C 134.640625 61.652344 136.257812 64.042969 138.390625 66.824219 C 141.363281 70.636719 142.074219 71.996094 141.300781 72.125 C 139.230469 72.578125 137.097656 71.476562 131.019531 66.691406 L 124.75 61.714844 L 118.414062 62.167969 C 112.789062 62.554688 111.949219 62.492188 111.429688 61.523438 C 110.65625 60.164062 111.496094 57.835938 113.5 55.507812 C 115.632812 53.117188 117.574219 52.664062 120.804688 53.894531 C 123.199219 54.796875 125.007812 54.925781 132.894531 54.539062 C 143.496094 54.023438 145.5 53.632812 146.46875 51.824219 C 148.410156 48.269531 148.992188 47.621094 149.960938 47.816406 C 150.800781 47.945312 151.125 48.851562 151.253906 51.179688 Z M 151.253906 51.179688 " fill-opacity="1" fill-rule="nonzero"/></g></svg>