<svg xmlns="http://www.w3.org/2000/svg" xmlns:xlink="http://www.w3.org/1999/xlink" width="366" zoomAndPan="magnify" viewBox="0 0 274.5 175.5" height="234" preserveAspectRatio="xMidYMid meet" version="1.0"><defs><g/><clipPath id="e81fe730e3"><path d="M 0.140625 0 L 273.859375 0 L 273.859375 174.355469 L 0.140625 174.355469 Z M 0.140625 0 " clip-rule="nonzero"/></clipPath><clipPath id="1872e04a43"><path d="M 34.542969 0 L 238.917969 0 C 257.917969 0 273.320312 15.402344 273.320312 34.402344 L 273.320312 139.953125 C 273.320312 158.953125 257.917969 174.355469 238.917969 174.355469 L 34.542969 174.355469 C 15.542969 174.355469 0.140625 158.953125 0.140625 139.953125 L 0.140625 34.402344 C 0.140625 15.402344 15.542969 0 34.542969 0 Z M 34.542969 0 " clip-rule="nonzero"/></clipPath><clipPath id="7891c5434a"><path d="M 0.140625 0 L 273.441406 0 L 273.441406 174.355469 L 0.140625 174.355469 Z M 0.140625 0 " clip-rule="nonzero"/></clipPath><clipPath id="0d685cc548"><path d="M 34.542969 0 L 238.917969 0 C 257.917969 0 273.320312 15.402344 273.320312 34.402344 L 273.320312 139.953125 C 273.320312 158.953125 257.917969 174.355469 238.917969 174.355469 L 34.542969 174.355469 C 15.542969 174.355469 0.140625 158.953125 0.140625 139.953125 L 0.140625 34.402344 C 0.140625 15.402344 15.542969 0 34.542969 0 Z M 34.542969 0 " clip-rule="nonzero"/></clipPath><clipPath id="6651b1a574"><rect x="0" width="274" y="0" height="175"/></clipPath><clipPath id="ca05e446bc"><path d="M 102.878906 22.390625 L 170.585938 22.390625 L 170.585938 90.097656 L 102.878906 90.097656 Z M 102.878906 22.390625 " clip-rule="nonzero"/></clipPath><clipPath id="fc06dde817"><path d="M 136.730469 22.390625 C 118.035156 22.390625 102.878906 37.546875 102.878906 56.242188 C 102.878906 74.941406 118.035156 90.097656 136.730469 90.097656 C 155.429688 90.097656 170.585938 74.941406 170.585938 56.242188 C 170.585938 37.546875 155.429688 22.390625 136.730469 22.390625 Z M 136.730469 22.390625 " clip-rule="nonzero"/></clipPath><clipPath id="cb56380698"><path d="M 0.878906 0.390625 L 68.585938 0.390625 L 68.585938 68.097656 L 0.878906 68.097656 Z M 0.878906 0.390625 " clip-rule="nonzero"/></clipPath><clipPath id="f491e3f464"><path d="M 34.730469 0.390625 C 16.035156 0.390625 0.878906 15.546875 0.878906 34.242188 C 0.878906 52.941406 16.035156 68.097656 34.730469 68.097656 C 53.429688 68.097656 68.585938 52.941406 68.585938 34.242188 C 68.585938 15.546875 53.429688 0.390625 34.730469 0.390625 Z M 34.730469 0.390625 " clip-rule="nonzero"/></clipPath><clipPath id="c0be10febc"><rect x="0" width="69" y="0" height="69"/></clipPath><clipPath id="21f076e8c6"><path d="M 102.878906 22.390625 L 170.582031 22.390625 L 170.582031 90.097656 L 102.878906 90.097656 Z M 102.878906 22.390625 " clip-rule="nonzero"/></clipPath><clipPath id="3e811a6355"><path d="M 136.730469 22.390625 C 118.035156 22.390625 102.878906 37.546875 102.878906 56.242188 C 102.878906 74.941406 118.035156 90.097656 136.730469 90.097656 C 155.425781 90.097656 170.582031 74.941406 170.582031 56.242188 C 170.582031 37.546875 155.425781 22.390625 136.730469 22.390625 Z M 136.730469 22.390625 " clip-rule="nonzero"/></clipPath><clipPath id="5260901ced"><path d="M 104 24 L 169 24 L 169 88.84375 L 104 88.84375 Z M 104 24 " clip-rule="nonzero"/></clipPath></defs><g clip-path="url(#e81fe730e3)"><g clip-path="url(#1872e04a43)"><g transform="matrix(1, 0, 0, 1, 0, 0)"><g clip-path="url(#6651b1a574)"><g clip-path="url(#7891c5434a)"><g clip-path="url(#0d685cc548)"><path fill="#f2f1c1" d="M 0.140625 0 L 273.253906 0 L 273.253906 174.355469 L 0.140625 174.355469 Z M 0.140625 0 " fill-opacity="1" fill-rule="nonzero"/></g></g></g></g></g></g><g fill="#112c59" fill-opacity="1"><g transform="translate(57.14192, 130.691838)"><g><path d="M 9.71875 -15.03125 C 11.125 -15.03125 12.234375 -14.628906 13.046875 -13.828125 C 13.859375 -13.035156 14.265625 -11.785156 14.265625 -10.078125 L 14.265625 0 L 1.390625 0 L 1.390625 -15.03125 Z M 10.453125 -2.84375 L 10.453125 -10.265625 C 10.453125 -11.546875 9.863281 -12.1875 8.6875 -12.1875 L 5.1875 -12.1875 L 5.1875 -2.84375 Z M 10.453125 -2.84375 "/></g></g></g><g fill="#112c59" fill-opacity="1"><g transform="translate(72.720781, 130.691838)"><g><path d="M 1.609375 -11.953125 L 1.296875 -15.03125 L 5.078125 -15.03125 L 5.390625 -11.953125 L 5.390625 -7.84375 L 5.375 -6.1875 L 1.609375 -5.53125 Z M 1.609375 -11.953125 "/></g></g></g><g fill="#112c59" fill-opacity="1"><g transform="translate(79.53653, 130.691838)"><g><path d="M 12.265625 -15.03125 L 12.265625 -11.90625 L 7.53125 0 L 3.734375 0 L 8.453125 -12.1875 L 0.8125 -12.1875 L 0.8125 -18.875 L 4.234375 -18.875 L 4.234375 -15.03125 Z M 12.265625 -15.03125 "/></g></g></g><g fill="#112c59" fill-opacity="1"><g transform="translate(92.641713, 130.691838)"><g><path d="M 13.5 -2.84375 L 13.5 0 L 1 0 L 1 -2.84375 L 7.953125 -2.84375 L 7.953125 -10.265625 C 7.953125 -11.546875 7.351562 -12.1875 6.15625 -12.1875 L 1 -12.1875 L 1 -15.03125 L 7.21875 -15.03125 C 8.613281 -15.03125 9.71875 -14.628906 10.53125 -13.828125 C 11.34375 -13.035156 11.75 -11.785156 11.75 -10.078125 L 11.75 -2.84375 Z M 13.5 -2.84375 "/></g></g></g><g fill="#112c59" fill-opacity="1"><g transform="translate(106.931099, 130.691838)"><g><path d="M 9.765625 -15.03125 C 11.171875 -15.03125 12.28125 -14.609375 13.09375 -13.765625 C 13.914062 -12.921875 14.328125 -11.648438 14.328125 -9.953125 L 14.328125 0 L 10.5 0 L 10.5 -10.140625 C 10.5 -11.503906 9.910156 -12.1875 8.734375 -12.1875 L 5.21875 -12.1875 L 5.21875 0 L 1.421875 0 L 1.421875 -15.03125 Z M 9.765625 -15.03125 "/></g></g></g><g fill="#112c59" fill-opacity="1"><g transform="translate(122.588905, 130.691838)"><g><path d="M 15.875 -7.5 C 15.875 -5.0625 15.304688 -3.144531 14.171875 -1.75 C 13.046875 -0.351562 11.457031 0.34375 9.40625 0.34375 C 8.664062 0.34375 7.859375 0.238281 6.984375 0.03125 L 7.3125 -2.8125 C 7.96875 -2.675781 8.515625 -2.609375 8.953125 -2.609375 C 10.140625 -2.609375 10.988281 -3.003906 11.5 -3.796875 C 12.007812 -4.597656 12.265625 -5.78125 12.265625 -7.34375 C 12.265625 -9.082031 12.023438 -10.34375 11.546875 -11.125 C 11.066406 -11.90625 10.320312 -12.296875 9.3125 -12.296875 C 8.613281 -12.296875 8.019531 -12.082031 7.53125 -11.65625 C 7.050781 -11.238281 6.753906 -10.671875 6.640625 -9.953125 L 5 0 L 1.21875 0 L 3.03125 -10.140625 L 0.921875 -15.03125 L 4.875 -15.03125 L 5.921875 -12.03125 C 6.296875 -13.125 6.847656 -13.9375 7.578125 -14.46875 C 8.316406 -15 9.160156 -15.265625 10.109375 -15.265625 C 11.984375 -15.265625 13.410156 -14.617188 14.390625 -13.328125 C 15.378906 -12.046875 15.875 -10.101562 15.875 -7.5 Z M 15.875 -7.5 "/></g></g></g><g fill="#112c59" fill-opacity="1"><g transform="translate(139.483543, 130.691838)"><g/></g></g><g fill="#112c59" fill-opacity="1"><g transform="translate(144.746666, 130.691838)"><g><path d="M 0.46875 -2.125 C 1.132812 -2.195312 1.632812 -2.328125 1.96875 -2.515625 C 2.300781 -2.710938 2.53125 -2.984375 2.65625 -3.328125 C 2.78125 -3.671875 2.832031 -4.160156 2.8125 -4.796875 L 2.8125 -15.03125 L 10.796875 -15.03125 C 12.203125 -15.03125 13.304688 -14.628906 14.109375 -13.828125 C 14.921875 -13.035156 15.328125 -11.785156 15.328125 -10.078125 L 15.328125 0 L 11.53125 0 L 11.53125 -10.265625 C 11.53125 -11.546875 10.929688 -12.1875 9.734375 -12.1875 L 6.640625 -12.1875 L 6.640625 -5.296875 C 6.640625 -3.960938 6.429688 -2.898438 6.015625 -2.109375 C 5.597656 -1.316406 4.972656 -0.722656 4.140625 -0.328125 C 3.304688 0.0664062 2.191406 0.328125 0.796875 0.453125 Z M 0.46875 -2.125 "/></g></g></g><g fill="#112c59" fill-opacity="1"><g transform="translate(161.457099, 130.691838)"><g><path d="M 7.640625 -10.265625 C 7.640625 -11.546875 7.050781 -12.1875 5.875 -12.1875 L 0.734375 -12.1875 L 0.734375 -15.03125 L 6.890625 -15.03125 C 8.296875 -15.03125 9.40625 -14.628906 10.21875 -13.828125 C 11.039062 -13.035156 11.453125 -11.785156 11.453125 -10.078125 L 11.453125 0 L 7.640625 0 Z M 7.640625 -10.265625 "/></g></g></g><g fill="#112c59" fill-opacity="1"><g transform="translate(174.299132, 130.691838)"><g><path d="M 1.609375 -11.953125 L 1.296875 -15.03125 L 5.078125 -15.03125 L 5.390625 -11.953125 L 5.390625 -7.84375 L 5.375 -6.1875 L 1.609375 -5.53125 Z M 1.609375 -11.953125 "/></g></g></g><g fill="#112c59" fill-opacity="1"><g transform="translate(181.11488, 130.691838)"><g><path d="M 6.921875 -9.109375 C 6.921875 -9.773438 6.984375 -10.375 7.109375 -10.90625 C 7.242188 -11.445312 7.425781 -11.875 7.65625 -12.1875 L 0.921875 -12.1875 L 0.921875 -15.03125 L 13.265625 -15.03125 L 13.265625 -12.1875 L 11.21875 -12.1875 C 10.882812 -11.4375 10.71875 -10.410156 10.71875 -9.109375 L 10.71875 0 L 6.921875 0 Z M 6.921875 -9.109375 "/></g></g></g><g fill="#112c59" fill-opacity="1"><g transform="translate(195.377951, 130.691838)"><g><path d="M 9.765625 -15.03125 C 11.171875 -15.03125 12.28125 -14.609375 13.09375 -13.765625 C 13.914062 -12.921875 14.328125 -11.648438 14.328125 -9.953125 L 14.328125 0 L 10.5 0 L 10.5 -10.140625 C 10.5 -11.503906 9.910156 -12.1875 8.734375 -12.1875 L 5.21875 -12.1875 L 5.21875 0 L 1.421875 0 L 1.421875 -15.03125 Z M 9.765625 -15.03125 "/></g></g></g><g fill="#112c59" fill-opacity="1"><g transform="translate(211.0394, 130.691838)"><g/></g></g><g clip-path="url(#ca05e446bc)"><g clip-path="url(#fc06dde817)"><g transform="matrix(1, 0, 0, 1, 102, 22)"><g clip-path="url(#c0be10febc)"><g clip-path="url(#cb56380698)"><g clip-path="url(#f491e3f464)"><path fill="#ffffff" d="M 0.878906 0.390625 L 68.585938 0.390625 L 68.585938 68.097656 L 0.878906 68.097656 Z M 0.878906 0.390625 " fill-opacity="1" fill-rule="nonzero"/></g></g></g></g></g></g><g clip-path="url(#21f076e8c6)"><g clip-path="url(#3e811a6355)"><path stroke-linecap="butt" transform="matrix(0.747869, 0, 0, 0.747869, 102.877693, 22.390533)" fill="none" stroke-linejoin="miter" d="M 45.265632 0.000123388 C 20.26753 0.000123388 0.00162229 20.266031 0.00162229 45.264133 C 0.00162229 70.267458 20.26753 90.533366 45.265632 90.533366 C 70.263734 90.533366 90.529641 70.267458 90.529641 45.264133 C 90.529641 20.266031 70.263734 0.000123388 45.265632 0.000123388 Z M 45.265632 0.000123388 " stroke="#052554" stroke-width="16" stroke-opacity="1" stroke-miterlimit="4"/></g></g><g clip-path="url(#5260901ced)"><path fill="#052554" d="M 126.058594 25.921875 C 120.332031 28.011719 117.703125 29.832031 113.457031 34.414062 C 109.347656 38.792969 107.460938 42.296875 105.910156 48.226562 C 101.53125 65.277344 111.773438 82.863281 128.820312 87.378906 C 132.796875 88.457031 140.410156 88.589844 144.589844 87.582031 C 155.304688 85.15625 165.074219 75.722656 167.90625 65.140625 C 168.78125 61.972656 168.984375 59.144531 168.78125 54.496094 C 168.578125 48.902344 168.242188 47.554688 166.019531 42.972656 C 160.359375 30.976562 149.441406 24.238281 135.964844 24.371094 C 131.652344 24.371094 129.089844 24.777344 126.058594 25.921875 Z M 142.296875 39.332031 C 143.914062 40.949219 144.65625 42.433594 144.992188 44.722656 C 145.261719 46.476562 145.734375 47.890625 146.140625 47.890625 C 146.476562 47.890625 147.488281 48.632812 148.363281 49.574219 C 149.914062 51.125 150.046875 51.664062 150.046875 58.402344 C 150.046875 64.9375 149.914062 65.816406 148.566406 67.230469 C 147.148438 68.710938 146.746094 68.78125 136.503906 68.78125 L 125.855469 68.78125 L 124.507812 67.027344 C 123.296875 65.476562 123.09375 64.265625 123.09375 58.335938 C 123.09375 48.496094 123.296875 48.292969 133.472656 48.023438 L 141.289062 47.753906 L 141.289062 45.195312 C 141.289062 43.242188 140.882812 42.296875 139.804688 41.554688 C 136.839844 39.46875 133.605469 40.476562 131.449219 44.183594 C 130.574219 45.800781 128.484375 45.058594 128.484375 43.105469 C 128.484375 42.363281 129.496094 40.679688 130.777344 39.398438 C 132.796875 37.378906 133.472656 37.109375 136.570312 37.109375 C 139.671875 37.109375 140.34375 37.378906 142.296875 39.332031 Z M 142.296875 39.332031 " fill-opacity="1" fill-rule="nonzero"/></g><path fill="#052554" d="M 135.695312 55.101562 C 135.425781 55.304688 135.222656 56.988281 135.222656 58.808594 C 135.222656 61.570312 135.425781 62.042969 136.570312 62.042969 C 137.785156 62.042969 137.917969 61.570312 137.917969 58.335938 C 137.917969 55.707031 137.648438 54.628906 137.042969 54.628906 C 136.503906 54.628906 135.898438 54.832031 135.695312 55.101562 Z M 135.695312 55.101562 " fill-opacity="1" fill-rule="nonzero"/></svg>