<svg xmlns="http://www.w3.org/2000/svg" xmlns:xlink="http://www.w3.org/1999/xlink" width="366" zoomAndPan="magnify" viewBox="0 0 274.5 171.749995" height="229" preserveAspectRatio="xMidYMid meet" version="1.0"><defs><g/><clipPath id="039b1bb8b2"><path d="M 0 0.03125 L 273.839844 0.03125 L 273.839844 171.011719 L 0 171.011719 Z M 0 0.03125 " clip-rule="nonzero"/></clipPath><clipPath id="22c5d8cfcc"><path d="M 34.4375 0.03125 L 239.023438 0.03125 C 258.042969 0.03125 273.460938 15.449219 273.460938 34.46875 L 273.460938 136.578125 C 273.460938 155.59375 258.042969 171.011719 239.023438 171.011719 L 34.4375 171.011719 C 15.417969 171.011719 0 155.59375 0 136.578125 L 0 34.46875 C 0 15.449219 15.417969 0.03125 34.4375 0.03125 Z M 34.4375 0.03125 " clip-rule="nonzero"/></clipPath><clipPath id="201e4cfeab"><path d="M 0 0.03125 L 273.582031 0.03125 L 273.582031 171.011719 L 0 171.011719 Z M 0 0.03125 " clip-rule="nonzero"/></clipPath><clipPath id="14ff91bf23"><path d="M 34.4375 0.03125 L 239.023438 0.03125 C 258.042969 0.03125 273.460938 15.449219 273.460938 34.46875 L 273.460938 136.578125 C 273.460938 155.59375 258.042969 171.011719 239.023438 171.011719 L 34.4375 171.011719 C 15.417969 171.011719 0 155.59375 0 136.578125 L 0 34.46875 C 0 15.449219 15.417969 0.03125 34.4375 0.03125 Z M 34.4375 0.03125 " clip-rule="nonzero"/></clipPath><clipPath id="7776b6a37f"><rect x="0" width="274" y="0" height="172"/></clipPath><clipPath id="2b41f3ae96"><path d="M 105.835938 28.15625 L 173.613281 28.15625 L 173.613281 95.933594 L 105.835938 95.933594 Z M 105.835938 28.15625 " clip-rule="nonzero"/></clipPath><clipPath id="aefd1321cf"><path d="M 139.726562 28.15625 C 121.007812 28.15625 105.835938 43.328125 105.835938 62.042969 C 105.835938 80.757812 121.007812 95.933594 139.726562 95.933594 C 158.441406 95.933594 173.613281 80.757812 173.613281 62.042969 C 173.613281 43.328125 158.441406 28.15625 139.726562 28.15625 Z M 139.726562 28.15625 " clip-rule="nonzero"/></clipPath><clipPath id="a6091b69e1"><path d="M 0.835938 0.15625 L 68.613281 0.15625 L 68.613281 67.933594 L 0.835938 67.933594 Z M 0.835938 0.15625 " clip-rule="nonzero"/></clipPath><clipPath id="8b90bd56f2"><path d="M 34.726562 0.15625 C 16.007812 0.15625 0.835938 15.328125 0.835938 34.042969 C 0.835938 52.757812 16.007812 67.933594 34.726562 67.933594 C 53.441406 67.933594 68.613281 52.757812 68.613281 34.042969 C 68.613281 15.328125 53.441406 0.15625 34.726562 0.15625 Z M 34.726562 0.15625 " clip-rule="nonzero"/></clipPath><clipPath id="bd16376666"><rect x="0" width="69" y="0" height="68"/></clipPath><clipPath id="82a59c47a1"><path d="M 105.835938 28.15625 L 173.613281 28.15625 L 173.613281 95.929688 L 105.835938 95.929688 Z M 105.835938 28.15625 " clip-rule="nonzero"/></clipPath><clipPath id="59dbe3bfdc"><path d="M 139.722656 28.15625 C 121.007812 28.15625 105.835938 43.328125 105.835938 62.042969 C 105.835938 80.757812 121.007812 95.929688 139.722656 95.929688 C 158.441406 95.929688 173.613281 80.757812 173.613281 62.042969 C 173.613281 43.328125 158.441406 28.15625 139.722656 28.15625 Z M 139.722656 28.15625 " clip-rule="nonzero"/></clipPath></defs><g clip-path="url(#039b1bb8b2)"><g clip-path="url(#22c5d8cfcc)"><g transform="matrix(1, 0, 0, 1, 0, -0.000000000000006037)"><g clip-path="url(#7776b6a37f)"><g clip-path="url(#201e4cfeab)"><g clip-path="url(#14ff91bf23)"><path fill="#f2f1c1" d="M 0 0.03125 L 273.171875 0.03125 L 273.171875 171.011719 L 0 171.011719 Z M 0 0.03125 " fill-opacity="1" fill-rule="nonzero"/></g></g></g></g></g></g><g fill="#112c59" fill-opacity="1"><g transform="translate(112.115342, 137.145349)"><g><path d="M 1.609375 -11.9375 L 1.28125 -15.015625 L 5.078125 -15.015625 L 5.390625 -11.9375 L 5.390625 -7.84375 L 5.359375 -6.1875 L 1.609375 -5.515625 Z M 1.609375 -11.9375 "/></g></g></g><g fill="#112c59" fill-opacity="1"><g transform="translate(118.922922, 137.145349)"><g><path d="M 15.859375 -7.5 C 15.859375 -5.0625 15.289062 -3.144531 14.15625 -1.75 C 13.03125 -0.351562 11.441406 0.34375 9.390625 0.34375 C 8.648438 0.34375 7.84375 0.238281 6.96875 0.03125 L 7.3125 -2.8125 C 7.957031 -2.675781 8.5 -2.609375 8.9375 -2.609375 C 10.132812 -2.609375 10.984375 -3.003906 11.484375 -3.796875 C 11.992188 -4.597656 12.25 -5.78125 12.25 -7.34375 C 12.25 -9.070312 12.007812 -10.328125 11.53125 -11.109375 C 11.050781 -11.890625 10.3125 -12.28125 9.3125 -12.28125 C 8.601562 -12.28125 8.007812 -12.066406 7.53125 -11.640625 C 7.050781 -11.222656 6.75 -10.65625 6.625 -9.9375 L 5 0 L 1.203125 0 L 3.03125 -10.125 L 0.921875 -15.015625 L 4.859375 -15.015625 L 5.921875 -12.015625 C 6.285156 -13.097656 6.832031 -13.90625 7.5625 -14.4375 C 8.300781 -14.976562 9.144531 -15.25 10.09375 -15.25 C 11.96875 -15.25 13.394531 -14.601562 14.375 -13.3125 C 15.363281 -12.03125 15.859375 -10.09375 15.859375 -7.5 Z M 15.859375 -7.5 "/></g></g></g><g fill="#112c59" fill-opacity="1"><g transform="translate(135.797306, 137.145349)"><g><path d="M 1.03125 -2.84375 L 4.859375 -2.84375 L 4.859375 -10.4375 C 4.859375 -11.070312 4.738281 -11.519531 4.5 -11.78125 C 4.269531 -12.039062 3.910156 -12.207031 3.421875 -12.28125 L 1.578125 -12.546875 L 2.046875 -15.328125 L 5.34375 -14.90625 C 6.40625 -14.769531 7.222656 -14.316406 7.796875 -13.546875 C 8.367188 -12.773438 8.65625 -11.773438 8.65625 -10.546875 L 8.65625 0 L 1.03125 0 Z M 1.03125 -2.84375 "/></g></g></g><g fill="#112c59" fill-opacity="1"><g transform="translate(145.811539, 137.145349)"><g><path d="M 1.609375 -11.9375 L 1.28125 -15.015625 L 5.078125 -15.015625 L 5.390625 -11.9375 L 5.390625 0 L 1.609375 0 Z M 1.609375 -11.9375 "/></g></g></g><g fill="#112c59" fill-opacity="1"><g transform="translate(152.61912, 137.145349)"><g><path d="M 9.890625 -6.15625 L 13.359375 0 L 0.78125 0 L 0.78125 -2.84375 L 7.9375 -2.84375 L 1.078125 -15.015625 L 4.890625 -15.015625 L 7.859375 -9.734375 L 10.015625 -15.015625 L 13.75 -15.015625 Z M 9.890625 -6.15625 "/></g></g></g><g clip-path="url(#2b41f3ae96)"><g clip-path="url(#aefd1321cf)"><g transform="matrix(1, 0, 0, 1, 105, 28)"><g clip-path="url(#bd16376666)"><g clip-path="url(#a6091b69e1)"><g clip-path="url(#8b90bd56f2)"><path fill="#ffffff" d="M 0.835938 0.15625 L 68.613281 0.15625 L 68.613281 67.933594 L 0.835938 67.933594 Z M 0.835938 0.15625 " fill-opacity="1" fill-rule="nonzero"/></g></g></g></g></g></g><g clip-path="url(#82a59c47a1)"><g clip-path="url(#59dbe3bfdc)"><path stroke-linecap="butt" transform="matrix(0.748636, 0, 0, 0.748636, 105.836985, 28.155365)" fill="none" stroke-linejoin="miter" d="M 45.263194 0.00118152 C 20.264616 0.00118152 -0.00139866 20.267196 -0.00139866 45.265774 C -0.00139866 70.264352 20.264616 90.530367 45.263194 90.530367 C 70.26699 90.530367 90.533005 70.264352 90.533005 45.265774 C 90.533005 20.267196 70.26699 0.00118152 45.263194 0.00118152 Z M 45.263194 0.00118152 " stroke="#052554" stroke-width="16" stroke-opacity="1" stroke-miterlimit="4"/></g></g><path fill="#052554" d="M 132.804688 28.898438 C 123.183594 31.011719 115.515625 37.191406 110.902344 46.34375 C 108.085938 52.128906 108.007812 52.523438 108.007812 60.96875 C 108.007812 69.027344 108.164062 69.886719 110.511719 74.894531 C 120.210938 95.308594 146.101562 100.394531 162.453125 85.0625 C 169.882812 78.179688 172.933594 70.042969 172.386719 58.9375 C 172.074219 52.992188 171.683594 51.347656 169.179688 46.265625 C 164.5625 37.035156 156.898438 31.011719 147.042969 28.898438 C 140.550781 27.492188 139.21875 27.570312 132.804688 28.898438 Z M 145.164062 45.792969 C 149.621094 46.734375 154.785156 50.332031 157.445312 54.242188 C 160.027344 58.074219 159.792969 59.5625 156.898438 57.449219 C 155.644531 56.589844 152.75 55.414062 150.484375 54.945312 C 146.964844 54.242188 145.867188 54.320312 143.207031 55.496094 L 140.078125 56.902344 L 143.835938 57.449219 C 147.589844 57.917969 151.8125 60.578125 148.839844 60.578125 C 146.023438 60.578125 142.972656 62.847656 142.035156 65.664062 C 140 71.921875 144.304688 80.605469 151.578125 84.75 L 155.644531 87.097656 L 151.8125 88.894531 C 148.527344 90.382812 146.570312 90.695312 140.078125 90.695312 C 133.117188 90.695312 131.710938 90.460938 127.484375 88.503906 C 118.960938 84.59375 111.371094 74.972656 110.277344 66.679688 C 109.652344 62.300781 111.605469 58.230469 116.457031 53.773438 C 124.355469 46.5 134.839844 43.605469 145.164062 45.792969 Z M 145.164062 45.792969 " fill-opacity="1" fill-rule="nonzero"/></svg>