<svg xmlns="http://www.w3.org/2000/svg" xmlns:xlink="http://www.w3.org/1999/xlink" width="372" zoomAndPan="magnify" viewBox="0 0 279 175.5" height="234" preserveAspectRatio="xMidYMid meet" version="1.0"><defs><g/><clipPath id="4036d4b83c"><path d="M 1.449219 0 L 275 0 L 275 174.355469 L 1.449219 174.355469 Z M 1.449219 0 " clip-rule="nonzero"/></clipPath><clipPath id="630b4286fa"><path d="M 35.847656 0 L 240.226562 0 C 259.226562 0 274.628906 15.402344 274.628906 34.402344 L 274.628906 139.953125 C 274.628906 158.953125 259.226562 174.355469 240.226562 174.355469 L 35.847656 174.355469 C 16.851562 174.355469 1.449219 158.953125 1.449219 139.953125 L 1.449219 34.402344 C 1.449219 15.402344 16.851562 0 35.847656 0 Z M 35.847656 0 " clip-rule="nonzero"/></clipPath><clipPath id="4bdaa08eb4"><path d="M 0.449219 0 L 273.65625 0 L 273.65625 174.355469 L 0.449219 174.355469 Z M 0.449219 0 " clip-rule="nonzero"/></clipPath><clipPath id="b39b246894"><path d="M 34.847656 0 L 239.226562 0 C 258.226562 0 273.628906 15.402344 273.628906 34.402344 L 273.628906 139.953125 C 273.628906 158.953125 258.226562 174.355469 239.226562 174.355469 L 34.847656 174.355469 C 15.851562 174.355469 0.449219 158.953125 0.449219 139.953125 L 0.449219 34.402344 C 0.449219 15.402344 15.851562 0 34.847656 0 Z M 34.847656 0 " clip-rule="nonzero"/></clipPath><clipPath id="956f72916c"><rect x="0" width="274" y="0" height="175"/></clipPath><clipPath id="e46b8d074c"><path d="M 105.5625 23.109375 L 173.269531 23.109375 L 173.269531 90.816406 L 105.5625 90.816406 Z M 105.5625 23.109375 " clip-rule="nonzero"/></clipPath><clipPath id="2875b0e2f8"><path d="M 139.414062 23.109375 C 120.71875 23.109375 105.5625 38.265625 105.5625 56.964844 C 105.5625 75.660156 120.71875 90.816406 139.414062 90.816406 C 158.113281 90.816406 173.269531 75.660156 173.269531 56.964844 C 173.269531 38.265625 158.113281 23.109375 139.414062 23.109375 Z M 139.414062 23.109375 " clip-rule="nonzero"/></clipPath><clipPath id="55d9cb967f"><path d="M 0.5625 0.109375 L 68.269531 0.109375 L 68.269531 67.816406 L 0.5625 67.816406 Z M 0.5625 0.109375 " clip-rule="nonzero"/></clipPath><clipPath id="294b565f74"><path d="M 34.414062 0.109375 C 15.71875 0.109375 0.5625 15.265625 0.5625 33.964844 C 0.5625 52.660156 15.71875 67.816406 34.414062 67.816406 C 53.113281 67.816406 68.269531 52.660156 68.269531 33.964844 C 68.269531 15.265625 53.113281 0.109375 34.414062 0.109375 Z M 34.414062 0.109375 " clip-rule="nonzero"/></clipPath><clipPath id="f8ac6e2d61"><rect x="0" width="69" y="0" height="68"/></clipPath><clipPath id="c137a69ead"><path d="M 105.5625 23.109375 L 173.265625 23.109375 L 173.265625 90.816406 L 105.5625 90.816406 Z M 105.5625 23.109375 " clip-rule="nonzero"/></clipPath><clipPath id="1dadcf6154"><path d="M 139.414062 23.109375 C 120.71875 23.109375 105.5625 38.265625 105.5625 56.960938 C 105.5625 75.660156 120.71875 90.816406 139.414062 90.816406 C 158.109375 90.816406 173.265625 75.660156 173.265625 56.960938 C 173.265625 38.265625 158.109375 23.109375 139.414062 23.109375 Z M 139.414062 23.109375 " clip-rule="nonzero"/></clipPath><clipPath id="7e83842346"><path d="M 105.5625 24 L 170 24 L 170 88.726562 L 105.5625 88.726562 Z M 105.5625 24 " clip-rule="nonzero"/></clipPath></defs><g clip-path="url(#4036d4b83c)"><g clip-path="url(#630b4286fa)"><g transform="matrix(1, 0, 0, 1, 1, 0)"><g clip-path="url(#956f72916c)"><g clip-path="url(#4bdaa08eb4)"><g clip-path="url(#b39b246894)"><path fill="#f2f1c1" d="M 0.449219 0 L 273.558594 0 L 273.558594 174.355469 L 0.449219 174.355469 Z M 0.449219 0 " fill-opacity="1" fill-rule="nonzero"/></g></g></g></g></g></g><g fill="#112c59" fill-opacity="1"><g transform="translate(70.01028, 131.138025)"><g><path d="M 10.0625 -10.265625 C 10.0625 -11.546875 9.472656 -12.1875 8.296875 -12.1875 L 1.421875 -12.1875 L 1.421875 -15.03125 L 9.3125 -15.03125 C 10.71875 -15.03125 11.828125 -14.628906 12.640625 -13.828125 C 13.460938 -13.035156 13.875 -11.785156 13.875 -10.078125 L 13.875 0 L 10.0625 0 Z M 1.265625 -7.1875 L 1.796875 -8.953125 L 5.078125 -8.953125 L 5.078125 0 L 1.265625 0 Z M 1.265625 -7.1875 "/></g></g></g><g fill="#112c59" fill-opacity="1"><g transform="translate(85.089142, 131.138025)"><g><path d="M 15.875 -7.5 C 15.875 -5.0625 15.304688 -3.144531 14.171875 -1.75 C 13.046875 -0.351562 11.457031 0.34375 9.40625 0.34375 C 8.664062 0.34375 7.859375 0.238281 6.984375 0.03125 L 7.3125 -2.8125 C 7.96875 -2.675781 8.515625 -2.609375 8.953125 -2.609375 C 10.140625 -2.609375 10.988281 -3.003906 11.5 -3.796875 C 12.007812 -4.597656 12.265625 -5.78125 12.265625 -7.34375 C 12.265625 -9.082031 12.023438 -10.34375 11.546875 -11.125 C 11.066406 -11.90625 10.320312 -12.296875 9.3125 -12.296875 C 8.613281 -12.296875 8.019531 -12.082031 7.53125 -11.65625 C 7.050781 -11.238281 6.753906 -10.671875 6.640625 -9.953125 L 5 0 L 1.21875 0 L 3.03125 -10.140625 L 0.921875 -15.03125 L 4.875 -15.03125 L 5.921875 -12.03125 C 6.296875 -13.125 6.847656 -13.9375 7.578125 -14.46875 C 8.316406 -15 9.160156 -15.265625 10.109375 -15.265625 C 11.984375 -15.265625 13.410156 -14.617188 14.390625 -13.328125 C 15.378906 -12.046875 15.875 -10.101562 15.875 -7.5 Z M 15.875 -7.5 "/></g></g></g><g fill="#112c59" fill-opacity="1"><g transform="translate(101.983781, 131.138025)"><g><path d="M 6.921875 -9.109375 C 6.921875 -9.773438 6.984375 -10.375 7.109375 -10.90625 C 7.242188 -11.445312 7.425781 -11.875 7.65625 -12.1875 L 0.921875 -12.1875 L 0.921875 -15.03125 L 13.265625 -15.03125 L 13.265625 -12.1875 L 11.21875 -12.1875 C 10.882812 -11.4375 10.71875 -10.410156 10.71875 -9.109375 L 10.71875 0 L 6.921875 0 Z M 6.921875 -9.109375 "/></g></g></g><g fill="#112c59" fill-opacity="1"><g transform="translate(116.246852, 131.138025)"><g><path d="M 11.453125 0 L 6.5 -7.65625 L 4.15625 0 L 0.546875 0 L 3.46875 -9.03125 L 4.296875 -11.0625 L 1.84375 -15.03125 L 5.65625 -15.03125 L 7.765625 -11.609375 L 9.65625 -8.734375 L 10.375 -11.140625 L 11.421875 -15.03125 L 15.03125 -15.03125 L 11.875 -5.453125 L 15.5 0 Z M 11.453125 0 "/></g></g></g><g fill="#112c59" fill-opacity="1"><g transform="translate(132.483601, 131.138025)"><g/></g></g><g fill="#112c59" fill-opacity="1"><g transform="translate(137.746724, 131.138025)"><g><path d="M 0.46875 -2.125 C 1.132812 -2.195312 1.632812 -2.328125 1.96875 -2.515625 C 2.300781 -2.710938 2.53125 -2.984375 2.65625 -3.328125 C 2.78125 -3.671875 2.832031 -4.160156 2.8125 -4.796875 L 2.8125 -15.03125 L 10.796875 -15.03125 C 12.203125 -15.03125 13.304688 -14.628906 14.109375 -13.828125 C 14.921875 -13.035156 15.328125 -11.785156 15.328125 -10.078125 L 15.328125 0 L 11.53125 0 L 11.53125 -10.265625 C 11.53125 -11.546875 10.929688 -12.1875 9.734375 -12.1875 L 6.640625 -12.1875 L 6.640625 -5.296875 C 6.640625 -3.960938 6.429688 -2.898438 6.015625 -2.109375 C 5.597656 -1.316406 4.972656 -0.722656 4.140625 -0.328125 C 3.304688 0.0664062 2.191406 0.328125 0.796875 0.453125 Z M 0.46875 -2.125 "/></g></g></g><g fill="#112c59" fill-opacity="1"><g transform="translate(154.457157, 131.138025)"><g><path d="M 6.921875 -9.109375 C 6.921875 -9.773438 6.984375 -10.375 7.109375 -10.90625 C 7.242188 -11.445312 7.425781 -11.875 7.65625 -12.1875 L 0.921875 -12.1875 L 0.921875 -15.03125 L 13.265625 -15.03125 L 13.265625 -12.1875 L 11.21875 -12.1875 C 10.882812 -11.4375 10.71875 -10.410156 10.71875 -9.109375 L 10.71875 0 L 6.921875 0 Z M 6.921875 -9.109375 "/></g></g></g><g fill="#112c59" fill-opacity="1"><g transform="translate(168.720227, 131.138025)"><g><path d="M 1.609375 -11.953125 L 1.296875 -15.03125 L 5.078125 -15.03125 L 5.390625 -11.953125 L 5.390625 -7.84375 L 5.375 -6.1875 L 1.609375 -5.53125 Z M 1.609375 -11.953125 "/></g></g></g><g fill="#112c59" fill-opacity="1"><g transform="translate(175.535976, 131.138025)"><g><path d="M 14.0625 -15.03125 C 14.039062 -11.539062 13.898438 -8.90625 13.640625 -7.125 C 13.390625 -5.34375 12.71875 -3.84375 11.625 -2.625 C 10.539062 -1.40625 8.789062 -0.554688 6.375 -0.078125 L 0.734375 1.03125 L 0.203125 -1.953125 L 4.390625 -2.734375 L 1.375 -15.03125 L 5.15625 -15.03125 L 7.8125 -3.578125 C 8.601562 -3.960938 9.175781 -4.550781 9.53125 -5.34375 C 9.882812 -6.132812 10.097656 -7.09375 10.171875 -8.21875 C 10.253906 -9.34375 10.296875 -11.046875 10.296875 -13.328125 L 10.296875 -15.03125 Z M 14.0625 -15.03125 "/></g></g></g><g fill="#112c59" fill-opacity="1"><g transform="translate(190.693783, 131.138025)"><g><path d="M 7.640625 -10.265625 C 7.640625 -11.546875 7.050781 -12.1875 5.875 -12.1875 L 0.734375 -12.1875 L 0.734375 -15.03125 L 6.890625 -15.03125 C 8.296875 -15.03125 9.40625 -14.628906 10.21875 -13.828125 C 11.039062 -13.035156 11.453125 -11.785156 11.453125 -10.078125 L 11.453125 0 L 7.640625 0 Z M 7.640625 -10.265625 "/></g></g></g><g fill="#112c59" fill-opacity="1"><g transform="translate(203.540004, 131.138025)"><g/></g></g><g clip-path="url(#e46b8d074c)"><g clip-path="url(#2875b0e2f8)"><g transform="matrix(1, 0, 0, 1, 105, 23)"><g clip-path="url(#f8ac6e2d61)"><g clip-path="url(#55d9cb967f)"><g clip-path="url(#294b565f74)"><path fill="#ffffff" d="M 0.5625 0.109375 L 68.269531 0.109375 L 68.269531 67.816406 L 0.5625 67.816406 Z M 0.5625 0.109375 " fill-opacity="1" fill-rule="nonzero"/></g></g></g></g></g></g><g clip-path="url(#c137a69ead)"><g clip-path="url(#1dadcf6154)"><path stroke-linecap="butt" transform="matrix(0.747869, 0, 0, 0.747869, 105.561992, 23.110094)" fill="none" stroke-linejoin="miter" d="M 45.264688 -0.000961422 C 20.266587 -0.000961422 0.000678777 20.264946 0.000678777 45.263048 C 0.000678777 70.266373 20.266587 90.532281 45.264688 90.532281 C 70.26279 90.532281 90.528698 70.266373 90.528698 45.263048 C 90.528698 20.264946 70.26279 -0.000961422 45.264688 -0.000961422 Z M 45.264688 -0.000961422 " stroke="#052554" stroke-width="16" stroke-opacity="1" stroke-miterlimit="4"/></g></g><g clip-path="url(#7e83842346)"><path fill="#052554" d="M 127.46875 25.753906 C 115.941406 29.796875 107.988281 39.371094 106.101562 51.503906 C 102.867188 72.46875 121.472656 91.074219 142.433594 87.839844 C 154.839844 85.882812 164.34375 77.929688 168.253906 66.132812 C 169.46875 62.492188 169.667969 60.605469 169.46875 54.605469 C 169.265625 47.933594 169.0625 47.191406 166.636719 42.132812 C 163.128906 35.125 158.480469 30.472656 151.601562 27.167969 C 146.683594 24.808594 145.875 24.675781 138.929688 24.472656 C 132.796875 24.339844 130.839844 24.539062 127.46875 25.753906 Z M 140.546875 53.257812 L 137.714844 55.75 L 139.199219 62.019531 C 140.007812 65.457031 140.617188 68.355469 140.480469 68.492188 C 140.347656 68.625 138.324219 69.503906 135.898438 70.515625 C 133.46875 71.527344 131.449219 72.402344 131.378906 72.46875 C 131.3125 72.535156 131.785156 74.558594 132.527344 76.984375 C 133.269531 79.34375 133.875 81.367188 133.875 81.433594 C 133.875 81.570312 133.199219 81.636719 132.390625 81.636719 C 129.828125 81.636719 122.683594 77.863281 119.382812 74.828125 C 116.078125 71.726562 112.503906 66.402344 113.3125 65.59375 C 113.515625 65.324219 117.15625 64.179688 121.269531 63.03125 L 128.820312 61.007812 L 129.15625 55.617188 L 129.492188 50.292969 L 134.144531 49.347656 L 138.796875 48.335938 L 140.886719 43.953125 L 142.976562 39.503906 L 143.175781 45.101562 L 143.378906 50.761719 Z M 140.546875 53.257812 " fill-opacity="1" fill-rule="nonzero"/></g></svg>