<svg xmlns="http://www.w3.org/2000/svg" xmlns:xlink="http://www.w3.org/1999/xlink" width="366" zoomAndPan="magnify" viewBox="0 0 274.5 171.749995" height="229" preserveAspectRatio="xMidYMid meet" version="1.0"><defs><g/><clipPath id="338e071a2e"><path d="M 0 0.03125 L 273.839844 0.03125 L 273.839844 171.011719 L 0 171.011719 Z M 0 0.03125 " clip-rule="nonzero"/></clipPath><clipPath id="4d42bb80b7"><path d="M 34.4375 0.03125 L 239.023438 0.03125 C 258.042969 0.03125 273.460938 15.449219 273.460938 34.46875 L 273.460938 136.578125 C 273.460938 155.59375 258.042969 171.011719 239.023438 171.011719 L 34.4375 171.011719 C 15.417969 171.011719 0 155.59375 0 136.578125 L 0 34.46875 C 0 15.449219 15.417969 0.03125 34.4375 0.03125 Z M 34.4375 0.03125 " clip-rule="nonzero"/></clipPath><clipPath id="fe43985681"><path d="M 0 0.03125 L 273.582031 0.03125 L 273.582031 171.011719 L 0 171.011719 Z M 0 0.03125 " clip-rule="nonzero"/></clipPath><clipPath id="4027df1a11"><path d="M 34.4375 0.03125 L 239.023438 0.03125 C 258.042969 0.03125 273.460938 15.449219 273.460938 34.46875 L 273.460938 136.578125 C 273.460938 155.59375 258.042969 171.011719 239.023438 171.011719 L 34.4375 171.011719 C 15.417969 171.011719 0 155.59375 0 136.578125 L 0 34.46875 C 0 15.449219 15.417969 0.03125 34.4375 0.03125 Z M 34.4375 0.03125 " clip-rule="nonzero"/></clipPath><clipPath id="8d1164cd2c"><rect x="0" width="274" y="0" height="172"/></clipPath><clipPath id="1558edb86f"><path d="M 102.84375 23.835938 L 170.617188 23.835938 L 170.617188 91.613281 L 102.84375 91.613281 Z M 102.84375 23.835938 " clip-rule="nonzero"/></clipPath><clipPath id="9f60d7fc0d"><path d="M 136.730469 23.835938 C 118.015625 23.835938 102.84375 39.011719 102.84375 57.726562 C 102.84375 76.441406 118.015625 91.613281 136.730469 91.613281 C 155.445312 91.613281 170.617188 76.441406 170.617188 57.726562 C 170.617188 39.011719 155.445312 23.835938 136.730469 23.835938 Z M 136.730469 23.835938 " clip-rule="nonzero"/></clipPath><clipPath id="20c07b2a15"><path d="M 0.84375 0.835938 L 68.617188 0.835938 L 68.617188 68.613281 L 0.84375 68.613281 Z M 0.84375 0.835938 " clip-rule="nonzero"/></clipPath><clipPath id="c08d97f772"><path d="M 34.730469 0.835938 C 16.015625 0.835938 0.84375 16.011719 0.84375 34.726562 C 0.84375 53.441406 16.015625 68.613281 34.730469 68.613281 C 53.445312 68.613281 68.617188 53.441406 68.617188 34.726562 C 68.617188 16.011719 53.445312 0.835938 34.730469 0.835938 Z M 34.730469 0.835938 " clip-rule="nonzero"/></clipPath><clipPath id="9ee017f42f"><rect x="0" width="69" y="0" height="69"/></clipPath><clipPath id="1a02fa57a0"><path d="M 102.84375 23.835938 L 170.617188 23.835938 L 170.617188 91.613281 L 102.84375 91.613281 Z M 102.84375 23.835938 " clip-rule="nonzero"/></clipPath><clipPath id="53d6acc3dd"><path d="M 136.730469 23.835938 C 118.015625 23.835938 102.84375 39.007812 102.84375 57.726562 C 102.84375 76.441406 118.015625 91.613281 136.730469 91.613281 C 155.445312 91.613281 170.617188 76.441406 170.617188 57.726562 C 170.617188 39.007812 155.445312 23.835938 136.730469 23.835938 Z M 136.730469 23.835938 " clip-rule="nonzero"/></clipPath></defs><g clip-path="url(#338e071a2e)"><g clip-path="url(#4d42bb80b7)"><g transform="matrix(1, 0, 0, 1, 0, -0.000000000000006037)"><g clip-path="url(#8d1164cd2c)"><g clip-path="url(#fe43985681)"><g clip-path="url(#4027df1a11)"><path fill="#f2f1c1" d="M 0 0.03125 L 273.171875 0.03125 L 273.171875 171.011719 L 0 171.011719 Z M 0 0.03125 " fill-opacity="1" fill-rule="nonzero"/></g></g></g></g></g></g><g fill="#112c59" fill-opacity="1"><g transform="translate(50.122836, 135.902926)"><g><path d="M 7.921875 -15.03125 C 9.722656 -15.03125 11.085938 -14.429688 12.015625 -13.234375 C 12.953125 -12.046875 13.421875 -10.40625 13.421875 -8.3125 L 13.421875 5.265625 L 9.625 5.265625 L 9.625 -8.5 C 9.625 -9.625 9.40625 -10.519531 8.96875 -11.1875 C 8.53125 -11.851562 7.835938 -12.1875 6.890625 -12.1875 L 4.890625 -12.1875 L 4.578125 -10.421875 C 4.546875 -10.035156 4.53125 -9.753906 4.53125 -9.578125 C 4.53125 -9.046875 4.617188 -8.628906 4.796875 -8.328125 C 4.984375 -8.023438 5.3125 -7.84375 5.78125 -7.78125 L 5.109375 -5.5 C 2.347656 -5.570312 0.96875 -6.753906 0.96875 -9.046875 C 0.96875 -9.429688 1.03125 -9.953125 1.15625 -10.609375 L 2.125 -15.03125 Z M 7.921875 -15.03125 "/></g></g></g><g fill="#112c59" fill-opacity="1"><g transform="translate(64.960242, 135.902926)"><g><path d="M 6.921875 -9.109375 C 6.921875 -9.773438 6.984375 -10.375 7.109375 -10.90625 C 7.242188 -11.4375 7.425781 -11.863281 7.65625 -12.1875 L 0.921875 -12.1875 L 0.921875 -15.03125 L 13.265625 -15.03125 L 13.265625 -12.1875 L 11.203125 -12.1875 C 10.867188 -11.425781 10.703125 -10.398438 10.703125 -9.109375 L 10.703125 0 L 6.921875 0 Z M 6.921875 -9.109375 "/></g></g></g><g fill="#112c59" fill-opacity="1"><g transform="translate(79.218888, 135.902926)"><g><path d="M 10.046875 -10.265625 C 10.046875 -11.546875 9.457031 -12.1875 8.28125 -12.1875 L 1.421875 -12.1875 L 1.421875 -15.03125 L 9.3125 -15.03125 C 10.71875 -15.03125 11.828125 -14.628906 12.640625 -13.828125 C 13.453125 -13.023438 13.859375 -11.773438 13.859375 -10.078125 L 13.859375 0 L 10.046875 0 Z M 1.265625 -7.1875 L 1.796875 -8.953125 L 5.078125 -8.953125 L 5.078125 0 L 1.265625 0 Z M 1.265625 -7.1875 "/></g></g></g><g fill="#112c59" fill-opacity="1"><g transform="translate(94.293065, 135.902926)"><g><path d="M 1.609375 -11.953125 L 1.296875 -15.03125 L 5.078125 -15.03125 L 5.390625 -11.953125 L 5.390625 0 L 1.609375 0 Z M 1.609375 -11.953125 "/></g></g></g><g fill="#112c59" fill-opacity="1"><g transform="translate(101.1067, 135.902926)"><g/></g></g><g fill="#112c59" fill-opacity="1"><g transform="translate(106.368196, 135.902926)"><g><path d="M 8.234375 -3 L 10.84375 5.265625 L 7.203125 5.265625 L 0.875 -15.03125 L 4.46875 -15.03125 L 6.78125 -7.6875 L 9.875 -15.03125 L 13.46875 -15.03125 Z M 8.234375 -3 "/></g></g></g><g fill="#112c59" fill-opacity="1"><g transform="translate(120.390071, 135.902926)"><g><path d="M 1.609375 -11.953125 L 1.296875 -15.03125 L 5.078125 -15.03125 L 5.390625 -11.953125 L 5.390625 0 L 1.609375 0 Z M 1.609375 -11.953125 "/></g></g></g><g fill="#112c59" fill-opacity="1"><g transform="translate(127.203706, 135.902926)"><g><path d="M 9.890625 -6.15625 L 13.359375 0 L 0.796875 0 L 0.796875 -2.84375 L 7.953125 -2.84375 L 1.078125 -15.03125 L 4.890625 -15.03125 L 7.875 -9.734375 L 10.03125 -15.03125 L 13.765625 -15.03125 Z M 9.890625 -6.15625 "/></g></g></g><g fill="#112c59" fill-opacity="1"><g transform="translate(141.909585, 135.902926)"><g><path d="M 1.609375 -11.953125 L 1.296875 -15.03125 L 5.078125 -15.03125 L 5.390625 -11.953125 L 5.390625 -7.84375 L 5.375 -6.1875 L 1.609375 -5.53125 Z M 1.609375 -11.953125 "/></g></g></g><g fill="#112c59" fill-opacity="1"><g transform="translate(148.72322, 135.902926)"><g><path d="M 1.390625 -2.84375 L 6.703125 -2.84375 C 7.722656 -2.84375 8.519531 -3.171875 9.09375 -3.828125 C 9.664062 -4.484375 9.953125 -5.390625 9.953125 -6.546875 L 9.953125 -8.5 C 9.953125 -9.601562 9.703125 -10.492188 9.203125 -11.171875 C 8.703125 -11.847656 7.96875 -12.1875 7 -12.1875 L 5.109375 -12.1875 L 4.625 -9.953125 C 4.570312 -9.722656 4.546875 -9.5 4.546875 -9.28125 C 4.546875 -8.84375 4.675781 -8.503906 4.9375 -8.265625 C 5.207031 -8.035156 5.640625 -7.859375 6.234375 -7.734375 L 5.625 -5.375 C 4.070312 -5.40625 2.941406 -5.753906 2.234375 -6.421875 C 1.535156 -7.085938 1.1875 -7.988281 1.1875 -9.125 C 1.1875 -9.550781 1.222656 -9.9375 1.296875 -10.28125 L 2.34375 -15.03125 L 7.890625 -15.03125 C 9.710938 -15.03125 11.140625 -14.421875 12.171875 -13.203125 C 13.210938 -11.992188 13.734375 -10.363281 13.734375 -8.3125 L 13.734375 -6.734375 C 13.734375 -4.628906 13.179688 -2.976562 12.078125 -1.78125 C 10.972656 -0.59375 9.484375 0 7.609375 0 L 1.390625 0 Z M 1.390625 -2.84375 "/></g></g></g><g fill="#112c59" fill-opacity="1"><g transform="translate(163.376483, 135.902926)"><g/></g></g><g fill="#112c59" fill-opacity="1"><g transform="translate(168.637979, 135.902926)"><g><path d="M 0.46875 -2.125 C 1.132812 -2.195312 1.632812 -2.328125 1.96875 -2.515625 C 2.300781 -2.710938 2.53125 -2.984375 2.65625 -3.328125 C 2.78125 -3.671875 2.832031 -4.15625 2.8125 -4.78125 L 2.8125 -15.03125 L 10.78125 -15.03125 C 12.1875 -15.03125 13.289062 -14.628906 14.09375 -13.828125 C 14.90625 -13.023438 15.3125 -11.773438 15.3125 -10.078125 L 15.3125 0 L 11.53125 0 L 11.53125 -10.265625 C 11.53125 -11.546875 10.929688 -12.1875 9.734375 -12.1875 L 6.625 -12.1875 L 6.625 -5.28125 C 6.625 -3.957031 6.414062 -2.898438 6 -2.109375 C 5.59375 -1.316406 4.972656 -0.722656 4.140625 -0.328125 C 3.304688 0.0664062 2.191406 0.328125 0.796875 0.453125 Z M 0.46875 -2.125 "/></g></g></g><g fill="#112c59" fill-opacity="1"><g transform="translate(185.343218, 135.902926)"><g><path d="M 1.03125 -2.84375 L 4.875 -2.84375 L 4.875 -10.453125 C 4.875 -11.078125 4.753906 -11.519531 4.515625 -11.78125 C 4.273438 -12.050781 3.910156 -12.21875 3.421875 -12.28125 L 1.578125 -12.546875 L 2.046875 -15.34375 L 5.34375 -14.921875 C 6.414062 -14.773438 7.234375 -14.316406 7.796875 -13.546875 C 8.367188 -12.773438 8.65625 -11.773438 8.65625 -10.546875 L 8.65625 0 L 1.03125 0 Z M 1.03125 -2.84375 "/></g></g></g><g fill="#112c59" fill-opacity="1"><g transform="translate(195.366361, 135.902926)"><g><path d="M 0.765625 -2.84375 L 4.96875 -2.84375 C 5.988281 -2.84375 6.738281 -3.175781 7.21875 -3.84375 C 7.707031 -4.507812 7.953125 -5.40625 7.953125 -6.53125 L 7.953125 -8.5 C 7.953125 -9.625 7.707031 -10.519531 7.21875 -11.1875 C 6.738281 -11.851562 5.988281 -12.1875 4.96875 -12.1875 L 0.765625 -12.1875 L 0.765625 -15.03125 L 6 -15.03125 C 7.875 -15.03125 9.300781 -14.425781 10.28125 -13.21875 C 11.269531 -12.019531 11.765625 -10.375 11.765625 -8.28125 L 11.765625 -6.734375 C 11.765625 -4.648438 11.269531 -3.003906 10.28125 -1.796875 C 9.300781 -0.597656 7.875 0 6 0 L 0.765625 0 Z M 0.765625 -2.84375 "/></g></g></g><g fill="#112c59" fill-opacity="1"><g transform="translate(208.125484, 135.902926)"><g><path d="M 14.65625 -8.6875 C 14.757812 -5.59375 13.789062 -3.359375 11.75 -1.984375 C 9.71875 -0.609375 6.757812 0.140625 2.875 0.265625 L 1.421875 -12.1875 L 1.046875 -15.03125 L 9.125 -15.03125 C 10.84375 -15.03125 12.175781 -14.539062 13.125 -13.5625 C 14.070312 -12.59375 14.570312 -11.253906 14.625 -9.546875 Z M 6.1875 -3.109375 C 7.425781 -3.191406 8.390625 -3.445312 9.078125 -3.875 C 9.773438 -4.3125 10.257812 -4.921875 10.53125 -5.703125 C 10.8125 -6.484375 10.929688 -7.503906 10.890625 -8.765625 L 10.890625 -9.546875 C 10.890625 -10.359375 10.703125 -11 10.328125 -11.46875 C 9.960938 -11.945312 9.46875 -12.1875 8.84375 -12.1875 L 5.203125 -12.1875 Z M 6.1875 -3.109375 "/></g></g></g><g fill="#112c59" fill-opacity="1"><g transform="translate(224.052116, 135.902926)"><g/></g></g><g clip-path="url(#1558edb86f)"><g clip-path="url(#9f60d7fc0d)"><g transform="matrix(1, 0, 0, 1, 102, 23)"><g clip-path="url(#9ee017f42f)"><g clip-path="url(#20c07b2a15)"><g clip-path="url(#c08d97f772)"><path fill="#ffffff" d="M 0.84375 0.835938 L 68.617188 0.835938 L 68.617188 68.613281 L 0.84375 68.613281 Z M 0.84375 0.835938 " fill-opacity="1" fill-rule="nonzero"/></g></g></g></g></g></g><g clip-path="url(#1a02fa57a0)"><g clip-path="url(#53d6acc3dd)"><path stroke-linecap="butt" transform="matrix(0.748636, 0, 0, 0.748636, 102.842439, 23.837658)" fill="none" stroke-linejoin="miter" d="M 45.266344 -0.00229882 C 20.267766 -0.00229882 0.00175084 20.263716 0.00175084 45.267512 C 0.00175084 70.26609 20.267766 90.532105 45.266344 90.532105 C 70.264922 90.532105 90.530936 70.26609 90.530936 45.267512 C 90.530936 20.263716 70.264922 -0.00229882 45.266344 -0.00229882 Z M 45.266344 -0.00229882 " stroke="#052554" stroke-width="16" stroke-opacity="1" stroke-miterlimit="4"/></g></g><path fill="#052554" d="M 129.875 25.011719 C 123.410156 26.554688 118.417969 29.421875 113.347656 34.488281 C 94.910156 52.929688 102.253906 83.78125 127.160156 92.15625 C 131.050781 93.480469 133.109375 93.699219 139.574219 93.480469 C 146.699219 93.257812 147.726562 93.039062 153.015625 90.542969 C 160.511719 86.941406 165.578125 81.871094 169.398438 74.234375 C 172.117188 68.722656 172.265625 67.914062 172.484375 60.640625 C 172.707031 54.472656 172.484375 51.898438 171.308594 48.375 C 165.875 31.035156 147.507812 20.679688 129.875 25.011719 Z M 139.574219 42.570312 L 142.585938 48.007812 L 148.609375 44.261719 C 151.914062 42.203125 155.441406 40 156.46875 39.339844 L 158.304688 38.164062 L 156.910156 40.367188 C 156.101562 41.542969 153.75 45.214844 151.546875 48.449219 L 147.65625 54.324219 L 151.546875 55.574219 C 158.011719 57.777344 157.71875 57.628906 156.46875 58.292969 C 155.882812 58.660156 153.605469 59.320312 151.546875 59.835938 C 149.417969 60.273438 147.65625 60.863281 147.65625 61.007812 C 147.65625 61.15625 149.492188 64.976562 151.769531 69.457031 C 153.972656 73.9375 155.660156 77.757812 155.515625 77.90625 C 155.367188 78.054688 152.503906 75.847656 149.195312 73.058594 C 145.816406 70.265625 142.804688 68.0625 142.511719 68.28125 C 142.21875 68.503906 141.777344 69.382812 141.484375 70.339844 C 141.261719 71.292969 140.527344 73.351562 139.867188 74.894531 L 138.691406 77.832031 L 137.003906 73.203125 C 136.046875 70.632812 135.09375 68.355469 134.871094 68.136719 C 134.652344 67.839844 131.714844 68.871094 128.40625 70.339844 C 125.101562 71.882812 122.308594 72.984375 122.238281 72.835938 C 122.164062 72.761719 123.707031 70.046875 125.6875 66.8125 L 129.289062 60.9375 L 124.441406 60.054688 C 121.722656 59.539062 119.371094 58.953125 119.152344 58.730469 C 118.929688 58.585938 121.132812 57.261719 124.074219 55.867188 L 129.363281 53.371094 L 124.953125 48.300781 C 122.53125 45.582031 120.765625 43.230469 121.0625 43.085938 C 121.355469 43.011719 124.515625 44.039062 127.964844 45.4375 C 131.492188 46.757812 134.503906 47.714844 134.726562 47.492188 C 135.019531 47.273438 135.164062 46.097656 135.164062 44.847656 C 135.164062 42.351562 135.972656 37.0625 136.339844 37.0625 C 136.414062 37.0625 137.882812 39.558594 139.574219 42.570312 Z M 139.574219 42.570312 " fill-opacity="1" fill-rule="nonzero"/></svg>