<?xml version="1.0" standalone="no"?>
<!DOCTYPE svg PUBLIC "-//W3C//DTD SVG 20010904//EN" "http://www.w3.org/TR/2001/REC-SVG-20010904/DTD/svg10.dtd">
<svg xmlns="http://www.w3.org/2000/svg" version="1.0" width="96" height="96" viewBox="0 0 96.000000 96.000000" preserveAspectRatio="xMidYMid meet">

<g transform="translate(0.000000,96.000000) scale(0.100000,-0.100000)" fill="#052554" stroke="none">
<path d="M368 944 c-88 -21 -156 -60 -225 -129 -251 -251 -151 -671 188 -785 53 -18 81 -21 169 -18 97 3 111 6 183 40 102 49 171 118 223 222 37 75 39 86 42 185 3 84 0 119 -16 167 -52 164 -197 292 -366 323 -76 14 -127 13 -198 -5z m216 -242 c96 -67 112 -216 31 -292 -14 -13 -25 -31 -25 -41 0 -10 -11 -31 -24 -46 -22 -25 -31 -28 -84 -28 -67 0 -102 21 -102 60 0 12 -9 30 -21 41 -47 43 -74 124 -60 184 30 136 176 198 285 122z m-274 -270 c0 -4 12 -20 26 -35 14 -16 24 -30 21 -33 -3 -4 -62 19 -85 32 -2 2 -1 12 3 23 6 20 35 30 35 13z m388 -18 c2 -17 -6 -24 -40 -37 -61 -24 -63 -22 -27 23 35 43 62 49 67 14z m-288 -133 c0 -3 -28 -16 -62 -29 -48 -17 -64 -19 -70 -10 -15 24 -3 40 42 58 40 16 47 16 67 3 13 -9 23 -18 23 -22z m244 19 c33 -14 46 -25 46 -39 0 -32 -15 -33 -84 -5 l-66 26 23 19 c28 23 26 23 81 -1z"/>
<path d="M367 532 c-33 -36 -14 -72 38 -72 51 0 73 41 39 74 -21 21 -57 20 -77 -2z"/>
<path d="M532 534 c-26 -18 -28 -37 -6 -58 18 -19 65 -21 82 -4 18 18 14 56 -7 68 -27 14 -43 13 -69 -6z"/>
<path d="M467 421 c-23 -40 -23 -41 23 -41 l39 0 -20 35 c-12 19 -22 35 -23 35 -1 0 -9 -13 -19 -29z"/>
</g>
</svg>