<?xml version="1.0" standalone="no"?>
<!DOCTYPE svg PUBLIC "-//W3C//DTD SVG 20010904//EN" "http://www.w3.org/TR/2001/REC-SVG-20010904/DTD/svg10.dtd">
<svg xmlns="http://www.w3.org/2000/svg" version="1.0" width="99" height="99" viewBox="0 0 99.000000 99.000000" preserveAspectRatio="xMidYMid meet">

<g transform="translate(0.000000,99.000000) scale(0.100000,-0.100000)" fill="#052554" stroke="none">
<path d="M344 936 c-85 -31 -124 -58 -187 -126 -61 -65 -89 -117 -112 -205 -65 -253 87 -514 340 -581 59 -16 172 -18 234 -3 159 36 304 176 346 333 13 47 16 89 13 158 -3 83 -8 103 -41 171 -84 178 -246 278 -446 276 -64 0 -102 -6 -147 -23z m241 -199 c24 -24 35 -46 40 -80 4 -26 11 -47 17 -47 5 0 20 -11 33 -25 23 -23 25 -31 25 -131 0 -97 -2 -110 -22 -131 -21 -22 -27 -23 -179 -23 l-158 0 -20 26 c-18 23 -21 41 -21 129 0 146 3 149 154 153 l116 4 0 38 c0 29 -6 43 -22 54 -44 31 -92 16 -124 -39 -13 -24 -44 -13 -44 16 0 11 15 36 34 55 30 30 40 34 86 34 46 0 56 -4 85 -33z"/>
<path d="M487 503 c-4 -3 -7 -28 -7 -55 0 -41 3 -48 20 -48 18 0 20 7 20 55 0 39 -4 55 -13 55 -8 0 -17 -3 -20 -7z"/>
</g>
</svg>