<?xml version="1.0" standalone="no"?>
<!DOCTYPE svg PUBLIC "-//W3C//DTD SVG 20010904//EN" "http://www.w3.org/TR/2001/REC-SVG-20010904/DTD/svg10.dtd">
<svg xmlns="http://www.w3.org/2000/svg" version="1.0" width="96" height="96" viewBox="0 0 96.000000 96.000000" preserveAspectRatio="xMidYMid meet">

<g transform="translate(0.000000,96.000000) scale(0.100000,-0.100000)" fill="#052554" stroke="none">
<path d="M368 944 c-88 -21 -156 -60 -225 -129 -251 -251 -151 -671 188 -785 53 -18 81 -21 169 -18 97 3 111 6 183 40 102 49 171 118 223 222 37 75 39 86 42 185 3 84 0 119 -16 167 -52 164 -197 292 -366 323 -76 14 -127 13 -198 -5z m-60 -268 c26 -13 69 -47 97 -75 l49 -51 -31 -32 -32 -32 -38 40 c-49 50 -80 94 -98 138 -18 43 -11 45 53 12z m223 -202 l57 -57 44 11 c40 10 45 9 67 -12 l24 -24 -22 -30 c-11 -17 -21 -34 -21 -39 0 -13 -54 -63 -67 -63 -6 0 -22 -9 -35 -20 l-25 -19 -22 23 c-19 20 -22 31 -16 69 7 44 6 45 -49 101 -31 30 -56 59 -56 63 0 11 42 53 54 53 6 0 36 -25 67 -56z m179 -182 c0 -14 -59 -66 -67 -59 -3 4 6 21 22 37 28 30 45 38 45 22z"/>
<path d="M550 382 c0 -14 65 -72 80 -72 8 0 -3 18 -25 40 -38 39 -55 49 -55 32z"/>
</g>
</svg>