<?xml version="1.0" standalone="no"?>
<!DOCTYPE svg PUBLIC "-//W3C//DTD SVG 20010904//EN" "http://www.w3.org/TR/2001/REC-SVG-20010904/DTD/svg10.dtd">
<svg xmlns="http://www.w3.org/2000/svg" version="1.0" width="86" height="88" viewBox="0 0 86.000000 88.000000" preserveAspectRatio="xMidYMid meet">

<g transform="translate(0.000000,88.000000) scale(0.100000,-0.100000)" fill="#052554" stroke="none">
<path d="M332 845 c-123 -27 -221 -106 -280 -223 -36 -74 -37 -79 -37 -187 0 -103 2 -114 32 -178 124 -261 455 -326 664 -130 95 88 134 192 127 334 -4 76 -9 97 -41 162 -59 118 -157 195 -283 222 -83 18 -100 17 -182 0z m158 -216 c57 -12 123 -58 157 -108 33 -49 30 -68 -7 -41 -16 11 -53 26 -82 32 -45 9 -59 8 -93 -7 l-40 -18 48 -7 c48 -6 102 -40 64 -40 -36 0 -75 -29 -87 -65 -26 -80 29 -191 122 -244 l52 -30 -49 -23 c-42 -19 -67 -23 -150 -23 -89 0 -107 3 -161 28 -109 50 -206 173 -220 279 -8 56 17 108 79 165 101 93 235 130 367 102z"/>
</g>
</svg>