<svg xmlns="http://www.w3.org/2000/svg" xmlns:xlink="http://www.w3.org/1999/xlink" width="384" zoomAndPan="magnify" viewBox="0 0 288 219.75" height="293" preserveAspectRatio="xMidYMid meet" version="1.0"><defs><g/><clipPath id="baffd73bbc"><path d="M 0.164062 0 L 287.316406 0 L 287.316406 219.433594 L 0.164062 219.433594 Z M 0.164062 0 " clip-rule="nonzero"/></clipPath><clipPath id="5d133fba6b"><path d="M 34.625 0 L 252.699219 0 C 261.835938 0 270.601562 3.628906 277.066406 10.09375 C 283.527344 16.554688 287.160156 25.320312 287.160156 34.460938 L 287.160156 184.976562 C 287.160156 194.113281 283.527344 202.878906 277.066406 209.34375 C 270.601562 215.804688 261.835938 219.433594 252.699219 219.433594 L 34.625 219.433594 C 25.484375 219.433594 16.71875 215.804688 10.257812 209.34375 C 3.792969 202.878906 0.164062 194.113281 0.164062 184.976562 L 0.164062 34.460938 C 0.164062 25.320312 3.792969 16.554688 10.257812 10.09375 C 16.71875 3.628906 25.484375 0 34.625 0 Z M 34.625 0 " clip-rule="nonzero"/></clipPath><clipPath id="ef2836ea3a"><path d="M 0.164062 0 L 287.316406 0 L 287.316406 219.433594 L 0.164062 219.433594 Z M 0.164062 0 " clip-rule="nonzero"/></clipPath><clipPath id="21760c08a0"><path d="M 34.625 0 L 252.699219 0 C 261.835938 0 270.601562 3.628906 277.066406 10.09375 C 283.527344 16.554688 287.160156 25.320312 287.160156 34.460938 L 287.160156 184.976562 C 287.160156 194.113281 283.527344 202.878906 277.066406 209.34375 C 270.601562 215.804688 261.835938 219.433594 252.699219 219.433594 L 34.625 219.433594 C 25.484375 219.433594 16.71875 215.804688 10.257812 209.34375 C 3.792969 202.878906 0.164062 194.113281 0.164062 184.976562 L 0.164062 34.460938 C 0.164062 25.320312 3.792969 16.554688 10.257812 10.09375 C 16.71875 3.628906 25.484375 0 34.625 0 Z M 34.625 0 " clip-rule="nonzero"/></clipPath><clipPath id="6afffd9d87"><rect x="0" width="288" y="0" height="220"/></clipPath><clipPath id="a6c8e230ff"><path d="M 107.46875 29.101562 L 179.851562 29.101562 L 179.851562 101.480469 L 107.46875 101.480469 Z M 107.46875 29.101562 " clip-rule="nonzero"/></clipPath><clipPath id="77da3d3ad4"><path d="M 143.660156 29.101562 C 123.671875 29.101562 107.46875 45.304688 107.46875 65.289062 C 107.46875 85.277344 123.671875 101.480469 143.660156 101.480469 C 163.648438 101.480469 179.851562 85.277344 179.851562 65.289062 C 179.851562 45.304688 163.648438 29.101562 143.660156 29.101562 Z M 143.660156 29.101562 " clip-rule="nonzero"/></clipPath><clipPath id="981bede2da"><path d="M 0.46875 0.101562 L 72.851562 0.101562 L 72.851562 72.480469 L 0.46875 72.480469 Z M 0.46875 0.101562 " clip-rule="nonzero"/></clipPath><clipPath id="36c1ddf495"><path d="M 36.660156 0.101562 C 16.671875 0.101562 0.46875 16.304688 0.46875 36.289062 C 0.46875 56.277344 16.671875 72.480469 36.660156 72.480469 C 56.648438 72.480469 72.851562 56.277344 72.851562 36.289062 C 72.851562 16.304688 56.648438 0.101562 36.660156 0.101562 Z M 36.660156 0.101562 " clip-rule="nonzero"/></clipPath><clipPath id="acbcec31f8"><rect x="0" width="73" y="0" height="73"/></clipPath><clipPath id="459bc9f8bd"><path d="M 100.457031 22.085938 L 186.609375 22.085938 L 186.609375 108 L 100.457031 108 Z M 100.457031 22.085938 " clip-rule="nonzero"/></clipPath></defs><g clip-path="url(#baffd73bbc)"><g clip-path="url(#5d133fba6b)"><g transform="matrix(1, 0, 0, 1, 0.000000000000000028, 0.000000000000007073)"><g clip-path="url(#6afffd9d87)"><g clip-path="url(#ef2836ea3a)"><g clip-path="url(#21760c08a0)"><path fill="#f2f1c1" d="M 0.164062 0 L 287.316406 0 L 287.316406 219.433594 L 0.164062 219.433594 Z M 0.164062 0 " fill-opacity="1" fill-rule="nonzero"/></g></g></g></g></g></g><g clip-path="url(#a6c8e230ff)"><g clip-path="url(#77da3d3ad4)"><g transform="matrix(1, 0, 0, 1, 107, 29)"><g clip-path="url(#acbcec31f8)"><g clip-path="url(#981bede2da)"><g clip-path="url(#36c1ddf495)"><path fill="#ffffff" d="M 0.46875 0.101562 L 72.851562 0.101562 L 72.851562 72.480469 L 0.46875 72.480469 Z M 0.46875 0.101562 " fill-opacity="1" fill-rule="nonzero"/></g></g></g></g></g></g><g clip-path="url(#459bc9f8bd)"><path fill="#052554" d="M 139.449219 22.351562 C 134.308594 22.882812 129.164062 24.3125 124.738281 26.433594 C 116.414062 30.4375 108.808594 38.015625 104.832031 46.3125 C 98.257812 60.046875 99.371094 76.003906 107.824219 88.753906 C 114.054688 98.164062 123.808594 104.660156 135.234375 106.964844 C 139.503906 107.839844 147.507812 107.8125 151.617188 106.9375 C 168.847656 103.28125 181.703125 90.449219 185.28125 73.378906 C 186.503906 67.546875 186.238281 59.808594 184.621094 53.738281 C 180.273438 37.644531 166.648438 25.371094 150.160156 22.75 C 146.980469 22.246094 142.179688 22.085938 139.449219 22.351562 Z M 145.253906 38.785156 C 146.367188 39.078125 147.589844 40.296875 148.464844 41.96875 C 148.808594 42.628906 149.179688 43.1875 149.3125 43.238281 C 149.417969 43.292969 149.496094 43.425781 149.496094 43.558594 C 149.496094 43.691406 150.054688 44.722656 150.714844 45.863281 C 151.988281 47.984375 152.148438 48.25 153.871094 51.246094 C 154.425781 52.199219 155.117188 53.390625 155.410156 53.894531 C 155.699219 54.398438 156.230469 55.355469 156.601562 56.015625 C 156.945312 56.679688 157.34375 57.316406 157.449219 57.472656 C 157.660156 57.738281 158.191406 58.640625 159.515625 61.054688 C 159.863281 61.714844 160.257812 62.351562 160.367188 62.511719 C 160.472656 62.644531 160.816406 63.226562 161.132812 63.757812 C 161.453125 64.3125 161.929688 65.214844 162.246094 65.746094 C 162.566406 66.300781 162.910156 66.859375 163.015625 67.015625 C 163.121094 67.148438 163.519531 67.8125 163.863281 68.476562 C 164.871094 70.277344 165.453125 71.3125 166.832031 73.589844 C 167.496094 74.730469 168.054688 75.738281 168.054688 75.816406 C 168.054688 75.898438 168.316406 76.320312 168.636719 76.773438 C 169.113281 77.433594 169.246094 77.992188 169.246094 79.210938 C 169.21875 81.121094 168.769531 81.914062 167.230469 82.738281 L 166.144531 83.320312 L 144.328125 83.320312 C 120.445312 83.320312 121.371094 83.371094 119.992188 81.757812 C 119.199219 80.800781 118.90625 79.289062 119.25 78.097656 C 119.382812 77.621094 120.097656 76.214844 120.839844 74.941406 C 121.582031 73.699219 122.195312 72.558594 122.195312 72.425781 C 122.195312 72.292969 122.324219 72.1875 122.457031 72.1875 C 122.617188 72.1875 122.722656 72.082031 122.722656 71.949219 C 122.722656 71.789062 123.519531 70.332031 124.472656 68.6875 C 125.453125 67.042969 126.539062 65.160156 126.910156 64.5 C 127.28125 63.835938 128.023438 62.539062 128.609375 61.609375 C 129.164062 60.707031 129.617188 59.886719 129.617188 59.832031 C 129.617188 59.753906 129.90625 59.222656 130.304688 58.640625 C 130.941406 57.605469 131.285156 57.050781 132.742188 54.453125 C 133.113281 53.789062 133.75 52.648438 134.203125 51.933594 C 135.050781 50.476562 135.394531 49.894531 136.90625 47.269531 C 137.460938 46.3125 138.179688 45.070312 138.523438 44.484375 C 138.867188 43.902344 139.421875 42.894531 139.742188 42.230469 C 140.484375 40.773438 142.339844 38.867188 143.160156 38.707031 C 144.222656 38.519531 144.300781 38.519531 145.253906 38.785156 Z M 145.253906 38.785156 " fill-opacity="1" fill-rule="nonzero"/></g><path fill="#052554" d="M 142.179688 59.914062 C 142.285156 62.617188 142.417969 65.375 142.523438 66.011719 L 142.683594 67.148438 L 144.222656 67.148438 C 145.070312 67.148438 145.8125 67.070312 145.867188 66.9375 C 145.945312 66.832031 146.078125 64.101562 146.183594 60.839844 L 146.394531 54.957031 L 141.996094 54.957031 Z M 142.179688 59.914062 " fill-opacity="1" fill-rule="nonzero"/><path fill="#052554" d="M 142.65625 71.816406 C 142.207031 72.132812 142.074219 72.476562 142.074219 73.457031 C 142.074219 74.570312 142.179688 74.785156 142.84375 75.183594 C 145.253906 76.585938 147.851562 73.960938 145.917969 72.054688 C 145.148438 71.285156 143.585938 71.152344 142.65625 71.816406 Z M 142.65625 71.816406 " fill-opacity="1" fill-rule="nonzero"/><g fill="#112c59" fill-opacity="1"><g transform="translate(97.282344, 147.534369)"><g/></g></g><g fill="#112c59" fill-opacity="1"><g transform="translate(103.673511, 147.534369)"><g><path d="M 0.578125 -2.59375 C 1.390625 -2.675781 1.992188 -2.832031 2.390625 -3.0625 C 2.796875 -3.300781 3.070312 -3.628906 3.21875 -4.046875 C 3.375 -4.460938 3.441406 -5.050781 3.421875 -5.8125 L 3.421875 -18.25 L 13.09375 -18.25 C 14.800781 -18.25 16.144531 -17.765625 17.125 -16.796875 C 18.101562 -15.828125 18.59375 -14.304688 18.59375 -12.234375 L 18.59375 0 L 14 0 L 14 -12.46875 C 14 -14.019531 13.273438 -14.796875 11.828125 -14.796875 L 8.046875 -14.796875 L 8.046875 -6.421875 C 8.046875 -4.804688 7.796875 -3.519531 7.296875 -2.5625 C 6.796875 -1.601562 6.039062 -0.882812 5.03125 -0.40625 C 4.019531 0.0703125 2.660156 0.390625 0.953125 0.546875 Z M 0.578125 -2.59375 "/></g></g></g><g fill="#112c59" fill-opacity="1"><g transform="translate(123.965427, 147.534369)"><g><path d="M 1.953125 -14.5 L 1.5625 -18.25 L 6.171875 -18.25 L 6.546875 -14.5 L 6.546875 0 L 1.953125 0 Z M 1.953125 -14.5 "/></g></g></g><g fill="#112c59" fill-opacity="1"><g transform="translate(132.24198, 147.534369)"><g><path d="M 1.953125 -14.5 L 1.5625 -18.25 L 6.171875 -18.25 L 6.546875 -14.5 L 6.546875 -9.515625 L 6.515625 -7.515625 L 1.953125 -6.703125 Z M 1.953125 -14.5 "/></g></g></g><g fill="#112c59" fill-opacity="1"><g transform="translate(140.518532, 147.534369)"><g><path d="M 11.859375 -18.25 C 13.554688 -18.25 14.898438 -17.734375 15.890625 -16.703125 C 16.878906 -15.679688 17.375 -14.140625 17.375 -12.078125 L 17.375 0 L 12.75 0 L 12.75 -12.296875 C 12.75 -13.960938 12.035156 -14.796875 10.609375 -14.796875 L 6.328125 -14.796875 L 6.328125 0 L 1.71875 0 L 1.71875 -18.25 Z M 11.859375 -18.25 "/></g></g></g><g fill="#112c59" fill-opacity="1"><g transform="translate(159.532224, 147.534369)"><g><path d="M 1.25 -3.453125 L 5.90625 -3.453125 L 5.90625 -12.6875 C 5.90625 -13.445312 5.757812 -13.988281 5.46875 -14.3125 C 5.1875 -14.632812 4.75 -14.835938 4.15625 -14.921875 L 1.921875 -15.234375 L 2.5 -18.625 L 6.484375 -18.125 C 7.785156 -17.945312 8.78125 -17.390625 9.46875 -16.453125 C 10.164062 -15.515625 10.515625 -14.300781 10.515625 -12.8125 L 10.515625 0 L 1.25 0 Z M 1.25 -3.453125 "/></g></g></g><g fill="#112c59" fill-opacity="1"><g transform="translate(171.707372, 147.534369)"><g><path d="M 12.203125 -12.46875 C 12.203125 -14.019531 11.488281 -14.796875 10.0625 -14.796875 L 1.71875 -14.796875 L 1.71875 -18.25 L 11.3125 -18.25 C 13.019531 -18.25 14.367188 -17.765625 15.359375 -16.796875 C 16.347656 -15.828125 16.84375 -14.304688 16.84375 -12.234375 L 16.84375 0 L 12.203125 0 Z M 1.53125 -8.71875 L 2.171875 -10.859375 L 6.171875 -10.859375 L 6.171875 0 L 1.53125 0 Z M 1.53125 -8.71875 "/></g></g></g><g fill="#112c59" fill-opacity="1"><g transform="translate(67.644189, 187.988345)"><g><path d="M 11.796875 -18.25 C 13.492188 -18.25 14.835938 -17.765625 15.828125 -16.796875 C 16.816406 -15.828125 17.3125 -14.304688 17.3125 -12.234375 L 17.3125 0 L 1.6875 0 L 1.6875 -18.25 Z M 12.6875 -3.453125 L 12.6875 -12.46875 C 12.6875 -14.019531 11.972656 -14.796875 10.546875 -14.796875 L 6.296875 -14.796875 L 6.296875 -3.453125 Z M 12.6875 -3.453125 "/></g></g></g><g fill="#112c59" fill-opacity="1"><g transform="translate(86.562009, 187.988345)"><g><path d="M 1.953125 -14.5 L 1.5625 -18.25 L 6.171875 -18.25 L 6.546875 -14.5 L 6.546875 -9.515625 L 6.515625 -7.515625 L 1.953125 -6.703125 Z M 1.953125 -14.5 "/></g></g></g><g fill="#112c59" fill-opacity="1"><g transform="translate(94.838561, 187.988345)"><g><path d="M 1.953125 -14.5 L 1.5625 -18.25 L 6.171875 -18.25 L 6.546875 -14.5 L 6.546875 -9.515625 L 6.515625 -7.515625 L 1.953125 -6.703125 Z M 1.953125 -14.5 "/></g></g></g><g fill="#112c59" fill-opacity="1"><g transform="translate(103.115114, 187.988345)"><g><path d="M 11.859375 -18.25 C 13.554688 -18.25 14.898438 -17.734375 15.890625 -16.703125 C 16.878906 -15.679688 17.375 -14.140625 17.375 -12.078125 L 17.375 0 L 12.75 0 L 12.75 -12.296875 C 12.75 -13.960938 12.035156 -14.796875 10.609375 -14.796875 L 6.328125 -14.796875 L 6.328125 0 L 1.71875 0 L 1.71875 -18.25 Z M 11.859375 -18.25 "/></g></g></g><g fill="#112c59" fill-opacity="1"><g transform="translate(122.128806, 187.988345)"><g/></g></g><g fill="#112c59" fill-opacity="1"><g transform="translate(128.519961, 187.988345)"><g><path d="M 0.578125 -2.59375 C 1.390625 -2.675781 1.992188 -2.832031 2.390625 -3.0625 C 2.796875 -3.300781 3.070312 -3.628906 3.21875 -4.046875 C 3.375 -4.460938 3.441406 -5.050781 3.421875 -5.8125 L 3.421875 -18.25 L 13.09375 -18.25 C 14.800781 -18.25 16.144531 -17.765625 17.125 -16.796875 C 18.101562 -15.828125 18.59375 -14.304688 18.59375 -12.234375 L 18.59375 0 L 14 0 L 14 -12.46875 C 14 -14.019531 13.273438 -14.796875 11.828125 -14.796875 L 8.046875 -14.796875 L 8.046875 -6.421875 C 8.046875 -4.804688 7.796875 -3.519531 7.296875 -2.5625 C 6.796875 -1.601562 6.039062 -0.882812 5.03125 -0.40625 C 4.019531 0.0703125 2.660156 0.390625 0.953125 0.546875 Z M 0.578125 -2.59375 "/></g></g></g><g fill="#112c59" fill-opacity="1"><g transform="translate(148.811877, 187.988345)"><g><path d="M 1.953125 -14.5 L 1.5625 -18.25 L 6.171875 -18.25 L 6.546875 -14.5 L 6.546875 0 L 1.953125 0 Z M 1.953125 -14.5 "/></g></g></g><g fill="#112c59" fill-opacity="1"><g transform="translate(157.08843, 187.988345)"><g><path d="M 14.890625 -18.25 L 14.890625 -14.4375 L 9.140625 0 L 4.53125 0 L 10.25 -14.796875 L 0.984375 -14.796875 L 0.984375 -22.90625 L 5.140625 -22.90625 L 5.140625 -18.25 Z M 14.890625 -18.25 "/></g></g></g><g fill="#112c59" fill-opacity="1"><g transform="translate(173.002412, 187.988345)"><g><path d="M 1.953125 -14.5 L 1.5625 -18.25 L 6.171875 -18.25 L 6.546875 -14.5 L 6.546875 -9.515625 L 6.515625 -7.515625 L 1.953125 -6.703125 Z M 1.953125 -14.5 "/></g></g></g><g fill="#112c59" fill-opacity="1"><g transform="translate(181.278964, 187.988345)"><g><path d="M 12.015625 -7.484375 L 16.234375 0 L 0.953125 0 L 0.953125 -3.453125 L 9.65625 -3.453125 L 1.3125 -18.25 L 5.9375 -18.25 L 9.546875 -11.828125 L 12.171875 -18.25 L 16.71875 -18.25 Z M 12.015625 -7.484375 "/></g></g></g><g fill="#112c59" fill-opacity="1"><g transform="translate(199.142244, 187.988345)"><g><path d="M 19.265625 -9.109375 C 19.265625 -6.148438 18.578125 -3.820312 17.203125 -2.125 C 15.828125 -0.425781 13.894531 0.421875 11.40625 0.421875 C 10.507812 0.421875 9.53125 0.289062 8.46875 0.03125 L 8.890625 -3.421875 C 9.671875 -3.242188 10.328125 -3.15625 10.859375 -3.15625 C 12.304688 -3.15625 13.335938 -3.640625 13.953125 -4.609375 C 14.578125 -5.585938 14.890625 -7.023438 14.890625 -8.921875 C 14.890625 -11.023438 14.59375 -12.550781 14 -13.5 C 13.414062 -14.445312 12.519531 -14.921875 11.3125 -14.921875 C 10.457031 -14.921875 9.738281 -14.664062 9.15625 -14.15625 C 8.570312 -13.644531 8.203125 -12.953125 8.046875 -12.078125 L 6.078125 0 L 1.46875 0 L 3.671875 -12.296875 L 1.125 -18.25 L 5.90625 -18.25 L 7.1875 -14.609375 C 7.632812 -15.921875 8.304688 -16.898438 9.203125 -17.546875 C 10.097656 -18.203125 11.117188 -18.53125 12.265625 -18.53125 C 14.546875 -18.53125 16.28125 -17.742188 17.46875 -16.171875 C 18.664062 -14.609375 19.265625 -12.253906 19.265625 -9.109375 Z M 19.265625 -9.109375 "/></g></g></g></svg>