<svg xmlns="http://www.w3.org/2000/svg" xmlns:xlink="http://www.w3.org/1999/xlink" width="384" zoomAndPan="magnify" viewBox="0 0 288 219.75" height="293" preserveAspectRatio="xMidYMid meet" version="1.0"><defs><g/><clipPath id="f6e8376eb4"><path d="M 0.164062 0 L 287.316406 0 L 287.316406 219.433594 L 0.164062 219.433594 Z M 0.164062 0 " clip-rule="nonzero"/></clipPath><clipPath id="3e39d2e48f"><path d="M 34.625 0 L 252.699219 0 C 261.835938 0 270.601562 3.628906 277.066406 10.09375 C 283.527344 16.554688 287.160156 25.320312 287.160156 34.460938 L 287.160156 184.976562 C 287.160156 194.113281 283.527344 202.878906 277.066406 209.34375 C 270.601562 215.804688 261.835938 219.433594 252.699219 219.433594 L 34.625 219.433594 C 25.484375 219.433594 16.71875 215.804688 10.257812 209.34375 C 3.792969 202.878906 0.164062 194.113281 0.164062 184.976562 L 0.164062 34.460938 C 0.164062 25.320312 3.792969 16.554688 10.257812 10.09375 C 16.71875 3.628906 25.484375 0 34.625 0 Z M 34.625 0 " clip-rule="nonzero"/></clipPath><clipPath id="d31af4e53c"><path d="M 0.164062 0 L 287.316406 0 L 287.316406 219.433594 L 0.164062 219.433594 Z M 0.164062 0 " clip-rule="nonzero"/></clipPath><clipPath id="64bd8a8066"><path d="M 34.625 0 L 252.699219 0 C 261.835938 0 270.601562 3.628906 277.066406 10.09375 C 283.527344 16.554688 287.160156 25.320312 287.160156 34.460938 L 287.160156 184.976562 C 287.160156 194.113281 283.527344 202.878906 277.066406 209.34375 C 270.601562 215.804688 261.835938 219.433594 252.699219 219.433594 L 34.625 219.433594 C 25.484375 219.433594 16.71875 215.804688 10.257812 209.34375 C 3.792969 202.878906 0.164062 194.113281 0.164062 184.976562 L 0.164062 34.460938 C 0.164062 25.320312 3.792969 16.554688 10.257812 10.09375 C 16.71875 3.628906 25.484375 0 34.625 0 Z M 34.625 0 " clip-rule="nonzero"/></clipPath><clipPath id="f147b1384f"><rect x="0" width="288" y="0" height="220"/></clipPath><clipPath id="330ab030d3"><path d="M 108.96875 30.425781 L 181.351562 30.425781 L 181.351562 102.808594 L 108.96875 102.808594 Z M 108.96875 30.425781 " clip-rule="nonzero"/></clipPath><clipPath id="740921d0c7"><path d="M 145.160156 30.425781 C 125.171875 30.425781 108.96875 46.628906 108.96875 66.617188 C 108.96875 86.605469 125.171875 102.808594 145.160156 102.808594 C 165.148438 102.808594 181.351562 86.605469 181.351562 66.617188 C 181.351562 46.628906 165.148438 30.425781 145.160156 30.425781 Z M 145.160156 30.425781 " clip-rule="nonzero"/></clipPath><clipPath id="9653990adc"><path d="M 0.96875 0.425781 L 73.351562 0.425781 L 73.351562 72.808594 L 0.96875 72.808594 Z M 0.96875 0.425781 " clip-rule="nonzero"/></clipPath><clipPath id="2325ad9a2a"><path d="M 37.160156 0.425781 C 17.171875 0.425781 0.96875 16.628906 0.96875 36.617188 C 0.96875 56.605469 17.171875 72.808594 37.160156 72.808594 C 57.148438 72.808594 73.351562 56.605469 73.351562 36.617188 C 73.351562 16.628906 57.148438 0.425781 37.160156 0.425781 Z M 37.160156 0.425781 " clip-rule="nonzero"/></clipPath><clipPath id="6dc1e16af4"><rect x="0" width="74" y="0" height="73"/></clipPath></defs><g clip-path="url(#f6e8376eb4)"><g clip-path="url(#3e39d2e48f)"><g transform="matrix(1, 0, 0, 1, 0.000000000000000028, 0.000000000000007073)"><g clip-path="url(#f147b1384f)"><g clip-path="url(#d31af4e53c)"><g clip-path="url(#64bd8a8066)"><path fill="#f7b7d2" d="M 0.164062 0 L 287.316406 0 L 287.316406 219.433594 L 0.164062 219.433594 Z M 0.164062 0 " fill-opacity="1" fill-rule="nonzero"/></g></g></g></g></g></g><g clip-path="url(#330ab030d3)"><g clip-path="url(#740921d0c7)"><g transform="matrix(1, 0, 0, 1, 108, 30)"><g clip-path="url(#6dc1e16af4)"><g clip-path="url(#9653990adc)"><g clip-path="url(#2325ad9a2a)"><path fill="#ffffff" d="M 0.96875 0.425781 L 73.351562 0.425781 L 73.351562 72.808594 L 0.96875 72.808594 Z M 0.96875 0.425781 " fill-opacity="1" fill-rule="nonzero"/></g></g></g></g></g></g><path fill="#052554" d="M 138.21875 23.71875 C 119.34375 27.144531 105.03125 42.28125 102.667969 61.335938 C 102.207031 65.003906 102.449219 71.960938 103.183594 75.414062 C 106.414062 90.550781 117.304688 102.890625 131.726562 107.785156 C 136.996094 109.578125 139.574219 109.984375 145.847656 109.984375 C 150.601562 109.984375 151.824219 109.902344 154.269531 109.359375 C 172.109375 105.527344 185.363281 92.046875 188.648438 74.40625 C 189.410156 70.304688 189.355469 61.851562 188.542969 58.046875 C 186.722656 49.648438 182.972656 42.527344 177.242188 36.546875 C 170.996094 30.050781 164.234375 26.21875 155.355469 24.070312 C 152.882812 23.472656 151.714844 23.390625 146.800781 23.285156 C 142.046875 23.203125 140.636719 23.285156 138.21875 23.71875 Z M 156.765625 47.175781 C 162.550781 49.429688 167.195312 51.386719 167.085938 51.46875 C 166.976562 51.578125 162.308594 53.453125 156.710938 55.652344 C 151.117188 57.855469 146.339844 59.757812 146.09375 59.894531 C 145.820312 60.03125 142.238281 58.753906 134.960938 55.898438 C 129.066406 53.5625 124.175781 51.578125 124.042969 51.46875 C 123.933594 51.359375 126.757812 50.136719 130.289062 48.722656 C 133.84375 47.335938 138.707031 45.433594 141.097656 44.484375 C 143.488281 43.53125 145.632812 42.824219 145.847656 42.90625 C 146.066406 42.960938 150.980469 44.890625 156.765625 47.175781 Z M 134.308594 57.691406 L 144.355469 61.660156 L 144.4375 74.082031 C 144.492188 83.921875 144.4375 86.503906 144.164062 86.503906 C 143.976562 86.476562 142.101562 85.796875 140.011719 84.925781 L 136.207031 83.378906 L 136.125 76.445312 L 136.074219 69.488281 L 132.460938 68.320312 C 130.503906 67.667969 128.710938 67.070312 128.550781 67.015625 C 128.277344 66.90625 128.195312 68.292969 128.195312 73.429688 C 128.195312 78.621094 128.113281 79.980469 127.84375 79.980469 C 127.652344 79.980469 126.269531 79.515625 124.773438 78.917969 L 122.085938 77.886719 L 122.003906 65.328125 L 121.949219 52.800781 L 123.089844 53.261719 C 123.742188 53.535156 128.792969 55.519531 134.308594 57.691406 Z M 169.097656 77.722656 C 168.878906 77.96875 147.097656 86.503906 146.746094 86.503906 C 146.445312 86.503906 146.390625 84.164062 146.390625 74.164062 L 146.390625 61.824219 L 153.804688 58.914062 C 157.851562 57.3125 162.957031 55.273438 165.132812 54.429688 L 169.070312 52.855469 L 169.152344 65.25 C 169.179688 72.042969 169.152344 77.667969 169.097656 77.722656 Z M 132.324219 70.25 L 134.171875 70.847656 L 134.171875 76.636719 C 134.171875 80.277344 134.0625 82.425781 133.898438 82.425781 C 133.765625 82.425781 132.839844 82.097656 131.863281 81.71875 L 130.097656 81.011719 L 130.097656 75.332031 C 130.097656 72.207031 130.179688 69.652344 130.289062 69.652344 C 130.394531 69.652344 131.292969 69.921875 132.324219 70.25 Z M 132.324219 70.25 " fill-opacity="1" fill-rule="nonzero"/><g fill="#112c59" fill-opacity="1"><g transform="translate(65.400446, 151.97577)"><g><path d="M 0.578125 -2.59375 C 1.390625 -2.675781 1.992188 -2.832031 2.390625 -3.0625 C 2.796875 -3.300781 3.070312 -3.628906 3.21875 -4.046875 C 3.375 -4.460938 3.441406 -5.050781 3.421875 -5.8125 L 3.421875 -18.25 L 13.09375 -18.25 C 14.800781 -18.25 16.144531 -17.765625 17.125 -16.796875 C 18.101562 -15.828125 18.59375 -14.304688 18.59375 -12.234375 L 18.59375 0 L 14 0 L 14 -12.46875 C 14 -14.019531 13.273438 -14.796875 11.828125 -14.796875 L 8.046875 -14.796875 L 8.046875 -6.421875 C 8.046875 -4.804688 7.796875 -3.519531 7.296875 -2.5625 C 6.796875 -1.601562 6.039062 -0.882812 5.03125 -0.40625 C 4.019531 0.0703125 2.660156 0.390625 0.953125 0.546875 Z M 0.578125 -2.59375 "/></g></g></g><g fill="#112c59" fill-opacity="1"><g transform="translate(85.692362, 151.97577)"><g><path d="M 1.25 -3.453125 L 5.90625 -3.453125 L 5.90625 -12.6875 C 5.90625 -13.445312 5.757812 -13.988281 5.46875 -14.3125 C 5.1875 -14.632812 4.75 -14.835938 4.15625 -14.921875 L 1.921875 -15.234375 L 2.5 -18.625 L 6.484375 -18.125 C 7.785156 -17.945312 8.78125 -17.390625 9.46875 -16.453125 C 10.164062 -15.515625 10.515625 -14.300781 10.515625 -12.8125 L 10.515625 0 L 1.25 0 Z M 1.25 -3.453125 "/></g></g></g><g fill="#112c59" fill-opacity="1"><g transform="translate(97.867509, 151.97577)"><g><path d="M 0.921875 -3.453125 L 6.046875 -3.453125 C 7.273438 -3.453125 8.179688 -3.851562 8.765625 -4.65625 C 9.359375 -5.46875 9.65625 -6.554688 9.65625 -7.921875 L 9.65625 -10.328125 C 9.65625 -11.679688 9.359375 -12.765625 8.765625 -13.578125 C 8.179688 -14.390625 7.273438 -14.796875 6.046875 -14.796875 L 0.921875 -14.796875 L 0.921875 -18.25 L 7.28125 -18.25 C 9.5625 -18.25 11.296875 -17.519531 12.484375 -16.0625 C 13.679688 -14.601562 14.28125 -12.601562 14.28125 -10.0625 L 14.28125 -8.1875 C 14.28125 -5.644531 13.679688 -3.644531 12.484375 -2.1875 C 11.296875 -0.726562 9.5625 0 7.28125 0 L 0.921875 0 Z M 0.921875 -3.453125 "/></g></g></g><g fill="#112c59" fill-opacity="1"><g transform="translate(113.366063, 151.97577)"><g><path d="M 12.203125 -12.46875 C 12.203125 -14.019531 11.488281 -14.796875 10.0625 -14.796875 L 1.71875 -14.796875 L 1.71875 -18.25 L 11.3125 -18.25 C 13.019531 -18.25 14.367188 -17.765625 15.359375 -16.796875 C 16.347656 -15.828125 16.84375 -14.304688 16.84375 -12.234375 L 16.84375 0 L 12.203125 0 Z M 1.53125 -8.71875 L 2.171875 -10.859375 L 6.171875 -10.859375 L 6.171875 0 L 1.53125 0 Z M 1.53125 -8.71875 "/></g></g></g><g fill="#112c59" fill-opacity="1"><g transform="translate(131.67672, 151.97577)"><g><path d="M 1.953125 -14.5 L 1.5625 -18.25 L 6.171875 -18.25 L 6.546875 -14.5 L 6.546875 0 L 1.953125 0 Z M 1.953125 -14.5 "/></g></g></g><g fill="#112c59" fill-opacity="1"><g transform="translate(139.953273, 151.97577)"><g/></g></g><g fill="#112c59" fill-opacity="1"><g transform="translate(146.344428, 151.97577)"><g><path d="M 12.203125 -12.46875 C 12.203125 -14.019531 11.488281 -14.796875 10.0625 -14.796875 L 1.71875 -14.796875 L 1.71875 -18.25 L 11.3125 -18.25 C 13.019531 -18.25 14.367188 -17.765625 15.359375 -16.796875 C 16.347656 -15.828125 16.84375 -14.304688 16.84375 -12.234375 L 16.84375 0 L 12.203125 0 Z M 1.53125 -8.71875 L 2.171875 -10.859375 L 6.171875 -10.859375 L 6.171875 0 L 1.53125 0 Z M 1.53125 -8.71875 "/></g></g></g><g fill="#112c59" fill-opacity="1"><g transform="translate(164.655085, 151.97577)"><g><path d="M 9.265625 -12.46875 C 9.265625 -14.019531 8.550781 -14.796875 7.125 -14.796875 L 0.890625 -14.796875 L 0.890625 -18.25 L 8.375 -18.25 C 10.070312 -18.25 11.414062 -17.765625 12.40625 -16.796875 C 13.40625 -15.828125 13.90625 -14.304688 13.90625 -12.234375 L 13.90625 0 L 9.265625 0 Z M 9.265625 -12.46875 "/></g></g></g><g fill="#112c59" fill-opacity="1"><g transform="translate(180.249511, 151.97577)"><g><path d="M 1.953125 -14.5 L 1.5625 -18.25 L 6.171875 -18.25 L 6.546875 -14.5 L 6.546875 -9.515625 L 6.515625 -7.515625 L 1.953125 -6.703125 Z M 1.953125 -14.5 "/></g></g></g><g fill="#112c59" fill-opacity="1"><g transform="translate(188.526063, 151.97577)"><g><path d="M 11.859375 -18.25 C 13.554688 -18.25 14.898438 -17.734375 15.890625 -16.703125 C 16.878906 -15.679688 17.375 -14.140625 17.375 -12.078125 L 17.375 0 L 12.75 0 L 12.75 -12.296875 C 12.75 -13.960938 12.035156 -14.796875 10.609375 -14.796875 L 6.328125 -14.796875 L 6.328125 0 L 1.71875 0 L 1.71875 -18.25 Z M 11.859375 -18.25 "/></g></g></g><g fill="#112c59" fill-opacity="1"><g transform="translate(207.539755, 151.97577)"><g><path d="M 16.390625 -3.453125 L 16.390625 0 L 1.21875 0 L 1.21875 -3.453125 L 9.65625 -3.453125 L 9.65625 -12.46875 C 9.65625 -14.019531 8.929688 -14.796875 7.484375 -14.796875 L 1.21875 -14.796875 L 1.21875 -18.25 L 8.75 -18.25 C 10.457031 -18.25 11.800781 -17.765625 12.78125 -16.796875 C 13.757812 -15.828125 14.25 -14.304688 14.25 -12.234375 L 14.25 -3.453125 Z M 16.390625 -3.453125 "/></g></g></g><g fill="#112c59" fill-opacity="1"><g transform="translate(62.099513, 192.429745)"><g><path d="M 1.953125 -14.5 L 1.5625 -18.25 L 6.171875 -18.25 L 6.546875 -14.5 L 6.546875 6.390625 L 1.953125 6.390625 Z M 1.953125 -14.5 "/></g></g></g><g fill="#112c59" fill-opacity="1"><g transform="translate(70.376066, 192.429745)"><g><path d="M 7.859375 0 L 7.28125 -3.421875 C 6.6875 -2.460938 5.988281 -1.648438 5.1875 -0.984375 C 4.394531 -0.328125 3.410156 0.203125 2.234375 0.609375 L 0.546875 -3.03125 C 3.523438 -3.96875 5.546875 -5.460938 6.609375 -7.515625 L 6.609375 -12.71875 C 6.609375 -13.488281 6.488281 -14.03125 6.25 -14.34375 C 6.019531 -14.664062 5.628906 -14.867188 5.078125 -14.953125 L 3.0625 -15.234375 L 3.640625 -18.625 L 7.40625 -18.125 C 8.707031 -17.945312 9.664062 -17.457031 10.28125 -16.65625 C 10.90625 -15.863281 11.21875 -14.722656 11.21875 -13.234375 L 11.21875 -7.15625 L 12.234375 0 Z M 7.859375 0 "/></g></g></g><g fill="#112c59" fill-opacity="1"><g transform="translate(83.925321, 192.429745)"><g><path d="M 1.953125 -14.5 L 1.5625 -18.25 L 6.171875 -18.25 L 6.546875 -14.5 L 6.546875 0 L 1.953125 0 Z M 1.953125 -14.5 "/></g></g></g><g fill="#112c59" fill-opacity="1"><g transform="translate(92.201874, 192.429745)"><g><path d="M 19.265625 -9.109375 C 19.265625 -6.148438 18.578125 -3.820312 17.203125 -2.125 C 15.828125 -0.425781 13.894531 0.421875 11.40625 0.421875 C 10.507812 0.421875 9.53125 0.289062 8.46875 0.03125 L 8.890625 -3.421875 C 9.671875 -3.242188 10.328125 -3.15625 10.859375 -3.15625 C 12.304688 -3.15625 13.335938 -3.640625 13.953125 -4.609375 C 14.578125 -5.585938 14.890625 -7.023438 14.890625 -8.921875 C 14.890625 -11.023438 14.59375 -12.550781 14 -13.5 C 13.414062 -14.445312 12.519531 -14.921875 11.3125 -14.921875 C 10.457031 -14.921875 9.738281 -14.664062 9.15625 -14.15625 C 8.570312 -13.644531 8.203125 -12.953125 8.046875 -12.078125 L 6.078125 0 L 1.46875 0 L 3.671875 -12.296875 L 1.125 -18.25 L 5.90625 -18.25 L 7.1875 -14.609375 C 7.632812 -15.921875 8.304688 -16.898438 9.203125 -17.546875 C 10.097656 -18.203125 11.117188 -18.53125 12.265625 -18.53125 C 14.546875 -18.53125 16.28125 -17.742188 17.46875 -16.171875 C 18.664062 -14.609375 19.265625 -12.253906 19.265625 -9.109375 Z M 19.265625 -9.109375 "/></g></g></g><g fill="#112c59" fill-opacity="1"><g transform="translate(112.717485, 192.429745)"><g><path d="M 12.203125 -12.46875 C 12.203125 -14.019531 11.488281 -14.796875 10.0625 -14.796875 L 1.71875 -14.796875 L 1.71875 -18.25 L 11.3125 -18.25 C 13.019531 -18.25 14.367188 -17.765625 15.359375 -16.796875 C 16.347656 -15.828125 16.84375 -14.304688 16.84375 -12.234375 L 16.84375 0 L 12.203125 0 Z M 1.53125 -8.71875 L 2.171875 -10.859375 L 6.171875 -10.859375 L 6.171875 0 L 1.53125 0 Z M 1.53125 -8.71875 "/></g></g></g><g fill="#112c59" fill-opacity="1"><g transform="translate(131.028143, 192.429745)"><g/></g></g><g fill="#112c59" fill-opacity="1"><g transform="translate(137.419297, 192.429745)"><g><path d="M 16.390625 -3.453125 L 16.390625 0 L 1.21875 0 L 1.21875 -3.453125 L 9.65625 -3.453125 L 9.65625 -12.46875 C 9.65625 -14.019531 8.929688 -14.796875 7.484375 -14.796875 L 1.21875 -14.796875 L 1.21875 -18.25 L 8.75 -18.25 C 10.457031 -18.25 11.800781 -17.765625 12.78125 -16.796875 C 13.757812 -15.828125 14.25 -14.304688 14.25 -12.234375 L 14.25 -3.453125 Z M 16.390625 -3.453125 "/></g></g></g><g fill="#112c59" fill-opacity="1"><g transform="translate(154.771287, 192.429745)"><g><path d="M 11.859375 -18.25 C 13.554688 -18.25 14.898438 -17.734375 15.890625 -16.703125 C 16.878906 -15.679688 17.375 -14.140625 17.375 -12.078125 L 17.375 0 L 12.75 0 L 12.75 -12.296875 C 12.75 -13.960938 12.035156 -14.796875 10.609375 -14.796875 L 6.328125 -14.796875 L 6.328125 0 L 1.71875 0 L 1.71875 -18.25 Z M 11.859375 -18.25 "/></g></g></g><g fill="#112c59" fill-opacity="1"><g transform="translate(173.784979, 192.429745)"><g><path d="M 9.265625 -12.46875 C 9.265625 -14.019531 8.550781 -14.796875 7.125 -14.796875 L 0.890625 -14.796875 L 0.890625 -18.25 L 8.375 -18.25 C 10.070312 -18.25 11.414062 -17.765625 12.40625 -16.796875 C 13.40625 -15.828125 13.90625 -14.304688 13.90625 -12.234375 L 13.90625 0 L 9.265625 0 Z M 9.265625 -12.46875 "/></g></g></g><g fill="#112c59" fill-opacity="1"><g transform="translate(189.379405, 192.429745)"><g><path d="M 19.265625 -9.109375 C 19.265625 -6.148438 18.578125 -3.820312 17.203125 -2.125 C 15.828125 -0.425781 13.894531 0.421875 11.40625 0.421875 C 10.507812 0.421875 9.53125 0.289062 8.46875 0.03125 L 8.890625 -3.421875 C 9.671875 -3.242188 10.328125 -3.15625 10.859375 -3.15625 C 12.304688 -3.15625 13.335938 -3.640625 13.953125 -4.609375 C 14.578125 -5.585938 14.890625 -7.023438 14.890625 -8.921875 C 14.890625 -11.023438 14.59375 -12.550781 14 -13.5 C 13.414062 -14.445312 12.519531 -14.921875 11.3125 -14.921875 C 10.457031 -14.921875 9.738281 -14.664062 9.15625 -14.15625 C 8.570312 -13.644531 8.203125 -12.953125 8.046875 -12.078125 L 6.078125 0 L 1.46875 0 L 3.671875 -12.296875 L 1.125 -18.25 L 5.90625 -18.25 L 7.1875 -14.609375 C 7.632812 -15.921875 8.304688 -16.898438 9.203125 -17.546875 C 10.097656 -18.203125 11.117188 -18.53125 12.265625 -18.53125 C 14.546875 -18.53125 16.28125 -17.742188 17.46875 -16.171875 C 18.664062 -14.609375 19.265625 -12.253906 19.265625 -9.109375 Z M 19.265625 -9.109375 "/></g></g></g><g fill="#112c59" fill-opacity="1"><g transform="translate(209.895016, 192.429745)"><g><path d="M 12.203125 -12.46875 C 12.203125 -14.019531 11.488281 -14.796875 10.0625 -14.796875 L 1.71875 -14.796875 L 1.71875 -18.25 L 11.3125 -18.25 C 13.019531 -18.25 14.367188 -17.765625 15.359375 -16.796875 C 16.347656 -15.828125 16.84375 -14.304688 16.84375 -12.234375 L 16.84375 0 L 12.203125 0 Z M 1.53125 -8.71875 L 2.171875 -10.859375 L 6.171875 -10.859375 L 6.171875 0 L 1.53125 0 Z M 1.53125 -8.71875 "/></g></g></g></svg>