<svg xmlns="http://www.w3.org/2000/svg" xmlns:xlink="http://www.w3.org/1999/xlink" width="384" zoomAndPan="magnify" viewBox="0 0 288 219.75" height="293" preserveAspectRatio="xMidYMid meet" version="1.0"><defs><g/><clipPath id="af4ed51094"><path d="M 0.164062 0 L 287.316406 0 L 287.316406 219.433594 L 0.164062 219.433594 Z M 0.164062 0 " clip-rule="nonzero"/></clipPath><clipPath id="6fb66d2f5c"><path d="M 34.625 0 L 252.699219 0 C 261.835938 0 270.601562 3.628906 277.066406 10.09375 C 283.527344 16.554688 287.160156 25.320312 287.160156 34.460938 L 287.160156 184.976562 C 287.160156 194.113281 283.527344 202.878906 277.066406 209.34375 C 270.601562 215.804688 261.835938 219.433594 252.699219 219.433594 L 34.625 219.433594 C 25.484375 219.433594 16.71875 215.804688 10.257812 209.34375 C 3.792969 202.878906 0.164062 194.113281 0.164062 184.976562 L 0.164062 34.460938 C 0.164062 25.320312 3.792969 16.554688 10.257812 10.09375 C 16.71875 3.628906 25.484375 0 34.625 0 Z M 34.625 0 " clip-rule="nonzero"/></clipPath><clipPath id="24a291bf27"><path d="M 0.164062 0 L 287.316406 0 L 287.316406 219.433594 L 0.164062 219.433594 Z M 0.164062 0 " clip-rule="nonzero"/></clipPath><clipPath id="3e97d3473e"><path d="M 34.625 0 L 252.699219 0 C 261.835938 0 270.601562 3.628906 277.066406 10.09375 C 283.527344 16.554688 287.160156 25.320312 287.160156 34.460938 L 287.160156 184.976562 C 287.160156 194.113281 283.527344 202.878906 277.066406 209.34375 C 270.601562 215.804688 261.835938 219.433594 252.699219 219.433594 L 34.625 219.433594 C 25.484375 219.433594 16.71875 215.804688 10.257812 209.34375 C 3.792969 202.878906 0.164062 194.113281 0.164062 184.976562 L 0.164062 34.460938 C 0.164062 25.320312 3.792969 16.554688 10.257812 10.09375 C 16.71875 3.628906 25.484375 0 34.625 0 Z M 34.625 0 " clip-rule="nonzero"/></clipPath><clipPath id="f22d61f978"><rect x="0" width="288" y="0" height="220"/></clipPath><clipPath id="0ad9e4fe9c"><path d="M 108.046875 33.542969 L 180.425781 33.542969 L 180.425781 105.921875 L 108.046875 105.921875 Z M 108.046875 33.542969 " clip-rule="nonzero"/></clipPath><clipPath id="b65b6c84a3"><path d="M 144.234375 33.542969 C 124.25 33.542969 108.046875 49.746094 108.046875 69.730469 C 108.046875 89.71875 124.25 105.921875 144.234375 105.921875 C 164.222656 105.921875 180.425781 89.71875 180.425781 69.730469 C 180.425781 49.746094 164.222656 33.542969 144.234375 33.542969 Z M 144.234375 33.542969 " clip-rule="nonzero"/></clipPath><clipPath id="8b67ff12c7"><path d="M 0.046875 0.542969 L 72.425781 0.542969 L 72.425781 72.921875 L 0.046875 72.921875 Z M 0.046875 0.542969 " clip-rule="nonzero"/></clipPath><clipPath id="31f13f659e"><path d="M 36.234375 0.542969 C 16.25 0.542969 0.046875 16.746094 0.046875 36.730469 C 0.046875 56.71875 16.25 72.921875 36.234375 72.921875 C 56.222656 72.921875 72.425781 56.71875 72.425781 36.730469 C 72.425781 16.746094 56.222656 0.542969 36.234375 0.542969 Z M 36.234375 0.542969 " clip-rule="nonzero"/></clipPath><clipPath id="e3af80f5d0"><rect x="0" width="73" y="0" height="73"/></clipPath></defs><g clip-path="url(#af4ed51094)"><g clip-path="url(#6fb66d2f5c)"><g transform="matrix(1, 0, 0, 1, 0.000000000000000028, 0.000000000000007073)"><g clip-path="url(#f22d61f978)"><g clip-path="url(#24a291bf27)"><g clip-path="url(#3e97d3473e)"><path fill="#a2dadb" d="M 0.164062 0 L 287.316406 0 L 287.316406 219.433594 L 0.164062 219.433594 Z M 0.164062 0 " fill-opacity="1" fill-rule="nonzero"/></g></g></g></g></g></g><g fill="#112c59" fill-opacity="1"><g transform="translate(55.454939, 174.962548)"><g><path d="M 12.203125 -12.46875 C 12.203125 -14.019531 11.488281 -14.796875 10.0625 -14.796875 L 1.71875 -14.796875 L 1.71875 -18.25 L 11.3125 -18.25 C 13.019531 -18.25 14.367188 -17.765625 15.359375 -16.796875 C 16.347656 -15.828125 16.84375 -14.304688 16.84375 -12.234375 L 16.84375 0 L 12.203125 0 Z M 1.53125 -8.71875 L 2.171875 -10.859375 L 6.171875 -10.859375 L 6.171875 0 L 1.53125 0 Z M 1.53125 -8.71875 "/></g></g></g><g fill="#112c59" fill-opacity="1"><g transform="translate(73.765597, 174.962548)"><g><path d="M 17.0625 -18.25 C 17.039062 -14.007812 16.875 -10.804688 16.5625 -8.640625 C 16.257812 -6.484375 15.445312 -4.660156 14.125 -3.171875 C 12.800781 -1.691406 10.671875 -0.664062 7.734375 -0.09375 L 0.890625 1.25 L 0.25 -2.359375 L 5.34375 -3.328125 L 1.65625 -18.25 L 6.265625 -18.25 L 9.484375 -4.34375 C 10.441406 -4.8125 11.132812 -5.523438 11.5625 -6.484375 C 11.988281 -7.441406 12.25 -8.601562 12.34375 -9.96875 C 12.445312 -11.332031 12.5 -13.398438 12.5 -16.171875 L 12.5 -18.25 Z M 17.0625 -18.25 "/></g></g></g><g fill="#112c59" fill-opacity="1"><g transform="translate(92.172127, 174.962548)"><g><path d="M 9.265625 -12.46875 C 9.265625 -14.019531 8.550781 -14.796875 7.125 -14.796875 L 0.890625 -14.796875 L 0.890625 -18.25 L 8.375 -18.25 C 10.070312 -18.25 11.414062 -17.765625 12.40625 -16.796875 C 13.40625 -15.828125 13.90625 -14.304688 13.90625 -12.234375 L 13.90625 0 L 9.265625 0 Z M 9.265625 -12.46875 "/></g></g></g><g fill="#112c59" fill-opacity="1"><g transform="translate(107.766553, 174.962548)"><g><path d="M 0.578125 -2.59375 C 1.390625 -2.675781 1.992188 -2.832031 2.390625 -3.0625 C 2.796875 -3.300781 3.070312 -3.628906 3.21875 -4.046875 C 3.375 -4.460938 3.441406 -5.050781 3.421875 -5.8125 L 3.421875 -18.25 L 13.09375 -18.25 C 14.800781 -18.25 16.144531 -17.765625 17.125 -16.796875 C 18.101562 -15.828125 18.59375 -14.304688 18.59375 -12.234375 L 18.59375 0 L 14 0 L 14 -12.46875 C 14 -14.019531 13.273438 -14.796875 11.828125 -14.796875 L 8.046875 -14.796875 L 8.046875 -6.421875 C 8.046875 -4.804688 7.796875 -3.519531 7.296875 -2.5625 C 6.796875 -1.601562 6.039062 -0.882812 5.03125 -0.40625 C 4.019531 0.0703125 2.660156 0.390625 0.953125 0.546875 Z M 0.578125 -2.59375 "/></g></g></g><g fill="#112c59" fill-opacity="1"><g transform="translate(128.058469, 174.962548)"><g><path d="M 12.203125 -12.46875 C 12.203125 -14.019531 11.488281 -14.796875 10.0625 -14.796875 L 1.71875 -14.796875 L 1.71875 -18.25 L 11.3125 -18.25 C 13.019531 -18.25 14.367188 -17.765625 15.359375 -16.796875 C 16.347656 -15.828125 16.84375 -14.304688 16.84375 -12.234375 L 16.84375 0 L 12.203125 0 Z M 1.53125 -8.71875 L 2.171875 -10.859375 L 6.171875 -10.859375 L 6.171875 0 L 1.53125 0 Z M 1.53125 -8.71875 "/></g></g></g><g fill="#112c59" fill-opacity="1"><g transform="translate(146.369127, 174.962548)"><g/></g></g><g fill="#112c59" fill-opacity="1"><g transform="translate(152.760282, 174.962548)"><g><path d="M 1.953125 -14.5 L 1.5625 -18.25 L 6.171875 -18.25 L 6.546875 -14.5 L 6.546875 -9.515625 L 6.515625 -7.515625 L 1.953125 -6.703125 Z M 1.953125 -14.5 "/></g></g></g><g fill="#112c59" fill-opacity="1"><g transform="translate(161.036834, 174.962548)"><g><path d="M 17.0625 -18.25 C 17.039062 -14.007812 16.875 -10.804688 16.5625 -8.640625 C 16.257812 -6.484375 15.445312 -4.660156 14.125 -3.171875 C 12.800781 -1.691406 10.671875 -0.664062 7.734375 -0.09375 L 0.890625 1.25 L 0.25 -2.359375 L 5.34375 -3.328125 L 1.65625 -18.25 L 6.265625 -18.25 L 9.484375 -4.34375 C 10.441406 -4.8125 11.132812 -5.523438 11.5625 -6.484375 C 11.988281 -7.441406 12.25 -8.601562 12.34375 -9.96875 C 12.445312 -11.332031 12.5 -13.398438 12.5 -16.171875 L 12.5 -18.25 Z M 17.0625 -18.25 "/></g></g></g><g fill="#112c59" fill-opacity="1"><g transform="translate(179.443365, 174.962548)"><g><path d="M 12.015625 -7.484375 L 16.234375 0 L 0.953125 0 L 0.953125 -3.453125 L 9.65625 -3.453125 L 1.3125 -18.25 L 5.9375 -18.25 L 9.546875 -11.828125 L 12.171875 -18.25 L 16.71875 -18.25 Z M 12.015625 -7.484375 "/></g></g></g><g fill="#112c59" fill-opacity="1"><g transform="translate(197.306644, 174.962548)"><g><path d="M 19.265625 -9.109375 C 19.265625 -6.148438 18.578125 -3.820312 17.203125 -2.125 C 15.828125 -0.425781 13.894531 0.421875 11.40625 0.421875 C 10.507812 0.421875 9.53125 0.289062 8.46875 0.03125 L 8.890625 -3.421875 C 9.671875 -3.242188 10.328125 -3.15625 10.859375 -3.15625 C 12.304688 -3.15625 13.335938 -3.640625 13.953125 -4.609375 C 14.578125 -5.585938 14.890625 -7.023438 14.890625 -8.921875 C 14.890625 -11.023438 14.59375 -12.550781 14 -13.5 C 13.414062 -14.445312 12.519531 -14.921875 11.3125 -14.921875 C 10.457031 -14.921875 9.738281 -14.664062 9.15625 -14.15625 C 8.570312 -13.644531 8.203125 -12.953125 8.046875 -12.078125 L 6.078125 0 L 1.46875 0 L 3.671875 -12.296875 L 1.125 -18.25 L 5.90625 -18.25 L 7.1875 -14.609375 C 7.632812 -15.921875 8.304688 -16.898438 9.203125 -17.546875 C 10.097656 -18.203125 11.117188 -18.53125 12.265625 -18.53125 C 14.546875 -18.53125 16.28125 -17.742188 17.46875 -16.171875 C 18.664062 -14.609375 19.265625 -12.253906 19.265625 -9.109375 Z M 19.265625 -9.109375 "/></g></g></g><g fill="#112c59" fill-opacity="1"><g transform="translate(217.822255, 174.962548)"><g><path d="M 13.90625 0 L 7.890625 -9.296875 L 5.046875 0 L 0.671875 0 L 4.21875 -10.953125 L 5.203125 -13.421875 L 2.234375 -18.25 L 6.875 -18.25 L 9.421875 -14.09375 L 11.734375 -10.609375 L 12.59375 -13.515625 L 13.875 -18.25 L 18.25 -18.25 L 14.40625 -6.609375 L 18.828125 0 Z M 13.90625 0 "/></g></g></g><g clip-path="url(#0ad9e4fe9c)"><g clip-path="url(#b65b6c84a3)"><g transform="matrix(1, 0, 0, 1, 108, 33)"><g clip-path="url(#e3af80f5d0)"><g clip-path="url(#8b67ff12c7)"><g clip-path="url(#31f13f659e)"><path fill="#ffffff" d="M 0.046875 0.542969 L 72.425781 0.542969 L 72.425781 72.921875 L 0.046875 72.921875 Z M 0.046875 0.542969 " fill-opacity="1" fill-rule="nonzero"/></g></g></g></g></g></g><path fill="#052554" d="M 136.382812 27.875 C 116.515625 33.089844 103.128906 49.992188 103.128906 70.09375 C 103.128906 81.613281 106.832031 90.699219 114.917969 99.359375 C 123.25 108.273438 133.523438 112.566406 146.488281 112.566406 C 154.570312 112.566406 160.125 111.21875 166.945312 107.519531 C 180.753906 100.203125 189.171875 86.15625 189.253906 70.09375 C 189.339844 51.507812 178.480469 35.949219 160.800781 29.386719 C 154.570312 27.03125 142.53125 26.277344 136.382812 27.875 Z M 130.742188 50.328125 C 131.667969 51.84375 131.5 52.433594 129.3125 55.207031 C 122.410156 63.703125 122.578125 75.558594 129.648438 83.800781 C 132.597656 87.164062 132.597656 87.164062 130.996094 89.101562 L 129.398438 91.035156 L 126.703125 88.175781 C 125.269531 86.660156 123 83.382812 121.820312 81.109375 C 119.882812 77.410156 119.546875 75.8125 119.546875 69.253906 C 119.546875 61.179688 120.726562 57.898438 125.691406 51.339844 C 128.050781 48.226562 129.226562 47.972656 130.742188 50.328125 Z M 166.777344 51.339844 C 173.597656 59.496094 175.28125 70.765625 170.988281 80.269531 C 169.722656 83.128906 167.449219 86.660156 165.933594 88.089844 C 163.242188 90.699219 163.15625 90.699219 161.726562 89.101562 C 160.210938 87.417969 160.292969 87.332031 162.820312 84.054688 C 166.691406 79.261719 167.957031 75.476562 167.957031 69.253906 C 167.957031 63.28125 166.691406 59.496094 163.324219 55.039062 C 161.472656 52.601562 161.304688 51.84375 162.0625 50.414062 C 163.324219 48.058594 164.082031 48.226562 166.777344 51.339844 Z M 137.648438 59.160156 C 138.574219 60.253906 138.488281 61.011719 137.394531 63.449219 C 135.457031 67.316406 135.625 72.027344 137.648438 75.390625 C 139.078125 77.664062 139.164062 78.417969 138.320312 79.765625 C 137.730469 80.691406 136.972656 81.445312 136.636719 81.445312 C 135.542969 81.445312 131.753906 76.234375 131.25 74.046875 C 130.996094 72.785156 130.660156 71.355469 130.492188 70.765625 C 129.902344 69 132.257812 61.347656 133.859375 59.582031 C 135.710938 57.5625 136.300781 57.476562 137.648438 59.160156 Z M 160.125 62.101562 C 161.21875 64.207031 162.0625 67.148438 162.0625 69.167969 C 162.0625 73.035156 159.707031 78.671875 157.433594 80.605469 C 156.167969 81.699219 155.832031 81.613281 154.402344 79.847656 C 152.800781 77.832031 152.800781 77.832031 154.484375 75.894531 C 157.261719 73.035156 157.601562 67.90625 155.410156 64.121094 C 153.644531 61.179688 153.644531 60.925781 154.992188 59.414062 C 156.925781 57.308594 157.851562 57.730469 160.125 62.101562 Z M 149.601562 66.054688 C 152.71875 68.832031 150.695312 74.046875 146.488281 74.046875 C 144.972656 74.046875 143.457031 73.375 142.53125 72.195312 C 140.679688 69.925781 140.679688 68.914062 142.363281 66.476562 C 143.878906 64.289062 147.414062 64.039062 149.601562 66.054688 Z M 149.601562 66.054688 " fill-opacity="1" fill-rule="nonzero"/></svg>