<svg xmlns="http://www.w3.org/2000/svg" xmlns:xlink="http://www.w3.org/1999/xlink" width="384" zoomAndPan="magnify" viewBox="0 0 288 219.75" height="293" preserveAspectRatio="xMidYMid meet" version="1.0"><defs><g/><clipPath id="12dd3c1759"><path d="M 0.164062 0 L 287.316406 0 L 287.316406 219.433594 L 0.164062 219.433594 Z M 0.164062 0 " clip-rule="nonzero"/></clipPath><clipPath id="f76055a474"><path d="M 34.625 0 L 252.699219 0 C 261.835938 0 270.601562 3.628906 277.066406 10.09375 C 283.527344 16.554688 287.160156 25.320312 287.160156 34.460938 L 287.160156 184.976562 C 287.160156 194.113281 283.527344 202.878906 277.066406 209.34375 C 270.601562 215.804688 261.835938 219.433594 252.699219 219.433594 L 34.625 219.433594 C 25.484375 219.433594 16.71875 215.804688 10.257812 209.34375 C 3.792969 202.878906 0.164062 194.113281 0.164062 184.976562 L 0.164062 34.460938 C 0.164062 25.320312 3.792969 16.554688 10.257812 10.09375 C 16.71875 3.628906 25.484375 0 34.625 0 Z M 34.625 0 " clip-rule="nonzero"/></clipPath><clipPath id="37a490ac27"><path d="M 0.164062 0 L 287.316406 0 L 287.316406 219.433594 L 0.164062 219.433594 Z M 0.164062 0 " clip-rule="nonzero"/></clipPath><clipPath id="4a95c2d725"><path d="M 34.625 0 L 252.699219 0 C 261.835938 0 270.601562 3.628906 277.066406 10.09375 C 283.527344 16.554688 287.160156 25.320312 287.160156 34.460938 L 287.160156 184.976562 C 287.160156 194.113281 283.527344 202.878906 277.066406 209.34375 C 270.601562 215.804688 261.835938 219.433594 252.699219 219.433594 L 34.625 219.433594 C 25.484375 219.433594 16.71875 215.804688 10.257812 209.34375 C 3.792969 202.878906 0.164062 194.113281 0.164062 184.976562 L 0.164062 34.460938 C 0.164062 25.320312 3.792969 16.554688 10.257812 10.09375 C 16.71875 3.628906 25.484375 0 34.625 0 Z M 34.625 0 " clip-rule="nonzero"/></clipPath><clipPath id="533647f146"><rect x="0" width="288" y="0" height="220"/></clipPath><clipPath id="660774727a"><path d="M 106.894531 26.96875 L 179.277344 26.96875 L 179.277344 99.351562 L 106.894531 99.351562 Z M 106.894531 26.96875 " clip-rule="nonzero"/></clipPath><clipPath id="e79522f3ff"><path d="M 143.085938 26.96875 C 123.097656 26.96875 106.894531 43.171875 106.894531 63.160156 C 106.894531 83.148438 123.097656 99.351562 143.085938 99.351562 C 163.074219 99.351562 179.277344 83.148438 179.277344 63.160156 C 179.277344 43.171875 163.074219 26.96875 143.085938 26.96875 Z M 143.085938 26.96875 " clip-rule="nonzero"/></clipPath><clipPath id="2654a3fb91"><path d="M 0.894531 0.96875 L 73.277344 0.96875 L 73.277344 73.351562 L 0.894531 73.351562 Z M 0.894531 0.96875 " clip-rule="nonzero"/></clipPath><clipPath id="c6a4cdd5fe"><path d="M 37.085938 0.96875 C 17.097656 0.96875 0.894531 17.171875 0.894531 37.160156 C 0.894531 57.148438 17.097656 73.351562 37.085938 73.351562 C 57.074219 73.351562 73.277344 57.148438 73.277344 37.160156 C 73.277344 17.171875 57.074219 0.96875 37.085938 0.96875 Z M 37.085938 0.96875 " clip-rule="nonzero"/></clipPath><clipPath id="49014d8eda"><rect x="0" width="74" y="0" height="74"/></clipPath></defs><g clip-path="url(#12dd3c1759)"><g clip-path="url(#f76055a474)"><g transform="matrix(1, 0, 0, 1, 0.000000000000000028, 0.000000000000007073)"><g clip-path="url(#533647f146)"><g clip-path="url(#37a490ac27)"><g clip-path="url(#4a95c2d725)"><path fill="#cbe3c3" d="M 0.164062 0 L 287.316406 0 L 287.316406 219.433594 L 0.164062 219.433594 Z M 0.164062 0 " fill-opacity="1" fill-rule="nonzero"/></g></g></g></g></g></g><g clip-path="url(#660774727a)"><g clip-path="url(#e79522f3ff)"><g transform="matrix(1, 0, 0, 1, 106, 26)"><g clip-path="url(#49014d8eda)"><g clip-path="url(#2654a3fb91)"><g clip-path="url(#c6a4cdd5fe)"><path fill="#ffffff" d="M 0.894531 0.96875 L 73.277344 0.96875 L 73.277344 73.351562 L 0.894531 73.351562 Z M 0.894531 0.96875 " fill-opacity="1" fill-rule="nonzero"/></g></g></g></g></g></g><path fill="#052554" d="M 134.242188 22.585938 C 119.371094 25.402344 105.75 39.257812 103.011719 54.363281 C 100.273438 68.921875 104.109375 81.679688 114.203125 91.777344 C 124.535156 102.027344 138 106.019531 152.398438 103.046875 C 167.035156 100.070312 180.5 86.609375 183.472656 71.972656 C 186.449219 57.492188 182.535156 44.109375 172.203125 33.777344 C 162.183594 23.679688 148.878906 19.769531 134.242188 22.585938 Z M 147.546875 52.953125 C 147.546875 61.09375 147.3125 68.292969 147.078125 69 C 146.375 70.722656 140.113281 70.722656 139.40625 69 C 139.171875 68.292969 138.9375 61.09375 138.9375 52.953125 L 138.9375 38.160156 L 147.546875 38.160156 Z M 146.6875 80.347656 C 148.332031 81.367188 148.09375 85.90625 146.375 87.15625 C 143.007812 89.664062 138.703125 87.628906 138.703125 83.636719 C 138.703125 80.738281 139.878906 79.644531 143.242188 79.644531 C 144.574219 79.644531 146.0625 79.957031 146.6875 80.347656 Z M 146.6875 80.347656 " fill-opacity="1" fill-rule="nonzero"/><g fill="#112c59" fill-opacity="1"><g transform="translate(53.126523, 145.607897)"><g/></g></g><g fill="#112c59" fill-opacity="1"><g transform="translate(58.920712, 145.607897)"><g><path d="M 11.0625 -11.296875 C 11.0625 -12.703125 10.414062 -13.40625 9.125 -13.40625 L 1.5625 -13.40625 L 1.5625 -16.546875 L 10.25 -16.546875 C 11.800781 -16.546875 13.023438 -16.101562 13.921875 -15.21875 C 14.816406 -14.34375 15.265625 -12.96875 15.265625 -11.09375 L 15.265625 0 L 11.0625 0 Z M 1.390625 -7.90625 L 1.96875 -9.84375 L 5.59375 -9.84375 L 5.59375 0 L 1.390625 0 Z M 1.390625 -7.90625 "/></g></g></g><g fill="#112c59" fill-opacity="1"><g transform="translate(75.514352, 145.607897)"><g><path d="M 10.75 -16.546875 C 12.289062 -16.546875 13.507812 -16.082031 14.40625 -15.15625 C 15.3125 -14.226562 15.765625 -12.828125 15.765625 -10.953125 L 15.765625 0 L 11.5625 0 L 11.5625 -11.15625 C 11.5625 -12.65625 10.914062 -13.40625 9.625 -13.40625 L 5.734375 -13.40625 L 5.734375 0 L 1.5625 0 L 1.5625 -16.546875 Z M 10.75 -16.546875 "/></g></g></g><g fill="#112c59" fill-opacity="1"><g transform="translate(92.745092, 145.607897)"><g><path d="M 1.53125 -3.125 L 7.390625 -3.125 C 8.503906 -3.125 9.375 -3.484375 10 -4.203125 C 10.632812 -4.929688 10.953125 -5.9375 10.953125 -7.21875 L 10.953125 -9.359375 C 10.953125 -10.578125 10.675781 -11.554688 10.125 -12.296875 C 9.570312 -13.035156 8.765625 -13.40625 7.703125 -13.40625 L 5.625 -13.40625 L 5.09375 -10.953125 C 5.039062 -10.703125 5.015625 -10.457031 5.015625 -10.21875 C 5.015625 -9.738281 5.15625 -9.367188 5.4375 -9.109375 C 5.726562 -8.847656 6.203125 -8.648438 6.859375 -8.515625 L 6.203125 -5.90625 C 4.484375 -5.945312 3.234375 -6.332031 2.453125 -7.0625 C 1.679688 -7.800781 1.296875 -8.796875 1.296875 -10.046875 C 1.296875 -10.515625 1.335938 -10.941406 1.421875 -11.328125 L 2.578125 -16.546875 L 8.6875 -16.546875 C 10.695312 -16.546875 12.269531 -15.878906 13.40625 -14.546875 C 14.550781 -13.210938 15.125 -11.414062 15.125 -9.15625 L 15.125 -7.421875 C 15.125 -5.097656 14.515625 -3.28125 13.296875 -1.96875 C 12.078125 -0.65625 10.4375 0 8.375 0 L 1.53125 0 Z M 1.53125 -3.125 "/></g></g></g><g fill="#112c59" fill-opacity="1"><g transform="translate(108.875384, 145.607897)"><g><path d="M 18.546875 -11.703125 C 18.578125 -7.742188 17.425781 -4.753906 15.09375 -2.734375 C 12.757812 -0.710938 9.140625 0.296875 4.234375 0.296875 L 3.328125 0.296875 L 1.15625 -16.546875 L 5.125 -16.546875 L 5.96875 -9.390625 C 6.738281 -9.773438 7.257812 -10.351562 7.53125 -11.125 C 7.800781 -11.894531 7.925781 -13.050781 7.90625 -14.59375 L 7.90625 -16.515625 L 11.875 -16.515625 L 11.875 -14.6875 C 11.832031 -12.5625 11.40625 -10.835938 10.59375 -9.515625 C 9.789062 -8.191406 8.363281 -7.179688 6.3125 -6.484375 L 6.71875 -3.15625 C 9.476562 -3.332031 11.445312 -4.128906 12.625 -5.546875 C 13.800781 -6.960938 14.382812 -8.9375 14.375 -11.46875 L 14.3125 -16.546875 L 18.515625 -16.546875 Z M 18.546875 -11.703125 "/></g></g></g><g fill="#112c59" fill-opacity="1"><g transform="translate(128.509739, 145.607897)"><g><path d="M 17.46875 -8.25 C 17.46875 -5.570312 16.84375 -3.460938 15.59375 -1.921875 C 14.351562 -0.390625 12.601562 0.375 10.34375 0.375 C 9.53125 0.375 8.640625 0.257812 7.671875 0.03125 L 8.046875 -3.09375 C 8.765625 -2.945312 9.363281 -2.875 9.84375 -2.875 C 11.15625 -2.875 12.09375 -3.3125 12.65625 -4.1875 C 13.21875 -5.0625 13.5 -6.359375 13.5 -8.078125 C 13.5 -9.992188 13.234375 -11.378906 12.703125 -12.234375 C 12.171875 -13.097656 11.351562 -13.53125 10.25 -13.53125 C 9.476562 -13.53125 8.828125 -13.296875 8.296875 -12.828125 C 7.765625 -12.367188 7.429688 -11.742188 7.296875 -10.953125 L 5.5 0 L 1.328125 0 L 3.328125 -11.15625 L 1.015625 -16.546875 L 5.359375 -16.546875 L 6.515625 -13.234375 C 6.921875 -14.429688 7.53125 -15.320312 8.34375 -15.90625 C 9.15625 -16.5 10.082031 -16.796875 11.125 -16.796875 C 13.1875 -16.796875 14.757812 -16.085938 15.84375 -14.671875 C 16.925781 -13.253906 17.46875 -11.113281 17.46875 -8.25 Z M 17.46875 -8.25 "/></g></g></g><g fill="#112c59" fill-opacity="1"><g transform="translate(147.101567, 145.607897)"><g/></g></g><g fill="#112c59" fill-opacity="1"><g transform="translate(152.893413, 145.607897)"><g><path d="M 6.515625 -20.5625 L 9.125 -20.5625 L 2.984375 4.640625 L 0.375 4.640625 Z M 6.515625 -20.5625 "/></g></g></g><g fill="#112c59" fill-opacity="1"><g transform="translate(162.768511, 145.607897)"><g><path d="M 10.6875 -16.546875 C 12.226562 -16.546875 13.445312 -16.101562 14.34375 -15.21875 C 15.25 -14.34375 15.703125 -12.96875 15.703125 -11.09375 L 15.703125 0 L 1.53125 0 L 1.53125 -16.546875 Z M 11.5 -3.125 L 11.5 -11.296875 C 11.5 -12.703125 10.851562 -13.40625 9.5625 -13.40625 L 5.703125 -13.40625 L 5.703125 -3.125 Z M 11.5 -3.125 "/></g></g></g><g fill="#112c59" fill-opacity="1"><g transform="translate(179.912375, 145.607897)"><g><path d="M 1.765625 -13.15625 L 1.421875 -16.546875 L 5.59375 -16.546875 L 5.9375 -13.15625 L 5.9375 -8.625 L 5.90625 -6.8125 L 1.765625 -6.078125 Z M 1.765625 -13.15625 "/></g></g></g><g fill="#112c59" fill-opacity="1"><g transform="translate(187.412814, 145.607897)"><g><path d="M 8.40625 -11.296875 C 8.40625 -12.703125 7.753906 -13.40625 6.453125 -13.40625 L 0.8125 -13.40625 L 0.8125 -16.546875 L 7.59375 -16.546875 C 9.132812 -16.546875 10.351562 -16.101562 11.25 -15.21875 C 12.144531 -14.34375 12.59375 -12.96875 12.59375 -11.09375 L 12.59375 0 L 8.40625 0 Z M 8.40625 -11.296875 "/></g></g></g><g fill="#112c59" fill-opacity="1"><g transform="translate(201.544918, 145.607897)"><g><path d="M 0.84375 -3.125 L 5.46875 -3.125 C 6.59375 -3.125 7.421875 -3.488281 7.953125 -4.21875 C 8.484375 -4.957031 8.75 -5.945312 8.75 -7.1875 L 8.75 -9.359375 C 8.75 -10.585938 8.484375 -11.566406 7.953125 -12.296875 C 7.421875 -13.035156 6.59375 -13.40625 5.46875 -13.40625 L 0.84375 -13.40625 L 0.84375 -16.546875 L 6.609375 -16.546875 C 8.671875 -16.546875 10.242188 -15.882812 11.328125 -14.5625 C 12.410156 -13.238281 12.953125 -11.425781 12.953125 -9.125 L 12.953125 -7.421875 C 12.953125 -5.117188 12.410156 -3.304688 11.328125 -1.984375 C 10.242188 -0.660156 8.671875 0 6.609375 0 L 0.84375 0 Z M 0.84375 -3.125 "/></g></g></g><g fill="#112c59" fill-opacity="1"><g transform="translate(215.590146, 145.607897)"><g><path d="M 17.46875 -8.25 C 17.46875 -5.570312 16.84375 -3.460938 15.59375 -1.921875 C 14.351562 -0.390625 12.601562 0.375 10.34375 0.375 C 9.53125 0.375 8.640625 0.257812 7.671875 0.03125 L 8.046875 -3.09375 C 8.765625 -2.945312 9.363281 -2.875 9.84375 -2.875 C 11.15625 -2.875 12.09375 -3.3125 12.65625 -4.1875 C 13.21875 -5.0625 13.5 -6.359375 13.5 -8.078125 C 13.5 -9.992188 13.234375 -11.378906 12.703125 -12.234375 C 12.171875 -13.097656 11.351562 -13.53125 10.25 -13.53125 C 9.476562 -13.53125 8.828125 -13.296875 8.296875 -12.828125 C 7.765625 -12.367188 7.429688 -11.742188 7.296875 -10.953125 L 5.5 0 L 1.328125 0 L 3.328125 -11.15625 L 1.015625 -16.546875 L 5.359375 -16.546875 L 6.515625 -13.234375 C 6.921875 -14.429688 7.53125 -15.320312 8.34375 -15.90625 C 9.15625 -16.5 10.082031 -16.796875 11.125 -16.796875 C 13.1875 -16.796875 14.757812 -16.085938 15.84375 -14.671875 C 16.925781 -13.253906 17.46875 -11.113281 17.46875 -8.25 Z M 17.46875 -8.25 "/></g></g></g><g fill="#112c59" fill-opacity="1"><g transform="translate(48.409234, 182.316134)"><g><path d="M 15.46875 -16.546875 C 15.445312 -12.703125 15.296875 -9.796875 15.015625 -7.828125 C 14.734375 -5.867188 13.992188 -4.21875 12.796875 -2.875 C 11.609375 -1.539062 9.679688 -0.613281 7.015625 -0.09375 L 0.8125 1.125 L 0.234375 -2.140625 L 4.84375 -3.015625 L 1.5 -16.546875 L 5.671875 -16.546875 L 8.609375 -3.9375 C 9.472656 -4.363281 10.097656 -5.007812 10.484375 -5.875 C 10.867188 -6.75 11.101562 -7.800781 11.1875 -9.03125 C 11.28125 -10.269531 11.328125 -12.144531 11.328125 -14.65625 L 11.328125 -16.546875 Z M 15.46875 -16.546875 "/></g></g></g><g fill="#112c59" fill-opacity="1"><g transform="translate(65.08975, 182.316134)"><g><path d="M 1.765625 -13.15625 L 1.421875 -16.546875 L 5.59375 -16.546875 L 5.9375 -13.15625 L 5.9375 -8.625 L 5.90625 -6.8125 L 1.765625 -6.078125 Z M 1.765625 -13.15625 "/></g></g></g><g fill="#112c59" fill-opacity="1"><g transform="translate(72.590189, 182.316134)"><g><path d="M 1.765625 -13.15625 L 1.421875 -16.546875 L 5.59375 -16.546875 L 5.9375 -13.15625 L 5.9375 -8.625 L 5.90625 -6.8125 L 1.765625 -6.078125 Z M 1.765625 -13.15625 "/></g></g></g><g fill="#112c59" fill-opacity="1"><g transform="translate(80.090627, 182.316134)"><g><path d="M 16.140625 -9.5625 C 16.253906 -6.164062 15.191406 -3.707031 12.953125 -2.1875 C 10.710938 -0.664062 7.445312 0.160156 3.15625 0.296875 L 1.5625 -13.40625 L 1.15625 -16.546875 L 10.046875 -16.546875 C 11.941406 -16.546875 13.410156 -16.007812 14.453125 -14.9375 C 15.492188 -13.863281 16.046875 -12.390625 16.109375 -10.515625 Z M 6.8125 -3.421875 C 8.175781 -3.515625 9.238281 -3.796875 10 -4.265625 C 10.769531 -4.742188 11.300781 -5.410156 11.59375 -6.265625 C 11.894531 -7.128906 12.03125 -8.253906 12 -9.640625 L 12 -10.515625 C 12 -11.398438 11.796875 -12.101562 11.390625 -12.625 C 10.984375 -13.144531 10.429688 -13.40625 9.734375 -13.40625 L 5.734375 -13.40625 Z M 6.8125 -3.421875 "/></g></g></g><g fill="#112c59" fill-opacity="1"><g transform="translate(97.610963, 182.316134)"><g><path d="M 13.5 -16.546875 L 13.5 -13.09375 L 8.28125 0 L 4.109375 0 L 9.296875 -13.40625 L 0.890625 -13.40625 L 0.890625 -20.765625 L 4.65625 -20.765625 L 4.65625 -16.546875 Z M 13.5 -16.546875 "/></g></g></g><g fill="#112c59" fill-opacity="1"><g transform="translate(112.032662, 182.316134)"><g/></g></g><g fill="#112c59" fill-opacity="1"><g transform="translate(117.824508, 182.316134)"><g><path d="M 10.6875 -16.546875 C 12.226562 -16.546875 13.445312 -16.101562 14.34375 -15.21875 C 15.25 -14.34375 15.703125 -12.96875 15.703125 -11.09375 L 15.703125 0 L 1.53125 0 L 1.53125 -16.546875 Z M 11.5 -3.125 L 11.5 -11.296875 C 11.5 -12.703125 10.851562 -13.40625 9.5625 -13.40625 L 5.703125 -13.40625 L 5.703125 -3.125 Z M 11.5 -3.125 "/></g></g></g><g fill="#112c59" fill-opacity="1"><g transform="translate(134.968371, 182.316134)"><g><path d="M 1.765625 -13.15625 L 1.421875 -16.546875 L 5.59375 -16.546875 L 5.9375 -13.15625 L 5.9375 -8.625 L 5.90625 -6.8125 L 1.765625 -6.078125 Z M 1.765625 -13.15625 "/></g></g></g><g fill="#112c59" fill-opacity="1"><g transform="translate(142.46881, 182.316134)"><g><path d="M 1.125 -3.125 L 5.359375 -3.125 L 5.359375 -11.5 C 5.359375 -12.195312 5.226562 -12.6875 4.96875 -12.96875 C 4.707031 -13.257812 4.304688 -13.445312 3.765625 -13.53125 L 1.734375 -13.8125 L 2.265625 -16.890625 L 5.875 -16.421875 C 7.050781 -16.265625 7.953125 -15.757812 8.578125 -14.90625 C 9.210938 -14.0625 9.53125 -12.960938 9.53125 -11.609375 L 9.53125 0 L 1.125 0 Z M 1.125 -3.125 "/></g></g></g><g fill="#112c59" fill-opacity="1"><g transform="translate(153.502278, 182.316134)"><g><path d="M 1.765625 -13.15625 L 1.421875 -16.546875 L 5.59375 -16.546875 L 5.9375 -13.15625 L 5.9375 -8.625 L 5.90625 -6.8125 L 1.765625 -6.078125 Z M 1.765625 -13.15625 "/></g></g></g><g fill="#112c59" fill-opacity="1"><g transform="translate(161.002717, 182.316134)"><g><path d="M 1.765625 -13.15625 L 1.421875 -16.546875 L 5.59375 -16.546875 L 5.9375 -13.15625 L 5.9375 -8.625 L 5.90625 -6.8125 L 1.765625 -6.078125 Z M 1.765625 -13.15625 "/></g></g></g><g fill="#112c59" fill-opacity="1"><g transform="translate(168.503156, 182.316134)"><g><path d="M 1.125 -3.125 L 5.359375 -3.125 L 5.359375 -11.5 C 5.359375 -12.195312 5.226562 -12.6875 4.96875 -12.96875 C 4.707031 -13.257812 4.304688 -13.445312 3.765625 -13.53125 L 1.734375 -13.8125 L 2.265625 -16.890625 L 5.875 -16.421875 C 7.050781 -16.265625 7.953125 -15.757812 8.578125 -14.90625 C 9.210938 -14.0625 9.53125 -12.960938 9.53125 -11.609375 L 9.53125 0 L 1.125 0 Z M 1.125 -3.125 "/></g></g></g><g fill="#112c59" fill-opacity="1"><g transform="translate(179.536624, 182.316134)"><g><path d="M 1.765625 -13.15625 L 1.421875 -16.546875 L 5.59375 -16.546875 L 5.9375 -13.15625 L 5.9375 0 L 1.765625 0 Z M 1.765625 -13.15625 "/></g></g></g><g fill="#112c59" fill-opacity="1"><g transform="translate(187.037063, 182.316134)"><g><path d="M 15.46875 -16.546875 C 15.445312 -12.703125 15.296875 -9.796875 15.015625 -7.828125 C 14.734375 -5.867188 13.992188 -4.21875 12.796875 -2.875 C 11.609375 -1.539062 9.679688 -0.613281 7.015625 -0.09375 L 0.8125 1.125 L 0.234375 -2.140625 L 4.84375 -3.015625 L 1.5 -16.546875 L 5.671875 -16.546875 L 8.609375 -3.9375 C 9.472656 -4.363281 10.097656 -5.007812 10.484375 -5.875 C 10.867188 -6.75 11.101562 -7.800781 11.1875 -9.03125 C 11.28125 -10.269531 11.328125 -12.144531 11.328125 -14.65625 L 11.328125 -16.546875 Z M 15.46875 -16.546875 "/></g></g></g><g fill="#112c59" fill-opacity="1"><g transform="translate(203.717578, 182.316134)"><g><path d="M 17.46875 -8.25 C 17.46875 -5.570312 16.84375 -3.460938 15.59375 -1.921875 C 14.351562 -0.390625 12.601562 0.375 10.34375 0.375 C 9.53125 0.375 8.640625 0.257812 7.671875 0.03125 L 8.046875 -3.09375 C 8.765625 -2.945312 9.363281 -2.875 9.84375 -2.875 C 11.15625 -2.875 12.09375 -3.3125 12.65625 -4.1875 C 13.21875 -5.0625 13.5 -6.359375 13.5 -8.078125 C 13.5 -9.992188 13.234375 -11.378906 12.703125 -12.234375 C 12.171875 -13.097656 11.351562 -13.53125 10.25 -13.53125 C 9.476562 -13.53125 8.828125 -13.296875 8.296875 -12.828125 C 7.765625 -12.367188 7.429688 -11.742188 7.296875 -10.953125 L 5.5 0 L 1.328125 0 L 3.328125 -11.15625 L 1.015625 -16.546875 L 5.359375 -16.546875 L 6.515625 -13.234375 C 6.921875 -14.429688 7.53125 -15.320312 8.34375 -15.90625 C 9.15625 -16.5 10.082031 -16.796875 11.125 -16.796875 C 13.1875 -16.796875 14.757812 -16.085938 15.84375 -14.671875 C 16.925781 -13.253906 17.46875 -11.113281 17.46875 -8.25 Z M 17.46875 -8.25 "/></g></g></g><g fill="#112c59" fill-opacity="1"><g transform="translate(222.309407, 182.316134)"><g><path d="M 11.0625 -11.296875 C 11.0625 -12.703125 10.414062 -13.40625 9.125 -13.40625 L 1.5625 -13.40625 L 1.5625 -16.546875 L 10.25 -16.546875 C 11.800781 -16.546875 13.023438 -16.101562 13.921875 -15.21875 C 14.816406 -14.34375 15.265625 -12.96875 15.265625 -11.09375 L 15.265625 0 L 11.0625 0 Z M 1.390625 -7.90625 L 1.96875 -9.84375 L 5.59375 -9.84375 L 5.59375 0 L 1.390625 0 Z M 1.390625 -7.90625 "/></g></g></g></svg>