<svg xmlns="http://www.w3.org/2000/svg" xmlns:xlink="http://www.w3.org/1999/xlink" width="384" zoomAndPan="magnify" viewBox="0 0 288 219.75" height="293" preserveAspectRatio="xMidYMid meet" version="1.0"><defs><g/><clipPath id="414809bd3c"><path d="M 0.164062 0 L 287.316406 0 L 287.316406 219.433594 L 0.164062 219.433594 Z M 0.164062 0 " clip-rule="nonzero"/></clipPath><clipPath id="6872ba0f8e"><path d="M 34.625 0 L 252.699219 0 C 261.835938 0 270.601562 3.628906 277.066406 10.09375 C 283.527344 16.554688 287.160156 25.320312 287.160156 34.460938 L 287.160156 184.976562 C 287.160156 194.113281 283.527344 202.878906 277.066406 209.34375 C 270.601562 215.804688 261.835938 219.433594 252.699219 219.433594 L 34.625 219.433594 C 25.484375 219.433594 16.71875 215.804688 10.257812 209.34375 C 3.792969 202.878906 0.164062 194.113281 0.164062 184.976562 L 0.164062 34.460938 C 0.164062 25.320312 3.792969 16.554688 10.257812 10.09375 C 16.71875 3.628906 25.484375 0 34.625 0 Z M 34.625 0 " clip-rule="nonzero"/></clipPath><clipPath id="5c89ba8e01"><path d="M 0.164062 0 L 287.316406 0 L 287.316406 219.433594 L 0.164062 219.433594 Z M 0.164062 0 " clip-rule="nonzero"/></clipPath><clipPath id="99949971ef"><path d="M 34.625 0 L 252.699219 0 C 261.835938 0 270.601562 3.628906 277.066406 10.09375 C 283.527344 16.554688 287.160156 25.320312 287.160156 34.460938 L 287.160156 184.976562 C 287.160156 194.113281 283.527344 202.878906 277.066406 209.34375 C 270.601562 215.804688 261.835938 219.433594 252.699219 219.433594 L 34.625 219.433594 C 25.484375 219.433594 16.71875 215.804688 10.257812 209.34375 C 3.792969 202.878906 0.164062 194.113281 0.164062 184.976562 L 0.164062 34.460938 C 0.164062 25.320312 3.792969 16.554688 10.257812 10.09375 C 16.71875 3.628906 25.484375 0 34.625 0 Z M 34.625 0 " clip-rule="nonzero"/></clipPath><clipPath id="74146873a9"><rect x="0" width="288" y="0" height="220"/></clipPath><clipPath id="901af55d06"><path d="M 111.515625 27.054688 L 183.894531 27.054688 L 183.894531 99.433594 L 111.515625 99.433594 Z M 111.515625 27.054688 " clip-rule="nonzero"/></clipPath><clipPath id="d0a61aff7b"><path d="M 147.707031 27.054688 C 127.71875 27.054688 111.515625 43.257812 111.515625 63.246094 C 111.515625 83.230469 127.71875 99.433594 147.707031 99.433594 C 167.691406 99.433594 183.894531 83.230469 183.894531 63.246094 C 183.894531 43.257812 167.691406 27.054688 147.707031 27.054688 Z M 147.707031 27.054688 " clip-rule="nonzero"/></clipPath><clipPath id="210d8e1dee"><path d="M 0.515625 0.0546875 L 72.894531 0.0546875 L 72.894531 72.433594 L 0.515625 72.433594 Z M 0.515625 0.0546875 " clip-rule="nonzero"/></clipPath><clipPath id="b19827cb9b"><path d="M 36.707031 0.0546875 C 16.71875 0.0546875 0.515625 16.257812 0.515625 36.246094 C 0.515625 56.230469 16.71875 72.433594 36.707031 72.433594 C 56.691406 72.433594 72.894531 56.230469 72.894531 36.246094 C 72.894531 16.257812 56.691406 0.0546875 36.707031 0.0546875 Z M 36.707031 0.0546875 " clip-rule="nonzero"/></clipPath><clipPath id="64850672b8"><rect x="0" width="73" y="0" height="73"/></clipPath></defs><g clip-path="url(#414809bd3c)"><g clip-path="url(#6872ba0f8e)"><g transform="matrix(1, 0, 0, 1, 0.000000000000000028, 0.000000000000007073)"><g clip-path="url(#74146873a9)"><g clip-path="url(#5c89ba8e01)"><g clip-path="url(#99949971ef)"><path fill="#d1d7ed" d="M 0.164062 0 L 287.316406 0 L 287.316406 219.433594 L 0.164062 219.433594 Z M 0.164062 0 " fill-opacity="1" fill-rule="nonzero"/></g></g></g></g></g></g><g clip-path="url(#901af55d06)"><g clip-path="url(#d0a61aff7b)"><g transform="matrix(1, 0, 0, 1, 111, 27)"><g clip-path="url(#64850672b8)"><g clip-path="url(#210d8e1dee)"><g clip-path="url(#b19827cb9b)"><path fill="#ffffff" d="M 0.515625 0.0546875 L 72.894531 0.0546875 L 72.894531 72.433594 L 0.515625 72.433594 Z M 0.515625 0.0546875 " fill-opacity="1" fill-rule="nonzero"/></g></g></g></g></g></g><path fill="#052554" d="M 142.148438 21.964844 C 132.527344 23.226562 125.035156 27.011719 118.175781 33.792969 C 107.84375 44.125 103.980469 58.003906 107.371094 72.511719 C 108.871094 78.980469 111 83.238281 115.257812 88.519531 C 127.007812 103.1875 147.90625 107.917969 165.097656 99.796875 C 172.507812 96.328125 180.789062 88.046875 184.257812 80.636719 C 195.296875 57.136719 181.972656 28.511719 157.367188 23.070312 C 149.957031 21.414062 147.351562 21.253906 142.148438 21.964844 Z M 170.457031 50.117188 C 171.246094 50.984375 171.640625 52.246094 171.40625 53.113281 C 170.773438 55.085938 143.171875 82.527344 141.832031 82.527344 C 140.335938 82.527344 125.984375 68.332031 125.984375 66.835938 C 125.984375 65.257812 128.347656 62.8125 129.925781 62.8125 C 130.714844 62.8125 133.710938 65.179688 136.550781 68.097656 L 141.832031 73.378906 L 154.214844 61 C 160.996094 54.21875 167.144531 48.617188 167.855469 48.617188 C 168.566406 48.617188 169.75 49.328125 170.457031 50.117188 Z M 170.457031 50.117188 " fill-opacity="1" fill-rule="nonzero"/><g fill="#112c59" fill-opacity="1"><g transform="translate(49.93029, 165.834885)"><g><path d="M 11.796875 -18.25 C 13.492188 -18.25 14.835938 -17.765625 15.828125 -16.796875 C 16.816406 -15.828125 17.3125 -14.304688 17.3125 -12.234375 L 17.3125 0 L 1.6875 0 L 1.6875 -18.25 Z M 12.6875 -3.453125 L 12.6875 -12.46875 C 12.6875 -14.019531 11.972656 -14.796875 10.546875 -14.796875 L 6.296875 -14.796875 L 6.296875 -3.453125 Z M 12.6875 -3.453125 "/></g></g></g><g fill="#112c59" fill-opacity="1"><g transform="translate(68.84811, 165.834885)"><g><path d="M 1.953125 -14.5 L 1.5625 -18.25 L 6.171875 -18.25 L 6.546875 -14.5 L 6.546875 0 L 1.953125 0 Z M 1.953125 -14.5 "/></g></g></g><g fill="#112c59" fill-opacity="1"><g transform="translate(77.124662, 165.834885)"><g><path d="M 9.265625 -12.46875 C 9.265625 -14.019531 8.550781 -14.796875 7.125 -14.796875 L 0.890625 -14.796875 L 0.890625 -18.25 L 8.375 -18.25 C 10.070312 -18.25 11.414062 -17.765625 12.40625 -16.796875 C 13.40625 -15.828125 13.90625 -14.304688 13.90625 -12.234375 L 13.90625 0 L 9.265625 0 Z M 9.265625 -12.46875 "/></g></g></g><g fill="#112c59" fill-opacity="1"><g transform="translate(92.719088, 165.834885)"><g><path d="M 1.953125 -14.5 L 1.5625 -18.25 L 6.171875 -18.25 L 6.546875 -14.5 L 6.546875 -9.515625 L 6.515625 -7.515625 L 1.953125 -6.703125 Z M 1.953125 -14.5 "/></g></g></g><g fill="#112c59" fill-opacity="1"><g transform="translate(100.99564, 165.834885)"><g><path d="M 11.859375 -18.25 C 13.554688 -18.25 14.898438 -17.734375 15.890625 -16.703125 C 16.878906 -15.679688 17.375 -14.140625 17.375 -12.078125 L 17.375 0 L 12.75 0 L 12.75 -12.296875 C 12.75 -13.960938 12.035156 -14.796875 10.609375 -14.796875 L 6.328125 -14.796875 L 6.328125 0 L 1.71875 0 L 1.71875 -18.25 Z M 11.859375 -18.25 "/></g></g></g><g fill="#112c59" fill-opacity="1"><g transform="translate(120.009332, 165.834885)"><g><path d="M 14.890625 -18.25 L 14.890625 -14.4375 L 9.140625 0 L 4.53125 0 L 10.25 -14.796875 L 0.984375 -14.796875 L 0.984375 -22.90625 L 5.140625 -22.90625 L 5.140625 -18.25 Z M 14.890625 -18.25 "/></g></g></g><g fill="#112c59" fill-opacity="1"><g transform="translate(135.923314, 165.834885)"><g/></g></g><g fill="#112c59" fill-opacity="1"><g transform="translate(142.314469, 165.834885)"><g><path d="M 0.578125 -2.59375 C 1.390625 -2.675781 1.992188 -2.832031 2.390625 -3.0625 C 2.796875 -3.300781 3.070312 -3.628906 3.21875 -4.046875 C 3.375 -4.460938 3.441406 -5.050781 3.421875 -5.8125 L 3.421875 -18.25 L 13.09375 -18.25 C 14.800781 -18.25 16.144531 -17.765625 17.125 -16.796875 C 18.101562 -15.828125 18.59375 -14.304688 18.59375 -12.234375 L 18.59375 0 L 14 0 L 14 -12.46875 C 14 -14.019531 13.273438 -14.796875 11.828125 -14.796875 L 8.046875 -14.796875 L 8.046875 -6.421875 C 8.046875 -4.804688 7.796875 -3.519531 7.296875 -2.5625 C 6.796875 -1.601562 6.039062 -0.882812 5.03125 -0.40625 C 4.019531 0.0703125 2.660156 0.390625 0.953125 0.546875 Z M 0.578125 -2.59375 "/></g></g></g><g fill="#112c59" fill-opacity="1"><g transform="translate(162.606386, 165.834885)"><g><path d="M 1.953125 -14.5 L 1.5625 -18.25 L 6.171875 -18.25 L 6.546875 -14.5 L 6.546875 0 L 1.953125 0 Z M 1.953125 -14.5 "/></g></g></g><g fill="#112c59" fill-opacity="1"><g transform="translate(170.882938, 165.834885)"><g><path d="M 0.921875 -3.453125 L 6.046875 -3.453125 C 7.273438 -3.453125 8.179688 -3.851562 8.765625 -4.65625 C 9.359375 -5.46875 9.65625 -6.554688 9.65625 -7.921875 L 9.65625 -10.328125 C 9.65625 -11.679688 9.359375 -12.765625 8.765625 -13.578125 C 8.179688 -14.390625 7.273438 -14.796875 6.046875 -14.796875 L 0.921875 -14.796875 L 0.921875 -18.25 L 7.28125 -18.25 C 9.5625 -18.25 11.296875 -17.519531 12.484375 -16.0625 C 13.679688 -14.601562 14.28125 -12.601562 14.28125 -10.0625 L 14.28125 -8.1875 C 14.28125 -5.644531 13.679688 -3.644531 12.484375 -2.1875 C 11.296875 -0.726562 9.5625 0 7.28125 0 L 0.921875 0 Z M 0.921875 -3.453125 "/></g></g></g><g fill="#112c59" fill-opacity="1"><g transform="translate(186.381492, 165.834885)"><g><path d="M 9.265625 -12.46875 C 9.265625 -14.019531 8.550781 -14.796875 7.125 -14.796875 L 0.890625 -14.796875 L 0.890625 -18.25 L 8.375 -18.25 C 10.070312 -18.25 11.414062 -17.765625 12.40625 -16.796875 C 13.40625 -15.828125 13.90625 -14.304688 13.90625 -12.234375 L 13.90625 0 L 9.265625 0 Z M 9.265625 -12.46875 "/></g></g></g><g fill="#112c59" fill-opacity="1"><g transform="translate(201.975917, 165.834885)"><g><path d="M 17.0625 -18.25 C 17.039062 -14.007812 16.875 -10.804688 16.5625 -8.640625 C 16.257812 -6.484375 15.445312 -4.660156 14.125 -3.171875 C 12.800781 -1.691406 10.671875 -0.664062 7.734375 -0.09375 L 0.890625 1.25 L 0.25 -2.359375 L 5.34375 -3.328125 L 1.65625 -18.25 L 6.265625 -18.25 L 9.484375 -4.34375 C 10.441406 -4.8125 11.132812 -5.523438 11.5625 -6.484375 C 11.988281 -7.441406 12.25 -8.601562 12.34375 -9.96875 C 12.445312 -11.332031 12.5 -13.398438 12.5 -16.171875 L 12.5 -18.25 Z M 17.0625 -18.25 "/></g></g></g><g fill="#112c59" fill-opacity="1"><g transform="translate(220.382447, 165.834885)"><g><path d="M 1.953125 -14.5 L 1.5625 -18.25 L 6.171875 -18.25 L 6.546875 -14.5 L 6.546875 -9.515625 L 6.515625 -7.515625 L 1.953125 -6.703125 Z M 1.953125 -14.5 "/></g></g></g><g fill="#112c59" fill-opacity="1"><g transform="translate(228.659, 165.834885)"><g><path d="M 12.203125 -12.46875 C 12.203125 -14.019531 11.488281 -14.796875 10.0625 -14.796875 L 1.71875 -14.796875 L 1.71875 -18.25 L 11.3125 -18.25 C 13.019531 -18.25 14.367188 -17.765625 15.359375 -16.796875 C 16.347656 -15.828125 16.84375 -14.304688 16.84375 -12.234375 L 16.84375 0 L 12.203125 0 Z M 1.53125 -8.71875 L 2.171875 -10.859375 L 6.171875 -10.859375 L 6.171875 0 L 1.53125 0 Z M 1.53125 -8.71875 "/></g></g></g></svg>