<?xml version="1.0" standalone="no"?>
<!DOCTYPE svg PUBLIC "-//W3C//DTD SVG 20010904//EN"
 "http://www.w3.org/TR/2001/REC-SVG-20010904/DTD/svg10.dtd">
<svg version="1.0" xmlns="http://www.w3.org/2000/svg"
 width="148.000000pt" height="148.000000pt" viewBox="0 0 148.000000 148.000000"
 preserveAspectRatio="xMidYMid meet">


<rect x="30" y="22" width="60%" height="70%" fill="#ffffff" />
<g transform="translate(0.000000,148.000000) scale(0.100000,-0.100000)"
fill="#052554" stroke="none">
<path d="M625 1411 c-254 -55 -449 -226 -531 -466 -24 -70 -27 -95 -27 -205 0
-110 3 -135 27 -205 72 -210 232 -370 441 -441 70 -24 95 -27 205 -27 110 0
135 3 205 27 209 71 369 231 441 441 24 70 27 95 27 205 0 110 -3 135 -27 205
-95 276 -337 460 -621 470 -55 2 -118 0 -140 -4z m180 -197 c46 -50 19 -132
-48 -149 -29 -8 -82 17 -97 44 -48 91 76 180 145 105z m-292 -229 c98 -32 115
-35 229 -35 114 0 131 3 227 35 113 38 140 42 159 23 16 -16 15 -53 0 -66 -7
-5 -44 -21 -83 -35 -38 -14 -96 -35 -127 -47 l-58 -21 0 -109 c0 -92 6 -131
36 -250 19 -77 34 -155 32 -173 -3 -29 -6 -32 -38 -32 l-35 0 -54 163 c-30 89
-57 162 -61 162 -3 0 -30 -73 -60 -162 l-55 -163 -35 0 c-32 0 -35 3 -38 32
-2 18 13 96 32 173 30 118 36 158 36 249 0 125 16 107 -150 167 -58 20 -111
42 -117 47 -16 12 -17 49 -1 65 19 19 47 15 161 -23z"/>
</g>
</svg>
