<?xml version="1.0" standalone="no"?>
<!DOCTYPE svg PUBLIC "-//W3C//DTD SVG 20010904//EN"
 "http://www.w3.org/TR/2001/REC-SVG-20010904/DTD/svg10.dtd">
<svg version="1.0" xmlns="http://www.w3.org/2000/svg"
 width="105.000000pt" height="106.000000pt" viewBox="0 0 105.000000 106.000000"
 preserveAspectRatio="xMidYMid meet">

<g transform="translate(0.000000,106.000000) scale(0.100000,-0.100000)"
fill="#052554" stroke="none">
<path d="M405 1027 c-236 -62 -395 -263 -395 -502 0 -137 44 -245 140 -348 99
-106 221 -157 375 -157 96 0 162 16 243 60 164 87 264 254 265 445 1 221 -128
406 -338 484 -74 28 -217 37 -290 18z m-67 -267 c11 -18 9 -25 -17 -58 -82
-101 -80 -242 4 -340 35 -40 35 -40 16 -63 l-19 -23 -32 34 c-17 18 -44 57
-58 84 -23 44 -27 63 -27 141 0 96 14 135 73 213 28 37 42 40 60 12z m428 -12
c81 -97 101 -231 50 -344 -15 -34 -42 -76 -60 -93 -32 -31 -33 -31 -50 -12
-18 20 -17 21 13 60 46 57 61 102 61 176 0 71 -15 116 -55 169 -22 29 -24 38
-15 55 15 28 24 26 56 -11z m-346 -93 c11 -13 10 -22 -3 -51 -23 -46 -21 -102
3 -142 17 -27 18 -36 8 -52 -7 -11 -16 -20 -20 -20 -13 0 -58 62 -64 88 -3 15
-7 32 -9 39 -7 21 21 112 40 133 22 24 29 25 45 5z m267 -35 c13 -25 23 -60
23 -84 0 -46 -28 -113 -55 -136 -15 -13 -19 -12 -36 9 -19 24 -19 24 1 47 33
34 37 95 11 140 -21 35 -21 38 -5 56 23 25 34 20 61 -32z m-125 -47 c37 -33
13 -95 -37 -95 -18 0 -36 8 -47 22 -22 27 -22 39 -2 68 18 26 60 29 86 5z"/>
</g>
</svg>
