<svg xmlns="http://www.w3.org/2000/svg" xmlns:xlink="http://www.w3.org/1999/xlink" width="52" zoomAndPan="magnify" viewBox="0 0 39 24.749999" height="33" preserveAspectRatio="xMidYMid meet" version="1.2"><defs><clipPath id="67a5ea1224"><path d="M 0.195312 1 L 38 1 L 38 23.78125 L 0.195312 23.78125 Z M 0.195312 1 "/></clipPath><clipPath id="8f41a3a37b"><path d="M 0.214844 0 L 38 0 L 38 23 L 0.214844 23 Z M 0.214844 0 "/></clipPath></defs><g id="9800498562"><g clip-rule="nonzero" clip-path="url(#67a5ea1224)"><path style=" stroke:none;fill-rule:nonzero;fill:#052554;fill-opacity:1;" d="M 21.472656 22.398438 L 36.507812 7.363281 C 37.933594 5.9375 37.933594 3.625 36.507812 2.199219 C 35.085938 0.773438 32.769531 0.773438 31.347656 2.199219 L 18.886719 14.652344 L 6.425781 2.199219 C 5.003906 0.773438 2.6875 0.773438 1.265625 2.199219 C 0.574219 2.890625 0.195312 3.804688 0.195312 4.777344 C 0.195312 5.75 0.574219 6.671875 1.265625 7.363281 L 16.300781 22.398438 C 17.726562 23.824219 20.046875 23.824219 21.472656 22.398438 Z M 21.472656 22.398438 "/></g><g clip-rule="nonzero" clip-path="url(#8f41a3a37b)"><path style=" stroke:none;fill-rule:nonzero;fill:#052554;fill-opacity:1;" d="M 21.527344 21.636719 L 36.566406 6.597656 C 37.988281 5.175781 37.988281 2.859375 36.566406 1.4375 C 35.140625 0.0117188 32.824219 0.0117188 31.402344 1.4375 L 18.941406 13.890625 L 6.484375 1.4375 C 5.058594 0.0117188 2.742188 0.0117188 1.320312 1.4375 C 0.628906 2.125 0.25 3.042969 0.25 4.015625 C 0.25 4.988281 0.628906 5.910156 1.320312 6.597656 L 16.355469 21.636719 C 17.78125 23.0625 20.101562 23.0625 21.527344 21.636719 Z M 21.527344 21.636719 "/></g></g></svg>