<svg xmlns="http://www.w3.org/2000/svg" xmlns:xlink="http://www.w3.org/1999/xlink" width="678" zoomAndPan="magnify" viewBox="0 0 508.5 349.499994" height="466" preserveAspectRatio="xMidYMid meet" version="1.2"><defs><clipPath id="ad875ba95f"><path d="M 0.113281 8 L 495 8 L 495 348.25 L 0.113281 348.25 Z M 0.113281 8 "/></clipPath><clipPath id="9d6f15fecf"><path d="M 0.183594 0.386719 L 494 0.386719 L 494 340.25 L 0.183594 340.25 Z M 0.183594 0.386719 "/></clipPath><clipPath id="3f39cac797"><rect x="0" width="495" y="0" height="341"/></clipPath><clipPath id="2ff97da1be"><path d="M 224.511719 40.578125 L 350.277344 40.578125 L 350.277344 166.34375 L 224.511719 166.34375 Z M 224.511719 40.578125 "/></clipPath><clipPath id="c2da43a416"><path d="M 287.394531 40.578125 C 252.664062 40.578125 224.511719 68.730469 224.511719 103.460938 C 224.511719 138.191406 252.664062 166.34375 287.394531 166.34375 C 322.125 166.34375 350.277344 138.191406 350.277344 103.460938 C 350.277344 68.730469 322.125 40.578125 287.394531 40.578125 Z M 287.394531 40.578125 "/></clipPath><clipPath id="d21fbecf69"><path d="M 0.511719 0.578125 L 126.277344 0.578125 L 126.277344 126.34375 L 0.511719 126.34375 Z M 0.511719 0.578125 "/></clipPath><clipPath id="54fde44ca4"><path d="M 63.394531 0.578125 C 28.664062 0.578125 0.511719 28.730469 0.511719 63.460938 C 0.511719 98.191406 28.664062 126.34375 63.394531 126.34375 C 98.125 126.34375 126.277344 98.191406 126.277344 63.460938 C 126.277344 28.730469 98.125 0.578125 63.394531 0.578125 Z M 63.394531 0.578125 "/></clipPath><clipPath id="8aa43867e8"><rect x="0" width="127" y="0" height="127"/></clipPath></defs><g id="09f4b699fb"><g clip-rule="nonzero" clip-path="url(#ad875ba95f)"><g transform="matrix(1,0,0,1,0,8)"><g clip-path="url(#3f39cac797)"><g clip-rule="nonzero" clip-path="url(#9d6f15fecf)"><path style=" stroke:none;fill-rule:nonzero;fill:#ffffff;fill-opacity:1;" d="M 250.929688 1.632812 C 407.910156 -8 506.636719 53.679688 492.097656 164.171875 C 485.707031 212.421875 470.054688 261.972656 421.0625 292.71875 C 420.414062 293.183594 420.230469 294.015625 420.597656 294.757812 C 420.597656 294.851562 420.691406 294.851562 420.691406 294.941406 C 424.488281 299.386719 436.4375 315.78125 451.070312 327.820312 C 454.867188 331.0625 458.476562 334.675781 461.628906 338.5625 C 461.996094 339.121094 461.996094 339.859375 461.441406 340.230469 C 461.164062 340.417969 460.792969 340.507812 460.421875 340.507812 C 454.679688 339.210938 441.253906 339.953125 422.453125 336.898438 C 396.242188 332.636719 362.898438 323.46875 358.453125 321.707031 C 358.175781 321.617188 357.804688 321.617188 357.527344 321.707031 C 325.207031 331.894531 289.085938 337.636719 250.929688 337.636719 C 205.363281 337.636719 151.273438 330.042969 114.414062 315.6875 C 39.675781 286.609375 0.683594 231.78125 0.683594 169.636719 C 0.683594 76.835938 112.933594 10.058594 250.929688 1.632812 Z M 250.929688 1.632812 "/></g></g></g></g><g clip-rule="nonzero" clip-path="url(#2ff97da1be)"><g clip-rule="nonzero" clip-path="url(#c2da43a416)"><g transform="matrix(1,0,0,1,224,40)"><g clip-path="url(#8aa43867e8)"><g clip-rule="nonzero" clip-path="url(#d21fbecf69)"><g clip-rule="nonzero" clip-path="url(#54fde44ca4)"><path style=" stroke:none;fill-rule:nonzero;fill:#ffffff;fill-opacity:1;" d="M 0.511719 0.578125 L 126.277344 0.578125 L 126.277344 126.34375 L 0.511719 126.34375 Z M 0.511719 0.578125 "/></g></g></g></g></g></g></g></svg>