<?xml version="1.0" standalone="no"?>
<!DOCTYPE svg PUBLIC "-//W3C//DTD SVG 20010904//EN"
 "http://www.w3.org/TR/2001/REC-SVG-20010904/DTD/svg10.dtd">
<svg version="1.0" xmlns="http://www.w3.org/2000/svg"
 width="133.000000pt" height="133.000000pt" viewBox="0 0 133.000000 133.000000"
 preserveAspectRatio="xMidYMid meet">

<g transform="translate(0.000000,133.000000) scale(0.100000,-0.100000)"
fill="#000000" stroke="none">
<path d="M595 1188 c-122 -16 -217 -64 -304 -150 -131 -131 -180 -307 -137
-491 19 -82 46 -136 100 -203 149 -186 414 -246 632 -143 94 44 199 149 243
243 140 298 -29 661 -341 730 -94 21 -127 23 -193 14z m359 -357 c10 -11 15
-27 12 -38 -8 -25 -358 -373 -375 -373 -19 0 -201 180 -201 199 0 20 30 51 50
51 10 0 48 -30 84 -67 l67 -67 157 157 c86 86 164 157 173 157 9 0 24 -9 33
-19z"/>
</g>
</svg>
