<svg xmlns="http://www.w3.org/2000/svg" xmlns:xlink="http://www.w3.org/1999/xlink" width="331" zoomAndPan="magnify" viewBox="0 0 248.25 183.000001" height="244" preserveAspectRatio="xMidYMid meet" version="1.0"><defs><clipPath id="02499f9805"><path d="M 0.300781 15 L 247 15 L 247 182 L 0.300781 182 Z M 0.300781 15 " clip-rule="nonzero"/></clipPath></defs><g clip-path="url(#02499f9805)"><path fill="#306172" d="M 238.65625 182 L 7.964844 182 C 3.730469 182 0.300781 178.566406 0.300781 174.328125 L 0.300781 23.550781 C 0.300781 19.316406 3.730469 15.878906 7.964844 15.878906 L 238.65625 15.878906 C 242.886719 15.878906 246.316406 19.316406 246.316406 23.550781 L 246.316406 174.328125 C 246.316406 178.566406 242.886719 182 238.65625 182 Z M 238.65625 182 " fill-opacity="1" fill-rule="nonzero"/></g><path fill="#eff2f4" d="M 123.308594 176.074219 L 13.304688 176.074219 C 9.625 176.074219 6.640625 173.085938 6.640625 169.402344 L 6.640625 6.683594 C 6.644531 2.996094 9.625 0.0078125 13.304688 0.0078125 L 109.878906 0.0078125 C 117.296875 0.0078125 123.308594 6.027344 123.308594 13.457031 Z M 123.308594 176.074219 " fill-opacity="1" fill-rule="nonzero"/><path fill="#dee5e9" d="M 233.609375 176.074219 L 123.308594 176.074219 L 123.308594 12.738281 C 123.308594 5.707031 129 0.0078125 136.023438 0.0078125 L 233.609375 0.0078125 C 237.125 0.0078125 239.976562 2.863281 239.976562 6.386719 L 239.976562 169.699219 C 239.976562 173.21875 237.125 176.074219 233.609375 176.074219 Z M 233.609375 176.074219 " fill-opacity="1" fill-rule="nonzero"/><path fill="#59818e" d="M 140.007812 182 L 106.613281 182 C 106.613281 172.765625 114.089844 165.28125 123.308594 165.28125 C 132.53125 165.28125 140.007812 172.769531 140.007812 182 Z M 140.007812 182 " fill-opacity="1" fill-rule="nonzero"/><path fill="#ffbb4d" d="M 89.3125 79.308594 C 89.3125 83.726562 88.179688 87.882812 86.195312 91.5 C 84.621094 94.363281 83.441406 97.425781 82.59375 100.582031 C 78.867188 114.476562 71.703125 129.125 63.992188 129.113281 C 56.082031 129.101562 48.71875 113.648438 45.144531 99.519531 C 44.480469 96.890625 43.449219 94.371094 42.089844 92.027344 C 40.035156 88.488281 38.8125 84.40625 38.6875 80.046875 C 38.265625 65.3125 50.554688 53.261719 65.257812 53.988281 C 78.652344 54.648438 89.3125 65.730469 89.3125 79.308594 Z M 89.3125 79.308594 " fill-opacity="1" fill-rule="nonzero"/><path fill="#81c9cf" d="M 50.195312 131.460938 L 77.789062 131.460938 C 77.789062 139.089844 71.613281 145.277344 63.992188 145.277344 C 56.371094 145.277344 50.195312 139.089844 50.195312 131.460938 Z M 50.195312 131.460938 " fill-opacity="1" fill-rule="nonzero"/><path fill="#81c9cf" d="M 77.132812 123.867188 L 50.855469 123.867188 C 48.632812 123.867188 46.835938 122.0625 46.835938 119.839844 L 46.835938 119.003906 C 46.835938 116.78125 48.632812 114.980469 50.855469 114.980469 L 77.132812 114.980469 C 79.351562 114.980469 81.152344 116.78125 81.152344 119.003906 L 81.152344 119.839844 C 81.152344 122.0625 79.351562 123.867188 77.132812 123.867188 Z M 77.132812 123.867188 " fill-opacity="1" fill-rule="nonzero"/><path fill="#9ad4d9" d="M 77.132812 132.605469 L 50.855469 132.605469 C 48.632812 132.605469 46.835938 130.804688 46.835938 128.582031 L 46.835938 127.742188 C 46.835938 125.519531 48.632812 123.71875 50.855469 123.71875 L 77.132812 123.71875 C 79.351562 123.71875 81.152344 125.519531 81.152344 127.742188 L 81.152344 128.582031 C 81.152344 130.804688 79.351562 132.605469 77.132812 132.605469 Z M 77.132812 132.605469 " fill-opacity="1" fill-rule="nonzero"/><path fill="#ffbb4d" d="M 64.183594 48.703125 L 63.804688 48.703125 C 62.792969 48.703125 61.976562 47.882812 61.976562 46.871094 L 61.976562 34.128906 C 61.976562 33.121094 62.792969 32.300781 63.804688 32.300781 L 64.183594 32.300781 C 65.191406 32.300781 66.011719 33.117188 66.011719 34.128906 L 66.011719 46.871094 C 66.011719 47.882812 65.191406 48.703125 64.183594 48.703125 Z M 64.183594 48.703125 " fill-opacity="1" fill-rule="nonzero"/><path fill="#ffbb4d" d="M 42.105469 58.289062 L 41.835938 58.558594 C 41.121094 59.273438 39.964844 59.273438 39.25 58.558594 L 30.25 49.550781 C 29.539062 48.835938 29.539062 47.675781 30.25 46.960938 L 30.519531 46.691406 C 31.234375 45.976562 32.390625 45.976562 33.105469 46.691406 L 42.105469 55.703125 C 42.820312 56.417969 42.820312 57.578125 42.105469 58.289062 Z M 42.105469 58.289062 " fill-opacity="1" fill-rule="nonzero"/><path fill="#ffbb4d" d="M 86.539062 59.257812 L 86.269531 58.988281 C 85.554688 58.273438 85.554688 57.113281 86.269531 56.398438 L 95.269531 47.390625 C 95.980469 46.675781 97.140625 46.675781 97.855469 47.390625 L 98.125 47.65625 C 98.835938 48.371094 98.835938 49.53125 98.125 50.246094 L 89.125 59.257812 C 88.410156 59.972656 87.253906 59.972656 86.539062 59.257812 Z M 86.539062 59.257812 " fill-opacity="1" fill-rule="nonzero"/><path fill="#ffbb4d" d="M 34.183594 78.84375 L 34.183594 79.222656 C 34.183594 80.234375 33.363281 81.054688 32.355469 81.054688 L 19.628906 81.054688 C 18.617188 81.054688 17.800781 80.234375 17.800781 79.222656 L 17.800781 78.84375 C 17.800781 77.832031 18.617188 77.011719 19.628906 77.011719 L 32.355469 77.011719 C 33.363281 77.011719 34.183594 77.832031 34.183594 78.84375 Z M 34.183594 78.84375 " fill-opacity="1" fill-rule="nonzero"/><path fill="#ffbb4d" d="M 110.027344 78.84375 L 110.027344 79.222656 C 110.027344 80.234375 109.210938 81.054688 108.199219 81.054688 L 95.472656 81.054688 C 94.464844 81.054688 93.644531 80.234375 93.644531 79.222656 L 93.644531 78.84375 C 93.644531 77.832031 94.464844 77.011719 95.472656 77.011719 L 108.199219 77.011719 C 109.210938 77.011719 110.027344 77.832031 110.027344 78.84375 Z M 110.027344 78.84375 " fill-opacity="1" fill-rule="nonzero"/><path fill="#acc0c7" d="M 219.316406 26.558594 L 143.96875 26.558594 C 142.878906 26.558594 141.992188 25.671875 141.992188 24.578125 L 141.992188 24.167969 C 141.992188 23.078125 142.875 22.191406 143.96875 22.191406 L 219.316406 22.191406 C 220.410156 22.191406 221.292969 23.074219 221.292969 24.167969 L 221.292969 24.578125 C 221.292969 25.671875 220.410156 26.558594 219.316406 26.558594 Z M 219.316406 26.558594 " fill-opacity="1" fill-rule="nonzero"/><path fill="#acc0c7" d="M 219.316406 46.859375 L 143.96875 46.859375 C 142.878906 46.859375 141.992188 45.976562 141.992188 44.882812 L 141.992188 44.472656 C 141.992188 43.378906 142.875 42.492188 143.96875 42.492188 L 219.316406 42.492188 C 220.410156 42.492188 221.292969 43.378906 221.292969 44.472656 L 221.292969 44.882812 C 221.292969 45.976562 220.410156 46.859375 219.316406 46.859375 Z M 219.316406 46.859375 " fill-opacity="1" fill-rule="nonzero"/><path fill="#acc0c7" d="M 219.316406 67.164062 L 143.96875 67.164062 C 142.878906 67.164062 141.992188 66.277344 141.992188 65.183594 L 141.992188 64.773438 C 141.992188 63.679688 142.875 62.796875 143.96875 62.796875 L 219.316406 62.796875 C 220.410156 62.796875 221.292969 63.679688 221.292969 64.773438 L 221.292969 65.183594 C 221.292969 66.277344 220.410156 67.164062 219.316406 67.164062 Z M 219.316406 67.164062 " fill-opacity="1" fill-rule="nonzero"/><path fill="#acc0c7" d="M 219.316406 87.464844 L 143.96875 87.464844 C 142.878906 87.464844 141.992188 86.582031 141.992188 85.488281 L 141.992188 85.074219 C 141.992188 83.984375 142.875 83.097656 143.96875 83.097656 L 219.316406 83.097656 C 220.410156 83.097656 221.292969 83.984375 221.292969 85.074219 L 221.292969 85.488281 C 221.292969 86.578125 220.410156 87.464844 219.316406 87.464844 Z M 219.316406 87.464844 " fill-opacity="1" fill-rule="nonzero"/><path fill="#acc0c7" d="M 219.316406 107.769531 L 143.96875 107.769531 C 142.878906 107.769531 141.992188 106.882812 141.992188 105.789062 L 141.992188 105.378906 C 141.992188 104.285156 142.875 103.402344 143.96875 103.402344 L 219.316406 103.402344 C 220.410156 103.402344 221.292969 104.285156 221.292969 105.378906 L 221.292969 105.789062 C 221.292969 106.882812 220.410156 107.769531 219.316406 107.769531 Z M 219.316406 107.769531 " fill-opacity="1" fill-rule="nonzero"/><path fill="#acc0c7" d="M 176.496094 128.070312 L 143.96875 128.070312 C 142.878906 128.070312 141.992188 127.183594 141.992188 126.09375 L 141.992188 125.679688 C 141.992188 124.589844 142.875 123.703125 143.96875 123.703125 L 176.496094 123.703125 C 177.585938 123.703125 178.472656 124.585938 178.472656 125.679688 L 178.472656 126.09375 C 178.46875 127.183594 177.585938 128.070312 176.496094 128.070312 Z M 176.496094 128.070312 " fill-opacity="1" fill-rule="nonzero"/><path fill="#61979b" d="M 181.867188 125.046875 L 180.183594 124.160156 C 178.882812 123.476562 178.382812 121.863281 179.066406 120.5625 L 240.125 4.304688 C 240.808594 3.003906 242.417969 2.5 243.71875 3.1875 L 245.398438 4.070312 C 246.699219 4.757812 247.199219 6.367188 246.515625 7.671875 L 185.460938 123.925781 C 184.777344 125.230469 183.164062 125.730469 181.867188 125.046875 Z M 181.867188 125.046875 " fill-opacity="1" fill-rule="nonzero"/><path fill="#61979b" d="M 179.960938 127.019531 L 179.640625 126.851562 C 179.394531 126.722656 179.296875 126.414062 179.425781 126.167969 L 182.34375 120.613281 C 182.472656 120.367188 182.78125 120.273438 183.027344 120.402344 L 183.347656 120.570312 C 183.59375 120.699219 183.691406 121.007812 183.558594 121.253906 L 180.644531 126.808594 C 180.515625 127.054688 180.207031 127.152344 179.960938 127.019531 Z M 179.960938 127.019531 " fill-opacity="1" fill-rule="nonzero"/><path fill="#61979b" d="M 214.507812 46.03125 L 214.828125 46.199219 C 215.074219 46.328125 215.382812 46.234375 215.511719 45.988281 L 233.023438 12.648438 C 233.152344 12.402344 233.054688 12.09375 232.808594 11.964844 L 232.488281 11.792969 C 232.242188 11.664062 231.933594 11.761719 231.804688 12.007812 L 214.296875 45.347656 C 214.164062 45.59375 214.261719 45.902344 214.507812 46.03125 Z M 214.507812 46.03125 " fill-opacity="1" fill-rule="nonzero"/><path fill="#61979b" d="M 227.433594 24.304688 L 228.929688 25.09375 C 229.496094 25.390625 230.199219 25.171875 230.5 24.605469 L 233.421875 19.042969 C 233.71875 18.476562 233.5 17.773438 232.933594 17.472656 L 231.433594 16.6875 C 230.871094 16.386719 230.164062 16.605469 229.867188 17.171875 L 226.945312 22.738281 C 226.648438 23.304688 226.867188 24.007812 227.433594 24.304688 Z M 227.433594 24.304688 " fill-opacity="1" fill-rule="nonzero"/></svg>