<svg xmlns="http://www.w3.org/2000/svg" xmlns:xlink="http://www.w3.org/1999/xlink" width="274" zoomAndPan="magnify" viewBox="0 0 205.5 169.5" height="226" preserveAspectRatio="xMidYMid meet" version="1.0"><defs><clipPath id="8e28e20663"><path d="M 5 5 L 200 5 L 200 168.253906 L 5 168.253906 Z M 5 5 " clip-rule="nonzero"/></clipPath><clipPath id="96b60a46a0"><path d="M 0.0546875 0 L 204.949219 0 L 204.949219 168.253906 L 0.0546875 168.253906 Z M 0.0546875 0 " clip-rule="nonzero"/></clipPath></defs><g clip-path="url(#8e28e20663)"><path fill="#ef315d" d="M 102.5 168.246094 L 20.523438 90.160156 C 0.808594 71.371094 0.0625 40.171875 18.867188 20.472656 C 37.660156 0.773438 68.875 0.0273438 88.597656 18.804688 L 102.5 32.050781 L 116.402344 18.804688 C 136.117188 0.0273438 167.34375 0.773438 186.136719 20.472656 C 204.9375 40.171875 204.195312 71.371094 184.480469 90.160156 L 102.5 168.246094 " fill-opacity="1" fill-rule="nonzero"/></g><path fill="#ef315d" d="M 26.257812 101.613281 L 62.71875 101.613281 L 83.628906 55.542969 L 105.609375 117.148438 L 129.734375 72.683594 L 144.214844 98.398438 L 181.742188 98.398438 " fill-opacity="1" fill-rule="nonzero"/><g clip-path="url(#96b60a46a0)"><path stroke-linecap="butt" transform="matrix(0.0980362, 0, 0, -0.0979611, -105.924144, 294.988028)" fill="none" stroke-linejoin="miter" d="M 1348.298002 1973.996137 L 1720.211161 1973.996137 L 1933.501406 2444.288254 L 2157.709178 1815.411115 L 2403.791851 2269.314385 L 2551.497238 2006.813707 L 2934.288081 2006.813707 " stroke="#ffffff" stroke-width="76.563004" stroke-opacity="1" stroke-miterlimit="10"/></g></svg>