<svg xmlns="http://www.w3.org/2000/svg" xmlns:xlink="http://www.w3.org/1999/xlink" width="307" zoomAndPan="magnify" viewBox="0 0 230.25 185.999996" height="248" preserveAspectRatio="xMidYMid meet" version="1.0"><defs><clipPath id="da75ed8367"><path d="M 26 0.300781 L 115 0.300781 L 115 101 L 26 101 Z M 26 0.300781 " clip-rule="nonzero"/></clipPath><clipPath id="8942391059"><path d="M 114.429688 38.257812 L 128.167969 38.257812 L 128.167969 60.636719 L 114.429688 60.636719 Z M 114.429688 38.257812 " clip-rule="nonzero"/></clipPath><clipPath id="1db624f173"><path d="M 0.429688 0.257812 L 14.167969 0.257812 L 14.167969 22.636719 L 0.429688 22.636719 Z M 0.429688 0.257812 " clip-rule="nonzero"/></clipPath><clipPath id="1e33d15bc3"><rect x="0" width="15" y="0" height="23"/></clipPath></defs><path fill="#c34333" d="M 153.179688 167.648438 C 153.179688 167.648438 164.777344 167.121094 178.101562 166.726562 C 191.421875 166.328125 201.964844 161.046875 203.808594 154.722656 C 204.898438 151.066406 205.566406 147.335938 205.800781 143.53125 L 177.964844 133.59375 L 137.113281 135.195312 L 144.597656 167.648438 Z M 153.179688 167.648438 " fill-opacity="1" fill-rule="nonzero"/><path fill="#e56161" d="M 103.644531 1.898438 C 102.15625 1.789062 100.671875 1.832031 99.191406 2.023438 C 97.710938 2.214844 96.265625 2.550781 94.851562 3.035156 C 93.441406 3.519531 92.089844 4.136719 90.804688 4.894531 C 89.515625 5.652344 88.316406 6.527344 87.207031 7.527344 C 87.207031 7.527344 70.417969 5.683594 61.011719 15.535156 L 57.585938 19.792969 C 56.003906 19.371094 54.398438 19.148438 52.761719 19.121094 C 51.125 19.09375 49.511719 19.265625 47.917969 19.632812 C 46.324219 20 44.796875 20.554688 43.339844 21.296875 C 41.882812 22.039062 40.535156 22.945312 39.296875 24.015625 C 30.6875 31.398438 29.628906 39.320312 29.628906 39.320312 C 29.628906 39.320312 19.082031 45.996094 18.554688 54.089844 C 18.03125 62.179688 18.554688 65.175781 18.554688 65.175781 C 18.554688 65.175781 0.113281 90.332031 24.179688 104.214844 C 48.25 118.097656 61.777344 110.191406 61.777344 110.191406 C 61.777344 110.191406 61.253906 140.890625 81.691406 144.316406 C 102.125 147.746094 114.257812 144.976562 120.058594 142.898438 C 125.863281 140.816406 141.6875 134.054688 156.058594 137.753906 C 170.433594 141.449219 180.582031 142.367188 182.425781 138.277344 C 182.425781 138.277344 184.273438 143.421875 194.558594 145.269531 C 204.84375 147.113281 214.335938 138.539062 215.519531 134.847656 C 216.242188 132.605469 216.769531 130.316406 217.109375 127.984375 C 217.109375 127.984375 226.648438 124.820312 227.636719 117.785156 C 228.621094 110.75 226.160156 106.351562 226.160156 106.351562 Z M 103.644531 1.898438 " fill-opacity="1" fill-rule="nonzero"/><path fill="#f58f7f" d="M 88.707031 92.582031 C 88.707031 92.582031 66.8125 106.066406 44.929688 97.855469 C 23.046875 89.644531 20.933594 59.335938 38.070312 49.839844 C 38.070312 49.839844 33.191406 45.21875 33.914062 43.238281 C 34.636719 41.257812 37.546875 40.070312 39.128906 42.378906 C 40.710938 44.683594 41.097656 46.273438 41.894531 46.636719 C 42.6875 47 42.949219 32.257812 51.648438 28.183594 C 60.34375 24.109375 66.417969 24.09375 66.417969 24.09375 C 66.417969 24.09375 71.851562 13.574219 80.441406 12.546875 C 85.246094 11.882812 90.050781 11.882812 94.855469 12.546875 C 94.855469 12.546875 103.46875 1.8125 107.511719 1.109375 C 111.554688 0.410156 118.761719 4.800781 118.761719 4.800781 C 118.761719 4.800781 130.367188 1.960938 136.347656 4.09375 C 142.328125 6.222656 145.484375 12.367188 145.484375 12.367188 C 145.484375 12.367188 152.164062 7.441406 160.074219 10.949219 C 167.984375 14.457031 168.160156 16.398438 168.160156 16.398438 C 168.160156 16.398438 179.765625 15.34375 186.273438 19.238281 C 192.777344 23.136719 198.402344 36.480469 198.402344 36.480469 C 198.402344 36.480469 207.722656 38.0625 211.414062 45.804688 C 215.101562 53.550781 212.832031 56.007812 212.832031 56.007812 C 213.863281 56.511719 214.832031 57.117188 215.738281 57.824219 C 216.644531 58.53125 217.464844 59.324219 218.207031 60.203125 C 218.949219 61.078125 219.59375 62.023438 220.140625 63.035156 C 220.6875 64.046875 221.121094 65.105469 221.449219 66.207031 C 223.734375 73.773438 219.867188 76.761719 219.867188 76.761719 C 219.867188 76.761719 227.074219 82.394531 227.601562 87.316406 C 228.125 92.234375 225.472656 100.507812 225.472656 100.507812 L 226.179688 106.316406 C 226.179688 106.316406 213.695312 125.839844 188.585938 118.453125 L 178.183594 113.511719 C 178.183594 113.511719 174.496094 122.839844 167.8125 123.542969 C 161.132812 124.246094 152.164062 117.558594 146.71875 115.976562 C 141.269531 114.394531 130.8125 114.394531 127.160156 116.332031 C 123.507812 118.269531 110.15625 126.808594 101.539062 123.589844 C 92.917969 120.375 88.707031 108.765625 88.707031 104.894531 Z M 88.707031 92.582031 " fill-opacity="1" fill-rule="nonzero"/><path fill="#d14138" d="M 62.394531 110.589844 C 62.394531 110.589844 71.359375 111.910156 88.046875 93.703125 L 89.03125 92.582031 C 89.03125 92.582031 88.4375 96.5625 87.449219 101.59375 C 86.464844 106.628906 80.964844 118.089844 86.414062 126.183594 C 91.863281 134.273438 107.019531 145.59375 107.019531 145.59375 C 107.019531 145.59375 87.207031 146.765625 76.085938 142.457031 C 64.960938 138.148438 60.882812 116.8125 62.394531 110.589844 Z M 62.394531 110.589844 " fill-opacity="1" fill-rule="nonzero"/><path fill="#aa2325" d="M 120.085938 142.847656 C 120.085938 142.847656 117.1875 150.761719 122.464844 155.382812 C 127.742188 160.003906 132.480469 165.144531 134.992188 170.6875 C 137.503906 176.230469 137.121094 184.171875 143.824219 184.929688 C 150.527344 185.691406 156.480469 180.183594 154.632812 174.511719 C 152.789062 168.839844 146.589844 156.171875 145.414062 150.898438 C 144.234375 145.625 146.605469 136.617188 146.605469 136.617188 C 137.46875 137.429688 128.628906 139.507812 120.085938 142.847656 Z M 120.085938 142.847656 " fill-opacity="1" fill-rule="nonzero"/><g clip-path="url(#da75ed8367)"><path fill="#bb413b" d="M 114.71875 3.480469 C 114.71875 3.480469 107.339844 4.453125 104.167969 7.527344 C 101 10.601562 96.523438 17.820312 96.261719 20.375 C 95.996094 22.929688 94.839844 26.96875 93.273438 26.054688 C 91.707031 25.136719 92.214844 16.292969 93.273438 15.320312 C 93.273438 15.320312 84.761719 14.441406 78.023438 18.003906 C 75.984375 19.105469 74.144531 20.476562 72.503906 22.113281 C 70.867188 23.753906 69.496094 25.59375 68.394531 27.636719 C 68.394531 27.636719 56.003906 28.957031 51.648438 33.703125 C 47.292969 38.453125 44.929688 49.667969 44.929688 49.667969 C 44.929688 49.667969 49.40625 56.765625 51.78125 56.660156 C 54.160156 56.550781 63.253906 52.171875 65.628906 47.160156 C 68.007812 42.152344 69.175781 35.804688 68.261719 34.230469 C 67.347656 32.652344 70.859375 32.101562 71.210938 34.28125 C 71.566406 36.457031 73.582031 42.085938 70.773438 46.722656 C 67.964844 51.355469 62.070312 57.277344 56.089844 58.335938 L 54.242188 58.683594 C 57.40625 60.570312 60.761719 62.007812 64.308594 62.992188 C 69.160156 64.058594 74.066406 64.574219 79.03125 64.53125 C 79.03125 64.53125 78.546875 58.597656 79.425781 57.015625 C 80.304688 55.429688 82.589844 56.394531 82.808594 58.0625 C 83.03125 59.730469 82.242188 64.132812 83.121094 64.929688 C 84.003906 65.722656 86.945312 69.5 91.210938 69.5 C 95.472656 69.5 92.875 73.898438 87.824219 72.402344 C 86.382812 72.015625 85.042969 71.410156 83.800781 70.582031 C 82.558594 69.753906 81.480469 68.75 80.570312 67.570312 C 80.570312 67.570312 70.679688 70.207031 58.578125 65.4375 C 46.476562 60.667969 41.441406 52.25 41.441406 52.25 C 41.441406 52.25 37.304688 53.570312 34.496094 59.023438 C 31.6875 64.472656 29.132812 74.410156 30.1875 77.667969 C 31.246094 80.925781 34.933594 90.8125 46.605469 93.992188 C 58.273438 97.171875 61.636719 95.648438 62.820312 96.632812 C 64.003906 97.621094 63.863281 100.390625 61.828125 100.425781 C 59.792969 100.460938 49.980469 102.597656 36.324219 92.6875 C 36.324219 92.6875 29.984375 87.8125 27.445312 77.554688 C 27.054688 75.867188 26.824219 74.160156 26.746094 72.429688 C 26.671875 70.699219 26.75 68.976562 26.992188 67.261719 C 27.230469 65.546875 27.621094 63.867188 28.167969 62.222656 C 28.714844 60.578125 29.402344 59 30.238281 57.480469 C 30.984375 56.3125 35.816406 49.972656 38.097656 49.800781 C 38.097656 49.800781 34.011719 44.699219 33.941406 43.203125 C 33.871094 41.703125 36.410156 40.363281 37.871094 41.265625 C 39.332031 42.164062 41.417969 46.429688 41.78125 46.542969 C 42.140625 46.65625 43.632812 37.523438 45.695312 34.386719 C 47.761719 31.25 49.703125 26.117188 66.445312 24.074219 C 66.445312 24.074219 72.121094 13.425781 80.816406 12.46875 C 89.515625 11.507812 94.882812 12.511719 94.882812 12.511719 C 94.882812 12.511719 103.472656 1.820312 107.539062 1.074219 C 111.605469 0.332031 114.71875 3.480469 114.71875 3.480469 Z M 114.71875 3.480469 " fill-opacity="1" fill-rule="nonzero"/></g><path fill="#bb413b" d="M 145.484375 12.367188 C 145.484375 12.367188 136.933594 22.425781 129.960938 24.320312 C 122.988281 26.214844 102.417969 29.289062 97.800781 34.003906 C 94.835938 37.179688 92.535156 40.78125 90.898438 44.804688 C 90.898438 44.804688 84.925781 41.640625 82.023438 42.433594 C 79.121094 43.230469 77.886719 46.125 80.882812 46.21875 C 83.875 46.308594 88.875 45.863281 90.988281 48.765625 C 93.101562 51.667969 94.59375 55.800781 96.613281 55.191406 C 98.636719 54.578125 98.195312 49.824219 96.082031 48.148438 C 93.96875 46.472656 93.359375 46.480469 93.359375 46.480469 C 93.359375 46.480469 98.324219 35.058594 105.050781 33.804688 C 111.773438 32.546875 134.984375 26.351562 138.277344 24.222656 C 141.566406 22.09375 151.300781 12.558594 153.074219 9.734375 C 150.371094 10.121094 147.84375 10.996094 145.484375 12.367188 Z M 145.484375 12.367188 " fill-opacity="1" fill-rule="nonzero"/><path fill="#bb413b" d="M 196.472656 34.441406 C 196.472656 34.441406 192.335938 37.785156 192.160156 41.746094 C 192.160156 41.746094 182.753906 32.070312 172.382812 30.75 C 162.011719 29.429688 151.546875 28.898438 149.085938 30.398438 C 146.625 31.894531 146.363281 33.738281 150.582031 33.945312 C 154.804688 34.152344 165.613281 30.488281 175.460938 35.648438 C 180.953125 38.460938 186.195312 41.671875 191.195312 45.289062 C 191.195312 45.289062 189.777344 55.402344 190.933594 59.539062 C 192.089844 63.679688 193.480469 68.25 195.5 67.015625 C 197.523438 65.78125 193.742188 60.769531 193.742188 56.636719 C 193.742188 52.507812 194.011719 39.75 198.925781 37.195312 L 197.21875 33.917969 Z M 196.472656 34.441406 " fill-opacity="1" fill-rule="nonzero"/><path fill="#bb413b" d="M 89.671875 90.03125 C 89.671875 90.03125 87.101562 83.964844 79.15625 83.964844 C 71.210938 83.964844 63.960938 87.832031 62.089844 87.394531 C 60.21875 86.953125 59.960938 83.253906 63.648438 82.289062 C 67.339844 81.324219 73.671875 78.597656 81.230469 80.003906 C 83.445312 80.394531 85.511719 81.183594 87.425781 82.371094 C 89.34375 83.558594 90.96875 85.054688 92.308594 86.867188 C 92.308594 86.867188 104.128906 75.164062 112.304688 72.53125 C 120.484375 69.894531 126.066406 68.433594 127.160156 69.554688 C 128.253906 70.675781 128.578125 72.195312 126.28125 72.59375 C 123.980469 72.992188 115.335938 72.921875 104.289062 80.839844 C 106.277344 80.664062 108.238281 80.835938 110.164062 81.359375 C 112.089844 81.878906 113.871094 82.71875 115.5 83.871094 C 120.902344 87.742188 120.570312 89.550781 118.789062 89.550781 C 117.007812 89.550781 109.496094 83.164062 105.148438 84.339844 C 100.800781 85.519531 96.183594 84.539062 89.457031 97.472656 L 88.746094 100.175781 Z M 89.671875 90.03125 " fill-opacity="1" fill-rule="nonzero"/><path fill="#bb413b" d="M 205.652344 119.15625 C 205.652344 119.15625 212.25 107.089844 208.027344 102.078125 C 203.808594 97.066406 205.355469 94.6875 207.546875 95.613281 C 209.738281 96.535156 213.433594 101.816406 213.171875 105.117188 C 212.910156 108.417969 211.453125 116.132812 210.796875 117.578125 C 210.796875 117.578125 207.632812 119.332031 205.652344 119.15625 Z M 205.652344 119.15625 " fill-opacity="1" fill-rule="nonzero"/><path fill="#bb413b" d="M 198.117188 99.175781 C 198.117188 99.175781 198.011719 98.871094 197.804688 98.335938 C 196.496094 94.964844 191.082031 82.496094 181.640625 79.648438 C 170.695312 76.355469 159.882812 73.191406 159.882812 73.191406 C 159.882812 73.191406 147.222656 93.902344 136.148438 98.648438 C 125.074219 103.398438 119.199219 105.847656 119.199219 105.847656 C 119.027344 107.371094 119.242188 108.835938 119.839844 110.246094 C 120.8125 112.222656 120.476562 115.257812 118.699219 115.214844 C 116.917969 115.171875 115.398438 106.769531 115.398438 106.769531 C 115.398438 106.769531 110.722656 109.339844 109.449219 107.976562 C 108.171875 106.613281 108.851562 104.285156 112.808594 103.761719 C 116.769531 103.234375 128.828125 99.074219 133.246094 95.953125 C 136.414062 93.65625 139.449219 91.191406 142.347656 88.5625 C 142.347656 88.5625 135.351562 86.929688 135.027344 84.679688 C 134.699219 82.429688 136.609375 80.777344 138.191406 81.769531 C 139.773438 82.765625 143.660156 84.894531 146.652344 83.902344 C 149.648438 82.90625 156.542969 71.414062 156.542969 71.414062 L 152.320312 69.207031 C 152.320312 69.207031 146.875 71.855469 144.058594 70.09375 C 141.242188 68.335938 139.929688 64.8125 143.710938 65.609375 C 147.492188 66.40625 149.15625 66.050781 149.15625 66.050781 C 149.15625 66.050781 137.488281 52.125 137.113281 48.355469 C 136.738281 44.585938 138.695312 43.953125 140.015625 46.070312 C 141.332031 48.183594 145.375 56.007812 146.171875 56.714844 C 146.964844 57.425781 147.921875 49.765625 150.476562 50.382812 C 153.03125 51.003906 147.921875 57.773438 148.71875 59.972656 C 149.511719 62.175781 155.746094 69.117188 163.046875 70.265625 C 170.347656 71.414062 178.867188 74.835938 179.746094 75.097656 C 180.625 75.363281 179.261719 67.007812 182.292969 66.964844 C 185.320312 66.921875 183.789062 73.820312 184.421875 75.84375 C 185.050781 77.867188 191.941406 82.402344 196.246094 88.472656 C 200.550781 94.539062 202.3125 97.699219 201.078125 98.492188 C 199.84375 99.289062 198.382812 99.835938 198.117188 99.175781 Z M 198.117188 99.175781 " fill-opacity="1" fill-rule="nonzero"/><g clip-path="url(#8942391059)"><g transform="matrix(1, 0, 0, 1, 114, 38)"><g clip-path="url(#1e33d15bc3)"><g clip-path="url(#1db624f173)"><path fill="#f38e7e" d="M 0.429688 0.257812 L 14.167969 0.257812 L 14.167969 22.632812 L 0.429688 22.632812 Z M 0.429688 0.257812 " fill-opacity="1" fill-rule="nonzero"/></g></g></g></g></svg>