<svg xmlns="http://www.w3.org/2000/svg" xmlns:xlink="http://www.w3.org/1999/xlink" width="257" zoomAndPan="magnify" viewBox="0 0 192.75 225.749993" height="301" preserveAspectRatio="xMidYMid meet" version="1.0"><defs><clipPath id="1bd250ec00"><path d="M 8 158 L 36 158 L 36 224.730469 L 8 224.730469 Z M 8 158 " clip-rule="nonzero"/></clipPath><clipPath id="782a5aece2"><path d="M 10 95 L 150 95 L 150 224.730469 L 10 224.730469 Z M 10 95 " clip-rule="nonzero"/></clipPath><clipPath id="c150f580fb"><path d="M 121 79 L 191.75 79 L 191.75 192 L 121 192 Z M 121 79 " clip-rule="nonzero"/></clipPath><clipPath id="43f6a159ab"><path d="M 75 33 L 107 33 L 107 75 L 75 75 Z M 75 33 " clip-rule="nonzero"/></clipPath><clipPath id="c4a72972e5"><path d="M 69.636719 68.9375 L 86.058594 28.742188 L 111.847656 39.277344 L 95.425781 79.472656 Z M 69.636719 68.9375 " clip-rule="nonzero"/></clipPath><clipPath id="ee009db5ef"><path d="M 77.84375 48.847656 C 73.3125 59.945312 75.410156 71.296875 82.53125 74.207031 C 89.652344 77.117188 99.101562 70.480469 103.632812 59.382812 C 108.167969 48.289062 106.066406 36.933594 98.945312 34.023438 C 91.824219 31.117188 82.378906 37.75 77.84375 48.847656 Z M 77.84375 48.847656 " clip-rule="nonzero"/></clipPath><clipPath id="535b21367f"><path d="M 0 0 L 32 0 L 32 42 L 0 42 Z M 0 0 " clip-rule="nonzero"/></clipPath><clipPath id="3af4c65c28"><path d="M -5.363281 35.9375 L 11.058594 -4.257812 L 36.847656 6.277344 L 20.425781 46.472656 Z M -5.363281 35.9375 " clip-rule="nonzero"/></clipPath><clipPath id="d06c308be8"><path d="M 2.84375 15.847656 C -1.6875 26.945312 0.410156 38.296875 7.53125 41.207031 C 14.652344 44.117188 24.101562 37.480469 28.632812 26.382812 C 33.167969 15.289062 31.066406 3.933594 23.945312 1.023438 C 16.824219 -1.882812 7.378906 4.75 2.84375 15.847656 Z M 2.84375 15.847656 " clip-rule="nonzero"/></clipPath><clipPath id="04cbbd0319"><rect x="0" width="32" y="0" height="42"/></clipPath><clipPath id="2b05eabc50"><path d="M 73 33 L 101 33 L 101 55 L 73 55 Z M 73 33 " clip-rule="nonzero"/></clipPath><clipPath id="cc223e66b6"><path d="M 69.640625 41.617188 L 96.121094 28.753906 L 104.375 45.746094 L 77.890625 58.609375 Z M 69.640625 41.617188 " clip-rule="nonzero"/></clipPath><clipPath id="9709c27c39"><path d="M 82.875 35.1875 C 75.566406 38.738281 71.488281 45.417969 73.765625 50.113281 C 76.042969 54.804688 83.816406 55.730469 91.128906 52.179688 C 98.4375 48.628906 102.515625 41.949219 100.238281 37.253906 C 97.960938 32.5625 90.1875 31.636719 82.875 35.1875 Z M 82.875 35.1875 " clip-rule="nonzero"/></clipPath><clipPath id="667e953ea4"><path d="M 0 0 L 28 0 L 28 22 L 0 22 Z M 0 0 " clip-rule="nonzero"/></clipPath><clipPath id="37546cbe64"><path d="M -3.359375 8.617188 L 23.121094 -4.246094 L 31.375 12.746094 L 4.890625 25.609375 Z M -3.359375 8.617188 " clip-rule="nonzero"/></clipPath><clipPath id="9dcc515705"><path d="M 9.875 2.1875 C 2.566406 5.738281 -1.511719 12.417969 0.765625 17.113281 C 3.042969 21.804688 10.816406 22.730469 18.128906 19.179688 C 25.4375 15.628906 29.515625 8.949219 27.238281 4.253906 C 24.960938 -0.4375 17.1875 -1.363281 9.875 2.1875 Z M 9.875 2.1875 " clip-rule="nonzero"/></clipPath><clipPath id="7d09bb11ea"><rect x="0" width="28" y="0" height="22"/></clipPath><clipPath id="11d983f27e"><path d="M 80 33 L 109 33 L 109 55 L 80 55 Z M 80 33 " clip-rule="nonzero"/></clipPath><clipPath id="3a9004b20d"><path d="M 77.117188 41.617188 L 103.601562 28.753906 L 111.855469 45.746094 L 85.371094 58.609375 Z M 77.117188 41.617188 " clip-rule="nonzero"/></clipPath><clipPath id="2f16df5793"><path d="M 90.355469 35.1875 C 83.046875 38.738281 78.964844 45.417969 81.246094 50.113281 C 83.523438 54.804688 91.296875 55.730469 98.605469 52.179688 C 105.917969 48.628906 109.996094 41.949219 107.71875 37.253906 C 105.441406 32.5625 97.667969 31.636719 90.355469 35.1875 Z M 90.355469 35.1875 " clip-rule="nonzero"/></clipPath><clipPath id="e9b0c0d432"><path d="M 0 0 L 29 0 L 29 22 L 0 22 Z M 0 0 " clip-rule="nonzero"/></clipPath><clipPath id="3e7d310c7c"><path d="M -2.882812 8.617188 L 23.601562 -4.246094 L 31.855469 12.746094 L 5.371094 25.609375 Z M -2.882812 8.617188 " clip-rule="nonzero"/></clipPath><clipPath id="fd7104bb9d"><path d="M 10.355469 2.1875 C 3.046875 5.738281 -1.035156 12.417969 1.246094 17.113281 C 3.523438 21.804688 11.296875 22.730469 18.605469 19.179688 C 25.917969 15.628906 29.996094 8.949219 27.71875 4.253906 C 25.441406 -0.4375 17.667969 -1.363281 10.355469 2.1875 Z M 10.355469 2.1875 " clip-rule="nonzero"/></clipPath><clipPath id="224f76892e"><rect x="0" width="29" y="0" height="22"/></clipPath></defs><path fill="#021b23" d="M 119.464844 41.871094 C 118.351562 12.8125 92.027344 0.136719 68.445312 8.007812 C 57.914062 11.523438 52.828125 20.828125 49.417969 28.71875 C 44.582031 39.9375 37.417969 42.058594 37.742188 53.691406 C 38.25 71.898438 20.460938 68.269531 20.210938 91.027344 C 20.140625 98.066406 11.4375 105.085938 8.347656 111.125 C 0 127.441406 11.84375 149.648438 50.59375 150.761719 C 92.273438 151.957031 141.132812 165.210938 147.097656 131.308594 C 151.257812 107.714844 131.648438 91.488281 133.574219 83.480469 C 136.953125 69.433594 134 64.039062 129.828125 56.84375 C 125.566406 49.472656 120.023438 46.402344 119.464844 41.871094 Z M 119.464844 41.871094 " fill-opacity="1" fill-rule="nonzero"/><path fill="#fec4b9" d="M 58.496094 96.707031 C 69.433594 93.367188 74.039062 60.015625 66.230469 60.054688 C 61.050781 60.378906 59.699219 49.199219 62.09375 48.246094 C 70.191406 46.195312 68.921875 45.8125 81.359375 33.5625 C 90.363281 24.695312 100.21875 23.34375 100.21875 23.34375 C 113.546875 32.617188 112.382812 51.363281 109.378906 62.945312 C 106.5 73.113281 101.945312 75.371094 93.699219 80.089844 C 92.390625 92.070312 96.257812 93.441406 102.203125 96.195312 C 91.628906 110.816406 69.203125 110.691406 58.496094 96.707031 Z M 58.496094 96.707031 " fill-opacity="1" fill-rule="nonzero"/><g clip-path="url(#1bd250ec00)"><path fill="#fec4b9" d="M 8.828125 224.757812 C 11.726562 174.320312 12.488281 158.914062 12.488281 158.914062 C 12.488281 158.914062 16.46875 159.878906 23.132812 162.03125 C 32.40625 165.027344 35.683594 165.140625 35.683594 165.140625 C 35.683594 165.140625 35.214844 173.519531 34.195312 179.957031 C 32.375 191.414062 30.703125 202.707031 27.800781 224.777344 " fill-opacity="1" fill-rule="nonzero"/></g><g clip-path="url(#782a5aece2)"><path fill="#1498b7" d="M 123.332031 224.769531 C 123.507812 205.160156 121.949219 168.289062 121.949219 168.289062 C 121.949219 168.289062 125.554688 168.394531 134.4375 167.613281 C 140.339844 167.09375 149.554688 162.4375 149.554688 162.4375 C 149.554688 162.4375 147.347656 151.011719 144.90625 140.019531 C 136.859375 103.847656 100.78125 95.542969 100.78125 95.542969 C 100.78125 95.542969 95.582031 107.570312 76.554688 105.992188 C 65.535156 105.074219 58.984375 96.683594 58.984375 96.683594 C 58.984375 96.683594 35.816406 101.40625 25.941406 112.300781 C 15.316406 124.03125 10.78125 160.742188 10.78125 160.742188 C 10.78125 160.742188 36.003906 169.300781 34.871094 169.632812 C 34.871094 169.632812 33.113281 188.109375 33.34375 224.769531 " fill-opacity="1" fill-rule="nonzero"/></g><path fill="#f7b6ad" d="M 93.71875 80.058594 C 87.710938 80.640625 80.683594 78.09375 75.523438 73.914062 C 78.964844 80.496094 86.027344 83.128906 93.472656 83.804688 C 93.472656 83.792969 93.605469 81.296875 93.71875 80.058594 " fill-opacity="1" fill-rule="nonzero"/><g clip-path="url(#c150f580fb)"><path fill="#fec4b9" d="M 121.9375 168.289062 C 131.347656 186.527344 140.488281 196.839844 154.855469 189.117188 C 172.488281 179.632812 169.371094 133.40625 172.894531 116.585938 C 174.257812 110.109375 175.183594 108.789062 179.789062 103.890625 C 183.136719 100.335938 189.105469 94.179688 191.320312 87.890625 C 191.972656 86.027344 191.445312 83.835938 190.996094 83.386719 C 189.695312 82.046875 189.84375 80.820312 189.042969 80.070312 C 186.796875 77.960938 184.644531 82.171875 184.644531 80.652344 C 184.644531 78.25 181.617188 78.96875 179.820312 81.867188 C 179.332031 82.660156 181.429688 78.40625 177.824219 79.207031 C 175.992188 79.613281 169.878906 92.921875 165.167969 91.789062 C 163.796875 91.457031 161.695312 91.070312 161.34375 88.597656 C 161.050781 86.558594 160.355469 84.488281 159.523438 84.488281 C 158.222656 84.488281 156.300781 89.148438 156.714844 94.4375 C 157.421875 103.277344 158.046875 101.914062 157.652344 104.910156 C 156.996094 109.984375 156.425781 112.292969 155.449219 117.46875 C 152.414062 133.648438 143.417969 164.109375 143.417969 164.109375 " fill-opacity="1" fill-rule="nonzero"/></g><path fill="#f7b6ad" d="M 180.214844 94.605469 C 180.078125 94.605469 179.945312 94.554688 179.851562 94.4375 C 179.683594 94.242188 179.703125 93.941406 179.902344 93.773438 C 182.417969 91.640625 182.648438 91.289062 183.117188 90.59375 C 183.457031 90.074219 183.875 89.355469 184.363281 88.523438 C 186.496094 84.863281 188.25 82.066406 189.78125 82.066406 C 190.039062 82.066406 190.246094 82.273438 190.246094 82.535156 C 190.246094 82.792969 190.039062 83.003906 189.78125 83.003906 C 189.582031 83.003906 188.980469 83.191406 187.730469 84.914062 C 186.859375 86.121094 185.972656 87.640625 185.183594 88.992188 C 184.695312 89.832031 184.269531 90.570312 183.90625 91.113281 C 183.355469 91.945312 183.03125 92.359375 180.515625 94.5 C 180.433594 94.574219 180.320312 94.605469 180.214844 94.605469 Z M 180.214844 94.605469 " fill-opacity="1" fill-rule="nonzero"/><path fill="#f7b6ad" d="M 177.367188 91.851562 C 177.210938 91.851562 177.0625 91.777344 176.96875 91.640625 C 176.824219 91.425781 176.875 91.132812 177.09375 90.988281 C 179.207031 89.5625 181.109375 86.527344 182.792969 83.84375 C 183.730469 82.359375 184.601562 80.953125 185.390625 80.050781 C 185.640625 79.757812 186.058594 79.351562 186.742188 79.207031 C 188.554688 78.832031 189.507812 79.746094 189.832031 80.164062 C 190.382812 80.859375 190.519531 81.765625 190.195312 82.484375 C 190.082031 82.722656 189.800781 82.824219 189.570312 82.710938 C 189.332031 82.597656 189.230469 82.316406 189.34375 82.085938 C 189.519531 81.703125 189.425781 81.171875 189.105469 80.757812 C 188.648438 80.175781 187.855469 79.957031 186.953125 80.144531 C 186.640625 80.207031 186.378906 80.371094 186.121094 80.671875 C 185.382812 81.527344 184.519531 82.898438 183.605469 84.34375 C 181.867188 87.097656 179.914062 90.226562 177.636719 91.765625 C 177.554688 91.828125 177.460938 91.851562 177.367188 91.851562 Z M 177.367188 91.851562 " fill-opacity="1" fill-rule="nonzero"/><path fill="#f7b6ad" d="M 173.28125 90.582031 C 173.125 90.582031 172.976562 90.507812 172.882812 90.375 C 172.738281 90.15625 172.800781 89.863281 173.007812 89.71875 C 175.027344 88.367188 176.835938 85.582031 178.4375 83.117188 C 179.300781 81.796875 180.109375 80.546875 180.839844 79.71875 C 181.140625 79.375 181.535156 79.011719 182.148438 78.917969 C 182.378906 78.886719 183.53125 78.75 184.382812 79.476562 C 184.945312 79.964844 185.234375 80.695312 185.234375 81.660156 C 185.234375 81.921875 185.027344 82.128906 184.769531 82.128906 C 184.507812 82.128906 184.300781 81.921875 184.300781 81.660156 C 184.300781 80.984375 184.125 80.484375 183.78125 80.195312 C 183.238281 79.726562 182.398438 79.839844 182.304688 79.851562 C 182.003906 79.894531 181.804688 80.070312 181.554688 80.339844 C 180.871094 81.121094 180.078125 82.335938 179.238281 83.636719 C 177.582031 86.171875 175.722656 89.054688 173.539062 90.507812 C 173.464844 90.5625 173.375 90.582031 173.28125 90.582031 Z M 173.28125 90.582031 " fill-opacity="1" fill-rule="nonzero"/><path fill="#021b23" d="M 83.5 47.433594 C 84.683594 47.433594 85.664062 48.359375 85.664062 49.511719 C 85.671875 50.667969 84.707031 51.601562 83.519531 51.601562 C 82.324219 51.601562 81.359375 50.675781 81.347656 49.523438 C 81.347656 48.371094 82.304688 47.433594 83.5 47.433594 " fill-opacity="1" fill-rule="nonzero"/><path fill="#021b23" d="M 102.359375 46.902344 C 103.554688 46.902344 104.523438 47.828125 104.523438 48.984375 C 104.535156 50.136719 103.566406 51.074219 102.382812 51.074219 C 101.183594 51.074219 100.21875 50.148438 100.21875 48.992188 C 100.207031 47.839844 101.164062 46.902344 102.359375 46.902344 " fill-opacity="1" fill-rule="nonzero"/><path fill="#021b23" d="M 94.574219 59.648438 C 94.25 59.648438 93.949219 59.472656 93.792969 59.160156 C 93.585938 58.734375 93.761719 58.214844 94.1875 57.996094 C 94.769531 57.707031 95.382812 57.40625 95.757812 56.96875 C 96.050781 56.625 96.152344 56.15625 95.996094 55.886719 C 95.933594 55.78125 95.800781 55.648438 95.664062 55.511719 L 95.613281 55.460938 C 94.425781 54.265625 93.492188 52.796875 92.898438 51.230469 C 92.734375 50.78125 92.960938 50.28125 93.410156 50.105469 C 93.855469 49.9375 94.355469 50.167969 94.53125 50.613281 C 95.03125 51.957031 95.839844 53.203125 96.851562 54.234375 L 96.902344 54.273438 C 97.097656 54.472656 97.328125 54.703125 97.503906 55.003906 C 97.953125 55.773438 97.992188 57.019531 97.089844 58.089844 C 96.476562 58.808594 95.675781 59.203125 94.957031 59.558594 C 94.832031 59.617188 94.699219 59.648438 94.574219 59.648438 Z M 94.574219 59.648438 " fill-opacity="1" fill-rule="nonzero"/><path fill="#021b23" d="M 77.261719 43.761719 C 76.96875 43.761719 76.691406 43.585938 76.574219 43.296875 C 76.429688 42.921875 76.617188 42.496094 77 42.347656 L 77.011719 42.347656 C 80.359375 41.070312 83.261719 39.957031 87.722656 41.578125 C 88.105469 41.714844 88.292969 42.140625 88.15625 42.515625 C 88.023438 42.898438 87.597656 43.085938 87.222656 42.953125 C 83.269531 41.515625 80.746094 42.484375 77.53125 43.710938 L 77.519531 43.710938 C 77.4375 43.753906 77.34375 43.761719 77.261719 43.761719 Z M 97.703125 42.878906 C 97.441406 42.878906 97.191406 42.746094 97.058594 42.503906 C 96.859375 42.152344 96.984375 41.703125 97.339844 41.507812 C 101.425781 39.242188 103.972656 39.980469 106.664062 40.757812 C 106.808594 40.800781 106.957031 40.839844 107.101562 40.882812 C 107.484375 40.996094 107.714844 41.402344 107.601562 41.789062 C 107.484375 42.171875 107.082031 42.402344 106.695312 42.285156 C 106.550781 42.246094 106.40625 42.203125 106.257812 42.164062 C 103.660156 41.414062 101.601562 40.8125 98.054688 42.785156 C 97.941406 42.859375 97.828125 42.878906 97.703125 42.878906 Z M 97.703125 42.878906 " fill-opacity="1" fill-rule="nonzero"/><path fill="#ffffff" d="M 86.816406 64.503906 L 99.0625 64.503906 C 98.304688 67.574219 96.695312 71.265625 92.941406 71.265625 C 88.367188 71.265625 87.097656 64.816406 86.816406 64.503906 " fill-opacity="1" fill-rule="nonzero"/><g clip-path="url(#43f6a159ab)"><g clip-path="url(#c4a72972e5)"><g clip-path="url(#ee009db5ef)"><g transform="matrix(1, 0, 0, 1, 75, 33)"><g clip-path="url(#04cbbd0319)"><g clip-path="url(#535b21367f)"><g clip-path="url(#3af4c65c28)"><g clip-path="url(#d06c308be8)"><path fill="#fec4b9" d="M -5.363281 35.9375 L 11.058594 -4.257812 L 36.847656 6.277344 L 20.425781 46.472656 Z M -5.363281 35.9375 " fill-opacity="1" fill-rule="nonzero"/></g></g></g></g></g></g></g></g><g clip-path="url(#2b05eabc50)"><g clip-path="url(#cc223e66b6)"><g clip-path="url(#9709c27c39)"><g transform="matrix(1, 0, 0, 1, 73, 33)"><g clip-path="url(#7d09bb11ea)"><g clip-path="url(#667e953ea4)"><g clip-path="url(#37546cbe64)"><g clip-path="url(#9dcc515705)"><path fill="#fec4b9" d="M -3.359375 8.617188 L 23.121094 -4.246094 L 31.375 12.746094 L 4.890625 25.609375 Z M -3.359375 8.617188 " fill-opacity="1" fill-rule="nonzero"/></g></g></g></g></g></g></g></g><g clip-path="url(#11d983f27e)"><g clip-path="url(#3a9004b20d)"><g clip-path="url(#2f16df5793)"><g transform="matrix(1, 0, 0, 1, 80, 33)"><g clip-path="url(#224f76892e)"><g clip-path="url(#e9b0c0d432)"><g clip-path="url(#3e7d310c7c)"><g clip-path="url(#fd7104bb9d)"><path fill="#fec4b9" d="M -2.882812 8.617188 L 23.601562 -4.246094 L 31.855469 12.746094 L 5.371094 25.609375 Z M -2.882812 8.617188 " fill-opacity="1" fill-rule="nonzero"/></g></g></g></g></g></g></g></g></svg>