<svg xmlns="http://www.w3.org/2000/svg" xmlns:xlink="http://www.w3.org/1999/xlink" width="287" zoomAndPan="magnify" viewBox="0 0 215.25 214.499992" height="286" preserveAspectRatio="xMidYMid meet" version="1.0"><defs><filter x="0%" y="0%" width="100%" height="100%" id="44a733c2c8"><feColorMatrix values="0 0 0 0 1 0 0 0 0 1 0 0 0 0 1 0 0 0 1 0" color-interpolation-filters="sRGB"/></filter><clipPath id="7b9e2df145"><path d="M 0 42 L 108 42 L 108 213.878906 L 0 213.878906 Z M 0 42 " clip-rule="nonzero"/></clipPath><clipPath id="a04e650511"><path d="M 41 173 L 96 173 L 96 213.878906 L 41 213.878906 Z M 41 173 " clip-rule="nonzero"/></clipPath><mask id="56cb95b986"><g filter="url(#44a733c2c8)"><rect x="-21.525" width="258.3" fill="#000000" y="-21.449999" height="257.39999" fill-opacity="0.1"/></g></mask><clipPath id="fc6512beda"><path d="M 0.136719 0.28125 L 54.425781 0.28125 L 54.425781 40.699219 L 0.136719 40.699219 Z M 0.136719 0.28125 " clip-rule="nonzero"/></clipPath><clipPath id="ef8ede6169"><rect x="0" width="55" y="0" height="41"/></clipPath><clipPath id="e8d4ba9388"><path d="M 92 0.125 L 214.503906 0.125 L 214.503906 122 L 92 122 Z M 92 0.125 " clip-rule="nonzero"/></clipPath><clipPath id="eb8fffdd31"><path d="M 92 55 L 214.503906 55 L 214.503906 122 L 92 122 Z M 92 55 " clip-rule="nonzero"/></clipPath></defs><g clip-path="url(#7b9e2df145)"><path fill="#f7d5bf" d="M 39.351562 55.515625 C 34.484375 55.515625 30.542969 59.46875 30.542969 64.34375 L 30.542969 124.085938 L 17.144531 110.65625 C 13.4375 106.9375 7.421875 106.9375 3.710938 110.65625 C 0 114.375 0 120.40625 3.710938 124.125 C 9.574219 130.003906 15.15625 137.910156 20.917969 146.0625 C 25.925781 153.152344 31.066406 160.433594 36.644531 166.738281 C 41.074219 171.746094 44.054688 178.023438 44.054688 184.707031 L 44.054688 200.980469 C 44.054688 207.894531 49.660156 213.503906 56.574219 213.503906 L 82.542969 213.503906 C 89.460938 213.503906 95.066406 207.894531 95.066406 200.980469 L 95.066406 184.332031 C 95.066406 177.945312 98.011719 172.027344 101.375 166.601562 C 105.019531 160.726562 107.121094 153.792969 107.121094 146.363281 L 107.121094 77.402344 C 107.121094 72.527344 103.179688 68.574219 98.316406 68.574219 C 93.453125 68.574219 89.507812 72.527344 89.507812 77.402344 L 89.507812 109.777344 C 89.507812 110.339844 89.050781 110.796875 88.488281 110.796875 C 87.925781 110.796875 87.46875 110.339844 87.46875 109.777344 L 87.46875 64.34375 C 87.46875 59.46875 83.523438 55.515625 78.660156 55.515625 C 73.796875 55.515625 69.851562 59.46875 69.851562 64.34375 L 69.851562 109.777344 C 69.851562 110.339844 69.394531 110.796875 68.832031 110.796875 C 68.269531 110.796875 67.8125 110.339844 67.8125 109.777344 L 67.8125 51.675781 C 67.8125 46.800781 63.867188 42.847656 59.003906 42.847656 C 54.140625 42.847656 50.199219 46.800781 50.199219 51.675781 L 50.199219 109.777344 C 50.199219 110.339844 49.742188 110.796875 49.175781 110.796875 C 48.613281 110.796875 48.15625 110.339844 48.15625 109.777344 L 48.15625 64.34375 C 48.15625 59.46875 44.214844 55.515625 39.351562 55.515625 Z M 39.351562 55.515625 " fill-opacity="1" fill-rule="nonzero"/></g><g clip-path="url(#a04e650511)"><g mask="url(#56cb95b986)"><g transform="matrix(1, 0, 0, 1, 41, 173)"><g clip-path="url(#ef8ede6169)"><g clip-path="url(#fc6512beda)"><path fill="#176598" d="M 54.066406 13.320312 C 51.695312 13.507812 49.296875 13.605469 46.878906 13.605469 C 29.828125 13.605469 13.890625 8.851562 0.316406 0.59375 C 2.039062 4.046875 3.054688 7.808594 3.054688 11.707031 L 3.054688 27.980469 C 3.054688 34.894531 8.660156 40.503906 15.574219 40.503906 L 41.546875 40.503906 C 48.460938 40.503906 54.066406 34.894531 54.066406 27.980469 Z M 54.066406 13.320312 " fill-opacity="1" fill-rule="nonzero"/></g></g></g></g></g><g clip-path="url(#e8d4ba9388)"><path fill="#dbf5d2" d="M 99.375 88.550781 C 95.136719 80.265625 92.746094 70.878906 92.746094 60.933594 C 92.746094 27.382812 119.945312 0.183594 153.496094 0.183594 C 187.046875 0.183594 214.246094 27.382812 214.246094 60.933594 C 214.246094 94.484375 187.046875 121.683594 153.496094 121.683594 C 143.550781 121.683594 134.164062 119.292969 125.878906 115.054688 L 92.746094 121.683594 Z M 99.375 88.550781 " fill-opacity="1" fill-rule="nonzero"/></g><path fill="#176598" d="M 143.78125 70.140625 L 143.78125 59.179688 C 143.78125 55.234375 148.164062 54.574219 152.660156 53.367188 C 157.046875 52.164062 161.433594 50.410156 161.433594 44.050781 C 161.433594 39.226562 156.9375 35.71875 152.332031 35.71875 C 143.121094 35.71875 141.695312 46.570312 134.679688 46.570312 C 130.730469 46.570312 127.992188 43.5 127.992188 38.679688 C 127.992188 27.167969 142.464844 20.589844 152.332031 20.589844 C 166.476562 20.589844 178.539062 29.359375 178.539062 44.050781 C 178.539062 56.21875 170.863281 63.34375 159.570312 66.195312 L 159.570312 70.140625 C 159.570312 74.527344 156.28125 77.707031 151.675781 77.707031 C 146.742188 77.707031 143.78125 74.527344 143.78125 70.140625 Z M 151.675781 101.277344 C 146.960938 101.277344 143.121094 97.441406 143.121094 92.726562 C 143.121094 88.011719 146.960938 84.175781 151.675781 84.175781 C 156.390625 84.175781 160.226562 88.011719 160.226562 92.726562 C 160.226562 97.441406 156.390625 101.277344 151.675781 101.277344 Z M 151.675781 101.277344 " fill-opacity="1" fill-rule="nonzero"/><g clip-path="url(#eb8fffdd31)"><path fill="#cbe3c3" d="M 93.464844 70.292969 C 94.464844 76.773438 96.492188 82.917969 99.375 88.550781 L 92.746094 121.683594 L 125.878906 115.058594 C 134.164062 119.292969 143.550781 121.683594 153.496094 121.683594 C 187.046875 121.683594 214.246094 94.484375 214.246094 60.933594 C 214.246094 59.175781 214.171875 57.433594 214.023438 55.710938 C 207.171875 84.238281 181.566406 105.429688 151.03125 105.429688 C 125.976562 105.429688 104.246094 91.167969 93.464844 70.292969 Z M 93.464844 70.292969 " fill-opacity="1" fill-rule="nonzero"/></g></svg>