<svg xmlns="http://www.w3.org/2000/svg" xmlns:xlink="http://www.w3.org/1999/xlink" width="634" zoomAndPan="magnify" viewBox="0 0 475.5 509.249984" height="679" preserveAspectRatio="xMidYMid meet" version="1.0"><defs><clipPath id="7dc3480f1c"><path d="M 0.101562 0 L 474.902344 0 L 474.902344 508.5 L 0.101562 508.5 Z M 0.101562 0 " clip-rule="nonzero"/></clipPath><clipPath id="1b2987f026"><path d="M 126 312 L 328 312 L 328 506.957031 L 126 506.957031 Z M 126 312 " clip-rule="nonzero"/></clipPath><clipPath id="9728eb5339"><path d="M 0.101562 199 L 120 199 L 120 334 L 0.101562 334 Z M 0.101562 199 " clip-rule="nonzero"/></clipPath><clipPath id="df2966465c"><path d="M 340 0 L 474.230469 0 L 474.230469 162 L 340 162 Z M 340 0 " clip-rule="nonzero"/></clipPath><clipPath id="630d2e3e54"><path d="M 321 447 L 364 447 L 364 506.957031 L 321 506.957031 Z M 321 447 " clip-rule="nonzero"/></clipPath><clipPath id="ec0d3b445c"><path d="M 96 447 L 139 447 L 139 506.957031 L 96 506.957031 Z M 96 447 " clip-rule="nonzero"/></clipPath><clipPath id="74e6822ecc"><path d="M 175 380 L 349 380 L 349 506.957031 L 175 506.957031 Z M 175 380 " clip-rule="nonzero"/></clipPath><clipPath id="3e2f390fa7"><path d="M 321 451 L 349 451 L 349 506.957031 L 321 506.957031 Z M 321 451 " clip-rule="nonzero"/></clipPath><clipPath id="62975fa87c"><path d="M 115 451 L 139 451 L 139 506.957031 L 115 506.957031 Z M 115 451 " clip-rule="nonzero"/></clipPath><clipPath id="3f407cd2cc"><path d="M 151.175781 144.222656 L 301.542969 144.222656 L 301.542969 253.890625 L 151.175781 253.890625 Z M 151.175781 144.222656 " clip-rule="nonzero"/></clipPath><clipPath id="ff146d09e9"><path d="M 226.269531 144.222656 C 184.796875 144.222656 151.175781 168.773438 151.175781 199.054688 C 151.175781 229.339844 184.796875 253.890625 226.269531 253.890625 C 267.746094 253.890625 301.367188 229.339844 301.367188 199.054688 C 301.367188 168.773438 267.746094 144.222656 226.269531 144.222656 Z M 226.269531 144.222656 " clip-rule="nonzero"/></clipPath><clipPath id="0ead31eed7"><path d="M 0.175781 0.222656 L 150.542969 0.222656 L 150.542969 109.890625 L 0.175781 109.890625 Z M 0.175781 0.222656 " clip-rule="nonzero"/></clipPath><clipPath id="9a69b6f9a4"><path d="M 75.269531 0.222656 C 33.796875 0.222656 0.175781 24.773438 0.175781 55.054688 C 0.175781 85.339844 33.796875 109.890625 75.269531 109.890625 C 116.746094 109.890625 150.367188 85.339844 150.367188 55.054688 C 150.367188 24.773438 116.746094 0.222656 75.269531 0.222656 Z M 75.269531 0.222656 " clip-rule="nonzero"/></clipPath><clipPath id="74aa42187d"><rect x="0" width="151" y="0" height="110"/></clipPath><clipPath id="5f6897d2f6"><path d="M 169.457031 123.480469 L 226.339844 123.480469 L 226.339844 164.964844 L 169.457031 164.964844 Z M 169.457031 123.480469 " clip-rule="nonzero"/></clipPath><clipPath id="2de7dfcb5d"><path d="M 197.863281 123.480469 C 182.175781 123.480469 169.457031 132.765625 169.457031 144.222656 C 169.457031 155.679688 182.175781 164.964844 197.863281 164.964844 C 213.550781 164.964844 226.269531 155.679688 226.269531 144.222656 C 226.269531 132.765625 213.550781 123.480469 197.863281 123.480469 Z M 197.863281 123.480469 " clip-rule="nonzero"/></clipPath><clipPath id="2b792bd46b"><path d="M 0.457031 0.480469 L 57.328125 0.480469 L 57.328125 41.964844 L 0.457031 41.964844 Z M 0.457031 0.480469 " clip-rule="nonzero"/></clipPath><clipPath id="17bc9269d6"><path d="M 28.863281 0.480469 C 13.175781 0.480469 0.457031 9.765625 0.457031 21.222656 C 0.457031 32.679688 13.175781 41.964844 28.863281 41.964844 C 44.550781 41.964844 57.269531 32.679688 57.269531 21.222656 C 57.269531 9.765625 44.550781 0.480469 28.863281 0.480469 Z M 28.863281 0.480469 " clip-rule="nonzero"/></clipPath><clipPath id="486d0f8bec"><rect x="0" width="58" y="0" height="42"/></clipPath><clipPath id="41c95f5c3f"><path d="M 237.171875 133.429688 L 294 133.429688 L 294 174.917969 L 237.171875 174.917969 Z M 237.171875 133.429688 " clip-rule="nonzero"/></clipPath><clipPath id="1b214bfacf"><path d="M 265.578125 133.429688 C 249.890625 133.429688 237.171875 142.714844 237.171875 154.171875 C 237.171875 165.628906 249.890625 174.917969 265.578125 174.917969 C 281.265625 174.917969 293.984375 165.628906 293.984375 154.171875 C 293.984375 142.714844 281.265625 133.429688 265.578125 133.429688 Z M 265.578125 133.429688 " clip-rule="nonzero"/></clipPath><clipPath id="87b0c136b6"><path d="M 0.171875 0.429688 L 57 0.429688 L 57 41.917969 L 0.171875 41.917969 Z M 0.171875 0.429688 " clip-rule="nonzero"/></clipPath><clipPath id="cda7a4c673"><path d="M 28.578125 0.429688 C 12.890625 0.429688 0.171875 9.714844 0.171875 21.171875 C 0.171875 32.628906 12.890625 41.917969 28.578125 41.917969 C 44.265625 41.917969 56.984375 32.628906 56.984375 21.171875 C 56.984375 9.714844 44.265625 0.429688 28.578125 0.429688 Z M 28.578125 0.429688 " clip-rule="nonzero"/></clipPath><clipPath id="ba6998756b"><rect x="0" width="57" y="0" height="42"/></clipPath><clipPath id="6f3555872a"><rect x="0" width="475" y="0" height="509"/></clipPath><clipPath id="84da08e1f9"><path d="M 154.597656 149.09375 L 272.726562 149.09375 L 272.726562 267.222656 L 154.597656 267.222656 Z M 154.597656 149.09375 " clip-rule="nonzero"/></clipPath><clipPath id="8fd1362f86"><path d="M 213.664062 149.09375 C 181.042969 149.09375 154.597656 175.539062 154.597656 208.160156 C 154.597656 240.777344 181.042969 267.222656 213.664062 267.222656 C 246.285156 267.222656 272.726562 240.777344 272.726562 208.160156 C 272.726562 175.539062 246.285156 149.09375 213.664062 149.09375 Z M 213.664062 149.09375 " clip-rule="nonzero"/></clipPath><clipPath id="23b6b86ca4"><path d="M 0.597656 0.09375 L 118.726562 0.09375 L 118.726562 118.222656 L 0.597656 118.222656 Z M 0.597656 0.09375 " clip-rule="nonzero"/></clipPath><clipPath id="5565c73262"><path d="M 59.664062 0.09375 C 27.042969 0.09375 0.597656 26.539062 0.597656 59.160156 C 0.597656 91.777344 27.042969 118.222656 59.664062 118.222656 C 92.285156 118.222656 118.726562 91.777344 118.726562 59.160156 C 118.726562 26.539062 92.285156 0.09375 59.664062 0.09375 Z M 59.664062 0.09375 " clip-rule="nonzero"/></clipPath><clipPath id="556c7a8f24"><rect x="0" width="119" y="0" height="119"/></clipPath></defs><g clip-path="url(#7dc3480f1c)"><g transform="matrix(1, 0, 0, 1, 0, 0)"><g clip-path="url(#6f3555872a)"><g clip-path="url(#1b2987f026)"><path fill="#655f68" d="M 265.902344 312.617188 L 194.253906 312.617188 C 194.253906 312.617188 161.933594 317.789062 138.890625 332.382812 C 127.332031 370.421875 128.523438 410.996094 138.890625 453.398438 C 121.675781 472.589844 124.207031 490.246094 138.890625 506.957031 L 269.496094 506.957031 L 321.261719 483.101562 C 329.800781 472.800781 330.550781 462.867188 321.261719 453.398438 C 329.917969 410.734375 330.429688 370.261719 321.261719 332.382812 C 298.21875 317.789062 265.902344 312.617188 265.902344 312.617188 Z M 265.902344 312.617188 " fill-opacity="1" fill-rule="nonzero"/></g><g clip-path="url(#9728eb5339)"><path fill="#d6eae8" d="M 119.644531 257.742188 C 119.644531 274.636719 112.222656 289.832031 100.390625 300.441406 C 101.925781 312.789062 105.683594 323.921875 112.835938 333.191406 C 96.417969 331.972656 84.164062 324.910156 74.601562 314.058594 C 69.902344 315.210938 64.980469 315.824219 59.914062 315.824219 C 26.917969 315.824219 0.179688 289.824219 0.179688 257.742188 C 0.179688 225.65625 26.917969 199.644531 59.914062 199.644531 C 92.894531 199.644531 119.644531 225.65625 119.644531 257.742188 Z M 119.644531 257.742188 " fill-opacity="1" fill-rule="nonzero"/></g><g clip-path="url(#df2966465c)"><path fill="#d6eae8" d="M 474.152344 66.722656 C 474.152344 103.488281 444.371094 133.300781 407.582031 133.433594 C 394.609375 148.855469 378.179688 158.945312 356.867188 161.488281 C 365.621094 151.484375 370.851562 138.890625 372.582031 123.714844 C 353.34375 112 340.507812 90.863281 340.507812 66.722656 C 340.507812 29.875 370.421875 0 407.335938 0 C 444.238281 0 474.152344 29.875 474.152344 66.722656 Z M 474.152344 66.722656 " fill-opacity="1" fill-rule="nonzero"/></g><path fill="#1498b7" d="M 372.949219 432.414062 C 374.964844 439.101562 370.574219 446 363.652344 447.042969 C 347.917969 456.019531 333.292969 460.25 321.261719 453.398438 L 321.261719 332.382812 C 325.53125 335.09375 329.484375 338.117188 332.851562 341.5 C 349.105469 357.8125 365.761719 408.527344 372.949219 432.414062 Z M 372.949219 432.414062 " fill-opacity="1" fill-rule="nonzero"/><path fill="#1498b7" d="M 138.890625 332.382812 L 138.890625 453.398438 C 124.757812 462.246094 110.625 460.128906 96.488281 447.042969 C 89.578125 446 85.1875 439.101562 87.195312 432.414062 C 94.378906 408.527344 111.035156 357.8125 127.300781 341.5 C 130.671875 338.117188 134.621094 335.09375 138.890625 332.382812 Z M 138.890625 332.382812 " fill-opacity="1" fill-rule="nonzero"/><path fill="#1498b7" d="M 230.070312 326.761719 C 246.46875 323.632812 251.910156 331.8125 251.558594 345.976562 L 230.070312 370.097656 L 208.59375 345.976562 C 208.089844 328.664062 214.960938 321.847656 230.070312 326.761719 Z M 230.070312 326.761719 " fill-opacity="1" fill-rule="nonzero"/><path fill="#1ea6bc" d="M 265.902344 312.617188 C 269.503906 325.25 267.253906 338.609375 258.695312 352.355469 L 251.558594 345.976562 L 230.070312 326.761719 C 230.054688 304.542969 241.980469 298.351562 261.859375 302.824219 C 263.609375 306.035156 264.949219 309.304688 265.902344 312.617188 Z M 265.902344 312.617188 " fill-opacity="1" fill-rule="nonzero"/><path fill="#1ea6bc" d="M 230.070312 326.761719 L 208.59375 345.976562 L 201.460938 352.355469 C 192.902344 338.609375 190.648438 325.25 194.253906 312.617188 C 195.195312 309.292969 196.546875 306.035156 198.285156 302.824219 C 214.417969 297.777344 225.511719 304.589844 230.070312 326.761719 Z M 230.070312 326.761719 " fill-opacity="1" fill-rule="nonzero"/><path fill="#5d5560" d="M 258.429688 31.644531 C 210.90625 20.105469 167.574219 53.046875 149.648438 58.035156 C 131.726562 63.023438 113.667969 59.394531 113.667969 59.394531 C 116.984375 72.671875 124.078125 83.433594 136.445312 90.679688 C 123.371094 93.09375 111.90625 91.609375 101.933594 86.519531 C 103.144531 117.417969 114.160156 143.070312 136.628906 162.972656 C 197.382812 165.507812 253.832031 154.929688 296.785156 103.210938 L 316.625 89.945312 C 316.421875 89.054688 305.476562 43.070312 258.429688 31.644531 Z M 258.429688 31.644531 " fill-opacity="1" fill-rule="nonzero"/><path fill="#655f68" d="M 337.980469 118.417969 C 336.3125 103.160156 326.054688 92.96875 316.625 89.945312 C 312.683594 88.675781 308.894531 88.65625 305.9375 90.035156 C 301.578125 92.070312 298.535156 96.84375 296.785156 103.210938 C 266.796875 143.738281 282.617188 166.554688 323.710938 179.601562 C 323.710938 179.601562 340.507812 141.476562 337.980469 118.417969 Z M 337.980469 118.417969 " fill-opacity="1" fill-rule="nonzero"/><g clip-path="url(#630d2e3e54)"><path fill="#fec4b9" d="M 363.652344 447.042969 L 363.652344 506.957031 L 348.15625 506.957031 C 330.75 502.257812 319.179688 495.308594 321.261719 483.101562 L 321.261719 453.398438 Z M 363.652344 447.042969 " fill-opacity="1" fill-rule="nonzero"/></g><g clip-path="url(#ec0d3b445c)"><path fill="#fec4b9" d="M 138.890625 453.398438 L 138.890625 506.957031 L 96.488281 506.957031 L 96.488281 447.042969 Z M 138.890625 453.398438 " fill-opacity="1" fill-rule="nonzero"/></g><g clip-path="url(#74e6822ecc)"><path fill="#ffd7d2" d="M 250.503906 489.5 C 239.828125 491.246094 226.179688 492.269531 216.621094 488.628906 C 204.101562 483.867188 188.109375 468.792969 179.5625 460.105469 C 177.515625 458.019531 176.460938 455.28125 176.460938 452.519531 C 176.460938 450.476562 177.042969 448.410156 178.230469 446.589844 C 181.519531 441.582031 188.242188 440.183594 193.25 443.453125 L 184.363281 437.648438 C 179.878906 434.726562 178.621094 428.714844 181.558594 424.238281 C 183.421875 421.386719 186.523438 419.84375 189.6875 419.84375 C 191.507812 419.84375 193.351562 420.363281 194.988281 421.429688 L 180.269531 411.808594 C 175.785156 408.886719 174.527344 402.875 177.464844 398.398438 C 179.328125 395.558594 182.4375 394.015625 185.601562 394.015625 C 187.425781 394.015625 189.265625 394.527344 190.90625 395.589844 L 200.117188 401.609375 C 197.386719 399.738281 195.902344 396.714844 195.902344 393.605469 C 195.902344 391.789062 196.414062 389.949219 197.488281 388.3125 C 200.414062 383.835938 206.433594 382.578125 210.917969 385.511719 L 253.257812 413.167969 L 243.644531 398.144531 C 242.417969 396.234375 241.832031 394.097656 241.832031 391.980469 C 241.832031 388.148438 243.769531 384.398438 247.300781 382.230469 C 252.089844 379.289062 258.316406 380.238281 261.992188 384.5 C 269.464844 393.15625 281.082031 407.855469 284.460938 419.015625 C 287.285156 428.367188 286.765625 441.613281 285.730469 451.570312 L 321.261719 483.101562 L 348.15625 506.957031 L 269.496094 506.957031 Z M 250.503906 489.5 " fill-opacity="1" fill-rule="nonzero"/></g><path fill="#f7b6ad" d="M 323.710938 179.601562 C 337.785156 183.292969 343.84375 200.226562 338.6875 214.21875 C 334.222656 226.339844 323.976562 233.804688 313.675781 232.566406 C 298.777344 216.617188 299.703125 197.5625 323.710938 179.601562 Z M 323.710938 179.601562 " fill-opacity="1" fill-rule="nonzero"/><path fill="#f7b6ad" d="M 146.476562 232.566406 C 136.167969 233.804688 125.921875 226.339844 121.457031 214.21875 C 116.308594 200.226562 122.367188 183.292969 136.445312 179.601562 C 171.539062 190.347656 170.789062 210.480469 146.476562 232.566406 Z M 146.476562 232.566406 " fill-opacity="1" fill-rule="nonzero"/><path fill="#fec4b9" d="M 296.550781 133.730469 C 294.429688 122.558594 294.492188 111.53125 296.785156 103.210938 C 287.808594 101.035156 280.398438 96.699219 274.335938 90.476562 C 274.335938 90.476562 264.570312 107.441406 248.507812 117.355469 C 232.457031 127.269531 209.75 127.609375 209.75 127.609375 C 218.503906 114.902344 222.210938 101.554688 219.855469 87.429688 C 219.855469 87.429688 191.273438 92.796875 169.714844 111.285156 C 148.15625 129.765625 136.628906 162.972656 136.628906 162.972656 C 136.453125 169.144531 136.445312 174.777344 136.445312 179.601562 C 136.445312 199.707031 140.9375 218.441406 146.476562 232.566406 C 148.820312 238.566406 151.359375 243.738281 153.816406 247.824219 C 161.546875 260.671875 177.914062 276.996094 198.285156 286.257812 L 198.285156 302.824219 L 230.070312 326.761719 L 261.859375 302.824219 L 261.859375 286.257812 C 282.238281 276.996094 298.609375 260.671875 306.335938 247.824219 C 308.792969 243.738281 311.332031 238.566406 313.675781 232.566406 C 319.214844 218.441406 323.710938 199.707031 323.710938 179.601562 C 323.710938 179.601562 300.296875 153.457031 296.550781 133.730469 Z M 296.550781 133.730469 " fill-opacity="1" fill-rule="nonzero"/><path fill="#e15c63" d="M 253.277344 202.484375 C 259.296875 207.679688 258.417969 217.285156 251.507812 221.210938 C 245.960938 224.367188 238.691406 227.058594 230.070312 227.058594 C 221.441406 227.058594 214.171875 224.359375 208.625 221.199219 C 201.714844 217.285156 200.835938 207.679688 206.84375 202.484375 L 206.863281 202.464844 C 210.558594 199.265625 215.863281 198.734375 220.121094 201.148438 C 222.835938 202.679688 226.261719 203.988281 230.070312 203.988281 C 233.878906 203.988281 237.269531 202.722656 239.949219 201.21875 C 244.238281 198.816406 249.550781 199.277344 253.277344 202.484375 Z M 253.277344 202.484375 " fill-opacity="1" fill-rule="nonzero"/><path fill="#604533" d="M 269.035156 167.152344 C 275.09375 167.152344 279.996094 172.046875 279.996094 178.089844 C 279.996094 184.128906 275.09375 189.023438 269.035156 189.023438 C 262.984375 189.023438 258.078125 184.128906 258.078125 178.089844 C 258.078125 172.046875 262.984375 167.152344 269.035156 167.152344 Z M 269.035156 167.152344 " fill-opacity="1" fill-rule="nonzero"/><path fill="#604533" d="M 202.0625 178.089844 C 202.0625 178.808594 201.992188 179.519531 201.851562 180.222656 C 201.710938 180.925781 201.503906 181.609375 201.230469 182.273438 C 200.953125 182.9375 200.617188 183.566406 200.21875 184.164062 C 199.816406 184.761719 199.363281 185.3125 198.855469 185.820312 C 198.347656 186.328125 197.792969 186.78125 197.195312 187.183594 C 196.597656 187.582031 195.964844 187.917969 195.300781 188.191406 C 194.636719 188.46875 193.953125 188.675781 193.246094 188.816406 C 192.542969 188.957031 191.828125 189.023438 191.109375 189.023438 C 190.390625 189.023438 189.679688 188.957031 188.972656 188.816406 C 188.265625 188.675781 187.582031 188.46875 186.917969 188.191406 C 186.253906 187.917969 185.621094 187.582031 185.023438 187.183594 C 184.425781 186.78125 183.871094 186.328125 183.363281 185.820312 C 182.855469 185.3125 182.402344 184.761719 182.003906 184.164062 C 181.601562 183.566406 181.265625 182.9375 180.988281 182.273438 C 180.714844 181.609375 180.507812 180.925781 180.367188 180.222656 C 180.226562 179.519531 180.15625 178.808594 180.15625 178.089844 C 180.15625 177.371094 180.226562 176.660156 180.367188 175.957031 C 180.507812 175.25 180.714844 174.566406 180.988281 173.902344 C 181.265625 173.238281 181.601562 172.609375 182.003906 172.011719 C 182.402344 171.414062 182.855469 170.863281 183.363281 170.355469 C 183.871094 169.847656 184.425781 169.394531 185.023438 168.996094 C 185.621094 168.597656 186.253906 168.257812 186.917969 167.984375 C 187.582031 167.710938 188.265625 167.503906 188.972656 167.363281 C 189.679688 167.222656 190.390625 167.152344 191.109375 167.152344 C 191.828125 167.152344 192.542969 167.222656 193.246094 167.363281 C 193.953125 167.503906 194.636719 167.710938 195.300781 167.984375 C 195.964844 168.257812 196.597656 168.597656 197.195312 168.996094 C 197.792969 169.394531 198.347656 169.847656 198.855469 170.355469 C 199.363281 170.863281 199.816406 171.414062 200.21875 172.011719 C 200.617188 172.609375 200.953125 173.238281 201.230469 173.902344 C 201.503906 174.566406 201.710938 175.25 201.851562 175.957031 C 201.992188 176.660156 202.0625 177.371094 202.0625 178.089844 Z M 202.0625 178.089844 " fill-opacity="1" fill-rule="nonzero"/><path fill="#0d87a3" d="M 138.890625 332.382812 L 138.890625 453.398438 L 127.015625 451.621094 C 133.824219 400.085938 138.890625 332.382812 138.890625 332.382812 Z M 138.890625 332.382812 " fill-opacity="1" fill-rule="nonzero"/><path fill="#0d87a3" d="M 331.886719 451.804688 L 321.261719 453.398438 L 321.261719 332.382812 C 321.261719 332.382812 323.597656 399.699219 331.886719 451.804688 Z M 331.886719 451.804688 " fill-opacity="1" fill-rule="nonzero"/><g clip-path="url(#3e2f390fa7)"><path fill="#f7b6ad" d="M 348.15625 506.957031 L 321.261719 483.101562 L 321.261719 453.398438 L 331.886719 451.804688 C 335.828125 476.601562 341.121094 497.941406 348.15625 506.957031 Z M 348.15625 506.957031 " fill-opacity="1" fill-rule="nonzero"/></g><g clip-path="url(#62975fa87c)"><path fill="#f7b6ad" d="M 138.890625 453.398438 L 138.890625 506.957031 L 115.519531 506.957031 C 119.511719 500.507812 123.496094 478.226562 127.015625 451.621094 Z M 138.890625 453.398438 " fill-opacity="1" fill-rule="nonzero"/></g><path fill="#f7b6ad" d="M 261.859375 286.257812 L 261.859375 299.851562 C 227.808594 321.875 198.285156 299.75 198.285156 299.75 L 198.285156 286.257812 C 208.125 290.722656 218.894531 293.554688 230.070312 293.554688 C 241.25 293.554688 252.019531 290.722656 261.859375 286.257812 Z M 261.859375 286.257812 " fill-opacity="1" fill-rule="nonzero"/><path fill="#5d5560" d="M 280.742188 148.96875 C 279.925781 148.96875 279.101562 148.726562 278.386719 148.222656 C 271.582031 143.433594 261.390625 145.082031 261.289062 145.097656 C 259.0625 145.472656 256.949219 143.980469 256.566406 141.757812 C 256.1875 139.535156 257.671875 137.425781 259.894531 137.039062 C 260.449219 136.945312 273.492188 134.773438 283.105469 141.539062 C 284.953125 142.839844 285.394531 145.390625 284.089844 147.234375 C 283.292969 148.367188 282.027344 148.96875 280.742188 148.96875 Z M 280.742188 148.96875 " fill-opacity="1" fill-rule="nonzero"/><path fill="#5d5560" d="M 179.402344 148.96875 C 178.113281 148.96875 176.847656 148.367188 176.050781 147.234375 C 174.75 145.390625 175.191406 142.839844 177.042969 141.539062 C 186.660156 134.773438 199.691406 136.945312 200.238281 137.042969 C 202.46875 137.429688 203.957031 139.546875 203.570312 141.773438 C 203.179688 143.992188 201.058594 145.476562 198.839844 145.097656 C 198.679688 145.070312 188.546875 143.449219 181.757812 148.222656 C 181.039062 148.726562 180.214844 148.96875 179.402344 148.96875 Z M 179.402344 148.96875 " fill-opacity="1" fill-rule="nonzero"/><path fill="#fec4b9" d="M 242.628906 433.476562 C 241.859375 433.476562 241.082031 433.261719 240.390625 432.8125 L 204.277344 409.214844 C 202.386719 407.976562 201.855469 405.445312 203.09375 403.554688 C 204.332031 401.664062 206.871094 401.136719 208.761719 402.371094 L 244.875 425.96875 C 246.765625 427.203125 247.296875 429.738281 246.058594 431.628906 C 245.273438 432.828125 243.964844 433.476562 242.628906 433.476562 Z M 242.628906 433.476562 " fill-opacity="1" fill-rule="nonzero"/><path fill="#fec4b9" d="M 232.003906 449.699219 C 231.234375 449.699219 230.457031 449.484375 229.761719 449.03125 L 196.5 427.300781 C 194.605469 426.0625 194.078125 423.53125 195.316406 421.640625 C 196.550781 419.75 199.089844 419.222656 200.984375 420.457031 L 234.25 442.191406 C 236.140625 443.425781 236.671875 445.957031 235.433594 447.847656 C 234.648438 449.046875 233.339844 449.699219 232.003906 449.699219 Z M 232.003906 449.699219 " fill-opacity="1" fill-rule="nonzero"/><path fill="#fec4b9" d="M 221.375 465.921875 C 220.609375 465.921875 219.828125 465.703125 219.136719 465.253906 L 196.5 450.464844 C 194.605469 449.226562 194.078125 446.695312 195.3125 444.804688 C 196.550781 442.914062 199.089844 442.382812 200.984375 443.621094 L 223.621094 458.410156 C 225.515625 459.648438 226.042969 462.179688 224.808594 464.070312 C 224.023438 465.269531 222.710938 465.921875 221.375 465.921875 Z M 221.375 465.921875 " fill-opacity="1" fill-rule="nonzero"/><g clip-path="url(#3f407cd2cc)"><g clip-path="url(#ff146d09e9)"><g transform="matrix(1, 0, 0, 1, 151, 144)"><g clip-path="url(#74aa42187d)"><g clip-path="url(#0ead31eed7)"><g clip-path="url(#9a69b6f9a4)"><path fill="#fec4b9" d="M 0.175781 0.222656 L 150.542969 0.222656 L 150.542969 109.890625 L 0.175781 109.890625 Z M 0.175781 0.222656 " fill-opacity="1" fill-rule="nonzero"/></g></g></g></g></g></g><g clip-path="url(#5f6897d2f6)"><g clip-path="url(#2de7dfcb5d)"><g transform="matrix(1, 0, 0, 1, 169, 123)"><g clip-path="url(#486d0f8bec)"><g clip-path="url(#2b792bd46b)"><g clip-path="url(#17bc9269d6)"><path fill="#fec4b9" d="M 0.457031 0.480469 L 57.339844 0.480469 L 57.339844 41.964844 L 0.457031 41.964844 Z M 0.457031 0.480469 " fill-opacity="1" fill-rule="nonzero"/></g></g></g></g></g></g><g clip-path="url(#41c95f5c3f)"><g clip-path="url(#1b214bfacf)"><g transform="matrix(1, 0, 0, 1, 237, 133)"><g clip-path="url(#ba6998756b)"><g clip-path="url(#87b0c136b6)"><g clip-path="url(#cda7a4c673)"><path fill="#fec4b9" d="M 0.171875 0.429688 L 57.050781 0.429688 L 57.050781 41.917969 L 0.171875 41.917969 Z M 0.171875 0.429688 " fill-opacity="1" fill-rule="nonzero"/></g></g></g></g></g></g></g></g></g><g clip-path="url(#84da08e1f9)"><g clip-path="url(#8fd1362f86)"><g transform="matrix(1, 0, 0, 1, 154, 149)"><g clip-path="url(#556c7a8f24)"><g clip-path="url(#23b6b86ca4)"><g clip-path="url(#5565c73262)"><path fill="#fec4b9" d="M 0.597656 0.09375 L 118.726562 0.09375 L 118.726562 118.222656 L 0.597656 118.222656 Z M 0.597656 0.09375 " fill-opacity="1" fill-rule="nonzero"/></g></g></g></g></g></g></svg>