<svg xmlns="http://www.w3.org/2000/svg" xmlns:xlink="http://www.w3.org/1999/xlink" width="299" zoomAndPan="magnify" viewBox="0 0 224.25 181.499992" height="242" preserveAspectRatio="xMidYMid meet" version="1.0"><defs><clipPath id="24b5bc708c"><path d="M 7 0.0546875 L 217 0.0546875 L 217 180 L 7 180 Z M 7 0.0546875 " clip-rule="nonzero"/></clipPath><clipPath id="d297ad3caa"><path d="M 203 53 L 223.503906 53 L 223.503906 72 L 203 72 Z M 203 53 " clip-rule="nonzero"/></clipPath></defs><g clip-path="url(#24b5bc708c)"><path fill="#ffc9bb" d="M 63.054688 0.09375 C 80.796875 0.09375 96.738281 8.339844 107.734375 21.457031 C 109.875 24.011719 113.625 24.011719 115.765625 21.457031 C 126.765625 8.339844 142.707031 0.09375 160.449219 0.09375 C 193.601562 0.09375 216.175781 28.886719 216.175781 64.410156 C 216.175781 85.652344 204.84375 120.03125 182.644531 140.742188 C 151.046875 170.234375 124.195312 177.824219 115.074219 179.652344 C 112.878906 180.09375 110.640625 180.09375 108.433594 179.652344 C 99.320312 177.824219 72.457031 170.234375 40.855469 140.742188 C 18.660156 120.03125 7.320312 85.652344 7.320312 64.410156 C 7.320312 28.886719 29.902344 0.09375 63.054688 0.09375 " fill-opacity="1" fill-rule="nonzero"/></g><path fill="#ff7171" d="M 202.511719 109.710938 C 178.957031 121.324219 132.542969 116.085938 105.027344 95.421875 C 75.242188 73.054688 70.9375 43.152344 64.726562 16.070312 C 62.445312 6.128906 47.335938 8.46875 48.867188 20.703125 C 49.558594 26.203125 48.945312 37.832031 45.472656 42.378906 C 43.550781 44.898438 41.59375 45.804688 38.199219 45.121094 C 32.035156 43.886719 21.6875 38.097656 17.464844 35.15625 C 11.382812 30.917969 3.367188 37.984375 5.78125 44.976562 C 2.730469 49.09375 2.117188 52.796875 2.996094 56.058594 C 1.109375 61.261719 1.722656 66.070312 3.621094 69.996094 C 3.367188 87 38.445312 114.011719 71.105469 131.636719 C 109.359375 152.277344 188.640625 174.011719 208.753906 115.210938 C 210.054688 111.40625 206.121094 107.929688 202.511719 109.710938 " fill-opacity="1" fill-rule="nonzero"/><path fill="#ff8c83" d="M 220.503906 56.058594 C 221.386719 52.796875 220.777344 49.09375 217.722656 44.976562 C 220.136719 37.984375 212.125 30.917969 206.03125 35.15625 C 201.8125 38.097656 191.464844 43.886719 185.304688 45.121094 C 181.910156 45.804688 179.953125 44.898438 178.027344 42.378906 C 174.558594 37.832031 173.941406 26.203125 174.636719 20.703125 C 176.167969 8.46875 161.054688 6.128906 158.777344 16.070312 C 152.5625 43.152344 148.261719 73.054688 118.472656 95.421875 C 90.960938 116.085938 44.542969 121.324219 20.988281 109.710938 C 17.378906 107.929688 13.449219 111.40625 14.75 115.210938 C 34.863281 174.011719 114.144531 152.277344 152.394531 131.636719 C 185.058594 114.011719 220.136719 87 219.882812 69.996094 C 221.773438 66.070312 222.394531 61.261719 220.503906 56.058594 " fill-opacity="1" fill-rule="nonzero"/><path fill="#ed4559" d="M 17.253906 71.769531 C 16.917969 71.769531 16.582031 71.699219 16.253906 71.566406 C 13.132812 70.316406 2.765625 65.535156 0.402344 56.753906 C 0.015625 55.324219 0.863281 53.851562 2.296875 53.464844 C 3.738281 53.089844 5.207031 53.933594 5.59375 55.367188 C 6.957031 60.441406 13.273438 64.589844 18.261719 66.59375 C 19.640625 67.152344 20.304688 68.710938 19.75 70.085938 C 19.324219 71.132812 18.324219 71.769531 17.253906 71.769531 " fill-opacity="1" fill-rule="nonzero"/><path fill="#ed4559" d="M 13.644531 81.949219 C 13.359375 81.949219 13.0625 81.910156 12.785156 81.8125 C 8.019531 80.207031 3.578125 76.128906 1.183594 71.167969 C 0.542969 69.835938 1.101562 68.230469 2.4375 67.585938 C 3.78125 66.945312 5.382812 67.503906 6.027344 68.84375 C 7.789062 72.488281 11.113281 75.589844 14.496094 76.726562 C 15.902344 77.203125 16.660156 78.726562 16.183594 80.128906 C 15.804688 81.246094 14.761719 81.949219 13.644531 81.949219 " fill-opacity="1" fill-rule="nonzero"/><path fill="#ed4559" d="M 22.359375 60.464844 C 21.957031 60.464844 21.550781 60.375 21.164062 60.183594 C 20.519531 59.871094 19.84375 59.550781 19.136719 59.222656 C 14.28125 56.945312 7.628906 53.824219 3.421875 46.28125 C 2.710938 44.988281 3.171875 43.355469 4.472656 42.636719 C 5.761719 41.917969 7.398438 42.378906 8.125 43.675781 C 11.484375 49.703125 16.765625 52.183594 21.417969 54.359375 C 22.15625 54.710938 22.878906 55.046875 23.558594 55.378906 C 24.878906 56.035156 25.425781 57.648438 24.765625 58.976562 C 24.296875 59.917969 23.347656 60.464844 22.359375 60.464844 " fill-opacity="1" fill-rule="nonzero"/><g clip-path="url(#d297ad3caa)"><path fill="#ff7171" d="M 206.25 71.769531 C 205.183594 71.769531 204.175781 71.132812 203.75 70.085938 C 203.199219 68.710938 203.863281 67.152344 205.242188 66.59375 C 210.230469 64.589844 216.546875 60.441406 217.910156 55.367188 C 218.296875 53.933594 219.765625 53.082031 221.207031 53.464844 C 222.632812 53.851562 223.484375 55.324219 223.101562 56.753906 C 220.738281 65.535156 210.367188 70.316406 207.25 71.566406 C 206.921875 71.699219 206.578125 71.769531 206.25 71.769531 " fill-opacity="1" fill-rule="nonzero"/></g><path fill="#ff7171" d="M 209.859375 81.949219 C 208.738281 81.949219 207.695312 81.246094 207.320312 80.128906 C 206.84375 78.726562 207.597656 77.203125 209.003906 76.726562 C 212.390625 75.589844 215.71875 72.488281 217.476562 68.84375 C 218.121094 67.503906 219.730469 66.945312 221.066406 67.585938 C 222.402344 68.230469 222.960938 69.835938 222.316406 71.167969 C 219.925781 76.128906 215.484375 80.207031 210.71875 81.8125 C 210.433594 81.910156 210.144531 81.949219 209.859375 81.949219 " fill-opacity="1" fill-rule="nonzero"/><path fill="#ff7171" d="M 201.140625 60.464844 C 200.15625 60.464844 199.203125 59.917969 198.734375 58.976562 C 198.078125 57.648438 198.625 56.035156 199.945312 55.378906 C 200.625 55.046875 201.335938 54.710938 202.085938 54.359375 C 206.738281 52.183594 212.019531 49.703125 215.378906 43.675781 C 216.097656 42.378906 217.734375 41.917969 219.03125 42.636719 C 220.332031 43.355469 220.800781 44.988281 220.070312 46.28125 C 215.875 53.824219 209.222656 56.945312 204.367188 59.222656 C 203.660156 59.550781 202.980469 59.871094 202.335938 60.183594 C 201.953125 60.375 201.546875 60.464844 201.140625 60.464844 " fill-opacity="1" fill-rule="nonzero"/></svg>