<svg xmlns="http://www.w3.org/2000/svg" xmlns:xlink="http://www.w3.org/1999/xlink" width="262" zoomAndPan="magnify" viewBox="0 0 196.5 186.749995" height="249" preserveAspectRatio="xMidYMid meet" version="1.0"><defs><clipPath id="3fa6cc9483"><path d="M 97 168 L 144 168 L 144 186.386719 L 97 186.386719 Z M 97 168 " clip-rule="nonzero"/></clipPath><clipPath id="0e288cb6a7"><path d="M 53 167 L 100 167 L 100 186.386719 L 53 186.386719 Z M 53 167 " clip-rule="nonzero"/></clipPath><clipPath id="88ef5b600e"><path d="M 181 121 L 195.253906 121 L 195.253906 132 L 181 132 Z M 181 121 " clip-rule="nonzero"/></clipPath><clipPath id="887bba7901"><path d="M 89.605469 49.585938 L 107.34375 49.585938 L 107.34375 63.476562 L 89.605469 63.476562 Z M 89.605469 49.585938 " clip-rule="nonzero"/></clipPath><clipPath id="273c717ab2"><path d="M 90.011719 49.625 C 89.828125 51.941406 89.636719 62.667969 89.636719 64.992188 C 89.636719 65.640625 91.929688 72.664062 98.472656 72.757812 C 104.707031 72.847656 106.851562 65.726562 107.003906 65.503906 C 107.175781 65.253906 107.226562 52.742188 107.3125 50.015625 Z M 90.011719 49.625 " clip-rule="nonzero"/></clipPath><clipPath id="5f72960425"><path d="M 87 0.113281 L 99 0.113281 L 99 13 L 87 13 Z M 87 0.113281 " clip-rule="nonzero"/></clipPath><clipPath id="90f4b68cf6"><path d="M 83.53125 27.128906 L 113.4375 27.128906 L 113.4375 53.4375 L 83.53125 53.4375 Z M 83.53125 27.128906 " clip-rule="nonzero"/></clipPath><clipPath id="10b61a04a8"><path d="M 98.433594 27.128906 C 90.203125 27.128906 83.53125 33.015625 83.53125 40.28125 C 83.53125 47.546875 90.203125 53.4375 98.433594 53.4375 C 106.664062 53.4375 113.335938 47.546875 113.335938 40.28125 C 113.335938 33.015625 106.664062 27.128906 98.433594 27.128906 Z M 98.433594 27.128906 " clip-rule="nonzero"/></clipPath><clipPath id="a98ee22b29"><path d="M 0.53125 0.128906 L 30.4375 0.128906 L 30.4375 26.4375 L 0.53125 26.4375 Z M 0.53125 0.128906 " clip-rule="nonzero"/></clipPath><clipPath id="25cf68e236"><path d="M 15.433594 0.128906 C 7.203125 0.128906 0.53125 6.015625 0.53125 13.28125 C 0.53125 20.546875 7.203125 26.4375 15.433594 26.4375 C 23.664062 26.4375 30.335938 20.546875 30.335938 13.28125 C 30.335938 6.015625 23.664062 0.128906 15.433594 0.128906 Z M 15.433594 0.128906 " clip-rule="nonzero"/></clipPath><clipPath id="cdf8837a79"><rect x="0" width="31" y="0" height="27"/></clipPath></defs><path fill="#39161d" d="M 76.089844 25.117188 C 76.371094 24.433594 77.539062 16.234375 82.105469 12.648438 C 84.921875 10.433594 91.035156 9.925781 91.890625 9.550781 C 92.121094 9.453125 97.753906 5.910156 102.769531 6.726562 C 108.320312 7.632812 111.726562 9.652344 113.714844 11.753906 C 116.679688 14.882812 117.65625 19.773438 118.699219 23.835938 L 125.746094 41.90625 C 127.765625 47.132812 134.3125 50.867188 133.183594 57.042969 C 132.808594 59.085938 130.769531 60.503906 129.679688 62.152344 C 126.253906 67.332031 122.863281 74.851562 116.640625 76.914062 C 109.605469 79.246094 101.589844 77.199219 94.335938 77.902344 C 87.664062 78.550781 79.804688 82.910156 73.378906 79.226562 C 68.113281 76.210938 65.917969 69.871094 63.976562 64.46875 C 63.128906 62.109375 62.261719 59.671875 61.929688 57.167969 C 60.566406 46.871094 69.816406 44.261719 73.769531 36.449219 C 75.570312 32.898438 74.609375 28.738281 76.089844 25.117188 " fill-opacity="1" fill-rule="evenodd"/><path fill="#533e49" d="M 76.648438 125.402344 L 117.808594 125.433594 C 121.015625 131.480469 136.203125 143.066406 135.992188 145.246094 C 135.65625 148.738281 131.832031 152.445312 129.726562 154.898438 C 128 156.914062 126.183594 158.847656 124.234375 160.648438 C 122.578125 162.183594 120.84375 163.644531 119.0625 165.035156 C 117.785156 166.027344 116.460938 166.957031 115.101562 167.835938 C 111.40625 170.214844 102.476562 174.164062 97.195312 171.832031 C 91.902344 174.101562 83.035156 170.175781 79.355469 167.804688 C 77.996094 166.929688 76.671875 166 75.394531 165.003906 C 73.613281 163.617188 71.878906 162.15625 70.21875 160.621094 C 68.273438 158.820312 66.457031 156.882812 64.730469 154.871094 C 62.625 152.417969 58.800781 148.707031 58.464844 145.21875 C 58.253906 143.035156 73.203125 132.515625 76.648438 125.402344 " fill-opacity="1" fill-rule="evenodd"/><g clip-path="url(#3fa6cc9483)"><path fill="#fdbcaa" d="M 105.511719 169.175781 C 107.574219 170.972656 110.824219 171.449219 113.449219 171.617188 C 120.0625 172.035156 126.390625 170.199219 132.863281 169.195312 C 135.347656 168.8125 137.847656 168.253906 140.371094 168.1875 C 141.160156 168.167969 142.457031 168.011719 143.101562 168.59375 C 144.222656 169.613281 143.707031 172.089844 143.332031 173.351562 C 142.363281 176.625 141.40625 179.933594 139.871094 182.996094 C 139.242188 184.246094 138.816406 185.601562 137.316406 186 C 135.832031 186.390625 134.191406 186.230469 132.679688 186.203125 C 130.28125 186.152344 127.878906 186.148438 125.480469 186.078125 C 122.339844 185.988281 119.203125 185.871094 116.0625 185.738281 C 113.886719 185.648438 111.710938 185.636719 109.566406 185.179688 C 107.742188 184.789062 106.019531 184.003906 104.296875 183.316406 C 101.992188 182.398438 99.648438 181.523438 97.433594 180.410156 L 105.511719 169.175781 " fill-opacity="1" fill-rule="evenodd"/></g><path fill="#674c5a" d="M 25.285156 130.238281 C 42.269531 124.535156 51.902344 133.1875 59.917969 138.515625 C 65.515625 142.234375 71.582031 145.136719 77.414062 148.441406 C 83.714844 152.011719 89.6875 156.171875 95.902344 159.890625 C 100.359375 162.554688 110.238281 166.90625 110.203125 173.054688 C 110.191406 175.128906 109.429688 177.128906 108.59375 178.996094 C 107.898438 180.542969 107.058594 182.027344 105.71875 183.101562 C 103.476562 184.90625 100.480469 184.800781 97.796875 184.402344 C 92.394531 183.609375 87.101562 181.902344 81.824219 180.546875 C 77.09375 179.332031 72.328125 178.195312 67.636719 176.855469 C 63.832031 175.765625 60.011719 174.667969 56.28125 173.347656 C 53.058594 172.210938 49.894531 170.929688 46.800781 169.484375 C 44.503906 168.40625 42.285156 167.195312 40.082031 165.9375 C 29.882812 160.128906 12.867188 149.136719 21.355469 135.246094 C 21.355469 135.246094 23.277344 130.914062 25.285156 130.238281 " fill-opacity="1" fill-rule="evenodd"/><g clip-path="url(#0e288cb6a7)"><path fill="#fdbcaa" d="M 92.050781 170.324219 C 89.878906 171.984375 86.605469 172.261719 83.976562 172.265625 C 77.351562 172.273438 71.148438 170.046875 64.746094 168.648438 C 62.289062 168.109375 59.832031 167.398438 57.316406 167.175781 C 56.527344 167.105469 55.246094 166.867188 54.566406 167.410156 C 53.382812 168.359375 53.75 170.859375 54.042969 172.144531 C 54.808594 175.472656 55.558594 178.832031 56.902344 181.988281 C 57.453125 183.269531 57.796875 184.652344 59.269531 185.140625 C 60.722656 185.621094 62.371094 185.566406 63.882812 185.628906 C 66.28125 185.730469 68.675781 185.875 71.074219 185.953125 C 74.214844 186.058594 77.355469 186.132812 80.496094 186.199219 C 82.675781 186.242188 84.847656 186.367188 87.015625 186.042969 C 88.859375 185.769531 90.628906 185.089844 92.390625 184.511719 C 94.746094 183.738281 97.140625 183.007812 99.421875 182.035156 L 92.050781 170.324219 " fill-opacity="1" fill-rule="evenodd"/></g><path fill="#765767" d="M 167.550781 126.941406 C 157.359375 122.050781 146.628906 129.875 139.003906 135.757812 C 133.683594 139.859375 127.835938 143.183594 122.25 146.894531 C 116.214844 150.898438 110.546875 155.472656 104.609375 159.621094 C 100.351562 162.59375 90.800781 167.628906 91.265625 173.761719 C 91.425781 175.828125 92.328125 177.769531 93.292969 179.570312 C 94.09375 181.066406 95.035156 182.488281 96.449219 183.464844 C 98.808594 185.105469 101.789062 184.789062 104.441406 184.203125 C 109.773438 183.027344 114.933594 180.953125 120.101562 179.230469 C 124.734375 177.683594 129.40625 176.214844 134 174.542969 C 137.714844 173.191406 141.445312 171.824219 145.078125 170.246094 C 148.210938 168.882812 151.277344 167.382812 154.261719 165.71875 C 156.480469 164.484375 158.605469 163.121094 160.714844 161.710938 C 170.484375 155.195312 186.6875 143.027344 177.242188 129.769531 L 167.550781 126.941406 " fill-opacity="1" fill-rule="evenodd"/><path fill="#fdbcaa" d="M 11.554688 129.863281 C 12.59375 129.515625 13.871094 129.542969 14.953125 129.457031 C 18.023438 129.214844 21.078125 129.332031 24.152344 129.355469 C 29.960938 129.402344 35.582031 129.003906 41.347656 128.332031 C 49.003906 127.4375 57.886719 126.976562 64.398438 122.308594 C 66.132812 121.0625 68.925781 118.703125 69.296875 116.429688 C 69.570312 114.769531 68.425781 113.132812 67.207031 112.136719 C 64.628906 110.027344 60.65625 109.527344 57.421875 109.566406 C 54.574219 109.597656 52.054688 110.792969 49.457031 111.835938 C 46.339844 113.082031 43.230469 114.332031 40.136719 115.636719 C 33.753906 118.324219 27.304688 121.289062 20.632812 123.195312 C 17.21875 124.171875 13.628906 124.699219 10.109375 125.171875 L 11.554688 129.863281 " fill-opacity="1" fill-rule="evenodd"/><path fill="#fdbcaa" d="M 183.699219 129.863281 C 182.660156 129.515625 181.382812 129.542969 180.296875 129.457031 C 177.230469 129.214844 174.171875 129.332031 171.101562 129.355469 C 165.292969 129.402344 159.667969 129.007812 153.90625 128.332031 C 146.25 127.4375 137.367188 126.976562 130.855469 122.308594 C 129.117188 121.0625 126.324219 118.703125 125.953125 116.433594 C 125.683594 114.769531 126.824219 113.132812 128.046875 112.136719 C 130.625 110.027344 134.597656 109.527344 137.832031 109.566406 C 140.679688 109.597656 143.199219 110.792969 145.796875 111.835938 C 148.910156 113.085938 152.023438 114.335938 155.117188 115.636719 C 161.5 118.324219 167.949219 121.289062 174.617188 123.195312 C 178.03125 124.171875 181.625 124.703125 185.140625 125.171875 L 183.699219 129.863281 " fill-opacity="1" fill-rule="evenodd"/><path fill="#fdbcaa" d="M 4.886719 127.390625 C 4.792969 127.238281 4.707031 127.078125 4.632812 126.90625 C 4.121094 125.730469 4.289062 124.625 4.554688 123.421875 C 4.660156 122.941406 4.820312 122.484375 4.996094 122.027344 C 5.074219 121.820312 5.152344 121.550781 5.289062 121.371094 C 5.453125 121.160156 5.679688 121.765625 5.691406 121.882812 C 5.726562 122.28125 5.515625 122.75 5.460938 123.144531 C 5.292969 124.414062 5.574219 125.882812 6.59375 126.734375 C 7.074219 127.140625 7.730469 127.414062 8.367188 127.3125 C 8.449219 127.300781 8.527344 127.285156 8.605469 127.261719 C 8.855469 127.039062 9.050781 126.761719 9.144531 126.445312 C 9.378906 125.65625 9.089844 124.550781 8.609375 123.914062 C 8.21875 123.398438 7.5 123.109375 6.941406 122.847656 C 6.707031 122.738281 6.355469 122.691406 6.15625 122.523438 C 6.027344 122.414062 5.941406 122.226562 5.863281 122.078125 C 5.804688 121.960938 5.695312 121.773438 5.742188 121.636719 C 5.785156 121.511719 6.078125 121.597656 6.164062 121.609375 C 6.605469 121.652344 7.046875 121.738281 7.476562 121.835938 C 7.867188 121.921875 8.257812 122.03125 8.625 122.1875 C 9.207031 122.433594 9.667969 122.960938 10.15625 123.347656 C 10.699219 123.777344 11.265625 124.175781 11.828125 124.585938 C 12.121094 124.800781 12.414062 125.042969 12.730469 125.226562 C 12.730469 125.226562 13.886719 129.492188 13.867188 129.535156 C 13.820312 129.625 13.515625 129.648438 13.4375 129.667969 C 12.960938 129.785156 12.488281 129.910156 12.011719 130.03125 C 10.625 130.378906 9.207031 130.5625 7.792969 130.78125 C 7.386719 130.84375 6.964844 130.886719 6.550781 130.960938 C 5.558594 131.667969 4.476562 131.75 3.289062 131.769531 C 2.800781 131.777344 2.316406 131.726562 1.835938 131.660156 C 1.613281 131.632812 1.335938 131.621094 1.128906 131.523438 C 0.886719 131.414062 1.421875 131.050781 1.535156 131.015625 C 1.914062 130.890625 2.414062 130.988281 2.8125 130.945312 C 3.503906 130.875 4.222656 130.664062 4.828125 130.289062 C 3.628906 130.257812 2.71875 129.691406 1.753906 129.011719 C 1.355469 128.726562 1 128.402344 0.644531 128.0625 C 0.484375 127.910156 0.269531 127.734375 0.15625 127.535156 C 0.0273438 127.300781 0.671875 127.328125 0.78125 127.363281 C 1.164062 127.484375 1.511719 127.863281 1.855469 128.0625 C 2.539062 128.46875 3.367188 128.738281 4.175781 128.738281 C 3.410156 128.074219 3.011719 127.199219 2.632812 126.230469 C 2.453125 125.773438 2.332031 125.304688 2.222656 124.828125 C 2.171875 124.609375 2.089844 124.34375 2.105469 124.117188 C 2.121094 123.847656 2.648438 124.226562 2.722656 124.316406 C 2.972656 124.628906 3.054688 125.136719 3.234375 125.492188 C 3.601562 126.238281 4.171875 126.949219 4.886719 127.390625 Z M 5.09375 130.113281 L 5.089844 130.109375 L 5.082031 130.117188 L 5.085938 130.117188 Z M 9.195312 127.007812 L 8.859375 127.175781 C 8.976562 127.128906 9.085938 127.074219 9.195312 127.007812 " fill-opacity="1" fill-rule="evenodd"/><g clip-path="url(#88ef5b600e)"><path fill="#fdbcaa" d="M 190.367188 127.328125 C 190.460938 127.175781 190.546875 127.015625 190.621094 126.84375 C 191.132812 125.667969 190.964844 124.5625 190.699219 123.359375 C 190.59375 122.878906 190.433594 122.421875 190.257812 121.964844 C 190.179688 121.757812 190.101562 121.488281 189.964844 121.308594 C 189.800781 121.097656 189.574219 121.703125 189.5625 121.820312 C 189.527344 122.21875 189.738281 122.6875 189.789062 123.082031 C 189.957031 124.351562 189.675781 125.820312 188.660156 126.671875 C 188.179688 127.078125 187.523438 127.351562 186.886719 127.25 C 186.804688 127.238281 186.726562 127.222656 186.648438 127.199219 C 186.398438 126.976562 186.199219 126.699219 186.109375 126.382812 C 185.875 125.59375 186.167969 124.488281 186.644531 123.851562 C 187.035156 123.335938 187.753906 123.046875 188.3125 122.785156 C 188.546875 122.675781 188.898438 122.628906 189.09375 122.460938 C 189.226562 122.351562 189.3125 122.164062 189.390625 122.015625 C 189.449219 121.898438 189.558594 121.710938 189.511719 121.574219 C 189.46875 121.449219 189.175781 121.535156 189.089844 121.546875 C 188.648438 121.589844 188.207031 121.675781 187.777344 121.773438 C 187.386719 121.863281 186.996094 121.96875 186.628906 122.125 C 186.046875 122.371094 185.585938 122.898438 185.097656 123.285156 C 184.554688 123.714844 183.988281 124.113281 183.425781 124.523438 C 183.128906 124.738281 182.839844 124.980469 182.523438 125.164062 C 182.523438 125.164062 181.363281 129.429688 181.386719 129.472656 C 181.433594 129.5625 181.734375 129.585938 181.816406 129.605469 C 182.292969 129.722656 182.765625 129.847656 183.242188 129.96875 C 184.628906 130.316406 186.046875 130.5 187.460938 130.71875 C 187.863281 130.78125 188.289062 130.824219 188.699219 130.898438 C 189.695312 131.605469 190.777344 131.6875 191.964844 131.707031 C 192.453125 131.714844 192.9375 131.664062 193.417969 131.597656 C 193.640625 131.570312 193.917969 131.554688 194.125 131.460938 C 194.367188 131.351562 193.832031 130.988281 193.71875 130.953125 C 193.339844 130.828125 192.839844 130.925781 192.441406 130.886719 C 191.75 130.8125 191.03125 130.601562 190.425781 130.226562 C 191.625 130.195312 192.535156 129.628906 193.5 128.949219 C 193.898438 128.664062 194.253906 128.339844 194.609375 128 C 194.769531 127.847656 194.984375 127.671875 195.097656 127.472656 C 195.226562 127.238281 194.582031 127.265625 194.472656 127.300781 C 194.089844 127.421875 193.742188 127.800781 193.398438 128 C 192.710938 128.40625 191.886719 128.675781 191.078125 128.679688 C 191.84375 128.011719 192.242188 127.140625 192.621094 126.167969 C 192.800781 125.710938 192.921875 125.242188 193.03125 124.765625 C 193.082031 124.546875 193.164062 124.28125 193.148438 124.054688 C 193.128906 123.785156 192.605469 124.164062 192.53125 124.253906 C 192.28125 124.566406 192.195312 125.074219 192.019531 125.429688 C 191.652344 126.175781 191.082031 126.886719 190.367188 127.328125 Z M 190.160156 130.050781 L 190.164062 130.046875 L 190.171875 130.054688 L 190.164062 130.054688 L 190.160156 130.050781 " fill-opacity="1" fill-rule="evenodd"/></g><path fill="#142645" d="M 99.5 64.632812 C 104.40625 64.207031 107.535156 64.421875 112.476562 64.320312 C 116.367188 64.242188 119.75 63.972656 123.222656 65.710938 C 132.625 70.425781 132.292969 78.675781 136.617188 93.652344 C 138.101562 98.789062 139.523438 104.878906 143.339844 107.996094 C 145.984375 110.15625 149.75 111.25 152.878906 112.734375 C 158.957031 115.617188 165 118.671875 171.277344 121.210938 C 174.621094 122.570312 181.003906 123.09375 180.738281 127.328125 C 180.394531 132.785156 166.5 131.273438 162.867188 131.054688 C 161.347656 130.960938 159.832031 130.820312 158.324219 130.648438 C 149.871094 129.6875 140.683594 129.773438 132.652344 127.027344 C 128.378906 125.566406 125.007812 122.703125 121.53125 120.1875 L 121.34375 120.050781 C 120.792969 121.40625 120.246094 122.769531 119.5 124.0625 C 119.03125 124.882812 118.40625 126.226562 117.46875 126.722656 C 116.261719 127.367188 114.351562 127.203125 113.023438 127.214844 C 111.800781 127.230469 110.582031 127.222656 109.359375 127.222656 C 109.308594 127.414062 109.253906 127.515625 109.191406 127.515625 C 107.09375 127.515625 104.996094 127.515625 102.898438 127.515625 C 101.019531 127.515625 99.121094 127.570312 97.234375 127.542969 C 95.34375 127.570312 93.449219 127.515625 91.566406 127.515625 C 89.46875 127.515625 87.371094 127.515625 85.273438 127.515625 C 85.214844 127.515625 85.160156 127.414062 85.109375 127.222656 C 83.886719 127.222656 82.667969 127.230469 81.445312 127.214844 C 80.117188 127.203125 78.203125 127.367188 77 126.722656 C 76.0625 126.226562 75.4375 124.882812 74.964844 124.0625 C 74.222656 122.769531 73.675781 121.40625 73.125 120.050781 L 72.9375 120.1875 C 69.460938 122.703125 66.085938 125.566406 61.816406 127.027344 C 53.78125 129.773438 44.597656 129.6875 36.144531 130.648438 C 34.632812 130.820312 33.117188 130.960938 31.601562 131.054688 C 27.96875 131.273438 14.074219 132.785156 13.730469 127.328125 C 13.464844 123.09375 19.847656 122.570312 23.191406 121.210938 C 29.46875 118.671875 35.507812 115.617188 41.589844 112.734375 C 44.71875 111.25 48.480469 110.15625 51.128906 107.996094 C 54.945312 104.878906 56.367188 98.789062 57.847656 93.652344 C 62.171875 78.675781 61.839844 70.425781 71.246094 65.710938 C 74.71875 63.972656 78.101562 64.242188 81.988281 64.320312 C 86.933594 64.421875 90.058594 64.207031 94.96875 64.632812 L 97.234375 64.636719 L 99.5 64.632812 " fill-opacity="1" fill-rule="evenodd"/><path fill="#fdbcaa" d="M 90.015625 49.625 C 89.828125 51.9375 89.636719 62.667969 89.636719 64.992188 C 89.636719 65.636719 91.929688 72.664062 98.472656 72.757812 C 104.707031 72.847656 106.855469 65.726562 107.003906 65.503906 C 107.175781 65.253906 107.230469 52.742188 107.316406 50.015625 L 90.015625 49.625 " fill-opacity="1" fill-rule="evenodd"/><g clip-path="url(#887bba7901)"><g clip-path="url(#273c717ab2)"><path fill="#fa987d" d="M 94.410156 18.308594 C 94.976562 18.183594 95.554688 18.101562 96.15625 18.046875 C 98.304688 17.859375 100.507812 17.65625 102.644531 18.058594 C 102.980469 18.121094 103.324219 18.1875 103.65625 18.277344 C 103.742188 18.28125 103.832031 18.285156 103.921875 18.292969 C 104.433594 18.34375 104.9375 18.472656 105.414062 18.65625 C 106.253906 18.980469 107.027344 19.484375 107.757812 19.996094 C 108.855469 20.769531 109.886719 21.632812 110.800781 22.613281 C 112.21875 24.136719 113.371094 25.945312 114.296875 27.804688 L 115.691406 32.8125 C 115.136719 34.90625 115.484375 37.777344 115.949219 39.867188 C 116.140625 40.722656 116.566406 41.542969 116.699219 42.402344 C 116.980469 44.222656 116.632812 46.03125 116.1875 47.789062 C 115.242188 51.511719 113.757812 54.542969 110.796875 57.09375 C 109.515625 58.199219 108.125 59.15625 106.738281 60.117188 C 105.875 60.710938 104.984375 61.273438 104.074219 61.792969 C 103.128906 62.332031 102.011719 63.027344 100.925781 63.238281 L 100.902344 63.242188 C 100.5 63.398438 100.035156 63.417969 99.613281 63.441406 C 98.265625 63.515625 96.835938 63.367188 95.738281 62.539062 C 95.273438 62.296875 94.824219 62.027344 94.410156 61.792969 C 93.5 61.273438 92.609375 60.710938 91.746094 60.117188 C 90.355469 59.15625 88.96875 58.199219 87.6875 57.09375 C 84.726562 54.542969 83.242188 51.511719 82.296875 47.789062 C 81.851562 46.03125 81.503906 44.222656 81.785156 42.402344 C 81.917969 41.542969 82.34375 40.722656 82.535156 39.867188 C 83 37.777344 83.347656 34.90625 82.789062 32.8125 L 84.1875 27.804688 C 85.113281 25.945312 86.265625 24.136719 87.683594 22.613281 C 88.597656 21.632812 89.632812 20.769531 90.726562 19.996094 C 91.105469 19.730469 91.496094 19.464844 91.902344 19.230469 C 91.957031 19.191406 92.015625 19.160156 92.078125 19.128906 C 92.398438 18.949219 92.726562 18.789062 93.066406 18.65625 C 93.5 18.492188 93.949219 18.371094 94.410156 18.308594 " fill-opacity="1" fill-rule="evenodd"/></g></g><path fill="#fdbcaa" d="M 81.191406 40.601562 C 80.40625 39.511719 79.507812 38.261719 78.160156 37.863281 C 75.984375 37.222656 74.183594 39.976562 74.066406 41.832031 C 73.898438 44.527344 76.34375 46.785156 78.304688 48.25 C 78.910156 48.703125 79.792969 49.46875 80.597656 49.523438 C 81.355469 49.574219 82.363281 48.964844 83.105469 48.714844 L 81.191406 40.601562 " fill-opacity="1" fill-rule="evenodd"/><path fill="#fdbcaa" d="M 115.648438 40.601562 C 116.433594 39.511719 117.332031 38.261719 118.679688 37.863281 C 120.855469 37.222656 122.65625 39.976562 122.773438 41.832031 C 122.941406 44.527344 120.496094 46.785156 118.535156 48.25 C 117.929688 48.703125 117.046875 49.46875 116.242188 49.523438 C 115.484375 49.574219 114.476562 48.964844 113.734375 48.714844 L 115.648438 40.601562 " fill-opacity="1" fill-rule="evenodd"/><path fill="#fdbcaa" d="M 93.585938 14.171875 C 94.15625 14.042969 94.734375 13.960938 95.332031 13.910156 C 97.480469 13.71875 99.683594 13.519531 101.820312 13.921875 C 102.160156 13.984375 102.5 14.050781 102.835938 14.140625 C 102.921875 14.140625 103.011719 14.148438 103.101562 14.15625 C 103.609375 14.203125 104.117188 14.335938 104.59375 14.519531 C 105.429688 14.839844 106.203125 15.347656 106.9375 15.859375 C 108.03125 16.628906 109.0625 17.496094 109.976562 18.476562 C 111.398438 19.996094 112.546875 21.808594 113.476562 23.667969 L 114.871094 28.675781 C 114.316406 30.765625 114.660156 33.640625 115.125 35.730469 C 115.316406 36.582031 115.742188 37.402344 115.875 38.265625 C 116.160156 40.085938 115.8125 41.894531 115.363281 43.648438 C 114.417969 47.375 112.9375 50.40625 109.976562 52.957031 C 108.695312 54.0625 107.304688 55.019531 105.914062 55.976562 C 105.054688 56.574219 104.164062 57.136719 103.253906 57.65625 C 102.308594 58.195312 101.1875 58.890625 100.105469 59.101562 L 100.082031 59.105469 C 99.675781 59.261719 99.210938 59.28125 98.792969 59.304688 C 97.445312 59.375 96.015625 59.230469 94.914062 58.402344 C 94.449219 58.160156 94 57.890625 93.585938 57.65625 C 92.675781 57.136719 91.785156 56.574219 90.925781 55.976562 C 89.535156 55.019531 88.144531 54.0625 86.863281 52.957031 C 83.902344 50.40625 82.421875 47.375 81.476562 43.648438 C 81.03125 41.894531 80.679688 40.085938 80.964844 38.265625 C 81.097656 37.402344 81.523438 36.582031 81.710938 35.730469 C 82.179688 33.640625 82.523438 30.765625 81.96875 28.675781 L 83.363281 23.667969 C 84.292969 21.808594 85.441406 19.996094 86.859375 18.476562 C 87.773438 17.496094 88.808594 16.628906 89.902344 15.859375 C 90.285156 15.59375 90.675781 15.328125 91.082031 15.089844 C 91.136719 15.054688 91.195312 15.023438 91.253906 14.992188 C 91.574219 14.8125 91.90625 14.652344 92.246094 14.519531 C 92.675781 14.355469 93.128906 14.230469 93.585938 14.171875 " fill-opacity="1" fill-rule="evenodd"/><path fill="#000000" d="M 95.382812 37.914062 C 94.863281 38.699219 94.242188 39.332031 93.515625 39.804688 C 92.769531 40.289062 91.910156 40.585938 90.953125 40.710938 C 90.570312 40.753906 90.171875 40.777344 89.78125 40.753906 C 89.503906 40.734375 89.230469 40.6875 88.964844 40.613281 C 88.648438 40.519531 88.355469 40.386719 88.078125 40.230469 C 87.660156 39.996094 87.269531 39.722656 86.871094 39.464844 C 86.777344 39.402344 86.6875 39.335938 86.59375 39.273438 C 86.53125 39.234375 86.476562 39.183594 86.410156 39.144531 C 86.257812 39.03125 86.105469 38.941406 85.925781 38.871094 C 85.621094 38.75 85.332031 38.664062 85.023438 38.582031 C 85.347656 38.496094 85.652344 38.414062 85.992188 38.378906 C 86.242188 38.351562 86.46875 38.378906 86.714844 38.421875 C 86.921875 38.480469 87.121094 38.550781 87.3125 38.644531 C 87.597656 38.78125 87.859375 38.96875 88.125 39.140625 C 88.480469 39.371094 88.832031 39.609375 89.238281 39.75 C 89.492188 39.835938 89.757812 39.886719 90.03125 39.914062 C 90.316406 39.9375 90.609375 39.941406 90.890625 39.929688 C 91.757812 39.90625 92.546875 39.710938 93.261719 39.355469 C 93.992188 38.992188 94.652344 38.476562 95.238281 37.800781 C 95.265625 37.761719 95.324219 37.753906 95.363281 37.785156 C 95.40625 37.816406 95.414062 37.871094 95.382812 37.914062 " fill-opacity="1" fill-rule="evenodd"/><path fill="#000000" d="M 101.457031 37.914062 C 101.976562 38.699219 102.597656 39.332031 103.324219 39.804688 C 104.074219 40.289062 104.929688 40.585938 105.886719 40.710938 C 106.269531 40.753906 106.667969 40.777344 107.058594 40.753906 C 107.335938 40.734375 107.609375 40.6875 107.875 40.613281 C 108.1875 40.519531 108.484375 40.386719 108.761719 40.230469 C 109.179688 39.996094 109.570312 39.722656 109.96875 39.464844 C 110.0625 39.402344 110.152344 39.335938 110.246094 39.273438 C 110.308594 39.234375 110.363281 39.183594 110.429688 39.144531 C 110.582031 39.03125 110.734375 38.941406 110.914062 38.871094 C 111.21875 38.75 111.507812 38.664062 111.816406 38.582031 C 111.492188 38.496094 111.1875 38.414062 110.847656 38.378906 C 110.597656 38.351562 110.367188 38.378906 110.125 38.421875 C 109.917969 38.480469 109.71875 38.550781 109.527344 38.644531 C 109.242188 38.78125 108.980469 38.96875 108.714844 39.140625 C 108.359375 39.371094 108.007812 39.609375 107.601562 39.75 C 107.347656 39.835938 107.082031 39.886719 106.808594 39.914062 C 106.523438 39.9375 106.230469 39.941406 105.949219 39.929688 C 105.082031 39.90625 104.292969 39.710938 103.578125 39.355469 C 102.84375 38.992188 102.1875 38.476562 101.601562 37.800781 C 101.574219 37.761719 101.515625 37.753906 101.472656 37.785156 C 101.433594 37.816406 101.425781 37.871094 101.457031 37.914062 " fill-opacity="1" fill-rule="evenodd"/><path fill="#39161d" d="M 85.753906 34.332031 C 86.371094 33.910156 87.140625 33.535156 87.976562 33.21875 C 88.480469 33.027344 89.003906 32.867188 89.535156 32.738281 C 90.007812 32.628906 90.488281 32.550781 90.957031 32.503906 C 91.273438 32.46875 91.589844 32.460938 91.894531 32.453125 C 92 32.449219 92.101562 32.445312 92.207031 32.4375 C 92.320312 32.425781 92.417969 32.402344 92.527344 32.382812 C 92.894531 32.328125 93.195312 32.273438 93.554688 32.28125 C 93.320312 32.078125 93.113281 31.925781 92.832031 31.773438 C 92.652344 31.671875 92.480469 31.601562 92.28125 31.542969 C 92.222656 31.523438 92.167969 31.511719 92.109375 31.503906 C 91.882812 31.472656 91.648438 31.472656 91.414062 31.484375 C 90.992188 31.503906 90.566406 31.574219 90.140625 31.679688 C 89.46875 31.84375 88.796875 32.089844 88.171875 32.40625 C 87.171875 32.902344 86.296875 33.542969 85.636719 34.183594 C 85.59375 34.21875 85.589844 34.277344 85.621094 34.316406 C 85.65625 34.359375 85.714844 34.363281 85.753906 34.332031 " fill-opacity="1" fill-rule="evenodd"/><path fill="#39161d" d="M 111.152344 34.332031 C 110.535156 33.910156 109.765625 33.535156 108.929688 33.21875 C 108.425781 33.027344 107.902344 32.867188 107.367188 32.738281 C 106.894531 32.628906 106.417969 32.550781 105.949219 32.503906 C 105.628906 32.46875 105.316406 32.460938 105.007812 32.453125 C 104.902344 32.449219 104.800781 32.445312 104.699219 32.4375 C 104.585938 32.425781 104.488281 32.402344 104.378906 32.382812 C 104.007812 32.328125 103.710938 32.273438 103.351562 32.28125 C 103.582031 32.078125 103.792969 31.925781 104.074219 31.773438 C 104.25 31.671875 104.421875 31.601562 104.625 31.542969 C 104.679688 31.523438 104.738281 31.511719 104.796875 31.503906 C 105.023438 31.472656 105.257812 31.472656 105.492188 31.484375 C 105.910156 31.503906 106.339844 31.574219 106.761719 31.679688 C 107.4375 31.84375 108.105469 32.089844 108.734375 32.40625 C 109.730469 32.902344 110.609375 33.542969 111.269531 34.183594 C 111.308594 34.21875 111.316406 34.277344 111.285156 34.316406 C 111.25 34.359375 111.191406 34.363281 111.152344 34.332031 " fill-opacity="1" fill-rule="evenodd"/><path fill="#fdb6a3" d="M 98.457031 40.089844 C 99.453125 40.210938 100.40625 40.777344 101.269531 41.238281 C 102.375 41.828125 103.453125 42.363281 104.710938 42.542969 C 106.078125 42.734375 107.363281 42.417969 108.714844 42.273438 C 109.53125 42.1875 110.460938 42.132812 111.191406 42.578125 C 111.972656 43.054688 112.257812 44.046875 112.257812 44.910156 C 112.257812 46.777344 110.992188 48.527344 109.125 48.839844 C 107.132812 49.171875 105.359375 48.09375 103.703125 47.136719 C 102.644531 46.523438 101.5625 45.945312 100.484375 45.367188 C 99.804688 45.007812 99.089844 44.53125 98.328125 44.320312 C 97.632812 44.550781 96.976562 44.980469 96.355469 45.3125 C 95.277344 45.886719 94.195312 46.464844 93.132812 47.078125 C 91.480469 48.039062 89.703125 49.113281 87.710938 48.78125 C 85.847656 48.46875 84.582031 46.722656 84.582031 44.855469 C 84.582031 43.992188 84.867188 42.996094 85.648438 42.523438 C 86.378906 42.078125 87.308594 42.132812 88.125 42.21875 C 89.472656 42.363281 90.761719 42.679688 92.128906 42.484375 C 93.386719 42.304688 94.460938 41.769531 95.570312 41.179688 C 96.445312 40.710938 97.414062 40.140625 98.421875 40.027344 L 98.457031 40.089844 " fill-opacity="1" fill-rule="evenodd"/><path fill="#000000" d="M 100.917969 48.257812 C 99.367188 49.335938 97.121094 49.300781 95.441406 48.519531 C 95.332031 48.46875 95.199219 48.515625 95.148438 48.628906 C 95.097656 48.738281 95.148438 48.867188 95.257812 48.917969 C 97.070312 49.761719 99.492188 49.78125 101.167969 48.621094 C 101.265625 48.550781 101.289062 48.414062 101.222656 48.316406 C 101.152344 48.214844 101.015625 48.191406 100.917969 48.257812 " fill-opacity="1" fill-rule="evenodd"/><path fill="#000000" d="M 98.113281 42.101562 C 98.128906 42.351562 98.078125 42.597656 98.027344 42.847656 C 97.972656 43.140625 97.921875 43.433594 97.949219 43.734375 C 97.976562 44.085938 98.019531 44.472656 98.152344 44.804688 C 98.195312 44.90625 98.253906 45.007812 98.308594 45.105469 C 98.363281 45.203125 98.417969 45.300781 98.417969 45.417969 C 98.414062 45.507812 98.375 45.59375 98.335938 45.675781 C 98.277344 45.792969 98.207031 45.902344 98.152344 46.011719 C 98.089844 46.132812 98.140625 46.277344 98.257812 46.335938 C 98.378906 46.398438 98.523438 46.347656 98.582031 46.230469 C 98.707031 45.980469 98.890625 45.714844 98.898438 45.429688 C 98.902344 45.253906 98.847656 45.097656 98.769531 44.945312 C 98.714844 44.839844 98.644531 44.734375 98.601562 44.625 C 98.488281 44.335938 98.453125 44 98.429688 43.691406 C 98.40625 43.4375 98.457031 43.1875 98.503906 42.941406 C 98.558594 42.648438 98.613281 42.363281 98.59375 42.070312 C 98.582031 41.9375 98.46875 41.835938 98.335938 41.84375 C 98.203125 41.855469 98.101562 41.96875 98.113281 42.101562 " fill-opacity="1" fill-rule="evenodd"/><path fill="#39161d" d="M 92.304688 17.964844 C 93.152344 17.761719 94.035156 17.632812 94.835938 17.40625 C 95.65625 17.171875 96.492188 16.714844 97.382812 16.882812 C 98.847656 17.152344 100.625 21.351562 104.453125 25.167969 C 106.84375 27.550781 115.105469 33.9375 115.492188 34.683594 C 115.527344 34.746094 115.789062 35.355469 115.960938 35.242188 C 116.429688 34.929688 116.9375 32.734375 117.085938 32.195312 C 118.046875 28.691406 115.488281 22.503906 113.730469 19.203125 C 111.222656 14.488281 105.410156 10.496094 99.496094 10.78125 C 96.503906 10.929688 93.402344 12.464844 91.121094 14.140625 L 91.039062 14.433594 L 88.960938 14.234375 C 84.367188 15.992188 79.519531 18.460938 78.222656 23.230469 C 77.371094 26.378906 78.070312 29.917969 78.328125 33.121094 C 78.390625 33.914062 78.523438 34.691406 78.882812 35.421875 C 78.96875 35.59375 79.136719 36.015625 79.378906 36.054688 C 79.960938 36.148438 81.046875 34.992188 81.410156 34.699219 C 83.359375 33.121094 85.128906 31.414062 86.53125 29.394531 C 87.746094 27.648438 88.847656 25.828125 89.824219 23.964844 C 91.105469 21.523438 91.847656 20.546875 92.304688 17.964844 " fill-opacity="1" fill-rule="evenodd"/><path fill="#fbad49" d="M 80.546875 48.3125 C 81.128906 49.527344 81.132812 52.558594 80.714844 54.226562 C 80.628906 54.566406 80.527344 54.847656 80.402344 55.039062 C 80.324219 55.160156 80.253906 55.25 80.152344 55.238281 C 79.957031 55.21875 79.804688 55.109375 79.679688 54.941406 C 79.535156 54.742188 79.429688 54.46875 79.355469 54.152344 C 78.972656 52.539062 79.300781 49.964844 79.40625 49.070312 C 79.421875 48.953125 79.035156 48.671875 79.019531 48.789062 C 78.914062 49.707031 78.546875 52.589844 78.9375 54.25 C 79.128906 55.058594 79.511719 55.601562 80.109375 55.667969 C 80.308594 55.6875 80.5 55.601562 80.664062 55.40625 C 80.847656 55.1875 81.007812 54.8125 81.128906 54.332031 C 81.570312 52.582031 81.542969 49.402344 80.933594 48.128906 C 80.882812 48.019531 80.753906 47.976562 80.648438 48.027344 C 80.542969 48.078125 80.496094 48.207031 80.546875 48.3125 " fill-opacity="1" fill-rule="evenodd"/><path fill="#fbad49" d="M 116.359375 48.3125 C 115.777344 49.527344 115.773438 52.558594 116.191406 54.226562 C 116.277344 54.566406 116.378906 54.847656 116.503906 55.039062 C 116.582031 55.160156 116.652344 55.25 116.753906 55.238281 C 116.949219 55.21875 117.105469 55.109375 117.226562 54.941406 C 117.375 54.742188 117.476562 54.46875 117.550781 54.152344 C 117.933594 52.539062 117.605469 49.964844 117.5 49.070312 C 117.484375 48.953125 117.871094 48.671875 117.886719 48.789062 C 117.992188 49.707031 118.359375 52.589844 117.96875 54.25 C 117.777344 55.058594 117.394531 55.601562 116.800781 55.667969 C 116.597656 55.6875 116.40625 55.601562 116.242188 55.40625 C 116.058594 55.1875 115.898438 54.8125 115.777344 54.332031 C 115.335938 52.582031 115.367188 49.402344 115.972656 48.128906 C 116.023438 48.019531 116.152344 47.976562 116.257812 48.027344 C 116.367188 48.078125 116.410156 48.207031 116.359375 48.3125 " fill-opacity="1" fill-rule="evenodd"/><g clip-path="url(#5f72960425)"><path fill="#39161d" d="M 96.730469 11.75 C 97.292969 10.441406 97.574219 8.902344 97.894531 7.519531 C 98.160156 6.394531 98.375 5.25 98.339844 4.089844 C 98.324219 3.621094 98.269531 3.144531 98.152344 2.695312 C 97.59375 0.570312 95.585938 0.113281 93.847656 1.003906 C 93.238281 1.316406 92.746094 1.839844 92.125 2.125 C 91.234375 2.539062 90.222656 2.558594 89.394531 3.148438 C 87.738281 4.324219 86.964844 7.1875 88 8.960938 C 88.9375 10.570312 90.628906 11.382812 92.050781 12.40625 L 96.730469 11.75 " fill-opacity="1" fill-rule="evenodd"/></g><g clip-path="url(#90f4b68cf6)"><g clip-path="url(#10b61a04a8)"><g transform="matrix(1, 0, 0, 1, 83, 27)"><g clip-path="url(#cdf8837a79)"><g clip-path="url(#a98ee22b29)"><g clip-path="url(#25cf68e236)"><path fill="#fdbcaa" d="M 0.53125 0.128906 L 30.335938 0.128906 L 30.335938 26.4375 L 0.53125 26.4375 Z M 0.53125 0.128906 " fill-opacity="1" fill-rule="nonzero"/></g></g></g></g></g></g></svg>