<?xml version="1.0" standalone="no"?>
<!DOCTYPE svg PUBLIC "-//W3C//DTD SVG 20010904//EN"
 "http://www.w3.org/TR/2001/REC-SVG-20010904/DTD/svg10.dtd">
<svg version="1.0" xmlns="http://www.w3.org/2000/svg"
 width="137.000000pt" height="137.000000pt" viewBox="0 0 137.000000 137.000000"
 preserveAspectRatio="xMidYMid meet">

<rect x="30" y="22" width="60%" height="70%" fill="#ffffff" />
<g transform="translate(0.000000,137.000000) scale(0.100000,-0.100000)"
fill="#052554" stroke="none">
<path d="M563 1359 c-234 -39 -450 -227 -526 -457 -126 -380 103 -788 492
-878 85 -20 239 -19 316 1 200 53 356 179 445 360 53 107 70 180 71 296 0 272
-138 499 -376 614 -138 67 -277 88 -422 64z m316 -372 c107 -83 197 -158 199
-166 3 -10 -2 -13 -22 -9 l-26 5 -2 -221 -3 -221 -122 -3 -123 -3 0 151 0 150
-100 0 -100 0 0 -150 0 -150 -109 0 c-60 0 -116 3 -125 6 -14 5 -16 35 -16
224 l0 217 -26 -5 c-19 -3 -25 -1 -22 9 4 12 386 318 398 318 3 1 92 -68 199
-152z m71 38 c0 -25 -3 -45 -6 -45 -12 0 -94 71 -94 81 0 5 23 9 50 9 l50 0 0
-45z"/>
</g>
</svg>
