<?xml version="1.0" standalone="no"?>
<!DOCTYPE svg PUBLIC "-//W3C//DTD SVG 20010904//EN"
 "http://www.w3.org/TR/2001/REC-SVG-20010904/DTD/svg10.dtd">
<svg version="1.0" xmlns="http://www.w3.org/2000/svg"
 width="134.000000pt" height="134.000000pt" viewBox="0 0 134.000000 134.000000"
 preserveAspectRatio="xMidYMid meet">

<g transform="translate(0.000000,134.000000) scale(0.100000,-0.100000)"
fill="#052554" stroke="none">
<path d="M550 1189 c-190 -36 -364 -213 -399 -406 -35 -186 14 -349 143 -478
132 -131 304 -182 488 -144 187 38 359 210 397 397 38 185 -12 356 -144 488
-128 129 -298 179 -485 143z m170 -388 c0 -104 -3 -196 -6 -205 -9 -22 -89
-22 -98 0 -3 9 -6 101 -6 205 l0 189 55 0 55 0 0 -189z m-11 -350 c21 -13 18
-71 -4 -87 -43 -32 -98 -6 -98 45 0 37 15 51 58 51 17 0 36 -4 44 -9z"/>
</g>
</svg>
