<?xml version="1.0" standalone="no"?>
<!DOCTYPE svg PUBLIC "-//W3C//DTD SVG 20010904//EN"
 "http://www.w3.org/TR/2001/REC-SVG-20010904/DTD/svg10.dtd">
<svg version="1.0" xmlns="http://www.w3.org/2000/svg"
 width="331.000000pt" height="328.000000pt" viewBox="0 0 331.000000 328.000000"
 preserveAspectRatio="xMidYMid meet">

<g transform="translate(0.000000,328.000000) scale(0.100000,-0.100000)"
fill="#052554" stroke="none">
<path d="M1399 3220 c-695 -126 -1222 -683 -1309 -1384 -17 -135 -8 -391 19
-518 119 -557 520 -1011 1051 -1191 194 -66 289 -81 520 -81 175 0 220 3 310
23 657 141 1145 637 1266 1286 28 151 26 462 -4 602 -67 309 -205 571 -416
791 -230 239 -479 380 -806 459 -91 22 -134 25 -315 29 -175 3 -227 0 -316
-16z m683 -863 c213 -83 384 -155 380 -158 -4 -4 -176 -73 -382 -154 -206 -81
-382 -151 -391 -156 -10 -5 -142 42 -410 147 -217 86 -397 159 -402 163 -4 4
100 49 230 101 131 51 310 121 398 156 88 35 167 61 175 58 8 -2 189 -73 402
-157z m-827 -387 l370 -146 3 -457 c2 -362 0 -457 -10 -457 -7 1 -76 26 -153
58 l-140 57 -3 255 -2 256 -133 43 c-72 24 -138 46 -144 48 -10 4 -13 -47 -13
-236 0 -191 -3 -241 -13 -241 -7 0 -58 17 -113 39 l-99 38 -3 462 -2 461 42
-17 c24 -10 210 -83 413 -163z m1281 -737 c-8 -9 -810 -323 -823 -323 -11 0
-13 86 -13 454 l0 454 273 107 c149 59 337 134 417 165 l145 58 3 -456 c1
-250 0 -457 -2 -459z m-1354 275 l68 -22 0 -213 c0 -134 -4 -213 -10 -213 -5
0 -39 12 -75 26 l-65 26 0 209 c0 115 3 209 7 209 4 0 37 -10 75 -22z"/>
</g>
</svg>
