<?xml version="1.0" standalone="no"?>
<!DOCTYPE svg PUBLIC "-//W3C//DTD SVG 20010904//EN"
 "http://www.w3.org/TR/2001/REC-SVG-20010904/DTD/svg10.dtd">
<svg version="1.0" xmlns="http://www.w3.org/2000/svg"
 width="128.000000pt" height="128.000000pt" viewBox="0 0 128.000000 128.000000"
 preserveAspectRatio="xMidYMid meet">

<g transform="translate(0.000000,128.000000) scale(0.100000,-0.100000)"
fill="#052554" stroke="none">
<path d="M17 1265 c-11 -7 -17 -23 -15 -35 4 -28 1206 -1230 1229 -1230 22 0
49 26 49 49 0 9 -39 56 -86 104 l-86 87 40 44 c84 91 132 222 132 358 0 195
-110 377 -279 463 -46 23 -84 8 -79 -32 2 -21 17 -37 59 -65 73 -48 124 -107
163 -188 29 -61 31 -72 31 -180 0 -104 -3 -120 -28 -174 -31 -67 -92 -146
-112 -146 -7 0 -23 13 -34 29 l-21 29 34 59 c19 32 43 89 52 127 15 58 15 78
5 135 -16 87 -50 157 -107 215 -82 83 -146 100 -152 40 -3 -26 5 -37 59 -84
80 -70 113 -137 113 -231 0 -53 -6 -77 -29 -124 -17 -33 -35 -61 -42 -63 -6
-2 -26 10 -43 26 l-31 30 22 41 c32 62 24 156 -17 207 -59 74 -146 94 -160 38
-7 -26 18 -64 41 -64 16 0 51 -40 59 -67 9 -27 -3 -73 -18 -73 -6 0 -37 27
-68 59 l-58 58 0 217 c0 203 -1 217 -20 236 -11 11 -25 20 -31 20 -9 0 -46
-32 -173 -152 l-50 -46 -150 149 c-83 82 -157 149 -166 149 -8 0 -23 -7 -33
-15z"/>
<path d="M121 833 c-52 -2 -101 -9 -108 -15 -10 -8 -13 -52 -13 -178 0 -144 2
-170 17 -181 10 -9 50 -15 112 -17 l96 -4 171 -169 c94 -93 178 -169 186 -169
8 0 23 9 34 21 16 18 19 40 22 166 l4 145 -203 204 c-112 112 -208 203 -214
202 -5 -1 -53 -4 -104 -5z"/>
</g>
</svg>
