<?xml version="1.0" standalone="no"?>
<!DOCTYPE svg PUBLIC "-//W3C//DTD SVG 20010904//EN"
 "http://www.w3.org/TR/2001/REC-SVG-20010904/DTD/svg10.dtd">
<svg version="1.0" xmlns="http://www.w3.org/2000/svg"
 width="132.000000pt" height="132.000000pt" viewBox="0 0 132.000000 132.000000"
 preserveAspectRatio="xMidYMid meet">

<g transform="translate(0.000000,132.000000) scale(0.100000,-0.100000)"
fill="#052554" stroke="none">
<path d="M222 1200 c-71 -56 -132 -121 -139 -148 -9 -39 15 -132 57 -217 57
-114 155 -241 294 -381 201 -200 387 -322 530 -347 63 -11 65 -10 105 17 47
33 139 141 147 173 13 49 -3 67 -133 153 -70 46 -138 86 -150 88 -13 2 -49
-10 -89 -32 -44 -25 -73 -35 -86 -30 -27 8 -294 275 -302 301 -5 14 4 39 25
74 53 90 51 97 -46 244 -48 71 -92 133 -98 137 -27 18 -67 7 -115 -32z"/>
</g>
</svg>
