<?xml version="1.0" encoding="UTF-8"?>
<svg id="Layer_2" data-name="Layer 2" xmlns="http://www.w3.org/2000/svg" viewBox="0 0 73.1 72.9">
  <defs>
    <style>
      .cls-1 {
        fill: #e5e6e7;
      }

      .cls-2 {
        fill: #166698;
      }

      .cls-3 {
        fill: #7e7e7e;
      }

      .cls-4 {
        fill: #e7e7e6;
      }

      .cls-5 {
        fill: #968c80;
      }

      .cls-6 {
        fill: #e79024;
      }

      .cls-7 {
        fill: #fdfdfc;
      }

      .cls-8 {
        fill: #b5b4b4;
      }

      .cls-9 {
        fill: #27aafd;
      }

      .cls-10 {
        fill: #d29446;
      }

      .cls-11 {
        fill: #41a1cb;
      }

      .cls-12 {
        fill: #d2d2d3;
      }

      .cls-13 {
        fill: #2198e4;
      }

      .cls-14 {
        fill: #dadada;
      }

      .cls-15 {
        fill: #145d8a;
      }

      .cls-16 {
        fill: #8c8c8b;
      }

      .cls-17 {
        fill: #a1a0a0;
      }

      .cls-18 {
        fill: #1f8acf;
      }
    </style>
  </defs>
  <g id="Layer_1-2" data-name="Layer 1">
    <g id="Layer_1-3" data-name="Layer 1">
      <g>
        <path class="cls-6" d="M37.7,72.9h-2.4c-.8,0-1.6,0-2.4-.2-1-.1-2.1-.3-3.1-.4-.7-.1-1.4-.3-2.1-.4-.8-.2-1.5-.4-2.3-.7-.8-.3-1.6-.5-2.3-.8-1-.4-2-.8-3-1.3-1.3-.7-2.6-1.4-3.8-2.2-3-2-5.7-4.5-8-7.3-1.9-2.3-3.5-4.8-4.8-7.6-.7-1.4-1.3-2.9-1.7-4.4-.4-1.2-.7-2.5-1-3.8-.3-1.5-.5-2.9-.6-4.4v-4.3c0-1.3.2-2.6.3-3.9.2-1.6.6-3.3,1.1-4.9.7-2.5,1.7-4.9,2.9-7.1,2.1-3.8,4.7-7.2,7.9-10,1.9-1.7,4-3.2,6.2-4.4,1.5-.9,3.2-1.6,4.8-2.3.9-.4,1.9-.7,2.8-1,.8-.2,1.7-.5,2.5-.6.6-.1,1.3-.3,1.9-.4.6-.1,1.3-.2,1.9-.3,1.1-.1,2.2-.2,3.2-.2h3.5c.9,0,1.7.1,2.6.3,1,.2,2,.3,3,.6.7.2,1.4.3,2.1.5,1,.3,2.1.7,3.1,1.1,1.6.6,3.1,1.3,4.6,2.2,1.2.7,2.4,1.5,3.5,2.3,2.5,1.9,4.8,4,6.8,6.4,1.9,2.3,3.5,4.8,4.8,7.6.7,1.4,1.3,2.9,1.7,4.4.4,1.2.7,2.5,1,3.8.4,2.1.7,4.2.7,6.3v3.4c0,1.5-.3,2.9-.6,4.3-.4,2-.9,4-1.7,6-.9,2.5-2.2,4.9-3.6,7.2-2.1,3.2-4.6,5.9-7.5,8.3-2,1.6-4.1,3-6.3,4.1-1.2.6-2.5,1.2-3.8,1.7-1,.4-1.9.7-2.9,1-.9.3-1.8.5-2.7.7s-1.8.3-2.7.5c-.5,0-1,0-1.4.1-.6,0-1.3.1-2,.1h-.2ZM44.8,33.3h0c-.2,0-.4-.1-.5-.2-1.4-2-2.8-4-4.2-6-.7-1-1.4-2-2.1-3-.1-.2-.3-.4-.6-.3-.4,0-.6.2-.8.4-1,1.4-2,2.9-2.9,4.4v-13.3c-.1-.3-.4-.5-.7-.5H14.7c-.4.2-.5.5-.5.9v40.5c0,.3.2.5.5.6,0,.1.2,0,.3,0h29.8c-.8.6-1.6,1.1-2.5,1.5-.3.1-.6.2-.8.4h-.1c-.3.5-.3.9-.2,1.4v.2c0,.5.6,1.3,1.1,1.5h.2c.8-.4,1.7-.7,2.5-1.3.2-.1.4-.3.6-.3v.6c0,.3.2.6.5.7,0,.1.2,0,.2,0h5.1c.2,0,.4-.1.6-.3.2-.2.2-.5.2-.8v-3.9h7.4c.3,0,.6-.1.8-.4.1-.3.1-.6,0-.8-.9-1.3-1.8-2.6-2.7-3.8-.9-1.3-1.9-2.7-2.8-4,.6,0,1.1,0,1.7-.1.9-.2,1.6-.5,2.3-1.1.8-.7,1.3-1.6,1.7-2.6.6-1.2,1-2.5,1.5-3.7.2-.4.3-.7.5-1h-.5c-1,.2-2,.5-3,.9-1.2.5-2.3,1.2-3.2,2.2-.2.2-.4.5-.6.8.4-1.6.6-3.1.7-4.6.6-.4,1.3-.8,1.9-1.3,1.7-1.4,2.9-3.2,3.5-5.4.4-1.6.5-3.2.3-4.8,0-.5,0-.9-.2-1.4,0-.2,0-.1-.2,0s-.5.2-.7.4c-2,1.3-3.5,3.1-4.6,5.3-.2.4-.4.8-.5,1.3,0-.2,0-.3-.1-.5-.1-.5-.2-.9-.4-1.4,0,0,.2-.1.2-.2,1.2-1.3,1.9-2.8,2.3-4.5.3-1.4.2-2.8,0-4.2-.2-1.1-.6-2.1-1.1-3.1-.3-.6-.6-1.2-1-1.7,0-.1-.2,0-.2,0-.1.1-.2.3-.3.4-.9,1.2-1.5,2.5-2,3.9-.1-.1-.1-.2-.1-.4v-2.6c0-1,0-2.1-.2-3.1,0-.2,0-.5-.1-.7-.1-.5-.2-.9-.4-1.4-.2-.8-.5-1.5-.9-2.2-.4-.8-.9-1.5-1.4-2.1-.2-.3-.5-.5-.7-.7h0c-.9.8-1.5,1.7-2.1,2.7-.5.9-.8,1.9-1.1,2.9h0c-.9-1-2.1-1.7-3.4-2.2-.6-.2-1.2-.5-1.9-.6-.1-.1-.2-.1-.2.1,0,.3.1.6.2,1,.5,2,1.6,3.6,3.2,4.9.5.4,1,.7,1.6.9v7.4c-.2,0-.4-.1-.6-.2-.7-.2-1.3-.3-2-.4h-.5q-.2,0-.2.2c.1.7.2,1.4.4,2,.3,1.1.8,2.2,1.6,3.1.4.5.9.9,1.4,1.3v2.1l-.7.2Z"/>
        <path class="cls-9" d="M33.5,28.7c1-1.5,2-2.9,2.9-4.4.2-.3.4-.5.8-.4v33H14.4c.3-.5.7-1,1-1.5.8-1.3,1.7-2.5,2.5-3.8.7-1,1.3-2,2-2.9.7-1.1,1.5-2.2,2.2-3.3.8-1.2,1.6-2.3,2.4-3.5.9-1.3,1.8-2.6,2.7-3.9.9-1.4,1.9-2.7,2.8-4.1.8-1.2,1.6-2.4,2.5-3.7.3-.5.6-.9.9-1.4h0l.1-.1Z"/>
        <path class="cls-2" d="M13.9,55.2V15.9c0-.4.1-.7.5-.9h18.3c.4,0,.6.2.7.5v10.7c0,.2,0,.4-.2.7-.3.4-.6.7-.8,1.1-.1.2-.3.4-.5.7-.2.3-.4.7-.6,1s-.4.5-.5.8c-.2.2-.3.5-.5.7-.4.5-.7.9-.6,1.6v1.1-3.6c0-.2,0-.3-.3-.3h-4.9v.1c-.1,0,0,.1,0,.2v3.5h3.8s0,.2-.1.3c-.2.3-.4.6-.6.9s-.4.6-.6.9c-.3.5-.7.9-1,1.4-.2.3-.5.6-.7,1-.2.5-.6.8-.9,1.3-.2.4-.5.8-.8,1.1-.3.4-.6.9-.9,1.4l-.2.2c-.1.3-.3.5-.5.7,0,.2-.2.3-.3.4-.4.4-.6.9-.9,1.4-.3.4-.6.9-.9,1.3-.3.5-.7,1-1,1.5-.2.3-.4.6-.6.9s-.4.7-.7.9c0,0,0,.3-.1.3-.3.2-.3.5-.5.7,0,0-.2,0-.2.2,0,.4-.5.7-.7,1.1-.1.3-.4.5-.5.8-.2.3-.4.6-.6.9s-.4.6-.6,1c-.1.2-.3.4-.5.6v.2ZM22.9,33.8v-3.6c0-.2,0-.3-.3-.3h-4.6c-.1,0-.3,0-.3.2v3.7c0,.1.1,0,.2,0h4.8s.2,0,.2,0ZM20.3,24.4h-2.3c-.2,0-.3,0-.3.3v3.4c0,.2,0,.3.3.3h4.7c.2,0,.3,0,.3-.3v-3.4c0-.2,0-.3-.3-.3h-2.4ZM27.1,28.3h2.3c.2,0,.3,0,.3-.3v-3.4c0-.2,0-.3-.3-.3h-4.7c-.2,0-.3,0-.3.3v3.4c0,.2,0,.3.3.3h2.4ZM20.3,22.8h2.4q.2,0,.2-.2v-3.4q0-.2-.2-.2h-4.7q-.2,0-.2.2v3.4q0,.2.2.2h2.4-.1ZM27.1,22.8h2.4q.2,0,.2-.2v-3.4c0-.2,0-.3-.3-.3h-4.7c-.2,0-.3,0-.3.3v3.4c0,.2,0,.3.3.3h2.3l.1-.1ZM17.8,22.9h5.1-5.1ZM29.6,22.9h-5,5ZM29.7,31.6h0v-1.3h0v1.3Z"/>
        <path class="cls-7" d="M55.5,38.8c0,1.5-.3,3-.7,4.6.2-.3.4-.6.6-.8.9-1,2-1.7,3.2-2.2,1-.4,2-.7,3-.9h.3s.1,0,0,0c0,0-.2.1-.3.2-.6.5-1.2,1-1.8,1.5-.6.6-1.2,1.1-1.7,1.7-.8.8-1.6,1.7-2.4,2.5-.3.3-.6.6-.9,1-.4.5-1,1-1.4,1.5h0c-.2.7-.5,1.4-.9,2.1-.2.5-.5,1.1-.7,1.6l-.1.2c-.7,1.3-1.4,2.5-2.3,3.6-.3.4-.6.8-.9,1.2-.3.4-.7.7-1,1.1-.7.7-1.4,1.3-2.2,1.9-.2.2-.4.3-.7.5-.8.5-1.5,1-2.4,1.4v-.1c0-.8,0-1.5-.6-2-.1-.1-.3-.2-.4-.4.2-.2.5-.3.8-.4.9-.4,1.7-.9,2.5-1.5,0,0,.1,0,.2-.1.2-.1.4-.3.6-.5h0c1.2-1,2.3-2.2,3.2-3.4.9-1.1,1.6-2.3,2.2-3.5.3-.6.6-1.1.9-1.7.2-.4.4-.8.5-1.3.2-.4.3-.7.4-1.1.1-.3.3-.6.3-.9,0-1-.2-2-.6-2.9-.1-.3-.2-.7-.5-.9v-.1c-.3-.2-.5-.5-.8-.7-1.2-1.1-2.5-2.1-3.8-3-1-.7-2-1.4-3-2.1-.8-.5-1.6-1-2.4-1.5-.2-.1-.4-.1-.5-.4h.2c.2,0,.4.1.7,0h.4c.5.1,1.1.2,1.6.3.2,0,.4.1.5.2h.1c.7.3,1.5.6,2.2.9l.6.3c.6.4,1.1.7,1.7,1.1.2.2.4.4.7.5l.1.1v.1c.9.9,1.5,2,1.9,3.2,0,.1,0,.2.2.3.5.8.9,1.7,1.2,2.7,0,0,.1-.2.1-.3.2-1,.4-2,.5-3,.2-2-.2-3.9-1.3-5.6,0,0,0-.2-.2-.2,0-.2-.3-.3-.4-.4-.5-.6-1.1-1.1-1.7-1.6-.8-.7-1.6-1.4-2.5-2.2-.7-.6-1.3-1.1-2-1.7-.7-.5-1.4-1.1-2.1-1.6-.6-.4-1.1-.8-1.8-1.2-.2-.1-.4-.3-.6-.4h.6c.7,0,1.3.2,2,.4.2,0,.4.1.6.2.4.2.9.3,1.3.5.3.1.6.3,1,.4h.1c.8.4,1.6,1,2.4,1.6.1.1.2.2.4.3,0,.1.1.2.2.3,1.2,1.2,2.1,2.6,2.6,4.2.1.3.2.6.4.9.3.4.6.9.8,1.3.1.2.2.4.3.7,0-.9-.1-1.8-.3-2.6-.3-1.7-.9-3.4-1.7-5v-5.5c0-.4,0-.7.1-1.1.4-1.4,1.1-2.7,2-3.9.1-.1.2-.3.3-.4,0,0,.1-.1.2,0,0,0-.1.1-.1.2v.7c0,.8,0,1.7-.2,2.5v10.4c.1.5.2,1,.4,1.4,0,.2,0,.3.1.5.2-.4.3-.9.5-1.3,1-2.2,2.5-4,4.6-5.3.2-.1.4-.2.7-.4h.2c-.1,0-.1.1-.2.2-.3.7-.7,1.3-1,2-.3.5-.5,1.1-.8,1.6-.2.5-.5,1.1-.7,1.6-.3.7-.6,1.3-.9,2-.4.9-.7,1.9-1.1,2.8-.3.7-.5,1.5-.8,2.2,0,.1-.2.3,0,.5l.2.4Z"/>
        <path class="cls-13" d="M41.5,32.8h-1.4c-.2,0-.3,0-.3.2,0,.4.1.8.2,1.3,0,.3.2.5.3.8.2.5.4,1,.6,1.5.2.5.6.9.9,1.4.2.4.6.6.8.9.1.1.3.2.5.4.1,0,.2.2.2.4v7.8c0,.3-.2.6-.4.7-.5.2-.9.6-1.4.9-.3.2-.6.3-.8.6,0,0-.2,0-.1.1h3.3v7.3h-6.5V24.1c.3,0,.5.1.6.3.7,1,1.4,2,2.1,3,1.4,2,2.8,4,4.2,6-.5-.1-1.1-.2-1.6-.3h-.4c-.2,0-.4-.1-.7,0l-.1-.3Z"/>
        <path class="cls-5" d="M52.4,21.3c-.1.3-.1.7-.1,1v8.8c-.5-1.1-1.2-2-2.1-2.9,0,0-.2-.1-.2-.3v-3.1c0-2.4,0-4.8-.1-7.1-.1-1.1-.3-2.2-.5-3.2-.2-.7-.4-1.5-.8-2.1v-4.2c0-1.4,0-.1,0-.2h0c.3.2.5.5.8.7.6.6,1.1,1.3,1.4,2.1.4.7.7,1.5.9,2.2.1.5.2.9.3,1.4,0,.2,0,.5.1.7.1,1,.2,2.1.2,3.1v2.6c0,.9,0,.3.1.4v.1Z"/>
        <path class="cls-13" d="M51.9,51.6c.2-.5.5-1.1.7-1.6.3-.7.6-1.4.9-2.1h1c.9,1.3,1.9,2.7,2.8,4,.9,1.3,1.8,2.6,2.7,3.8.2.3.2.6,0,.8-.2.3-.4.4-.8.4h-7.4v-4.6h0v-.8l.1.1Z"/>
        <path class="cls-15" d="M13.9,55.2c.2-.2.3-.4.5-.6.2-.3.4-.7.6-1s.4-.6.6-.9.4-.5.5-.8c.2-.4.6-.6.7-1.1,0-.1.2-.1.2-.2.2-.2.3-.6.5-.7,0,0,0-.2.1-.3.3-.3.5-.6.7-.9s.4-.6.6-.9c.3-.5.7-1,1-1.5.3-.4.6-.9.9-1.3.3-.5.6-.9.9-1.4.1-.1.2-.3.3-.4.1-.3.3-.5.5-.7l.2-.2c.3-.4.6-.9.9-1.4.3-.4.5-.8.8-1.1.3-.4.6-.8.9-1.3.2-.4.5-.6.7-1,.3-.5.6-1,1-1.4.2-.3.4-.6.6-.9s.4-.6.6-.9c0,0,.1-.2.1-.3h-3.8,5.1v-1.1c0-.6.2-1.1.6-1.6.2-.2.3-.5.5-.7.2-.3.3-.5.5-.8s.4-.6.6-1c.1-.2.3-.4.5-.7.2-.4.5-.8.8-1.1.2-.2.2-.4.2-.7v-10.5,13.1c-.3.5-.6.9-.9,1.4-.8,1.2-1.6,2.4-2.5,3.7-.9,1.4-1.9,2.7-2.8,4.1-.9,1.3-1.8,2.6-2.7,3.9-.8,1.2-1.6,2.3-2.4,3.5-.7,1.1-1.5,2.2-2.2,3.3-.7,1-1.3,2-2,2.9-.8,1.3-1.7,2.5-2.5,3.8-.3.5-.7,1-1,1.5h0c-.3,0-.5-.3-.5-.6v-1.2h.1Z"/>
        <path class="cls-8" d="M48.5,8v4.4c-.4.9-.7,1.8-.9,2.8-.3,1.4-.5,2.9-.5,4.4v6.5c-.3-.1-.6-.3-1-.4-.4-.2-.9-.3-1.3-.5v-7.4c0-.7,0-1.5.2-2.2.1-.6.2-1.2.4-1.9.3-1,.6-2,1.1-2.9.5-1,1.2-1.9,2.1-2.7l-.1-.1Z"/>
        <path class="cls-4" d="M42.2,24.6h-.6c.2.1.4.3.6.4.6.3,1.2.8,1.8,1.2.7.5,1.4,1,2.1,1.6.7.5,1.3,1.1,2,1.7.8.7,1.7,1.4,2.5,2.2.6.5,1.1,1,1.7,1.6.1.1.3.2.4.4h-.3c-.8,0-1.5-.1-2.3-.2-.6-.2-1.2-.3-1.8-.4-.3-.1-.7-.3-1-.3-.2-.2-.5-.3-.7-.4-.6-.3-1.1-.6-1.6-1s-1-.8-1.4-1.3c-.8-.9-1.3-2-1.6-3.1-.2-.7-.3-1.4-.4-2,0-.2,0-.3.2-.2h.5l-.1-.2Z"/>
        <path class="cls-4" d="M55.5,38.8c-.1-.2,0-.3,0-.5.3-.7.5-1.5.8-2.2.4-.9.7-1.9,1.1-2.8.3-.7.6-1.3.9-2,.2-.5.5-1.1.7-1.6s.5-1.1.8-1.6c.3-.7.7-1.4,1-2,0,0,0-.2.2-.2.1.4.2.9.2,1.4.2,1.6.1,3.2-.3,4.8-.6,2.2-1.8,4-3.5,5.4-.6.5-1.3.9-1.9,1.3h0Z"/>
        <path class="cls-4" d="M54.6,30.7v-10.4c0-.8.1-1.7.2-2.5v-.7s0-.2.1-.2c.4.5.7,1.1,1,1.7.5,1,.9,2,1.1,3.1.3,1.4.4,2.8,0,4.2-.3,1.7-1.1,3.2-2.3,4.5l-.2.2.1.1Z"/>
        <path class="cls-16" d="M51.9,52.5v8.4c0,.3,0,.6-.2.8-.1.2-.3.3-.6.3h-5.3,2.4c.2,0,.3,0,.3-.3v-3.9c-.5.4-.8.9-1.3,1.3-.6.5-1.2,1.1-1.9,1.5v-.8c.7-.6,1.5-1.2,2.2-1.9.4-.4.7-.7,1-1.1,0,0,.1.1,0,.2v.6h.1c.1-.1.3-.2.4-.4.5-.6,1-1.3,1.4-2,.4-.6.7-1.2,1.1-1.8.1-.2.2-.5.4-.7v-.2Z"/>
        <path class="cls-4" d="M54.5,47.9h-1c.4-.5.9-1,1.4-1.5.3-.3.6-.6.9-1,.8-.8,1.6-1.7,2.4-2.5.6-.6,1.2-1.1,1.7-1.7.6-.5,1.2-1,1.8-1.5,0,0,.2,0,.3-.2,0-.1,0,0,0,0h.2c-.2.4-.3.7-.5,1-.5,1.2-.9,2.5-1.5,3.7-.5.9-1,1.9-1.7,2.6-.7.6-1.4.9-2.3,1.1-.6.1-1.1.1-1.7.1v-.1Z"/>
        <path class="cls-4" d="M44.9,15.5c0,.7-.1,1.5-.2,2.2-.6-.2-1.1-.5-1.6-.9-1.7-1.2-2.7-2.9-3.2-4.9,0-.3-.1-.6-.2-1q0-.2.2-.1s-.2,0,0,.1c.7.6,1.4,1.2,2.1,1.8.8.8,1.6,1.5,2.4,2.3.1.1.3.3.5.4v.1Z"/>
        <path class="cls-17" d="M45.3,60.5c.7-.4,1.3-1,1.9-1.5.5-.4.8-.9,1.3-1.3v3.9q0,.3-.3.3h-2.4c-.3,0-.5-.4-.5-.7v-.7Z"/>
        <path class="cls-7" d="M44.9,15.5c-.2,0-.3-.3-.5-.4-.8-.8-1.6-1.5-2.4-2.3-.7-.6-1.4-1.2-2.1-1.8-.1-.1,0,0,0-.1.7.1,1.3.3,1.9.6,1.3.5,2.4,1.2,3.4,2.2h0c-.1.6-.2,1.2-.4,1.9l.1-.1Z"/>
        <path class="cls-10" d="M45.3,60.5v.1c-.3,0-.4.2-.6.4-.8.5-1.6.9-2.5,1.3h-.2c-.5-.1-1.1-.9-1.1-1.5v-.2c.2.5.6.8,1.1,1.1h.2c.9-.4,1.6-.9,2.4-1.4.2-.2.5-.3.7-.5v.8-.1Z"/>
        <path class="cls-11" d="M14.4,56.9h30.2l-.2.1H14.3l.1-.1Z"/>
        <path class="cls-8" d="M47.1,34.4c-.7-.3-1.5-.6-2.2-.9v-1.5h.2c.2.2.5.4.8.5.4.2.8.5,1.3.7v1.2h-.1Z"/>
        <path class="cls-4" d="M42.2,61.5h-.2c-.5-.2-.8-.6-1.1-1.1-.1-.5,0-1,.2-1.4h.1c0,.2.2.2.4.4.6.6.7,1.3.6,2v.1Z"/>
        <path class="cls-17" d="M47.1,33.2c-.5-.2-.9-.4-1.3-.7-.3-.2-.6-.3-.8-.5h-.2v-.7c.5.3,1,.7,1.6,1,.2.1.5.2.7.4v.6h0v-.1Z"/>
        <path class="cls-3" d="M33.5,28.8v-13.3c.1,0,0,.2,0,.4v12.9h0Z"/>
        <path class="cls-17" d="M44.8,33.3v.1h-.1l.1-.1Z"/>
        <path class="cls-1" d="M17.7,33.8v-3.7c0-.2.1-.2.3-.2h4.6q.3,0,.3.3v3.6h-5.2Z"/>
        <path class="cls-1" d="M20.3,24.4h2.3c.2,0,.3,0,.3.3v3.4c0,.2,0,.3-.3.3h-4.7c-.2,0-.3,0-.3-.3v-3.4c0-.2,0-.3.3-.3h2.4Z"/>
        <path class="cls-1" d="M27.1,28.3h-2.3c-.2,0-.3,0-.3-.3v-3.4c0-.2,0-.3.3-.3h4.7c.2,0,.3,0,.3.3v3.4c0,.2,0,.3-.3.3h-2.4Z"/>
        <path class="cls-4" d="M20.3,22.8h-2.4q-.2,0-.2-.2v-3.4q0-.2.2-.2h4.7q.2,0,.2.2v3.4q0,.2-.2.2h-2.4.1Z"/>
        <path class="cls-4" d="M27.1,22.8h-2.3c-.2,0-.3,0-.3-.3v-3.4c0-.2,0-.3.3-.3h4.7c.2,0,.3,0,.3.3v3.4c0,.2,0,.3-.2.2h-2.4l-.1.1Z"/>
        <path class="cls-1" d="M24.5,30h4.9c.2,0,.3,0,.3.3v2c-.5.5-.7,1-1.1,1.6h1.1-4.9s-.2,0-.2-.1v-3.7l-.1-.1Z"/>
        <path class="cls-12" d="M29.6,33.8h-1.1c.4-.5.7-1.1,1.1-1.6v1.6h0Z"/>
        <path class="cls-15" d="M24.5,33.6v.1h0c-.1,0,0-.1,0-.2v-3.5,3.6Z"/>
        <path class="cls-8" d="M24.5,33.8h0s.1.1.2.1h4.9-5.1v-.1Z"/>
        <path class="cls-15" d="M17.7,33.8h5.1c0,.1-.1,0-.2,0h-5,.1Z"/>
        <path class="cls-18" d="M44.7,56.9h-.9v-7.3h-3.3c0-.1.1,0,.1-.1.2-.2.5-.4.8-.6.5-.3.9-.6,1.4-.9.3-.1.4-.3.4-.7v-7.8c0-.2-.1-.3-.2-.4-.2-.1-.3-.2-.5-.4-.3-.3-.6-.6-.8-.9-.3-.5-.7-.9-.9-1.4s-.4-1-.6-1.5c0-.3-.2-.5-.3-.8-.1-.4-.2-.8-.2-1.3,0-.2.1-.3.3-.2h1.1v.2h0c.3,1.5.8,2.9,1.7,4.1.5.7,1.1,1.3,1.8,1.9v8.6h-.2c-.8.5-1.6,1.1-2.5,1.6,0,0-.1,0-.1.1h3.4v6.9c-.2.2-.4.3-.6.5l.1.4Z"/>
        <path class="cls-14" d="M47.1,26.1v-6.5c0-1.5.2-2.9.5-4.4.2-1,.5-1.9.9-2.8.4.6.6,1.4.8,2.1.3,1.1.4,2.2.5,3.2.3,3.4.1,6.8.2,10.1v.1c-.2,0-.3-.2-.4-.3-.7-.6-1.5-1.1-2.4-1.6h-.1v.1Z"/>
        <path class="cls-4" d="M44.8,39.1c-.7-.5-1.3-1.2-1.8-1.9-.9-1.2-1.4-2.6-1.7-4.1h0v-.2h.1c.1.2.3.3.5.4.8.5,1.6,1,2.4,1.5,1,.7,2,1.4,3,2.1,1.3,1,2.5,2,3.8,3,.3.2.5.5.8.7v.1c-.6,0-1.2,0-1.8.1-.5,0-.9,0-1.4-.1-.5,0-1-.2-1.5-.3-.8-.3-1.6-.7-2.3-1.2l-.1-.1Z"/>
        <path class="cls-17" d="M45.3,56.4v-6.9h3.3v3.6c-.9,1.3-2,2.4-3.2,3.4h0l-.1-.1Z"/>
        <path class="cls-12" d="M48.6,49.4h-6.7s0-.1.1-.1c.8-.5,1.6-1.1,2.5-1.6h5c.1,0,.3.1.4,0h1.7c-.3.6-.5,1.2-.9,1.7h-2.3.2Z"/>
        <path class="cls-16" d="M51.7,47.7h-1.7v-6.4h1.6c.2,0,.4,0,.4.2s.2.3.2.5v4.5c-.1.4-.3.9-.5,1.3v-.1Z"/>
        <path class="cls-6" d="M52.3,33.6h.3c.1,0,.2.1.2.2,1,1.7,1.5,3.6,1.3,5.6,0,1-.3,2-.5,3,0,0,0,.2-.1.3-.2-1-.7-1.8-1.2-2.7v-6.4Z"/>
        <path class="cls-16" d="M52.2,34.2v5.8s-.1-.2-.2-.3c-.3-1.1-.9-2-1.6-2.9l-.3-.3-.2-.2v-2.3h.7c.5,0,1.1.2,1.6.2Z"/>
        <path class="cls-14" d="M47.1,34.4v-1.2h.1c.9.4,1.8.6,2.7.8v2.3c-.3-.1-.4-.4-.7-.5-.5-.4-1.1-.8-1.7-1.1l-.6-.3h.2Z"/>
        <path class="cls-16" d="M48.6,49.4h2.3c-.6,1.2-1.4,2.4-2.2,3.5v-3.6l-.1.1Z"/>
        <path class="cls-3" d="M51.9,52.5c-.2.2-.3.5-.4.7-.3.6-.7,1.2-1.1,1.8-.4.7-.9,1.3-1.4,2-.1.1-.2.3-.4.4h-.1v-.8c.3-.4.6-.8.9-1.2.9-1.1,1.6-2.4,2.3-3.6,0,0,0-.1.1-.2v.3s-.1.2,0,.3v.2h0v.1h.1Z"/>
        <path class="cls-6" d="M52.2,44.8v-3.3c.4.9.6,1.9.6,2.9,0,.3-.1.6-.3.9-.2-.2-.2-.4-.4-.5h.1Z"/>
        <path class="cls-3" d="M52.3,33.6v.6c-.5,0-1.1,0-1.6-.2,0,0-.6,0-.7-.1v-.6c.8,0,1.5.2,2.3.2v.1Z"/>
        <path class="cls-3" d="M52.3,41.5c-.1.1,0,.3,0,.4,0-.2-.2-.3-.2-.5s-.3-.2-.4-.2c-.5.1-1,0-1.6,0v-.7c.6,0,1.2,0,1.8-.1.3.2.3.6.5.9l-.1.2Z"/>
        <path class="cls-18" d="M52.2,44.8c.2.1.3.4.4.5,0,.4-.2.7-.4,1.1v-1.6Z"/>
        <path class="cls-16" d="M51.9,52.2c-.1,0,0-.2,0-.3v.3Z"/>
        <path class="cls-12" d="M50,33.4v.6c-.9-.2-1.9-.4-2.7-.8h-.1v-.6c.4,0,.7.2,1,.3.6.2,1.2.3,1.8.4v.1Z"/>
        <path class="cls-17" d="M44.8,39.1c.7.5,1.5.9,2.3,1.2v.7c-.3,0-.5-.1-.7-.2-.4-.2-.9-.4-1.3-.6q-.3-.2-.3.2v7.4h0v-8.7Z"/>
        <path class="cls-12" d="M47.1,41v-.7c.5,0,1,.3,1.5.3s.9.1,1.4.1v.7h0c-.6,0-1.3,0-1.9-.1-.3,0-.7-.1-1-.2h0v-.1Z"/>
        <path class="cls-14" d="M47.1,41c.3,0,.7.1,1,.2.6.1,1.3.2,1.9.1v6.4h-2.9v-6.7Z"/>
        <path class="cls-8" d="M47.1,41v6.7h-2.3v-7.4q0-.3.3-.2c.4.3.8.5,1.3.6.2,0,.5.2.7.2h0v.1Z"/>
      </g>
    </g>
  </g>
</svg>