<?xml version="1.0" standalone="no"?>
<!DOCTYPE svg PUBLIC "-//W3C//DTD SVG 20010904//EN"
 "http://www.w3.org/TR/2001/REC-SVG-20010904/DTD/svg10.dtd">
<svg version="1.0" xmlns="http://www.w3.org/2000/svg"
 width="325.000000pt" height="325.000000pt" viewBox="0 0 325.000000 325.000000"
 preserveAspectRatio="xMidYMid meet">

<g transform="translate(0.000000,325.000000) scale(0.100000,-0.100000)"
fill="#052554" stroke="none">
<path d="M1471 3240 c-194 -20 -388 -74 -555 -154 -314 -151 -601 -437 -751
-750 -248 -518 -206 -1120 113 -1601 235 -355 603 -600 1034 -687 161 -33 463
-32 618 1 650 138 1135 622 1270 1266 46 220 36 512 -25 741 -164 607 -678
1070 -1300 1169 -120 19 -301 25 -404 15z m219 -620 c42 -11 88 -57 121 -120
13 -25 27 -46 32 -48 4 -2 7 -7 7 -12 0 -5 21 -44 46 -87 48 -80 54 -90 119
-203 21 -36 47 -81 58 -100 11 -19 31 -55 45 -80 13 -25 28 -49 32 -55 8 -10
28 -44 78 -135 13 -25 28 -49 32 -55 4 -5 17 -27 29 -47 12 -21 30 -55 42 -75
12 -21 25 -42 29 -48 4 -5 19 -30 32 -55 38 -68 60 -107 112 -193 25 -43 46
-81 46 -84 0 -3 10 -19 22 -36 18 -25 23 -46 23 -92 -1 -72 -18 -102 -76 -133
l-41 -22 -823 0 c-901 0 -866 -2 -918 59 -30 36 -41 93 -28 138 5 18 32 71 60
119 28 47 51 90 51 95 0 5 5 9 10 9 6 0 10 4 10 9 0 6 30 61 66 123 37 62 78
133 92 158 14 25 42 74 64 109 21 34 38 65 38 67 0 3 11 23 26 45 24 39 37 60
92 158 14 25 38 68 55 95 32 55 45 77 102 176 21 36 48 83 61 105 13 22 34 60
46 85 28 55 98 127 129 133 40 7 43 7 79 -3z"/>
<path d="M1574 1823 c4 -102 9 -206 13 -230 l6 -43 58 0 c32 0 60 3 62 8 3 4
8 107 12 230 l8 222 -83 0 -83 0 7 -187z"/>
<path d="M1592 1374 c-17 -12 -22 -25 -22 -62 0 -42 4 -50 29 -65 91 -53 189
46 116 118 -29 29 -88 34 -123 9z"/>
</g>
</svg>
