<svg xmlns="http://www.w3.org/2000/svg" xmlns:xlink="http://www.w3.org/1999/xlink" width="56" zoomAndPan="magnify" viewBox="0 0 42 50.249999" height="67" preserveAspectRatio="xMidYMid meet" version="1.2"><defs><clipPath id="e4fef3bc9e"><path d="M 0.652344 1.539062 L 41.296875 1.539062 L 41.296875 48.832031 L 0.652344 48.832031 Z M 0.652344 1.539062 "/></clipPath><clipPath id="13e8c13292"><path d="M 0.652344 0.00390625 L 41.296875 0.00390625 L 41.296875 47.296875 L 0.652344 47.296875 Z M 0.652344 0.00390625 "/></clipPath><clipPath id="8d33e538ba"><path d="M 7.160156 23.386719 L 12.59375 23.386719 L 12.59375 35.777344 L 7.160156 35.777344 Z M 7.160156 23.386719 "/></clipPath><clipPath id="8c55e7b5fd"><path d="M 0.160156 0.386719 L 5.59375 0.386719 L 5.59375 12.777344 L 0.160156 12.777344 Z M 0.160156 0.386719 "/></clipPath><clipPath id="441e184a8e"><rect x="0" width="6" y="0" height="13"/></clipPath></defs><g id="684945e3eb"><g clip-rule="nonzero" clip-path="url(#e4fef3bc9e)"><path style=" stroke:none;fill-rule:nonzero;fill:#727272;fill-opacity:1;" d="M 3.964844 48.351562 L 40.117188 26.863281 L 40.121094 26.851562 C 40.820312 26.449219 41.296875 25.699219 41.296875 24.832031 C 41.296875 24.054688 40.914062 23.371094 40.332031 22.945312 L 40.332031 22.9375 L 40.304688 22.925781 C 40.195312 22.84375 40.074219 22.777344 39.953125 22.71875 L 3.949219 1.96875 L 3.949219 1.972656 C 3.574219 1.722656 3.128906 1.574219 2.648438 1.574219 C 1.351562 1.574219 0.304688 2.625 0.304688 3.917969 L 0.304688 46.417969 C 0.304688 47.710938 1.351562 48.757812 2.648438 48.757812 C 3.136719 48.757812 3.589844 48.609375 3.964844 48.351562 Z M 3.964844 48.351562 "/></g><g clip-rule="nonzero" clip-path="url(#13e8c13292)"><path style=" stroke:none;fill-rule:nonzero;fill:#112c59;fill-opacity:1;" d="M 3.964844 46.816406 L 40.117188 25.328125 L 40.121094 25.316406 C 40.820312 24.910156 41.296875 24.164062 41.296875 23.296875 C 41.296875 22.519531 40.914062 21.835938 40.332031 21.40625 L 40.332031 21.402344 L 40.304688 21.386719 C 40.195312 21.308594 40.074219 21.242188 39.953125 21.183594 L 3.949219 0.433594 C 3.574219 0.183594 3.128906 0.0390625 2.648438 0.0390625 C 1.351562 0.0390625 0.304688 1.085938 0.304688 2.382812 L 0.304688 44.878906 C 0.304688 46.171875 1.351562 47.222656 2.648438 47.222656 C 3.136719 47.222656 3.589844 47.070312 3.964844 46.816406 Z M 3.964844 46.816406 "/></g><g clip-rule="nonzero" clip-path="url(#8d33e538ba)"><g transform="matrix(1,0,0,1,7,23)"><g clip-path="url(#441e184a8e)"><g clip-rule="nonzero" clip-path="url(#8c55e7b5fd)"><path style=" stroke:none;fill-rule:nonzero;fill:#112c59;fill-opacity:1;" d="M 0.160156 0.386719 L 5.59375 0.386719 L 5.59375 12.78125 L 0.160156 12.78125 Z M 0.160156 0.386719 "/></g></g></g></g></g></svg>