<svg xmlns="http://www.w3.org/2000/svg" xmlns:xlink="http://www.w3.org/1999/xlink" width="57" zoomAndPan="magnify" viewBox="0 0 42.75 50.999998" height="68" preserveAspectRatio="xMidYMid meet" version="1.2"><defs><clipPath id="3f18df83e5"><path d="M 1.019531 3 L 42.03125 3 L 42.03125 50.710938 L 1.019531 50.710938 Z M 1.019531 3 "/></clipPath><clipPath id="556be3a7a9"><path d="M 0 0.148438 L 41.007812 0.148438 L 41.007812 47.835938 L 0 47.835938 Z M 0 0.148438 "/></clipPath><clipPath id="dc7e098131"><path d="M 29.246094 23.746094 L 34.730469 23.746094 L 34.730469 36.246094 L 29.246094 36.246094 Z M 29.246094 23.746094 "/></clipPath><clipPath id="011201c40d"><path d="M 0.246094 0.746094 L 5.730469 0.746094 L 5.730469 13.246094 L 0.246094 13.246094 Z M 0.246094 0.746094 "/></clipPath><clipPath id="513770dd87"><rect x="0" width="6" y="0" height="14"/></clipPath></defs><g id="9c5ff4ac3b"><g clip-rule="nonzero" clip-path="url(#3f18df83e5)"><path style=" stroke:none;fill-rule:nonzero;fill:#727272;fill-opacity:1;" d="M 38.691406 3.472656 L 2.210938 25.15625 L 2.207031 25.167969 C 1.503906 25.574219 1.019531 26.332031 1.019531 27.207031 C 1.019531 27.992188 1.40625 28.679688 1.996094 29.109375 L 1.996094 29.117188 L 2.019531 29.132812 C 2.132812 29.210938 2.253906 29.277344 2.378906 29.335938 L 38.707031 50.273438 C 39.082031 50.523438 39.535156 50.671875 40.019531 50.671875 C 41.324219 50.671875 42.382812 49.613281 42.382812 48.308594 L 42.382812 5.425781 C 42.382812 4.121094 41.324219 3.0625 40.019531 3.0625 C 39.527344 3.0625 39.070312 3.214844 38.691406 3.472656 Z M 38.691406 3.472656 "/></g><g clip-rule="nonzero" clip-path="url(#556be3a7a9)"><path style=" stroke:none;fill-rule:nonzero;fill:#112c59;fill-opacity:1;" d="M 37.667969 0.601562 L 37.667969 0.597656 L 1.1875 22.28125 L 1.1875 22.292969 C 0.480469 22.703125 -0.00390625 23.457031 -0.00390625 24.332031 C -0.00390625 25.117188 0.382812 25.808594 0.972656 26.238281 L 0.972656 26.242188 L 0.996094 26.257812 C 1.109375 26.335938 1.230469 26.402344 1.355469 26.464844 L 37.683594 47.398438 C 38.058594 47.652344 38.511719 47.800781 38.996094 47.800781 C 40.300781 47.800781 41.359375 46.742188 41.359375 45.433594 L 41.359375 2.554688 C 41.359375 1.25 40.300781 0.191406 38.996094 0.191406 C 38.503906 0.191406 38.046875 0.339844 37.667969 0.601562 Z M 37.667969 0.601562 "/></g><g clip-rule="nonzero" clip-path="url(#dc7e098131)"><g transform="matrix(1,0,0,1,29,23)"><g clip-path="url(#513770dd87)"><g clip-rule="nonzero" clip-path="url(#011201c40d)"><path style=" stroke:none;fill-rule:nonzero;fill:#112c59;fill-opacity:1;" d="M 0.246094 0.746094 L 5.730469 0.746094 L 5.730469 13.253906 L 0.246094 13.253906 Z M 0.246094 0.746094 "/></g></g></g></g></g></svg>