<svg xmlns="http://www.w3.org/2000/svg" xmlns:xlink="http://www.w3.org/1999/xlink" width="384" zoomAndPan="magnify" viewBox="0 0 288 150.749998" height="201" preserveAspectRatio="xMidYMid meet" version="1.2"><defs><clipPath id="f0f1dd54c0"><path d="M 0.238281 0 L 287.117188 0 L 287.117188 150.1875 L 0.238281 150.1875 Z M 0.238281 0 "/></clipPath><clipPath id="a8f6b2f24d"><path d="M 34.679688 0 L 252.640625 0 C 261.777344 0 270.535156 3.628906 276.996094 10.089844 C 283.453125 16.546875 287.082031 25.308594 287.082031 34.441406 L 287.082031 115.742188 C 287.082031 124.878906 283.453125 133.636719 276.996094 140.097656 C 270.535156 146.558594 261.777344 150.1875 252.640625 150.1875 L 34.679688 150.1875 C 25.546875 150.1875 16.785156 146.558594 10.328125 140.097656 C 3.867188 133.636719 0.238281 124.878906 0.238281 115.742188 L 0.238281 34.441406 C 0.238281 25.308594 3.867188 16.546875 10.328125 10.089844 C 16.785156 3.628906 25.546875 0 34.679688 0 Z M 34.679688 0 "/></clipPath><clipPath id="b04c636fb5"><path d="M 0.238281 0 L 287.117188 0 L 287.117188 150.1875 L 0.238281 150.1875 Z M 0.238281 0 "/></clipPath><clipPath id="641d567085"><path d="M 34.679688 0 L 252.640625 0 C 261.777344 0 270.535156 3.628906 276.996094 10.089844 C 283.453125 16.546875 287.082031 25.308594 287.082031 34.441406 L 287.082031 115.742188 C 287.082031 124.878906 283.453125 133.636719 276.996094 140.097656 C 270.535156 146.558594 261.777344 150.1875 252.640625 150.1875 L 34.679688 150.1875 C 25.546875 150.1875 16.785156 146.558594 10.328125 140.097656 C 3.867188 133.636719 0.238281 124.878906 0.238281 115.742188 L 0.238281 34.441406 C 0.238281 25.308594 3.867188 16.546875 10.328125 10.089844 C 16.785156 3.628906 25.546875 0 34.679688 0 Z M 34.679688 0 "/></clipPath><clipPath id="fce2a473e4"><rect x="0" width="288" y="0" height="151"/></clipPath></defs><g id="5d89101de8"><g clip-rule="nonzero" clip-path="url(#f0f1dd54c0)"><g clip-rule="nonzero" clip-path="url(#a8f6b2f24d)"><g transform="matrix(1,0,0,1,0,0.000000000000005638)"><g clip-path="url(#fce2a473e4)"><g clip-rule="nonzero" clip-path="url(#b04c636fb5)"><g clip-rule="nonzero" clip-path="url(#641d567085)"><path style=" stroke:none;fill-rule:nonzero;fill:#cbe3c3;fill-opacity:1;" d="M 0.238281 0 L 287.117188 0 L 287.117188 150.1875 L 0.238281 150.1875 Z M 0.238281 0 "/></g></g></g></g></g></g><g style="fill:#112c59;fill-opacity:1;"><g transform="translate(34.090201, 55.875434)"><path style="stroke:none" d="M 17.140625 -3.609375 L 17.140625 0 L 1.265625 0 L 1.265625 -3.609375 L 10.09375 -3.609375 L 10.09375 -13.03125 C 10.09375 -14.65625 9.332031 -15.46875 7.8125 -15.46875 L 1.265625 -15.46875 L 1.265625 -19.078125 L 9.15625 -19.078125 C 10.9375 -19.078125 12.335938 -18.566406 13.359375 -17.546875 C 14.390625 -16.535156 14.90625 -14.953125 14.90625 -12.796875 L 14.90625 -3.609375 Z M 17.140625 -3.609375 "/></g></g><g style="fill:#112c59;fill-opacity:1;"><g transform="translate(52.227263, 55.875434)"><path style="stroke:none" d="M 8.78125 -11.5625 C 8.78125 -12.40625 8.863281 -13.164062 9.03125 -13.84375 C 9.195312 -14.519531 9.425781 -15.0625 9.71875 -15.46875 L 1.171875 -15.46875 L 1.171875 -19.078125 L 16.84375 -19.078125 L 16.84375 -15.46875 L 14.234375 -15.46875 C 13.804688 -14.507812 13.59375 -13.207031 13.59375 -11.5625 L 13.59375 0 L 8.78125 0 Z M 8.78125 -11.5625 "/></g></g><g style="fill:#112c59;fill-opacity:1;"><g transform="translate(70.330917, 55.875434)"><path style="stroke:none" d="M 1.296875 -3.609375 L 6.1875 -3.609375 L 6.1875 -13.265625 C 6.1875 -14.066406 6.035156 -14.632812 5.734375 -14.96875 C 5.429688 -15.300781 4.96875 -15.507812 4.34375 -15.59375 L 2 -15.9375 L 2.609375 -19.46875 L 6.78125 -18.9375 C 8.132812 -18.757812 9.171875 -18.179688 9.890625 -17.203125 C 10.617188 -16.222656 10.984375 -14.953125 10.984375 -13.390625 L 10.984375 0 L 1.296875 0 Z M 1.296875 -3.609375 "/></g></g><g style="fill:#112c59;fill-opacity:1;"><g transform="translate(83.056917, 55.875434)"><path style="stroke:none" d="M 0.59375 -2.703125 C 1.445312 -2.796875 2.082031 -2.960938 2.5 -3.203125 C 2.925781 -3.453125 3.21875 -3.789062 3.375 -4.21875 C 3.53125 -4.65625 3.597656 -5.273438 3.578125 -6.078125 L 3.578125 -19.078125 L 13.703125 -19.078125 C 15.484375 -19.078125 16.882812 -18.566406 17.90625 -17.546875 C 18.925781 -16.535156 19.4375 -14.953125 19.4375 -12.796875 L 19.4375 0 L 14.625 0 L 14.625 -13.03125 C 14.625 -14.65625 13.867188 -15.46875 12.359375 -15.46875 L 8.421875 -15.46875 L 8.421875 -6.71875 C 8.421875 -5.019531 8.15625 -3.671875 7.625 -2.671875 C 7.101562 -1.671875 6.3125 -0.921875 5.25 -0.421875 C 4.195312 0.078125 2.78125 0.40625 1 0.5625 Z M 0.59375 -2.703125 "/></g></g><g style="fill:#112c59;fill-opacity:1;"><g transform="translate(104.26692, 55.875434)"><path style="stroke:none" d="M 12.765625 -13.03125 C 12.765625 -14.65625 12.015625 -15.46875 10.515625 -15.46875 L 1.796875 -15.46875 L 1.796875 -19.078125 L 11.828125 -19.078125 C 13.609375 -19.078125 15.015625 -18.566406 16.046875 -17.546875 C 17.085938 -16.535156 17.609375 -14.953125 17.609375 -12.796875 L 17.609375 0 L 12.765625 0 Z M 1.609375 -9.125 L 2.265625 -11.359375 L 6.453125 -11.359375 L 6.453125 0 L 1.609375 0 Z M 1.609375 -9.125 "/></g></g><g style="fill:#112c59;fill-opacity:1;"><g transform="translate(123.406024, 55.875434)"><path style="stroke:none" d="M 15.5625 -19.078125 L 15.5625 -15.09375 L 9.546875 0 L 4.75 0 L 10.71875 -15.46875 L 1.03125 -15.46875 L 1.03125 -23.953125 L 5.375 -23.953125 L 5.375 -19.078125 Z M 15.5625 -19.078125 "/></g></g><g style="fill:#112c59;fill-opacity:1;"><g transform="translate(140.040017, 55.875434)"><path style="stroke:none" d=""/></g></g><g style="fill:#112c59;fill-opacity:1;"><g transform="translate(146.720333, 55.875434)"><path style="stroke:none" d="M 2.03125 -15.171875 L 1.640625 -19.078125 L 6.453125 -19.078125 L 6.84375 -15.171875 L 6.84375 0 L 2.03125 0 Z M 2.03125 -15.171875 "/></g></g><g style="fill:#112c59;fill-opacity:1;"><g transform="translate(155.371349, 55.875434)"><path style="stroke:none" d="M 15.5625 -19.078125 L 15.5625 -15.09375 L 9.546875 0 L 4.75 0 L 10.71875 -15.46875 L 1.03125 -15.46875 L 1.03125 -23.953125 L 5.375 -23.953125 L 5.375 -19.078125 Z M 15.5625 -19.078125 "/></g></g><g style="fill:#112c59;fill-opacity:1;"><g transform="translate(172.005342, 55.875434)"><path style="stroke:none" d="M 0.96875 -3.609375 L 6.3125 -3.609375 C 7.601562 -3.609375 8.554688 -4.03125 9.171875 -4.875 C 9.785156 -5.71875 10.09375 -6.851562 10.09375 -8.28125 L 10.09375 -10.796875 C 10.09375 -12.210938 9.785156 -13.34375 9.171875 -14.1875 C 8.554688 -15.039062 7.601562 -15.46875 6.3125 -15.46875 L 0.96875 -15.46875 L 0.96875 -19.078125 L 7.609375 -19.078125 C 9.992188 -19.078125 11.8125 -18.3125 13.0625 -16.78125 C 14.3125 -15.257812 14.9375 -13.171875 14.9375 -10.515625 L 14.9375 -8.546875 C 14.9375 -5.898438 14.3125 -3.8125 13.0625 -2.28125 C 11.8125 -0.757812 9.992188 0 7.609375 0 L 0.96875 0 Z M 0.96875 -3.609375 "/></g></g><g style="fill:#112c59;fill-opacity:1;"><g transform="translate(188.205111, 55.875434)"><path style="stroke:none" d="M 2.03125 -15.171875 L 1.640625 -19.078125 L 6.453125 -19.078125 L 6.84375 -15.171875 L 6.84375 0 L 2.03125 0 Z M 2.03125 -15.171875 "/></g></g><g style="fill:#112c59;fill-opacity:1;"><g transform="translate(196.856127, 55.875434)"><path style="stroke:none" d="M 0.59375 -2.703125 C 1.445312 -2.796875 2.082031 -2.960938 2.5 -3.203125 C 2.925781 -3.453125 3.21875 -3.789062 3.375 -4.21875 C 3.53125 -4.65625 3.597656 -5.273438 3.578125 -6.078125 L 3.578125 -19.078125 L 13.703125 -19.078125 C 15.484375 -19.078125 16.882812 -18.566406 17.90625 -17.546875 C 18.925781 -16.535156 19.4375 -14.953125 19.4375 -12.796875 L 19.4375 0 L 14.625 0 L 14.625 -13.03125 C 14.625 -14.65625 13.867188 -15.46875 12.359375 -15.46875 L 8.421875 -15.46875 L 8.421875 -6.71875 C 8.421875 -5.019531 8.15625 -3.671875 7.625 -2.671875 C 7.101562 -1.671875 6.3125 -0.921875 5.25 -0.421875 C 4.195312 0.078125 2.78125 0.40625 1 0.5625 Z M 0.59375 -2.703125 "/></g></g><g style="fill:#112c59;fill-opacity:1;"><g transform="translate(218.066129, 55.875434)"><path style="stroke:none" d=""/></g></g><g style="fill:#112c59;fill-opacity:1;"><g transform="translate(224.746445, 55.875434)"><path style="stroke:none" d="M 10.484375 -13.03125 C 10.484375 -14.65625 9.726562 -15.46875 8.21875 -15.46875 L 1.296875 -15.46875 L 1.296875 -19.078125 L 9.546875 -19.078125 C 11.335938 -19.078125 12.742188 -18.566406 13.765625 -17.546875 C 14.785156 -16.535156 15.296875 -14.953125 15.296875 -12.796875 L 15.296875 6.6875 L 10.484375 6.6875 Z M 10.484375 -13.03125 "/></g></g><g style="fill:#112c59;fill-opacity:1;"><g transform="translate(241.848058, 55.875434)"><path style="stroke:none" d="M 0.96875 -3.609375 L 6.3125 -3.609375 C 7.601562 -3.609375 8.554688 -4.03125 9.171875 -4.875 C 9.785156 -5.71875 10.09375 -6.851562 10.09375 -8.28125 L 10.09375 -10.796875 C 10.09375 -12.210938 9.785156 -13.34375 9.171875 -14.1875 C 8.554688 -15.039062 7.601562 -15.46875 6.3125 -15.46875 L 0.96875 -15.46875 L 0.96875 -19.078125 L 7.609375 -19.078125 C 9.992188 -19.078125 11.8125 -18.3125 13.0625 -16.78125 C 14.3125 -15.257812 14.9375 -13.171875 14.9375 -10.515625 L 14.9375 -8.546875 C 14.9375 -5.898438 14.3125 -3.8125 13.0625 -2.28125 C 11.8125 -0.757812 9.992188 0 7.609375 0 L 0.96875 0 Z M 0.96875 -3.609375 "/></g></g><g style="fill:#112c59;fill-opacity:1;"><g transform="translate(50.785169, 98.554654)"><path style="stroke:none" d="M 12.328125 -19.078125 C 14.109375 -19.078125 15.515625 -18.566406 16.546875 -17.546875 C 17.585938 -16.535156 18.109375 -14.953125 18.109375 -12.796875 L 18.109375 0 L 1.765625 0 L 1.765625 -19.078125 Z M 13.265625 -3.609375 L 13.265625 -13.03125 C 13.265625 -14.65625 12.519531 -15.46875 11.03125 -15.46875 L 6.578125 -15.46875 L 6.578125 -3.609375 Z M 13.265625 -3.609375 "/></g></g><g style="fill:#112c59;fill-opacity:1;"><g transform="translate(70.558906, 98.554654)"><path style="stroke:none" d="M 2.03125 -15.171875 L 1.640625 -19.078125 L 6.453125 -19.078125 L 6.84375 -15.171875 L 6.84375 -9.953125 L 6.8125 -7.84375 L 2.03125 -7.015625 Z M 2.03125 -15.171875 "/></g></g><g style="fill:#112c59;fill-opacity:1;"><g transform="translate(79.209922, 98.554654)"><path style="stroke:none" d="M 9.6875 -13.03125 C 9.6875 -14.65625 8.941406 -15.46875 7.453125 -15.46875 L 0.9375 -15.46875 L 0.9375 -19.078125 L 8.75 -19.078125 C 10.53125 -19.078125 11.9375 -18.566406 12.96875 -17.546875 C 14.007812 -16.535156 14.53125 -14.953125 14.53125 -12.796875 L 14.53125 0 L 9.6875 0 Z M 9.6875 -13.03125 "/></g></g><g style="fill:#112c59;fill-opacity:1;"><g transform="translate(95.509901, 98.554654)"><path style="stroke:none" d="M 12.390625 -19.078125 C 14.171875 -19.078125 15.578125 -18.539062 16.609375 -17.46875 C 17.648438 -16.40625 18.171875 -14.789062 18.171875 -12.625 L 18.171875 0 L 13.328125 0 L 13.328125 -12.859375 C 13.328125 -14.597656 12.582031 -15.46875 11.09375 -15.46875 L 6.609375 -15.46875 L 6.609375 0 L 1.796875 0 L 1.796875 -19.078125 Z M 12.390625 -19.078125 "/></g></g><g style="fill:#112c59;fill-opacity:1;"><g transform="translate(115.383848, 98.554654)"><path style="stroke:none" d="M 14.53125 0 L 8.25 -9.71875 L 5.28125 0 L 0.703125 0 L 4.40625 -11.453125 L 5.4375 -14.03125 L 2.34375 -19.078125 L 7.1875 -19.078125 L 9.859375 -14.734375 L 12.265625 -11.09375 L 13.15625 -14.125 L 14.5 -19.078125 L 19.078125 -19.078125 L 15.0625 -6.921875 L 19.671875 0 Z M 14.53125 0 "/></g></g><g style="fill:#112c59;fill-opacity:1;"><g transform="translate(135.992625, 98.554654)"><path style="stroke:none" d="M 15.5625 -19.078125 L 15.5625 -15.09375 L 9.546875 0 L 4.75 0 L 10.71875 -15.46875 L 1.03125 -15.46875 L 1.03125 -23.953125 L 5.375 -23.953125 L 5.375 -19.078125 Z M 15.5625 -19.078125 "/></g></g><g style="fill:#112c59;fill-opacity:1;"><g transform="translate(152.626618, 98.554654)"><path style="stroke:none" d=""/></g></g><g style="fill:#112c59;fill-opacity:1;"><g transform="translate(159.306934, 98.554654)"><path style="stroke:none" d="M 17.84375 -19.078125 C 17.820312 -14.640625 17.648438 -11.289062 17.328125 -9.03125 C 17.003906 -6.769531 16.148438 -4.863281 14.765625 -3.3125 C 13.378906 -1.769531 11.148438 -0.695312 8.078125 -0.09375 L 0.9375 1.296875 L 0.265625 -2.46875 L 5.578125 -3.46875 L 1.734375 -19.078125 L 6.546875 -19.078125 L 9.921875 -4.546875 C 10.921875 -5.035156 11.644531 -5.78125 12.09375 -6.78125 C 12.539062 -7.78125 12.8125 -8.992188 12.90625 -10.421875 C 13.007812 -11.847656 13.0625 -14.007812 13.0625 -16.90625 L 13.0625 -19.078125 Z M 17.84375 -19.078125 "/></g></g><g style="fill:#112c59;fill-opacity:1;"><g transform="translate(178.546248, 98.554654)"><path style="stroke:none" d="M 2.03125 -15.171875 L 1.640625 -19.078125 L 6.453125 -19.078125 L 6.84375 -15.171875 L 6.84375 -9.953125 L 6.8125 -7.84375 L 2.03125 -7.015625 Z M 2.03125 -15.171875 "/></g></g><g style="fill:#112c59;fill-opacity:1;"><g transform="translate(187.197265, 98.554654)"><path style="stroke:none" d="M 2.03125 -15.171875 L 1.640625 -19.078125 L 6.453125 -19.078125 L 6.84375 -15.171875 L 6.84375 -9.953125 L 6.8125 -7.84375 L 2.03125 -7.015625 Z M 2.03125 -15.171875 "/></g></g><g style="fill:#112c59;fill-opacity:1;"><g transform="translate(195.848281, 98.554654)"><path style="stroke:none" d="M 18.609375 -11.03125 C 18.742188 -7.101562 17.519531 -4.265625 14.9375 -2.515625 C 12.351562 -0.773438 8.585938 0.171875 3.640625 0.328125 L 1.796875 -15.46875 L 1.34375 -19.078125 L 11.59375 -19.078125 C 13.769531 -19.078125 15.457031 -18.457031 16.65625 -17.21875 C 17.863281 -15.976562 18.503906 -14.28125 18.578125 -12.125 Z M 7.84375 -3.9375 C 9.425781 -4.050781 10.65625 -4.378906 11.53125 -4.921875 C 12.414062 -5.472656 13.03125 -6.242188 13.375 -7.234375 C 13.71875 -8.222656 13.867188 -9.519531 13.828125 -11.125 L 13.828125 -12.125 C 13.828125 -13.144531 13.59375 -13.957031 13.125 -14.5625 C 12.65625 -15.164062 12.019531 -15.46875 11.21875 -15.46875 L 6.609375 -15.46875 Z M 7.84375 -3.9375 "/></g></g><g style="fill:#112c59;fill-opacity:1;"><g transform="translate(216.056241, 98.554654)"><path style="stroke:none" d="M 15.5625 -19.078125 L 15.5625 -15.09375 L 9.546875 0 L 4.75 0 L 10.71875 -15.46875 L 1.03125 -15.46875 L 1.03125 -23.953125 L 5.375 -23.953125 L 5.375 -19.078125 Z M 15.5625 -19.078125 "/></g></g><g style="fill:#112c59;fill-opacity:1;"><g transform="translate(232.690234, 98.554654)"><path style="stroke:none" d="M 2.03125 -15.171875 L 1.640625 -19.078125 L 6.453125 -19.078125 L 6.84375 -15.171875 L 6.84375 0 L 2.03125 0 Z M 2.03125 -15.171875 "/></g></g></g></svg>