<svg xmlns="http://www.w3.org/2000/svg" xmlns:xlink="http://www.w3.org/1999/xlink" width="384" zoomAndPan="magnify" viewBox="0 0 288 150.749998" height="201" preserveAspectRatio="xMidYMid meet" version="1.2"><defs><clipPath id="6f5267c788"><path d="M 0.238281 0 L 287.117188 0 L 287.117188 150.1875 L 0.238281 150.1875 Z M 0.238281 0 "/></clipPath><clipPath id="723048d3db"><path d="M 34.679688 0 L 252.640625 0 C 261.777344 0 270.535156 3.628906 276.996094 10.089844 C 283.453125 16.546875 287.082031 25.308594 287.082031 34.441406 L 287.082031 115.742188 C 287.082031 124.878906 283.453125 133.636719 276.996094 140.097656 C 270.535156 146.558594 261.777344 150.1875 252.640625 150.1875 L 34.679688 150.1875 C 25.546875 150.1875 16.785156 146.558594 10.328125 140.097656 C 3.867188 133.636719 0.238281 124.878906 0.238281 115.742188 L 0.238281 34.441406 C 0.238281 25.308594 3.867188 16.546875 10.328125 10.089844 C 16.785156 3.628906 25.546875 0 34.679688 0 Z M 34.679688 0 "/></clipPath><clipPath id="7fbc97c94d"><path d="M 0.238281 0 L 287.117188 0 L 287.117188 150.1875 L 0.238281 150.1875 Z M 0.238281 0 "/></clipPath><clipPath id="5273ae4646"><path d="M 34.679688 0 L 252.640625 0 C 261.777344 0 270.535156 3.628906 276.996094 10.089844 C 283.453125 16.546875 287.082031 25.308594 287.082031 34.441406 L 287.082031 115.742188 C 287.082031 124.878906 283.453125 133.636719 276.996094 140.097656 C 270.535156 146.558594 261.777344 150.1875 252.640625 150.1875 L 34.679688 150.1875 C 25.546875 150.1875 16.785156 146.558594 10.328125 140.097656 C 3.867188 133.636719 0.238281 124.878906 0.238281 115.742188 L 0.238281 34.441406 C 0.238281 25.308594 3.867188 16.546875 10.328125 10.089844 C 16.785156 3.628906 25.546875 0 34.679688 0 Z M 34.679688 0 "/></clipPath><clipPath id="a5a12e41e1"><rect x="0" width="288" y="0" height="151"/></clipPath></defs><g id="e31060954c"><g clip-rule="nonzero" clip-path="url(#6f5267c788)"><g clip-rule="nonzero" clip-path="url(#723048d3db)"><g transform="matrix(1,0,0,1,0,0.000000000000005638)"><g clip-path="url(#a5a12e41e1)"><g clip-rule="nonzero" clip-path="url(#7fbc97c94d)"><g clip-rule="nonzero" clip-path="url(#5273ae4646)"><path style=" stroke:none;fill-rule:nonzero;fill:#cbe3c3;fill-opacity:1;" d="M 0.238281 0 L 287.117188 0 L 287.117188 150.1875 L 0.238281 150.1875 Z M 0.238281 0 "/></g></g></g></g></g></g><g style="fill:#112c59;fill-opacity:1;"><g transform="translate(62.801364, 53.302545)"><path style="stroke:none" d="M 12.703125 -19.65625 C 14.546875 -19.65625 16 -19.132812 17.0625 -18.09375 C 18.132812 -17.050781 18.671875 -15.414062 18.671875 -13.1875 L 18.671875 0 L 1.828125 0 L 1.828125 -19.65625 Z M 13.671875 -3.71875 L 13.671875 -13.4375 C 13.671875 -15.101562 12.898438 -15.9375 11.359375 -15.9375 L 6.78125 -15.9375 L 6.78125 -3.71875 Z M 13.671875 -3.71875 "/></g></g><g style="fill:#112c59;fill-opacity:1;"><g transform="translate(83.191556, 53.302545)"><path style="stroke:none" d="M 2.09375 -15.640625 L 1.6875 -19.65625 L 6.640625 -19.65625 L 7.0625 -15.640625 L 7.0625 -10.265625 L 7.03125 -8.09375 L 2.09375 -7.234375 Z M 2.09375 -15.640625 "/></g></g><g style="fill:#112c59;fill-opacity:1;"><g transform="translate(92.112263, 53.302545)"><path style="stroke:none" d="M 22.046875 -13.90625 C 22.085938 -9.207031 20.71875 -5.65625 17.9375 -3.25 C 15.164062 -0.851562 10.863281 0.34375 5.03125 0.34375 L 3.953125 0.34375 L 1.375 -19.65625 L 6.09375 -19.65625 L 7.09375 -11.15625 C 8.007812 -11.613281 8.628906 -12.300781 8.953125 -13.21875 C 9.273438 -14.132812 9.425781 -15.515625 9.40625 -17.359375 L 9.40625 -19.625 L 14.125 -19.625 L 14.125 -17.453125 C 14.070312 -14.929688 13.5625 -12.882812 12.59375 -11.3125 C 11.632812 -9.738281 9.9375 -8.539062 7.5 -7.71875 L 7.984375 -3.75 C 11.265625 -3.957031 13.601562 -4.90625 15 -6.59375 C 16.40625 -8.28125 17.097656 -10.628906 17.078125 -13.640625 L 17.015625 -19.65625 L 22 -19.65625 Z M 22.046875 -13.90625 "/></g></g><g style="fill:#112c59;fill-opacity:1;"><g transform="translate(115.464538, 53.302545)"><path style="stroke:none" d="M 1.34375 -3.71875 L 6.375 -3.71875 L 6.375 -13.671875 C 6.375 -14.492188 6.21875 -15.078125 5.90625 -15.421875 C 5.59375 -15.765625 5.117188 -15.984375 4.484375 -16.078125 L 2.0625 -16.421875 L 2.6875 -20.078125 L 6.984375 -19.53125 C 8.390625 -19.34375 9.460938 -18.742188 10.203125 -17.734375 C 10.953125 -16.722656 11.328125 -15.414062 11.328125 -13.8125 L 11.328125 0 L 1.34375 0 Z M 1.34375 -3.71875 "/></g><g transform="translate(128.587274, 53.302545)"><path style="stroke:none" d="M 14.984375 0 L 8.5 -10.015625 L 5.4375 0 L 0.71875 0 L 4.546875 -11.8125 L 5.609375 -14.46875 L 2.40625 -19.65625 L 7.40625 -19.65625 L 10.15625 -15.1875 L 12.640625 -11.4375 L 13.5625 -14.5625 L 14.953125 -19.65625 L 19.65625 -19.65625 L 15.53125 -7.125 L 20.28125 0 Z M 14.984375 0 "/></g></g><g style="fill:#112c59;fill-opacity:1;"><g transform="translate(149.838534, 53.302545)"><path style="stroke:none" d="M 16.046875 -19.65625 L 16.046875 -15.5625 L 9.84375 0 L 4.890625 0 L 11.046875 -15.9375 L 1.0625 -15.9375 L 1.0625 -24.6875 L 5.546875 -24.6875 L 5.546875 -19.65625 Z M 16.046875 -19.65625 "/></g></g><g style="fill:#112c59;fill-opacity:1;"><g transform="translate(166.991092, 53.302545)"><path style="stroke:none" d=""/></g></g><g style="fill:#112c59;fill-opacity:1;"><g transform="translate(173.879665, 53.302545)"><path style="stroke:none" d="M 18.390625 -19.65625 C 18.367188 -15.09375 18.191406 -11.644531 17.859375 -9.3125 C 17.523438 -6.976562 16.644531 -5.015625 15.21875 -3.421875 C 13.800781 -1.828125 11.503906 -0.722656 8.328125 -0.109375 L 0.96875 1.34375 L 0.28125 -2.546875 L 5.75 -3.578125 L 1.796875 -19.65625 L 6.75 -19.65625 L 10.234375 -4.6875 C 11.265625 -5.1875 12.007812 -5.953125 12.46875 -6.984375 C 12.925781 -8.023438 13.207031 -9.28125 13.3125 -10.75 C 13.414062 -12.21875 13.46875 -14.441406 13.46875 -17.421875 L 13.46875 -19.65625 Z M 18.390625 -19.65625 "/></g></g><g style="fill:#112c59;fill-opacity:1;"><g transform="translate(193.718765, 53.302545)"><path style="stroke:none" d="M 2.09375 -15.640625 L 1.6875 -19.65625 L 6.640625 -19.65625 L 7.0625 -15.640625 L 7.0625 0 L 2.09375 0 Z M 2.09375 -15.640625 "/></g></g><g style="fill:#112c59;fill-opacity:1;"><g transform="translate(202.639472, 53.302545)"><path style="stroke:none" d="M 2.09375 -15.640625 L 1.6875 -19.65625 L 6.640625 -19.65625 L 7.0625 -15.640625 L 7.0625 -10.265625 L 7.03125 -8.09375 L 2.09375 -7.234375 Z M 2.09375 -15.640625 "/></g></g><g style="fill:#112c59;fill-opacity:1;"><g transform="translate(211.560178, 53.302545)"><path style="stroke:none" d="M 19.1875 -11.359375 C 19.320312 -7.316406 18.054688 -4.394531 15.390625 -2.59375 C 12.734375 -0.789062 8.851562 0.1875 3.75 0.34375 L 1.859375 -15.9375 L 1.375 -19.65625 L 11.953125 -19.65625 C 14.203125 -19.65625 15.945312 -19.019531 17.1875 -17.75 C 18.425781 -16.476562 19.078125 -14.726562 19.140625 -12.5 Z M 8.09375 -4.0625 C 9.71875 -4.175781 10.984375 -4.515625 11.890625 -5.078125 C 12.804688 -5.640625 13.441406 -6.429688 13.796875 -7.453125 C 14.148438 -8.472656 14.300781 -9.8125 14.25 -11.46875 L 14.25 -12.5 C 14.25 -13.550781 14.007812 -14.382812 13.53125 -15 C 13.050781 -15.625 12.398438 -15.9375 11.578125 -15.9375 L 6.8125 -15.9375 Z M 8.09375 -4.0625 "/></g></g><g style="fill:#112c59;fill-opacity:1;"><g transform="translate(52.541037, 96.730523)"><path style="stroke:none" d="M 13.15625 -13.4375 C 13.15625 -15.101562 12.382812 -15.9375 10.84375 -15.9375 L 1.859375 -15.9375 L 1.859375 -19.65625 L 12.1875 -19.65625 C 14.03125 -19.65625 15.484375 -19.132812 16.546875 -18.09375 C 17.617188 -17.050781 18.15625 -15.414062 18.15625 -13.1875 L 18.15625 0 L 13.15625 0 Z M 1.65625 -9.40625 L 2.34375 -11.703125 L 6.640625 -11.703125 L 6.640625 0 L 1.65625 0 Z M 1.65625 -9.40625 "/></g></g><g style="fill:#112c59;fill-opacity:1;"><g transform="translate(72.276808, 96.730523)"><path style="stroke:none" d="M 8.4375 -3.6875 C 10 -3.820312 11.15625 -4.347656 11.90625 -5.265625 C 12.664062 -6.179688 13.128906 -7.742188 13.296875 -9.953125 L 13.734375 -15.9375 L 1.75 -15.9375 L 1.75 -19.65625 L 19.078125 -19.65625 L 18.90625 -16.46875 L 18.53125 -11.265625 C 18.15625 -3.796875 14.914062 -0.03125 8.8125 0.03125 Z M 1.484375 -9.609375 L 2.171875 -11.984375 L 6.46875 -11.984375 L 6.46875 6.890625 L 1.484375 6.890625 Z M 1.484375 -9.609375 "/></g><g transform="translate(92.598106, 96.730523)"><path style="stroke:none" d="M 2.09375 -15.640625 L 1.6875 -19.65625 L 6.640625 -19.65625 L 7.0625 -15.640625 L 7.0625 0 L 2.09375 0 Z M 2.09375 -15.640625 "/></g><g transform="translate(101.518812, 96.730523)"><path style="stroke:none" d="M 12.953125 -8.0625 L 17.5 0 L 1.03125 0 L 1.03125 -3.71875 L 10.40625 -3.71875 L 1.40625 -19.65625 L 6.40625 -19.65625 L 10.296875 -12.734375 L 13.125 -19.65625 L 18.015625 -19.65625 Z M 12.953125 -8.0625 "/></g><g transform="translate(120.772381, 96.730523)"><path style="stroke:none" d="M 20.765625 -9.8125 C 20.765625 -6.625 20.023438 -4.113281 18.546875 -2.28125 C 17.066406 -0.457031 14.984375 0.453125 12.296875 0.453125 C 11.328125 0.453125 10.269531 0.3125 9.125 0.03125 L 9.578125 -3.6875 C 10.421875 -3.5 11.128906 -3.40625 11.703125 -3.40625 C 13.265625 -3.40625 14.378906 -3.925781 15.046875 -4.96875 C 15.710938 -6.019531 16.046875 -7.566406 16.046875 -9.609375 C 16.046875 -11.878906 15.726562 -13.523438 15.09375 -14.546875 C 14.46875 -15.566406 13.5 -16.078125 12.1875 -16.078125 C 11.269531 -16.078125 10.492188 -15.800781 9.859375 -15.25 C 9.234375 -14.695312 8.835938 -13.953125 8.671875 -13.015625 L 6.546875 0 L 1.578125 0 L 3.953125 -13.265625 L 1.203125 -19.65625 L 6.375 -19.65625 L 7.75 -15.734375 C 8.226562 -17.160156 8.945312 -18.222656 9.90625 -18.921875 C 10.875 -19.617188 11.976562 -19.96875 13.21875 -19.96875 C 15.675781 -19.96875 17.546875 -19.125 18.828125 -17.4375 C 20.117188 -15.75 20.765625 -13.207031 20.765625 -9.8125 Z M 20.765625 -9.8125 "/></g><g transform="translate(142.884709, 96.730523)"><path style="stroke:none" d=""/></g><g transform="translate(149.773285, 96.730523)"><path style="stroke:none" d="M 12.703125 -19.65625 C 14.546875 -19.65625 16 -19.132812 17.0625 -18.09375 C 18.132812 -17.050781 18.671875 -15.414062 18.671875 -13.1875 L 18.671875 0 L 1.828125 0 L 1.828125 -19.65625 Z M 13.671875 -3.71875 L 13.671875 -13.4375 C 13.671875 -15.101562 12.898438 -15.9375 11.359375 -15.9375 L 6.78125 -15.9375 L 6.78125 -3.71875 Z M 13.671875 -3.71875 "/></g></g><g style="fill:#112c59;fill-opacity:1;"><g transform="translate(170.163477, 96.730523)"><path style="stroke:none" d="M 2.09375 -15.640625 L 1.6875 -19.65625 L 6.640625 -19.65625 L 7.0625 -15.640625 L 7.0625 -10.265625 L 7.03125 -8.09375 L 2.09375 -7.234375 Z M 2.09375 -15.640625 "/></g></g><g style="fill:#112c59;fill-opacity:1;"><g transform="translate(179.084183, 96.730523)"><path style="stroke:none" d="M 22.046875 -13.90625 C 22.085938 -9.207031 20.71875 -5.65625 17.9375 -3.25 C 15.164062 -0.851562 10.863281 0.34375 5.03125 0.34375 L 3.953125 0.34375 L 1.375 -19.65625 L 6.09375 -19.65625 L 7.09375 -11.15625 C 8.007812 -11.613281 8.628906 -12.300781 8.953125 -13.21875 C 9.273438 -14.132812 9.425781 -15.515625 9.40625 -17.359375 L 9.40625 -19.625 L 14.125 -19.625 L 14.125 -17.453125 C 14.070312 -14.929688 13.5625 -12.882812 12.59375 -11.3125 C 11.632812 -9.738281 9.9375 -8.539062 7.5 -7.71875 L 7.984375 -3.75 C 11.265625 -3.957031 13.601562 -4.90625 15 -6.59375 C 16.40625 -8.28125 17.097656 -10.628906 17.078125 -13.640625 L 17.015625 -19.65625 L 22 -19.65625 Z M 22.046875 -13.90625 "/></g></g><g style="fill:#112c59;fill-opacity:1;"><g transform="translate(202.436458, 96.730523)"><path style="stroke:none" d="M 12.78125 -19.65625 C 14.613281 -19.65625 16.0625 -19.101562 17.125 -18 C 18.195312 -16.90625 18.734375 -15.242188 18.734375 -13.015625 L 18.734375 0 L 13.734375 0 L 13.734375 -13.265625 C 13.734375 -15.046875 12.96875 -15.9375 11.4375 -15.9375 L 6.8125 -15.9375 L 6.8125 0 L 1.859375 0 L 1.859375 -19.65625 Z M 12.78125 -19.65625 "/></g></g><g style="fill:#112c59;fill-opacity:1;"><g transform="translate(222.929967, 96.730523)"><path style="stroke:none" d="M 13.15625 -13.4375 C 13.15625 -15.101562 12.382812 -15.9375 10.84375 -15.9375 L 1.859375 -15.9375 L 1.859375 -19.65625 L 12.1875 -19.65625 C 14.03125 -19.65625 15.484375 -19.132812 16.546875 -18.09375 C 17.617188 -17.050781 18.15625 -15.414062 18.15625 -13.1875 L 18.15625 0 L 13.15625 0 Z M 1.65625 -9.40625 L 2.34375 -11.703125 L 6.640625 -11.703125 L 6.640625 0 L 1.65625 0 Z M 1.65625 -9.40625 "/></g></g></g></svg>