<svg xmlns="http://www.w3.org/2000/svg" xmlns:xlink="http://www.w3.org/1999/xlink" width="389" zoomAndPan="magnify" viewBox="0 0 291.75 150.749998" height="201" preserveAspectRatio="xMidYMid meet" version="1.2"><defs><clipPath id="cb7c8bc8ff"><path d="M 0.117188 0 L 286.996094 0 L 286.996094 150.1875 L 0.117188 150.1875 Z M 0.117188 0 "/></clipPath><clipPath id="4dfc5885cf"><path d="M 34.558594 0 L 252.519531 0 C 261.652344 0 270.414062 3.628906 276.875 10.089844 C 283.332031 16.546875 286.960938 25.308594 286.960938 34.441406 L 286.960938 115.742188 C 286.960938 124.878906 283.332031 133.636719 276.875 140.097656 C 270.414062 146.558594 261.652344 150.1875 252.519531 150.1875 L 34.558594 150.1875 C 25.425781 150.1875 16.664062 146.558594 10.203125 140.097656 C 3.746094 133.636719 0.117188 124.878906 0.117188 115.742188 L 0.117188 34.441406 C 0.117188 25.308594 3.746094 16.546875 10.203125 10.089844 C 16.664062 3.628906 25.425781 0 34.558594 0 Z M 34.558594 0 "/></clipPath><clipPath id="84745cd27c"><path d="M 0.117188 0 L 286.996094 0 L 286.996094 150.1875 L 0.117188 150.1875 Z M 0.117188 0 "/></clipPath><clipPath id="0a22fd0d93"><path d="M 34.558594 0 L 252.519531 0 C 261.652344 0 270.414062 3.628906 276.875 10.089844 C 283.332031 16.546875 286.960938 25.308594 286.960938 34.441406 L 286.960938 115.742188 C 286.960938 124.878906 283.332031 133.636719 276.875 140.097656 C 270.414062 146.558594 261.652344 150.1875 252.519531 150.1875 L 34.558594 150.1875 C 25.425781 150.1875 16.664062 146.558594 10.203125 140.097656 C 3.746094 133.636719 0.117188 124.878906 0.117188 115.742188 L 0.117188 34.441406 C 0.117188 25.308594 3.746094 16.546875 10.203125 10.089844 C 16.664062 3.628906 25.425781 0 34.558594 0 Z M 34.558594 0 "/></clipPath><clipPath id="ecfea07527"><rect x="0" width="287" y="0" height="151"/></clipPath></defs><g id="565c149e68"><g clip-rule="nonzero" clip-path="url(#cb7c8bc8ff)"><g clip-rule="nonzero" clip-path="url(#4dfc5885cf)"><g transform="matrix(1,0,0,1,0.000000000000000014,0.000000000000005638)"><g clip-path="url(#ecfea07527)"><g clip-rule="nonzero" clip-path="url(#84745cd27c)"><g clip-rule="nonzero" clip-path="url(#0a22fd0d93)"><path style=" stroke:none;fill-rule:nonzero;fill:#cbe3c3;fill-opacity:1;" d="M 0.117188 0 L 286.996094 0 L 286.996094 150.1875 L 0.117188 150.1875 Z M 0.117188 0 "/></g></g></g></g></g></g><g style="fill:#112c59;fill-opacity:1;"><g transform="translate(49.657874, 72.645337)"><path style="stroke:none" d="M 12.703125 -19.65625 C 14.546875 -19.65625 16 -19.132812 17.0625 -18.09375 C 18.132812 -17.050781 18.671875 -15.414062 18.671875 -13.1875 L 18.671875 0 L 1.828125 0 L 1.828125 -19.65625 Z M 13.671875 -3.71875 L 13.671875 -13.4375 C 13.671875 -15.101562 12.898438 -15.9375 11.359375 -15.9375 L 6.78125 -15.9375 L 6.78125 -3.71875 Z M 13.671875 -3.71875 "/></g></g><g style="fill:#112c59;fill-opacity:1;"><g transform="translate(70.048066, 72.645337)"><path style="stroke:none" d="M 2.09375 -15.640625 L 1.6875 -19.65625 L 6.640625 -19.65625 L 7.0625 -15.640625 L 7.0625 -10.265625 L 7.03125 -8.09375 L 2.09375 -7.234375 Z M 2.09375 -15.640625 "/></g></g><g style="fill:#112c59;fill-opacity:1;"><g transform="translate(78.968772, 72.645337)"><path style="stroke:none" d="M 1.34375 -3.71875 L 6.375 -3.71875 L 6.375 -13.671875 C 6.375 -14.492188 6.21875 -15.078125 5.90625 -15.421875 C 5.59375 -15.765625 5.117188 -15.984375 4.484375 -16.078125 L 2.0625 -16.421875 L 2.6875 -20.078125 L 6.984375 -19.53125 C 8.390625 -19.34375 9.460938 -18.742188 10.203125 -17.734375 C 10.953125 -16.722656 11.328125 -15.414062 11.328125 -13.8125 L 11.328125 0 L 1.34375 0 Z M 1.34375 -3.71875 "/></g><g transform="translate(92.091509, 72.645337)"><path style="stroke:none" d="M 1 -3.71875 L 6.515625 -3.71875 C 7.835938 -3.71875 8.816406 -4.15625 9.453125 -5.03125 C 10.085938 -5.90625 10.40625 -7.078125 10.40625 -8.546875 L 10.40625 -11.125 C 10.40625 -12.59375 10.085938 -13.757812 9.453125 -14.625 C 8.816406 -15.5 7.835938 -15.9375 6.515625 -15.9375 L 1 -15.9375 L 1 -19.65625 L 7.859375 -19.65625 C 10.304688 -19.65625 12.171875 -18.867188 13.453125 -17.296875 C 14.742188 -15.734375 15.390625 -13.582031 15.390625 -10.84375 L 15.390625 -8.8125 C 15.390625 -6.082031 14.742188 -3.929688 13.453125 -2.359375 C 12.171875 -0.785156 10.304688 0 7.859375 0 L 1 0 Z M 1 -3.71875 "/></g><g transform="translate(108.796306, 72.645337)"><path style="stroke:none" d="M 22.046875 -13.90625 C 22.085938 -9.207031 20.71875 -5.65625 17.9375 -3.25 C 15.164062 -0.851562 10.863281 0.34375 5.03125 0.34375 L 3.953125 0.34375 L 1.375 -19.65625 L 6.09375 -19.65625 L 7.09375 -11.15625 C 8.007812 -11.613281 8.628906 -12.300781 8.953125 -13.21875 C 9.273438 -14.132812 9.425781 -15.515625 9.40625 -17.359375 L 9.40625 -19.625 L 14.125 -19.625 L 14.125 -17.453125 C 14.070312 -14.929688 13.5625 -12.882812 12.59375 -11.3125 C 11.632812 -9.738281 9.9375 -8.539062 7.5 -7.71875 L 7.984375 -3.75 C 11.265625 -3.957031 13.601562 -4.90625 15 -6.59375 C 16.40625 -8.28125 17.097656 -10.628906 17.078125 -13.640625 L 17.015625 -19.65625 L 22 -19.65625 Z M 22.046875 -13.90625 "/></g><g transform="translate(132.148577, 72.645337)"><path style="stroke:none" d="M 16.046875 -19.65625 L 16.046875 -15.5625 L 9.84375 0 L 4.890625 0 L 11.046875 -15.9375 L 1.0625 -15.9375 L 1.0625 -24.6875 L 5.546875 -24.6875 L 5.546875 -19.65625 Z M 16.046875 -19.65625 "/></g><g transform="translate(149.301131, 72.645337)"><path style="stroke:none" d=""/></g><g transform="translate(156.189707, 72.645337)"><path style="stroke:none" d="M 12.703125 -19.65625 C 14.546875 -19.65625 16 -19.132812 17.0625 -18.09375 C 18.132812 -17.050781 18.671875 -15.414062 18.671875 -13.1875 L 18.671875 0 L 1.828125 0 L 1.828125 -19.65625 Z M 13.671875 -3.71875 L 13.671875 -13.4375 C 13.671875 -15.101562 12.898438 -15.9375 11.359375 -15.9375 L 6.78125 -15.9375 L 6.78125 -3.71875 Z M 13.671875 -3.71875 "/></g></g><g style="fill:#112c59;fill-opacity:1;"><g transform="translate(176.579901, 72.645337)"><path style="stroke:none" d="M 2.09375 -15.640625 L 1.6875 -19.65625 L 6.640625 -19.65625 L 7.0625 -15.640625 L 7.0625 -10.265625 L 7.03125 -8.09375 L 2.09375 -7.234375 Z M 2.09375 -15.640625 "/></g></g><g style="fill:#112c59;fill-opacity:1;"><g transform="translate(185.500608, 72.645337)"><path style="stroke:none" d="M 22.046875 -13.90625 C 22.085938 -9.207031 20.71875 -5.65625 17.9375 -3.25 C 15.164062 -0.851562 10.863281 0.34375 5.03125 0.34375 L 3.953125 0.34375 L 1.375 -19.65625 L 6.09375 -19.65625 L 7.09375 -11.15625 C 8.007812 -11.613281 8.628906 -12.300781 8.953125 -13.21875 C 9.273438 -14.132812 9.425781 -15.515625 9.40625 -17.359375 L 9.40625 -19.625 L 14.125 -19.625 L 14.125 -17.453125 C 14.070312 -14.929688 13.5625 -12.882812 12.59375 -11.3125 C 11.632812 -9.738281 9.9375 -8.539062 7.5 -7.71875 L 7.984375 -3.75 C 11.265625 -3.957031 13.601562 -4.90625 15 -6.59375 C 16.40625 -8.28125 17.097656 -10.628906 17.078125 -13.640625 L 17.015625 -19.65625 L 22 -19.65625 Z M 22.046875 -13.90625 "/></g></g><g style="fill:#112c59;fill-opacity:1;"><g transform="translate(208.852883, 72.645337)"><path style="stroke:none" d="M 8.46875 0 L 7.859375 -3.6875 C 7.210938 -2.65625 6.457031 -1.78125 5.59375 -1.0625 C 4.726562 -0.351562 3.664062 0.21875 2.40625 0.65625 L 0.578125 -3.265625 C 3.796875 -4.273438 5.976562 -5.882812 7.125 -8.09375 L 7.125 -13.703125 C 7.125 -14.535156 7 -15.125 6.75 -15.46875 C 6.5 -15.8125 6.070312 -16.023438 5.46875 -16.109375 L 3.3125 -16.421875 L 3.921875 -20.078125 L 7.984375 -19.53125 C 9.390625 -19.34375 10.425781 -18.816406 11.09375 -17.953125 C 11.757812 -17.097656 12.09375 -15.863281 12.09375 -14.25 L 12.09375 -7.71875 L 13.1875 0 Z M 8.46875 0 "/></g></g><g style="fill:#112c59;fill-opacity:1;"><g transform="translate(223.456662, 72.645337)"><path style="stroke:none" d="M 9.0625 -11.921875 C 9.0625 -12.785156 9.144531 -13.566406 9.3125 -14.265625 C 9.488281 -14.972656 9.722656 -15.53125 10.015625 -15.9375 L 1.203125 -15.9375 L 1.203125 -19.65625 L 17.359375 -19.65625 L 17.359375 -15.9375 L 14.671875 -15.9375 C 14.234375 -14.957031 14.015625 -13.617188 14.015625 -11.921875 L 14.015625 0 L 9.0625 0 Z M 9.0625 -11.921875 "/></g></g></g></svg>