<svg xmlns="http://www.w3.org/2000/svg" xmlns:xlink="http://www.w3.org/1999/xlink" width="384" zoomAndPan="magnify" viewBox="0 0 288 150.749998" height="201" preserveAspectRatio="xMidYMid meet" version="1.2"><defs><clipPath id="c16f357aa8"><path d="M 0.238281 0 L 287.117188 0 L 287.117188 150.1875 L 0.238281 150.1875 Z M 0.238281 0 "/></clipPath><clipPath id="23fa804e6f"><path d="M 34.679688 0 L 252.640625 0 C 261.777344 0 270.535156 3.628906 276.996094 10.089844 C 283.453125 16.546875 287.082031 25.308594 287.082031 34.441406 L 287.082031 115.742188 C 287.082031 124.878906 283.453125 133.636719 276.996094 140.097656 C 270.535156 146.558594 261.777344 150.1875 252.640625 150.1875 L 34.679688 150.1875 C 25.546875 150.1875 16.785156 146.558594 10.328125 140.097656 C 3.867188 133.636719 0.238281 124.878906 0.238281 115.742188 L 0.238281 34.441406 C 0.238281 25.308594 3.867188 16.546875 10.328125 10.089844 C 16.785156 3.628906 25.546875 0 34.679688 0 Z M 34.679688 0 "/></clipPath><clipPath id="a3c91137b7"><path d="M 0.238281 0 L 287.117188 0 L 287.117188 150.1875 L 0.238281 150.1875 Z M 0.238281 0 "/></clipPath><clipPath id="8c63db8740"><path d="M 34.679688 0 L 252.640625 0 C 261.777344 0 270.535156 3.628906 276.996094 10.089844 C 283.453125 16.546875 287.082031 25.308594 287.082031 34.441406 L 287.082031 115.742188 C 287.082031 124.878906 283.453125 133.636719 276.996094 140.097656 C 270.535156 146.558594 261.777344 150.1875 252.640625 150.1875 L 34.679688 150.1875 C 25.546875 150.1875 16.785156 146.558594 10.328125 140.097656 C 3.867188 133.636719 0.238281 124.878906 0.238281 115.742188 L 0.238281 34.441406 C 0.238281 25.308594 3.867188 16.546875 10.328125 10.089844 C 16.785156 3.628906 25.546875 0 34.679688 0 Z M 34.679688 0 "/></clipPath><clipPath id="c383f90ea3"><rect x="0" width="288" y="0" height="151"/></clipPath></defs><g id="897d347c5f"><g clip-rule="nonzero" clip-path="url(#c16f357aa8)"><g clip-rule="nonzero" clip-path="url(#23fa804e6f)"><g transform="matrix(1,0,0,1,0,0.000000000000005638)"><g clip-path="url(#c383f90ea3)"><g clip-rule="nonzero" clip-path="url(#a3c91137b7)"><g clip-rule="nonzero" clip-path="url(#8c63db8740)"><path style=" stroke:none;fill-rule:nonzero;fill:#cbe3c3;fill-opacity:1;" d="M 0.238281 0 L 287.117188 0 L 287.117188 150.1875 L 0.238281 150.1875 Z M 0.238281 0 "/></g></g></g></g></g></g><g style="fill:#112c59;fill-opacity:1;"><g transform="translate(59.012256, 55.54882)"><path style="stroke:none" d="M 2.09375 -15.640625 L 1.6875 -19.65625 L 6.640625 -19.65625 L 7.0625 -15.640625 L 7.0625 6.890625 L 2.09375 6.890625 Z M 2.09375 -15.640625 "/></g></g><g style="fill:#112c59;fill-opacity:1;"><g transform="translate(67.932963, 55.54882)"><path style="stroke:none" d="M 2.09375 -15.640625 L 1.6875 -19.65625 L 6.640625 -19.65625 L 7.0625 -15.640625 L 7.0625 0 L 2.09375 0 Z M 2.09375 -15.640625 "/></g></g><g style="fill:#112c59;fill-opacity:1;"><g transform="translate(76.85367, 55.54882)"><path style="stroke:none" d="M 1.828125 -3.71875 L 8.78125 -3.71875 C 10.113281 -3.71875 11.148438 -4.144531 11.890625 -5 C 12.640625 -5.863281 13.015625 -7.054688 13.015625 -8.578125 L 13.015625 -11.125 C 13.015625 -12.570312 12.6875 -13.734375 12.03125 -14.609375 C 11.375 -15.492188 10.414062 -15.9375 9.15625 -15.9375 L 6.6875 -15.9375 L 6.0625 -13.015625 C 5.988281 -12.710938 5.953125 -12.425781 5.953125 -12.15625 C 5.953125 -11.582031 6.125 -11.140625 6.46875 -10.828125 C 6.8125 -10.515625 7.375 -10.28125 8.15625 -10.125 L 7.375 -7.03125 C 5.320312 -7.070312 3.835938 -7.53125 2.921875 -8.40625 C 2.003906 -9.28125 1.546875 -10.460938 1.546875 -11.953125 C 1.546875 -12.503906 1.59375 -13.007812 1.6875 -13.46875 L 3.0625 -19.65625 L 10.328125 -19.65625 C 12.710938 -19.65625 14.582031 -18.863281 15.9375 -17.28125 C 17.289062 -15.695312 17.96875 -13.5625 17.96875 -10.875 L 17.96875 -8.8125 C 17.96875 -6.0625 17.242188 -3.90625 15.796875 -2.34375 C 14.359375 -0.78125 12.410156 0 9.953125 0 L 1.828125 0 Z M 1.828125 -3.71875 "/></g></g><g style="fill:#112c59;fill-opacity:1;"><g transform="translate(96.03836, 55.54882)"><path style="stroke:none" d="M 16.046875 -19.65625 L 16.046875 -15.5625 L 9.84375 0 L 4.890625 0 L 11.046875 -15.9375 L 1.0625 -15.9375 L 1.0625 -24.6875 L 5.546875 -24.6875 L 5.546875 -19.65625 Z M 16.046875 -19.65625 "/></g></g><g style="fill:#112c59;fill-opacity:1;"><g transform="translate(113.190917, 55.54882)"><path style="stroke:none" d="M 1.375 -19.65625 L 6.375 -19.65625 L 8.0625 -4.0625 C 10.445312 -4.289062 12.144531 -4.992188 13.15625 -6.171875 C 14.164062 -7.359375 14.644531 -9.046875 14.59375 -11.234375 L 14.59375 -12.296875 C 14.59375 -13.328125 14.3125 -14.203125 13.75 -14.921875 C 13.1875 -15.648438 12.347656 -16.046875 11.234375 -16.109375 L 9.546875 -16.21875 L 9.921875 -20.046875 L 12.015625 -19.9375 C 14.148438 -19.820312 15.898438 -19.160156 17.265625 -17.953125 C 18.628906 -16.753906 19.347656 -15.039062 19.421875 -12.8125 L 19.453125 -11.84375 C 19.585938 -7.800781 18.285156 -4.8125 15.546875 -2.875 C 12.804688 -0.9375 8.851562 0.132812 3.6875 0.34375 Z M 1.375 -19.65625 "/></g></g><g style="fill:#112c59;fill-opacity:1;"><g transform="translate(133.546663, 55.54882)"><path style="stroke:none" d=""/></g></g><g style="fill:#112c59;fill-opacity:1;"><g transform="translate(140.435236, 55.54882)"><path style="stroke:none" d="M 2.09375 -15.640625 L 1.6875 -19.65625 L 6.640625 -19.65625 L 7.0625 -15.640625 L 7.0625 -10.265625 L 7.03125 -8.09375 L 2.09375 -7.234375 Z M 2.09375 -15.640625 "/></g></g><g style="fill:#112c59;fill-opacity:1;"><g transform="translate(149.355943, 55.54882)"><path style="stroke:none" d="M 9.984375 -13.4375 C 9.984375 -15.101562 9.210938 -15.9375 7.671875 -15.9375 L 0.96875 -15.9375 L 0.96875 -19.65625 L 9.015625 -19.65625 C 10.859375 -19.65625 12.3125 -19.132812 13.375 -18.09375 C 14.445312 -17.050781 14.984375 -15.414062 14.984375 -13.1875 L 14.984375 0 L 9.984375 0 Z M 9.984375 -13.4375 "/></g></g><g style="fill:#112c59;fill-opacity:1;"><g transform="translate(166.164066, 55.54882)"><path style="stroke:none" d="M 1.828125 -3.71875 L 8.78125 -3.71875 C 10.113281 -3.71875 11.148438 -4.144531 11.890625 -5 C 12.640625 -5.863281 13.015625 -7.054688 13.015625 -8.578125 L 13.015625 -11.125 C 13.015625 -12.570312 12.6875 -13.734375 12.03125 -14.609375 C 11.375 -15.492188 10.414062 -15.9375 9.15625 -15.9375 L 6.6875 -15.9375 L 6.0625 -13.015625 C 5.988281 -12.710938 5.953125 -12.425781 5.953125 -12.15625 C 5.953125 -11.582031 6.125 -11.140625 6.46875 -10.828125 C 6.8125 -10.515625 7.375 -10.28125 8.15625 -10.125 L 7.375 -7.03125 C 5.320312 -7.070312 3.835938 -7.53125 2.921875 -8.40625 C 2.003906 -9.28125 1.546875 -10.460938 1.546875 -11.953125 C 1.546875 -12.503906 1.59375 -13.007812 1.6875 -13.46875 L 3.0625 -19.65625 L 10.328125 -19.65625 C 12.710938 -19.65625 14.582031 -18.863281 15.9375 -17.28125 C 17.289062 -15.695312 17.96875 -13.5625 17.96875 -10.875 L 17.96875 -8.8125 C 17.96875 -6.0625 17.242188 -3.90625 15.796875 -2.34375 C 14.359375 -0.78125 12.410156 0 9.953125 0 L 1.828125 0 Z M 1.828125 -3.71875 "/></g></g><g style="fill:#112c59;fill-opacity:1;"><g transform="translate(185.348756, 55.54882)"><path style="stroke:none" d="M 19.1875 -11.359375 C 19.320312 -7.316406 18.054688 -4.394531 15.390625 -2.59375 C 12.734375 -0.789062 8.851562 0.1875 3.75 0.34375 L 1.859375 -15.9375 L 1.375 -19.65625 L 11.953125 -19.65625 C 14.203125 -19.65625 15.945312 -19.019531 17.1875 -17.75 C 18.425781 -16.476562 19.078125 -14.726562 19.140625 -12.5 Z M 8.09375 -4.0625 C 9.71875 -4.175781 10.984375 -4.515625 11.890625 -5.078125 C 12.804688 -5.640625 13.441406 -6.429688 13.796875 -7.453125 C 14.148438 -8.472656 14.300781 -9.8125 14.25 -11.46875 L 14.25 -12.5 C 14.25 -13.550781 14.007812 -14.382812 13.53125 -15 C 13.050781 -15.625 12.398438 -15.9375 11.578125 -15.9375 L 6.8125 -15.9375 Z M 8.09375 -4.0625 "/></g></g><g style="fill:#112c59;fill-opacity:1;"><g transform="translate(206.186699, 55.54882)"><path style="stroke:none" d="M 20.765625 -9.8125 C 20.765625 -6.625 20.023438 -4.113281 18.546875 -2.28125 C 17.066406 -0.457031 14.984375 0.453125 12.296875 0.453125 C 11.328125 0.453125 10.269531 0.3125 9.125 0.03125 L 9.578125 -3.6875 C 10.421875 -3.5 11.128906 -3.40625 11.703125 -3.40625 C 13.265625 -3.40625 14.378906 -3.925781 15.046875 -4.96875 C 15.710938 -6.019531 16.046875 -7.566406 16.046875 -9.609375 C 16.046875 -11.878906 15.726562 -13.523438 15.09375 -14.546875 C 14.46875 -15.566406 13.5 -16.078125 12.1875 -16.078125 C 11.269531 -16.078125 10.492188 -15.800781 9.859375 -15.25 C 9.234375 -14.695312 8.835938 -13.953125 8.671875 -13.015625 L 6.546875 0 L 1.578125 0 L 3.953125 -13.265625 L 1.203125 -19.65625 L 6.375 -19.65625 L 7.75 -15.734375 C 8.226562 -17.160156 8.945312 -18.222656 9.90625 -18.921875 C 10.875 -19.617188 11.976562 -19.96875 13.21875 -19.96875 C 15.675781 -19.96875 17.546875 -19.125 18.828125 -17.4375 C 20.117188 -15.75 20.765625 -13.207031 20.765625 -9.8125 Z M 20.765625 -9.8125 "/></g></g><g style="fill:#112c59;fill-opacity:1;"><g transform="translate(86.447226, 98.976797)"><path style="stroke:none" d="M 12.703125 -19.65625 C 14.546875 -19.65625 16 -19.132812 17.0625 -18.09375 C 18.132812 -17.050781 18.671875 -15.414062 18.671875 -13.1875 L 18.671875 0 L 1.828125 0 L 1.828125 -19.65625 Z M 13.671875 -3.71875 L 13.671875 -13.4375 C 13.671875 -15.101562 12.898438 -15.9375 11.359375 -15.9375 L 6.78125 -15.9375 L 6.78125 -3.71875 Z M 13.671875 -3.71875 "/></g></g><g style="fill:#112c59;fill-opacity:1;"><g transform="translate(106.837418, 98.976797)"><path style="stroke:none" d="M 2.09375 -15.640625 L 1.6875 -19.65625 L 6.640625 -19.65625 L 7.0625 -15.640625 L 7.0625 -10.265625 L 7.03125 -8.09375 L 2.09375 -7.234375 Z M 2.09375 -15.640625 "/></g></g><g style="fill:#112c59;fill-opacity:1;"><g transform="translate(115.758124, 98.976797)"><path style="stroke:none" d="M 1.375 -19.65625 L 6.375 -19.65625 L 8.0625 -4.0625 C 10.445312 -4.289062 12.144531 -4.992188 13.15625 -6.171875 C 14.164062 -7.359375 14.644531 -9.046875 14.59375 -11.234375 L 14.59375 -12.296875 C 14.59375 -13.328125 14.3125 -14.203125 13.75 -14.921875 C 13.1875 -15.648438 12.347656 -16.046875 11.234375 -16.109375 L 9.546875 -16.21875 L 9.921875 -20.046875 L 12.015625 -19.9375 C 14.148438 -19.820312 15.898438 -19.160156 17.265625 -17.953125 C 18.628906 -16.753906 19.347656 -15.039062 19.421875 -12.8125 L 19.453125 -11.84375 C 19.585938 -7.800781 18.285156 -4.8125 15.546875 -2.875 C 12.804688 -0.9375 8.851562 0.132812 3.6875 0.34375 Z M 1.375 -19.65625 "/></g></g><g style="fill:#112c59;fill-opacity:1;"><g transform="translate(135.941658, 98.976797)"><path style="stroke:none" d="M 1.34375 -3.71875 L 6.375 -3.71875 L 6.375 -13.671875 C 6.375 -14.492188 6.21875 -15.078125 5.90625 -15.421875 C 5.59375 -15.765625 5.117188 -15.984375 4.484375 -16.078125 L 2.0625 -16.421875 L 2.6875 -20.078125 L 6.984375 -19.53125 C 8.390625 -19.34375 9.460938 -18.742188 10.203125 -17.734375 C 10.953125 -16.722656 11.328125 -15.414062 11.328125 -13.8125 L 11.328125 0 L 1.34375 0 Z M 1.34375 -3.71875 "/></g><g transform="translate(149.064395, 98.976797)"><path style="stroke:none" d="M 2.09375 -15.640625 L 1.6875 -19.65625 L 6.640625 -19.65625 L 7.0625 -15.640625 L 7.0625 0 L 2.09375 0 Z M 2.09375 -15.640625 "/></g></g><g style="fill:#112c59;fill-opacity:1;"><g transform="translate(157.985102, 98.976797)"><path style="stroke:none" d="M 2.09375 -15.640625 L 1.6875 -19.65625 L 6.640625 -19.65625 L 7.0625 -15.640625 L 7.0625 0 L 2.09375 0 Z M 2.09375 -15.640625 "/></g></g><g style="fill:#112c59;fill-opacity:1;"><g transform="translate(166.905809, 98.976797)"><path style="stroke:none" d="M 16.046875 -19.65625 L 16.046875 -15.5625 L 9.84375 0 L 4.890625 0 L 11.046875 -15.9375 L 1.0625 -15.9375 L 1.0625 -24.6875 L 5.546875 -24.6875 L 5.546875 -19.65625 Z M 16.046875 -19.65625 "/></g></g><g style="fill:#112c59;fill-opacity:1;"><g transform="translate(184.058366, 98.976797)"><path style="stroke:none" d="M 9.984375 -13.4375 C 9.984375 -15.101562 9.210938 -15.9375 7.671875 -15.9375 L 0.96875 -15.9375 L 0.96875 -19.65625 L 9.015625 -19.65625 C 10.859375 -19.65625 12.3125 -19.132812 13.375 -18.09375 C 14.445312 -17.050781 14.984375 -15.414062 14.984375 -13.1875 L 14.984375 0 L 9.984375 0 Z M 9.984375 -13.4375 "/></g></g></g></svg>