<svg xmlns="http://www.w3.org/2000/svg" xmlns:xlink="http://www.w3.org/1999/xlink" width="384" zoomAndPan="magnify" viewBox="0 0 288 150.749998" height="201" preserveAspectRatio="xMidYMid meet" version="1.2"><defs><clipPath id="c63e08969a"><path d="M 0.238281 0 L 287.117188 0 L 287.117188 150.1875 L 0.238281 150.1875 Z M 0.238281 0 "/></clipPath><clipPath id="70241da7e3"><path d="M 34.679688 0 L 252.640625 0 C 261.777344 0 270.535156 3.628906 276.996094 10.089844 C 283.453125 16.546875 287.082031 25.308594 287.082031 34.441406 L 287.082031 115.742188 C 287.082031 124.878906 283.453125 133.636719 276.996094 140.097656 C 270.535156 146.558594 261.777344 150.1875 252.640625 150.1875 L 34.679688 150.1875 C 25.546875 150.1875 16.785156 146.558594 10.328125 140.097656 C 3.867188 133.636719 0.238281 124.878906 0.238281 115.742188 L 0.238281 34.441406 C 0.238281 25.308594 3.867188 16.546875 10.328125 10.089844 C 16.785156 3.628906 25.546875 0 34.679688 0 Z M 34.679688 0 "/></clipPath><clipPath id="698a6bec40"><path d="M 0.238281 0 L 287.117188 0 L 287.117188 150.1875 L 0.238281 150.1875 Z M 0.238281 0 "/></clipPath><clipPath id="20061934e6"><path d="M 34.679688 0 L 252.640625 0 C 261.777344 0 270.535156 3.628906 276.996094 10.089844 C 283.453125 16.546875 287.082031 25.308594 287.082031 34.441406 L 287.082031 115.742188 C 287.082031 124.878906 283.453125 133.636719 276.996094 140.097656 C 270.535156 146.558594 261.777344 150.1875 252.640625 150.1875 L 34.679688 150.1875 C 25.546875 150.1875 16.785156 146.558594 10.328125 140.097656 C 3.867188 133.636719 0.238281 124.878906 0.238281 115.742188 L 0.238281 34.441406 C 0.238281 25.308594 3.867188 16.546875 10.328125 10.089844 C 16.785156 3.628906 25.546875 0 34.679688 0 Z M 34.679688 0 "/></clipPath><clipPath id="96483b64db"><rect x="0" width="288" y="0" height="151"/></clipPath></defs><g id="0e1de13556"><g clip-rule="nonzero" clip-path="url(#c63e08969a)"><g clip-rule="nonzero" clip-path="url(#70241da7e3)"><g transform="matrix(1,0,0,1,0,0.000000000000005638)"><g clip-path="url(#96483b64db)"><g clip-rule="nonzero" clip-path="url(#698a6bec40)"><g clip-rule="nonzero" clip-path="url(#20061934e6)"><path style=" stroke:none;fill-rule:nonzero;fill:#cbe3c3;fill-opacity:1;" d="M 0.238281 0 L 287.117188 0 L 287.117188 150.1875 L 0.238281 150.1875 Z M 0.238281 0 "/></g></g></g></g></g></g><g style="fill:#112c59;fill-opacity:1;"><g transform="translate(68.395133, 55.339637)"><path style="stroke:none" d="M 2.09375 -15.609375 L 1.6875 -19.640625 L 6.640625 -19.640625 L 7.046875 -15.609375 L 7.046875 -10.25 L 7.015625 -8.078125 L 2.09375 -7.21875 Z M 2.09375 -15.609375 "/></g></g><g style="fill:#112c59;fill-opacity:1;"><g transform="translate(77.303729, 55.339637)"><path style="stroke:none" d="M 1.34375 -3.71875 L 6.359375 -3.71875 L 6.359375 -13.65625 C 6.359375 -14.476562 6.203125 -15.0625 5.890625 -15.40625 C 5.585938 -15.75 5.113281 -15.96875 4.46875 -16.0625 L 2.0625 -16.40625 L 2.6875 -20.046875 L 6.984375 -19.5 C 8.378906 -19.3125 9.445312 -18.710938 10.1875 -17.703125 C 10.9375 -16.703125 11.3125 -15.398438 11.3125 -13.796875 L 11.3125 0 L 1.34375 0 Z M 1.34375 -3.71875 "/></g></g><g style="fill:#112c59;fill-opacity:1;"><g transform="translate(90.408643, 55.339637)"><path style="stroke:none" d="M 17.640625 -3.71875 L 17.640625 0 L 1.3125 0 L 1.3125 -3.71875 L 10.390625 -3.71875 L 10.390625 -13.40625 C 10.390625 -15.082031 9.609375 -15.921875 8.046875 -15.921875 L 1.3125 -15.921875 L 1.3125 -19.640625 L 9.421875 -19.640625 C 11.253906 -19.640625 12.695312 -19.113281 13.75 -18.0625 C 14.8125 -17.019531 15.34375 -15.390625 15.34375 -13.171875 L 15.34375 -3.71875 Z M 17.640625 -3.71875 "/></g></g><g style="fill:#112c59;fill-opacity:1;"><g transform="translate(109.085726, 55.339637)"><path style="stroke:none" d="M 16.03125 -19.640625 L 16.03125 -15.546875 L 9.828125 0 L 4.890625 0 L 11.046875 -15.921875 L 1.0625 -15.921875 L 1.0625 -24.65625 L 5.53125 -24.65625 L 5.53125 -19.640625 Z M 16.03125 -19.640625 "/></g></g><g style="fill:#112c59;fill-opacity:1;"><g transform="translate(126.214988, 55.339637)"><path style="stroke:none" d=""/></g></g><g style="fill:#112c59;fill-opacity:1;"><g transform="translate(133.094215, 55.339637)"><path style="stroke:none" d="M 12.6875 -19.640625 C 14.519531 -19.640625 15.96875 -19.113281 17.03125 -18.0625 C 18.101562 -17.019531 18.640625 -15.390625 18.640625 -13.171875 L 18.640625 0 L 1.828125 0 L 1.828125 -19.640625 Z M 13.65625 -3.71875 L 13.65625 -13.40625 C 13.65625 -15.082031 12.882812 -15.921875 11.34375 -15.921875 L 6.78125 -15.921875 L 6.78125 -3.71875 Z M 13.65625 -3.71875 "/></g></g><g style="fill:#112c59;fill-opacity:1;"><g transform="translate(153.456713, 55.339637)"><path style="stroke:none" d="M 2.09375 -15.609375 L 1.6875 -19.640625 L 6.640625 -19.640625 L 7.046875 -15.609375 L 7.046875 -10.25 L 7.015625 -8.078125 L 2.09375 -7.21875 Z M 2.09375 -15.609375 "/></g></g><g style="fill:#112c59;fill-opacity:1;"><g transform="translate(162.365309, 55.339637)"><path style="stroke:none" d="M 22.015625 -13.890625 C 22.054688 -9.191406 20.6875 -5.644531 17.90625 -3.25 C 15.132812 -0.851562 10.835938 0.34375 5.015625 0.34375 L 3.953125 0.34375 L 1.375 -19.640625 L 6.09375 -19.640625 L 7.078125 -11.140625 C 7.992188 -11.597656 8.613281 -12.285156 8.9375 -13.203125 C 9.257812 -14.117188 9.410156 -15.492188 9.390625 -17.328125 L 9.390625 -19.609375 L 14.09375 -19.609375 L 14.09375 -17.4375 C 14.050781 -14.914062 13.546875 -12.867188 12.578125 -11.296875 C 11.617188 -9.722656 9.925781 -8.523438 7.5 -7.703125 L 7.984375 -3.75 C 11.253906 -3.957031 13.585938 -4.898438 14.984375 -6.578125 C 16.390625 -8.265625 17.082031 -10.613281 17.0625 -13.625 L 16.984375 -19.640625 L 21.96875 -19.640625 Z M 22.015625 -13.890625 "/></g></g><g style="fill:#112c59;fill-opacity:1;"><g transform="translate(185.685867, 55.339637)"><path style="stroke:none" d="M 8.453125 0 L 7.84375 -3.6875 C 7.195312 -2.644531 6.441406 -1.769531 5.578125 -1.0625 C 4.722656 -0.351562 3.664062 0.21875 2.40625 0.65625 L 0.578125 -3.265625 C 3.796875 -4.273438 5.976562 -5.878906 7.125 -8.078125 L 7.125 -13.6875 C 7.125 -14.507812 6.992188 -15.09375 6.734375 -15.4375 C 6.484375 -15.78125 6.0625 -16 5.46875 -16.09375 L 3.296875 -16.40625 L 3.921875 -20.046875 L 7.984375 -19.5 C 9.378906 -19.3125 10.410156 -18.785156 11.078125 -17.921875 C 11.742188 -17.066406 12.078125 -15.835938 12.078125 -14.234375 L 12.078125 -7.703125 L 13.171875 0 Z M 8.453125 0 "/></g></g><g style="fill:#112c59;fill-opacity:1;"><g transform="translate(200.269823, 55.339637)"><path style="stroke:none" d="M 9.046875 -11.90625 C 9.046875 -12.769531 9.128906 -13.550781 9.296875 -14.25 C 9.472656 -14.945312 9.707031 -15.503906 10 -15.921875 L 1.203125 -15.921875 L 1.203125 -19.640625 L 17.328125 -19.640625 L 17.328125 -15.921875 L 14.65625 -15.921875 C 14.21875 -14.929688 14 -13.59375 14 -11.90625 L 14 0 L 9.046875 0 Z M 9.046875 -11.90625 "/></g></g><g style="fill:#112c59;fill-opacity:1;"><g transform="translate(20.837286, 98.767615)"><path style="stroke:none" d="M 12.6875 -19.640625 C 14.519531 -19.640625 15.96875 -19.113281 17.03125 -18.0625 C 18.101562 -17.019531 18.640625 -15.390625 18.640625 -13.171875 L 18.640625 0 L 1.828125 0 L 1.828125 -19.640625 Z M 13.65625 -3.71875 L 13.65625 -13.40625 C 13.65625 -15.082031 12.882812 -15.921875 11.34375 -15.921875 L 6.78125 -15.921875 L 6.78125 -3.71875 Z M 13.65625 -3.71875 "/></g></g><g style="fill:#112c59;fill-opacity:1;"><g transform="translate(41.199783, 98.767615)"><path style="stroke:none" d="M 2.09375 -15.609375 L 1.6875 -19.640625 L 6.640625 -19.640625 L 7.046875 -15.609375 L 7.046875 -10.25 L 7.015625 -8.078125 L 2.09375 -7.21875 Z M 2.09375 -15.609375 "/></g></g><g style="fill:#112c59;fill-opacity:1;"><g transform="translate(50.108379, 98.767615)"><path style="stroke:none" d="M 16.03125 -19.640625 L 16.03125 -15.546875 L 9.828125 0 L 4.890625 0 L 11.046875 -15.921875 L 1.0625 -15.921875 L 1.0625 -24.65625 L 5.53125 -24.65625 L 5.53125 -19.640625 Z M 16.03125 -19.640625 "/></g></g><g style="fill:#112c59;fill-opacity:1;"><g transform="translate(67.237641, 98.767615)"><path style="stroke:none" d="M 1.828125 -3.71875 L 8.765625 -3.71875 C 10.097656 -3.71875 11.132812 -4.144531 11.875 -5 C 12.625 -5.863281 13 -7.050781 13 -8.5625 L 13 -11.109375 C 13 -12.554688 12.671875 -13.71875 12.015625 -14.59375 C 11.367188 -15.476562 10.410156 -15.921875 9.140625 -15.921875 L 6.671875 -15.921875 L 6.046875 -13 C 5.984375 -12.695312 5.953125 -12.410156 5.953125 -12.140625 C 5.953125 -11.566406 6.125 -11.125 6.46875 -10.8125 C 6.8125 -10.507812 7.375 -10.273438 8.15625 -10.109375 L 7.359375 -7.015625 C 5.316406 -7.054688 3.835938 -7.515625 2.921875 -8.390625 C 2.003906 -9.265625 1.546875 -10.445312 1.546875 -11.9375 C 1.546875 -12.488281 1.59375 -12.992188 1.6875 -13.453125 L 3.0625 -19.640625 L 10.3125 -19.640625 C 12.695312 -19.640625 14.566406 -18.847656 15.921875 -17.265625 C 17.273438 -15.679688 17.953125 -13.550781 17.953125 -10.875 L 17.953125 -8.796875 C 17.953125 -6.046875 17.226562 -3.890625 15.78125 -2.328125 C 14.34375 -0.773438 12.394531 0 9.9375 0 L 1.828125 0 Z M 1.828125 -3.71875 "/></g></g><g style="fill:#112c59;fill-opacity:1;"><g transform="translate(86.39627, 98.767615)"><path style="stroke:none" d="M 1.375 -19.640625 L 6.359375 -19.640625 L 8.046875 -4.0625 C 10.429688 -4.289062 12.128906 -4.992188 13.140625 -6.171875 C 14.148438 -7.347656 14.628906 -9.03125 14.578125 -11.21875 L 14.578125 -12.28125 C 14.578125 -13.3125 14.296875 -14.1875 13.734375 -14.90625 C 13.171875 -15.625 12.332031 -16.019531 11.21875 -16.09375 L 9.53125 -16.203125 L 9.90625 -20.015625 L 12 -19.90625 C 14.132812 -19.789062 15.882812 -19.128906 17.25 -17.921875 C 18.613281 -16.722656 19.328125 -15.015625 19.390625 -12.796875 L 19.4375 -11.828125 C 19.570312 -7.796875 18.269531 -4.8125 15.53125 -2.875 C 12.789062 -0.9375 8.84375 0.132812 3.6875 0.34375 Z M 1.375 -19.640625 "/></g></g><g style="fill:#112c59;fill-opacity:1;"><g transform="translate(106.724366, 98.767615)"><path style="stroke:none" d="M 20.734375 -9.796875 C 20.734375 -6.609375 19.992188 -4.101562 18.515625 -2.28125 C 17.035156 -0.457031 14.957031 0.453125 12.28125 0.453125 C 11.3125 0.453125 10.253906 0.3125 9.109375 0.03125 L 9.5625 -3.6875 C 10.40625 -3.5 11.113281 -3.40625 11.6875 -3.40625 C 13.25 -3.40625 14.363281 -3.925781 15.03125 -4.96875 C 15.695312 -6.007812 16.03125 -7.550781 16.03125 -9.59375 C 16.03125 -11.863281 15.710938 -13.507812 15.078125 -14.53125 C 14.453125 -15.550781 13.484375 -16.0625 12.171875 -16.0625 C 11.253906 -16.0625 10.476562 -15.785156 9.84375 -15.234375 C 9.21875 -14.679688 8.828125 -13.9375 8.671875 -13 L 6.53125 0 L 1.578125 0 L 3.953125 -13.234375 L 1.203125 -19.640625 L 6.359375 -19.640625 L 7.734375 -15.71875 C 8.210938 -17.132812 8.929688 -18.191406 9.890625 -18.890625 C 10.859375 -19.597656 11.960938 -19.953125 13.203125 -19.953125 C 15.660156 -19.953125 17.53125 -19.109375 18.8125 -17.421875 C 20.09375 -15.734375 20.734375 -13.191406 20.734375 -9.796875 Z M 20.734375 -9.796875 "/></g></g><g style="fill:#112c59;fill-opacity:1;"><g transform="translate(128.806667, 98.767615)"><path style="stroke:none" d="M 16.03125 -19.640625 L 16.03125 -15.546875 L 9.828125 0 L 4.890625 0 L 11.046875 -15.921875 L 1.0625 -15.921875 L 1.0625 -24.65625 L 5.53125 -24.65625 L 5.53125 -19.640625 Z M 16.03125 -19.640625 "/></g></g><g style="fill:#112c59;fill-opacity:1;"><g transform="translate(145.935929, 98.767615)"><path style="stroke:none" d="M 2.09375 -15.609375 L 1.6875 -19.640625 L 6.640625 -19.640625 L 7.046875 -15.609375 L 7.046875 0 L 2.09375 0 Z M 2.09375 -15.609375 "/></g></g><g style="fill:#112c59;fill-opacity:1;"><g transform="translate(154.844525, 98.767615)"><path style="stroke:none" d=""/></g></g><g style="fill:#112c59;fill-opacity:1;"><g transform="translate(161.723752, 98.767615)"><path style="stroke:none" d="M 13.140625 -13.40625 C 13.140625 -15.082031 12.367188 -15.921875 10.828125 -15.921875 L 1.859375 -15.921875 L 1.859375 -19.640625 L 12.171875 -19.640625 C 14.003906 -19.640625 15.453125 -19.113281 16.515625 -18.0625 C 17.585938 -17.019531 18.125 -15.390625 18.125 -13.171875 L 18.125 0 L 13.140625 0 Z M 1.65625 -9.390625 L 2.34375 -11.6875 L 6.640625 -11.6875 L 6.640625 0 L 1.65625 0 Z M 1.65625 -9.390625 "/></g></g><g style="fill:#112c59;fill-opacity:1;"><g transform="translate(181.43272, 98.767615)"><path style="stroke:none" d="M 12.765625 -19.640625 C 14.597656 -19.640625 16.046875 -19.085938 17.109375 -17.984375 C 18.171875 -16.878906 18.703125 -15.21875 18.703125 -13 L 18.703125 0 L 13.71875 0 L 13.71875 -13.234375 C 13.71875 -15.023438 12.953125 -15.921875 11.421875 -15.921875 L 6.8125 -15.921875 L 6.8125 0 L 1.859375 0 L 1.859375 -19.640625 Z M 12.765625 -19.640625 "/></g></g><g style="fill:#112c59;fill-opacity:1;"><g transform="translate(201.898409, 98.767615)"><path style="stroke:none" d="M 1.828125 -3.71875 L 8.765625 -3.71875 C 10.097656 -3.71875 11.132812 -4.144531 11.875 -5 C 12.625 -5.863281 13 -7.050781 13 -8.5625 L 13 -11.109375 C 13 -12.554688 12.671875 -13.71875 12.015625 -14.59375 C 11.367188 -15.476562 10.410156 -15.921875 9.140625 -15.921875 L 6.671875 -15.921875 L 6.046875 -13 C 5.984375 -12.695312 5.953125 -12.410156 5.953125 -12.140625 C 5.953125 -11.566406 6.125 -11.125 6.46875 -10.8125 C 6.8125 -10.507812 7.375 -10.273438 8.15625 -10.109375 L 7.359375 -7.015625 C 5.316406 -7.054688 3.835938 -7.515625 2.921875 -8.390625 C 2.003906 -9.265625 1.546875 -10.445312 1.546875 -11.9375 C 1.546875 -12.488281 1.59375 -12.992188 1.6875 -13.453125 L 3.0625 -19.640625 L 10.3125 -19.640625 C 12.695312 -19.640625 14.566406 -18.847656 15.921875 -17.265625 C 17.273438 -15.679688 17.953125 -13.550781 17.953125 -10.875 L 17.953125 -8.796875 C 17.953125 -6.046875 17.226562 -3.890625 15.78125 -2.328125 C 14.34375 -0.773438 12.394531 0 9.9375 0 L 1.828125 0 Z M 1.828125 -3.71875 "/></g></g><g style="fill:#112c59;fill-opacity:1;"><g transform="translate(221.057039, 98.767615)"><path style="stroke:none" d="M 22.015625 -13.890625 C 22.054688 -9.191406 20.6875 -5.644531 17.90625 -3.25 C 15.132812 -0.851562 10.835938 0.34375 5.015625 0.34375 L 3.953125 0.34375 L 1.375 -19.640625 L 6.09375 -19.640625 L 7.078125 -11.140625 C 7.992188 -11.597656 8.613281 -12.285156 8.9375 -13.203125 C 9.257812 -14.117188 9.410156 -15.492188 9.390625 -17.328125 L 9.390625 -19.609375 L 14.09375 -19.609375 L 14.09375 -17.4375 C 14.050781 -14.914062 13.546875 -12.867188 12.578125 -11.296875 C 11.617188 -9.722656 9.925781 -8.523438 7.5 -7.703125 L 7.984375 -3.75 C 11.253906 -3.957031 13.585938 -4.898438 14.984375 -6.578125 C 16.390625 -8.265625 17.082031 -10.613281 17.0625 -13.625 L 16.984375 -19.640625 L 21.96875 -19.640625 Z M 22.015625 -13.890625 "/></g></g><g style="fill:#112c59;fill-opacity:1;"><g transform="translate(244.377586, 98.767615)"><path style="stroke:none" d="M 20.734375 -9.796875 C 20.734375 -6.609375 19.992188 -4.101562 18.515625 -2.28125 C 17.035156 -0.457031 14.957031 0.453125 12.28125 0.453125 C 11.3125 0.453125 10.253906 0.3125 9.109375 0.03125 L 9.5625 -3.6875 C 10.40625 -3.5 11.113281 -3.40625 11.6875 -3.40625 C 13.25 -3.40625 14.363281 -3.925781 15.03125 -4.96875 C 15.695312 -6.007812 16.03125 -7.550781 16.03125 -9.59375 C 16.03125 -11.863281 15.710938 -13.507812 15.078125 -14.53125 C 14.453125 -15.550781 13.484375 -16.0625 12.171875 -16.0625 C 11.253906 -16.0625 10.476562 -15.785156 9.84375 -15.234375 C 9.21875 -14.679688 8.828125 -13.9375 8.671875 -13 L 6.53125 0 L 1.578125 0 L 3.953125 -13.234375 L 1.203125 -19.640625 L 6.359375 -19.640625 L 7.734375 -15.71875 C 8.210938 -17.132812 8.929688 -18.191406 9.890625 -18.890625 C 10.859375 -19.597656 11.960938 -19.953125 13.203125 -19.953125 C 15.660156 -19.953125 17.53125 -19.109375 18.8125 -17.421875 C 20.09375 -15.734375 20.734375 -13.191406 20.734375 -9.796875 Z M 20.734375 -9.796875 "/></g></g></g></svg>