<svg xmlns="http://www.w3.org/2000/svg" xmlns:xlink="http://www.w3.org/1999/xlink" width="293" zoomAndPan="magnify" viewBox="0 0 219.75 219.75" height="293" preserveAspectRatio="xMidYMid meet" version="1.2"><defs><clipPath id="906b376335"><path d="M 0 0 L 219.089844 0 L 219.089844 219.089844 L 0 219.089844 Z M 0 0 "/></clipPath><clipPath id="96fa872129"><path d="M 109.546875 0 C 49.046875 0 0 49.046875 0 109.546875 C 0 170.046875 49.046875 219.089844 109.546875 219.089844 C 170.046875 219.089844 219.089844 170.046875 219.089844 109.546875 C 219.089844 49.046875 170.046875 0 109.546875 0 Z M 109.546875 0 "/></clipPath><clipPath id="a67b204229"><path d="M 0 0 L 219.089844 0 L 219.089844 219.089844 L 0 219.089844 Z M 0 0 "/></clipPath><clipPath id="cc7a539138"><path d="M 109.546875 0 C 49.046875 0 0 49.046875 0 109.546875 C 0 170.046875 49.046875 219.089844 109.546875 219.089844 C 170.046875 219.089844 219.089844 170.046875 219.089844 109.546875 C 219.089844 49.046875 170.046875 0 109.546875 0 Z M 109.546875 0 "/></clipPath><clipPath id="cc453f3aff"><rect x="0" width="220" y="0" height="220"/></clipPath><clipPath id="d71aa9282d"><rect x="0" width="123" y="0" height="122"/></clipPath></defs><g id="02da1d57f7"><g clip-rule="nonzero" clip-path="url(#906b376335)"><g clip-rule="nonzero" clip-path="url(#96fa872129)"><g transform="matrix(1,0,0,1,0,0.000000000000007073)"><g clip-path="url(#cc453f3aff)"><g clip-rule="nonzero" clip-path="url(#a67b204229)"><g clip-rule="nonzero" clip-path="url(#cc7a539138)"><path style=" stroke:none;fill-rule:nonzero;fill:#176598;fill-opacity:1;" d="M 0 0 L 219.089844 0 L 219.089844 219.089844 L 0 219.089844 Z M 0 0 "/></g></g></g></g></g></g><g transform="matrix(1,0,0,1,48,35)"><g clip-path="url(#d71aa9282d)"><g style="fill:#ffffff;fill-opacity:1;"><g transform="translate(38.401979, 35.162211)"><path style="stroke:none" d="M 10.46875 -13 C 10.46875 -14.625 9.710938 -15.4375 8.203125 -15.4375 L 1.296875 -15.4375 L 1.296875 -19.046875 L 9.53125 -19.046875 C 11.3125 -19.046875 12.710938 -18.535156 13.734375 -17.515625 C 14.753906 -16.503906 15.265625 -14.921875 15.265625 -12.765625 L 15.265625 6.671875 L 10.46875 6.671875 Z M 10.46875 -13 "/></g></g><g style="fill:#ffffff;fill-opacity:1;"><g transform="translate(55.473832, 35.162211)"><path style="stroke:none" d="M 2.03125 -15.140625 L 1.640625 -19.046875 L 6.4375 -19.046875 L 6.828125 -15.140625 L 6.828125 -9.9375 L 6.796875 -7.828125 L 2.03125 -7 Z M 2.03125 -15.140625 "/></g></g><g style="fill:#ffffff;fill-opacity:1;"><g transform="translate(64.109787, 35.162211)"><path style="stroke:none" d="M 14.5 0 L 8.234375 -9.703125 L 5.265625 0 L 0.703125 0 L 4.40625 -11.4375 L 5.4375 -14 L 2.328125 -19.046875 L 7.171875 -19.046875 L 9.84375 -14.703125 L 12.234375 -11.0625 L 13.140625 -14.109375 L 14.46875 -19.046875 L 19.046875 -19.046875 L 15.03125 -6.90625 L 19.640625 0 Z M 14.5 0 "/></g></g><g style="fill:#ffffff;fill-opacity:1;"><g transform="translate(3.521366, 73.278174)"><path style="stroke:none" d="M 12.296875 -19.046875 C 14.078125 -19.046875 15.484375 -18.535156 16.515625 -17.515625 C 17.554688 -16.503906 18.078125 -14.921875 18.078125 -12.765625 L 18.078125 0 L 1.765625 0 L 1.765625 -19.046875 Z M 13.234375 -3.59375 L 13.234375 -13 C 13.234375 -14.625 12.488281 -15.4375 11 -15.4375 L 6.5625 -15.4375 L 6.5625 -3.59375 Z M 13.234375 -3.59375 "/></g></g><g style="fill:#ffffff;fill-opacity:1;"><g transform="translate(23.260696, 73.278174)"><path style="stroke:none" d="M 2.03125 -15.140625 L 1.640625 -19.046875 L 6.4375 -19.046875 L 6.828125 -15.140625 L 6.828125 -9.9375 L 6.796875 -7.828125 L 2.03125 -7 Z M 2.03125 -15.140625 "/></g></g><g style="fill:#ffffff;fill-opacity:1;"><g transform="translate(31.896651, 73.278174)"><path style="stroke:none" d="M 15.53125 -19.046875 L 15.53125 -15.078125 L 9.53125 0 L 4.734375 0 L 10.703125 -15.4375 L 1.03125 -15.4375 L 1.03125 -23.90625 L 5.375 -23.90625 L 5.375 -19.046875 Z M 15.53125 -19.046875 "/></g></g><g style="fill:#ffffff;fill-opacity:1;"><g transform="translate(48.501696, 73.278174)"><path style="stroke:none" d="M 2.03125 -15.140625 L 1.640625 -19.046875 L 6.4375 -19.046875 L 6.828125 -15.140625 L 6.828125 -9.9375 L 6.796875 -7.828125 L 2.03125 -7 Z M 2.03125 -15.140625 "/></g></g><g style="fill:#ffffff;fill-opacity:1;"><g transform="translate(57.13765, 73.278174)"><path style="stroke:none" d="M 12.375 -19.046875 C 14.144531 -19.046875 15.546875 -18.507812 16.578125 -17.4375 C 17.617188 -16.375 18.140625 -14.765625 18.140625 -12.609375 L 18.140625 0 L 13.296875 0 L 13.296875 -12.84375 C 13.296875 -14.570312 12.550781 -15.4375 11.0625 -15.4375 L 6.609375 -15.4375 L 6.609375 0 L 1.796875 0 L 1.796875 -19.046875 Z M 12.375 -19.046875 "/></g></g><g style="fill:#ffffff;fill-opacity:1;"><g transform="translate(76.977008, 73.278174)"><path style="stroke:none" d="M 0.59375 -2.703125 C 1.445312 -2.785156 2.082031 -2.945312 2.5 -3.1875 C 2.925781 -3.4375 3.210938 -3.78125 3.359375 -4.21875 C 3.515625 -4.65625 3.582031 -5.269531 3.5625 -6.0625 L 3.5625 -19.046875 L 13.671875 -19.046875 C 15.453125 -19.046875 16.851562 -18.535156 17.875 -17.515625 C 18.894531 -16.503906 19.40625 -14.921875 19.40625 -12.765625 L 19.40625 0 L 14.609375 0 L 14.609375 -13 C 14.609375 -14.625 13.851562 -15.4375 12.34375 -15.4375 L 8.40625 -15.4375 L 8.40625 -6.703125 C 8.40625 -5.015625 8.140625 -3.671875 7.609375 -2.671875 C 7.085938 -1.671875 6.300781 -0.921875 5.25 -0.421875 C 4.195312 0.078125 2.78125 0.40625 1 0.5625 Z M 0.59375 -2.703125 "/></g></g><g style="fill:#ffffff;fill-opacity:1;"><g transform="translate(98.150109, 73.278174)"><path style="stroke:none" d="M 20.109375 -9.5 C 20.109375 -6.414062 19.390625 -3.988281 17.953125 -2.21875 C 16.523438 -0.445312 14.507812 0.4375 11.90625 0.4375 C 10.96875 0.4375 9.945312 0.300781 8.84375 0.03125 L 9.265625 -3.5625 C 10.085938 -3.382812 10.78125 -3.296875 11.34375 -3.296875 C 12.851562 -3.296875 13.925781 -3.800781 14.5625 -4.8125 C 15.207031 -5.820312 15.53125 -7.316406 15.53125 -9.296875 C 15.53125 -11.503906 15.222656 -13.101562 14.609375 -14.09375 C 14.003906 -15.082031 13.066406 -15.578125 11.796875 -15.578125 C 10.910156 -15.578125 10.160156 -15.304688 9.546875 -14.765625 C 8.941406 -14.234375 8.5625 -13.515625 8.40625 -12.609375 L 6.328125 0 L 1.53125 0 L 3.828125 -12.84375 L 1.171875 -19.046875 L 6.171875 -19.046875 L 7.5 -15.234375 C 7.96875 -16.617188 8.664062 -17.648438 9.59375 -18.328125 C 10.53125 -19.003906 11.597656 -19.34375 12.796875 -19.34375 C 15.179688 -19.34375 16.992188 -18.523438 18.234375 -16.890625 C 19.484375 -15.253906 20.109375 -12.789062 20.109375 -9.5 Z M 20.109375 -9.5 "/></g></g><g style="fill:#ffffff;fill-opacity:1;"><g transform="translate(1.042541, 111.394138)"><path style="stroke:none" d="M 5.171875 -7.53125 C 5.128906 -7.9375 5.109375 -8.226562 5.109375 -8.40625 C 5.109375 -9.40625 5.328125 -10.285156 5.765625 -11.046875 C 6.210938 -11.816406 6.847656 -12.671875 7.671875 -13.609375 C 8.296875 -14.316406 8.742188 -14.894531 9.015625 -15.34375 C 9.296875 -15.800781 9.4375 -16.273438 9.4375 -16.765625 C 9.4375 -17.484375 9.21875 -18.046875 8.78125 -18.453125 C 8.351562 -18.867188 7.769531 -19.078125 7.03125 -19.078125 C 6.4375 -19.078125 5.890625 -18.9375 5.390625 -18.65625 C 4.890625 -18.375 4.382812 -17.976562 3.875 -17.46875 L 1.359375 -19.765625 C 2.160156 -20.679688 3.09375 -21.40625 4.15625 -21.9375 C 5.226562 -22.46875 6.378906 -22.734375 7.609375 -22.734375 C 9.472656 -22.734375 10.96875 -22.253906 12.09375 -21.296875 C 13.226562 -20.347656 13.796875 -18.953125 13.796875 -17.109375 C 13.796875 -16.210938 13.597656 -15.425781 13.203125 -14.75 C 12.804688 -14.070312 12.207031 -13.28125 11.40625 -12.375 C 10.644531 -11.53125 10.078125 -10.796875 9.703125 -10.171875 C 9.328125 -9.546875 9.140625 -8.832031 9.140625 -8.03125 C 9.140625 -7.8125 9.148438 -7.644531 9.171875 -7.53125 Z M 7.171875 0.40625 C 6.367188 0.40625 5.703125 0.128906 5.171875 -0.421875 C 4.640625 -0.984375 4.375 -1.6875 4.375 -2.53125 C 4.375 -3.375 4.640625 -4.070312 5.171875 -4.625 C 5.703125 -5.1875 6.367188 -5.46875 7.171875 -5.46875 C 7.972656 -5.46875 8.640625 -5.1875 9.171875 -4.625 C 9.703125 -4.070312 9.96875 -3.375 9.96875 -2.53125 C 9.96875 -1.6875 9.703125 -0.984375 9.171875 -0.421875 C 8.640625 0.128906 7.972656 0.40625 7.171875 0.40625 Z M 7.171875 0.40625 "/></g></g><g style="fill:#ffffff;fill-opacity:1;"><g transform="translate(16.280504, 111.394138)"><path style="stroke:none" d="M 17.109375 -3.59375 L 17.109375 0 L 1.265625 0 L 1.265625 -3.59375 L 10.0625 -3.59375 L 10.0625 -13 C 10.0625 -14.625 9.304688 -15.4375 7.796875 -15.4375 L 1.265625 -15.4375 L 1.265625 -19.046875 L 9.140625 -19.046875 C 10.910156 -19.046875 12.304688 -18.535156 13.328125 -17.515625 C 14.359375 -16.503906 14.875 -14.921875 14.875 -12.765625 L 14.875 -3.59375 Z M 17.109375 -3.59375 "/></g></g><g style="fill:#ffffff;fill-opacity:1;"><g transform="translate(34.386008, 111.394138)"><path style="stroke:none" d="M 8.765625 -11.53125 C 8.765625 -12.375 8.847656 -13.132812 9.015625 -13.8125 C 9.179688 -14.5 9.410156 -15.039062 9.703125 -15.4375 L 1.171875 -15.4375 L 1.171875 -19.046875 L 16.8125 -19.046875 L 16.8125 -15.4375 L 14.203125 -15.4375 C 13.785156 -14.476562 13.578125 -13.175781 13.578125 -11.53125 L 13.578125 0 L 8.765625 0 Z M 8.765625 -11.53125 "/></g></g><g style="fill:#ffffff;fill-opacity:1;"><g transform="translate(52.458164, 111.394138)"><path style="stroke:none" d="M 1.296875 -3.59375 L 6.171875 -3.59375 L 6.171875 -13.234375 C 6.171875 -14.035156 6.019531 -14.601562 5.71875 -14.9375 C 5.414062 -15.269531 4.953125 -15.484375 4.328125 -15.578125 L 2 -15.90625 L 2.59375 -19.4375 L 6.765625 -18.90625 C 8.117188 -18.726562 9.15625 -18.148438 9.875 -17.171875 C 10.601562 -16.191406 10.96875 -14.925781 10.96875 -13.375 L 10.96875 0 L 1.296875 0 Z M 1.296875 -3.59375 "/></g></g><g style="fill:#ffffff;fill-opacity:1;"><g transform="translate(65.162026, 111.394138)"><path style="stroke:none" d="M 0.59375 -2.703125 C 1.445312 -2.785156 2.082031 -2.945312 2.5 -3.1875 C 2.925781 -3.4375 3.210938 -3.78125 3.359375 -4.21875 C 3.515625 -4.65625 3.582031 -5.269531 3.5625 -6.0625 L 3.5625 -19.046875 L 13.671875 -19.046875 C 15.453125 -19.046875 16.851562 -18.535156 17.875 -17.515625 C 18.894531 -16.503906 19.40625 -14.921875 19.40625 -12.765625 L 19.40625 0 L 14.609375 0 L 14.609375 -13 C 14.609375 -14.625 13.851562 -15.4375 12.34375 -15.4375 L 8.40625 -15.4375 L 8.40625 -6.703125 C 8.40625 -5.015625 8.140625 -3.671875 7.609375 -2.671875 C 7.085938 -1.671875 6.300781 -0.921875 5.25 -0.421875 C 4.195312 0.078125 2.78125 0.40625 1 0.5625 Z M 0.59375 -2.703125 "/></g></g><g style="fill:#ffffff;fill-opacity:1;"><g transform="translate(86.335126, 111.394138)"><path style="stroke:none" d="M 12.734375 -13 C 12.734375 -14.625 11.988281 -15.4375 10.5 -15.4375 L 1.796875 -15.4375 L 1.796875 -19.046875 L 11.796875 -19.046875 C 13.578125 -19.046875 14.984375 -18.535156 16.015625 -17.515625 C 17.054688 -16.503906 17.578125 -14.921875 17.578125 -12.765625 L 17.578125 0 L 12.734375 0 Z M 1.59375 -9.109375 L 2.265625 -11.34375 L 6.4375 -11.34375 L 6.4375 0 L 1.59375 0 Z M 1.59375 -9.109375 "/></g></g><g style="fill:#ffffff;fill-opacity:1;"><g transform="translate(105.440933, 111.394138)"><path style="stroke:none" d="M 15.53125 -19.046875 L 15.53125 -15.078125 L 9.53125 0 L 4.734375 0 L 10.703125 -15.4375 L 1.03125 -15.4375 L 1.03125 -23.90625 L 5.375 -23.90625 L 5.375 -19.046875 Z M 15.53125 -19.046875 "/></g></g></g></g></g></svg>