<svg xmlns="http://www.w3.org/2000/svg" xmlns:xlink="http://www.w3.org/1999/xlink" width="293" zoomAndPan="magnify" viewBox="0 0 219.75 219.75" height="293" preserveAspectRatio="xMidYMid meet" version="1.2"><defs><clipPath id="fdfaf5c449"><path d="M 0 0 L 219.089844 0 L 219.089844 219.089844 L 0 219.089844 Z M 0 0 "/></clipPath><clipPath id="89ed45f174"><path d="M 109.546875 0 C 49.046875 0 0 49.046875 0 109.546875 C 0 170.046875 49.046875 219.089844 109.546875 219.089844 C 170.046875 219.089844 219.089844 170.046875 219.089844 109.546875 C 219.089844 49.046875 170.046875 0 109.546875 0 Z M 109.546875 0 "/></clipPath><clipPath id="4dcd8d416f"><path d="M 0 0 L 219.089844 0 L 219.089844 219.089844 L 0 219.089844 Z M 0 0 "/></clipPath><clipPath id="6b69aff534"><path d="M 109.546875 0 C 49.046875 0 0 49.046875 0 109.546875 C 0 170.046875 49.046875 219.089844 109.546875 219.089844 C 170.046875 219.089844 219.089844 170.046875 219.089844 109.546875 C 219.089844 49.046875 170.046875 0 109.546875 0 Z M 109.546875 0 "/></clipPath><clipPath id="c5d240a480"><rect x="0" width="220" y="0" height="220"/></clipPath><clipPath id="bfbb46284f"><rect x="0" width="127" y="0" height="83"/></clipPath></defs><g id="01f90d85f3"><g clip-rule="nonzero" clip-path="url(#fdfaf5c449)"><g clip-rule="nonzero" clip-path="url(#89ed45f174)"><g transform="matrix(1,0,0,1,0,0.000000000000007073)"><g clip-path="url(#c5d240a480)"><g clip-rule="nonzero" clip-path="url(#4dcd8d416f)"><g clip-rule="nonzero" clip-path="url(#6b69aff534)"><path style=" stroke:none;fill-rule:nonzero;fill:#176598;fill-opacity:1;" d="M 0 0 L 219.089844 0 L 219.089844 219.089844 L 0 219.089844 Z M 0 0 "/></g></g></g></g></g></g><g transform="matrix(1,0,0,1,46,57)"><g clip-path="url(#bfbb46284f)"><g style="fill:#ffffff;fill-opacity:1;"><g transform="translate(4.054866, 34.738341)"><path style="stroke:none" d="M 0.59375 -2.703125 C 1.445312 -2.785156 2.082031 -2.945312 2.5 -3.1875 C 2.925781 -3.4375 3.210938 -3.78125 3.359375 -4.21875 C 3.515625 -4.65625 3.582031 -5.269531 3.5625 -6.0625 L 3.5625 -19.046875 L 13.671875 -19.046875 C 15.453125 -19.046875 16.851562 -18.535156 17.875 -17.515625 C 18.894531 -16.503906 19.40625 -14.921875 19.40625 -12.765625 L 19.40625 0 L 14.609375 0 L 14.609375 -13 C 14.609375 -14.625 13.851562 -15.4375 12.34375 -15.4375 L 8.40625 -15.4375 L 8.40625 -6.703125 C 8.40625 -5.015625 8.140625 -3.671875 7.609375 -2.671875 C 7.085938 -1.671875 6.300781 -0.921875 5.25 -0.421875 C 4.195312 0.078125 2.78125 0.40625 1 0.5625 Z M 0.59375 -2.703125 "/></g></g><g style="fill:#ffffff;fill-opacity:1;"><g transform="translate(25.227967, 34.738341)"><path style="stroke:none" d="M 2.03125 -15.140625 L 1.640625 -19.046875 L 6.4375 -19.046875 L 6.828125 -15.140625 L 6.828125 0 L 2.03125 0 Z M 2.03125 -15.140625 "/></g></g><g style="fill:#ffffff;fill-opacity:1;"><g transform="translate(33.863921, 34.738341)"><path style="stroke:none" d="M 17.109375 -3.59375 L 17.109375 0 L 1.265625 0 L 1.265625 -3.59375 L 10.0625 -3.59375 L 10.0625 -13 C 10.0625 -14.625 9.304688 -15.4375 7.796875 -15.4375 L 1.265625 -15.4375 L 1.265625 -19.046875 L 9.140625 -19.046875 C 10.910156 -19.046875 12.304688 -18.535156 13.328125 -17.515625 C 14.359375 -16.503906 14.875 -14.921875 14.875 -12.765625 L 14.875 -3.59375 Z M 17.109375 -3.59375 "/></g></g><g style="fill:#ffffff;fill-opacity:1;"><g transform="translate(51.969425, 34.738341)"><path style="stroke:none" d="M 8.765625 -11.53125 C 8.765625 -12.375 8.847656 -13.132812 9.015625 -13.8125 C 9.179688 -14.5 9.410156 -15.039062 9.703125 -15.4375 L 1.171875 -15.4375 L 1.171875 -19.046875 L 16.8125 -19.046875 L 16.8125 -15.4375 L 14.203125 -15.4375 C 13.785156 -14.476562 13.578125 -13.175781 13.578125 -11.53125 L 13.578125 0 L 8.765625 0 Z M 8.765625 -11.53125 "/></g></g><g style="fill:#ffffff;fill-opacity:1;"><g transform="translate(70.041581, 34.738341)"><path style="stroke:none" d="M 1.296875 -3.59375 L 6.171875 -3.59375 L 6.171875 -13.234375 C 6.171875 -14.035156 6.019531 -14.601562 5.71875 -14.9375 C 5.414062 -15.269531 4.953125 -15.484375 4.328125 -15.578125 L 2 -15.90625 L 2.59375 -19.4375 L 6.765625 -18.90625 C 8.117188 -18.726562 9.15625 -18.148438 9.875 -17.171875 C 10.601562 -16.191406 10.96875 -14.925781 10.96875 -13.375 L 10.96875 0 L 1.296875 0 Z M 1.296875 -3.59375 "/></g></g><g style="fill:#ffffff;fill-opacity:1;"><g transform="translate(82.745443, 34.738341)"><path style="stroke:none" d="M 0.59375 -2.703125 C 1.445312 -2.785156 2.082031 -2.945312 2.5 -3.1875 C 2.925781 -3.4375 3.210938 -3.78125 3.359375 -4.21875 C 3.515625 -4.65625 3.582031 -5.269531 3.5625 -6.0625 L 3.5625 -19.046875 L 13.671875 -19.046875 C 15.453125 -19.046875 16.851562 -18.535156 17.875 -17.515625 C 18.894531 -16.503906 19.40625 -14.921875 19.40625 -12.765625 L 19.40625 0 L 14.609375 0 L 14.609375 -13 C 14.609375 -14.625 13.851562 -15.4375 12.34375 -15.4375 L 8.40625 -15.4375 L 8.40625 -6.703125 C 8.40625 -5.015625 8.140625 -3.671875 7.609375 -2.671875 C 7.085938 -1.671875 6.300781 -0.921875 5.25 -0.421875 C 4.195312 0.078125 2.78125 0.40625 1 0.5625 Z M 0.59375 -2.703125 "/></g></g><g style="fill:#ffffff;fill-opacity:1;"><g transform="translate(103.918544, 34.738341)"><path style="stroke:none" d="M 12.734375 -13 C 12.734375 -14.625 11.988281 -15.4375 10.5 -15.4375 L 1.796875 -15.4375 L 1.796875 -19.046875 L 11.796875 -19.046875 C 13.578125 -19.046875 14.984375 -18.535156 16.015625 -17.515625 C 17.054688 -16.503906 17.578125 -14.921875 17.578125 -12.765625 L 17.578125 0 L 12.734375 0 Z M 1.59375 -9.109375 L 2.265625 -11.34375 L 6.4375 -11.34375 L 6.4375 0 L 1.59375 0 Z M 1.59375 -9.109375 "/></g></g><g style="fill:#ffffff;fill-opacity:1;"><g transform="translate(1.238019, 72.854305)"><path style="stroke:none" d="M 0.59375 -2.703125 C 1.445312 -2.785156 2.082031 -2.945312 2.5 -3.1875 C 2.925781 -3.4375 3.210938 -3.78125 3.359375 -4.21875 C 3.515625 -4.65625 3.582031 -5.269531 3.5625 -6.0625 L 3.5625 -19.046875 L 13.671875 -19.046875 C 15.453125 -19.046875 16.851562 -18.535156 17.875 -17.515625 C 18.894531 -16.503906 19.40625 -14.921875 19.40625 -12.765625 L 19.40625 0 L 14.609375 0 L 14.609375 -13 C 14.609375 -14.625 13.851562 -15.4375 12.34375 -15.4375 L 8.40625 -15.4375 L 8.40625 -6.703125 C 8.40625 -5.015625 8.140625 -3.671875 7.609375 -2.671875 C 7.085938 -1.671875 6.300781 -0.921875 5.25 -0.421875 C 4.195312 0.078125 2.78125 0.40625 1 0.5625 Z M 0.59375 -2.703125 "/></g></g><g style="fill:#ffffff;fill-opacity:1;"><g transform="translate(22.41112, 72.854305)"><path style="stroke:none" d="M 2.03125 -15.140625 L 1.640625 -19.046875 L 6.4375 -19.046875 L 6.828125 -15.140625 L 6.828125 0 L 2.03125 0 Z M 2.03125 -15.140625 "/></g></g><g style="fill:#ffffff;fill-opacity:1;"><g transform="translate(31.047074, 72.854305)"><path style="stroke:none" d="M 14.5 0 L 8.234375 -9.703125 L 5.265625 0 L 0.703125 0 L 4.40625 -11.4375 L 5.4375 -14 L 2.328125 -19.046875 L 7.171875 -19.046875 L 9.84375 -14.703125 L 12.234375 -11.0625 L 13.140625 -14.109375 L 14.46875 -19.046875 L 19.046875 -19.046875 L 15.03125 -6.90625 L 19.640625 0 Z M 14.5 0 "/></g></g><g style="fill:#ffffff;fill-opacity:1;"><g transform="translate(51.619991, 72.854305)"><path style="stroke:none" d="M 15.53125 -19.046875 L 15.53125 -15.078125 L 9.53125 0 L 4.734375 0 L 10.703125 -15.4375 L 1.03125 -15.4375 L 1.03125 -23.90625 L 5.375 -23.90625 L 5.375 -19.046875 Z M 15.53125 -19.046875 "/></g></g><g style="fill:#ffffff;fill-opacity:1;"><g transform="translate(68.225037, 72.854305)"><path style="stroke:none" d="M 8.171875 -3.5625 C 9.679688 -3.695312 10.800781 -4.207031 11.53125 -5.09375 C 12.269531 -5.988281 12.71875 -7.503906 12.875 -9.640625 L 13.296875 -15.4375 L 1.703125 -15.4375 L 1.703125 -19.046875 L 18.46875 -19.046875 L 18.3125 -15.9375 L 17.9375 -10.90625 C 17.582031 -3.675781 14.445312 -0.03125 8.53125 0.03125 Z M 1.4375 -9.296875 L 2.09375 -11.609375 L 6.265625 -11.609375 L 6.265625 6.671875 L 1.4375 6.671875 Z M 1.4375 -9.296875 "/></g></g><g style="fill:#ffffff;fill-opacity:1;"><g transform="translate(87.897679, 72.854305)"><path style="stroke:none" d="M 12.375 -19.046875 C 14.144531 -19.046875 15.546875 -18.507812 16.578125 -17.4375 C 17.617188 -16.375 18.140625 -14.765625 18.140625 -12.609375 L 18.140625 0 L 13.296875 0 L 13.296875 -12.84375 C 13.296875 -14.570312 12.550781 -15.4375 11.0625 -15.4375 L 6.609375 -15.4375 L 6.609375 0 L 1.796875 0 L 1.796875 -19.046875 Z M 12.375 -19.046875 "/></g></g><g style="fill:#ffffff;fill-opacity:1;"><g transform="translate(107.737037, 72.854305)"><path style="stroke:none" d="M 17.109375 -3.59375 L 17.109375 0 L 1.265625 0 L 1.265625 -3.59375 L 10.0625 -3.59375 L 10.0625 -13 C 10.0625 -14.625 9.304688 -15.4375 7.796875 -15.4375 L 1.265625 -15.4375 L 1.265625 -19.046875 L 9.140625 -19.046875 C 10.910156 -19.046875 12.304688 -18.535156 13.328125 -17.515625 C 14.359375 -16.503906 14.875 -14.921875 14.875 -12.765625 L 14.875 -3.59375 Z M 17.109375 -3.59375 "/></g></g></g></g></g></svg>