<svg xmlns="http://www.w3.org/2000/svg" xmlns:xlink="http://www.w3.org/1999/xlink" width="293" zoomAndPan="magnify" viewBox="0 0 219.75 219.75" height="293" preserveAspectRatio="xMidYMid meet" version="1.2"><defs><clipPath id="cc2e2cd08b"><path d="M 0 0 L 219.089844 0 L 219.089844 219.089844 L 0 219.089844 Z M 0 0 "/></clipPath><clipPath id="8f199c03ec"><path d="M 109.546875 0 C 49.046875 0 0 49.046875 0 109.546875 C 0 170.046875 49.046875 219.089844 109.546875 219.089844 C 170.046875 219.089844 219.089844 170.046875 219.089844 109.546875 C 219.089844 49.046875 170.046875 0 109.546875 0 Z M 109.546875 0 "/></clipPath><clipPath id="c906383f8c"><path d="M 0 0 L 219.089844 0 L 219.089844 219.089844 L 0 219.089844 Z M 0 0 "/></clipPath><clipPath id="bca67adf58"><path d="M 109.546875 0 C 49.046875 0 0 49.046875 0 109.546875 C 0 170.046875 49.046875 219.089844 109.546875 219.089844 C 170.046875 219.089844 219.089844 170.046875 219.089844 109.546875 C 219.089844 49.046875 170.046875 0 109.546875 0 Z M 109.546875 0 "/></clipPath><clipPath id="3410952338"><rect x="0" width="220" y="0" height="220"/></clipPath><clipPath id="6a952f6a8b"><rect x="0" width="111" y="0" height="159"/></clipPath></defs><g id="8efc8bad8a"><g clip-rule="nonzero" clip-path="url(#cc2e2cd08b)"><g clip-rule="nonzero" clip-path="url(#8f199c03ec)"><g transform="matrix(1,0,0,1,0,0.000000000000007073)"><g clip-path="url(#3410952338)"><g clip-rule="nonzero" clip-path="url(#c906383f8c)"><g clip-rule="nonzero" clip-path="url(#bca67adf58)"><path style=" stroke:none;fill-rule:nonzero;fill:#176598;fill-opacity:1;" d="M 0 0 L 219.089844 0 L 219.089844 219.089844 L 0 219.089844 Z M 0 0 "/></g></g></g></g></g></g><g transform="matrix(1,0,0,1,54,30)"><g clip-path="url(#6a952f6a8b)"><g style="fill:#ffffff;fill-opacity:1;"><g transform="translate(18.929403, 34.218295)"><path style="stroke:none" d="M 9.671875 -13 C 9.671875 -14.625 8.925781 -15.4375 7.4375 -15.4375 L 0.9375 -15.4375 L 0.9375 -19.046875 L 8.734375 -19.046875 C 10.515625 -19.046875 11.921875 -18.535156 12.953125 -17.515625 C 13.984375 -16.503906 14.5 -14.921875 14.5 -12.765625 L 14.5 0 L 9.671875 0 Z M 9.671875 -13 "/></g></g><g style="fill:#ffffff;fill-opacity:1;"><g transform="translate(35.201017, 34.218295)"><path style="stroke:none" d="M 2.03125 -15.140625 L 1.640625 -19.046875 L 6.4375 -19.046875 L 6.828125 -15.140625 L 6.828125 0 L 2.03125 0 Z M 2.03125 -15.140625 "/></g></g><g style="fill:#ffffff;fill-opacity:1;"><g transform="translate(43.836971, 34.218295)"><path style="stroke:none" d="M 3.375 -11.53125 C 3.375 -12.375 3.457031 -13.132812 3.625 -13.8125 C 3.789062 -14.5 4.015625 -15.039062 4.296875 -15.4375 L 1.296875 -15.4375 L 1.296875 -19.046875 L 11.203125 -19.046875 L 11.203125 -15.4375 L 8.703125 -15.4375 C 8.460938 -14.945312 8.3125 -14.390625 8.25 -13.765625 C 8.195312 -13.148438 8.171875 -12.40625 8.171875 -11.53125 L 8.171875 0 L 3.375 0 Z M 3.375 -11.53125 "/></g></g><g style="fill:#ffffff;fill-opacity:1;"><g transform="translate(56.340769, 34.218295)"><path style="stroke:none" d="M 17.8125 -19.046875 C 17.78125 -14.617188 17.601562 -11.273438 17.28125 -9.015625 C 16.96875 -6.765625 16.117188 -4.863281 14.734375 -3.3125 C 13.359375 -1.769531 11.132812 -0.695312 8.0625 -0.09375 L 0.9375 1.296875 L 0.265625 -2.46875 L 5.5625 -3.46875 L 1.734375 -19.046875 L 6.53125 -19.046875 L 9.90625 -4.53125 C 10.90625 -5.019531 11.625 -5.765625 12.0625 -6.765625 C 12.507812 -7.765625 12.78125 -8.972656 12.875 -10.390625 C 12.976562 -11.816406 13.03125 -13.976562 13.03125 -16.875 L 13.03125 -19.046875 Z M 17.8125 -19.046875 "/></g></g><g style="fill:#ffffff;fill-opacity:1;"><g transform="translate(75.546604, 34.218295)"><path style="stroke:none" d="M 15.53125 -19.046875 L 15.53125 -15.078125 L 9.53125 0 L 4.734375 0 L 10.703125 -15.4375 L 1.03125 -15.4375 L 1.03125 -23.90625 L 5.375 -23.90625 L 5.375 -19.046875 Z M 15.53125 -19.046875 "/></g></g><g style="fill:#ffffff;fill-opacity:1;"><g transform="translate(6.945731, 72.334258)"><path style="stroke:none" d="M 2.03125 -15.140625 L 1.640625 -19.046875 L 6.4375 -19.046875 L 6.828125 -15.140625 L 6.828125 0 L 2.03125 0 Z M 2.03125 -15.140625 "/></g></g><g style="fill:#ffffff;fill-opacity:1;"><g transform="translate(15.581685, 72.334258)"><path style="stroke:none" d="M 1.296875 -3.59375 L 6.171875 -3.59375 L 6.171875 -13.234375 C 6.171875 -14.035156 6.019531 -14.601562 5.71875 -14.9375 C 5.414062 -15.269531 4.953125 -15.484375 4.328125 -15.578125 L 2 -15.90625 L 2.59375 -19.4375 L 6.765625 -18.90625 C 8.117188 -18.726562 9.15625 -18.148438 9.875 -17.171875 C 10.601562 -16.191406 10.96875 -14.925781 10.96875 -13.375 L 10.96875 0 L 1.296875 0 Z M 1.296875 -3.59375 "/></g></g><g style="fill:#ffffff;fill-opacity:1;"><g transform="translate(28.285548, 72.334258)"><path style="stroke:none" d="M 20.109375 -9.5 C 20.109375 -6.414062 19.390625 -3.988281 17.953125 -2.21875 C 16.523438 -0.445312 14.507812 0.4375 11.90625 0.4375 C 10.96875 0.4375 9.945312 0.300781 8.84375 0.03125 L 9.265625 -3.5625 C 10.085938 -3.382812 10.78125 -3.296875 11.34375 -3.296875 C 12.851562 -3.296875 13.925781 -3.800781 14.5625 -4.8125 C 15.207031 -5.820312 15.53125 -7.316406 15.53125 -9.296875 C 15.53125 -11.503906 15.222656 -13.101562 14.609375 -14.09375 C 14.003906 -15.082031 13.066406 -15.578125 11.796875 -15.578125 C 10.910156 -15.578125 10.160156 -15.304688 9.546875 -14.765625 C 8.941406 -14.234375 8.5625 -13.515625 8.40625 -12.609375 L 6.328125 0 L 1.53125 0 L 3.828125 -12.84375 L 1.171875 -19.046875 L 6.171875 -19.046875 L 7.5 -15.234375 C 7.96875 -16.617188 8.664062 -17.648438 9.59375 -18.328125 C 10.53125 -19.003906 11.597656 -19.34375 12.796875 -19.34375 C 15.179688 -19.34375 16.992188 -18.523438 18.234375 -16.890625 C 19.484375 -15.253906 20.109375 -12.789062 20.109375 -9.5 Z M 20.109375 -9.5 "/></g></g><g style="fill:#ffffff;fill-opacity:1;"><g transform="translate(49.692052, 72.334258)"><path style="stroke:none" d="M 12.53125 -7.796875 L 16.9375 0 L 1 0 L 1 -3.59375 L 10.0625 -3.59375 L 1.359375 -19.046875 L 6.203125 -19.046875 L 9.96875 -12.34375 L 12.703125 -19.046875 L 17.4375 -19.046875 Z M 12.53125 -7.796875 "/></g></g><g style="fill:#ffffff;fill-opacity:1;"><g transform="translate(68.331051, 72.334258)"><path style="stroke:none" d="M 17.8125 -19.046875 C 17.78125 -14.617188 17.601562 -11.273438 17.28125 -9.015625 C 16.96875 -6.765625 16.117188 -4.863281 14.734375 -3.3125 C 13.359375 -1.769531 11.132812 -0.695312 8.0625 -0.09375 L 0.9375 1.296875 L 0.265625 -2.46875 L 5.5625 -3.46875 L 1.734375 -19.046875 L 6.53125 -19.046875 L 9.90625 -4.53125 C 10.90625 -5.019531 11.625 -5.765625 12.0625 -6.765625 C 12.507812 -7.765625 12.78125 -8.972656 12.875 -10.390625 C 12.976562 -11.816406 13.03125 -13.976562 13.03125 -16.875 L 13.03125 -19.046875 Z M 17.8125 -19.046875 "/></g></g><g style="fill:#ffffff;fill-opacity:1;"><g transform="translate(87.536886, 72.334258)"><path style="stroke:none" d="M 15.53125 -19.046875 L 15.53125 -15.078125 L 9.53125 0 L 4.734375 0 L 10.703125 -15.4375 L 1.03125 -15.4375 L 1.03125 -23.90625 L 5.375 -23.90625 L 5.375 -19.046875 Z M 15.53125 -19.046875 "/></g></g><g style="fill:#ffffff;fill-opacity:1;"><g transform="translate(27.895024, 110.450221)"><path style="stroke:none" d="M 2.03125 -15.140625 L 1.640625 -19.046875 L 6.4375 -19.046875 L 6.828125 -15.140625 L 6.828125 -9.9375 L 6.796875 -7.828125 L 2.03125 -7 Z M 2.03125 -15.140625 "/></g></g><g style="fill:#ffffff;fill-opacity:1;"><g transform="translate(36.530979, 110.450221)"><path style="stroke:none" d="M 20.109375 -9.5 C 20.109375 -6.414062 19.390625 -3.988281 17.953125 -2.21875 C 16.523438 -0.445312 14.507812 0.4375 11.90625 0.4375 C 10.96875 0.4375 9.945312 0.300781 8.84375 0.03125 L 9.265625 -3.5625 C 10.085938 -3.382812 10.78125 -3.296875 11.34375 -3.296875 C 12.851562 -3.296875 13.925781 -3.800781 14.5625 -4.8125 C 15.207031 -5.820312 15.53125 -7.316406 15.53125 -9.296875 C 15.53125 -11.503906 15.222656 -13.101562 14.609375 -14.09375 C 14.003906 -15.082031 13.066406 -15.578125 11.796875 -15.578125 C 10.910156 -15.578125 10.160156 -15.304688 9.546875 -14.765625 C 8.941406 -14.234375 8.5625 -13.515625 8.40625 -12.609375 L 6.328125 0 L 1.53125 0 L 3.828125 -12.84375 L 1.171875 -19.046875 L 6.171875 -19.046875 L 7.5 -15.234375 C 7.96875 -16.617188 8.664062 -17.648438 9.59375 -18.328125 C 10.53125 -19.003906 11.597656 -19.34375 12.796875 -19.34375 C 15.179688 -19.34375 16.992188 -18.523438 18.234375 -16.890625 C 19.484375 -15.253906 20.109375 -12.789062 20.109375 -9.5 Z M 20.109375 -9.5 "/></g></g><g style="fill:#ffffff;fill-opacity:1;"><g transform="translate(57.937483, 110.450221)"><path style="stroke:none" d="M 15.53125 -19.046875 L 15.53125 -15.078125 L 9.53125 0 L 4.734375 0 L 10.703125 -15.4375 L 1.03125 -15.4375 L 1.03125 -23.90625 L 5.375 -23.90625 L 5.375 -19.046875 Z M 15.53125 -19.046875 "/></g></g><g style="fill:#ffffff;fill-opacity:1;"><g transform="translate(74.542528, 110.450221)"><path style="stroke:none" d="M 2.03125 -15.140625 L 1.640625 -19.046875 L 6.4375 -19.046875 L 6.828125 -15.140625 L 6.828125 0 L 2.03125 0 Z M 2.03125 -15.140625 "/></g></g><g style="fill:#ffffff;fill-opacity:1;"><g transform="translate(1.054497, 148.566185)"><path style="stroke:none" d="M 2.03125 -15.140625 L 1.640625 -19.046875 L 6.4375 -19.046875 L 6.828125 -15.140625 L 6.828125 0 L 2.03125 0 Z M 2.03125 -15.140625 "/></g></g><g style="fill:#ffffff;fill-opacity:1;"><g transform="translate(9.690451, 148.566185)"><path style="stroke:none" d="M 1.296875 -3.59375 L 6.171875 -3.59375 L 6.171875 -13.234375 C 6.171875 -14.035156 6.019531 -14.601562 5.71875 -14.9375 C 5.414062 -15.269531 4.953125 -15.484375 4.328125 -15.578125 L 2 -15.90625 L 2.59375 -19.4375 L 6.765625 -18.90625 C 8.117188 -18.726562 9.15625 -18.148438 9.875 -17.171875 C 10.601562 -16.191406 10.96875 -14.925781 10.96875 -13.375 L 10.96875 0 L 1.296875 0 Z M 1.296875 -3.59375 "/></g></g><g style="fill:#ffffff;fill-opacity:1;"><g transform="translate(22.394313, 148.566185)"><path style="stroke:none" d="M 17.109375 -3.59375 L 17.109375 0 L 1.265625 0 L 1.265625 -3.59375 L 10.0625 -3.59375 L 10.0625 -13 C 10.0625 -14.625 9.304688 -15.4375 7.796875 -15.4375 L 1.265625 -15.4375 L 1.265625 -19.046875 L 9.140625 -19.046875 C 10.910156 -19.046875 12.304688 -18.535156 13.328125 -17.515625 C 14.359375 -16.503906 14.875 -14.921875 14.875 -12.765625 L 14.875 -3.59375 Z M 17.109375 -3.59375 "/></g></g><g style="fill:#ffffff;fill-opacity:1;"><g transform="translate(40.499817, 148.566185)"><path style="stroke:none" d="M 2.03125 -15.140625 L 1.640625 -19.046875 L 6.4375 -19.046875 L 6.828125 -15.140625 L 6.828125 -9.9375 L 6.796875 -7.828125 L 2.03125 -7 Z M 2.03125 -15.140625 "/></g></g><g style="fill:#ffffff;fill-opacity:1;"><g transform="translate(49.135772, 148.566185)"><path style="stroke:none" d="M 17.109375 -3.59375 L 17.109375 0 L 1.265625 0 L 1.265625 -3.59375 L 10.0625 -3.59375 L 10.0625 -13 C 10.0625 -14.625 9.304688 -15.4375 7.796875 -15.4375 L 1.265625 -15.4375 L 1.265625 -19.046875 L 9.140625 -19.046875 C 10.910156 -19.046875 12.304688 -18.535156 13.328125 -17.515625 C 14.359375 -16.503906 14.875 -14.921875 14.875 -12.765625 L 14.875 -3.59375 Z M 17.109375 -3.59375 "/></g></g><g style="fill:#ffffff;fill-opacity:1;"><g transform="translate(67.241276, 148.566185)"><path style="stroke:none" d="M 18.578125 -11 C 18.703125 -7.09375 17.472656 -4.265625 14.890625 -2.515625 C 12.316406 -0.773438 8.566406 0.171875 3.640625 0.328125 L 1.796875 -15.4375 L 1.328125 -19.046875 L 11.5625 -19.046875 C 13.75 -19.046875 15.441406 -18.425781 16.640625 -17.1875 C 17.835938 -15.957031 18.472656 -14.265625 18.546875 -12.109375 Z M 7.828125 -3.9375 C 9.410156 -4.039062 10.640625 -4.363281 11.515625 -4.90625 C 12.398438 -5.457031 13.015625 -6.226562 13.359375 -7.21875 C 13.703125 -8.207031 13.847656 -9.503906 13.796875 -11.109375 L 13.796875 -12.109375 C 13.796875 -13.128906 13.5625 -13.9375 13.09375 -14.53125 C 12.632812 -15.132812 12.003906 -15.4375 11.203125 -15.4375 L 6.609375 -15.4375 Z M 7.828125 -3.9375 "/></g></g><g style="fill:#ffffff;fill-opacity:1;"><g transform="translate(87.414073, 148.566185)"><path style="stroke:none" d="M 21.34375 -13.46875 C 21.382812 -8.914062 20.0625 -5.476562 17.375 -3.15625 C 14.6875 -0.832031 10.519531 0.328125 4.875 0.328125 L 3.828125 0.328125 L 1.328125 -19.046875 L 5.90625 -19.046875 L 6.875 -10.796875 C 7.757812 -11.242188 8.359375 -11.910156 8.671875 -12.796875 C 8.984375 -13.691406 9.128906 -15.03125 9.109375 -16.8125 L 9.109375 -19 L 13.671875 -19 L 13.671875 -16.90625 C 13.628906 -14.457031 13.140625 -12.472656 12.203125 -10.953125 C 11.265625 -9.429688 9.617188 -8.269531 7.265625 -7.46875 L 7.734375 -3.640625 C 10.910156 -3.835938 13.175781 -4.753906 14.53125 -6.390625 C 15.894531 -8.023438 16.5625 -10.296875 16.53125 -13.203125 L 16.46875 -19.046875 L 21.3125 -19.046875 Z M 21.34375 -13.46875 "/></g></g></g></g></g></svg>