<svg xmlns="http://www.w3.org/2000/svg" xmlns:xlink="http://www.w3.org/1999/xlink" width="293" zoomAndPan="magnify" viewBox="0 0 219.75 219.75" height="293" preserveAspectRatio="xMidYMid meet" version="1.2"><defs><clipPath id="02630fb17f"><path d="M 0 0 L 219.089844 0 L 219.089844 219.089844 L 0 219.089844 Z M 0 0 "/></clipPath><clipPath id="98d86e07a1"><path d="M 109.546875 0 C 49.046875 0 0 49.046875 0 109.546875 C 0 170.046875 49.046875 219.089844 109.546875 219.089844 C 170.046875 219.089844 219.089844 170.046875 219.089844 109.546875 C 219.089844 49.046875 170.046875 0 109.546875 0 Z M 109.546875 0 "/></clipPath><clipPath id="277149109f"><path d="M 0 0 L 219.089844 0 L 219.089844 219.089844 L 0 219.089844 Z M 0 0 "/></clipPath><clipPath id="ccc55586fc"><path d="M 109.546875 0 C 49.046875 0 0 49.046875 0 109.546875 C 0 170.046875 49.046875 219.089844 109.546875 219.089844 C 170.046875 219.089844 219.089844 170.046875 219.089844 109.546875 C 219.089844 49.046875 170.046875 0 109.546875 0 Z M 109.546875 0 "/></clipPath><clipPath id="ae54cc7e81"><rect x="0" width="220" y="0" height="220"/></clipPath><clipPath id="a64b6239ee"><rect x="0" width="176" y="0" height="121"/></clipPath></defs><g id="976fb7f79a"><g clip-rule="nonzero" clip-path="url(#02630fb17f)"><g clip-rule="nonzero" clip-path="url(#98d86e07a1)"><g transform="matrix(1,0,0,1,0,0.000000000000007073)"><g clip-path="url(#ae54cc7e81)"><g clip-rule="nonzero" clip-path="url(#277149109f)"><g clip-rule="nonzero" clip-path="url(#ccc55586fc)"><path style=" stroke:none;fill-rule:nonzero;fill:#176598;fill-opacity:1;" d="M 0 0 L 219.089844 0 L 219.089844 219.089844 L 0 219.089844 Z M 0 0 "/></g></g></g></g></g></g><g transform="matrix(1,0,0,1,22,55)"><g clip-path="url(#a64b6239ee)"><g style="fill:#ffffff;fill-opacity:1;"><g transform="translate(0.208322, 34.220192)"><path style="stroke:none" d="M 12.734375 -13 C 12.734375 -14.625 11.988281 -15.4375 10.5 -15.4375 L 1.796875 -15.4375 L 1.796875 -19.046875 L 11.796875 -19.046875 C 13.578125 -19.046875 14.984375 -18.535156 16.015625 -17.515625 C 17.054688 -16.503906 17.578125 -14.921875 17.578125 -12.765625 L 17.578125 0 L 12.734375 0 Z M 1.59375 -9.109375 L 2.265625 -11.34375 L 6.4375 -11.34375 L 6.4375 0 L 1.59375 0 Z M 1.59375 -9.109375 "/></g></g><g style="fill:#ffffff;fill-opacity:1;"><g transform="translate(19.314129, 34.220192)"><path style="stroke:none" d="M 14.5 0 L 8.234375 -9.703125 L 5.265625 0 L 0.703125 0 L 4.40625 -11.4375 L 5.4375 -14 L 2.328125 -19.046875 L 7.171875 -19.046875 L 9.84375 -14.703125 L 12.234375 -11.0625 L 13.140625 -14.109375 L 14.46875 -19.046875 L 19.046875 -19.046875 L 15.03125 -6.90625 L 19.640625 0 Z M 14.5 0 "/></g></g><g style="fill:#ffffff;fill-opacity:1;"><g transform="translate(39.887046, 34.220192)"><path style="stroke:none" d="M 2.03125 -15.140625 L 1.640625 -19.046875 L 6.4375 -19.046875 L 6.828125 -15.140625 L 6.828125 -9.9375 L 6.796875 -7.828125 L 2.03125 -7 Z M 2.03125 -15.140625 "/></g></g><g style="fill:#ffffff;fill-opacity:1;"><g transform="translate(48.523001, 34.220192)"><path style="stroke:none" d="M 12.53125 -7.796875 L 16.9375 0 L 1 0 L 1 -3.59375 L 10.0625 -3.59375 L 1.359375 -19.046875 L 6.203125 -19.046875 L 9.96875 -12.34375 L 12.703125 -19.046875 L 17.4375 -19.046875 Z M 12.53125 -7.796875 "/></g></g><g style="fill:#ffffff;fill-opacity:1;"><g transform="translate(67.162, 34.220192)"><path style="stroke:none" d="M 2.03125 -15.140625 L 1.640625 -19.046875 L 6.4375 -19.046875 L 6.828125 -15.140625 L 6.828125 -9.9375 L 6.796875 -7.828125 L 2.03125 -7 Z M 2.03125 -15.140625 "/></g></g><g style="fill:#ffffff;fill-opacity:1;"><g transform="translate(75.797954, 34.220192)"><path style="stroke:none" d="M 12.734375 -13 C 12.734375 -14.625 11.988281 -15.4375 10.5 -15.4375 L 1.796875 -15.4375 L 1.796875 -19.046875 L 11.796875 -19.046875 C 13.578125 -19.046875 14.984375 -18.535156 16.015625 -17.515625 C 17.054688 -16.503906 17.578125 -14.921875 17.578125 -12.765625 L 17.578125 0 L 12.734375 0 Z M 1.59375 -9.109375 L 2.265625 -11.34375 L 6.4375 -11.34375 L 6.4375 0 L 1.59375 0 Z M 1.59375 -9.109375 "/></g></g><g style="fill:#ffffff;fill-opacity:1;"><g transform="translate(94.903761, 34.220192)"><path style="stroke:none" d=""/></g></g><g style="fill:#ffffff;fill-opacity:1;"><g transform="translate(101.572458, 34.220192)"><path style="stroke:none" d="M 9.671875 -13 C 9.671875 -14.625 8.925781 -15.4375 7.4375 -15.4375 L 0.9375 -15.4375 L 0.9375 -19.046875 L 8.734375 -19.046875 C 10.515625 -19.046875 11.921875 -18.535156 12.953125 -17.515625 C 13.984375 -16.503906 14.5 -14.921875 14.5 -12.765625 L 14.5 0 L 9.671875 0 Z M 9.671875 -13 "/></g></g><g style="fill:#ffffff;fill-opacity:1;"><g transform="translate(117.844072, 34.220192)"><path style="stroke:none" d="M 12.375 -19.046875 C 14.144531 -19.046875 15.546875 -18.507812 16.578125 -17.4375 C 17.617188 -16.375 18.140625 -14.765625 18.140625 -12.609375 L 18.140625 0 L 13.296875 0 L 13.296875 -12.84375 C 13.296875 -14.570312 12.550781 -15.4375 11.0625 -15.4375 L 6.609375 -15.4375 L 6.609375 0 L 1.796875 0 L 1.796875 -19.046875 Z M 12.375 -19.046875 "/></g></g><g style="fill:#ffffff;fill-opacity:1;"><g transform="translate(137.683438, 34.220192)"><path style="stroke:none" d="M 14.5 0 L 8.234375 -9.703125 L 5.265625 0 L 0.703125 0 L 4.40625 -11.4375 L 5.4375 -14 L 2.328125 -19.046875 L 7.171875 -19.046875 L 9.84375 -14.703125 L 12.234375 -11.0625 L 13.140625 -14.109375 L 14.46875 -19.046875 L 19.046875 -19.046875 L 15.03125 -6.90625 L 19.640625 0 Z M 14.5 0 "/></g></g><g style="fill:#ffffff;fill-opacity:1;"><g transform="translate(158.256355, 34.220192)"><path style="stroke:none" d="M 15.53125 -19.046875 L 15.53125 -15.078125 L 9.53125 0 L 4.734375 0 L 10.703125 -15.4375 L 1.03125 -15.4375 L 1.03125 -23.90625 L 5.375 -23.90625 L 5.375 -19.046875 Z M 15.53125 -19.046875 "/></g></g><g style="fill:#ffffff;fill-opacity:1;"><g transform="translate(29.471338, 72.336155)"><path style="stroke:none" d="M 17.109375 -3.59375 L 17.109375 0 L 1.265625 0 L 1.265625 -3.59375 L 10.0625 -3.59375 L 10.0625 -13 C 10.0625 -14.625 9.304688 -15.4375 7.796875 -15.4375 L 1.265625 -15.4375 L 1.265625 -19.046875 L 9.140625 -19.046875 C 10.910156 -19.046875 12.304688 -18.535156 13.328125 -17.515625 C 14.359375 -16.503906 14.875 -14.921875 14.875 -12.765625 L 14.875 -3.59375 Z M 17.109375 -3.59375 "/></g></g><g style="fill:#ffffff;fill-opacity:1;"><g transform="translate(47.576842, 72.336155)"><path style="stroke:none" d="M 12.375 -19.046875 C 14.144531 -19.046875 15.546875 -18.507812 16.578125 -17.4375 C 17.617188 -16.375 18.140625 -14.765625 18.140625 -12.609375 L 18.140625 0 L 13.296875 0 L 13.296875 -12.84375 C 13.296875 -14.570312 12.550781 -15.4375 11.0625 -15.4375 L 6.609375 -15.4375 L 6.609375 0 L 1.796875 0 L 1.796875 -19.046875 Z M 12.375 -19.046875 "/></g></g><g style="fill:#ffffff;fill-opacity:1;"><g transform="translate(67.4162, 72.336155)"><path style="stroke:none" d="M 9.671875 -13 C 9.671875 -14.625 8.925781 -15.4375 7.4375 -15.4375 L 0.9375 -15.4375 L 0.9375 -19.046875 L 8.734375 -19.046875 C 10.515625 -19.046875 11.921875 -18.535156 12.953125 -17.515625 C 13.984375 -16.503906 14.5 -14.921875 14.5 -12.765625 L 14.5 0 L 9.671875 0 Z M 9.671875 -13 "/></g></g><g style="fill:#ffffff;fill-opacity:1;"><g transform="translate(83.687814, 72.336155)"><path style="stroke:none" d="M 20.109375 -9.5 C 20.109375 -6.414062 19.390625 -3.988281 17.953125 -2.21875 C 16.523438 -0.445312 14.507812 0.4375 11.90625 0.4375 C 10.96875 0.4375 9.945312 0.300781 8.84375 0.03125 L 9.265625 -3.5625 C 10.085938 -3.382812 10.78125 -3.296875 11.34375 -3.296875 C 12.851562 -3.296875 13.925781 -3.800781 14.5625 -4.8125 C 15.207031 -5.820312 15.53125 -7.316406 15.53125 -9.296875 C 15.53125 -11.503906 15.222656 -13.101562 14.609375 -14.09375 C 14.003906 -15.082031 13.066406 -15.578125 11.796875 -15.578125 C 10.910156 -15.578125 10.160156 -15.304688 9.546875 -14.765625 C 8.941406 -14.234375 8.5625 -13.515625 8.40625 -12.609375 L 6.328125 0 L 1.53125 0 L 3.828125 -12.84375 L 1.171875 -19.046875 L 6.171875 -19.046875 L 7.5 -15.234375 C 7.96875 -16.617188 8.664062 -17.648438 9.59375 -18.328125 C 10.53125 -19.003906 11.597656 -19.34375 12.796875 -19.34375 C 15.179688 -19.34375 16.992188 -18.523438 18.234375 -16.890625 C 19.484375 -15.253906 20.109375 -12.789062 20.109375 -9.5 Z M 20.109375 -9.5 "/></g></g><g style="fill:#ffffff;fill-opacity:1;"><g transform="translate(105.094318, 72.336155)"><path style="stroke:none" d="M 12.734375 -13 C 12.734375 -14.625 11.988281 -15.4375 10.5 -15.4375 L 1.796875 -15.4375 L 1.796875 -19.046875 L 11.796875 -19.046875 C 13.578125 -19.046875 14.984375 -18.535156 16.015625 -17.515625 C 17.054688 -16.503906 17.578125 -14.921875 17.578125 -12.765625 L 17.578125 0 L 12.734375 0 Z M 1.59375 -9.109375 L 2.265625 -11.34375 L 6.4375 -11.34375 L 6.4375 0 L 1.59375 0 Z M 1.59375 -9.109375 "/></g></g><g style="fill:#ffffff;fill-opacity:1;"><g transform="translate(124.200125, 72.336155)"><path style="stroke:none" d="M 20.109375 -9.5 C 20.109375 -6.414062 19.390625 -3.988281 17.953125 -2.21875 C 16.523438 -0.445312 14.507812 0.4375 11.90625 0.4375 C 10.96875 0.4375 9.945312 0.300781 8.84375 0.03125 L 9.265625 -3.5625 C 10.085938 -3.382812 10.78125 -3.296875 11.34375 -3.296875 C 12.851562 -3.296875 13.925781 -3.800781 14.5625 -4.8125 C 15.207031 -5.820312 15.53125 -7.316406 15.53125 -9.296875 C 15.53125 -11.503906 15.222656 -13.101562 14.609375 -14.09375 C 14.003906 -15.082031 13.066406 -15.578125 11.796875 -15.578125 C 10.910156 -15.578125 10.160156 -15.304688 9.546875 -14.765625 C 8.941406 -14.234375 8.5625 -13.515625 8.40625 -12.609375 L 6.328125 0 L 1.53125 0 L 3.828125 -12.84375 L 1.171875 -19.046875 L 6.171875 -19.046875 L 7.5 -15.234375 C 7.96875 -16.617188 8.664062 -17.648438 9.59375 -18.328125 C 10.53125 -19.003906 11.597656 -19.34375 12.796875 -19.34375 C 15.179688 -19.34375 16.992188 -18.523438 18.234375 -16.890625 C 19.484375 -15.253906 20.109375 -12.789062 20.109375 -9.5 Z M 20.109375 -9.5 "/></g></g><g style="fill:#ffffff;fill-opacity:1;"><g transform="translate(48.239587, 110.452118)"><path style="stroke:none" d=""/></g></g><g style="fill:#ffffff;fill-opacity:1;"><g transform="translate(54.91149, 110.452118)"><path style="stroke:none" d="M 2.03125 -15.140625 L 1.640625 -19.046875 L 6.4375 -19.046875 L 6.828125 -15.140625 L 6.828125 6.671875 L 2.03125 6.671875 Z M 2.03125 -15.140625 "/></g></g><g style="fill:#ffffff;fill-opacity:1;"><g transform="translate(63.547445, 110.452118)"><path style="stroke:none" d="M 8.203125 0 L 7.609375 -3.5625 C 6.984375 -2.5625 6.253906 -1.71875 5.421875 -1.03125 C 4.585938 -0.34375 3.554688 0.210938 2.328125 0.640625 L 0.5625 -3.171875 C 3.675781 -4.148438 5.789062 -5.703125 6.90625 -7.828125 L 6.90625 -13.265625 C 6.90625 -14.066406 6.78125 -14.632812 6.53125 -14.96875 C 6.289062 -15.300781 5.878906 -15.515625 5.296875 -15.609375 L 3.203125 -15.90625 L 3.796875 -19.4375 L 7.734375 -18.90625 C 9.085938 -18.726562 10.085938 -18.222656 10.734375 -17.390625 C 11.378906 -16.554688 11.703125 -15.359375 11.703125 -13.796875 L 11.703125 -7.46875 L 12.765625 0 Z M 8.203125 0 "/></g></g><g style="fill:#ffffff;fill-opacity:1;"><g transform="translate(77.685077, 110.452118)"><path style="stroke:none" d="M 2.03125 -15.140625 L 1.640625 -19.046875 L 6.4375 -19.046875 L 6.828125 -15.140625 L 6.828125 0 L 2.03125 0 Z M 2.03125 -15.140625 "/></g></g><g style="fill:#ffffff;fill-opacity:1;"><g transform="translate(86.321031, 110.452118)"><path style="stroke:none" d="M 20.109375 -9.5 C 20.109375 -6.414062 19.390625 -3.988281 17.953125 -2.21875 C 16.523438 -0.445312 14.507812 0.4375 11.90625 0.4375 C 10.96875 0.4375 9.945312 0.300781 8.84375 0.03125 L 9.265625 -3.5625 C 10.085938 -3.382812 10.78125 -3.296875 11.34375 -3.296875 C 12.851562 -3.296875 13.925781 -3.800781 14.5625 -4.8125 C 15.207031 -5.820312 15.53125 -7.316406 15.53125 -9.296875 C 15.53125 -11.503906 15.222656 -13.101562 14.609375 -14.09375 C 14.003906 -15.082031 13.066406 -15.578125 11.796875 -15.578125 C 10.910156 -15.578125 10.160156 -15.304688 9.546875 -14.765625 C 8.941406 -14.234375 8.5625 -13.515625 8.40625 -12.609375 L 6.328125 0 L 1.53125 0 L 3.828125 -12.84375 L 1.171875 -19.046875 L 6.171875 -19.046875 L 7.5 -15.234375 C 7.96875 -16.617188 8.664062 -17.648438 9.59375 -18.328125 C 10.53125 -19.003906 11.597656 -19.34375 12.796875 -19.34375 C 15.179688 -19.34375 16.992188 -18.523438 18.234375 -16.890625 C 19.484375 -15.253906 20.109375 -12.789062 20.109375 -9.5 Z M 20.109375 -9.5 "/></g></g><g style="fill:#ffffff;fill-opacity:1;"><g transform="translate(107.727536, 110.452118)"><path style="stroke:none" d="M 12.734375 -13 C 12.734375 -14.625 11.988281 -15.4375 10.5 -15.4375 L 1.796875 -15.4375 L 1.796875 -19.046875 L 11.796875 -19.046875 C 13.578125 -19.046875 14.984375 -18.535156 16.015625 -17.515625 C 17.054688 -16.503906 17.578125 -14.921875 17.578125 -12.765625 L 17.578125 0 L 12.734375 0 Z M 1.59375 -9.109375 L 2.265625 -11.34375 L 6.4375 -11.34375 L 6.4375 0 L 1.59375 0 Z M 1.59375 -9.109375 "/></g></g></g></g></g></svg>