<svg xmlns="http://www.w3.org/2000/svg" xmlns:xlink="http://www.w3.org/1999/xlink" width="293" zoomAndPan="magnify" viewBox="0 0 219.75 219.75" height="293" preserveAspectRatio="xMidYMid meet" version="1.2"><defs><clipPath id="2ac780691e"><path d="M 0 0 L 219.089844 0 L 219.089844 219.089844 L 0 219.089844 Z M 0 0 "/></clipPath><clipPath id="6481ed6d3c"><path d="M 109.546875 0 C 49.046875 0 0 49.046875 0 109.546875 C 0 170.046875 49.046875 219.089844 109.546875 219.089844 C 170.046875 219.089844 219.089844 170.046875 219.089844 109.546875 C 219.089844 49.046875 170.046875 0 109.546875 0 Z M 109.546875 0 "/></clipPath><clipPath id="9841ec6443"><path d="M 0 0 L 219.089844 0 L 219.089844 219.089844 L 0 219.089844 Z M 0 0 "/></clipPath><clipPath id="e92ff43ba0"><path d="M 109.546875 0 C 49.046875 0 0 49.046875 0 109.546875 C 0 170.046875 49.046875 219.089844 109.546875 219.089844 C 170.046875 219.089844 219.089844 170.046875 219.089844 109.546875 C 219.089844 49.046875 170.046875 0 109.546875 0 Z M 109.546875 0 "/></clipPath><clipPath id="040f919e27"><rect x="0" width="220" y="0" height="220"/></clipPath><clipPath id="8b83e014c2"><rect x="0" width="173" y="0" height="83"/></clipPath></defs><g id="34ad1517ba"><g clip-rule="nonzero" clip-path="url(#2ac780691e)"><g clip-rule="nonzero" clip-path="url(#6481ed6d3c)"><g transform="matrix(1,0,0,1,0,0.000000000000007073)"><g clip-path="url(#040f919e27)"><g clip-rule="nonzero" clip-path="url(#9841ec6443)"><g clip-rule="nonzero" clip-path="url(#e92ff43ba0)"><path style=" stroke:none;fill-rule:nonzero;fill:#176598;fill-opacity:1;" d="M 0 0 L 219.089844 0 L 219.089844 219.089844 L 0 219.089844 Z M 0 0 "/></g></g></g></g></g></g><g transform="matrix(1,0,0,1,23,55)"><g clip-path="url(#8b83e014c2)"><g style="fill:#ffffff;fill-opacity:1;"><g transform="translate(4.729342, 34.220192)"><path style="stroke:none" d="M 12.734375 -13 C 12.734375 -14.625 11.988281 -15.4375 10.5 -15.4375 L 1.796875 -15.4375 L 1.796875 -19.046875 L 11.796875 -19.046875 C 13.578125 -19.046875 14.984375 -18.535156 16.015625 -17.515625 C 17.054688 -16.503906 17.578125 -14.921875 17.578125 -12.765625 L 17.578125 0 L 12.734375 0 Z M 1.59375 -9.109375 L 2.265625 -11.34375 L 6.4375 -11.34375 L 6.4375 0 L 1.59375 0 Z M 1.59375 -9.109375 "/></g></g><g style="fill:#ffffff;fill-opacity:1;"><g transform="translate(23.835149, 34.220192)"><path style="stroke:none" d="M 12.375 -19.046875 C 14.144531 -19.046875 15.546875 -18.507812 16.578125 -17.4375 C 17.617188 -16.375 18.140625 -14.765625 18.140625 -12.609375 L 18.140625 0 L 13.296875 0 L 13.296875 -12.84375 C 13.296875 -14.570312 12.550781 -15.4375 11.0625 -15.4375 L 6.609375 -15.4375 L 6.609375 0 L 1.796875 0 L 1.796875 -19.046875 Z M 12.375 -19.046875 "/></g></g><g style="fill:#ffffff;fill-opacity:1;"><g transform="translate(43.674507, 34.220192)"><path style="stroke:none" d="M 2.03125 -15.140625 L 1.640625 -19.046875 L 6.4375 -19.046875 L 6.828125 -15.140625 L 6.828125 0 L 2.03125 0 Z M 2.03125 -15.140625 "/></g></g><g style="fill:#ffffff;fill-opacity:1;"><g transform="translate(52.310462, 34.220192)"><path style="stroke:none" d="M 1.328125 -19.046875 L 6.171875 -19.046875 L 7.796875 -3.9375 C 10.109375 -4.15625 11.753906 -4.835938 12.734375 -5.984375 C 13.710938 -7.128906 14.179688 -8.757812 14.140625 -10.875 L 14.140625 -11.90625 C 14.140625 -12.90625 13.863281 -13.753906 13.3125 -14.453125 C 12.769531 -15.148438 11.957031 -15.535156 10.875 -15.609375 L 9.234375 -15.703125 L 9.609375 -19.40625 L 11.640625 -19.3125 C 13.703125 -19.195312 15.394531 -18.554688 16.71875 -17.390625 C 18.039062 -16.222656 18.738281 -14.5625 18.8125 -12.40625 L 18.84375 -11.46875 C 18.976562 -7.5625 17.710938 -4.664062 15.046875 -2.78125 C 12.390625 -0.90625 8.5625 0.128906 3.5625 0.328125 Z M 1.328125 -19.046875 "/></g></g><g style="fill:#ffffff;fill-opacity:1;"><g transform="translate(72.016452, 34.220192)"><path style="stroke:none" d="M 17.109375 -3.59375 L 17.109375 0 L 1.265625 0 L 1.265625 -3.59375 L 10.0625 -3.59375 L 10.0625 -13 C 10.0625 -14.625 9.304688 -15.4375 7.796875 -15.4375 L 1.265625 -15.4375 L 1.265625 -19.046875 L 9.140625 -19.046875 C 10.910156 -19.046875 12.304688 -18.535156 13.328125 -17.515625 C 14.359375 -16.503906 14.875 -14.921875 14.875 -12.765625 L 14.875 -3.59375 Z M 17.109375 -3.59375 "/></g></g><g style="fill:#ffffff;fill-opacity:1;"><g transform="translate(90.121956, 34.220192)"><path style="stroke:none" d=""/></g></g><g style="fill:#ffffff;fill-opacity:1;"><g transform="translate(96.790652, 34.220192)"><path style="stroke:none" d="M 12.734375 -13 C 12.734375 -14.625 11.988281 -15.4375 10.5 -15.4375 L 1.796875 -15.4375 L 1.796875 -19.046875 L 11.796875 -19.046875 C 13.578125 -19.046875 14.984375 -18.535156 16.015625 -17.515625 C 17.054688 -16.503906 17.578125 -14.921875 17.578125 -12.765625 L 17.578125 0 L 12.734375 0 Z M 1.59375 -9.109375 L 2.265625 -11.34375 L 6.4375 -11.34375 L 6.4375 0 L 1.59375 0 Z M 1.59375 -9.109375 "/></g></g><g style="fill:#ffffff;fill-opacity:1;"><g transform="translate(115.896459, 34.220192)"><path style="stroke:none" d="M 17.8125 -19.046875 C 17.78125 -14.617188 17.601562 -11.273438 17.28125 -9.015625 C 16.96875 -6.765625 16.117188 -4.863281 14.734375 -3.3125 C 13.359375 -1.769531 11.132812 -0.695312 8.0625 -0.09375 L 0.9375 1.296875 L 0.265625 -2.46875 L 5.5625 -3.46875 L 1.734375 -19.046875 L 6.53125 -19.046875 L 9.90625 -4.53125 C 10.90625 -5.019531 11.625 -5.765625 12.0625 -6.765625 C 12.507812 -7.765625 12.78125 -8.972656 12.875 -10.390625 C 12.976562 -11.816406 13.03125 -13.976562 13.03125 -16.875 L 13.03125 -19.046875 Z M 17.8125 -19.046875 "/></g></g><g style="fill:#ffffff;fill-opacity:1;"><g transform="translate(135.102294, 34.220192)"><path style="stroke:none" d="M 8.203125 0 L 7.609375 -3.5625 C 6.984375 -2.5625 6.253906 -1.71875 5.421875 -1.03125 C 4.585938 -0.34375 3.554688 0.210938 2.328125 0.640625 L 0.5625 -3.171875 C 3.675781 -4.148438 5.789062 -5.703125 6.90625 -7.828125 L 6.90625 -13.265625 C 6.90625 -14.066406 6.78125 -14.632812 6.53125 -14.96875 C 6.289062 -15.300781 5.878906 -15.515625 5.296875 -15.609375 L 3.203125 -15.90625 L 3.796875 -19.4375 L 7.734375 -18.90625 C 9.085938 -18.726562 10.085938 -18.222656 10.734375 -17.390625 C 11.378906 -16.554688 11.703125 -15.359375 11.703125 -13.796875 L 11.703125 -7.46875 L 12.765625 0 Z M 8.203125 0 "/></g></g><g style="fill:#ffffff;fill-opacity:1;"><g transform="translate(149.239926, 34.220192)"><path style="stroke:none" d="M 12.734375 -13 C 12.734375 -14.625 11.988281 -15.4375 10.5 -15.4375 L 1.796875 -15.4375 L 1.796875 -19.046875 L 11.796875 -19.046875 C 13.578125 -19.046875 14.984375 -18.535156 16.015625 -17.515625 C 17.054688 -16.503906 17.578125 -14.921875 17.578125 -12.765625 L 17.578125 0 L 12.734375 0 Z M 1.59375 -9.109375 L 2.265625 -11.34375 L 6.4375 -11.34375 L 6.4375 0 L 1.59375 0 Z M 1.59375 -9.109375 "/></g></g><g style="fill:#ffffff;fill-opacity:1;"><g transform="translate(1.131826, 72.336155)"><path style="stroke:none" d="M 2.03125 -15.140625 L 1.640625 -19.046875 L 6.4375 -19.046875 L 6.828125 -15.140625 L 6.828125 6.671875 L 2.03125 6.671875 Z M 2.03125 -15.140625 "/></g></g><g style="fill:#ffffff;fill-opacity:1;"><g transform="translate(9.767781, 72.336155)"><path style="stroke:none" d="M 8.203125 0 L 7.609375 -3.5625 C 6.984375 -2.5625 6.253906 -1.71875 5.421875 -1.03125 C 4.585938 -0.34375 3.554688 0.210938 2.328125 0.640625 L 0.5625 -3.171875 C 3.675781 -4.148438 5.789062 -5.703125 6.90625 -7.828125 L 6.90625 -13.265625 C 6.90625 -14.066406 6.78125 -14.632812 6.53125 -14.96875 C 6.289062 -15.300781 5.878906 -15.515625 5.296875 -15.609375 L 3.203125 -15.90625 L 3.796875 -19.4375 L 7.734375 -18.90625 C 9.085938 -18.726562 10.085938 -18.222656 10.734375 -17.390625 C 11.378906 -16.554688 11.703125 -15.359375 11.703125 -13.796875 L 11.703125 -7.46875 L 12.765625 0 Z M 8.203125 0 "/></g></g><g style="fill:#ffffff;fill-opacity:1;"><g transform="translate(23.905413, 72.336155)"><path style="stroke:none" d="M 2.03125 -15.140625 L 1.640625 -19.046875 L 6.4375 -19.046875 L 6.828125 -15.140625 L 6.828125 0 L 2.03125 0 Z M 2.03125 -15.140625 "/></g></g><g style="fill:#ffffff;fill-opacity:1;"><g transform="translate(32.541367, 72.336155)"><path style="stroke:none" d="M 20.109375 -9.5 C 20.109375 -6.414062 19.390625 -3.988281 17.953125 -2.21875 C 16.523438 -0.445312 14.507812 0.4375 11.90625 0.4375 C 10.96875 0.4375 9.945312 0.300781 8.84375 0.03125 L 9.265625 -3.5625 C 10.085938 -3.382812 10.78125 -3.296875 11.34375 -3.296875 C 12.851562 -3.296875 13.925781 -3.800781 14.5625 -4.8125 C 15.207031 -5.820312 15.53125 -7.316406 15.53125 -9.296875 C 15.53125 -11.503906 15.222656 -13.101562 14.609375 -14.09375 C 14.003906 -15.082031 13.066406 -15.578125 11.796875 -15.578125 C 10.910156 -15.578125 10.160156 -15.304688 9.546875 -14.765625 C 8.941406 -14.234375 8.5625 -13.515625 8.40625 -12.609375 L 6.328125 0 L 1.53125 0 L 3.828125 -12.84375 L 1.171875 -19.046875 L 6.171875 -19.046875 L 7.5 -15.234375 C 7.96875 -16.617188 8.664062 -17.648438 9.59375 -18.328125 C 10.53125 -19.003906 11.597656 -19.34375 12.796875 -19.34375 C 15.179688 -19.34375 16.992188 -18.523438 18.234375 -16.890625 C 19.484375 -15.253906 20.109375 -12.789062 20.109375 -9.5 Z M 20.109375 -9.5 "/></g></g><g style="fill:#ffffff;fill-opacity:1;"><g transform="translate(53.947872, 72.336155)"><path style="stroke:none" d="M 12.734375 -13 C 12.734375 -14.625 11.988281 -15.4375 10.5 -15.4375 L 1.796875 -15.4375 L 1.796875 -19.046875 L 11.796875 -19.046875 C 13.578125 -19.046875 14.984375 -18.535156 16.015625 -17.515625 C 17.054688 -16.503906 17.578125 -14.921875 17.578125 -12.765625 L 17.578125 0 L 12.734375 0 Z M 1.59375 -9.109375 L 2.265625 -11.34375 L 6.4375 -11.34375 L 6.4375 0 L 1.59375 0 Z M 1.59375 -9.109375 "/></g></g><g style="fill:#ffffff;fill-opacity:1;"><g transform="translate(73.053679, 72.336155)"><path style="stroke:none" d=""/></g></g><g style="fill:#ffffff;fill-opacity:1;"><g transform="translate(79.722375, 72.336155)"><path style="stroke:none" d="M 17.109375 -3.59375 L 17.109375 0 L 1.265625 0 L 1.265625 -3.59375 L 10.0625 -3.59375 L 10.0625 -13 C 10.0625 -14.625 9.304688 -15.4375 7.796875 -15.4375 L 1.265625 -15.4375 L 1.265625 -19.046875 L 9.140625 -19.046875 C 10.910156 -19.046875 12.304688 -18.535156 13.328125 -17.515625 C 14.359375 -16.503906 14.875 -14.921875 14.875 -12.765625 L 14.875 -3.59375 Z M 17.109375 -3.59375 "/></g></g><g style="fill:#ffffff;fill-opacity:1;"><g transform="translate(97.827879, 72.336155)"><path style="stroke:none" d="M 12.375 -19.046875 C 14.144531 -19.046875 15.546875 -18.507812 16.578125 -17.4375 C 17.617188 -16.375 18.140625 -14.765625 18.140625 -12.609375 L 18.140625 0 L 13.296875 0 L 13.296875 -12.84375 C 13.296875 -14.570312 12.550781 -15.4375 11.0625 -15.4375 L 6.609375 -15.4375 L 6.609375 0 L 1.796875 0 L 1.796875 -19.046875 Z M 12.375 -19.046875 "/></g></g><g style="fill:#ffffff;fill-opacity:1;"><g transform="translate(117.667237, 72.336155)"><path style="stroke:none" d="M 9.671875 -13 C 9.671875 -14.625 8.925781 -15.4375 7.4375 -15.4375 L 0.9375 -15.4375 L 0.9375 -19.046875 L 8.734375 -19.046875 C 10.515625 -19.046875 11.921875 -18.535156 12.953125 -17.515625 C 13.984375 -16.503906 14.5 -14.921875 14.5 -12.765625 L 14.5 0 L 9.671875 0 Z M 9.671875 -13 "/></g></g><g style="fill:#ffffff;fill-opacity:1;"><g transform="translate(133.938851, 72.336155)"><path style="stroke:none" d="M 20.109375 -9.5 C 20.109375 -6.414062 19.390625 -3.988281 17.953125 -2.21875 C 16.523438 -0.445312 14.507812 0.4375 11.90625 0.4375 C 10.96875 0.4375 9.945312 0.300781 8.84375 0.03125 L 9.265625 -3.5625 C 10.085938 -3.382812 10.78125 -3.296875 11.34375 -3.296875 C 12.851562 -3.296875 13.925781 -3.800781 14.5625 -4.8125 C 15.207031 -5.820312 15.53125 -7.316406 15.53125 -9.296875 C 15.53125 -11.503906 15.222656 -13.101562 14.609375 -14.09375 C 14.003906 -15.082031 13.066406 -15.578125 11.796875 -15.578125 C 10.910156 -15.578125 10.160156 -15.304688 9.546875 -14.765625 C 8.941406 -14.234375 8.5625 -13.515625 8.40625 -12.609375 L 6.328125 0 L 1.53125 0 L 3.828125 -12.84375 L 1.171875 -19.046875 L 6.171875 -19.046875 L 7.5 -15.234375 C 7.96875 -16.617188 8.664062 -17.648438 9.59375 -18.328125 C 10.53125 -19.003906 11.597656 -19.34375 12.796875 -19.34375 C 15.179688 -19.34375 16.992188 -18.523438 18.234375 -16.890625 C 19.484375 -15.253906 20.109375 -12.789062 20.109375 -9.5 Z M 20.109375 -9.5 "/></g></g><g style="fill:#ffffff;fill-opacity:1;"><g transform="translate(155.345363, 72.336155)"><path style="stroke:none" d="M 15.53125 -19.046875 L 15.53125 -15.078125 L 9.53125 0 L 4.734375 0 L 10.703125 -15.4375 L 1.03125 -15.4375 L 1.03125 -23.90625 L 5.375 -23.90625 L 5.375 -19.046875 Z M 15.53125 -19.046875 "/></g></g></g></g></g></svg>