<svg xmlns="http://www.w3.org/2000/svg" xmlns:xlink="http://www.w3.org/1999/xlink" width="293" zoomAndPan="magnify" viewBox="0 0 219.75 219.75" height="293" preserveAspectRatio="xMidYMid meet" version="1.2"><defs><clipPath id="2e302f0fc9"><path d="M 0 0 L 219.089844 0 L 219.089844 219.089844 L 0 219.089844 Z M 0 0 "/></clipPath><clipPath id="3614dab422"><path d="M 109.546875 0 C 49.046875 0 0 49.046875 0 109.546875 C 0 170.046875 49.046875 219.089844 109.546875 219.089844 C 170.046875 219.089844 219.089844 170.046875 219.089844 109.546875 C 219.089844 49.046875 170.046875 0 109.546875 0 Z M 109.546875 0 "/></clipPath><clipPath id="fecd7803f2"><path d="M 0 0 L 219.089844 0 L 219.089844 219.089844 L 0 219.089844 Z M 0 0 "/></clipPath><clipPath id="be5fab1749"><path d="M 109.546875 0 C 49.046875 0 0 49.046875 0 109.546875 C 0 170.046875 49.046875 219.089844 109.546875 219.089844 C 170.046875 219.089844 219.089844 170.046875 219.089844 109.546875 C 219.089844 49.046875 170.046875 0 109.546875 0 Z M 109.546875 0 "/></clipPath><clipPath id="248e2f84bf"><rect x="0" width="220" y="0" height="220"/></clipPath><clipPath id="a49907c34d"><rect x="0" width="107" y="0" height="83"/></clipPath></defs><g id="e32e070c42"><g clip-rule="nonzero" clip-path="url(#2e302f0fc9)"><g clip-rule="nonzero" clip-path="url(#3614dab422)"><g transform="matrix(1,0,0,1,0,0.000000000000007073)"><g clip-path="url(#248e2f84bf)"><g clip-rule="nonzero" clip-path="url(#fecd7803f2)"><g clip-rule="nonzero" clip-path="url(#be5fab1749)"><path style=" stroke:none;fill-rule:nonzero;fill:#176598;fill-opacity:1;" d="M 0 0 L 219.089844 0 L 219.089844 219.089844 L 0 219.089844 Z M 0 0 "/></g></g></g></g></g></g><g transform="matrix(1,0,0,1,56,55)"><g clip-path="url(#a49907c34d)"><g style="fill:#ffffff;fill-opacity:1;"><g transform="translate(15.762423, 34.220192)"><path style="stroke:none" d="M 0.59375 -2.703125 C 1.445312 -2.785156 2.082031 -2.945312 2.5 -3.1875 C 2.925781 -3.4375 3.210938 -3.78125 3.359375 -4.21875 C 3.515625 -4.65625 3.582031 -5.269531 3.5625 -6.0625 L 3.5625 -19.046875 L 13.671875 -19.046875 C 15.453125 -19.046875 16.851562 -18.535156 17.875 -17.515625 C 18.894531 -16.503906 19.40625 -14.921875 19.40625 -12.765625 L 19.40625 0 L 14.609375 0 L 14.609375 -13 C 14.609375 -14.625 13.851562 -15.4375 12.34375 -15.4375 L 8.40625 -15.4375 L 8.40625 -6.703125 C 8.40625 -5.015625 8.140625 -3.671875 7.609375 -2.671875 C 7.085938 -1.671875 6.300781 -0.921875 5.25 -0.421875 C 4.195312 0.078125 2.78125 0.40625 1 0.5625 Z M 0.59375 -2.703125 "/></g></g><g style="fill:#ffffff;fill-opacity:1;"><g transform="translate(36.935524, 34.220192)"><path style="stroke:none" d="M 15.53125 -19.046875 L 15.53125 -15.078125 L 9.53125 0 L 4.734375 0 L 10.703125 -15.4375 L 1.03125 -15.4375 L 1.03125 -23.90625 L 5.375 -23.90625 L 5.375 -19.046875 Z M 15.53125 -19.046875 "/></g></g><g style="fill:#ffffff;fill-opacity:1;"><g transform="translate(53.540569, 34.220192)"><path style="stroke:none" d="M 17.109375 -3.59375 L 17.109375 0 L 1.265625 0 L 1.265625 -3.59375 L 10.0625 -3.59375 L 10.0625 -13 C 10.0625 -14.625 9.304688 -15.4375 7.796875 -15.4375 L 1.265625 -15.4375 L 1.265625 -19.046875 L 9.140625 -19.046875 C 10.910156 -19.046875 12.304688 -18.535156 13.328125 -17.515625 C 14.359375 -16.503906 14.875 -14.921875 14.875 -12.765625 L 14.875 -3.59375 Z M 17.109375 -3.59375 "/></g></g><g style="fill:#ffffff;fill-opacity:1;"><g transform="translate(71.646073, 34.220192)"><path style="stroke:none" d="M 8.171875 -3.5625 C 9.679688 -3.695312 10.800781 -4.207031 11.53125 -5.09375 C 12.269531 -5.988281 12.71875 -7.503906 12.875 -9.640625 L 13.296875 -15.4375 L 1.703125 -15.4375 L 1.703125 -19.046875 L 18.46875 -19.046875 L 18.3125 -15.9375 L 17.9375 -10.90625 C 17.582031 -3.675781 14.445312 -0.03125 8.53125 0.03125 Z M 1.4375 -9.296875 L 2.09375 -11.609375 L 6.265625 -11.609375 L 6.265625 6.671875 L 1.4375 6.671875 Z M 1.4375 -9.296875 "/></g></g><g style="fill:#ffffff;fill-opacity:1;"><g transform="translate(0.760701, 72.336155)"><path style="stroke:none" d="M 0.59375 -2.703125 C 1.445312 -2.785156 2.082031 -2.945312 2.5 -3.1875 C 2.925781 -3.4375 3.210938 -3.78125 3.359375 -4.21875 C 3.515625 -4.65625 3.582031 -5.269531 3.5625 -6.0625 L 3.5625 -19.046875 L 13.671875 -19.046875 C 15.453125 -19.046875 16.851562 -18.535156 17.875 -17.515625 C 18.894531 -16.503906 19.40625 -14.921875 19.40625 -12.765625 L 19.40625 0 L 14.609375 0 L 14.609375 -13 C 14.609375 -14.625 13.851562 -15.4375 12.34375 -15.4375 L 8.40625 -15.4375 L 8.40625 -6.703125 C 8.40625 -5.015625 8.140625 -3.671875 7.609375 -2.671875 C 7.085938 -1.671875 6.300781 -0.921875 5.25 -0.421875 C 4.195312 0.078125 2.78125 0.40625 1 0.5625 Z M 0.59375 -2.703125 "/></g></g><g style="fill:#ffffff;fill-opacity:1;"><g transform="translate(21.933802, 72.336155)"><path style="stroke:none" d="M 2.03125 -15.140625 L 1.640625 -19.046875 L 6.4375 -19.046875 L 6.828125 -15.140625 L 6.828125 0 L 2.03125 0 Z M 2.03125 -15.140625 "/></g></g><g style="fill:#ffffff;fill-opacity:1;"><g transform="translate(30.569756, 72.336155)"><path style="stroke:none" d="M 17.8125 -19.046875 C 17.78125 -14.617188 17.601562 -11.273438 17.28125 -9.015625 C 16.96875 -6.765625 16.117188 -4.863281 14.734375 -3.3125 C 13.359375 -1.769531 11.132812 -0.695312 8.0625 -0.09375 L 0.9375 1.296875 L 0.265625 -2.46875 L 5.5625 -3.46875 L 1.734375 -19.046875 L 6.53125 -19.046875 L 9.90625 -4.53125 C 10.90625 -5.019531 11.625 -5.765625 12.0625 -6.765625 C 12.507812 -7.765625 12.78125 -8.972656 12.875 -10.390625 C 12.976562 -11.816406 13.03125 -13.976562 13.03125 -16.875 L 13.03125 -19.046875 Z M 17.8125 -19.046875 "/></g></g><g style="fill:#ffffff;fill-opacity:1;"><g transform="translate(49.775591, 72.336155)"><path style="stroke:none" d="M 9.671875 -13 C 9.671875 -14.625 8.925781 -15.4375 7.4375 -15.4375 L 0.9375 -15.4375 L 0.9375 -19.046875 L 8.734375 -19.046875 C 10.515625 -19.046875 11.921875 -18.535156 12.953125 -17.515625 C 13.984375 -16.503906 14.5 -14.921875 14.5 -12.765625 L 14.5 0 L 9.671875 0 Z M 9.671875 -13 "/></g></g><g style="fill:#ffffff;fill-opacity:1;"><g transform="translate(66.047205, 72.336155)"><path style="stroke:none" d="M 0.59375 -2.703125 C 1.445312 -2.785156 2.082031 -2.945312 2.5 -3.1875 C 2.925781 -3.4375 3.210938 -3.78125 3.359375 -4.21875 C 3.515625 -4.65625 3.582031 -5.269531 3.5625 -6.0625 L 3.5625 -19.046875 L 13.671875 -19.046875 C 15.453125 -19.046875 16.851562 -18.535156 17.875 -17.515625 C 18.894531 -16.503906 19.40625 -14.921875 19.40625 -12.765625 L 19.40625 0 L 14.609375 0 L 14.609375 -13 C 14.609375 -14.625 13.851562 -15.4375 12.34375 -15.4375 L 8.40625 -15.4375 L 8.40625 -6.703125 C 8.40625 -5.015625 8.140625 -3.671875 7.609375 -2.671875 C 7.085938 -1.671875 6.300781 -0.921875 5.25 -0.421875 C 4.195312 0.078125 2.78125 0.40625 1 0.5625 Z M 0.59375 -2.703125 "/></g></g><g style="fill:#ffffff;fill-opacity:1;"><g transform="translate(87.220305, 72.336155)"><path style="stroke:none" d="M 12.734375 -13 C 12.734375 -14.625 11.988281 -15.4375 10.5 -15.4375 L 1.796875 -15.4375 L 1.796875 -19.046875 L 11.796875 -19.046875 C 13.578125 -19.046875 14.984375 -18.535156 16.015625 -17.515625 C 17.054688 -16.503906 17.578125 -14.921875 17.578125 -12.765625 L 17.578125 0 L 12.734375 0 Z M 1.59375 -9.109375 L 2.265625 -11.34375 L 6.4375 -11.34375 L 6.4375 0 L 1.59375 0 Z M 1.59375 -9.109375 "/></g></g></g></g></g></svg>