<svg xmlns="http://www.w3.org/2000/svg" xmlns:xlink="http://www.w3.org/1999/xlink" width="926" zoomAndPan="magnify" viewBox="0 0 694.5 1228.500003" height="1638" preserveAspectRatio="xMidYMid meet" version="1.0"><defs><g/><clipPath id="bd1f59cc93"><path d="M 4 0.191406 L 676 0.191406 L 676 1227.808594 L 4 1227.808594 Z M 4 0.191406 " clip-rule="nonzero"/></clipPath><clipPath id="9cb2764b41"><path d="M 9.859375 0.191406 L 671.820312 0.191406 L 671.820312 1218.871094 L 9.859375 1218.871094 Z M 9.859375 0.191406 " clip-rule="nonzero"/></clipPath><clipPath id="86c7be7eed"><path d="M 9.859375 1209.875 L 9.859375 9.175781 C 9.859375 6.792969 10.808594 4.503906 12.496094 2.816406 C 14.179688 1.132812 16.46875 0.183594 18.855469 0.183594 L 662.828125 0.183594 C 665.210938 0.183594 667.5 1.132812 669.1875 2.816406 C 670.871094 4.503906 671.820312 6.792969 671.820312 9.175781 L 671.820312 1209.875 C 671.820312 1212.261719 670.871094 1214.546875 669.1875 1216.234375 C 667.5 1217.921875 665.210938 1218.871094 662.828125 1218.871094 L 18.855469 1218.871094 C 16.46875 1218.871094 14.179688 1217.921875 12.496094 1216.234375 C 10.808594 1214.546875 9.859375 1212.261719 9.859375 1209.875 Z M 9.859375 1209.875 " clip-rule="nonzero"/></clipPath><clipPath id="fd8e5e67f7"><path d="M 0.859375 0.191406 L 662.820312 0.191406 L 662.820312 1218.871094 L 0.859375 1218.871094 Z M 0.859375 0.191406 " clip-rule="nonzero"/></clipPath><clipPath id="f45a684c96"><path d="M 0.859375 1209.875 L 0.859375 9.175781 C 0.859375 6.792969 1.808594 4.503906 3.496094 2.816406 C 5.179688 1.132812 7.46875 0.183594 9.855469 0.183594 L 653.828125 0.183594 C 656.210938 0.183594 658.5 1.132812 660.1875 2.816406 C 661.871094 4.503906 662.820312 6.792969 662.820312 9.175781 L 662.820312 1209.875 C 662.820312 1212.261719 661.871094 1214.546875 660.1875 1216.234375 C 658.5 1217.921875 656.210938 1218.871094 653.828125 1218.871094 L 9.855469 1218.871094 C 7.46875 1218.871094 5.179688 1217.921875 3.496094 1216.234375 C 1.808594 1214.546875 0.859375 1212.261719 0.859375 1209.875 Z M 0.859375 1209.875 " clip-rule="nonzero"/></clipPath><clipPath id="8063da2966"><rect x="0" width="663" y="0" height="1219"/></clipPath><clipPath id="d5718e80cd"><path d="M 0.820312 8 L 662.78125 8 L 662.78125 1227.054688 L 0.820312 1227.054688 Z M 0.820312 8 " clip-rule="nonzero"/></clipPath><clipPath id="5545a7233c"><path d="M 0.820312 1218.0625 L 0.820312 17.363281 C 0.820312 14.980469 1.769531 12.691406 3.453125 11.003906 C 5.140625 9.316406 7.429688 8.371094 9.8125 8.371094 L 653.785156 8.371094 C 656.171875 8.371094 658.460938 9.316406 660.144531 11.003906 C 661.832031 12.691406 662.78125 14.980469 662.78125 17.363281 L 662.78125 1218.0625 C 662.78125 1220.449219 661.832031 1222.734375 660.144531 1224.421875 C 658.460938 1226.109375 656.171875 1227.054688 653.785156 1227.054688 L 9.8125 1227.054688 C 7.429688 1227.054688 5.140625 1226.109375 3.453125 1224.421875 C 1.769531 1222.734375 0.820312 1220.449219 0.820312 1218.0625 Z M 0.820312 1218.0625 " clip-rule="nonzero"/></clipPath><clipPath id="cc0385bd60"><path d="M 0.820312 0.347656 L 662.78125 0.347656 L 662.78125 1219.054688 L 0.820312 1219.054688 Z M 0.820312 0.347656 " clip-rule="nonzero"/></clipPath><clipPath id="24524c95d2"><path d="M 0.820312 1210.0625 L 0.820312 9.363281 C 0.820312 6.980469 1.769531 4.691406 3.453125 3.003906 C 5.140625 1.316406 7.429688 0.371094 9.8125 0.371094 L 653.785156 0.371094 C 656.171875 0.371094 658.460938 1.316406 660.144531 3.003906 C 661.832031 4.691406 662.78125 6.980469 662.78125 9.363281 L 662.78125 1210.0625 C 662.78125 1212.449219 661.832031 1214.734375 660.144531 1216.421875 C 658.460938 1218.109375 656.171875 1219.054688 653.785156 1219.054688 L 9.8125 1219.054688 C 7.429688 1219.054688 5.140625 1218.109375 3.453125 1216.421875 C 1.769531 1214.734375 0.820312 1212.449219 0.820312 1210.0625 Z M 0.820312 1210.0625 " clip-rule="nonzero"/></clipPath><clipPath id="de04a339ef"><rect x="0" width="663" y="0" height="1220"/></clipPath><clipPath id="467e0db09b"><rect x="0" width="672" y="0" height="1228"/></clipPath></defs><g clip-path="url(#bd1f59cc93)"><g transform="matrix(1, 0, 0, 1, 4, 0.00000000000010919)"><g clip-path="url(#467e0db09b)"><g clip-path="url(#9cb2764b41)"><g clip-path="url(#86c7be7eed)"><g transform="matrix(1, 0, 0, 1, 9, 0.00000000000010919)"><g clip-path="url(#8063da2966)"><g clip-path="url(#fd8e5e67f7)"><g clip-path="url(#f45a684c96)"><path fill="#dbdbdb" d="M 0.859375 1218.871094 L 0.859375 -0.664062 L 662.820312 -0.664062 L 662.820312 1218.871094 Z M 0.859375 1218.871094 " fill-opacity="1" fill-rule="nonzero"/></g></g></g></g></g></g><g clip-path="url(#d5718e80cd)"><g clip-path="url(#5545a7233c)"><g transform="matrix(1, 0, 0, 1, -0.000000000000000888, 8)"><g clip-path="url(#de04a339ef)"><g clip-path="url(#cc0385bd60)"><g clip-path="url(#24524c95d2)"><path fill="#ffffff" d="M 0.820312 1219.054688 L 0.820312 -0.476562 L 662.78125 -0.476562 L 662.78125 1219.054688 Z M 0.820312 1219.054688 " fill-opacity="1" fill-rule="nonzero"/></g></g></g></g></g></g></g></g></g><g fill="#052554" fill-opacity="1"><g transform="translate(96.604867, 142.35924)"><g><path d="M 1.90625 -14.21875 L 1.53125 -17.890625 L 6.046875 -17.890625 L 6.421875 -14.21875 L 6.421875 6.265625 L 1.90625 6.265625 Z M 1.90625 -14.21875 "/></g></g></g><g fill="#052554" fill-opacity="1"><g transform="translate(104.718082, 142.35924)"><g><path d="M 1.90625 -14.21875 L 1.53125 -17.890625 L 6.046875 -17.890625 L 6.421875 -14.21875 L 6.421875 -9.328125 L 6.390625 -7.359375 L 1.90625 -6.578125 Z M 1.90625 -14.21875 "/></g></g></g><g fill="#052554" fill-opacity="1"><g transform="translate(112.831297, 142.35924)"><g><path d="M 16.078125 -3.390625 L 16.078125 0 L 1.1875 0 L 1.1875 -3.390625 L 9.46875 -3.390625 L 9.46875 -12.21875 C 9.46875 -13.738281 8.753906 -14.5 7.328125 -14.5 L 1.1875 -14.5 L 1.1875 -17.890625 L 8.578125 -17.890625 C 10.253906 -17.890625 11.570312 -17.410156 12.53125 -16.453125 C 13.488281 -15.503906 13.96875 -14.019531 13.96875 -12 L 13.96875 -3.390625 Z M 16.078125 -3.390625 "/></g></g></g><g fill="#052554" fill-opacity="1"><g transform="translate(129.840844, 142.35924)"><g><path d="M 14.59375 -17.890625 L 14.59375 -14.15625 L 8.953125 0 L 4.453125 0 L 10.0625 -14.5 L 0.96875 -14.5 L 0.96875 -22.46875 L 5.046875 -22.46875 L 5.046875 -17.890625 Z M 14.59375 -17.890625 "/></g></g></g><g fill="#052554" fill-opacity="1"><g transform="translate(145.440761, 142.35924)"><g/></g></g><g fill="#052554" fill-opacity="1"><g transform="translate(151.705793, 142.35924)"><g><path d="M 1.90625 -14.21875 L 1.53125 -17.890625 L 6.046875 -17.890625 L 6.421875 -14.21875 L 6.421875 0 L 1.90625 0 Z M 1.90625 -14.21875 "/></g></g></g><g fill="#052554" fill-opacity="1"><g transform="translate(159.819008, 142.35924)"><g><path d="M 1.21875 -3.390625 L 5.796875 -3.390625 L 5.796875 -12.4375 C 5.796875 -13.1875 5.65625 -13.71875 5.375 -14.03125 C 5.09375 -14.34375 4.660156 -14.539062 4.078125 -14.625 L 1.875 -14.9375 L 2.4375 -18.265625 L 6.359375 -17.765625 C 7.628906 -17.597656 8.601562 -17.050781 9.28125 -16.125 C 9.96875 -15.207031 10.3125 -14.019531 10.3125 -12.5625 L 10.3125 0 L 1.21875 0 Z M 1.21875 -3.390625 "/></g></g></g><g fill="#052554" fill-opacity="1"><g transform="translate(171.753881, 142.35924)"><g><path d="M 1.90625 -14.21875 L 1.53125 -17.890625 L 6.046875 -17.890625 L 6.421875 -14.21875 L 6.421875 -9.328125 L 6.390625 -7.359375 L 1.90625 -6.578125 Z M 1.90625 -14.21875 "/></g></g></g><g fill="#052554" fill-opacity="1"><g transform="translate(179.867097, 142.35924)"><g><path d="M 1.21875 -3.390625 L 5.796875 -3.390625 L 5.796875 -12.4375 C 5.796875 -13.1875 5.65625 -13.71875 5.375 -14.03125 C 5.09375 -14.34375 4.660156 -14.539062 4.078125 -14.625 L 1.875 -14.9375 L 2.4375 -18.265625 L 6.359375 -17.765625 C 7.628906 -17.597656 8.601562 -17.050781 9.28125 -16.125 C 9.96875 -15.207031 10.3125 -14.019531 10.3125 -12.5625 L 10.3125 0 L 1.21875 0 Z M 1.21875 -3.390625 "/></g></g></g><g fill="#052554" fill-opacity="1"><g transform="translate(191.80197, 142.35924)"><g><path d="M 1.90625 -14.21875 L 1.53125 -17.890625 L 6.046875 -17.890625 L 6.421875 -14.21875 L 6.421875 -9.328125 L 6.390625 -7.359375 L 1.90625 -6.578125 Z M 1.90625 -14.21875 "/></g></g></g><g fill="#052554" fill-opacity="1"><g transform="translate(199.915185, 142.35924)"><g><path d="M 16.078125 -3.390625 L 16.078125 0 L 1.1875 0 L 1.1875 -3.390625 L 9.46875 -3.390625 L 9.46875 -12.21875 C 9.46875 -13.738281 8.753906 -14.5 7.328125 -14.5 L 1.1875 -14.5 L 1.1875 -17.890625 L 8.578125 -17.890625 C 10.253906 -17.890625 11.570312 -17.410156 12.53125 -16.453125 C 13.488281 -15.503906 13.96875 -14.019531 13.96875 -12 L 13.96875 -3.390625 Z M 16.078125 -3.390625 "/></g></g></g><g fill="#052554" fill-opacity="1"><g transform="translate(216.924732, 142.35924)"><g><path d="M 1.90625 -14.21875 L 1.53125 -17.890625 L 6.046875 -17.890625 L 6.421875 -14.21875 L 6.421875 0 L 1.90625 0 Z M 1.90625 -14.21875 "/></g></g></g><g fill="#052554" fill-opacity="1"><g transform="translate(225.037947, 142.35924)"><g/></g></g><g fill="#052554" fill-opacity="1"><g transform="translate(231.302979, 142.35924)"><g><path d="M 1.90625 -14.21875 L 1.53125 -17.890625 L 6.046875 -17.890625 L 6.421875 -14.21875 L 6.421875 0 L 1.90625 0 Z M 1.90625 -14.21875 "/></g></g></g><g fill="#052554" fill-opacity="1"><g transform="translate(239.416194, 142.35924)"><g><path d="M 1.21875 -3.390625 L 5.796875 -3.390625 L 5.796875 -12.4375 C 5.796875 -13.1875 5.65625 -13.71875 5.375 -14.03125 C 5.09375 -14.34375 4.660156 -14.539062 4.078125 -14.625 L 1.875 -14.9375 L 2.4375 -18.265625 L 6.359375 -17.765625 C 7.628906 -17.597656 8.601562 -17.050781 9.28125 -16.125 C 9.96875 -15.207031 10.3125 -14.019531 10.3125 -12.5625 L 10.3125 0 L 1.21875 0 Z M 1.21875 -3.390625 "/></g></g></g><g fill="#052554" fill-opacity="1"><g transform="translate(251.351068, 142.35924)"><g><path d="M 18.890625 -8.921875 C 18.890625 -6.023438 18.210938 -3.742188 16.859375 -2.078125 C 15.515625 -0.421875 13.625 0.40625 11.1875 0.40625 C 10.3125 0.40625 9.347656 0.28125 8.296875 0.03125 L 8.703125 -3.359375 C 9.484375 -3.179688 10.132812 -3.09375 10.65625 -3.09375 C 12.070312 -3.09375 13.082031 -3.566406 13.6875 -4.515625 C 14.289062 -5.472656 14.59375 -6.878906 14.59375 -8.734375 C 14.59375 -10.804688 14.304688 -12.304688 13.734375 -13.234375 C 13.160156 -14.160156 12.28125 -14.625 11.09375 -14.625 C 10.257812 -14.625 9.550781 -14.375 8.96875 -13.875 C 8.394531 -13.375 8.035156 -12.695312 7.890625 -11.84375 L 5.953125 0 L 1.4375 0 L 3.609375 -12.0625 L 1.09375 -17.890625 L 5.796875 -17.890625 L 7.046875 -14.3125 C 7.484375 -15.613281 8.140625 -16.582031 9.015625 -17.21875 C 9.898438 -17.851562 10.90625 -18.171875 12.03125 -18.171875 C 14.257812 -18.171875 15.957031 -17.398438 17.125 -15.859375 C 18.300781 -14.328125 18.890625 -12.015625 18.890625 -8.921875 Z M 18.890625 -8.921875 "/></g></g></g><g fill="#052554" fill-opacity="1"><g transform="translate(271.461802, 142.35924)"><g><path d="M 11.78125 -7.328125 L 15.921875 0 L 0.9375 0 L 0.9375 -3.390625 L 9.46875 -3.390625 L 1.28125 -17.890625 L 5.828125 -17.890625 L 9.359375 -11.59375 L 11.9375 -17.890625 L 16.390625 -17.890625 Z M 11.78125 -7.328125 "/></g></g></g><g fill="#052554" fill-opacity="1"><g transform="translate(288.972559, 142.35924)"><g><path d="M 16.734375 -17.890625 C 16.710938 -13.734375 16.550781 -10.59375 16.25 -8.46875 C 15.945312 -6.351562 15.144531 -4.566406 13.84375 -3.109375 C 12.550781 -1.660156 10.460938 -0.65625 7.578125 -0.09375 L 0.875 1.21875 L 0.25 -2.3125 L 5.234375 -3.265625 L 1.625 -17.890625 L 6.140625 -17.890625 L 9.296875 -4.265625 C 10.242188 -4.722656 10.925781 -5.421875 11.34375 -6.359375 C 11.757812 -7.296875 12.015625 -8.429688 12.109375 -9.765625 C 12.203125 -11.109375 12.25 -13.140625 12.25 -15.859375 L 12.25 -17.890625 Z M 16.734375 -17.890625 "/></g></g></g><g fill="#052554" fill-opacity="1"><g transform="translate(307.015828, 142.35924)"><g/></g></g><g fill="#052554" fill-opacity="1"><g transform="translate(313.280871, 142.35924)"><g><path d="M 1.90625 -14.21875 L 1.53125 -17.890625 L 6.046875 -17.890625 L 6.421875 -14.21875 L 6.421875 6.265625 L 1.90625 6.265625 Z M 1.90625 -14.21875 "/></g></g></g><g fill="#052554" fill-opacity="1"><g transform="translate(321.394086, 142.35924)"><g><path d="M 1.90625 -14.21875 L 1.53125 -17.890625 L 6.046875 -17.890625 L 6.421875 -14.21875 L 6.421875 -9.328125 L 6.390625 -7.359375 L 1.90625 -6.578125 Z M 1.90625 -14.21875 "/></g></g></g><g fill="#052554" fill-opacity="1"><g transform="translate(329.507302, 142.35924)"><g><path d="M 16.078125 -3.390625 L 16.078125 0 L 1.1875 0 L 1.1875 -3.390625 L 9.46875 -3.390625 L 9.46875 -12.21875 C 9.46875 -13.738281 8.753906 -14.5 7.328125 -14.5 L 1.1875 -14.5 L 1.1875 -17.890625 L 8.578125 -17.890625 C 10.253906 -17.890625 11.570312 -17.410156 12.53125 -16.453125 C 13.488281 -15.503906 13.96875 -14.019531 13.96875 -12 L 13.96875 -3.390625 Z M 16.078125 -3.390625 "/></g></g></g><g fill="#052554" fill-opacity="1"><g transform="translate(346.516837, 142.35924)"><g><path d="M 14.59375 -17.890625 L 14.59375 -14.15625 L 8.953125 0 L 4.453125 0 L 10.0625 -14.5 L 0.96875 -14.5 L 0.96875 -22.46875 L 5.046875 -22.46875 L 5.046875 -17.890625 Z M 14.59375 -17.890625 "/></g></g></g><g fill="#052554" fill-opacity="1"><g transform="translate(362.116765, 142.35924)"><g/></g></g><g fill="#052554" fill-opacity="1"><g transform="translate(368.381786, 142.35924)"><g><path d="M 1.90625 -14.21875 L 1.53125 -17.890625 L 6.046875 -17.890625 L 6.421875 -14.21875 L 6.421875 0 L 1.90625 0 Z M 1.90625 -14.21875 "/></g></g></g><g fill="#052554" fill-opacity="1"><g transform="translate(376.495024, 142.35924)"><g><path d="M 1.21875 -3.390625 L 5.796875 -3.390625 L 5.796875 -12.4375 C 5.796875 -13.1875 5.65625 -13.71875 5.375 -14.03125 C 5.09375 -14.34375 4.660156 -14.539062 4.078125 -14.625 L 1.875 -14.9375 L 2.4375 -18.265625 L 6.359375 -17.765625 C 7.628906 -17.597656 8.601562 -17.050781 9.28125 -16.125 C 9.96875 -15.207031 10.3125 -14.019531 10.3125 -12.5625 L 10.3125 0 L 1.21875 0 Z M 1.21875 -3.390625 "/></g></g></g><g fill="#052554" fill-opacity="1"><g transform="translate(388.429897, 142.35924)"><g><path d="M 1.90625 -14.21875 L 1.53125 -17.890625 L 6.046875 -17.890625 L 6.421875 -14.21875 L 6.421875 -9.328125 L 6.390625 -7.359375 L 1.90625 -6.578125 Z M 1.90625 -14.21875 "/></g></g></g><g fill="#052554" fill-opacity="1"><g transform="translate(396.54309, 142.35924)"><g><path d="M 1.21875 -3.390625 L 5.796875 -3.390625 L 5.796875 -12.4375 C 5.796875 -13.1875 5.65625 -13.71875 5.375 -14.03125 C 5.09375 -14.34375 4.660156 -14.539062 4.078125 -14.625 L 1.875 -14.9375 L 2.4375 -18.265625 L 6.359375 -17.765625 C 7.628906 -17.597656 8.601562 -17.050781 9.28125 -16.125 C 9.96875 -15.207031 10.3125 -14.019531 10.3125 -12.5625 L 10.3125 0 L 1.21875 0 Z M 1.21875 -3.390625 "/></g></g></g><g fill="#052554" fill-opacity="1"><g transform="translate(408.477963, 142.35924)"><g><path d="M 1.90625 -14.21875 L 1.53125 -17.890625 L 6.046875 -17.890625 L 6.421875 -14.21875 L 6.421875 -9.328125 L 6.390625 -7.359375 L 1.90625 -6.578125 Z M 1.90625 -14.21875 "/></g></g></g><g fill="#052554" fill-opacity="1"><g transform="translate(416.591201, 142.35924)"><g><path d="M 16.078125 -3.390625 L 16.078125 0 L 1.1875 0 L 1.1875 -3.390625 L 9.46875 -3.390625 L 9.46875 -12.21875 C 9.46875 -13.738281 8.753906 -14.5 7.328125 -14.5 L 1.1875 -14.5 L 1.1875 -17.890625 L 8.578125 -17.890625 C 10.253906 -17.890625 11.570312 -17.410156 12.53125 -16.453125 C 13.488281 -15.503906 13.96875 -14.019531 13.96875 -12 L 13.96875 -3.390625 Z M 16.078125 -3.390625 "/></g></g></g><g fill="#052554" fill-opacity="1"><g transform="translate(433.600736, 142.35924)"><g/></g></g><g fill="#052554" fill-opacity="1"><g transform="translate(439.86578, 142.35924)"><g><path d="M 4.703125 -5.140625 C 5.660156 -5.140625 6.40625 -4.769531 6.9375 -4.03125 C 7.46875 -3.300781 7.734375 -2.28125 7.734375 -0.96875 C 7.734375 0.695312 7.269531 2.132812 6.34375 3.34375 C 5.414062 4.5625 4.082031 5.441406 2.34375 5.984375 L 1.46875 3.671875 C 2.550781 3.285156 3.382812 2.753906 3.96875 2.078125 C 4.5625 1.398438 4.859375 0.65625 4.859375 -0.15625 L 4.609375 -0.15625 C 3.878906 -0.15625 3.253906 -0.375 2.734375 -0.8125 C 2.222656 -1.25 1.96875 -1.851562 1.96875 -2.625 C 1.96875 -3.363281 2.226562 -3.96875 2.75 -4.4375 C 3.28125 -4.90625 3.929688 -5.140625 4.703125 -5.140625 Z M 4.703125 -5.140625 "/></g></g></g><g fill="#052554" fill-opacity="1"><g transform="translate(449.012705, 142.35924)"><g><path d="M 0.5625 -2.53125 C 1.351562 -2.613281 1.945312 -2.769531 2.34375 -3 C 2.738281 -3.238281 3.007812 -3.5625 3.15625 -3.96875 C 3.3125 -4.375 3.378906 -4.953125 3.359375 -5.703125 L 3.359375 -17.890625 L 12.84375 -17.890625 C 14.507812 -17.890625 15.820312 -17.410156 16.78125 -16.453125 C 17.75 -15.503906 18.234375 -14.019531 18.234375 -12 L 18.234375 0 L 13.71875 0 L 13.71875 -12.21875 C 13.71875 -13.738281 13.007812 -14.5 11.59375 -14.5 L 7.890625 -14.5 L 7.890625 -6.296875 C 7.890625 -4.710938 7.644531 -3.445312 7.15625 -2.5 C 6.664062 -1.5625 5.925781 -0.859375 4.9375 -0.390625 C 3.945312 0.078125 2.613281 0.382812 0.9375 0.53125 Z M 0.5625 -2.53125 "/></g></g></g><g fill="#052554" fill-opacity="1"><g transform="translate(468.904168, 142.35924)"><g><path d="M 1.90625 -14.21875 L 1.53125 -17.890625 L 6.046875 -17.890625 L 6.421875 -14.21875 L 6.421875 0 L 1.90625 0 Z M 1.90625 -14.21875 "/></g></g></g><g fill="#052554" fill-opacity="1"><g transform="translate(477.017383, 142.35924)"><g><path d="M 14.59375 -17.890625 L 14.59375 -14.15625 L 8.953125 0 L 4.453125 0 L 10.0625 -14.5 L 0.96875 -14.5 L 0.96875 -22.46875 L 5.046875 -22.46875 L 5.046875 -17.890625 Z M 14.59375 -17.890625 "/></g></g></g><g fill="#052554" fill-opacity="1"><g transform="translate(492.617289, 142.35924)"><g><path d="M 1.90625 -14.21875 L 1.53125 -17.890625 L 6.046875 -17.890625 L 6.421875 -14.21875 L 6.421875 0 L 1.90625 0 Z M 1.90625 -14.21875 "/></g></g></g><g fill="#052554" fill-opacity="1"><g transform="translate(500.730527, 142.35924)"><g><path d="M 16.734375 -17.890625 C 16.710938 -13.734375 16.550781 -10.59375 16.25 -8.46875 C 15.945312 -6.351562 15.144531 -4.566406 13.84375 -3.109375 C 12.550781 -1.660156 10.460938 -0.65625 7.578125 -0.09375 L 0.875 1.21875 L 0.25 -2.3125 L 5.234375 -3.265625 L 1.625 -17.890625 L 6.140625 -17.890625 L 9.296875 -4.265625 C 10.242188 -4.722656 10.925781 -5.421875 11.34375 -6.359375 C 11.757812 -7.296875 12.015625 -8.429688 12.109375 -9.765625 C 12.203125 -11.109375 12.25 -13.140625 12.25 -15.859375 L 12.25 -17.890625 Z M 16.734375 -17.890625 "/></g></g></g><g fill="#052554" fill-opacity="1"><g transform="translate(518.773795, 142.35924)"><g><path d="M 1.65625 -3.390625 L 7.984375 -3.390625 C 9.203125 -3.390625 10.148438 -3.78125 10.828125 -4.5625 C 11.503906 -5.34375 11.84375 -6.421875 11.84375 -7.796875 L 11.84375 -10.125 C 11.84375 -11.4375 11.546875 -12.492188 10.953125 -13.296875 C 10.359375 -14.097656 9.484375 -14.5 8.328125 -14.5 L 6.078125 -14.5 L 5.515625 -11.84375 C 5.453125 -11.570312 5.421875 -11.3125 5.421875 -11.0625 C 5.421875 -10.539062 5.578125 -10.140625 5.890625 -9.859375 C 6.203125 -9.578125 6.710938 -9.359375 7.421875 -9.203125 L 6.703125 -6.390625 C 4.847656 -6.429688 3.5 -6.847656 2.65625 -7.640625 C 1.820312 -8.429688 1.40625 -9.507812 1.40625 -10.875 C 1.40625 -11.375 1.445312 -11.832031 1.53125 -12.25 L 2.78125 -17.890625 L 9.40625 -17.890625 C 11.570312 -17.890625 13.269531 -17.164062 14.5 -15.71875 C 15.738281 -14.28125 16.359375 -12.34375 16.359375 -9.90625 L 16.359375 -8.015625 C 16.359375 -5.515625 15.695312 -3.550781 14.375 -2.125 C 13.0625 -0.707031 11.285156 0 9.046875 0 L 1.65625 0 Z M 1.65625 -3.390625 "/></g></g></g><g fill="#052554" fill-opacity="1"><g transform="translate(536.221896, 142.35924)"><g/></g></g><g fill="#052554" fill-opacity="1"><g transform="translate(542.486917, 142.35924)"><g><path d="M 9.078125 -12.21875 C 9.078125 -13.738281 8.378906 -14.5 6.984375 -14.5 L 0.875 -14.5 L 0.875 -17.890625 L 8.203125 -17.890625 C 9.878906 -17.890625 11.203125 -17.410156 12.171875 -16.453125 C 13.140625 -15.503906 13.625 -14.019531 13.625 -12 L 13.625 0 L 9.078125 0 Z M 9.078125 -12.21875 "/></g></g></g><g fill="#052554" fill-opacity="1"><g transform="translate(557.773594, 142.35924)"><g><path d="M 1.65625 -3.390625 L 7.984375 -3.390625 C 9.203125 -3.390625 10.148438 -3.78125 10.828125 -4.5625 C 11.503906 -5.34375 11.84375 -6.421875 11.84375 -7.796875 L 11.84375 -10.125 C 11.84375 -11.4375 11.546875 -12.492188 10.953125 -13.296875 C 10.359375 -14.097656 9.484375 -14.5 8.328125 -14.5 L 6.078125 -14.5 L 5.515625 -11.84375 C 5.453125 -11.570312 5.421875 -11.3125 5.421875 -11.0625 C 5.421875 -10.539062 5.578125 -10.140625 5.890625 -9.859375 C 6.203125 -9.578125 6.710938 -9.359375 7.421875 -9.203125 L 6.703125 -6.390625 C 4.847656 -6.429688 3.5 -6.847656 2.65625 -7.640625 C 1.820312 -8.429688 1.40625 -9.507812 1.40625 -10.875 C 1.40625 -11.375 1.445312 -11.832031 1.53125 -12.25 L 2.78125 -17.890625 L 9.40625 -17.890625 C 11.570312 -17.890625 13.269531 -17.164062 14.5 -15.71875 C 15.738281 -14.28125 16.359375 -12.34375 16.359375 -9.90625 L 16.359375 -8.015625 C 16.359375 -5.515625 15.695312 -3.550781 14.375 -2.125 C 13.0625 -0.707031 11.285156 0 9.046875 0 L 1.65625 0 Z M 1.65625 -3.390625 "/></g></g></g><g fill="#052554" fill-opacity="1"><g transform="translate(575.221695, 142.35924)"><g><path d="M 17.453125 -10.34375 C 17.578125 -6.664062 16.425781 -4.003906 14 -2.359375 C 11.582031 -0.722656 8.054688 0.164062 3.421875 0.3125 L 1.6875 -14.5 L 1.25 -17.890625 L 10.875 -17.890625 C 12.914062 -17.890625 14.5 -17.304688 15.625 -16.140625 C 16.757812 -14.984375 17.359375 -13.394531 17.421875 -11.375 Z M 7.359375 -3.703125 C 8.847656 -3.804688 10.003906 -4.113281 10.828125 -4.625 C 11.648438 -5.132812 12.222656 -5.851562 12.546875 -6.78125 C 12.867188 -7.707031 13.007812 -8.925781 12.96875 -10.4375 L 12.96875 -11.375 C 12.96875 -12.332031 12.75 -13.09375 12.3125 -13.65625 C 11.875 -14.21875 11.28125 -14.5 10.53125 -14.5 L 6.203125 -14.5 Z M 7.359375 -3.703125 "/></g></g></g><g fill="#052554" fill-opacity="1"><g transform="translate(594.173382, 142.35924)"><g><path d="M 18.890625 -8.921875 C 18.890625 -6.023438 18.210938 -3.742188 16.859375 -2.078125 C 15.515625 -0.421875 13.625 0.40625 11.1875 0.40625 C 10.3125 0.40625 9.347656 0.28125 8.296875 0.03125 L 8.703125 -3.359375 C 9.484375 -3.179688 10.132812 -3.09375 10.65625 -3.09375 C 12.070312 -3.09375 13.082031 -3.566406 13.6875 -4.515625 C 14.289062 -5.472656 14.59375 -6.878906 14.59375 -8.734375 C 14.59375 -10.804688 14.304688 -12.304688 13.734375 -13.234375 C 13.160156 -14.160156 12.28125 -14.625 11.09375 -14.625 C 10.257812 -14.625 9.550781 -14.375 8.96875 -13.875 C 8.394531 -13.375 8.035156 -12.695312 7.890625 -11.84375 L 5.953125 0 L 1.4375 0 L 3.609375 -12.0625 L 1.09375 -17.890625 L 5.796875 -17.890625 L 7.046875 -14.3125 C 7.484375 -15.613281 8.140625 -16.582031 9.015625 -17.21875 C 9.898438 -17.851562 10.90625 -18.171875 12.03125 -18.171875 C 14.257812 -18.171875 15.957031 -17.398438 17.125 -15.859375 C 18.300781 -14.328125 18.890625 -12.015625 18.890625 -8.921875 Z M 18.890625 -8.921875 "/></g></g></g><g fill="#052554" fill-opacity="1"><g transform="translate(614.284116, 142.35924)"><g><path d="M 16.078125 -3.390625 L 16.078125 0 L 1.1875 0 L 1.1875 -3.390625 L 9.46875 -3.390625 L 9.46875 -12.21875 C 9.46875 -13.738281 8.753906 -14.5 7.328125 -14.5 L 1.1875 -14.5 L 1.1875 -17.890625 L 8.578125 -17.890625 C 10.253906 -17.890625 11.570312 -17.410156 12.53125 -16.453125 C 13.488281 -15.503906 13.96875 -14.019531 13.96875 -12 L 13.96875 -3.390625 Z M 16.078125 -3.390625 "/></g></g></g><g fill="#052554" fill-opacity="1"><g transform="translate(98.5722, 185.827943)"><g><path d="M 11.5625 -17.890625 C 13.226562 -17.890625 14.546875 -17.410156 15.515625 -16.453125 C 16.492188 -15.503906 16.984375 -14.019531 16.984375 -12 L 16.984375 0 L 1.65625 0 L 1.65625 -17.890625 Z M 12.4375 -3.390625 L 12.4375 -12.21875 C 12.4375 -13.738281 11.738281 -14.5 10.34375 -14.5 L 6.171875 -14.5 L 6.171875 -3.390625 Z M 12.4375 -3.390625 "/></g></g></g><g fill="#052554" fill-opacity="1"><g transform="translate(117.116679, 185.827943)"><g><path d="M 1.90625 -14.21875 L 1.53125 -17.890625 L 6.046875 -17.890625 L 6.421875 -14.21875 L 6.421875 -9.328125 L 6.390625 -7.359375 L 1.90625 -6.578125 Z M 1.90625 -14.21875 "/></g></g></g><g fill="#052554" fill-opacity="1"><g transform="translate(125.229894, 185.827943)"><g><path d="M 14.59375 -17.890625 L 14.59375 -14.15625 L 8.953125 0 L 4.453125 0 L 10.0625 -14.5 L 0.96875 -14.5 L 0.96875 -22.46875 L 5.046875 -22.46875 L 5.046875 -17.890625 Z M 14.59375 -17.890625 "/></g></g></g><g fill="#052554" fill-opacity="1"><g transform="translate(140.829812, 185.827943)"><g><path d="M 1.90625 -14.21875 L 1.53125 -17.890625 L 6.046875 -17.890625 L 6.421875 -14.21875 L 6.421875 0 L 1.90625 0 Z M 1.90625 -14.21875 "/></g></g></g><g fill="#052554" fill-opacity="1"><g transform="translate(148.943027, 185.827943)"><g><path d="M 0.90625 -3.390625 L 5.921875 -3.390625 C 7.128906 -3.390625 8.019531 -3.785156 8.59375 -4.578125 C 9.175781 -5.367188 9.46875 -6.429688 9.46875 -7.765625 L 9.46875 -10.125 C 9.46875 -11.457031 9.175781 -12.519531 8.59375 -13.3125 C 8.019531 -14.101562 7.128906 -14.5 5.921875 -14.5 L 0.90625 -14.5 L 0.90625 -17.890625 L 7.140625 -17.890625 C 9.378906 -17.890625 11.082031 -17.171875 12.25 -15.734375 C 13.414062 -14.304688 14 -12.351562 14 -9.875 L 14 -8.015625 C 14 -5.535156 13.414062 -3.578125 12.25 -2.140625 C 11.082031 -0.710938 9.378906 0 7.140625 0 L 0.90625 0 Z M 0.90625 -3.390625 "/></g></g></g><g fill="#052554" fill-opacity="1"><g transform="translate(164.135725, 185.827943)"><g><path d="M 1.90625 -14.21875 L 1.53125 -17.890625 L 6.046875 -17.890625 L 6.421875 -14.21875 L 6.421875 -9.328125 L 6.390625 -7.359375 L 1.90625 -6.578125 Z M 1.90625 -14.21875 "/></g></g></g><g fill="#052554" fill-opacity="1"><g transform="translate(172.24894, 185.827943)"><g/></g></g><g fill="#052554" fill-opacity="1"><g transform="translate(178.513972, 185.827943)"><g><path d="M 9.4375 -17.890625 C 11.582031 -17.890625 13.207031 -17.175781 14.3125 -15.75 C 15.425781 -14.332031 15.984375 -12.382812 15.984375 -9.90625 L 15.984375 6.265625 L 11.46875 6.265625 L 11.46875 -10.125 C 11.46875 -11.457031 11.207031 -12.519531 10.6875 -13.3125 C 10.164062 -14.101562 9.335938 -14.5 8.203125 -14.5 L 5.828125 -14.5 L 5.453125 -12.40625 C 5.410156 -11.945312 5.390625 -11.613281 5.390625 -11.40625 C 5.390625 -10.78125 5.5 -10.28125 5.71875 -9.90625 C 5.9375 -9.539062 6.328125 -9.328125 6.890625 -9.265625 L 6.078125 -6.546875 C 2.796875 -6.628906 1.15625 -8.039062 1.15625 -10.78125 C 1.15625 -11.238281 1.226562 -11.851562 1.375 -12.625 L 2.53125 -17.890625 Z M 9.4375 -17.890625 "/></g></g></g><g fill="#052554" fill-opacity="1"><g transform="translate(196.181355, 185.827943)"><g><path d="M 9.078125 -12.21875 C 9.078125 -13.738281 8.378906 -14.5 6.984375 -14.5 L 0.875 -14.5 L 0.875 -17.890625 L 8.203125 -17.890625 C 9.878906 -17.890625 11.203125 -17.410156 12.171875 -16.453125 C 13.140625 -15.503906 13.625 -14.019531 13.625 -12 L 13.625 0 L 9.078125 0 Z M 9.078125 -12.21875 "/></g></g></g><g fill="#052554" fill-opacity="1"><g transform="translate(211.468021, 185.827943)"><g><path d="M 1.90625 -14.21875 L 1.53125 -17.890625 L 6.046875 -17.890625 L 6.421875 -14.21875 L 6.421875 0 L 1.90625 0 Z M 1.90625 -14.21875 "/></g></g></g><g fill="#052554" fill-opacity="1"><g transform="translate(219.581236, 185.827943)"><g><path d="M 16.734375 -17.890625 C 16.710938 -13.734375 16.550781 -10.59375 16.25 -8.46875 C 15.945312 -6.351562 15.144531 -4.566406 13.84375 -3.109375 C 12.550781 -1.660156 10.460938 -0.65625 7.578125 -0.09375 L 0.875 1.21875 L 0.25 -2.3125 L 5.234375 -3.265625 L 1.625 -17.890625 L 6.140625 -17.890625 L 9.296875 -4.265625 C 10.242188 -4.722656 10.925781 -5.421875 11.34375 -6.359375 C 11.757812 -7.296875 12.015625 -8.429688 12.109375 -9.765625 C 12.203125 -11.109375 12.25 -13.140625 12.25 -15.859375 L 12.25 -17.890625 Z M 16.734375 -17.890625 "/></g></g></g><g fill="#052554" fill-opacity="1"><g transform="translate(237.624515, 185.827943)"><g><path d="M 16.078125 -3.390625 L 16.078125 0 L 1.1875 0 L 1.1875 -3.390625 L 9.46875 -3.390625 L 9.46875 -12.21875 C 9.46875 -13.738281 8.753906 -14.5 7.328125 -14.5 L 1.1875 -14.5 L 1.1875 -17.890625 L 8.578125 -17.890625 C 10.253906 -17.890625 11.570312 -17.410156 12.53125 -16.453125 C 13.488281 -15.503906 13.96875 -14.019531 13.96875 -12 L 13.96875 -3.390625 Z M 16.078125 -3.390625 "/></g></g></g><g fill="#052554" fill-opacity="1"><g transform="translate(254.634062, 185.827943)"><g/></g></g><g fill="#052554" fill-opacity="1"><g transform="translate(260.899094, 185.827943)"><g><path d="M 1.90625 -14.21875 L 1.53125 -17.890625 L 6.046875 -17.890625 L 6.421875 -14.21875 L 6.421875 0 L 1.90625 0 Z M 1.90625 -14.21875 "/></g></g></g><g fill="#052554" fill-opacity="1"><g transform="translate(269.012309, 185.827943)"><g><path d="M 1.21875 -3.390625 L 5.796875 -3.390625 L 5.796875 -12.4375 C 5.796875 -13.1875 5.65625 -13.71875 5.375 -14.03125 C 5.09375 -14.34375 4.660156 -14.539062 4.078125 -14.625 L 1.875 -14.9375 L 2.4375 -18.265625 L 6.359375 -17.765625 C 7.628906 -17.597656 8.601562 -17.050781 9.28125 -16.125 C 9.96875 -15.207031 10.3125 -14.019531 10.3125 -12.5625 L 10.3125 0 L 1.21875 0 Z M 1.21875 -3.390625 "/></g></g></g><g fill="#052554" fill-opacity="1"><g transform="translate(280.947182, 185.827943)"><g><path d="M 0.5625 -2.53125 C 1.351562 -2.613281 1.945312 -2.769531 2.34375 -3 C 2.738281 -3.238281 3.007812 -3.5625 3.15625 -3.96875 C 3.3125 -4.375 3.378906 -4.953125 3.359375 -5.703125 L 3.359375 -17.890625 L 12.84375 -17.890625 C 14.507812 -17.890625 15.820312 -17.410156 16.78125 -16.453125 C 17.75 -15.503906 18.234375 -14.019531 18.234375 -12 L 18.234375 0 L 13.71875 0 L 13.71875 -12.21875 C 13.71875 -13.738281 13.007812 -14.5 11.59375 -14.5 L 7.890625 -14.5 L 7.890625 -6.296875 C 7.890625 -4.710938 7.644531 -3.445312 7.15625 -2.5 C 6.664062 -1.5625 5.925781 -0.859375 4.9375 -0.390625 C 3.945312 0.078125 2.613281 0.382812 0.9375 0.53125 Z M 0.5625 -2.53125 "/></g></g></g><g fill="#052554" fill-opacity="1"><g transform="translate(300.838634, 185.827943)"><g><path d="M 1.90625 -14.21875 L 1.53125 -17.890625 L 6.046875 -17.890625 L 6.421875 -14.21875 L 6.421875 -9.328125 L 6.390625 -7.359375 L 1.90625 -6.578125 Z M 1.90625 -14.21875 "/></g></g></g><g fill="#052554" fill-opacity="1"><g transform="translate(308.951872, 185.827943)"><g><path d="M 13.625 0 L 7.734375 -9.109375 L 4.953125 0 L 0.65625 0 L 4.140625 -10.75 L 5.109375 -13.15625 L 2.1875 -17.890625 L 6.734375 -17.890625 L 9.234375 -13.8125 L 11.5 -10.40625 L 12.34375 -13.25 L 13.59375 -17.890625 L 17.890625 -17.890625 L 14.125 -6.484375 L 18.453125 0 Z M 13.625 0 "/></g></g></g><g fill="#052554" fill-opacity="1"><g transform="translate(328.279479, 185.827943)"><g><path d="M 18.890625 -8.921875 C 18.890625 -6.023438 18.210938 -3.742188 16.859375 -2.078125 C 15.515625 -0.421875 13.625 0.40625 11.1875 0.40625 C 10.3125 0.40625 9.347656 0.28125 8.296875 0.03125 L 8.703125 -3.359375 C 9.484375 -3.179688 10.132812 -3.09375 10.65625 -3.09375 C 12.070312 -3.09375 13.082031 -3.566406 13.6875 -4.515625 C 14.289062 -5.472656 14.59375 -6.878906 14.59375 -8.734375 C 14.59375 -10.804688 14.304688 -12.304688 13.734375 -13.234375 C 13.160156 -14.160156 12.28125 -14.625 11.09375 -14.625 C 10.257812 -14.625 9.550781 -14.375 8.96875 -13.875 C 8.394531 -13.375 8.035156 -12.695312 7.890625 -11.84375 L 5.953125 0 L 1.4375 0 L 3.609375 -12.0625 L 1.09375 -17.890625 L 5.796875 -17.890625 L 7.046875 -14.3125 C 7.484375 -15.613281 8.140625 -16.582031 9.015625 -17.21875 C 9.898438 -17.851562 10.90625 -18.171875 12.03125 -18.171875 C 14.257812 -18.171875 15.957031 -17.398438 17.125 -15.859375 C 18.300781 -14.328125 18.890625 -12.015625 18.890625 -8.921875 Z M 18.890625 -8.921875 "/></g></g></g><g fill="#052554" fill-opacity="1"><g transform="translate(348.390213, 185.827943)"><g/></g></g><g fill="#052554" fill-opacity="1"><g transform="translate(354.655233, 185.827943)"><g><path d="M 0.5625 -2.53125 C 1.351562 -2.613281 1.945312 -2.769531 2.34375 -3 C 2.738281 -3.238281 3.007812 -3.5625 3.15625 -3.96875 C 3.3125 -4.375 3.378906 -4.953125 3.359375 -5.703125 L 3.359375 -17.890625 L 12.84375 -17.890625 C 14.507812 -17.890625 15.820312 -17.410156 16.78125 -16.453125 C 17.75 -15.503906 18.234375 -14.019531 18.234375 -12 L 18.234375 0 L 13.71875 0 L 13.71875 -12.21875 C 13.71875 -13.738281 13.007812 -14.5 11.59375 -14.5 L 7.890625 -14.5 L 7.890625 -6.296875 C 7.890625 -4.710938 7.644531 -3.445312 7.15625 -2.5 C 6.664062 -1.5625 5.925781 -0.859375 4.9375 -0.390625 C 3.945312 0.078125 2.613281 0.382812 0.9375 0.53125 Z M 0.5625 -2.53125 "/></g></g></g><g fill="#052554" fill-opacity="1"><g transform="translate(374.546696, 185.827943)"><g><path d="M 11.625 -17.890625 C 13.289062 -17.890625 14.609375 -17.382812 15.578125 -16.375 C 16.554688 -15.375 17.046875 -13.863281 17.046875 -11.84375 L 17.046875 0 L 12.5 0 L 12.5 -12.0625 C 12.5 -13.6875 11.800781 -14.5 10.40625 -14.5 L 6.203125 -14.5 L 6.203125 0 L 1.6875 0 L 1.6875 -17.890625 Z M 11.625 -17.890625 "/></g></g></g><g fill="#052554" fill-opacity="1"><g transform="translate(393.185155, 185.827943)"><g><path d="M 13.625 0 L 7.734375 -9.109375 L 4.953125 0 L 0.65625 0 L 4.140625 -10.75 L 5.109375 -13.15625 L 2.1875 -17.890625 L 6.734375 -17.890625 L 9.234375 -13.8125 L 11.5 -10.40625 L 12.34375 -13.25 L 13.59375 -17.890625 L 17.890625 -17.890625 L 14.125 -6.484375 L 18.453125 0 Z M 13.625 0 "/></g></g></g><g fill="#052554" fill-opacity="1"><g transform="translate(412.512762, 185.827943)"><g><path d="M 1.90625 -14.21875 L 1.53125 -17.890625 L 6.046875 -17.890625 L 6.421875 -14.21875 L 6.421875 0 L 1.90625 0 Z M 1.90625 -14.21875 "/></g></g></g><g fill="#052554" fill-opacity="1"><g transform="translate(420.625977, 185.827943)"><g/></g></g><g fill="#052554" fill-opacity="1"><g transform="translate(426.89102, 185.827943)"><g><path d="M 8.234375 -10.84375 C 8.234375 -11.632812 8.3125 -12.347656 8.46875 -12.984375 C 8.625 -13.617188 8.835938 -14.125 9.109375 -14.5 L 1.09375 -14.5 L 1.09375 -17.890625 L 15.796875 -17.890625 L 15.796875 -14.5 L 13.34375 -14.5 C 12.945312 -13.601562 12.75 -12.382812 12.75 -10.84375 L 12.75 0 L 8.234375 0 Z M 8.234375 -10.84375 "/></g></g></g><g fill="#052554" fill-opacity="1"><g transform="translate(443.869245, 185.827943)"><g><path d="M 11.625 -17.890625 C 13.289062 -17.890625 14.609375 -17.382812 15.578125 -16.375 C 16.554688 -15.375 17.046875 -13.863281 17.046875 -11.84375 L 17.046875 0 L 12.5 0 L 12.5 -12.0625 C 12.5 -13.6875 11.800781 -14.5 10.40625 -14.5 L 6.203125 -14.5 L 6.203125 0 L 1.6875 0 L 1.6875 -17.890625 Z M 11.625 -17.890625 "/></g></g></g><g fill="#052554" fill-opacity="1"><g transform="translate(462.507681, 185.827943)"><g><path d="M 13.625 0 L 7.734375 -9.109375 L 4.953125 0 L 0.65625 0 L 4.140625 -10.75 L 5.109375 -13.15625 L 2.1875 -17.890625 L 6.734375 -17.890625 L 9.234375 -13.8125 L 11.5 -10.40625 L 12.34375 -13.25 L 13.59375 -17.890625 L 17.890625 -17.890625 L 14.125 -6.484375 L 18.453125 0 Z M 13.625 0 "/></g></g></g><g fill="#052554" fill-opacity="1"><g transform="translate(481.835287, 185.827943)"><g/></g></g><g fill="#052554" fill-opacity="1"><g transform="translate(488.100308, 185.827943)"><g><path d="M 14.59375 -17.890625 L 14.59375 -14.15625 L 8.953125 0 L 4.453125 0 L 10.0625 -14.5 L 0.96875 -14.5 L 0.96875 -22.46875 L 5.046875 -22.46875 L 5.046875 -17.890625 Z M 14.59375 -17.890625 "/></g></g></g><g fill="#052554" fill-opacity="1"><g transform="translate(503.700236, 185.827943)"><g><path d="M 0.90625 -3.390625 L 5.921875 -3.390625 C 7.128906 -3.390625 8.019531 -3.785156 8.59375 -4.578125 C 9.175781 -5.367188 9.46875 -6.429688 9.46875 -7.765625 L 9.46875 -10.125 C 9.46875 -11.457031 9.175781 -12.519531 8.59375 -13.3125 C 8.019531 -14.101562 7.128906 -14.5 5.921875 -14.5 L 0.90625 -14.5 L 0.90625 -17.890625 L 7.140625 -17.890625 C 9.378906 -17.890625 11.082031 -17.171875 12.25 -15.734375 C 13.414062 -14.304688 14 -12.351562 14 -9.875 L 14 -8.015625 C 14 -5.535156 13.414062 -3.578125 12.25 -2.140625 C 11.082031 -0.710938 9.378906 0 7.140625 0 L 0.90625 0 Z M 0.90625 -3.390625 "/></g></g></g><g fill="#052554" fill-opacity="1"><g transform="translate(518.892956, 185.827943)"><g/></g></g><g fill="#052554" fill-opacity="1"><g transform="translate(525.157977, 185.827943)"><g><path d="M 4.703125 -5.140625 C 5.660156 -5.140625 6.40625 -4.769531 6.9375 -4.03125 C 7.46875 -3.300781 7.734375 -2.28125 7.734375 -0.96875 C 7.734375 0.695312 7.269531 2.132812 6.34375 3.34375 C 5.414062 4.5625 4.082031 5.441406 2.34375 5.984375 L 1.46875 3.671875 C 2.550781 3.285156 3.382812 2.753906 3.96875 2.078125 C 4.5625 1.398438 4.859375 0.65625 4.859375 -0.15625 L 4.609375 -0.15625 C 3.878906 -0.15625 3.253906 -0.375 2.734375 -0.8125 C 2.222656 -1.25 1.96875 -1.851562 1.96875 -2.625 C 1.96875 -3.363281 2.226562 -3.96875 2.75 -4.4375 C 3.28125 -4.90625 3.929688 -5.140625 4.703125 -5.140625 Z M 4.703125 -5.140625 "/></g></g></g><g fill="#052554" fill-opacity="1"><g transform="translate(534.304925, 185.827943)"><g><path d="M 11.96875 -12.21875 C 11.96875 -13.738281 11.269531 -14.5 9.875 -14.5 L 1.6875 -14.5 L 1.6875 -17.890625 L 11.09375 -17.890625 C 12.757812 -17.890625 14.078125 -17.410156 15.046875 -16.453125 C 16.023438 -15.503906 16.515625 -14.019531 16.515625 -12 L 16.515625 0 L 11.96875 0 Z M 1.5 -8.546875 L 2.125 -10.65625 L 6.046875 -10.65625 L 6.046875 0 L 1.5 0 Z M 1.5 -8.546875 "/></g></g></g><g fill="#052554" fill-opacity="1"><g transform="translate(552.254191, 185.827943)"><g><path d="M 16.078125 -3.390625 L 16.078125 0 L 1.1875 0 L 1.1875 -3.390625 L 9.46875 -3.390625 L 9.46875 -12.21875 C 9.46875 -13.738281 8.753906 -14.5 7.328125 -14.5 L 1.1875 -14.5 L 1.1875 -17.890625 L 8.578125 -17.890625 C 10.253906 -17.890625 11.570312 -17.410156 12.53125 -16.453125 C 13.488281 -15.503906 13.96875 -14.019531 13.96875 -12 L 13.96875 -3.390625 Z M 16.078125 -3.390625 "/></g></g></g><g fill="#052554" fill-opacity="1"><g transform="translate(569.263749, 185.827943)"><g><path d="M 1.90625 -14.21875 L 1.53125 -17.890625 L 6.046875 -17.890625 L 6.421875 -14.21875 L 6.421875 -9.328125 L 6.390625 -7.359375 L 1.90625 -6.578125 Z M 1.90625 -14.21875 "/></g></g></g><g fill="#052554" fill-opacity="1"><g transform="translate(577.376987, 185.827943)"><g><path d="M 16.078125 -3.390625 L 16.078125 0 L 1.1875 0 L 1.1875 -3.390625 L 9.46875 -3.390625 L 9.46875 -12.21875 C 9.46875 -13.738281 8.753906 -14.5 7.328125 -14.5 L 1.1875 -14.5 L 1.1875 -17.890625 L 8.578125 -17.890625 C 10.253906 -17.890625 11.570312 -17.410156 12.53125 -16.453125 C 13.488281 -15.503906 13.96875 -14.019531 13.96875 -12 L 13.96875 -3.390625 Z M 16.078125 -3.390625 "/></g></g></g><g fill="#052554" fill-opacity="1"><g transform="translate(594.386546, 185.827943)"><g><path d="M 17.453125 -10.34375 C 17.578125 -6.664062 16.425781 -4.003906 14 -2.359375 C 11.582031 -0.722656 8.054688 0.164062 3.421875 0.3125 L 1.6875 -14.5 L 1.25 -17.890625 L 10.875 -17.890625 C 12.914062 -17.890625 14.5 -17.304688 15.625 -16.140625 C 16.757812 -14.984375 17.359375 -13.394531 17.421875 -11.375 Z M 7.359375 -3.703125 C 8.847656 -3.804688 10.003906 -4.113281 10.828125 -4.625 C 11.648438 -5.132812 12.222656 -5.851562 12.546875 -6.78125 C 12.867188 -7.707031 13.007812 -8.925781 12.96875 -10.4375 L 12.96875 -11.375 C 12.96875 -12.332031 12.75 -13.09375 12.3125 -13.65625 C 11.875 -14.21875 11.28125 -14.5 10.53125 -14.5 L 6.203125 -14.5 Z M 7.359375 -3.703125 "/></g></g></g><g fill="#052554" fill-opacity="1"><g transform="translate(613.338233, 185.827943)"><g><path d="M 11.96875 -12.21875 C 11.96875 -13.738281 11.269531 -14.5 9.875 -14.5 L 1.6875 -14.5 L 1.6875 -17.890625 L 11.09375 -17.890625 C 12.757812 -17.890625 14.078125 -17.410156 15.046875 -16.453125 C 16.023438 -15.503906 16.515625 -14.019531 16.515625 -12 L 16.515625 0 L 11.96875 0 Z M 1.5 -8.546875 L 2.125 -10.65625 L 6.046875 -10.65625 L 6.046875 0 L 1.5 0 Z M 1.5 -8.546875 "/></g></g></g><g fill="#052554" fill-opacity="1"><g transform="translate(119.943532, 229.296647)"><g><path d="M 11.96875 -12.21875 C 11.96875 -13.738281 11.269531 -14.5 9.875 -14.5 L 1.6875 -14.5 L 1.6875 -17.890625 L 11.09375 -17.890625 C 12.757812 -17.890625 14.078125 -17.410156 15.046875 -16.453125 C 16.023438 -15.503906 16.515625 -14.019531 16.515625 -12 L 16.515625 0 L 11.96875 0 Z M 1.5 -8.546875 L 2.125 -10.65625 L 6.046875 -10.65625 L 6.046875 0 L 1.5 0 Z M 1.5 -8.546875 "/></g></g></g><g fill="#052554" fill-opacity="1"><g transform="translate(137.892832, 229.296647)"><g><path d="M 14.59375 -17.890625 L 14.59375 -14.15625 L 8.953125 0 L 4.453125 0 L 10.0625 -14.5 L 0.96875 -14.5 L 0.96875 -22.46875 L 5.046875 -22.46875 L 5.046875 -17.890625 Z M 14.59375 -17.890625 "/></g></g></g><g fill="#052554" fill-opacity="1"><g transform="translate(153.492749, 229.296647)"><g><path d="M 1.90625 -14.21875 L 1.53125 -17.890625 L 6.046875 -17.890625 L 6.421875 -14.21875 L 6.421875 0 L 1.90625 0 Z M 1.90625 -14.21875 "/></g></g></g><g fill="#052554" fill-opacity="1"><g transform="translate(161.605965, 229.296647)"><g><path d="M 16.734375 -17.890625 C 16.710938 -13.734375 16.550781 -10.59375 16.25 -8.46875 C 15.945312 -6.351562 15.144531 -4.566406 13.84375 -3.109375 C 12.550781 -1.660156 10.460938 -0.65625 7.578125 -0.09375 L 0.875 1.21875 L 0.25 -2.3125 L 5.234375 -3.265625 L 1.625 -17.890625 L 6.140625 -17.890625 L 9.296875 -4.265625 C 10.242188 -4.722656 10.925781 -5.421875 11.34375 -6.359375 C 11.757812 -7.296875 12.015625 -8.429688 12.109375 -9.765625 C 12.203125 -11.109375 12.25 -13.140625 12.25 -15.859375 L 12.25 -17.890625 Z M 16.734375 -17.890625 "/></g></g></g><g fill="#052554" fill-opacity="1"><g transform="translate(179.649244, 229.296647)"><g><path d="M 1.65625 -3.390625 L 7.984375 -3.390625 C 9.203125 -3.390625 10.148438 -3.78125 10.828125 -4.5625 C 11.503906 -5.34375 11.84375 -6.421875 11.84375 -7.796875 L 11.84375 -10.125 C 11.84375 -11.4375 11.546875 -12.492188 10.953125 -13.296875 C 10.359375 -14.097656 9.484375 -14.5 8.328125 -14.5 L 6.078125 -14.5 L 5.515625 -11.84375 C 5.453125 -11.570312 5.421875 -11.3125 5.421875 -11.0625 C 5.421875 -10.539062 5.578125 -10.140625 5.890625 -9.859375 C 6.203125 -9.578125 6.710938 -9.359375 7.421875 -9.203125 L 6.703125 -6.390625 C 4.847656 -6.429688 3.5 -6.847656 2.65625 -7.640625 C 1.820312 -8.429688 1.40625 -9.507812 1.40625 -10.875 C 1.40625 -11.375 1.445312 -11.832031 1.53125 -12.25 L 2.78125 -17.890625 L 9.40625 -17.890625 C 11.570312 -17.890625 13.269531 -17.164062 14.5 -15.71875 C 15.738281 -14.28125 16.359375 -12.34375 16.359375 -9.90625 L 16.359375 -8.015625 C 16.359375 -5.515625 15.695312 -3.550781 14.375 -2.125 C 13.0625 -0.707031 11.285156 0 9.046875 0 L 1.65625 0 Z M 1.65625 -3.390625 "/></g></g></g><g fill="#052554" fill-opacity="1"><g transform="translate(197.097345, 229.296647)"><g/></g></g><g fill="#052554" fill-opacity="1"><g transform="translate(203.362377, 229.296647)"><g><path d="M 0.5625 -2.53125 C 1.351562 -2.613281 1.945312 -2.769531 2.34375 -3 C 2.738281 -3.238281 3.007812 -3.5625 3.15625 -3.96875 C 3.3125 -4.375 3.378906 -4.953125 3.359375 -5.703125 L 3.359375 -17.890625 L 12.84375 -17.890625 C 14.507812 -17.890625 15.820312 -17.410156 16.78125 -16.453125 C 17.75 -15.503906 18.234375 -14.019531 18.234375 -12 L 18.234375 0 L 13.71875 0 L 13.71875 -12.21875 C 13.71875 -13.738281 13.007812 -14.5 11.59375 -14.5 L 7.890625 -14.5 L 7.890625 -6.296875 C 7.890625 -4.710938 7.644531 -3.445312 7.15625 -2.5 C 6.664062 -1.5625 5.925781 -0.859375 4.9375 -0.390625 C 3.945312 0.078125 2.613281 0.382812 0.9375 0.53125 Z M 0.5625 -2.53125 "/></g></g></g><g fill="#052554" fill-opacity="1"><g transform="translate(223.25384, 229.296647)"><g><path d="M 1.90625 -14.21875 L 1.53125 -17.890625 L 6.046875 -17.890625 L 6.421875 -14.21875 L 6.421875 0 L 1.90625 0 Z M 1.90625 -14.21875 "/></g></g></g><g fill="#052554" fill-opacity="1"><g transform="translate(231.367055, 229.296647)"><g><path d="M 16.734375 -17.890625 C 16.710938 -13.734375 16.550781 -10.59375 16.25 -8.46875 C 15.945312 -6.351562 15.144531 -4.566406 13.84375 -3.109375 C 12.550781 -1.660156 10.460938 -0.65625 7.578125 -0.09375 L 0.875 1.21875 L 0.25 -2.3125 L 5.234375 -3.265625 L 1.625 -17.890625 L 6.140625 -17.890625 L 9.296875 -4.265625 C 10.242188 -4.722656 10.925781 -5.421875 11.34375 -6.359375 C 11.757812 -7.296875 12.015625 -8.429688 12.109375 -9.765625 C 12.203125 -11.109375 12.25 -13.140625 12.25 -15.859375 L 12.25 -17.890625 Z M 16.734375 -17.890625 "/></g></g></g><g fill="#052554" fill-opacity="1"><g transform="translate(249.410334, 229.296647)"><g><path d="M 11.78125 -7.328125 L 15.921875 0 L 0.9375 0 L 0.9375 -3.390625 L 9.46875 -3.390625 L 1.28125 -17.890625 L 5.828125 -17.890625 L 9.359375 -11.59375 L 11.9375 -17.890625 L 16.390625 -17.890625 Z M 11.78125 -7.328125 "/></g></g></g><g fill="#052554" fill-opacity="1"><g transform="translate(266.921092, 229.296647)"><g><path d="M 18.890625 -8.921875 C 18.890625 -6.023438 18.210938 -3.742188 16.859375 -2.078125 C 15.515625 -0.421875 13.625 0.40625 11.1875 0.40625 C 10.3125 0.40625 9.347656 0.28125 8.296875 0.03125 L 8.703125 -3.359375 C 9.484375 -3.179688 10.132812 -3.09375 10.65625 -3.09375 C 12.070312 -3.09375 13.082031 -3.566406 13.6875 -4.515625 C 14.289062 -5.472656 14.59375 -6.878906 14.59375 -8.734375 C 14.59375 -10.804688 14.304688 -12.304688 13.734375 -13.234375 C 13.160156 -14.160156 12.28125 -14.625 11.09375 -14.625 C 10.257812 -14.625 9.550781 -14.375 8.96875 -13.875 C 8.394531 -13.375 8.035156 -12.695312 7.890625 -11.84375 L 5.953125 0 L 1.4375 0 L 3.609375 -12.0625 L 1.09375 -17.890625 L 5.796875 -17.890625 L 7.046875 -14.3125 C 7.484375 -15.613281 8.140625 -16.582031 9.015625 -17.21875 C 9.898438 -17.851562 10.90625 -18.171875 12.03125 -18.171875 C 14.257812 -18.171875 15.957031 -17.398438 17.125 -15.859375 C 18.300781 -14.328125 18.890625 -12.015625 18.890625 -8.921875 Z M 18.890625 -8.921875 "/></g></g></g><g fill="#052554" fill-opacity="1"><g transform="translate(287.031826, 229.296647)"><g><path d="M 13.625 0 L 7.734375 -9.109375 L 4.953125 0 L 0.65625 0 L 4.140625 -10.75 L 5.109375 -13.15625 L 2.1875 -17.890625 L 6.734375 -17.890625 L 9.234375 -13.8125 L 11.5 -10.40625 L 12.34375 -13.25 L 13.59375 -17.890625 L 17.890625 -17.890625 L 14.125 -6.484375 L 18.453125 0 Z M 13.625 0 "/></g></g></g><g fill="#052554" fill-opacity="1"><g transform="translate(306.359433, 229.296647)"><g><path d="M 16.078125 -3.390625 L 16.078125 0 L 1.1875 0 L 1.1875 -3.390625 L 9.46875 -3.390625 L 9.46875 -12.21875 C 9.46875 -13.738281 8.753906 -14.5 7.328125 -14.5 L 1.1875 -14.5 L 1.1875 -17.890625 L 8.578125 -17.890625 C 10.253906 -17.890625 11.570312 -17.410156 12.53125 -16.453125 C 13.488281 -15.503906 13.96875 -14.019531 13.96875 -12 L 13.96875 -3.390625 Z M 16.078125 -3.390625 "/></g></g></g><g fill="#052554" fill-opacity="1"><g transform="translate(323.368968, 229.296647)"><g/></g></g><g fill="#052554" fill-opacity="1"><g transform="translate(329.634011, 229.296647)"><g><path d="M 1.90625 -14.21875 L 1.53125 -17.890625 L 6.046875 -17.890625 L 6.421875 -14.21875 L 6.421875 -9.328125 L 6.390625 -7.359375 L 1.90625 -6.578125 Z M 1.90625 -14.21875 "/></g></g></g><g fill="#052554" fill-opacity="1"><g transform="translate(337.18321, 229.296647)"><g><path d="M 0.5625 -2.53125 C 1.351562 -2.613281 1.945312 -2.769531 2.34375 -3 C 2.738281 -3.238281 3.007812 -3.5625 3.15625 -3.96875 C 3.3125 -4.375 3.378906 -4.953125 3.359375 -5.703125 L 3.359375 -17.890625 L 12.84375 -17.890625 C 14.507812 -17.890625 15.820312 -17.410156 16.78125 -16.453125 C 17.75 -15.503906 18.234375 -14.019531 18.234375 -12 L 18.234375 0 L 13.71875 0 L 13.71875 -12.21875 C 13.71875 -13.738281 13.007812 -14.5 11.59375 -14.5 L 7.890625 -14.5 L 7.890625 -6.296875 C 7.890625 -4.710938 7.644531 -3.445312 7.15625 -2.5 C 6.664062 -1.5625 5.925781 -0.859375 4.9375 -0.390625 C 3.945312 0.078125 2.613281 0.382812 0.9375 0.53125 Z M 0.5625 -2.53125 "/></g></g></g><g fill="#052554" fill-opacity="1"><g transform="translate(357.07465, 229.296647)"><g><path d="M 18.890625 -8.921875 C 18.890625 -6.023438 18.210938 -3.742188 16.859375 -2.078125 C 15.515625 -0.421875 13.625 0.40625 11.1875 0.40625 C 10.3125 0.40625 9.347656 0.28125 8.296875 0.03125 L 8.703125 -3.359375 C 9.484375 -3.179688 10.132812 -3.09375 10.65625 -3.09375 C 12.070312 -3.09375 13.082031 -3.566406 13.6875 -4.515625 C 14.289062 -5.472656 14.59375 -6.878906 14.59375 -8.734375 C 14.59375 -10.804688 14.304688 -12.304688 13.734375 -13.234375 C 13.160156 -14.160156 12.28125 -14.625 11.09375 -14.625 C 10.257812 -14.625 9.550781 -14.375 8.96875 -13.875 C 8.394531 -13.375 8.035156 -12.695312 7.890625 -11.84375 L 5.953125 0 L 1.4375 0 L 3.609375 -12.0625 L 1.09375 -17.890625 L 5.796875 -17.890625 L 7.046875 -14.3125 C 7.484375 -15.613281 8.140625 -16.582031 9.015625 -17.21875 C 9.898438 -17.851562 10.90625 -18.171875 12.03125 -18.171875 C 14.257812 -18.171875 15.957031 -17.398438 17.125 -15.859375 C 18.300781 -14.328125 18.890625 -12.015625 18.890625 -8.921875 Z M 18.890625 -8.921875 "/></g></g></g><g fill="#052554" fill-opacity="1"><g transform="translate(377.185384, 229.296647)"><g><path d="M 11.625 -17.890625 C 13.289062 -17.890625 14.609375 -17.382812 15.578125 -16.375 C 16.554688 -15.375 17.046875 -13.863281 17.046875 -11.84375 L 17.046875 0 L 12.5 0 L 12.5 -12.0625 C 12.5 -13.6875 11.800781 -14.5 10.40625 -14.5 L 6.203125 -14.5 L 6.203125 0 L 1.6875 0 L 1.6875 -17.890625 Z M 11.625 -17.890625 "/></g></g></g><g fill="#052554" fill-opacity="1"><g transform="translate(395.823867, 229.296647)"><g><path d="M 14.59375 -17.890625 L 14.59375 -14.15625 L 8.953125 0 L 4.453125 0 L 10.0625 -14.5 L 0.96875 -14.5 L 0.96875 -22.46875 L 5.046875 -22.46875 L 5.046875 -17.890625 Z M 14.59375 -17.890625 "/></g></g></g><g fill="#052554" fill-opacity="1"><g transform="translate(411.423772, 229.296647)"><g><path d="M 18.890625 -8.921875 C 18.890625 -6.023438 18.210938 -3.742188 16.859375 -2.078125 C 15.515625 -0.421875 13.625 0.40625 11.1875 0.40625 C 10.3125 0.40625 9.347656 0.28125 8.296875 0.03125 L 8.703125 -3.359375 C 9.484375 -3.179688 10.132812 -3.09375 10.65625 -3.09375 C 12.070312 -3.09375 13.082031 -3.566406 13.6875 -4.515625 C 14.289062 -5.472656 14.59375 -6.878906 14.59375 -8.734375 C 14.59375 -10.804688 14.304688 -12.304688 13.734375 -13.234375 C 13.160156 -14.160156 12.28125 -14.625 11.09375 -14.625 C 10.257812 -14.625 9.550781 -14.375 8.96875 -13.875 C 8.394531 -13.375 8.035156 -12.695312 7.890625 -11.84375 L 5.953125 0 L 1.4375 0 L 3.609375 -12.0625 L 1.09375 -17.890625 L 5.796875 -17.890625 L 7.046875 -14.3125 C 7.484375 -15.613281 8.140625 -16.582031 9.015625 -17.21875 C 9.898438 -17.851562 10.90625 -18.171875 12.03125 -18.171875 C 14.257812 -18.171875 15.957031 -17.398438 17.125 -15.859375 C 18.300781 -14.328125 18.890625 -12.015625 18.890625 -8.921875 Z M 18.890625 -8.921875 "/></g></g></g><g fill="#052554" fill-opacity="1"><g transform="translate(431.534506, 229.296647)"><g><path d="M 11.96875 -12.21875 C 11.96875 -13.738281 11.269531 -14.5 9.875 -14.5 L 1.6875 -14.5 L 1.6875 -17.890625 L 11.09375 -17.890625 C 12.757812 -17.890625 14.078125 -17.410156 15.046875 -16.453125 C 16.023438 -15.503906 16.515625 -14.019531 16.515625 -12 L 16.515625 0 L 11.96875 0 Z M 1.5 -8.546875 L 2.125 -10.65625 L 6.046875 -10.65625 L 6.046875 0 L 1.5 0 Z M 1.5 -8.546875 "/></g></g></g><g fill="#052554" fill-opacity="1"><g transform="translate(449.483794, 229.296647)"><g/></g></g><g fill="#052554" fill-opacity="1"><g transform="translate(455.748838, 229.296647)"><g><path d="M 9.8125 -3.578125 L 12.90625 6.265625 L 8.578125 6.265625 L 1.03125 -17.890625 L 5.328125 -17.890625 L 8.078125 -9.140625 L 11.75 -17.890625 L 16.046875 -17.890625 Z M 9.8125 -3.578125 "/></g></g></g><g fill="#052554" fill-opacity="1"><g transform="translate(472.445122, 229.296647)"><g><path d="M 18.890625 -8.921875 C 18.890625 -6.023438 18.210938 -3.742188 16.859375 -2.078125 C 15.515625 -0.421875 13.625 0.40625 11.1875 0.40625 C 10.3125 0.40625 9.347656 0.28125 8.296875 0.03125 L 8.703125 -3.359375 C 9.484375 -3.179688 10.132812 -3.09375 10.65625 -3.09375 C 12.070312 -3.09375 13.082031 -3.566406 13.6875 -4.515625 C 14.289062 -5.472656 14.59375 -6.878906 14.59375 -8.734375 C 14.59375 -10.804688 14.304688 -12.304688 13.734375 -13.234375 C 13.160156 -14.160156 12.28125 -14.625 11.09375 -14.625 C 10.257812 -14.625 9.550781 -14.375 8.96875 -13.875 C 8.394531 -13.375 8.035156 -12.695312 7.890625 -11.84375 L 5.953125 0 L 1.4375 0 L 3.609375 -12.0625 L 1.09375 -17.890625 L 5.796875 -17.890625 L 7.046875 -14.3125 C 7.484375 -15.613281 8.140625 -16.582031 9.015625 -17.21875 C 9.898438 -17.851562 10.90625 -18.171875 12.03125 -18.171875 C 14.257812 -18.171875 15.957031 -17.398438 17.125 -15.859375 C 18.300781 -14.328125 18.890625 -12.015625 18.890625 -8.921875 Z M 18.890625 -8.921875 "/></g></g></g><g fill="#052554" fill-opacity="1"><g transform="translate(492.555856, 229.296647)"><g><path d="M 13.625 0 L 7.734375 -9.109375 L 4.953125 0 L 0.65625 0 L 4.140625 -10.75 L 5.109375 -13.15625 L 2.1875 -17.890625 L 6.734375 -17.890625 L 9.234375 -13.8125 L 11.5 -10.40625 L 12.34375 -13.25 L 13.59375 -17.890625 L 17.890625 -17.890625 L 14.125 -6.484375 L 18.453125 0 Z M 13.625 0 "/></g></g></g><g fill="#052554" fill-opacity="1"><g transform="translate(511.883462, 229.296647)"><g><path d="M 18.890625 -8.921875 C 18.890625 -6.023438 18.210938 -3.742188 16.859375 -2.078125 C 15.515625 -0.421875 13.625 0.40625 11.1875 0.40625 C 10.3125 0.40625 9.347656 0.28125 8.296875 0.03125 L 8.703125 -3.359375 C 9.484375 -3.179688 10.132812 -3.09375 10.65625 -3.09375 C 12.070312 -3.09375 13.082031 -3.566406 13.6875 -4.515625 C 14.289062 -5.472656 14.59375 -6.878906 14.59375 -8.734375 C 14.59375 -10.804688 14.304688 -12.304688 13.734375 -13.234375 C 13.160156 -14.160156 12.28125 -14.625 11.09375 -14.625 C 10.257812 -14.625 9.550781 -14.375 8.96875 -13.875 C 8.394531 -13.375 8.035156 -12.695312 7.890625 -11.84375 L 5.953125 0 L 1.4375 0 L 3.609375 -12.0625 L 1.09375 -17.890625 L 5.796875 -17.890625 L 7.046875 -14.3125 C 7.484375 -15.613281 8.140625 -16.582031 9.015625 -17.21875 C 9.898438 -17.851562 10.90625 -18.171875 12.03125 -18.171875 C 14.257812 -18.171875 15.957031 -17.398438 17.125 -15.859375 C 18.300781 -14.328125 18.890625 -12.015625 18.890625 -8.921875 Z M 18.890625 -8.921875 "/></g></g></g><g fill="#052554" fill-opacity="1"><g transform="translate(531.994196, 229.296647)"><g><path d="M 14.59375 -17.890625 L 14.59375 -14.15625 L 8.953125 0 L 4.453125 0 L 10.0625 -14.5 L 0.96875 -14.5 L 0.96875 -22.46875 L 5.046875 -22.46875 L 5.046875 -17.890625 Z M 14.59375 -17.890625 "/></g></g></g><g fill="#052554" fill-opacity="1"><g transform="translate(547.594125, 229.296647)"><g/></g></g><g fill="#052554" fill-opacity="1"><g transform="translate(553.859145, 229.296647)"><g><path d="M 11.5625 -17.890625 C 13.226562 -17.890625 14.546875 -17.410156 15.515625 -16.453125 C 16.492188 -15.503906 16.984375 -14.019531 16.984375 -12 L 16.984375 0 L 1.65625 0 L 1.65625 -17.890625 Z M 12.4375 -3.390625 L 12.4375 -12.21875 C 12.4375 -13.738281 11.738281 -14.5 10.34375 -14.5 L 6.171875 -14.5 L 6.171875 -3.390625 Z M 12.4375 -3.390625 "/></g></g></g><g fill="#052554" fill-opacity="1"><g transform="translate(572.403624, 229.296647)"><g><path d="M 1.90625 -14.21875 L 1.53125 -17.890625 L 6.046875 -17.890625 L 6.421875 -14.21875 L 6.421875 0 L 1.90625 0 Z M 1.90625 -14.21875 "/></g></g></g><g fill="#052554" fill-opacity="1"><g transform="translate(580.516862, 229.296647)"><g><path d="M 9.078125 -12.21875 C 9.078125 -13.738281 8.378906 -14.5 6.984375 -14.5 L 0.875 -14.5 L 0.875 -17.890625 L 8.203125 -17.890625 C 9.878906 -17.890625 11.203125 -17.410156 12.171875 -16.453125 C 13.140625 -15.503906 13.625 -14.019531 13.625 -12 L 13.625 0 L 9.078125 0 Z M 9.078125 -12.21875 "/></g></g></g><g fill="#052554" fill-opacity="1"><g transform="translate(595.803494, 229.296647)"><g><path d="M 0.5625 -2.53125 C 1.351562 -2.613281 1.945312 -2.769531 2.34375 -3 C 2.738281 -3.238281 3.007812 -3.5625 3.15625 -3.96875 C 3.3125 -4.375 3.378906 -4.953125 3.359375 -5.703125 L 3.359375 -17.890625 L 12.84375 -17.890625 C 14.507812 -17.890625 15.820312 -17.410156 16.78125 -16.453125 C 17.75 -15.503906 18.234375 -14.019531 18.234375 -12 L 18.234375 0 L 13.71875 0 L 13.71875 -12.21875 C 13.71875 -13.738281 13.007812 -14.5 11.59375 -14.5 L 7.890625 -14.5 L 7.890625 -6.296875 C 7.890625 -4.710938 7.644531 -3.445312 7.15625 -2.5 C 6.664062 -1.5625 5.925781 -0.859375 4.9375 -0.390625 C 3.945312 0.078125 2.613281 0.382812 0.9375 0.53125 Z M 0.5625 -2.53125 "/></g></g></g><g fill="#052554" fill-opacity="1"><g transform="translate(615.694981, 229.296647)"><g><path d="M 14.59375 -17.890625 L 14.59375 -14.15625 L 8.953125 0 L 4.453125 0 L 10.0625 -14.5 L 0.96875 -14.5 L 0.96875 -22.46875 L 5.046875 -22.46875 L 5.046875 -17.890625 Z M 14.59375 -17.890625 "/></g></g></g><g fill="#052554" fill-opacity="1"><g transform="translate(152.709004, 272.76535)"><g><path d="M 4.859375 -7.078125 C 4.816406 -7.453125 4.796875 -7.722656 4.796875 -7.890625 C 4.796875 -8.828125 5.003906 -9.65625 5.421875 -10.375 C 5.835938 -11.101562 6.429688 -11.90625 7.203125 -12.78125 C 7.785156 -13.445312 8.207031 -13.992188 8.46875 -14.421875 C 8.726562 -14.847656 8.859375 -15.296875 8.859375 -15.765625 C 8.859375 -16.429688 8.65625 -16.957031 8.25 -17.34375 C 7.84375 -17.726562 7.296875 -17.921875 6.609375 -17.921875 C 6.046875 -17.921875 5.53125 -17.789062 5.0625 -17.53125 C 4.59375 -17.269531 4.117188 -16.898438 3.640625 -16.421875 L 1.28125 -18.578125 C 2.03125 -19.429688 2.90625 -20.109375 3.90625 -20.609375 C 4.914062 -21.109375 5.992188 -21.359375 7.140625 -21.359375 C 8.898438 -21.359375 10.3125 -20.910156 11.375 -20.015625 C 12.4375 -19.117188 12.96875 -17.804688 12.96875 -16.078125 C 12.96875 -15.234375 12.78125 -14.492188 12.40625 -13.859375 C 12.03125 -13.222656 11.46875 -12.476562 10.71875 -11.625 C 10.007812 -10.832031 9.472656 -10.140625 9.109375 -9.546875 C 8.753906 -8.960938 8.578125 -8.296875 8.578125 -7.546875 C 8.578125 -7.335938 8.585938 -7.179688 8.609375 -7.078125 Z M 6.734375 0.375 C 5.984375 0.375 5.359375 0.113281 4.859375 -0.40625 C 4.359375 -0.925781 4.109375 -1.582031 4.109375 -2.375 C 4.109375 -3.175781 4.359375 -3.835938 4.859375 -4.359375 C 5.359375 -4.878906 5.984375 -5.140625 6.734375 -5.140625 C 7.484375 -5.140625 8.109375 -4.878906 8.609375 -4.359375 C 9.109375 -3.835938 9.359375 -3.175781 9.359375 -2.375 C 9.359375 -1.582031 9.109375 -0.925781 8.609375 -0.40625 C 8.109375 0.113281 7.484375 0.375 6.734375 0.375 Z M 6.734375 0.375 "/></g></g></g><g fill="#052554" fill-opacity="1"><g transform="translate(167.024594, 272.76535)"><g><path d="M 8.234375 -10.84375 C 8.234375 -11.632812 8.3125 -12.347656 8.46875 -12.984375 C 8.625 -13.617188 8.835938 -14.125 9.109375 -14.5 L 1.09375 -14.5 L 1.09375 -17.890625 L 15.796875 -17.890625 L 15.796875 -14.5 L 13.34375 -14.5 C 12.945312 -13.601562 12.75 -12.382812 12.75 -10.84375 L 12.75 0 L 8.234375 0 Z M 8.234375 -10.84375 "/></g></g></g><g fill="#052554" fill-opacity="1"><g transform="translate(184.002818, 272.76535)"><g><path d="M 11.78125 -7.328125 L 15.921875 0 L 0.9375 0 L 0.9375 -3.390625 L 9.46875 -3.390625 L 1.28125 -17.890625 L 5.828125 -17.890625 L 9.359375 -11.59375 L 11.9375 -17.890625 L 16.390625 -17.890625 Z M 11.78125 -7.328125 "/></g></g></g><g fill="#052554" fill-opacity="1"><g transform="translate(201.513576, 272.76535)"><g><path d="M 1.90625 -14.21875 L 1.53125 -17.890625 L 6.046875 -17.890625 L 6.421875 -14.21875 L 6.421875 -9.328125 L 6.390625 -7.359375 L 1.90625 -6.578125 Z M 1.90625 -14.21875 "/></g></g></g><g fill="#052554" fill-opacity="1"><g transform="translate(209.626791, 272.76535)"><g><path d="M 0.90625 -3.390625 L 5.921875 -3.390625 C 7.128906 -3.390625 8.019531 -3.785156 8.59375 -4.578125 C 9.175781 -5.367188 9.46875 -6.429688 9.46875 -7.765625 L 9.46875 -10.125 C 9.46875 -11.457031 9.175781 -12.519531 8.59375 -13.3125 C 8.019531 -14.101562 7.128906 -14.5 5.921875 -14.5 L 0.90625 -14.5 L 0.90625 -17.890625 L 7.140625 -17.890625 C 9.378906 -17.890625 11.082031 -17.171875 12.25 -15.734375 C 13.414062 -14.304688 14 -12.351562 14 -9.875 L 14 -8.015625 C 14 -5.535156 13.414062 -3.578125 12.25 -2.140625 C 11.082031 -0.710938 9.378906 0 7.140625 0 L 0.90625 0 Z M 0.90625 -3.390625 "/></g></g></g><g fill="#052554" fill-opacity="1"><g transform="translate(224.819489, 272.76535)"><g/></g></g><g fill="#052554" fill-opacity="1"><g transform="translate(231.084521, 272.76535)"><g><path d="M 4.578125 0.375 C 3.828125 0.375 3.195312 0.113281 2.6875 -0.40625 C 2.1875 -0.925781 1.9375 -1.582031 1.9375 -2.375 C 1.9375 -3.175781 2.1875 -3.835938 2.6875 -4.359375 C 3.195312 -4.878906 3.828125 -5.140625 4.578125 -5.140625 C 5.328125 -5.140625 5.953125 -4.878906 6.453125 -4.359375 C 6.953125 -3.835938 7.203125 -3.175781 7.203125 -2.375 C 7.203125 -1.582031 6.953125 -0.925781 6.453125 -0.40625 C 5.953125 0.113281 5.328125 0.375 4.578125 0.375 Z M 4.578125 0.375 "/></g></g></g><g fill="#052554" fill-opacity="1"><g transform="translate(240.231458, 272.76535)"><g><path d="M 9.078125 -12.21875 C 9.078125 -13.738281 8.378906 -14.5 6.984375 -14.5 L 0.875 -14.5 L 0.875 -17.890625 L 8.203125 -17.890625 C 9.878906 -17.890625 11.203125 -17.410156 12.171875 -16.453125 C 13.140625 -15.503906 13.625 -14.019531 13.625 -12 L 13.625 0 L 9.078125 0 Z M 9.078125 -12.21875 "/></g></g></g><g fill="#052554" fill-opacity="1"><g transform="translate(255.518124, 272.76535)"><g><path d="M 1.90625 -14.21875 L 1.53125 -17.890625 L 6.046875 -17.890625 L 6.421875 -14.21875 L 6.421875 0 L 1.90625 0 Z M 1.90625 -14.21875 "/></g></g></g><g fill="#052554" fill-opacity="1"><g transform="translate(263.631339, 272.76535)"><g><path d="M 16.078125 -3.390625 L 16.078125 0 L 1.1875 0 L 1.1875 -3.390625 L 9.46875 -3.390625 L 9.46875 -12.21875 C 9.46875 -13.738281 8.753906 -14.5 7.328125 -14.5 L 1.1875 -14.5 L 1.1875 -17.890625 L 8.578125 -17.890625 C 10.253906 -17.890625 11.570312 -17.410156 12.53125 -16.453125 C 13.488281 -15.503906 13.96875 -14.019531 13.96875 -12 L 13.96875 -3.390625 Z M 16.078125 -3.390625 "/></g></g></g><g fill="#052554" fill-opacity="1"><g transform="translate(280.640885, 272.76535)"><g><path d="M 1.90625 -14.21875 L 1.53125 -17.890625 L 6.046875 -17.890625 L 6.421875 -14.21875 L 6.421875 -9.328125 L 6.390625 -7.359375 L 1.90625 -6.578125 Z M 1.90625 -14.21875 "/></g></g></g><g fill="#052554" fill-opacity="1"><g transform="translate(288.754101, 272.76535)"><g><path d="M 11.78125 -7.328125 L 15.921875 0 L 0.9375 0 L 0.9375 -3.390625 L 9.46875 -3.390625 L 1.28125 -17.890625 L 5.828125 -17.890625 L 9.359375 -11.59375 L 11.9375 -17.890625 L 16.390625 -17.890625 Z M 11.78125 -7.328125 "/></g></g></g><g fill="#052554" fill-opacity="1"><g transform="translate(306.264859, 272.76535)"><g><path d="M 16.078125 -3.390625 L 16.078125 0 L 1.1875 0 L 1.1875 -3.390625 L 9.46875 -3.390625 L 9.46875 -12.21875 C 9.46875 -13.738281 8.753906 -14.5 7.328125 -14.5 L 1.1875 -14.5 L 1.1875 -17.890625 L 8.578125 -17.890625 C 10.253906 -17.890625 11.570312 -17.410156 12.53125 -16.453125 C 13.488281 -15.503906 13.96875 -14.019531 13.96875 -12 L 13.96875 -3.390625 Z M 16.078125 -3.390625 "/></g></g></g><g fill="#052554" fill-opacity="1"><g transform="translate(323.274405, 272.76535)"><g><path d="M 1.90625 -14.21875 L 1.53125 -17.890625 L 6.046875 -17.890625 L 6.421875 -14.21875 L 6.421875 0 L 1.90625 0 Z M 1.90625 -14.21875 "/></g></g></g><g fill="#052554" fill-opacity="1"><g transform="translate(331.38762, 272.76535)"><g/></g></g><g fill="#052554" fill-opacity="1"><g transform="translate(337.652652, 272.76535)"><g><path d="M 11.96875 -12.21875 C 11.96875 -13.738281 11.269531 -14.5 9.875 -14.5 L 1.6875 -14.5 L 1.6875 -17.890625 L 11.09375 -17.890625 C 12.757812 -17.890625 14.078125 -17.410156 15.046875 -16.453125 C 16.023438 -15.503906 16.515625 -14.019531 16.515625 -12 L 16.515625 0 L 11.96875 0 Z M 1.5 -8.546875 L 2.125 -10.65625 L 6.046875 -10.65625 L 6.046875 0 L 1.5 0 Z M 1.5 -8.546875 "/></g></g></g><g fill="#052554" fill-opacity="1"><g transform="translate(355.60194, 272.76535)"><g><path d="M 16.078125 -3.390625 L 16.078125 0 L 1.1875 0 L 1.1875 -3.390625 L 9.46875 -3.390625 L 9.46875 -12.21875 C 9.46875 -13.738281 8.753906 -14.5 7.328125 -14.5 L 1.1875 -14.5 L 1.1875 -17.890625 L 8.578125 -17.890625 C 10.253906 -17.890625 11.570312 -17.410156 12.53125 -16.453125 C 13.488281 -15.503906 13.96875 -14.019531 13.96875 -12 L 13.96875 -3.390625 Z M 16.078125 -3.390625 "/></g></g></g><g fill="#052554" fill-opacity="1"><g transform="translate(372.611499, 272.76535)"><g><path d="M 1.90625 -14.21875 L 1.53125 -17.890625 L 6.046875 -17.890625 L 6.421875 -14.21875 L 6.421875 0 L 1.90625 0 Z M 1.90625 -14.21875 "/></g></g></g><g fill="#052554" fill-opacity="1"><g transform="translate(380.724714, 272.76535)"><g><path d="M 9.078125 -12.21875 C 9.078125 -13.738281 8.378906 -14.5 6.984375 -14.5 L 0.875 -14.5 L 0.875 -17.890625 L 8.203125 -17.890625 C 9.878906 -17.890625 11.203125 -17.410156 12.171875 -16.453125 C 13.140625 -15.503906 13.625 -14.019531 13.625 -12 L 13.625 0 L 9.078125 0 Z M 9.078125 -12.21875 "/></g></g></g><g fill="#052554" fill-opacity="1"><g transform="translate(396.011369, 272.76535)"><g><path d="M 7.671875 -3.359375 C 9.097656 -3.484375 10.15625 -3.960938 10.84375 -4.796875 C 11.53125 -5.628906 11.945312 -7.046875 12.09375 -9.046875 L 12.5 -14.5 L 1.59375 -14.5 L 1.59375 -17.890625 L 17.359375 -17.890625 L 17.203125 -14.96875 L 16.859375 -10.25 C 16.523438 -3.457031 13.578125 -0.03125 8.015625 0.03125 Z M 1.34375 -8.734375 L 1.96875 -10.90625 L 5.890625 -10.90625 L 5.890625 6.265625 L 1.34375 6.265625 Z M 1.34375 -8.734375 "/></g></g></g><g fill="#052554" fill-opacity="1"><g transform="translate(414.493225, 272.76535)"><g><path d="M 11.96875 -12.21875 C 11.96875 -13.738281 11.269531 -14.5 9.875 -14.5 L 1.6875 -14.5 L 1.6875 -17.890625 L 11.09375 -17.890625 C 12.757812 -17.890625 14.078125 -17.410156 15.046875 -16.453125 C 16.023438 -15.503906 16.515625 -14.019531 16.515625 -12 L 16.515625 0 L 11.96875 0 Z M 1.5 -8.546875 L 2.125 -10.65625 L 6.046875 -10.65625 L 6.046875 0 L 1.5 0 Z M 1.5 -8.546875 "/></g></g></g><g fill="#052554" fill-opacity="1"><g transform="translate(432.442513, 272.76535)"><g/></g></g><g fill="#052554" fill-opacity="1"><g transform="translate(438.707556, 272.76535)"><g><path d="M 11.96875 -12.21875 C 11.96875 -13.738281 11.269531 -14.5 9.875 -14.5 L 1.6875 -14.5 L 1.6875 -17.890625 L 11.09375 -17.890625 C 12.757812 -17.890625 14.078125 -17.410156 15.046875 -16.453125 C 16.023438 -15.503906 16.515625 -14.019531 16.515625 -12 L 16.515625 0 L 11.96875 0 Z M 1.5 -8.546875 L 2.125 -10.65625 L 6.046875 -10.65625 L 6.046875 0 L 1.5 0 Z M 1.5 -8.546875 "/></g></g></g><g fill="#052554" fill-opacity="1"><g transform="translate(456.656844, 272.76535)"><g><path d="M 14.59375 -17.890625 L 14.59375 -14.15625 L 8.953125 0 L 4.453125 0 L 10.0625 -14.5 L 0.96875 -14.5 L 0.96875 -22.46875 L 5.046875 -22.46875 L 5.046875 -17.890625 Z M 14.59375 -17.890625 "/></g></g></g><g fill="#052554" fill-opacity="1"><g transform="translate(472.25675, 272.76535)"><g><path d="M 1.90625 -14.21875 L 1.53125 -17.890625 L 6.046875 -17.890625 L 6.421875 -14.21875 L 6.421875 -9.328125 L 6.390625 -7.359375 L 1.90625 -6.578125 Z M 1.90625 -14.21875 "/></g></g></g><g fill="#052554" fill-opacity="1"><g transform="translate(480.369988, 272.76535)"><g><path d="M 11.96875 -12.21875 C 11.96875 -13.738281 11.269531 -14.5 9.875 -14.5 L 1.6875 -14.5 L 1.6875 -17.890625 L 11.09375 -17.890625 C 12.757812 -17.890625 14.078125 -17.410156 15.046875 -16.453125 C 16.023438 -15.503906 16.515625 -14.019531 16.515625 -12 L 16.515625 0 L 11.96875 0 Z M 1.5 -8.546875 L 2.125 -10.65625 L 6.046875 -10.65625 L 6.046875 0 L 1.5 0 Z M 1.5 -8.546875 "/></g></g></g><g fill="#052554" fill-opacity="1"><g transform="translate(498.319276, 272.76535)"><g><path d="M 7.671875 -3.359375 C 9.097656 -3.484375 10.15625 -3.960938 10.84375 -4.796875 C 11.53125 -5.628906 11.945312 -7.046875 12.09375 -9.046875 L 12.5 -14.5 L 1.59375 -14.5 L 1.59375 -17.890625 L 17.359375 -17.890625 L 17.203125 -14.96875 L 16.859375 -10.25 C 16.523438 -3.457031 13.578125 -0.03125 8.015625 0.03125 Z M 1.34375 -8.734375 L 1.96875 -10.90625 L 5.890625 -10.90625 L 5.890625 6.265625 L 1.34375 6.265625 Z M 1.34375 -8.734375 "/></g></g></g><g fill="#052554" fill-opacity="1"><g transform="translate(516.80111, 272.76535)"><g><path d="M 16.078125 -3.390625 L 16.078125 0 L 1.1875 0 L 1.1875 -3.390625 L 9.46875 -3.390625 L 9.46875 -12.21875 C 9.46875 -13.738281 8.753906 -14.5 7.328125 -14.5 L 1.1875 -14.5 L 1.1875 -17.890625 L 8.578125 -17.890625 C 10.253906 -17.890625 11.570312 -17.410156 12.53125 -16.453125 C 13.488281 -15.503906 13.96875 -14.019531 13.96875 -12 L 13.96875 -3.390625 Z M 16.078125 -3.390625 "/></g></g></g><g fill="#052554" fill-opacity="1"><g transform="translate(533.810668, 272.76535)"><g/></g></g><g fill="#052554" fill-opacity="1"><g transform="translate(540.075689, 272.76535)"><g><path d="M 4.703125 -5.140625 C 5.660156 -5.140625 6.40625 -4.769531 6.9375 -4.03125 C 7.46875 -3.300781 7.734375 -2.28125 7.734375 -0.96875 C 7.734375 0.695312 7.269531 2.132812 6.34375 3.34375 C 5.414062 4.5625 4.082031 5.441406 2.34375 5.984375 L 1.46875 3.671875 C 2.550781 3.285156 3.382812 2.753906 3.96875 2.078125 C 4.5625 1.398438 4.859375 0.65625 4.859375 -0.15625 L 4.609375 -0.15625 C 3.878906 -0.15625 3.253906 -0.375 2.734375 -0.8125 C 2.222656 -1.25 1.96875 -1.851562 1.96875 -2.625 C 1.96875 -3.363281 2.226562 -3.96875 2.75 -4.4375 C 3.28125 -4.90625 3.929688 -5.140625 4.703125 -5.140625 Z M 4.703125 -5.140625 "/></g></g></g><g fill="#052554" fill-opacity="1"><g transform="translate(549.222637, 272.76535)"><g><path d="M 1.90625 -14.21875 L 1.53125 -17.890625 L 6.046875 -17.890625 L 6.421875 -14.21875 L 6.421875 0 L 1.90625 0 Z M 1.90625 -14.21875 "/></g></g></g><g fill="#052554" fill-opacity="1"><g transform="translate(557.335829, 272.76535)"><g><path d="M 1.21875 -3.390625 L 5.796875 -3.390625 L 5.796875 -12.4375 C 5.796875 -13.1875 5.65625 -13.71875 5.375 -14.03125 C 5.09375 -14.34375 4.660156 -14.539062 4.078125 -14.625 L 1.875 -14.9375 L 2.4375 -18.265625 L 6.359375 -17.765625 C 7.628906 -17.597656 8.601562 -17.050781 9.28125 -16.125 C 9.96875 -15.207031 10.3125 -14.019531 10.3125 -12.5625 L 10.3125 0 L 1.21875 0 Z M 1.21875 -3.390625 "/></g></g></g><g fill="#052554" fill-opacity="1"><g transform="translate(569.270703, 272.76535)"><g><path d="M 0.5625 -2.53125 C 1.351562 -2.613281 1.945312 -2.769531 2.34375 -3 C 2.738281 -3.238281 3.007812 -3.5625 3.15625 -3.96875 C 3.3125 -4.375 3.378906 -4.953125 3.359375 -5.703125 L 3.359375 -17.890625 L 12.84375 -17.890625 C 14.507812 -17.890625 15.820312 -17.410156 16.78125 -16.453125 C 17.75 -15.503906 18.234375 -14.019531 18.234375 -12 L 18.234375 0 L 13.71875 0 L 13.71875 -12.21875 C 13.71875 -13.738281 13.007812 -14.5 11.59375 -14.5 L 7.890625 -14.5 L 7.890625 -6.296875 C 7.890625 -4.710938 7.644531 -3.445312 7.15625 -2.5 C 6.664062 -1.5625 5.925781 -0.859375 4.9375 -0.390625 C 3.945312 0.078125 2.613281 0.382812 0.9375 0.53125 Z M 0.5625 -2.53125 "/></g></g></g><g fill="#052554" fill-opacity="1"><g transform="translate(589.162189, 272.76535)"><g><path d="M 1.90625 -14.21875 L 1.53125 -17.890625 L 6.046875 -17.890625 L 6.421875 -14.21875 L 6.421875 -9.328125 L 6.390625 -7.359375 L 1.90625 -6.578125 Z M 1.90625 -14.21875 "/></g></g></g><g fill="#052554" fill-opacity="1"><g transform="translate(597.275381, 272.76535)"><g><path d="M 16.078125 -3.390625 L 16.078125 0 L 1.1875 0 L 1.1875 -3.390625 L 9.46875 -3.390625 L 9.46875 -12.21875 C 9.46875 -13.738281 8.753906 -14.5 7.328125 -14.5 L 1.1875 -14.5 L 1.1875 -17.890625 L 8.578125 -17.890625 C 10.253906 -17.890625 11.570312 -17.410156 12.53125 -16.453125 C 13.488281 -15.503906 13.96875 -14.019531 13.96875 -12 L 13.96875 -3.390625 Z M 16.078125 -3.390625 "/></g></g></g><g fill="#052554" fill-opacity="1"><g transform="translate(614.28494, 272.76535)"><g><path d="M 16.078125 -3.390625 L 16.078125 0 L 1.1875 0 L 1.1875 -3.390625 L 9.46875 -3.390625 L 9.46875 -12.21875 C 9.46875 -13.738281 8.753906 -14.5 7.328125 -14.5 L 1.1875 -14.5 L 1.1875 -17.890625 L 8.578125 -17.890625 C 10.253906 -17.890625 11.570312 -17.410156 12.53125 -16.453125 C 13.488281 -15.503906 13.96875 -14.019531 13.96875 -12 L 13.96875 -3.390625 Z M 16.078125 -3.390625 "/></g></g></g><g fill="#052554" fill-opacity="1"><g transform="translate(111.364804, 81.296932)"><g><path d="M 2.703125 -20.09375 L 2.171875 -25.265625 L 8.546875 -25.265625 L 9.078125 -20.09375 L 9.078125 0 L 2.703125 0 Z M 2.703125 -20.09375 "/></g></g></g><g fill="#052554" fill-opacity="1"><g transform="translate(122.826427, 81.296932)"><g><path d="M 1.71875 -4.78125 L 8.1875 -4.78125 L 8.1875 -17.5625 C 8.1875 -18.625 7.984375 -19.375 7.578125 -19.8125 C 7.179688 -20.257812 6.570312 -20.546875 5.75 -20.671875 L 2.65625 -21.109375 L 3.453125 -25.796875 L 8.984375 -25.09375 C 10.785156 -24.851562 12.164062 -24.082031 13.125 -22.78125 C 14.082031 -21.488281 14.5625 -19.8125 14.5625 -17.75 L 14.5625 0 L 1.71875 0 Z M 1.71875 -4.78125 "/></g></g></g><g fill="#052554" fill-opacity="1"><g transform="translate(139.686964, 81.296932)"><g><path d="M 22.703125 -4.78125 L 22.703125 0 L 1.6875 0 L 1.6875 -4.78125 L 13.359375 -4.78125 L 13.359375 -17.25 C 13.359375 -19.40625 12.359375 -20.484375 10.359375 -20.484375 L 1.6875 -20.484375 L 1.6875 -25.265625 L 12.125 -25.265625 C 14.488281 -25.265625 16.347656 -24.59375 17.703125 -23.25 C 19.054688 -21.90625 19.734375 -19.804688 19.734375 -16.953125 L 19.734375 -4.78125 Z M 22.703125 -4.78125 "/></g></g></g><g fill="#052554" fill-opacity="1"><g transform="translate(163.716549, 81.296932)"><g><path d="M 2.703125 -20.09375 L 2.171875 -25.265625 L 8.546875 -25.265625 L 9.078125 -20.09375 L 9.078125 -13.1875 L 9.03125 -10.40625 L 2.703125 -9.296875 Z M 2.703125 -20.09375 "/></g></g></g><g fill="#052554" fill-opacity="1"><g transform="translate(175.178173, 81.296932)"><g><path d="M 22.703125 -4.78125 L 22.703125 0 L 1.6875 0 L 1.6875 -4.78125 L 13.359375 -4.78125 L 13.359375 -17.25 C 13.359375 -19.40625 12.359375 -20.484375 10.359375 -20.484375 L 1.6875 -20.484375 L 1.6875 -25.265625 L 12.125 -25.265625 C 14.488281 -25.265625 16.347656 -24.59375 17.703125 -23.25 C 19.054688 -21.90625 19.734375 -19.804688 19.734375 -16.953125 L 19.734375 -4.78125 Z M 22.703125 -4.78125 "/></g></g></g><g fill="#052554" fill-opacity="1"><g transform="translate(199.207758, 81.296932)"><g><path d="M 24.640625 -14.609375 C 24.816406 -9.410156 23.191406 -5.65625 19.765625 -3.34375 C 16.347656 -1.03125 11.367188 0.226562 4.828125 0.4375 L 2.390625 -20.484375 L 1.765625 -25.265625 L 15.359375 -25.265625 C 18.242188 -25.265625 20.484375 -24.445312 22.078125 -22.8125 C 23.671875 -21.175781 24.515625 -18.925781 24.609375 -16.0625 Z M 10.40625 -5.21875 C 12.5 -5.363281 14.125 -5.796875 15.28125 -6.515625 C 16.445312 -7.242188 17.257812 -8.265625 17.71875 -9.578125 C 18.175781 -10.890625 18.375 -12.609375 18.3125 -14.734375 L 18.3125 -16.0625 C 18.3125 -17.414062 18.003906 -18.488281 17.390625 -19.28125 C 16.773438 -20.082031 15.9375 -20.484375 14.875 -20.484375 L 8.765625 -20.484375 Z M 10.40625 -5.21875 "/></g></g></g><g fill="#052554" fill-opacity="1"><g transform="translate(225.981046, 81.296932)"><g><path d="M 28.3125 -17.875 C 28.375 -11.832031 26.617188 -7.269531 23.046875 -4.1875 C 19.484375 -1.101562 13.953125 0.4375 6.453125 0.4375 L 5.09375 0.4375 L 1.765625 -25.265625 L 7.828125 -25.265625 L 9.109375 -14.34375 C 10.296875 -14.925781 11.09375 -15.804688 11.5 -16.984375 C 11.914062 -18.171875 12.109375 -19.941406 12.078125 -22.296875 L 12.078125 -25.21875 L 18.140625 -25.21875 L 18.140625 -22.4375 C 18.078125 -19.1875 17.425781 -16.550781 16.1875 -14.53125 C 14.957031 -12.507812 12.773438 -10.96875 9.640625 -9.90625 L 10.265625 -4.828125 C 14.484375 -5.085938 17.492188 -6.300781 19.296875 -8.46875 C 21.097656 -10.632812 21.984375 -13.648438 21.953125 -17.515625 L 21.859375 -25.265625 L 28.28125 -25.265625 Z M 28.3125 -17.875 "/></g></g></g><g fill="#052554" fill-opacity="1"><g transform="translate(255.984838, 81.296932)"><g/></g></g><g fill="#052554" fill-opacity="1"><g transform="translate(264.835517, 81.296932)"><g><path d="M 2.703125 -20.09375 L 2.171875 -25.265625 L 8.546875 -25.265625 L 9.078125 -20.09375 L 9.078125 -13.1875 L 9.03125 -10.40625 L 2.703125 -9.296875 Z M 2.703125 -20.09375 "/></g></g></g><g fill="#052554" fill-opacity="1"><g transform="translate(276.29714, 81.296932)"><g><path d="M 26.6875 -12.609375 C 26.6875 -8.503906 25.734375 -5.28125 23.828125 -2.9375 C 21.921875 -0.59375 19.242188 0.578125 15.796875 0.578125 C 14.554688 0.578125 13.195312 0.398438 11.71875 0.046875 L 12.296875 -4.734375 C 13.390625 -4.492188 14.304688 -4.375 15.046875 -4.375 C 17.046875 -4.375 18.472656 -5.046875 19.328125 -6.390625 C 20.191406 -7.734375 20.625 -9.71875 20.625 -12.34375 C 20.625 -15.257812 20.21875 -17.375 19.40625 -18.6875 C 18.59375 -20.007812 17.347656 -20.671875 15.671875 -20.671875 C 14.484375 -20.671875 13.484375 -20.316406 12.671875 -19.609375 C 11.859375 -18.898438 11.351562 -17.9375 11.15625 -16.71875 L 8.40625 0 L 2.03125 0 L 5.09375 -17.03125 L 1.546875 -25.265625 L 8.1875 -25.265625 L 9.953125 -20.21875 C 10.578125 -22.050781 11.507812 -23.414062 12.75 -24.3125 C 13.988281 -25.21875 15.398438 -25.671875 16.984375 -25.671875 C 20.148438 -25.671875 22.554688 -24.582031 24.203125 -22.40625 C 25.859375 -20.238281 26.6875 -16.972656 26.6875 -12.609375 Z M 26.6875 -12.609375 "/></g></g></g><g fill="#052554" fill-opacity="1"><g transform="translate(304.707792, 81.296932)"><g><path d="M 20.625 -25.265625 L 20.625 -20 L 12.65625 0 L 6.28125 0 L 14.203125 -20.484375 L 1.375 -20.484375 L 1.375 -31.734375 L 7.125 -31.734375 L 7.125 -25.265625 Z M 20.625 -25.265625 "/></g></g></g><g fill="#052554" fill-opacity="1"><g transform="translate(326.745972, 81.296932)"><g><path d="M 2.703125 -20.09375 L 2.171875 -25.265625 L 8.546875 -25.265625 L 9.078125 -20.09375 L 9.078125 0 L 2.703125 0 Z M 2.703125 -20.09375 "/></g></g></g><g fill="#052554" fill-opacity="1"><g transform="translate(338.207606, 81.296932)"><g/></g></g><g fill="#052554" fill-opacity="1"><g transform="translate(347.058297, 81.296932)"><g><path d="M 2.703125 -20.09375 L 2.171875 -25.265625 L 8.546875 -25.265625 L 9.078125 -20.09375 L 9.078125 0 L 2.703125 0 Z M 2.703125 -20.09375 "/></g></g></g><g fill="#052554" fill-opacity="1"><g transform="translate(358.519909, 81.296932)"><g><path d="M 1.71875 -4.78125 L 8.1875 -4.78125 L 8.1875 -17.5625 C 8.1875 -18.625 7.984375 -19.375 7.578125 -19.8125 C 7.179688 -20.257812 6.570312 -20.546875 5.75 -20.671875 L 2.65625 -21.109375 L 3.453125 -25.796875 L 8.984375 -25.09375 C 10.785156 -24.851562 12.164062 -24.082031 13.125 -22.78125 C 14.082031 -21.488281 14.5625 -19.8125 14.5625 -17.75 L 14.5625 0 L 1.71875 0 Z M 1.71875 -4.78125 "/></g></g></g><g fill="#052554" fill-opacity="1"><g transform="translate(375.380435, 81.296932)"><g><path d="M 26.6875 -12.609375 C 26.6875 -8.503906 25.734375 -5.28125 23.828125 -2.9375 C 21.921875 -0.59375 19.242188 0.578125 15.796875 0.578125 C 14.554688 0.578125 13.195312 0.398438 11.71875 0.046875 L 12.296875 -4.734375 C 13.390625 -4.492188 14.304688 -4.375 15.046875 -4.375 C 17.046875 -4.375 18.472656 -5.046875 19.328125 -6.390625 C 20.191406 -7.734375 20.625 -9.71875 20.625 -12.34375 C 20.625 -15.257812 20.21875 -17.375 19.40625 -18.6875 C 18.59375 -20.007812 17.347656 -20.671875 15.671875 -20.671875 C 14.484375 -20.671875 13.484375 -20.316406 12.671875 -19.609375 C 11.859375 -18.898438 11.351562 -17.9375 11.15625 -16.71875 L 8.40625 0 L 2.03125 0 L 5.09375 -17.03125 L 1.546875 -25.265625 L 8.1875 -25.265625 L 9.953125 -20.21875 C 10.578125 -22.050781 11.507812 -23.414062 12.75 -24.3125 C 13.988281 -25.21875 15.398438 -25.671875 16.984375 -25.671875 C 20.148438 -25.671875 22.554688 -24.582031 24.203125 -22.40625 C 25.859375 -20.238281 26.6875 -16.972656 26.6875 -12.609375 Z M 26.6875 -12.609375 "/></g></g></g><g fill="#052554" fill-opacity="1"><g transform="translate(403.791109, 81.296932)"><g><path d="M 16.640625 -10.359375 L 22.484375 0 L 1.328125 0 L 1.328125 -4.78125 L 13.359375 -4.78125 L 1.8125 -25.265625 L 8.234375 -25.265625 L 13.234375 -16.375 L 16.859375 -25.265625 L 23.140625 -25.265625 Z M 16.640625 -10.359375 "/></g></g></g><g fill="#052554" fill-opacity="1"><g transform="translate(428.528746, 81.296932)"><g><path d="M 23.625 -25.265625 C 23.59375 -19.398438 23.363281 -14.96875 22.9375 -11.96875 C 22.507812 -8.976562 21.378906 -6.457031 19.546875 -4.40625 C 17.722656 -2.351562 14.773438 -0.925781 10.703125 -0.125 L 1.234375 1.71875 L 0.359375 -3.28125 L 7.390625 -4.609375 L 2.296875 -25.265625 L 8.671875 -25.265625 L 13.140625 -6.015625 C 14.472656 -6.660156 15.429688 -7.644531 16.015625 -8.96875 C 16.609375 -10.300781 16.96875 -11.910156 17.09375 -13.796875 C 17.226562 -15.691406 17.296875 -18.554688 17.296875 -22.390625 L 17.296875 -25.265625 Z M 23.625 -25.265625 "/></g></g></g><g fill="#052554" fill-opacity="1"><g transform="translate(454.018702, 81.296932)"><g><path d="M 20.625 -25.265625 L 20.625 -20 L 12.65625 0 L 6.28125 0 L 14.203125 -20.484375 L 1.375 -20.484375 L 1.375 -31.734375 L 7.125 -31.734375 L 7.125 -25.265625 Z M 20.625 -25.265625 "/></g></g></g><g fill="#052554" fill-opacity="1"><g transform="translate(476.056882, 81.296932)"><g/></g></g><g fill="#052554" fill-opacity="1"><g transform="translate(484.90755, 81.296932)"><g><path d="M 12.828125 -17.25 C 12.828125 -19.40625 11.84375 -20.484375 9.875 -20.484375 L 1.234375 -20.484375 L 1.234375 -25.265625 L 11.59375 -25.265625 C 13.957031 -25.265625 15.820312 -24.59375 17.1875 -23.25 C 18.5625 -21.90625 19.25 -19.804688 19.25 -16.953125 L 19.25 0 L 12.828125 0 Z M 12.828125 -17.25 "/></g></g></g><g fill="#052554" fill-opacity="1"><g transform="translate(506.503207, 81.296932)"><g><path d="M 2.703125 -20.09375 L 2.171875 -25.265625 L 8.546875 -25.265625 L 9.078125 -20.09375 L 9.078125 0 L 2.703125 0 Z M 2.703125 -20.09375 "/></g></g></g><g fill="#052554" fill-opacity="1"><g transform="translate(517.964819, 81.296932)"><g><path d="M 4.46875 -15.3125 C 4.46875 -16.425781 4.578125 -17.429688 4.796875 -18.328125 C 5.023438 -19.234375 5.328125 -19.953125 5.703125 -20.484375 L 1.71875 -20.484375 L 1.71875 -25.265625 L 14.875 -25.265625 L 14.875 -20.484375 L 11.546875 -20.484375 C 11.222656 -19.835938 11.023438 -19.097656 10.953125 -18.265625 C 10.878906 -17.441406 10.84375 -16.457031 10.84375 -15.3125 L 10.84375 0 L 4.46875 0 Z M 4.46875 -15.3125 "/></g></g></g><g fill="#052554" fill-opacity="1"><g transform="translate(534.55985, 81.296932)"><g><path d="M 23.625 -25.265625 C 23.59375 -19.398438 23.363281 -14.96875 22.9375 -11.96875 C 22.507812 -8.976562 21.378906 -6.457031 19.546875 -4.40625 C 17.722656 -2.351562 14.773438 -0.925781 10.703125 -0.125 L 1.234375 1.71875 L 0.359375 -3.28125 L 7.390625 -4.609375 L 2.296875 -25.265625 L 8.671875 -25.265625 L 13.140625 -6.015625 C 14.472656 -6.660156 15.429688 -7.644531 16.015625 -8.96875 C 16.609375 -10.300781 16.96875 -11.910156 17.09375 -13.796875 C 17.226562 -15.691406 17.296875 -18.554688 17.296875 -22.390625 L 17.296875 -25.265625 Z M 23.625 -25.265625 "/></g></g></g><g fill="#052554" fill-opacity="1"><g transform="translate(560.049783, 81.296932)"><g><path d="M 20.625 -25.265625 L 20.625 -20 L 12.65625 0 L 6.28125 0 L 14.203125 -20.484375 L 1.375 -20.484375 L 1.375 -31.734375 L 7.125 -31.734375 L 7.125 -25.265625 Z M 20.625 -25.265625 "/></g></g></g></svg>