<svg xmlns="http://www.w3.org/2000/svg" xmlns:xlink="http://www.w3.org/1999/xlink" width="386" zoomAndPan="magnify" viewBox="0 0 289.5 150.75" height="201" preserveAspectRatio="xMidYMid meet" version="1.2"><defs><clipPath id="13cffc9493"><path d="M 0.996094 0.00390625 L 287.855469 0.00390625 L 287.855469 150.179688 L 0.996094 150.179688 Z M 0.996094 0.00390625 "/></clipPath><clipPath id="c5c86f92fd"><path d="M 35.4375 0.00390625 L 253.382812 0.00390625 C 262.515625 0.00390625 271.277344 3.632812 277.734375 10.09375 C 284.195312 16.550781 287.820312 25.3125 287.820312 34.445312 L 287.820312 115.742188 C 287.820312 124.875 284.195312 133.632812 277.734375 140.09375 C 271.277344 146.550781 262.515625 150.179688 253.382812 150.179688 L 35.4375 150.179688 C 26.304688 150.179688 17.542969 146.550781 11.082031 140.09375 C 4.625 133.632812 0.996094 124.875 0.996094 115.742188 L 0.996094 34.445312 C 0.996094 25.3125 4.625 16.550781 11.082031 10.09375 C 17.542969 3.632812 26.304688 0.00390625 35.4375 0.00390625 Z M 35.4375 0.00390625 "/></clipPath><clipPath id="d88e764249"><path d="M 0.996094 0.00390625 L 287.855469 0.00390625 L 287.855469 150.179688 L 0.996094 150.179688 Z M 0.996094 0.00390625 "/></clipPath><clipPath id="454d0170f5"><path d="M 35.4375 0.00390625 L 253.382812 0.00390625 C 262.515625 0.00390625 271.277344 3.632812 277.734375 10.09375 C 284.195312 16.550781 287.820312 25.3125 287.820312 34.445312 L 287.820312 115.742188 C 287.820312 124.875 284.195312 133.632812 277.734375 140.09375 C 271.277344 146.550781 262.515625 150.179688 253.382812 150.179688 L 35.4375 150.179688 C 26.304688 150.179688 17.542969 146.550781 11.082031 140.09375 C 4.625 133.632812 0.996094 124.875 0.996094 115.742188 L 0.996094 34.445312 C 0.996094 25.3125 4.625 16.550781 11.082031 10.09375 C 17.542969 3.632812 26.304688 0.00390625 35.4375 0.00390625 Z M 35.4375 0.00390625 "/></clipPath><clipPath id="c0d9059e50"><rect x="0" width="288" y="0" height="151"/></clipPath></defs><g id="fc043276b9"><g clip-rule="nonzero" clip-path="url(#13cffc9493)"><g clip-rule="nonzero" clip-path="url(#c5c86f92fd)"><g transform="matrix(1,0,0,1,0,-0.000000000000020074)"><g clip-path="url(#c0d9059e50)"><g clip-rule="nonzero" clip-path="url(#d88e764249)"><g clip-rule="nonzero" clip-path="url(#454d0170f5)"><path style=" stroke:none;fill-rule:nonzero;fill:#d1d7ed;fill-opacity:1;" d="M 0.996094 0.00390625 L 287.855469 0.00390625 L 287.855469 150.179688 L 0.996094 150.179688 Z M 0.996094 0.00390625 "/></g></g></g></g></g></g><g style="fill:#112c59;fill-opacity:1;"><g transform="translate(96.70354, 55.490288)"><path style="stroke:none" d="M 0.640625 -2.90625 C 1.554688 -3.007812 2.238281 -3.191406 2.6875 -3.453125 C 3.144531 -3.710938 3.457031 -4.078125 3.625 -4.546875 C 3.789062 -5.015625 3.863281 -5.679688 3.84375 -6.546875 L 3.84375 -20.515625 L 14.734375 -20.515625 C 16.648438 -20.515625 18.160156 -19.96875 19.265625 -18.875 C 20.367188 -17.789062 20.921875 -16.085938 20.921875 -13.765625 L 20.921875 0 L 15.734375 0 L 15.734375 -14.015625 C 15.734375 -15.765625 14.921875 -16.640625 13.296875 -16.640625 L 9.0625 -16.640625 L 9.0625 -7.21875 C 9.0625 -5.40625 8.78125 -3.957031 8.21875 -2.875 C 7.65625 -1.800781 6.800781 -0.992188 5.65625 -0.453125 C 4.519531 0.0859375 2.992188 0.441406 1.078125 0.609375 Z M 0.640625 -2.90625 "/></g></g><g style="fill:#112c59;fill-opacity:1;"><g transform="translate(119.524168, 55.490288)"><path style="stroke:none" d="M 2.1875 -16.3125 L 1.765625 -20.515625 L 6.9375 -20.515625 L 7.375 -16.3125 L 7.375 -10.703125 L 7.328125 -8.453125 L 2.1875 -7.546875 Z M 2.1875 -16.3125 "/></g></g><g style="fill:#112c59;fill-opacity:1;"><g transform="translate(128.832108, 55.490288)"><path style="stroke:none" d="M 1.40625 -3.875 L 6.65625 -3.875 L 6.65625 -14.265625 C 6.65625 -15.128906 6.488281 -15.738281 6.15625 -16.09375 C 5.832031 -16.457031 5.335938 -16.6875 4.671875 -16.78125 L 2.15625 -17.140625 L 2.796875 -20.953125 L 7.296875 -20.375 C 8.753906 -20.1875 9.875 -19.5625 10.65625 -18.5 C 11.4375 -17.445312 11.828125 -16.082031 11.828125 -14.40625 L 11.828125 0 L 1.40625 0 Z M 1.40625 -3.875 "/></g></g><g style="fill:#112c59;fill-opacity:1;"><g transform="translate(142.524489, 55.490288)"><path style="stroke:none" d="M 1.046875 -3.875 L 6.796875 -3.875 C 8.179688 -3.875 9.203125 -4.328125 9.859375 -5.234375 C 10.523438 -6.148438 10.859375 -7.375 10.859375 -8.90625 L 10.859375 -11.609375 C 10.859375 -13.140625 10.523438 -14.359375 9.859375 -15.265625 C 9.203125 -16.179688 8.179688 -16.640625 6.796875 -16.640625 L 1.046875 -16.640625 L 1.046875 -20.515625 L 8.1875 -20.515625 C 10.757812 -20.515625 12.710938 -19.691406 14.046875 -18.046875 C 15.390625 -16.410156 16.0625 -14.171875 16.0625 -11.328125 L 16.0625 -9.203125 C 16.0625 -6.347656 15.390625 -4.097656 14.046875 -2.453125 C 12.710938 -0.816406 10.757812 0 8.1875 0 L 1.046875 0 Z M 1.046875 -3.875 "/></g></g><g style="fill:#112c59;fill-opacity:1;"><g transform="translate(159.954419, 55.490288)"><path style="stroke:none" d="M 2.1875 -16.3125 L 1.765625 -20.515625 L 6.9375 -20.515625 L 7.375 -16.3125 L 7.375 0 L 2.1875 0 Z M 2.1875 -16.3125 "/></g></g><g style="fill:#112c59;fill-opacity:1;"><g transform="translate(169.262359, 55.490288)"><path style="stroke:none" d="M 0.640625 -2.90625 C 1.554688 -3.007812 2.238281 -3.191406 2.6875 -3.453125 C 3.144531 -3.710938 3.457031 -4.078125 3.625 -4.546875 C 3.789062 -5.015625 3.863281 -5.679688 3.84375 -6.546875 L 3.84375 -20.515625 L 14.734375 -20.515625 C 16.648438 -20.515625 18.160156 -19.96875 19.265625 -18.875 C 20.367188 -17.789062 20.921875 -16.085938 20.921875 -13.765625 L 20.921875 0 L 15.734375 0 L 15.734375 -14.015625 C 15.734375 -15.765625 14.921875 -16.640625 13.296875 -16.640625 L 9.0625 -16.640625 L 9.0625 -7.21875 C 9.0625 -5.40625 8.78125 -3.957031 8.21875 -2.875 C 7.65625 -1.800781 6.800781 -0.992188 5.65625 -0.453125 C 4.519531 0.0859375 2.992188 0.441406 1.078125 0.609375 Z M 0.640625 -2.90625 "/></g></g><g style="fill:#112c59;fill-opacity:1;"><g transform="translate(97.803203, 101.161406)"><path style="stroke:none" d=""/></g></g><g style="fill:#112c59;fill-opacity:1;"><g transform="translate(104.997808, 101.161406)"><path style="stroke:none" d="M 13.265625 -20.515625 C 15.179688 -20.515625 16.695312 -19.96875 17.8125 -18.875 C 18.925781 -17.789062 19.484375 -16.085938 19.484375 -13.765625 L 19.484375 0 L 1.90625 0 L 1.90625 -20.515625 Z M 14.265625 -3.875 L 14.265625 -14.015625 C 14.265625 -15.765625 13.460938 -16.640625 11.859375 -16.640625 L 7.078125 -16.640625 L 7.078125 -3.875 Z M 14.265625 -3.875 "/></g></g><g style="fill:#112c59;fill-opacity:1;"><g transform="translate(126.273108, 101.161406)"><path style="stroke:none" d="M 2.1875 -16.3125 L 1.765625 -20.515625 L 6.9375 -20.515625 L 7.375 -16.3125 L 7.375 0 L 2.1875 0 Z M 2.1875 -16.3125 "/></g></g><g style="fill:#112c59;fill-opacity:1;"><g transform="translate(135.581048, 101.161406)"><path style="stroke:none" d="M 10.421875 -14.015625 C 10.421875 -15.765625 9.617188 -16.640625 8.015625 -16.640625 L 1 -16.640625 L 1 -20.515625 L 9.421875 -20.515625 C 11.335938 -20.515625 12.851562 -19.96875 13.96875 -18.875 C 15.082031 -17.789062 15.640625 -16.085938 15.640625 -13.765625 L 15.640625 0 L 10.421875 0 Z M 10.421875 -14.015625 "/></g></g><g style="fill:#112c59;fill-opacity:1;"><g transform="translate(153.118789, 101.161406)"><path style="stroke:none" d="M 2.1875 -16.3125 L 1.765625 -20.515625 L 6.9375 -20.515625 L 7.375 -16.3125 L 7.375 -10.703125 L 7.328125 -8.453125 L 2.1875 -7.546875 Z M 2.1875 -16.3125 "/></g></g><g style="fill:#112c59;fill-opacity:1;"><g transform="translate(162.42673, 101.161406)"><path style="stroke:none" d="M 13.328125 -20.515625 C 15.242188 -20.515625 16.757812 -19.941406 17.875 -18.796875 C 18.988281 -17.648438 19.546875 -15.910156 19.546875 -13.578125 L 19.546875 0 L 14.34375 0 L 14.34375 -13.84375 C 14.34375 -15.707031 13.539062 -16.640625 11.9375 -16.640625 L 7.109375 -16.640625 L 7.109375 0 L 1.9375 0 L 1.9375 -20.515625 Z M 13.328125 -20.515625 "/></g></g><g style="fill:#112c59;fill-opacity:1;"><g transform="translate(183.810904, 101.161406)"><path style="stroke:none" d=""/></g></g></g></svg>