<svg xmlns="http://www.w3.org/2000/svg" xmlns:xlink="http://www.w3.org/1999/xlink" width="384" zoomAndPan="magnify" viewBox="0 0 288 150.749998" height="201" preserveAspectRatio="xMidYMid meet" version="1.0"><defs><g/><clipPath id="e26df312fa"><path d="M 0.238281 0 L 287.117188 0 L 287.117188 150.1875 L 0.238281 150.1875 Z M 0.238281 0 " clip-rule="nonzero"/></clipPath><clipPath id="e650628b1b"><path d="M 34.679688 0 L 252.640625 0 C 261.777344 0 270.535156 3.628906 276.996094 10.089844 C 283.453125 16.546875 287.082031 25.308594 287.082031 34.441406 L 287.082031 115.742188 C 287.082031 124.878906 283.453125 133.636719 276.996094 140.097656 C 270.535156 146.558594 261.777344 150.1875 252.640625 150.1875 L 34.679688 150.1875 C 25.546875 150.1875 16.785156 146.558594 10.328125 140.097656 C 3.867188 133.636719 0.238281 124.878906 0.238281 115.742188 L 0.238281 34.441406 C 0.238281 25.308594 3.867188 16.546875 10.328125 10.089844 C 16.785156 3.628906 25.546875 0 34.679688 0 Z M 34.679688 0 " clip-rule="nonzero"/></clipPath><clipPath id="8614359dbe"><path d="M 0.238281 0 L 287.117188 0 L 287.117188 150.1875 L 0.238281 150.1875 Z M 0.238281 0 " clip-rule="nonzero"/></clipPath><clipPath id="dc523aeda8"><path d="M 34.679688 0 L 252.640625 0 C 261.777344 0 270.535156 3.628906 276.996094 10.089844 C 283.453125 16.546875 287.082031 25.308594 287.082031 34.441406 L 287.082031 115.742188 C 287.082031 124.878906 283.453125 133.636719 276.996094 140.097656 C 270.535156 146.558594 261.777344 150.1875 252.640625 150.1875 L 34.679688 150.1875 C 25.546875 150.1875 16.785156 146.558594 10.328125 140.097656 C 3.867188 133.636719 0.238281 124.878906 0.238281 115.742188 L 0.238281 34.441406 C 0.238281 25.308594 3.867188 16.546875 10.328125 10.089844 C 16.785156 3.628906 25.546875 0 34.679688 0 Z M 34.679688 0 " clip-rule="nonzero"/></clipPath><clipPath id="092d53ad89"><rect x="0" width="288" y="0" height="151"/></clipPath></defs><g clip-path="url(#e26df312fa)"><g clip-path="url(#e650628b1b)"><g transform="matrix(1, 0, 0, 1, 0, 0.000000000000005638)"><g clip-path="url(#092d53ad89)"><g clip-path="url(#8614359dbe)"><g clip-path="url(#dc523aeda8)"><path fill="#d1d7ed" d="M 0.238281 0 L 287.117188 0 L 287.117188 150.1875 L 0.238281 150.1875 Z M 0.238281 0 " fill-opacity="1" fill-rule="nonzero"/></g></g></g></g></g></g><g fill="#112c59" fill-opacity="1"><g transform="translate(59.695786, 62.319309)"><g><path d="M 0.640625 -2.90625 C 1.554688 -3.007812 2.238281 -3.191406 2.6875 -3.453125 C 3.144531 -3.710938 3.457031 -4.078125 3.625 -4.546875 C 3.789062 -5.015625 3.863281 -5.679688 3.84375 -6.546875 L 3.84375 -20.515625 L 14.734375 -20.515625 C 16.648438 -20.515625 18.160156 -19.96875 19.265625 -18.875 C 20.367188 -17.789062 20.921875 -16.085938 20.921875 -13.765625 L 20.921875 0 L 15.734375 0 L 15.734375 -14.015625 C 15.734375 -15.765625 14.921875 -16.640625 13.296875 -16.640625 L 9.0625 -16.640625 L 9.0625 -7.21875 C 9.0625 -5.40625 8.78125 -3.957031 8.21875 -2.875 C 7.65625 -1.800781 6.800781 -0.992188 5.65625 -0.453125 C 4.519531 0.0859375 2.992188 0.441406 1.078125 0.609375 Z M 0.640625 -2.90625 "/></g></g></g><g fill="#112c59" fill-opacity="1"><g transform="translate(82.51798, 62.319309)"><g><path d="M 2.1875 -16.3125 L 1.765625 -20.515625 L 6.9375 -20.515625 L 7.375 -16.3125 L 7.375 -10.703125 L 7.328125 -8.453125 L 2.1875 -7.546875 Z M 2.1875 -16.3125 "/></g></g></g><g fill="#112c59" fill-opacity="1"><g transform="translate(91.826559, 62.319309)"><g><path d="M 1.40625 -3.875 L 6.65625 -3.875 L 6.65625 -14.265625 C 6.65625 -15.128906 6.488281 -15.738281 6.15625 -16.09375 C 5.832031 -16.457031 5.335938 -16.6875 4.671875 -16.78125 L 2.15625 -17.140625 L 2.796875 -20.953125 L 7.296875 -20.375 C 8.753906 -20.1875 9.875 -19.5625 10.65625 -18.5 C 11.4375 -17.445312 11.828125 -16.082031 11.828125 -14.40625 L 11.828125 0 L 1.40625 0 Z M 1.40625 -3.875 "/></g></g></g><g fill="#112c59" fill-opacity="1"><g transform="translate(105.519879, 62.319309)"><g><path d="M 1.046875 -3.875 L 6.796875 -3.875 C 8.179688 -3.875 9.203125 -4.328125 9.859375 -5.234375 C 10.523438 -6.148438 10.859375 -7.375 10.859375 -8.90625 L 10.859375 -11.609375 C 10.859375 -13.140625 10.523438 -14.359375 9.859375 -15.265625 C 9.203125 -16.179688 8.179688 -16.640625 6.796875 -16.640625 L 1.046875 -16.640625 L 1.046875 -20.515625 L 8.1875 -20.515625 C 10.757812 -20.515625 12.710938 -19.691406 14.046875 -18.046875 C 15.390625 -16.410156 16.0625 -14.171875 16.0625 -11.328125 L 16.0625 -9.203125 C 16.0625 -6.347656 15.390625 -4.097656 14.046875 -2.453125 C 12.710938 -0.816406 10.757812 0 8.1875 0 L 1.046875 0 Z M 1.046875 -3.875 "/></g></g></g><g fill="#112c59" fill-opacity="1"><g transform="translate(122.951005, 62.319309)"><g><path d="M 0.640625 -2.90625 C 1.554688 -3.007812 2.238281 -3.191406 2.6875 -3.453125 C 3.144531 -3.710938 3.457031 -4.078125 3.625 -4.546875 C 3.789062 -5.015625 3.863281 -5.679688 3.84375 -6.546875 L 3.84375 -20.515625 L 14.734375 -20.515625 C 16.648438 -20.515625 18.160156 -19.96875 19.265625 -18.875 C 20.367188 -17.789062 20.921875 -16.085938 20.921875 -13.765625 L 20.921875 0 L 15.734375 0 L 15.734375 -14.015625 C 15.734375 -15.765625 14.921875 -16.640625 13.296875 -16.640625 L 9.0625 -16.640625 L 9.0625 -7.21875 C 9.0625 -5.40625 8.78125 -3.957031 8.21875 -2.875 C 7.65625 -1.800781 6.800781 -0.992188 5.65625 -0.453125 C 4.519531 0.0859375 2.992188 0.441406 1.078125 0.609375 Z M 0.640625 -2.90625 "/></g></g></g><g fill="#112c59" fill-opacity="1"><g transform="translate(145.773198, 62.319309)"><g/></g></g><g fill="#112c59" fill-opacity="1"><g transform="translate(152.961293, 62.319309)"><g><path d="M 0.640625 -2.90625 C 1.554688 -3.007812 2.238281 -3.191406 2.6875 -3.453125 C 3.144531 -3.710938 3.457031 -4.078125 3.625 -4.546875 C 3.789062 -5.015625 3.863281 -5.679688 3.84375 -6.546875 L 3.84375 -20.515625 L 14.734375 -20.515625 C 16.648438 -20.515625 18.160156 -19.96875 19.265625 -18.875 C 20.367188 -17.789062 20.921875 -16.085938 20.921875 -13.765625 L 20.921875 0 L 15.734375 0 L 15.734375 -14.015625 C 15.734375 -15.765625 14.921875 -16.640625 13.296875 -16.640625 L 9.0625 -16.640625 L 9.0625 -7.21875 C 9.0625 -5.40625 8.78125 -3.957031 8.21875 -2.875 C 7.65625 -1.800781 6.800781 -0.992188 5.65625 -0.453125 C 4.519531 0.0859375 2.992188 0.441406 1.078125 0.609375 Z M 0.640625 -2.90625 "/></g></g></g><g fill="#112c59" fill-opacity="1"><g transform="translate(175.783487, 62.319309)"><g><path d="M 2.1875 -16.3125 L 1.765625 -20.515625 L 6.9375 -20.515625 L 7.375 -16.3125 L 7.375 -10.703125 L 7.328125 -8.453125 L 2.1875 -7.546875 Z M 2.1875 -16.3125 "/></g></g></g><g fill="#112c59" fill-opacity="1"><g transform="translate(185.092066, 62.319309)"><g><path d="M 2.1875 -16.3125 L 1.765625 -20.515625 L 6.9375 -20.515625 L 7.375 -16.3125 L 7.375 -10.703125 L 7.328125 -8.453125 L 2.1875 -7.546875 Z M 2.1875 -16.3125 "/></g></g></g><g fill="#112c59" fill-opacity="1"><g transform="translate(194.400645, 62.319309)"><g><path d="M 1.40625 -3.875 L 6.65625 -3.875 L 6.65625 -14.265625 C 6.65625 -15.128906 6.488281 -15.738281 6.15625 -16.09375 C 5.832031 -16.457031 5.335938 -16.6875 4.671875 -16.78125 L 2.15625 -17.140625 L 2.796875 -20.953125 L 7.296875 -20.375 C 8.753906 -20.1875 9.875 -19.5625 10.65625 -18.5 C 11.4375 -17.445312 11.828125 -16.082031 11.828125 -14.40625 L 11.828125 0 L 1.40625 0 Z M 1.40625 -3.875 "/></g></g></g><g fill="#112c59" fill-opacity="1"><g transform="translate(208.093966, 62.319309)"><g><path d="M 18.4375 -3.875 L 18.4375 0 L 1.359375 0 L 1.359375 -3.875 L 10.859375 -3.875 L 10.859375 -14.015625 C 10.859375 -15.765625 10.039062 -16.640625 8.40625 -16.640625 L 1.359375 -16.640625 L 1.359375 -20.515625 L 9.84375 -20.515625 C 11.757812 -20.515625 13.269531 -19.96875 14.375 -18.875 C 15.476562 -17.789062 16.03125 -16.085938 16.03125 -13.765625 L 16.03125 -3.875 Z M 18.4375 -3.875 "/></g></g></g><g fill="#112c59" fill-opacity="1"><g transform="translate(56.653956, 107.993561)"><g><path d="M 0.640625 -2.90625 C 1.554688 -3.007812 2.238281 -3.191406 2.6875 -3.453125 C 3.144531 -3.710938 3.457031 -4.078125 3.625 -4.546875 C 3.789062 -5.015625 3.863281 -5.679688 3.84375 -6.546875 L 3.84375 -20.515625 L 14.734375 -20.515625 C 16.648438 -20.515625 18.160156 -19.96875 19.265625 -18.875 C 20.367188 -17.789062 20.921875 -16.085938 20.921875 -13.765625 L 20.921875 0 L 15.734375 0 L 15.734375 -14.015625 C 15.734375 -15.765625 14.921875 -16.640625 13.296875 -16.640625 L 9.0625 -16.640625 L 9.0625 -7.21875 C 9.0625 -5.40625 8.78125 -3.957031 8.21875 -2.875 C 7.65625 -1.800781 6.800781 -0.992188 5.65625 -0.453125 C 4.519531 0.0859375 2.992188 0.441406 1.078125 0.609375 Z M 0.640625 -2.90625 "/></g></g></g><g fill="#112c59" fill-opacity="1"><g transform="translate(79.47615, 107.993561)"><g><path d="M 2.1875 -16.3125 L 1.765625 -20.515625 L 6.9375 -20.515625 L 7.375 -16.3125 L 7.375 -10.703125 L 7.328125 -8.453125 L 2.1875 -7.546875 Z M 2.1875 -16.3125 "/></g></g></g><g fill="#112c59" fill-opacity="1"><g transform="translate(88.784728, 107.993561)"><g><path d="M 23 -14.515625 C 23.050781 -9.609375 21.625 -5.898438 18.71875 -3.390625 C 15.820312 -0.890625 11.332031 0.359375 5.25 0.359375 L 4.140625 0.359375 L 1.4375 -20.515625 L 6.359375 -20.515625 L 7.40625 -11.640625 C 8.363281 -12.117188 9.007812 -12.835938 9.34375 -13.796875 C 9.675781 -14.753906 9.832031 -16.191406 9.8125 -18.109375 L 9.8125 -20.484375 L 14.734375 -20.484375 L 14.734375 -18.21875 C 14.679688 -15.582031 14.148438 -13.441406 13.140625 -11.796875 C 12.140625 -10.160156 10.367188 -8.910156 7.828125 -8.046875 L 8.34375 -3.921875 C 11.769531 -4.128906 14.210938 -5.113281 15.671875 -6.875 C 17.128906 -8.644531 17.847656 -11.097656 17.828125 -14.234375 L 17.75 -20.515625 L 22.96875 -20.515625 Z M 23 -14.515625 "/></g></g></g><g fill="#112c59" fill-opacity="1"><g transform="translate(113.152367, 107.993561)"><g><path d="M 2.1875 -16.3125 L 1.765625 -20.515625 L 6.9375 -20.515625 L 7.375 -16.3125 L 7.375 -10.703125 L 7.328125 -8.453125 L 2.1875 -7.546875 Z M 2.1875 -16.3125 "/></g></g></g><g fill="#112c59" fill-opacity="1"><g transform="translate(122.460946, 107.993561)"><g><path d="M 15.640625 0 L 8.875 -10.453125 L 5.671875 0 L 0.75 0 L 4.75 -12.328125 L 5.859375 -15.09375 L 2.515625 -20.515625 L 7.734375 -20.515625 L 10.609375 -15.84375 L 13.1875 -11.9375 L 14.15625 -15.203125 L 15.59375 -20.515625 L 20.515625 -20.515625 L 16.203125 -7.4375 L 21.171875 0 Z M 15.640625 0 "/></g></g></g><g fill="#112c59" fill-opacity="1"><g transform="translate(144.636213, 107.993561)"><g/></g></g><g fill="#112c59" fill-opacity="1"><g transform="translate(151.824308, 107.993561)"><g><path d="M 13.265625 -20.515625 C 15.179688 -20.515625 16.695312 -19.96875 17.8125 -18.875 C 18.925781 -17.789062 19.484375 -16.085938 19.484375 -13.765625 L 19.484375 0 L 1.90625 0 L 1.90625 -20.515625 Z M 14.265625 -3.875 L 14.265625 -14.015625 C 14.265625 -15.765625 13.460938 -16.640625 11.859375 -16.640625 L 7.078125 -16.640625 L 7.078125 -3.875 Z M 14.265625 -3.875 "/></g></g></g><g fill="#112c59" fill-opacity="1"><g transform="translate(173.101068, 107.993561)"><g><path d="M 2.1875 -16.3125 L 1.765625 -20.515625 L 6.9375 -20.515625 L 7.375 -16.3125 L 7.375 0 L 2.1875 0 Z M 2.1875 -16.3125 "/></g></g></g><g fill="#112c59" fill-opacity="1"><g transform="translate(182.409646, 107.993561)"><g><path d="M 10.421875 -14.015625 C 10.421875 -15.765625 9.617188 -16.640625 8.015625 -16.640625 L 1 -16.640625 L 1 -20.515625 L 9.421875 -20.515625 C 11.335938 -20.515625 12.851562 -19.96875 13.96875 -18.875 C 15.082031 -17.789062 15.640625 -16.085938 15.640625 -13.765625 L 15.640625 0 L 10.421875 0 Z M 10.421875 -14.015625 "/></g></g></g><g fill="#112c59" fill-opacity="1"><g transform="translate(199.948591, 107.993561)"><g><path d="M 2.1875 -16.3125 L 1.765625 -20.515625 L 6.9375 -20.515625 L 7.375 -16.3125 L 7.375 -10.703125 L 7.328125 -8.453125 L 2.1875 -7.546875 Z M 2.1875 -16.3125 "/></g></g></g><g fill="#112c59" fill-opacity="1"><g transform="translate(209.25717, 107.993561)"><g><path d="M 13.328125 -20.515625 C 15.242188 -20.515625 16.757812 -19.941406 17.875 -18.796875 C 18.988281 -17.648438 19.546875 -15.910156 19.546875 -13.578125 L 19.546875 0 L 14.34375 0 L 14.34375 -13.84375 C 14.34375 -15.707031 13.539062 -16.640625 11.9375 -16.640625 L 7.109375 -16.640625 L 7.109375 0 L 1.9375 0 L 1.9375 -20.515625 Z M 13.328125 -20.515625 "/></g></g></g></svg>