<svg xmlns="http://www.w3.org/2000/svg" xmlns:xlink="http://www.w3.org/1999/xlink" width="384" zoomAndPan="magnify" viewBox="0 0 288 150.749998" height="201" preserveAspectRatio="xMidYMid meet" version="1.2"><defs><clipPath id="eb797e2ad8"><path d="M 0.238281 0 L 287.117188 0 L 287.117188 150.1875 L 0.238281 150.1875 Z M 0.238281 0 "/></clipPath><clipPath id="f7a4de6fae"><path d="M 34.679688 0 L 252.640625 0 C 261.777344 0 270.535156 3.628906 276.996094 10.089844 C 283.453125 16.546875 287.082031 25.308594 287.082031 34.441406 L 287.082031 115.742188 C 287.082031 124.878906 283.453125 133.636719 276.996094 140.097656 C 270.535156 146.558594 261.777344 150.1875 252.640625 150.1875 L 34.679688 150.1875 C 25.546875 150.1875 16.785156 146.558594 10.328125 140.097656 C 3.867188 133.636719 0.238281 124.878906 0.238281 115.742188 L 0.238281 34.441406 C 0.238281 25.308594 3.867188 16.546875 10.328125 10.089844 C 16.785156 3.628906 25.546875 0 34.679688 0 Z M 34.679688 0 "/></clipPath><clipPath id="1f779c7ef5"><path d="M 0.238281 0 L 287.117188 0 L 287.117188 150.1875 L 0.238281 150.1875 Z M 0.238281 0 "/></clipPath><clipPath id="0910e58cfd"><path d="M 34.679688 0 L 252.640625 0 C 261.777344 0 270.535156 3.628906 276.996094 10.089844 C 283.453125 16.546875 287.082031 25.308594 287.082031 34.441406 L 287.082031 115.742188 C 287.082031 124.878906 283.453125 133.636719 276.996094 140.097656 C 270.535156 146.558594 261.777344 150.1875 252.640625 150.1875 L 34.679688 150.1875 C 25.546875 150.1875 16.785156 146.558594 10.328125 140.097656 C 3.867188 133.636719 0.238281 124.878906 0.238281 115.742188 L 0.238281 34.441406 C 0.238281 25.308594 3.867188 16.546875 10.328125 10.089844 C 16.785156 3.628906 25.546875 0 34.679688 0 Z M 34.679688 0 "/></clipPath><clipPath id="413817c354"><rect x="0" width="288" y="0" height="151"/></clipPath></defs><g id="ffe3e1887c"><g clip-rule="nonzero" clip-path="url(#eb797e2ad8)"><g clip-rule="nonzero" clip-path="url(#f7a4de6fae)"><g transform="matrix(1,0,0,1,0,0.000000000000005638)"><g clip-path="url(#413817c354)"><g clip-rule="nonzero" clip-path="url(#1f779c7ef5)"><g clip-rule="nonzero" clip-path="url(#0910e58cfd)"><path style=" stroke:none;fill-rule:nonzero;fill:#d1d7ed;fill-opacity:1;" d="M 0.238281 0 L 287.117188 0 L 287.117188 150.1875 L 0.238281 150.1875 Z M 0.238281 0 "/></g></g></g></g></g></g><g style="fill:#112c59;fill-opacity:1;"><g transform="translate(62.691683, 40.022168)"><path style="stroke:none" d="M 2.015625 -14.953125 L 1.609375 -18.8125 L 6.359375 -18.8125 L 6.75 -14.953125 L 6.75 6.59375 L 2.015625 6.59375 Z M 2.015625 -14.953125 "/></g></g><g style="fill:#112c59;fill-opacity:1;"><g transform="translate(71.224517, 40.022168)"><path style="stroke:none" d="M 2.015625 -14.953125 L 1.609375 -18.8125 L 6.359375 -18.8125 L 6.75 -14.953125 L 6.75 0 L 2.015625 0 Z M 2.015625 -14.953125 "/></g></g><g style="fill:#112c59;fill-opacity:1;"><g transform="translate(79.757352, 40.022168)"><path style="stroke:none" d="M 1.75 -3.5625 L 8.40625 -3.5625 C 9.675781 -3.5625 10.664062 -3.972656 11.375 -4.796875 C 12.09375 -5.617188 12.453125 -6.753906 12.453125 -8.203125 L 12.453125 -10.640625 C 12.453125 -12.023438 12.140625 -13.140625 11.515625 -13.984375 C 10.890625 -14.828125 9.972656 -15.25 8.765625 -15.25 L 6.390625 -15.25 L 5.796875 -12.453125 C 5.734375 -12.171875 5.703125 -11.894531 5.703125 -11.625 C 5.703125 -11.082031 5.863281 -10.660156 6.1875 -10.359375 C 6.519531 -10.066406 7.0625 -9.84375 7.8125 -9.6875 L 7.046875 -6.71875 C 5.097656 -6.757812 3.679688 -7.195312 2.796875 -8.03125 C 1.921875 -8.875 1.484375 -10.007812 1.484375 -11.4375 C 1.484375 -11.957031 1.523438 -12.441406 1.609375 -12.890625 L 2.9375 -18.8125 L 9.890625 -18.8125 C 12.171875 -18.8125 13.957031 -18.050781 15.25 -16.53125 C 16.550781 -15.019531 17.203125 -12.976562 17.203125 -10.40625 L 17.203125 -8.4375 C 17.203125 -5.800781 16.507812 -3.734375 15.125 -2.234375 C 13.738281 -0.742188 11.867188 0 9.515625 0 L 1.75 0 Z M 1.75 -3.5625 "/></g></g><g style="fill:#112c59;fill-opacity:1;"><g transform="translate(98.107881, 40.022168)"><path style="stroke:none" d="M 15.359375 -18.8125 L 15.359375 -14.890625 L 9.421875 0 L 4.671875 0 L 10.578125 -15.25 L 1.015625 -15.25 L 1.015625 -23.625 L 5.3125 -23.625 L 5.3125 -18.8125 Z M 15.359375 -18.8125 "/></g></g><g style="fill:#112c59;fill-opacity:1;"><g transform="translate(114.514639, 40.022168)"><path style="stroke:none" d="M 1.3125 -18.8125 L 6.09375 -18.8125 L 7.71875 -3.890625 C 10 -4.109375 11.617188 -4.78125 12.578125 -5.90625 C 13.546875 -7.039062 14.007812 -8.65625 13.96875 -10.75 L 13.96875 -11.765625 C 13.96875 -12.753906 13.695312 -13.59375 13.15625 -14.28125 C 12.625 -14.976562 11.820312 -15.359375 10.75 -15.421875 L 9.125 -15.515625 L 9.484375 -19.171875 L 11.5 -19.078125 C 13.539062 -18.972656 15.210938 -18.34375 16.515625 -17.1875 C 17.828125 -16.03125 18.515625 -14.390625 18.578125 -12.265625 L 18.625 -11.328125 C 18.75 -7.460938 17.5 -4.601562 14.875 -2.75 C 12.25 -0.894531 8.46875 0.128906 3.53125 0.328125 Z M 1.3125 -18.8125 "/></g></g><g style="fill:#112c59;fill-opacity:1;"><g transform="translate(133.985313, 40.022168)"><path style="stroke:none" d=""/></g></g><g style="fill:#112c59;fill-opacity:1;"><g transform="translate(140.574376, 40.022168)"><path style="stroke:none" d="M 2.015625 -14.953125 L 1.609375 -18.8125 L 6.359375 -18.8125 L 6.75 -14.953125 L 6.75 -9.8125 L 6.71875 -7.75 L 2.015625 -6.921875 Z M 2.015625 -14.953125 "/></g></g><g style="fill:#112c59;fill-opacity:1;"><g transform="translate(149.10721, 40.022168)"><path style="stroke:none" d="M 9.5625 -12.859375 C 9.5625 -14.453125 8.820312 -15.25 7.34375 -15.25 L 0.921875 -15.25 L 0.921875 -18.8125 L 8.640625 -18.8125 C 10.390625 -18.8125 11.773438 -18.3125 12.796875 -17.3125 C 13.816406 -16.3125 14.328125 -14.75 14.328125 -12.625 L 14.328125 0 L 9.5625 0 Z M 9.5625 -12.859375 "/></g></g><g style="fill:#112c59;fill-opacity:1;"><g transform="translate(165.184513, 40.022168)"><path style="stroke:none" d="M 1.75 -3.5625 L 8.40625 -3.5625 C 9.675781 -3.5625 10.664062 -3.972656 11.375 -4.796875 C 12.09375 -5.617188 12.453125 -6.753906 12.453125 -8.203125 L 12.453125 -10.640625 C 12.453125 -12.023438 12.140625 -13.140625 11.515625 -13.984375 C 10.890625 -14.828125 9.972656 -15.25 8.765625 -15.25 L 6.390625 -15.25 L 5.796875 -12.453125 C 5.734375 -12.171875 5.703125 -11.894531 5.703125 -11.625 C 5.703125 -11.082031 5.863281 -10.660156 6.1875 -10.359375 C 6.519531 -10.066406 7.0625 -9.84375 7.8125 -9.6875 L 7.046875 -6.71875 C 5.097656 -6.757812 3.679688 -7.195312 2.796875 -8.03125 C 1.921875 -8.875 1.484375 -10.007812 1.484375 -11.4375 C 1.484375 -11.957031 1.523438 -12.441406 1.609375 -12.890625 L 2.9375 -18.8125 L 9.890625 -18.8125 C 12.171875 -18.8125 13.957031 -18.050781 15.25 -16.53125 C 16.550781 -15.019531 17.203125 -12.976562 17.203125 -10.40625 L 17.203125 -8.4375 C 17.203125 -5.800781 16.507812 -3.734375 15.125 -2.234375 C 13.738281 -0.742188 11.867188 0 9.515625 0 L 1.75 0 Z M 1.75 -3.5625 "/></g></g><g style="fill:#112c59;fill-opacity:1;"><g transform="translate(183.535042, 40.022168)"><path style="stroke:none" d="M 18.359375 -10.875 C 18.484375 -7.007812 17.269531 -4.210938 14.71875 -2.484375 C 12.175781 -0.765625 8.46875 0.171875 3.59375 0.328125 L 1.78125 -15.25 L 1.3125 -18.8125 L 11.4375 -18.8125 C 13.59375 -18.8125 15.257812 -18.203125 16.4375 -16.984375 C 17.625 -15.765625 18.253906 -14.09375 18.328125 -11.96875 Z M 7.75 -3.890625 C 9.300781 -3.992188 10.507812 -4.316406 11.375 -4.859375 C 12.25 -5.398438 12.851562 -6.15625 13.1875 -7.125 C 13.53125 -8.101562 13.679688 -9.382812 13.640625 -10.96875 L 13.640625 -11.96875 C 13.640625 -12.976562 13.410156 -13.773438 12.953125 -14.359375 C 12.492188 -14.953125 11.867188 -15.25 11.078125 -15.25 L 6.53125 -15.25 Z M 7.75 -3.890625 "/></g></g><g style="fill:#112c59;fill-opacity:1;"><g transform="translate(203.466948, 40.022168)"><path style="stroke:none" d="M 19.875 -9.390625 C 19.875 -6.335938 19.164062 -3.9375 17.75 -2.1875 C 16.332031 -0.445312 14.335938 0.421875 11.765625 0.421875 C 10.835938 0.421875 9.828125 0.289062 8.734375 0.03125 L 9.15625 -3.53125 C 9.96875 -3.351562 10.648438 -3.265625 11.203125 -3.265625 C 12.691406 -3.265625 13.753906 -3.765625 14.390625 -4.765625 C 15.035156 -5.765625 15.359375 -7.238281 15.359375 -9.1875 C 15.359375 -11.363281 15.054688 -12.941406 14.453125 -13.921875 C 13.847656 -14.898438 12.921875 -15.390625 11.671875 -15.390625 C 10.785156 -15.390625 10.039062 -15.125 9.4375 -14.59375 C 8.832031 -14.070312 8.453125 -13.359375 8.296875 -12.453125 L 6.265625 0 L 1.515625 0 L 3.796875 -12.6875 L 1.15625 -18.8125 L 6.09375 -18.8125 L 7.421875 -15.0625 C 7.878906 -16.425781 8.566406 -17.441406 9.484375 -18.109375 C 10.410156 -18.773438 11.46875 -19.109375 12.65625 -19.109375 C 15.007812 -19.109375 16.800781 -18.300781 18.03125 -16.6875 C 19.257812 -15.070312 19.875 -12.640625 19.875 -9.390625 Z M 19.875 -9.390625 "/></g></g><g style="fill:#112c59;fill-opacity:1;"><g transform="translate(62.188611, 81.952629)"><path style="stroke:none" d="M 2.015625 -14.953125 L 1.609375 -18.8125 L 6.359375 -18.8125 L 6.75 -14.953125 L 6.75 6.59375 L 2.015625 6.59375 Z M 2.015625 -14.953125 "/></g></g><g style="fill:#112c59;fill-opacity:1;"><g transform="translate(70.721445, 81.952629)"><path style="stroke:none" d="M 19.875 -9.390625 C 19.875 -6.335938 19.164062 -3.9375 17.75 -2.1875 C 16.332031 -0.445312 14.335938 0.421875 11.765625 0.421875 C 10.835938 0.421875 9.828125 0.289062 8.734375 0.03125 L 9.15625 -3.53125 C 9.96875 -3.351562 10.648438 -3.265625 11.203125 -3.265625 C 12.691406 -3.265625 13.753906 -3.765625 14.390625 -4.765625 C 15.035156 -5.765625 15.359375 -7.238281 15.359375 -9.1875 C 15.359375 -11.363281 15.054688 -12.941406 14.453125 -13.921875 C 13.847656 -14.898438 12.921875 -15.390625 11.671875 -15.390625 C 10.785156 -15.390625 10.039062 -15.125 9.4375 -14.59375 C 8.832031 -14.070312 8.453125 -13.359375 8.296875 -12.453125 L 6.265625 0 L 1.515625 0 L 3.796875 -12.6875 L 1.15625 -18.8125 L 6.09375 -18.8125 L 7.421875 -15.0625 C 7.878906 -16.425781 8.566406 -17.441406 9.484375 -18.109375 C 10.410156 -18.773438 11.46875 -19.109375 12.65625 -19.109375 C 15.007812 -19.109375 16.800781 -18.300781 18.03125 -16.6875 C 19.257812 -15.070312 19.875 -12.640625 19.875 -9.390625 Z M 19.875 -9.390625 "/></g></g><g style="fill:#112c59;fill-opacity:1;"><g transform="translate(91.872323, 81.952629)"><path style="stroke:none" d="M 3.328125 -11.40625 C 3.328125 -12.238281 3.410156 -12.988281 3.578125 -13.65625 C 3.742188 -14.332031 3.96875 -14.863281 4.25 -15.25 L 1.28125 -15.25 L 1.28125 -18.8125 L 11.078125 -18.8125 L 11.078125 -15.25 L 8.59375 -15.25 C 8.351562 -14.769531 8.207031 -14.222656 8.15625 -13.609375 C 8.101562 -12.992188 8.078125 -12.257812 8.078125 -11.40625 L 8.078125 0 L 3.328125 0 Z M 3.328125 -11.40625 "/></g></g><g style="fill:#112c59;fill-opacity:1;"><g transform="translate(104.226811, 81.952629)"><path style="stroke:none" d="M 16.90625 -3.5625 L 16.90625 0 L 1.25 0 L 1.25 -3.5625 L 9.953125 -3.5625 L 9.953125 -12.859375 C 9.953125 -14.453125 9.207031 -15.25 7.71875 -15.25 L 1.25 -15.25 L 1.25 -18.8125 L 9.03125 -18.8125 C 10.789062 -18.8125 12.175781 -18.3125 13.1875 -17.3125 C 14.195312 -16.3125 14.703125 -14.75 14.703125 -12.625 L 14.703125 -3.5625 Z M 16.90625 -3.5625 "/></g></g><g style="fill:#112c59;fill-opacity:1;"><g transform="translate(122.116108, 81.952629)"><path style="stroke:none" d=""/></g></g><g style="fill:#112c59;fill-opacity:1;"><g transform="translate(128.705171, 81.952629)"><path style="stroke:none" d="M 12.15625 -18.8125 C 13.914062 -18.8125 15.304688 -18.3125 16.328125 -17.3125 C 17.347656 -16.3125 17.859375 -14.75 17.859375 -12.625 L 17.859375 0 L 1.75 0 L 1.75 -18.8125 Z M 13.078125 -3.5625 L 13.078125 -12.859375 C 13.078125 -14.453125 12.34375 -15.25 10.875 -15.25 L 6.484375 -15.25 L 6.484375 -3.5625 Z M 13.078125 -3.5625 "/></g></g><g style="fill:#112c59;fill-opacity:1;"><g transform="translate(148.208783, 81.952629)"><path style="stroke:none" d="M 2.015625 -14.953125 L 1.609375 -18.8125 L 6.359375 -18.8125 L 6.75 -14.953125 L 6.75 -9.8125 L 6.71875 -7.75 L 2.015625 -6.921875 Z M 2.015625 -14.953125 "/></g></g><g style="fill:#112c59;fill-opacity:1;"><g transform="translate(156.741617, 81.952629)"><path style="stroke:none" d="M 16.90625 -3.5625 L 16.90625 0 L 1.25 0 L 1.25 -3.5625 L 9.953125 -3.5625 L 9.953125 -12.859375 C 9.953125 -14.453125 9.207031 -15.25 7.71875 -15.25 L 1.25 -15.25 L 1.25 -18.8125 L 9.03125 -18.8125 C 10.789062 -18.8125 12.175781 -18.3125 13.1875 -17.3125 C 14.195312 -16.3125 14.703125 -14.75 14.703125 -12.625 L 14.703125 -3.5625 Z M 16.90625 -3.5625 "/></g></g><g style="fill:#112c59;fill-opacity:1;"><g transform="translate(174.630914, 81.952629)"><path style="stroke:none" d="M 2.015625 -14.953125 L 1.609375 -18.8125 L 6.359375 -18.8125 L 6.75 -14.953125 L 6.75 0 L 2.015625 0 Z M 2.015625 -14.953125 "/></g></g><g style="fill:#112c59;fill-opacity:1;"><g transform="translate(183.163748, 81.952629)"><path style="stroke:none" d="M 21.09375 -13.3125 C 21.132812 -8.8125 19.828125 -5.410156 17.171875 -3.109375 C 14.515625 -0.816406 10.394531 0.328125 4.8125 0.328125 L 3.796875 0.328125 L 1.3125 -18.8125 L 5.828125 -18.8125 L 6.78125 -10.671875 C 7.664062 -11.109375 8.257812 -11.765625 8.5625 -12.640625 C 8.875 -13.523438 9.019531 -14.847656 9 -16.609375 L 9 -18.78125 L 13.515625 -18.78125 L 13.515625 -16.703125 C 13.460938 -14.285156 12.972656 -12.320312 12.046875 -10.8125 C 11.128906 -9.3125 9.507812 -8.164062 7.1875 -7.375 L 7.640625 -3.59375 C 10.785156 -3.789062 13.023438 -4.695312 14.359375 -6.3125 C 15.703125 -7.925781 16.363281 -10.171875 16.34375 -13.046875 L 16.28125 -18.8125 L 21.0625 -18.8125 Z M 21.09375 -13.3125 "/></g></g><g style="fill:#112c59;fill-opacity:1;"><g transform="translate(205.500659, 81.952629)"><path style="stroke:none" d="M 12.21875 -18.8125 C 13.976562 -18.8125 15.367188 -18.285156 16.390625 -17.234375 C 17.410156 -16.179688 17.921875 -14.585938 17.921875 -12.453125 L 17.921875 0 L 13.140625 0 L 13.140625 -12.6875 C 13.140625 -14.394531 12.40625 -15.25 10.9375 -15.25 L 6.53125 -15.25 L 6.53125 0 L 1.78125 0 L 1.78125 -18.8125 Z M 12.21875 -18.8125 "/></g></g><g style="fill:#112c59;fill-opacity:1;"><g transform="translate(107.523582, 123.883091)"><path style="stroke:none" d="M 12.15625 -18.8125 C 13.914062 -18.8125 15.304688 -18.3125 16.328125 -17.3125 C 17.347656 -16.3125 17.859375 -14.75 17.859375 -12.625 L 17.859375 0 L 1.75 0 L 1.75 -18.8125 Z M 13.078125 -3.5625 L 13.078125 -12.859375 C 13.078125 -14.453125 12.34375 -15.25 10.875 -15.25 L 6.484375 -15.25 L 6.484375 -3.5625 Z M 13.078125 -3.5625 "/></g></g><g style="fill:#112c59;fill-opacity:1;"><g transform="translate(127.027194, 123.883091)"><path style="stroke:none" d="M 2.015625 -14.953125 L 1.609375 -18.8125 L 6.359375 -18.8125 L 6.75 -14.953125 L 6.75 0 L 2.015625 0 Z M 2.015625 -14.953125 "/></g></g><g style="fill:#112c59;fill-opacity:1;"><g transform="translate(135.560028, 123.883091)"><path style="stroke:none" d="M 9.5625 -12.859375 C 9.5625 -14.453125 8.820312 -15.25 7.34375 -15.25 L 0.921875 -15.25 L 0.921875 -18.8125 L 8.640625 -18.8125 C 10.390625 -18.8125 11.773438 -18.3125 12.796875 -17.3125 C 13.816406 -16.3125 14.328125 -14.75 14.328125 -12.625 L 14.328125 0 L 9.5625 0 Z M 9.5625 -12.859375 "/></g></g><g style="fill:#112c59;fill-opacity:1;"><g transform="translate(151.637331, 123.883091)"><path style="stroke:none" d="M 2.015625 -14.953125 L 1.609375 -18.8125 L 6.359375 -18.8125 L 6.75 -14.953125 L 6.75 -9.8125 L 6.71875 -7.75 L 2.015625 -6.921875 Z M 2.015625 -14.953125 "/></g></g><g style="fill:#112c59;fill-opacity:1;"><g transform="translate(160.170165, 123.883091)"><path style="stroke:none" d="M 12.21875 -18.8125 C 13.976562 -18.8125 15.367188 -18.285156 16.390625 -17.234375 C 17.410156 -16.179688 17.921875 -14.585938 17.921875 -12.453125 L 17.921875 0 L 13.140625 0 L 13.140625 -12.6875 C 13.140625 -14.394531 12.40625 -15.25 10.9375 -15.25 L 6.53125 -15.25 L 6.53125 0 L 1.78125 0 L 1.78125 -18.8125 Z M 12.21875 -18.8125 "/></g></g></g></svg>