<svg xmlns="http://www.w3.org/2000/svg" xmlns:xlink="http://www.w3.org/1999/xlink" width="384" zoomAndPan="magnify" viewBox="0 0 288 150.749998" height="201" preserveAspectRatio="xMidYMid meet" version="1.2"><defs><clipPath id="63633b3b1d"><path d="M 0.238281 0 L 287.117188 0 L 287.117188 150.1875 L 0.238281 150.1875 Z M 0.238281 0 "/></clipPath><clipPath id="4f2b155ad8"><path d="M 34.679688 0 L 252.640625 0 C 261.777344 0 270.535156 3.628906 276.996094 10.089844 C 283.453125 16.546875 287.082031 25.308594 287.082031 34.441406 L 287.082031 115.742188 C 287.082031 124.878906 283.453125 133.636719 276.996094 140.097656 C 270.535156 146.558594 261.777344 150.1875 252.640625 150.1875 L 34.679688 150.1875 C 25.546875 150.1875 16.785156 146.558594 10.328125 140.097656 C 3.867188 133.636719 0.238281 124.878906 0.238281 115.742188 L 0.238281 34.441406 C 0.238281 25.308594 3.867188 16.546875 10.328125 10.089844 C 16.785156 3.628906 25.546875 0 34.679688 0 Z M 34.679688 0 "/></clipPath><clipPath id="6d5cfc34eb"><path d="M 0.238281 0 L 287.117188 0 L 287.117188 150.1875 L 0.238281 150.1875 Z M 0.238281 0 "/></clipPath><clipPath id="e1a7f8aa15"><path d="M 34.679688 0 L 252.640625 0 C 261.777344 0 270.535156 3.628906 276.996094 10.089844 C 283.453125 16.546875 287.082031 25.308594 287.082031 34.441406 L 287.082031 115.742188 C 287.082031 124.878906 283.453125 133.636719 276.996094 140.097656 C 270.535156 146.558594 261.777344 150.1875 252.640625 150.1875 L 34.679688 150.1875 C 25.546875 150.1875 16.785156 146.558594 10.328125 140.097656 C 3.867188 133.636719 0.238281 124.878906 0.238281 115.742188 L 0.238281 34.441406 C 0.238281 25.308594 3.867188 16.546875 10.328125 10.089844 C 16.785156 3.628906 25.546875 0 34.679688 0 Z M 34.679688 0 "/></clipPath><clipPath id="cd50f7f63d"><rect x="0" width="288" y="0" height="151"/></clipPath></defs><g id="b03210618c"><g clip-rule="nonzero" clip-path="url(#63633b3b1d)"><g clip-rule="nonzero" clip-path="url(#4f2b155ad8)"><g transform="matrix(1,0,0,1,0,0.000000000000005638)"><g clip-path="url(#cd50f7f63d)"><g clip-rule="nonzero" clip-path="url(#6d5cfc34eb)"><g clip-rule="nonzero" clip-path="url(#e1a7f8aa15)"><path style=" stroke:none;fill-rule:nonzero;fill:#d1d7ed;fill-opacity:1;" d="M 0.238281 0 L 287.117188 0 L 287.117188 150.1875 L 0.238281 150.1875 Z M 0.238281 0 "/></g></g></g></g></g></g><g style="fill:#112c59;fill-opacity:1;"><g transform="translate(66.668597, 55.488919)"><path style="stroke:none" d="M 0.640625 -2.90625 C 1.554688 -3.007812 2.238281 -3.191406 2.6875 -3.453125 C 3.144531 -3.710938 3.457031 -4.078125 3.625 -4.546875 C 3.789062 -5.015625 3.863281 -5.679688 3.84375 -6.546875 L 3.84375 -20.515625 L 14.734375 -20.515625 C 16.648438 -20.515625 18.160156 -19.96875 19.265625 -18.875 C 20.367188 -17.789062 20.921875 -16.085938 20.921875 -13.765625 L 20.921875 0 L 15.734375 0 L 15.734375 -14.015625 C 15.734375 -15.765625 14.921875 -16.640625 13.296875 -16.640625 L 9.0625 -16.640625 L 9.0625 -7.21875 C 9.0625 -5.40625 8.78125 -3.957031 8.21875 -2.875 C 7.65625 -1.800781 6.800781 -0.992188 5.65625 -0.453125 C 4.519531 0.0859375 2.992188 0.441406 1.078125 0.609375 Z M 0.640625 -2.90625 "/></g></g><g style="fill:#112c59;fill-opacity:1;"><g transform="translate(89.490791, 55.488919)"><path style="stroke:none" d="M 2.1875 -16.3125 L 1.765625 -20.515625 L 6.9375 -20.515625 L 7.375 -16.3125 L 7.375 -10.703125 L 7.328125 -8.453125 L 2.1875 -7.546875 Z M 2.1875 -16.3125 "/></g></g><g style="fill:#112c59;fill-opacity:1;"><g transform="translate(98.79937, 55.488919)"><path style="stroke:none" d="M 18.4375 -3.875 L 18.4375 0 L 1.359375 0 L 1.359375 -3.875 L 10.859375 -3.875 L 10.859375 -14.015625 C 10.859375 -15.765625 10.039062 -16.640625 8.40625 -16.640625 L 1.359375 -16.640625 L 1.359375 -20.515625 L 9.84375 -20.515625 C 11.757812 -20.515625 13.269531 -19.96875 14.375 -18.875 C 15.476562 -17.789062 16.03125 -16.085938 16.03125 -13.765625 L 16.03125 -3.875 Z M 18.4375 -3.875 "/></g></g><g style="fill:#112c59;fill-opacity:1;"><g transform="translate(118.315046, 55.488919)"><path style="stroke:none" d="M 13.734375 -14.015625 C 13.734375 -15.765625 12.929688 -16.640625 11.328125 -16.640625 L 1.9375 -16.640625 L 1.9375 -20.515625 L 12.71875 -20.515625 C 14.632812 -20.515625 16.148438 -19.96875 17.265625 -18.875 C 18.378906 -17.789062 18.9375 -16.085938 18.9375 -13.765625 L 18.9375 0 L 13.734375 0 Z M 1.71875 -9.8125 L 2.4375 -12.21875 L 6.9375 -12.21875 L 6.9375 0 L 1.71875 0 Z M 1.71875 -9.8125 "/></g></g><g style="fill:#112c59;fill-opacity:1;"><g transform="translate(138.908937, 55.488919)"><path style="stroke:none" d=""/></g></g><g style="fill:#112c59;fill-opacity:1;"><g transform="translate(146.097032, 55.488919)"><path style="stroke:none" d="M 0.640625 -2.90625 C 1.554688 -3.007812 2.238281 -3.191406 2.6875 -3.453125 C 3.144531 -3.710938 3.457031 -4.078125 3.625 -4.546875 C 3.789062 -5.015625 3.863281 -5.679688 3.84375 -6.546875 L 3.84375 -20.515625 L 14.734375 -20.515625 C 16.648438 -20.515625 18.160156 -19.96875 19.265625 -18.875 C 20.367188 -17.789062 20.921875 -16.085938 20.921875 -13.765625 L 20.921875 0 L 15.734375 0 L 15.734375 -14.015625 C 15.734375 -15.765625 14.921875 -16.640625 13.296875 -16.640625 L 9.0625 -16.640625 L 9.0625 -7.21875 C 9.0625 -5.40625 8.78125 -3.957031 8.21875 -2.875 C 7.65625 -1.800781 6.800781 -0.992188 5.65625 -0.453125 C 4.519531 0.0859375 2.992188 0.441406 1.078125 0.609375 Z M 0.640625 -2.90625 "/></g></g><g style="fill:#112c59;fill-opacity:1;"><g transform="translate(168.919226, 55.488919)"><path style="stroke:none" d="M 1.40625 -3.875 L 6.65625 -3.875 L 6.65625 -14.265625 C 6.65625 -15.128906 6.488281 -15.738281 6.15625 -16.09375 C 5.832031 -16.457031 5.335938 -16.6875 4.671875 -16.78125 L 2.15625 -17.140625 L 2.796875 -20.953125 L 7.296875 -20.375 C 8.753906 -20.1875 9.875 -19.5625 10.65625 -18.5 C 11.4375 -17.445312 11.828125 -16.082031 11.828125 -14.40625 L 11.828125 0 L 1.40625 0 Z M 1.40625 -3.875 "/></g></g><g style="fill:#112c59;fill-opacity:1;"><g transform="translate(182.612546, 55.488919)"><path style="stroke:none" d="M 1.046875 -3.875 L 6.796875 -3.875 C 8.179688 -3.875 9.203125 -4.328125 9.859375 -5.234375 C 10.523438 -6.148438 10.859375 -7.375 10.859375 -8.90625 L 10.859375 -11.609375 C 10.859375 -13.140625 10.523438 -14.359375 9.859375 -15.265625 C 9.203125 -16.179688 8.179688 -16.640625 6.796875 -16.640625 L 1.046875 -16.640625 L 1.046875 -20.515625 L 8.1875 -20.515625 C 10.757812 -20.515625 12.710938 -19.691406 14.046875 -18.046875 C 15.390625 -16.410156 16.0625 -14.171875 16.0625 -11.328125 L 16.0625 -9.203125 C 16.0625 -6.347656 15.390625 -4.097656 14.046875 -2.453125 C 12.710938 -0.816406 10.757812 0 8.1875 0 L 1.046875 0 Z M 1.046875 -3.875 "/></g></g><g style="fill:#112c59;fill-opacity:1;"><g transform="translate(200.043672, 55.488919)"><path style="stroke:none" d="M 13.734375 -14.015625 C 13.734375 -15.765625 12.929688 -16.640625 11.328125 -16.640625 L 1.9375 -16.640625 L 1.9375 -20.515625 L 12.71875 -20.515625 C 14.632812 -20.515625 16.148438 -19.96875 17.265625 -18.875 C 18.378906 -17.789062 18.9375 -16.085938 18.9375 -13.765625 L 18.9375 0 L 13.734375 0 Z M 1.71875 -9.8125 L 2.4375 -12.21875 L 6.9375 -12.21875 L 6.9375 0 L 1.71875 0 Z M 1.71875 -9.8125 "/></g></g><g style="fill:#112c59;fill-opacity:1;"><g transform="translate(95.2969, 101.163171)"><path style="stroke:none" d="M 13.265625 -20.515625 C 15.179688 -20.515625 16.695312 -19.96875 17.8125 -18.875 C 18.925781 -17.789062 19.484375 -16.085938 19.484375 -13.765625 L 19.484375 0 L 1.90625 0 L 1.90625 -20.515625 Z M 14.265625 -3.875 L 14.265625 -14.015625 C 14.265625 -15.765625 13.460938 -16.640625 11.859375 -16.640625 L 7.078125 -16.640625 L 7.078125 -3.875 Z M 14.265625 -3.875 "/></g></g><g style="fill:#112c59;fill-opacity:1;"><g transform="translate(116.57366, 101.163171)"><path style="stroke:none" d="M 2.1875 -16.3125 L 1.765625 -20.515625 L 6.9375 -20.515625 L 7.375 -16.3125 L 7.375 0 L 2.1875 0 Z M 2.1875 -16.3125 "/></g></g><g style="fill:#112c59;fill-opacity:1;"><g transform="translate(125.882239, 101.163171)"><path style="stroke:none" d="M 10.421875 -14.015625 C 10.421875 -15.765625 9.617188 -16.640625 8.015625 -16.640625 L 1 -16.640625 L 1 -20.515625 L 9.421875 -20.515625 C 11.335938 -20.515625 12.851562 -19.96875 13.96875 -18.875 C 15.082031 -17.789062 15.640625 -16.085938 15.640625 -13.765625 L 15.640625 0 L 10.421875 0 Z M 10.421875 -14.015625 "/></g></g><g style="fill:#112c59;fill-opacity:1;"><g transform="translate(143.421183, 101.163171)"><path style="stroke:none" d="M 2.1875 -16.3125 L 1.765625 -20.515625 L 6.9375 -20.515625 L 7.375 -16.3125 L 7.375 -10.703125 L 7.328125 -8.453125 L 2.1875 -7.546875 Z M 2.1875 -16.3125 "/></g></g><g style="fill:#112c59;fill-opacity:1;"><g transform="translate(152.729762, 101.163171)"><path style="stroke:none" d="M 13.328125 -20.515625 C 15.242188 -20.515625 16.757812 -19.941406 17.875 -18.796875 C 18.988281 -17.648438 19.546875 -15.910156 19.546875 -13.578125 L 19.546875 0 L 14.34375 0 L 14.34375 -13.84375 C 14.34375 -15.707031 13.539062 -16.640625 11.9375 -16.640625 L 7.109375 -16.640625 L 7.109375 0 L 1.9375 0 L 1.9375 -20.515625 Z M 13.328125 -20.515625 "/></g></g><g style="fill:#112c59;fill-opacity:1;"><g transform="translate(174.114342, 101.163171)"><path style="stroke:none" d="M 16.75 -20.515625 L 16.75 -16.25 L 10.28125 0 L 5.109375 0 L 11.53125 -16.640625 L 1.109375 -16.640625 L 1.109375 -25.765625 L 5.78125 -25.765625 L 5.78125 -20.515625 Z M 16.75 -20.515625 "/></g></g></g></svg>