<svg xmlns="http://www.w3.org/2000/svg" xmlns:xlink="http://www.w3.org/1999/xlink" width="385" zoomAndPan="magnify" viewBox="0 0 288.75 150.749998" height="201" preserveAspectRatio="xMidYMid meet" version="1.2"><defs><clipPath id="7af2c7e0d5"><path d="M 0.113281 0 L 286.992188 0 L 286.992188 150.1875 L 0.113281 150.1875 Z M 0.113281 0 "/></clipPath><clipPath id="10af2d7312"><path d="M 34.558594 0 L 252.515625 0 C 261.652344 0 270.414062 3.628906 276.871094 10.089844 C 283.332031 16.546875 286.960938 25.308594 286.960938 34.441406 L 286.960938 115.742188 C 286.960938 124.878906 283.332031 133.636719 276.871094 140.097656 C 270.414062 146.558594 261.652344 150.1875 252.515625 150.1875 L 34.558594 150.1875 C 25.421875 150.1875 16.660156 146.558594 10.203125 140.097656 C 3.742188 133.636719 0.113281 124.878906 0.113281 115.742188 L 0.113281 34.441406 C 0.113281 25.308594 3.742188 16.546875 10.203125 10.089844 C 16.660156 3.628906 25.421875 0 34.558594 0 Z M 34.558594 0 "/></clipPath><clipPath id="d93cf251b6"><path d="M 0.113281 0 L 286.992188 0 L 286.992188 150.1875 L 0.113281 150.1875 Z M 0.113281 0 "/></clipPath><clipPath id="f1d686a53a"><path d="M 34.558594 0 L 252.515625 0 C 261.652344 0 270.414062 3.628906 276.871094 10.089844 C 283.332031 16.546875 286.960938 25.308594 286.960938 34.441406 L 286.960938 115.742188 C 286.960938 124.878906 283.332031 133.636719 276.871094 140.097656 C 270.414062 146.558594 261.652344 150.1875 252.515625 150.1875 L 34.558594 150.1875 C 25.421875 150.1875 16.660156 146.558594 10.203125 140.097656 C 3.742188 133.636719 0.113281 124.878906 0.113281 115.742188 L 0.113281 34.441406 C 0.113281 25.308594 3.742188 16.546875 10.203125 10.089844 C 16.660156 3.628906 25.421875 0 34.558594 0 Z M 34.558594 0 "/></clipPath><clipPath id="b41f8f7346"><rect x="0" width="287" y="0" height="151"/></clipPath><clipPath id="20fe819f6d"><path d="M 0.0898438 79 L 1 79 L 1 80 L 0.0898438 80 Z M 0.0898438 79 "/></clipPath><clipPath id="81de874bf9"><rect x="0" width="166" y="0" height="134"/></clipPath></defs><g id="97b43b3718"><g clip-rule="nonzero" clip-path="url(#7af2c7e0d5)"><g clip-rule="nonzero" clip-path="url(#10af2d7312)"><g transform="matrix(1,0,0,1,0,0.000000000000005638)"><g clip-path="url(#b41f8f7346)"><g clip-rule="nonzero" clip-path="url(#d93cf251b6)"><g clip-rule="nonzero" clip-path="url(#f1d686a53a)"><path style=" stroke:none;fill-rule:nonzero;fill:#d1d7ed;fill-opacity:1;" d="M 0.113281 0 L 286.992188 0 L 286.992188 150.1875 L 0.113281 150.1875 Z M 0.113281 0 "/></g></g></g></g></g></g><g transform="matrix(1,0,0,1,64,9)"><g clip-path="url(#81de874bf9)"><g style="fill:#112c59;fill-opacity:1;"><g transform="translate(36.50107, 35.678679)"><path style="stroke:none" d=""/></g></g><g style="fill:#112c59;fill-opacity:1;"><g transform="translate(43.370256, 35.678679)"><path style="stroke:none" d="M 12.65625 -19.59375 C 14.488281 -19.59375 15.9375 -19.070312 17 -18.03125 C 18.0625 -16.988281 18.59375 -15.359375 18.59375 -13.140625 L 18.59375 0 L 1.8125 0 L 1.8125 -19.59375 Z M 13.625 -3.703125 L 13.625 -13.375 C 13.625 -15.050781 12.859375 -15.890625 11.328125 -15.890625 L 6.765625 -15.890625 L 6.765625 -3.703125 Z M 13.625 -3.703125 "/></g></g><g style="fill:#112c59;fill-opacity:1;"><g transform="translate(63.683255, 35.678679)"><path style="stroke:none" d="M 2.09375 -15.578125 L 1.6875 -19.59375 L 6.625 -19.59375 L 7.03125 -15.578125 L 7.03125 -10.21875 L 7 -8.0625 L 2.09375 -7.203125 Z M 2.09375 -15.578125 "/></g></g><g style="fill:#112c59;fill-opacity:1;"><g transform="translate(72.570189, 35.678679)"><path style="stroke:none" d="M 21.953125 -13.859375 C 22.003906 -9.171875 20.644531 -5.628906 17.875 -3.234375 C 15.101562 -0.847656 10.816406 0.34375 5.015625 0.34375 L 3.953125 0.34375 L 1.375 -19.59375 L 6.078125 -19.59375 L 7.0625 -11.125 C 7.976562 -11.570312 8.597656 -12.253906 8.921875 -13.171875 C 9.242188 -14.085938 9.394531 -15.460938 9.375 -17.296875 L 9.375 -19.5625 L 14.0625 -19.5625 L 14.0625 -17.390625 C 14.019531 -14.878906 13.519531 -12.835938 12.5625 -11.265625 C 11.601562 -9.703125 9.910156 -8.507812 7.484375 -7.6875 L 7.953125 -3.734375 C 11.222656 -3.941406 13.554688 -4.882812 14.953125 -6.5625 C 16.347656 -8.25 17.035156 -10.59375 17.015625 -13.59375 L 16.953125 -19.59375 L 21.921875 -19.59375 Z M 21.953125 -13.859375 "/></g></g><g style="fill:#112c59;fill-opacity:1;"><g transform="translate(95.83406, 35.678679)"><path style="stroke:none" d="M 8.4375 0 L 7.828125 -3.671875 C 7.179688 -2.640625 6.425781 -1.769531 5.5625 -1.0625 C 4.707031 -0.351562 3.65625 0.21875 2.40625 0.65625 L 0.578125 -3.265625 C 3.785156 -4.265625 5.960938 -5.863281 7.109375 -8.0625 L 7.109375 -13.65625 C 7.109375 -14.476562 6.976562 -15.0625 6.71875 -15.40625 C 6.46875 -15.75 6.046875 -15.96875 5.453125 -16.0625 L 3.296875 -16.359375 L 3.90625 -20 L 7.953125 -19.453125 C 9.347656 -19.273438 10.378906 -18.753906 11.046875 -17.890625 C 11.710938 -17.035156 12.046875 -15.804688 12.046875 -14.203125 L 12.046875 -7.6875 L 13.140625 0 Z M 8.4375 0 "/></g></g><g style="fill:#112c59;fill-opacity:1;"><g transform="translate(110.382554, 35.678679)"><path style="stroke:none" d="M 9.03125 -11.875 C 9.03125 -12.738281 9.113281 -13.519531 9.28125 -14.21875 C 9.445312 -14.914062 9.679688 -15.472656 9.984375 -15.890625 L 1.203125 -15.890625 L 1.203125 -19.59375 L 17.296875 -19.59375 L 17.296875 -15.890625 L 14.609375 -15.890625 C 14.179688 -14.898438 13.96875 -13.5625 13.96875 -11.875 L 13.96875 0 L 9.03125 0 Z M 9.03125 -11.875 "/></g></g><g clip-rule="nonzero" clip-path="url(#20fe819f6d)"><g style="fill:#112c59;fill-opacity:1;"><g transform="translate(0.647267, 79.284051)"><path style="stroke:none" d=""/></g></g></g><g style="fill:#112c59;fill-opacity:1;"><g transform="translate(7.516454, 79.284051)"><path style="stroke:none" d="M 0.625 -2.78125 C 1.488281 -2.875 2.132812 -3.046875 2.5625 -3.296875 C 3 -3.546875 3.296875 -3.894531 3.453125 -4.34375 C 3.617188 -4.789062 3.691406 -5.425781 3.671875 -6.25 L 3.671875 -19.59375 L 14.0625 -19.59375 C 15.894531 -19.59375 17.335938 -19.070312 18.390625 -18.03125 C 19.441406 -16.988281 19.96875 -15.359375 19.96875 -13.140625 L 19.96875 0 L 15.03125 0 L 15.03125 -13.375 C 15.03125 -15.050781 14.253906 -15.890625 12.703125 -15.890625 L 8.640625 -15.890625 L 8.640625 -6.890625 C 8.640625 -5.148438 8.367188 -3.765625 7.828125 -2.734375 C 7.296875 -1.710938 6.488281 -0.941406 5.40625 -0.421875 C 4.320312 0.0859375 2.863281 0.421875 1.03125 0.578125 Z M 0.625 -2.78125 "/></g></g><g style="fill:#112c59;fill-opacity:1;"><g transform="translate(29.304884, 79.284051)"><path style="stroke:none" d="M 2.09375 -15.578125 L 1.6875 -19.59375 L 6.625 -19.59375 L 7.03125 -15.578125 L 7.03125 0 L 2.09375 0 Z M 2.09375 -15.578125 "/></g></g><g style="fill:#112c59;fill-opacity:1;"><g transform="translate(38.191818, 79.284051)"><path style="stroke:none" d="M 9.03125 -11.875 C 9.03125 -12.738281 9.113281 -13.519531 9.28125 -14.21875 C 9.445312 -14.914062 9.679688 -15.472656 9.984375 -15.890625 L 1.203125 -15.890625 L 1.203125 -19.59375 L 17.296875 -19.59375 L 17.296875 -15.890625 L 14.609375 -15.890625 C 14.179688 -14.898438 13.96875 -13.5625 13.96875 -11.875 L 13.96875 0 L 9.03125 0 Z M 9.03125 -11.875 "/></g></g><g style="fill:#112c59;fill-opacity:1;"><g transform="translate(56.789189, 79.284051)"><path style="stroke:none" d="M 9.03125 -11.875 C 9.03125 -12.738281 9.113281 -13.519531 9.28125 -14.21875 C 9.445312 -14.914062 9.679688 -15.472656 9.984375 -15.890625 L 1.203125 -15.890625 L 1.203125 -19.59375 L 17.296875 -19.59375 L 17.296875 -15.890625 L 14.609375 -15.890625 C 14.179688 -14.898438 13.96875 -13.5625 13.96875 -11.875 L 13.96875 0 L 9.03125 0 Z M 9.03125 -11.875 "/></g></g><g style="fill:#112c59;fill-opacity:1;"><g transform="translate(75.38656, 79.284051)"><path style="stroke:none" d="M 2.09375 -15.578125 L 1.6875 -19.59375 L 6.625 -19.59375 L 7.03125 -15.578125 L 7.03125 0 L 2.09375 0 Z M 2.09375 -15.578125 "/></g></g><g style="fill:#112c59;fill-opacity:1;"><g transform="translate(84.273493, 79.284051)"><path style="stroke:none" d="M 20.6875 -9.78125 C 20.6875 -6.601562 19.945312 -4.101562 18.46875 -2.28125 C 17 -0.457031 14.925781 0.453125 12.25 0.453125 C 11.289062 0.453125 10.238281 0.3125 9.09375 0.03125 L 9.53125 -3.671875 C 10.382812 -3.484375 11.097656 -3.390625 11.671875 -3.390625 C 13.222656 -3.390625 14.328125 -3.910156 14.984375 -4.953125 C 15.648438 -5.992188 15.984375 -7.535156 15.984375 -9.578125 C 15.984375 -11.835938 15.671875 -13.476562 15.046875 -14.5 C 14.421875 -15.519531 13.453125 -16.03125 12.140625 -16.03125 C 11.234375 -16.03125 10.460938 -15.753906 9.828125 -15.203125 C 9.203125 -14.648438 8.804688 -13.90625 8.640625 -12.96875 L 6.515625 0 L 1.578125 0 L 3.953125 -13.203125 L 1.203125 -19.59375 L 6.34375 -19.59375 L 7.71875 -15.6875 C 8.195312 -17.101562 8.914062 -18.160156 9.875 -18.859375 C 10.84375 -19.554688 11.941406 -19.90625 13.171875 -19.90625 C 15.617188 -19.90625 17.484375 -19.0625 18.765625 -17.375 C 20.046875 -15.695312 20.6875 -13.164062 20.6875 -9.78125 Z M 20.6875 -9.78125 "/></g></g><g style="fill:#112c59;fill-opacity:1;"><g transform="translate(106.302109, 79.284051)"><path style="stroke:none" d="M 0.625 -2.78125 C 1.488281 -2.875 2.132812 -3.046875 2.5625 -3.296875 C 3 -3.546875 3.296875 -3.894531 3.453125 -4.34375 C 3.617188 -4.789062 3.691406 -5.425781 3.671875 -6.25 L 3.671875 -19.59375 L 14.0625 -19.59375 C 15.894531 -19.59375 17.335938 -19.070312 18.390625 -18.03125 C 19.441406 -16.988281 19.96875 -15.359375 19.96875 -13.140625 L 19.96875 0 L 15.03125 0 L 15.03125 -13.375 C 15.03125 -15.050781 14.253906 -15.890625 12.703125 -15.890625 L 8.640625 -15.890625 L 8.640625 -6.890625 C 8.640625 -5.148438 8.367188 -3.765625 7.828125 -2.734375 C 7.296875 -1.710938 6.488281 -0.941406 5.40625 -0.421875 C 4.320312 0.0859375 2.863281 0.421875 1.03125 0.578125 Z M 0.625 -2.78125 "/></g></g><g style="fill:#112c59;fill-opacity:1;"><g transform="translate(128.090539, 79.284051)"><path style="stroke:none" d="M 13.109375 -13.375 C 13.109375 -15.050781 12.34375 -15.890625 10.8125 -15.890625 L 1.859375 -15.890625 L 1.859375 -19.59375 L 12.140625 -19.59375 C 13.972656 -19.59375 15.421875 -19.070312 16.484375 -18.03125 C 17.546875 -16.988281 18.078125 -15.359375 18.078125 -13.140625 L 18.078125 0 L 13.109375 0 Z M 1.640625 -9.375 L 2.328125 -11.671875 L 6.625 -11.671875 L 6.625 0 L 1.640625 0 Z M 1.640625 -9.375 "/></g></g><g style="fill:#112c59;fill-opacity:1;"><g transform="translate(147.7516, 79.284051)"><path style="stroke:none" d="M 15.984375 -19.59375 L 15.984375 -15.515625 L 9.8125 0 L 4.875 0 L 11.015625 -15.890625 L 1.0625 -15.890625 L 1.0625 -24.609375 L 5.53125 -24.609375 L 5.53125 -19.59375 Z M 15.984375 -19.59375 "/></g></g><g style="fill:#112c59;fill-opacity:1;"><g transform="translate(35.797397, 122.889423)"><path style="stroke:none" d="M 12.65625 -19.59375 C 14.488281 -19.59375 15.9375 -19.070312 17 -18.03125 C 18.0625 -16.988281 18.59375 -15.359375 18.59375 -13.140625 L 18.59375 0 L 1.8125 0 L 1.8125 -19.59375 Z M 13.625 -3.703125 L 13.625 -13.375 C 13.625 -15.050781 12.859375 -15.890625 11.328125 -15.890625 L 6.765625 -15.890625 L 6.765625 -3.703125 Z M 13.625 -3.703125 "/></g></g><g style="fill:#112c59;fill-opacity:1;"><g transform="translate(56.110396, 122.889423)"><path style="stroke:none" d="M 2.09375 -15.578125 L 1.6875 -19.59375 L 6.625 -19.59375 L 7.03125 -15.578125 L 7.03125 0 L 2.09375 0 Z M 2.09375 -15.578125 "/></g></g><g style="fill:#112c59;fill-opacity:1;"><g transform="translate(64.99733, 122.889423)"><path style="stroke:none" d="M 9.953125 -13.375 C 9.953125 -15.050781 9.1875 -15.890625 7.65625 -15.890625 L 0.953125 -15.890625 L 0.953125 -19.59375 L 8.984375 -19.59375 C 10.816406 -19.59375 12.265625 -19.070312 13.328125 -18.03125 C 14.390625 -16.988281 14.921875 -15.359375 14.921875 -13.140625 L 14.921875 0 L 9.953125 0 Z M 9.953125 -13.375 "/></g></g><g style="fill:#112c59;fill-opacity:1;"><g transform="translate(81.741823, 122.889423)"><path style="stroke:none" d="M 2.09375 -15.578125 L 1.6875 -19.59375 L 6.625 -19.59375 L 7.03125 -15.578125 L 7.03125 -10.21875 L 7 -8.0625 L 2.09375 -7.203125 Z M 2.09375 -15.578125 "/></g></g><g style="fill:#112c59;fill-opacity:1;"><g transform="translate(90.628756, 122.889423)"><path style="stroke:none" d="M 12.734375 -19.59375 C 14.554688 -19.59375 16 -19.039062 17.0625 -17.9375 C 18.132812 -16.84375 18.671875 -15.1875 18.671875 -12.96875 L 18.671875 0 L 13.6875 0 L 13.6875 -13.203125 C 13.6875 -14.992188 12.921875 -15.890625 11.390625 -15.890625 L 6.796875 -15.890625 L 6.796875 0 L 1.859375 0 L 1.859375 -19.59375 Z M 12.734375 -19.59375 "/></g></g><g style="fill:#112c59;fill-opacity:1;"><g transform="translate(111.044691, 122.889423)"><path style="stroke:none" d="M 17.609375 -3.703125 L 17.609375 0 L 1.296875 0 L 1.296875 -3.703125 L 10.359375 -3.703125 L 10.359375 -13.375 C 10.359375 -15.050781 9.582031 -15.890625 8.03125 -15.890625 L 1.296875 -15.890625 L 1.296875 -19.59375 L 9.40625 -19.59375 C 11.226562 -19.59375 12.664062 -19.070312 13.71875 -18.03125 C 14.769531 -16.988281 15.296875 -15.359375 15.296875 -13.140625 L 15.296875 -3.703125 Z M 17.609375 -3.703125 "/></g></g></g></g></g></svg>