<svg xmlns="http://www.w3.org/2000/svg" xmlns:xlink="http://www.w3.org/1999/xlink" width="384" zoomAndPan="magnify" viewBox="0 0 288 150.749998" height="201" preserveAspectRatio="xMidYMid meet" version="1.2"><defs><clipPath id="886504f168"><path d="M 0.238281 0 L 287.117188 0 L 287.117188 150.1875 L 0.238281 150.1875 Z M 0.238281 0 "/></clipPath><clipPath id="ef5cab3d67"><path d="M 34.679688 0 L 252.640625 0 C 261.777344 0 270.535156 3.628906 276.996094 10.089844 C 283.453125 16.546875 287.082031 25.308594 287.082031 34.441406 L 287.082031 115.742188 C 287.082031 124.878906 283.453125 133.636719 276.996094 140.097656 C 270.535156 146.558594 261.777344 150.1875 252.640625 150.1875 L 34.679688 150.1875 C 25.546875 150.1875 16.785156 146.558594 10.328125 140.097656 C 3.867188 133.636719 0.238281 124.878906 0.238281 115.742188 L 0.238281 34.441406 C 0.238281 25.308594 3.867188 16.546875 10.328125 10.089844 C 16.785156 3.628906 25.546875 0 34.679688 0 Z M 34.679688 0 "/></clipPath><clipPath id="0798a0b5eb"><path d="M 0.238281 0 L 287.117188 0 L 287.117188 150.1875 L 0.238281 150.1875 Z M 0.238281 0 "/></clipPath><clipPath id="1a8d6f866d"><path d="M 34.679688 0 L 252.640625 0 C 261.777344 0 270.535156 3.628906 276.996094 10.089844 C 283.453125 16.546875 287.082031 25.308594 287.082031 34.441406 L 287.082031 115.742188 C 287.082031 124.878906 283.453125 133.636719 276.996094 140.097656 C 270.535156 146.558594 261.777344 150.1875 252.640625 150.1875 L 34.679688 150.1875 C 25.546875 150.1875 16.785156 146.558594 10.328125 140.097656 C 3.867188 133.636719 0.238281 124.878906 0.238281 115.742188 L 0.238281 34.441406 C 0.238281 25.308594 3.867188 16.546875 10.328125 10.089844 C 16.785156 3.628906 25.546875 0 34.679688 0 Z M 34.679688 0 "/></clipPath><clipPath id="db0b21ae03"><rect x="0" width="288" y="0" height="151"/></clipPath></defs><g id="e5fe89caeb"><g clip-rule="nonzero" clip-path="url(#886504f168)"><g clip-rule="nonzero" clip-path="url(#ef5cab3d67)"><g transform="matrix(1,0,0,1,0,0.000000000000005638)"><g clip-path="url(#db0b21ae03)"><g clip-rule="nonzero" clip-path="url(#0798a0b5eb)"><g clip-rule="nonzero" clip-path="url(#1a8d6f866d)"><path style=" stroke:none;fill-rule:nonzero;fill:#d1d7ed;fill-opacity:1;" d="M 0.238281 0 L 287.117188 0 L 287.117188 150.1875 L 0.238281 150.1875 Z M 0.238281 0 "/></g></g></g></g></g></g><g style="fill:#112c59;fill-opacity:1;"><g transform="translate(95.923697, 65.359086)"><path style="stroke:none" d="M 0.640625 -2.90625 C 1.554688 -3.007812 2.238281 -3.191406 2.6875 -3.453125 C 3.144531 -3.710938 3.457031 -4.078125 3.625 -4.546875 C 3.789062 -5.015625 3.863281 -5.679688 3.84375 -6.546875 L 3.84375 -20.515625 L 14.734375 -20.515625 C 16.648438 -20.515625 18.160156 -19.96875 19.265625 -18.875 C 20.367188 -17.789062 20.921875 -16.085938 20.921875 -13.765625 L 20.921875 0 L 15.734375 0 L 15.734375 -14.015625 C 15.734375 -15.765625 14.921875 -16.640625 13.296875 -16.640625 L 9.0625 -16.640625 L 9.0625 -7.21875 C 9.0625 -5.40625 8.78125 -3.957031 8.21875 -2.875 C 7.65625 -1.800781 6.800781 -0.992188 5.65625 -0.453125 C 4.519531 0.0859375 2.992188 0.441406 1.078125 0.609375 Z M 0.640625 -2.90625 "/></g></g><g style="fill:#112c59;fill-opacity:1;"><g transform="translate(118.738407, 65.359086)"><path style="stroke:none" d="M 2.1875 -16.3125 L 1.765625 -20.515625 L 6.9375 -20.515625 L 7.375 -16.3125 L 7.375 0 L 2.1875 0 Z M 2.1875 -16.3125 "/></g></g><g style="fill:#112c59;fill-opacity:1;"><g transform="translate(128.043936, 65.359086)"><path style="stroke:none" d="M 16.75 -20.515625 L 16.75 -16.25 L 10.28125 0 L 5.109375 0 L 11.53125 -16.640625 L 1.109375 -16.640625 L 1.109375 -25.765625 L 5.78125 -25.765625 L 5.78125 -20.515625 Z M 16.75 -20.515625 "/></g></g><g style="fill:#112c59;fill-opacity:1;"><g transform="translate(144.858434, 65.359086)"><path style="stroke:none" d="M 15.640625 0 L 8.875 -10.453125 L 5.671875 0 L 0.75 0 L 4.75 -12.328125 L 5.859375 -15.09375 L 2.515625 -20.515625 L 7.734375 -20.515625 L 10.609375 -15.84375 L 13.1875 -11.9375 L 14.15625 -15.203125 L 15.59375 -20.515625 L 20.515625 -20.515625 L 16.203125 -7.4375 L 21.171875 0 Z M 15.640625 0 "/></g></g><g style="fill:#112c59;fill-opacity:1;"><g transform="translate(167.026435, 65.359086)"><path style="stroke:none" d="M 23 -14.515625 C 23.050781 -9.609375 21.625 -5.898438 18.71875 -3.390625 C 15.820312 -0.890625 11.332031 0.359375 5.25 0.359375 L 4.140625 0.359375 L 1.4375 -20.515625 L 6.359375 -20.515625 L 7.40625 -11.640625 C 8.363281 -12.117188 9.007812 -12.835938 9.34375 -13.796875 C 9.675781 -14.753906 9.832031 -16.191406 9.8125 -18.109375 L 9.8125 -20.484375 L 14.734375 -20.484375 L 14.734375 -18.21875 C 14.679688 -15.582031 14.148438 -13.441406 13.140625 -11.796875 C 12.140625 -10.160156 10.367188 -8.910156 7.828125 -8.046875 L 8.34375 -3.921875 C 11.769531 -4.128906 14.210938 -5.113281 15.671875 -6.875 C 17.128906 -8.644531 17.847656 -11.097656 17.828125 -14.234375 L 17.75 -20.515625 L 22.96875 -20.515625 Z M 23 -14.515625 "/></g></g><g style="fill:#112c59;fill-opacity:1;"><g transform="translate(92.448991, 111.033339)"><path style="stroke:none" d="M 0.640625 -2.90625 C 1.554688 -3.007812 2.238281 -3.191406 2.6875 -3.453125 C 3.144531 -3.710938 3.457031 -4.078125 3.625 -4.546875 C 3.789062 -5.015625 3.863281 -5.679688 3.84375 -6.546875 L 3.84375 -20.515625 L 14.734375 -20.515625 C 16.648438 -20.515625 18.160156 -19.96875 19.265625 -18.875 C 20.367188 -17.789062 20.921875 -16.085938 20.921875 -13.765625 L 20.921875 0 L 15.734375 0 L 15.734375 -14.015625 C 15.734375 -15.765625 14.921875 -16.640625 13.296875 -16.640625 L 9.0625 -16.640625 L 9.0625 -7.21875 C 9.0625 -5.40625 8.78125 -3.957031 8.21875 -2.875 C 7.65625 -1.800781 6.800781 -0.992188 5.65625 -0.453125 C 4.519531 0.0859375 2.992188 0.441406 1.078125 0.609375 Z M 0.640625 -2.90625 "/></g></g><g style="fill:#112c59;fill-opacity:1;"><g transform="translate(115.263701, 111.033339)"><path style="stroke:none" d="M 2.1875 -16.3125 L 1.765625 -20.515625 L 6.9375 -20.515625 L 7.375 -16.3125 L 7.375 0 L 2.1875 0 Z M 2.1875 -16.3125 "/></g></g><g style="fill:#112c59;fill-opacity:1;"><g transform="translate(124.569229, 111.033339)"><path style="stroke:none" d="M 13.515625 -8.40625 L 18.25 0 L 1.078125 0 L 1.078125 -3.875 L 10.859375 -3.875 L 1.46875 -20.515625 L 6.6875 -20.515625 L 10.75 -13.296875 L 13.6875 -20.515625 L 18.796875 -20.515625 Z M 13.515625 -8.40625 "/></g></g><g style="fill:#112c59;fill-opacity:1;"><g transform="translate(144.653364, 111.033339)"><path style="stroke:none" d="M 2.1875 -16.3125 L 1.765625 -20.515625 L 6.9375 -20.515625 L 7.375 -16.3125 L 7.375 0 L 2.1875 0 Z M 2.1875 -16.3125 "/></g></g><g style="fill:#112c59;fill-opacity:1;"><g transform="translate(153.958892, 111.033339)"><path style="stroke:none" d="M 1.90625 -3.875 L 9.171875 -3.875 C 10.554688 -3.875 11.632812 -4.320312 12.40625 -5.21875 C 13.1875 -6.125 13.578125 -7.367188 13.578125 -8.953125 L 13.578125 -11.609375 C 13.578125 -13.117188 13.234375 -14.332031 12.546875 -15.25 C 11.867188 -16.175781 10.875 -16.640625 9.5625 -16.640625 L 6.96875 -16.640625 L 6.328125 -13.578125 C 6.253906 -13.273438 6.21875 -12.976562 6.21875 -12.6875 C 6.21875 -12.082031 6.394531 -11.617188 6.75 -11.296875 C 7.113281 -10.972656 7.703125 -10.726562 8.515625 -10.5625 L 7.6875 -7.328125 C 5.5625 -7.378906 4.019531 -7.859375 3.0625 -8.765625 C 2.101562 -9.679688 1.625 -10.914062 1.625 -12.46875 C 1.625 -13.039062 1.671875 -13.566406 1.765625 -14.046875 L 3.203125 -20.515625 L 10.78125 -20.515625 C 13.269531 -20.515625 15.222656 -19.6875 16.640625 -18.03125 C 18.054688 -16.382812 18.765625 -14.160156 18.765625 -11.359375 L 18.765625 -9.203125 C 18.765625 -6.328125 18.007812 -4.070312 16.5 -2.4375 C 14.988281 -0.8125 12.953125 0 10.390625 0 L 1.90625 0 Z M 1.90625 -3.875 "/></g></g><g style="fill:#112c59;fill-opacity:1;"><g transform="translate(173.971175, 111.033339)"><path style="stroke:none" d="M 1.40625 -3.875 L 6.65625 -3.875 L 6.65625 -14.265625 C 6.65625 -15.128906 6.488281 -15.738281 6.15625 -16.09375 C 5.832031 -16.457031 5.335938 -16.6875 4.671875 -16.78125 L 2.15625 -17.140625 L 2.796875 -20.953125 L 7.296875 -20.375 C 8.753906 -20.1875 9.875 -19.5625 10.65625 -18.5 C 11.4375 -17.445312 11.828125 -16.082031 11.828125 -14.40625 L 11.828125 0 L 1.40625 0 Z M 1.40625 -3.875 "/></g></g><g style="fill:#112c59;fill-opacity:1;"><g transform="translate(187.66998, 111.033339)"><path style="stroke:none" d=""/></g></g></g></svg>