<svg xmlns="http://www.w3.org/2000/svg" xmlns:xlink="http://www.w3.org/1999/xlink" width="375" zoomAndPan="magnify" viewBox="0 0 281.25 147.000002" height="196" preserveAspectRatio="xMidYMid meet" version="1.2"><defs><clipPath id="4e2af5e3f1"><path d="M 0.578125 0 L 279.234375 0 L 279.234375 145.882812 L 0.578125 145.882812 Z M 0.578125 0 "/></clipPath><clipPath id="c4dff9a802"><path d="M 34.84375 0 L 244.933594 0 C 263.859375 0 279.203125 15.34375 279.203125 34.265625 L 279.203125 111.613281 C 279.203125 130.539062 263.859375 145.882812 244.933594 145.882812 L 34.84375 145.882812 C 15.917969 145.882812 0.578125 130.539062 0.578125 111.613281 L 0.578125 34.265625 C 0.578125 15.34375 15.917969 0 34.84375 0 Z M 34.84375 0 "/></clipPath><clipPath id="3c437487c3"><path d="M 0.578125 0 L 279.234375 0 L 279.234375 145.882812 L 0.578125 145.882812 Z M 0.578125 0 "/></clipPath><clipPath id="d7e2c2af3c"><path d="M 34.84375 0 L 244.933594 0 C 263.859375 0 279.203125 15.34375 279.203125 34.265625 L 279.203125 111.613281 C 279.203125 130.539062 263.859375 145.882812 244.933594 145.882812 L 34.84375 145.882812 C 15.917969 145.882812 0.578125 130.539062 0.578125 111.613281 L 0.578125 34.265625 C 0.578125 15.34375 15.917969 0 34.84375 0 Z M 34.84375 0 "/></clipPath><clipPath id="22df32f23c"><rect x="0" width="280" y="0" height="146"/></clipPath></defs><g id="39001bfe4f"><g clip-rule="nonzero" clip-path="url(#4e2af5e3f1)"><g clip-rule="nonzero" clip-path="url(#c4dff9a802)"><g transform="matrix(1,0,0,1,0,0.000000000000009996)"><g clip-path="url(#22df32f23c)"><g clip-rule="nonzero" clip-path="url(#3c437487c3)"><g clip-rule="nonzero" clip-path="url(#d7e2c2af3c)"><path style=" stroke:none;fill-rule:nonzero;fill:#a2dadb;fill-opacity:1;" d="M 0.578125 0 L 279.234375 0 L 279.234375 145.882812 L 0.578125 145.882812 Z M 0.578125 0 "/></g></g></g></g></g></g><g style="fill:#112c59;fill-opacity:1;"><g transform="translate(73.145612, 42.398574)"><path style="stroke:none" d="M 1.765625 -13.15625 L 1.421875 -16.546875 L 5.59375 -16.546875 L 5.9375 -13.15625 L 5.9375 -8.625 L 5.90625 -6.8125 L 1.765625 -6.078125 Z M 1.765625 -13.15625 "/></g></g><g style="fill:#112c59;fill-opacity:1;"><g transform="translate(80.646075, 42.398574)"><path style="stroke:none" d="M 15.46875 -16.546875 C 15.445312 -12.703125 15.296875 -9.796875 15.015625 -7.828125 C 14.734375 -5.867188 13.992188 -4.21875 12.796875 -2.875 C 11.609375 -1.539062 9.679688 -0.613281 7.015625 -0.09375 L 0.8125 1.125 L 0.234375 -2.140625 L 4.84375 -3.015625 L 1.5 -16.546875 L 5.671875 -16.546875 L 8.609375 -3.9375 C 9.472656 -4.363281 10.097656 -5.007812 10.484375 -5.875 C 10.867188 -6.75 11.101562 -7.800781 11.1875 -9.03125 C 11.28125 -10.269531 11.328125 -12.144531 11.328125 -14.65625 L 11.328125 -16.546875 Z M 15.46875 -16.546875 "/></g></g><g style="fill:#112c59;fill-opacity:1;"><g transform="translate(97.326645, 42.398574)"><path style="stroke:none" d="M 10.890625 -6.78125 L 14.71875 0 L 0.875 0 L 0.875 -3.125 L 8.75 -3.125 L 1.1875 -16.546875 L 5.390625 -16.546875 L 8.65625 -10.71875 L 11.03125 -16.546875 L 15.15625 -16.546875 Z M 10.890625 -6.78125 "/></g></g><g style="fill:#112c59;fill-opacity:1;"><g transform="translate(113.51491, 42.398574)"><path style="stroke:none" d="M 17.46875 -8.25 C 17.46875 -5.570312 16.84375 -3.460938 15.59375 -1.921875 C 14.351562 -0.390625 12.601562 0.375 10.34375 0.375 C 9.53125 0.375 8.640625 0.257812 7.671875 0.03125 L 8.046875 -3.09375 C 8.765625 -2.945312 9.363281 -2.875 9.84375 -2.875 C 11.15625 -2.875 12.09375 -3.3125 12.65625 -4.1875 C 13.21875 -5.0625 13.5 -6.359375 13.5 -8.078125 C 13.5 -9.992188 13.234375 -11.378906 12.703125 -12.234375 C 12.171875 -13.097656 11.351562 -13.53125 10.25 -13.53125 C 9.476562 -13.53125 8.828125 -13.296875 8.296875 -12.828125 C 7.765625 -12.367188 7.429688 -11.742188 7.296875 -10.953125 L 5.5 0 L 1.328125 0 L 3.328125 -11.15625 L 1.015625 -16.546875 L 5.359375 -16.546875 L 6.515625 -13.234375 C 6.921875 -14.429688 7.53125 -15.320312 8.34375 -15.90625 C 9.15625 -16.5 10.082031 -16.796875 11.125 -16.796875 C 13.1875 -16.796875 14.757812 -16.085938 15.84375 -14.671875 C 16.925781 -13.253906 17.46875 -11.113281 17.46875 -8.25 Z M 17.46875 -8.25 "/></g></g><g style="fill:#112c59;fill-opacity:1;"><g transform="translate(132.106791, 42.398574)"><path style="stroke:none" d="M 12.59375 0 L 7.15625 -8.4375 L 4.578125 0 L 0.609375 0 L 3.828125 -9.9375 L 4.71875 -12.171875 L 2.03125 -16.546875 L 6.234375 -16.546875 L 8.546875 -12.78125 L 10.625 -9.625 L 11.40625 -12.25 L 12.578125 -16.546875 L 16.546875 -16.546875 L 13.0625 -6 L 17.0625 0 Z M 12.59375 0 "/></g></g><g style="fill:#112c59;fill-opacity:1;"><g transform="translate(149.974688, 42.398574)"><path style="stroke:none" d=""/></g></g><g style="fill:#112c59;fill-opacity:1;"><g transform="translate(155.766556, 42.398574)"><path style="stroke:none" d="M 10.6875 -16.546875 C 12.226562 -16.546875 13.445312 -16.101562 14.34375 -15.21875 C 15.25 -14.34375 15.703125 -12.96875 15.703125 -11.09375 L 15.703125 0 L 1.53125 0 L 1.53125 -16.546875 Z M 11.5 -3.125 L 11.5 -11.296875 C 11.5 -12.703125 10.851562 -13.40625 9.5625 -13.40625 L 5.703125 -13.40625 L 5.703125 -3.125 Z M 11.5 -3.125 "/></g></g><g style="fill:#112c59;fill-opacity:1;"><g transform="translate(172.910482, 42.398574)"><path style="stroke:none" d="M 11.0625 -11.296875 C 11.0625 -12.703125 10.414062 -13.40625 9.125 -13.40625 L 1.5625 -13.40625 L 1.5625 -16.546875 L 10.25 -16.546875 C 11.800781 -16.546875 13.023438 -16.101562 13.921875 -15.21875 C 14.816406 -14.34375 15.265625 -12.96875 15.265625 -11.09375 L 15.265625 0 L 11.0625 0 Z M 1.390625 -7.90625 L 1.96875 -9.84375 L 5.59375 -9.84375 L 5.59375 0 L 1.390625 0 Z M 1.390625 -7.90625 "/></g></g><g style="fill:#112c59;fill-opacity:1;"><g transform="translate(189.504176, 42.398574)"><path style="stroke:none" d="M 17.46875 -8.25 C 17.46875 -5.570312 16.84375 -3.460938 15.59375 -1.921875 C 14.351562 -0.390625 12.601562 0.375 10.34375 0.375 C 9.53125 0.375 8.640625 0.257812 7.671875 0.03125 L 8.046875 -3.09375 C 8.765625 -2.945312 9.363281 -2.875 9.84375 -2.875 C 11.15625 -2.875 12.09375 -3.3125 12.65625 -4.1875 C 13.21875 -5.0625 13.5 -6.359375 13.5 -8.078125 C 13.5 -9.992188 13.234375 -11.378906 12.703125 -12.234375 C 12.171875 -13.097656 11.351562 -13.53125 10.25 -13.53125 C 9.476562 -13.53125 8.828125 -13.296875 8.296875 -12.828125 C 7.765625 -12.367188 7.429688 -11.742188 7.296875 -10.953125 L 5.5 0 L 1.328125 0 L 3.328125 -11.15625 L 1.015625 -16.546875 L 5.359375 -16.546875 L 6.515625 -13.234375 C 6.921875 -14.429688 7.53125 -15.320312 8.34375 -15.90625 C 9.15625 -16.5 10.082031 -16.796875 11.125 -16.796875 C 13.1875 -16.796875 14.757812 -16.085938 15.84375 -14.671875 C 16.925781 -13.253906 17.46875 -11.113281 17.46875 -8.25 Z M 17.46875 -8.25 "/></g></g><g style="fill:#112c59;fill-opacity:1;"><g transform="translate(36.352934, 82.624924)"><path style="stroke:none" d="M 7.625 -10.015625 C 7.625 -10.753906 7.691406 -11.414062 7.828125 -12 C 7.972656 -12.59375 8.175781 -13.0625 8.4375 -13.40625 L 1.015625 -13.40625 L 1.015625 -16.546875 L 14.59375 -16.546875 L 14.59375 -13.40625 L 12.34375 -13.40625 C 11.976562 -12.582031 11.796875 -11.453125 11.796875 -10.015625 L 11.796875 0 L 7.625 0 Z M 7.625 -10.015625 "/></g></g><g style="fill:#112c59;fill-opacity:1;"><g transform="translate(52.048893, 82.624924)"><path style="stroke:none" d="M 1.765625 -13.15625 L 1.421875 -16.546875 L 5.59375 -16.546875 L 5.9375 -13.15625 L 5.9375 0 L 1.765625 0 Z M 1.765625 -13.15625 "/></g></g><g style="fill:#112c59;fill-opacity:1;"><g transform="translate(59.549357, 82.624924)"><path style="stroke:none" d="M 7.09375 -3.09375 C 8.40625 -3.21875 9.378906 -3.664062 10.015625 -4.4375 C 10.660156 -5.207031 11.050781 -6.519531 11.1875 -8.375 L 11.5625 -13.40625 L 1.484375 -13.40625 L 1.484375 -16.546875 L 16.046875 -16.546875 L 15.90625 -13.84375 L 15.578125 -9.46875 C 15.273438 -3.195312 12.554688 -0.03125 7.421875 0.03125 Z M 1.25 -8.078125 L 1.828125 -10.078125 L 5.453125 -10.078125 L 5.453125 5.796875 L 1.25 5.796875 Z M 1.25 -8.078125 "/></g></g><g style="fill:#112c59;fill-opacity:1;"><g transform="translate(76.635357, 82.624924)"><path style="stroke:none" d="M 1.765625 -13.15625 L 1.421875 -16.546875 L 5.59375 -16.546875 L 5.9375 -13.15625 L 5.9375 -8.625 L 5.90625 -6.8125 L 1.765625 -6.078125 Z M 1.765625 -13.15625 "/></g></g><g style="fill:#112c59;fill-opacity:1;"><g transform="translate(84.135821, 82.624924)"><path style="stroke:none" d="M 1.53125 -3.125 L 7.390625 -3.125 C 8.503906 -3.125 9.375 -3.484375 10 -4.203125 C 10.632812 -4.929688 10.953125 -5.9375 10.953125 -7.21875 L 10.953125 -9.359375 C 10.953125 -10.578125 10.675781 -11.554688 10.125 -12.296875 C 9.570312 -13.035156 8.765625 -13.40625 7.703125 -13.40625 L 5.625 -13.40625 L 5.09375 -10.953125 C 5.039062 -10.703125 5.015625 -10.457031 5.015625 -10.21875 C 5.015625 -9.738281 5.15625 -9.367188 5.4375 -9.109375 C 5.726562 -8.847656 6.203125 -8.648438 6.859375 -8.515625 L 6.203125 -5.90625 C 4.484375 -5.945312 3.234375 -6.332031 2.453125 -7.0625 C 1.679688 -7.800781 1.296875 -8.796875 1.296875 -10.046875 C 1.296875 -10.515625 1.335938 -10.941406 1.421875 -11.328125 L 2.578125 -16.546875 L 8.6875 -16.546875 C 10.695312 -16.546875 12.269531 -15.878906 13.40625 -14.546875 C 14.550781 -13.210938 15.125 -11.414062 15.125 -9.15625 L 15.125 -7.421875 C 15.125 -5.097656 14.515625 -3.28125 13.296875 -1.96875 C 12.078125 -0.65625 10.4375 0 8.375 0 L 1.53125 0 Z M 1.53125 -3.125 "/></g></g><g style="fill:#112c59;fill-opacity:1;"><g transform="translate(100.26616, 82.624924)"><path style="stroke:none" d=""/></g></g><g style="fill:#112c59;fill-opacity:1;"><g transform="translate(106.058028, 82.624924)"><path style="stroke:none" d="M 13.5 -16.546875 L 13.5 -13.09375 L 8.28125 0 L 4.109375 0 L 9.296875 -13.40625 L 0.890625 -13.40625 L 0.890625 -20.765625 L 4.65625 -20.765625 L 4.65625 -16.546875 Z M 13.5 -16.546875 "/></g></g><g style="fill:#112c59;fill-opacity:1;"><g transform="translate(120.479772, 82.624924)"><path style="stroke:none" d="M 18.546875 -11.703125 C 18.578125 -7.742188 17.425781 -4.753906 15.09375 -2.734375 C 12.757812 -0.710938 9.140625 0.296875 4.234375 0.296875 L 3.328125 0.296875 L 1.15625 -16.546875 L 5.125 -16.546875 L 5.96875 -9.390625 C 6.738281 -9.773438 7.257812 -10.351562 7.53125 -11.125 C 7.800781 -11.894531 7.925781 -13.050781 7.90625 -14.59375 L 7.90625 -16.515625 L 11.875 -16.515625 L 11.875 -14.6875 C 11.832031 -12.5625 11.40625 -10.835938 10.59375 -9.515625 C 9.789062 -8.191406 8.363281 -7.179688 6.3125 -6.484375 L 6.71875 -3.15625 C 9.476562 -3.332031 11.445312 -4.128906 12.625 -5.546875 C 13.800781 -6.960938 14.382812 -8.9375 14.375 -11.46875 L 14.3125 -16.546875 L 18.515625 -16.546875 Z M 18.546875 -11.703125 "/></g></g><g style="fill:#112c59;fill-opacity:1;"><g transform="translate(140.11419, 82.624924)"><path style="stroke:none" d=""/></g></g><g style="fill:#112c59;fill-opacity:1;"><g transform="translate(145.906058, 82.624924)"><path style="stroke:none" d="M 11.0625 -11.296875 C 11.0625 -12.703125 10.414062 -13.40625 9.125 -13.40625 L 1.5625 -13.40625 L 1.5625 -16.546875 L 10.25 -16.546875 C 11.800781 -16.546875 13.023438 -16.101562 13.921875 -15.21875 C 14.816406 -14.34375 15.265625 -12.96875 15.265625 -11.09375 L 15.265625 0 L 11.0625 0 Z M 1.390625 -7.90625 L 1.96875 -9.84375 L 5.59375 -9.84375 L 5.59375 0 L 1.390625 0 Z M 1.390625 -7.90625 "/></g></g><g style="fill:#112c59;fill-opacity:1;"><g transform="translate(162.499752, 82.624924)"><path style="stroke:none" d="M 15.46875 -16.546875 C 15.445312 -12.703125 15.296875 -9.796875 15.015625 -7.828125 C 14.734375 -5.867188 13.992188 -4.21875 12.796875 -2.875 C 11.609375 -1.539062 9.679688 -0.613281 7.015625 -0.09375 L 0.8125 1.125 L 0.234375 -2.140625 L 4.84375 -3.015625 L 1.5 -16.546875 L 5.671875 -16.546875 L 8.609375 -3.9375 C 9.472656 -4.363281 10.097656 -5.007812 10.484375 -5.875 C 10.867188 -6.75 11.101562 -7.800781 11.1875 -9.03125 C 11.28125 -10.269531 11.328125 -12.144531 11.328125 -14.65625 L 11.328125 -16.546875 Z M 15.46875 -16.546875 "/></g></g><g style="fill:#112c59;fill-opacity:1;"><g transform="translate(179.180322, 82.624924)"><path style="stroke:none" d="M 8.40625 -11.296875 C 8.40625 -12.703125 7.753906 -13.40625 6.453125 -13.40625 L 0.8125 -13.40625 L 0.8125 -16.546875 L 7.59375 -16.546875 C 9.132812 -16.546875 10.351562 -16.101562 11.25 -15.21875 C 12.144531 -14.34375 12.59375 -12.96875 12.59375 -11.09375 L 12.59375 0 L 8.40625 0 Z M 8.40625 -11.296875 "/></g></g><g style="fill:#112c59;fill-opacity:1;"><g transform="translate(193.312475, 82.624924)"><path style="stroke:none" d="M 0.515625 -2.34375 C 1.253906 -2.425781 1.804688 -2.570312 2.171875 -2.78125 C 2.535156 -2.988281 2.785156 -3.28125 2.921875 -3.65625 C 3.054688 -4.039062 3.113281 -4.578125 3.09375 -5.265625 L 3.09375 -16.546875 L 11.875 -16.546875 C 13.414062 -16.546875 14.628906 -16.101562 15.515625 -15.21875 C 16.410156 -14.34375 16.859375 -12.96875 16.859375 -11.09375 L 16.859375 0 L 12.6875 0 L 12.6875 -11.296875 C 12.6875 -12.703125 12.03125 -13.40625 10.71875 -13.40625 L 7.296875 -13.40625 L 7.296875 -5.828125 C 7.296875 -4.359375 7.066406 -3.1875 6.609375 -2.3125 C 6.160156 -1.445312 5.476562 -0.796875 4.5625 -0.359375 C 3.644531 0.078125 2.414062 0.363281 0.875 0.5 Z M 0.515625 -2.34375 "/></g></g><g style="fill:#112c59;fill-opacity:1;"><g transform="translate(211.701642, 82.624924)"><path style="stroke:none" d="M 11.0625 -11.296875 C 11.0625 -12.703125 10.414062 -13.40625 9.125 -13.40625 L 1.5625 -13.40625 L 1.5625 -16.546875 L 10.25 -16.546875 C 11.800781 -16.546875 13.023438 -16.101562 13.921875 -15.21875 C 14.816406 -14.34375 15.265625 -12.96875 15.265625 -11.09375 L 15.265625 0 L 11.0625 0 Z M 1.390625 -7.90625 L 1.96875 -9.84375 L 5.59375 -9.84375 L 5.59375 0 L 1.390625 0 Z M 1.390625 -7.90625 "/></g></g><g style="fill:#112c59;fill-opacity:1;"><g transform="translate(228.295336, 82.624924)"><path style="stroke:none" d="M 11.0625 -11.296875 C 11.0625 -12.703125 10.414062 -13.40625 9.125 -13.40625 L 1.5625 -13.40625 L 1.5625 -16.546875 L 10.25 -16.546875 C 11.800781 -16.546875 13.023438 -16.101562 13.921875 -15.21875 C 14.816406 -14.34375 15.265625 -12.96875 15.265625 -11.09375 L 15.265625 0 L 11.0625 0 Z M 1.390625 -7.90625 L 1.96875 -9.84375 L 5.59375 -9.84375 L 5.59375 0 L 1.390625 0 Z M 1.390625 -7.90625 "/></g></g><g style="fill:#112c59;fill-opacity:1;"><g transform="translate(98.391837, 122.851274)"><path style="stroke:none" d="M 4.484375 -6.546875 C 4.453125 -6.890625 4.4375 -7.140625 4.4375 -7.296875 C 4.4375 -8.171875 4.628906 -8.941406 5.015625 -9.609375 C 5.398438 -10.273438 5.945312 -11.007812 6.65625 -11.8125 C 7.195312 -12.4375 7.585938 -12.945312 7.828125 -13.34375 C 8.078125 -13.738281 8.203125 -14.148438 8.203125 -14.578125 C 8.203125 -15.191406 8.007812 -15.675781 7.625 -16.03125 C 7.25 -16.382812 6.742188 -16.5625 6.109375 -16.5625 C 5.585938 -16.5625 5.109375 -16.441406 4.671875 -16.203125 C 4.242188 -15.960938 3.804688 -15.617188 3.359375 -15.171875 L 1.1875 -17.171875 C 1.882812 -17.960938 2.695312 -18.585938 3.625 -19.046875 C 4.550781 -19.515625 5.546875 -19.75 6.609375 -19.75 C 8.222656 -19.75 9.523438 -19.332031 10.515625 -18.5 C 11.503906 -17.675781 12 -16.460938 12 -14.859375 C 12 -14.085938 11.820312 -13.40625 11.46875 -12.8125 C 11.125 -12.226562 10.601562 -11.539062 9.90625 -10.75 C 9.25 -10.007812 8.753906 -9.367188 8.421875 -8.828125 C 8.097656 -8.296875 7.9375 -7.679688 7.9375 -6.984375 C 7.9375 -6.785156 7.945312 -6.640625 7.96875 -6.546875 Z M 6.234375 0.34375 C 5.535156 0.34375 4.953125 0.101562 4.484375 -0.375 C 4.023438 -0.851562 3.796875 -1.460938 3.796875 -2.203125 C 3.796875 -2.929688 4.023438 -3.535156 4.484375 -4.015625 C 4.953125 -4.503906 5.535156 -4.75 6.234375 -4.75 C 6.921875 -4.75 7.492188 -4.503906 7.953125 -4.015625 C 8.421875 -3.535156 8.65625 -2.929688 8.65625 -2.203125 C 8.65625 -1.460938 8.421875 -0.851562 7.953125 -0.375 C 7.492188 0.101562 6.921875 0.34375 6.234375 0.34375 Z M 6.234375 0.34375 "/></g></g><g style="fill:#112c59;fill-opacity:1;"><g transform="translate(111.626243, 122.851274)"><path style="stroke:none" d="M 8.71875 -16.546875 C 10.707031 -16.546875 12.210938 -15.882812 13.234375 -14.5625 C 14.265625 -13.25 14.78125 -11.445312 14.78125 -9.15625 L 14.78125 5.796875 L 10.609375 5.796875 L 10.609375 -9.359375 C 10.609375 -10.585938 10.363281 -11.566406 9.875 -12.296875 C 9.394531 -13.035156 8.632812 -13.40625 7.59375 -13.40625 L 5.390625 -13.40625 L 5.046875 -11.46875 C 5.003906 -11.039062 4.984375 -10.734375 4.984375 -10.546875 C 4.984375 -9.960938 5.082031 -9.5 5.28125 -9.15625 C 5.488281 -8.820312 5.851562 -8.628906 6.375 -8.578125 L 5.625 -6.046875 C 2.59375 -6.128906 1.078125 -7.4375 1.078125 -9.96875 C 1.078125 -10.394531 1.144531 -10.960938 1.28125 -11.671875 L 2.34375 -16.546875 Z M 8.71875 -16.546875 "/></g></g><g style="fill:#112c59;fill-opacity:1;"><g transform="translate(127.959297, 122.851274)"><path style="stroke:none" d="M 8.40625 -11.296875 C 8.40625 -12.703125 7.753906 -13.40625 6.453125 -13.40625 L 0.8125 -13.40625 L 0.8125 -16.546875 L 7.59375 -16.546875 C 9.132812 -16.546875 10.351562 -16.101562 11.25 -15.21875 C 12.144531 -14.34375 12.59375 -12.96875 12.59375 -11.09375 L 12.59375 0 L 8.40625 0 Z M 8.40625 -11.296875 "/></g></g><g style="fill:#112c59;fill-opacity:1;"><g transform="translate(142.09145, 122.851274)"><path style="stroke:none" d="M 1.765625 -13.15625 L 1.421875 -16.546875 L 5.59375 -16.546875 L 5.9375 -13.15625 L 5.9375 0 L 1.765625 0 Z M 1.765625 -13.15625 "/></g></g><g style="fill:#112c59;fill-opacity:1;"><g transform="translate(149.591913, 122.851274)"><path style="stroke:none" d="M 15.46875 -16.546875 C 15.445312 -12.703125 15.296875 -9.796875 15.015625 -7.828125 C 14.734375 -5.867188 13.992188 -4.21875 12.796875 -2.875 C 11.609375 -1.539062 9.679688 -0.613281 7.015625 -0.09375 L 0.8125 1.125 L 0.234375 -2.140625 L 4.84375 -3.015625 L 1.5 -16.546875 L 5.671875 -16.546875 L 8.609375 -3.9375 C 9.472656 -4.363281 10.097656 -5.007812 10.484375 -5.875 C 10.867188 -6.75 11.101562 -7.800781 11.1875 -9.03125 C 11.28125 -10.269531 11.328125 -12.144531 11.328125 -14.65625 L 11.328125 -16.546875 Z M 15.46875 -16.546875 "/></g></g><g style="fill:#112c59;fill-opacity:1;"><g transform="translate(166.272484, 122.851274)"><path style="stroke:none" d="M 11.0625 -11.296875 C 11.0625 -12.703125 10.414062 -13.40625 9.125 -13.40625 L 1.5625 -13.40625 L 1.5625 -16.546875 L 10.25 -16.546875 C 11.800781 -16.546875 13.023438 -16.101562 13.921875 -15.21875 C 14.816406 -14.34375 15.265625 -12.96875 15.265625 -11.09375 L 15.265625 0 L 11.0625 0 Z M 1.390625 -7.90625 L 1.96875 -9.84375 L 5.59375 -9.84375 L 5.59375 0 L 1.390625 0 Z M 1.390625 -7.90625 "/></g></g></g></svg>