<svg xmlns="http://www.w3.org/2000/svg" xmlns:xlink="http://www.w3.org/1999/xlink" width="375" zoomAndPan="magnify" viewBox="0 0 281.25 147.000002" height="196" preserveAspectRatio="xMidYMid meet" version="1.2"><defs><clipPath id="b2749292c9"><path d="M 0.578125 0 L 279.234375 0 L 279.234375 145.882812 L 0.578125 145.882812 Z M 0.578125 0 "/></clipPath><clipPath id="d46b458531"><path d="M 34.84375 0 L 244.933594 0 C 263.859375 0 279.203125 15.34375 279.203125 34.265625 L 279.203125 111.613281 C 279.203125 130.539062 263.859375 145.882812 244.933594 145.882812 L 34.84375 145.882812 C 15.917969 145.882812 0.578125 130.539062 0.578125 111.613281 L 0.578125 34.265625 C 0.578125 15.34375 15.917969 0 34.84375 0 Z M 34.84375 0 "/></clipPath><clipPath id="03db3c5172"><path d="M 0.578125 0 L 279.234375 0 L 279.234375 145.882812 L 0.578125 145.882812 Z M 0.578125 0 "/></clipPath><clipPath id="98aa689008"><path d="M 34.84375 0 L 244.933594 0 C 263.859375 0 279.203125 15.34375 279.203125 34.265625 L 279.203125 111.613281 C 279.203125 130.539062 263.859375 145.882812 244.933594 145.882812 L 34.84375 145.882812 C 15.917969 145.882812 0.578125 130.539062 0.578125 111.613281 L 0.578125 34.265625 C 0.578125 15.34375 15.917969 0 34.84375 0 Z M 34.84375 0 "/></clipPath><clipPath id="1cc7f7b198"><rect x="0" width="280" y="0" height="146"/></clipPath></defs><g id="5f4c933fb2"><g clip-rule="nonzero" clip-path="url(#b2749292c9)"><g clip-rule="nonzero" clip-path="url(#d46b458531)"><g transform="matrix(1,0,0,1,0,0.000000000000009996)"><g clip-path="url(#1cc7f7b198)"><g clip-rule="nonzero" clip-path="url(#03db3c5172)"><g clip-rule="nonzero" clip-path="url(#98aa689008)"><path style=" stroke:none;fill-rule:nonzero;fill:#a2dadb;fill-opacity:1;" d="M 0.578125 0 L 279.234375 0 L 279.234375 145.882812 L 0.578125 145.882812 Z M 0.578125 0 "/></g></g></g></g></g></g><g style="fill:#112c59;fill-opacity:1;"><g transform="translate(51.426176, 57.27301)"><path style="stroke:none" d="M 13.5 -16.546875 L 13.5 -13.09375 L 8.28125 0 L 4.109375 0 L 9.296875 -13.40625 L 0.890625 -13.40625 L 0.890625 -20.765625 L 4.65625 -20.765625 L 4.65625 -16.546875 Z M 13.5 -16.546875 "/></g></g><g style="fill:#112c59;fill-opacity:1;"><g transform="translate(65.84792, 57.27301)"><path style="stroke:none" d="M 1.15625 -16.546875 L 5.359375 -16.546875 L 6.78125 -3.421875 C 8.789062 -3.609375 10.21875 -4.195312 11.0625 -5.1875 C 11.914062 -6.1875 12.320312 -7.601562 12.28125 -9.4375 L 12.28125 -10.34375 C 12.28125 -11.207031 12.039062 -11.941406 11.5625 -12.546875 C 11.09375 -13.160156 10.382812 -13.5 9.4375 -13.5625 L 8.03125 -13.640625 L 8.34375 -16.859375 L 10.109375 -16.765625 C 11.898438 -16.671875 13.367188 -16.117188 14.515625 -15.109375 C 15.671875 -14.097656 16.28125 -12.65625 16.34375 -10.78125 L 16.375 -9.96875 C 16.488281 -6.5625 15.390625 -4.039062 13.078125 -2.40625 C 10.773438 -0.78125 7.445312 0.117188 3.09375 0.296875 Z M 1.15625 -16.546875 "/></g></g><g style="fill:#112c59;fill-opacity:1;"><g transform="translate(82.962883, 57.27301)"><path style="stroke:none" d="M 8.40625 -11.296875 C 8.40625 -12.703125 7.753906 -13.40625 6.453125 -13.40625 L 0.8125 -13.40625 L 0.8125 -16.546875 L 7.59375 -16.546875 C 9.132812 -16.546875 10.351562 -16.101562 11.25 -15.21875 C 12.144531 -14.34375 12.59375 -12.96875 12.59375 -11.09375 L 12.59375 0 L 8.40625 0 Z M 8.40625 -11.296875 "/></g></g><g style="fill:#112c59;fill-opacity:1;"><g transform="translate(97.095036, 57.27301)"><path style="stroke:none" d="M 1.765625 -13.15625 L 1.421875 -16.546875 L 5.59375 -16.546875 L 5.9375 -13.15625 L 5.9375 0 L 1.765625 0 Z M 1.765625 -13.15625 "/></g></g><g style="fill:#112c59;fill-opacity:1;"><g transform="translate(104.595499, 57.27301)"><path style="stroke:none" d="M 1.53125 -3.125 L 7.390625 -3.125 C 8.503906 -3.125 9.375 -3.484375 10 -4.203125 C 10.632812 -4.929688 10.953125 -5.9375 10.953125 -7.21875 L 10.953125 -9.359375 C 10.953125 -10.578125 10.675781 -11.554688 10.125 -12.296875 C 9.570312 -13.035156 8.765625 -13.40625 7.703125 -13.40625 L 5.625 -13.40625 L 5.09375 -10.953125 C 5.039062 -10.703125 5.015625 -10.457031 5.015625 -10.21875 C 5.015625 -9.738281 5.15625 -9.367188 5.4375 -9.109375 C 5.726562 -8.847656 6.203125 -8.648438 6.859375 -8.515625 L 6.203125 -5.90625 C 4.484375 -5.945312 3.234375 -6.332031 2.453125 -7.0625 C 1.679688 -7.800781 1.296875 -8.796875 1.296875 -10.046875 C 1.296875 -10.515625 1.335938 -10.941406 1.421875 -11.328125 L 2.578125 -16.546875 L 8.6875 -16.546875 C 10.695312 -16.546875 12.269531 -15.878906 13.40625 -14.546875 C 14.550781 -13.210938 15.125 -11.414062 15.125 -9.15625 L 15.125 -7.421875 C 15.125 -5.097656 14.515625 -3.28125 13.296875 -1.96875 C 12.078125 -0.65625 10.4375 0 8.375 0 L 1.53125 0 Z M 1.53125 -3.125 "/></g></g><g style="fill:#112c59;fill-opacity:1;"><g transform="translate(120.725839, 57.27301)"><path style="stroke:none" d=""/></g></g><g style="fill:#112c59;fill-opacity:1;"><g transform="translate(126.517707, 57.27301)"><path style="stroke:none" d="M 0.515625 -2.34375 C 1.253906 -2.425781 1.804688 -2.570312 2.171875 -2.78125 C 2.535156 -2.988281 2.785156 -3.28125 2.921875 -3.65625 C 3.054688 -4.039062 3.113281 -4.578125 3.09375 -5.265625 L 3.09375 -16.546875 L 11.875 -16.546875 C 13.414062 -16.546875 14.628906 -16.101562 15.515625 -15.21875 C 16.410156 -14.34375 16.859375 -12.96875 16.859375 -11.09375 L 16.859375 0 L 12.6875 0 L 12.6875 -11.296875 C 12.6875 -12.703125 12.03125 -13.40625 10.71875 -13.40625 L 7.296875 -13.40625 L 7.296875 -5.828125 C 7.296875 -4.359375 7.066406 -3.1875 6.609375 -2.3125 C 6.160156 -1.445312 5.476562 -0.796875 4.5625 -0.359375 C 3.644531 0.078125 2.414062 0.363281 0.875 0.5 Z M 0.515625 -2.34375 "/></g></g><g style="fill:#112c59;fill-opacity:1;"><g transform="translate(144.906873, 57.27301)"><path style="stroke:none" d="M 12.59375 0 L 7.15625 -8.4375 L 4.578125 0 L 0.609375 0 L 3.828125 -9.9375 L 4.71875 -12.171875 L 2.03125 -16.546875 L 6.234375 -16.546875 L 8.546875 -12.78125 L 10.625 -9.625 L 11.40625 -12.25 L 12.578125 -16.546875 L 16.546875 -16.546875 L 13.0625 -6 L 17.0625 0 Z M 12.59375 0 "/></g></g><g style="fill:#112c59;fill-opacity:1;"><g transform="translate(162.77477, 57.27301)"><path style="stroke:none" d=""/></g></g><g style="fill:#112c59;fill-opacity:1;"><g transform="translate(168.566638, 57.27301)"><path style="stroke:none" d="M 1.765625 -13.15625 L 1.421875 -16.546875 L 5.59375 -16.546875 L 5.9375 -13.15625 L 5.9375 0 L 1.765625 0 Z M 1.765625 -13.15625 "/></g></g><g style="fill:#112c59;fill-opacity:1;"><g transform="translate(176.067101, 57.27301)"><path style="stroke:none" d="M 8.40625 -11.296875 C 8.40625 -12.703125 7.753906 -13.40625 6.453125 -13.40625 L 0.8125 -13.40625 L 0.8125 -16.546875 L 7.59375 -16.546875 C 9.132812 -16.546875 10.351562 -16.101562 11.25 -15.21875 C 12.144531 -14.34375 12.59375 -12.96875 12.59375 -11.09375 L 12.59375 0 L 8.40625 0 Z M 8.40625 -11.296875 "/></g></g><g style="fill:#112c59;fill-opacity:1;"><g transform="translate(190.199254, 57.27301)"><path style="stroke:none" d="M 1.765625 -13.15625 L 1.421875 -16.546875 L 5.59375 -16.546875 L 5.9375 -13.15625 L 5.9375 -8.625 L 5.90625 -6.8125 L 1.765625 -6.078125 Z M 1.765625 -13.15625 "/></g></g><g style="fill:#112c59;fill-opacity:1;"><g transform="translate(197.699717, 57.27301)"><path style="stroke:none" d="M 0.84375 -3.125 L 5.46875 -3.125 C 6.59375 -3.125 7.421875 -3.488281 7.953125 -4.21875 C 8.484375 -4.957031 8.75 -5.945312 8.75 -7.1875 L 8.75 -9.359375 C 8.75 -10.585938 8.484375 -11.566406 7.953125 -12.296875 C 7.421875 -13.035156 6.59375 -13.40625 5.46875 -13.40625 L 0.84375 -13.40625 L 0.84375 -16.546875 L 6.609375 -16.546875 C 8.671875 -16.546875 10.242188 -15.882812 11.328125 -14.5625 C 12.410156 -13.238281 12.953125 -11.425781 12.953125 -9.125 L 12.953125 -7.421875 C 12.953125 -5.117188 12.410156 -3.304688 11.328125 -1.984375 C 10.242188 -0.660156 8.671875 0 6.609375 0 L 0.84375 0 Z M 0.84375 -3.125 "/></g></g><g style="fill:#112c59;fill-opacity:1;"><g transform="translate(211.744994, 57.27301)"><path style="stroke:none" d="M 11.0625 -11.296875 C 11.0625 -12.703125 10.414062 -13.40625 9.125 -13.40625 L 1.5625 -13.40625 L 1.5625 -16.546875 L 10.25 -16.546875 C 11.800781 -16.546875 13.023438 -16.101562 13.921875 -15.21875 C 14.816406 -14.34375 15.265625 -12.96875 15.265625 -11.09375 L 15.265625 0 L 11.0625 0 Z M 1.390625 -7.90625 L 1.96875 -9.84375 L 5.59375 -9.84375 L 5.59375 0 L 1.390625 0 Z M 1.390625 -7.90625 "/></g></g><g style="fill:#112c59;fill-opacity:1;"><g transform="translate(55.697898, 97.49936)"><path style="stroke:none" d="M 1.765625 -13.15625 L 1.421875 -16.546875 L 5.59375 -16.546875 L 5.9375 -13.15625 L 5.9375 -8.625 L 5.90625 -6.8125 L 1.765625 -6.078125 Z M 1.765625 -13.15625 "/></g></g><g style="fill:#112c59;fill-opacity:1;"><g transform="translate(63.198361, 97.49936)"><path style="stroke:none" d="M 17.46875 -8.25 C 17.46875 -5.570312 16.84375 -3.460938 15.59375 -1.921875 C 14.351562 -0.390625 12.601562 0.375 10.34375 0.375 C 9.53125 0.375 8.640625 0.257812 7.671875 0.03125 L 8.046875 -3.09375 C 8.765625 -2.945312 9.363281 -2.875 9.84375 -2.875 C 11.15625 -2.875 12.09375 -3.3125 12.65625 -4.1875 C 13.21875 -5.0625 13.5 -6.359375 13.5 -8.078125 C 13.5 -9.992188 13.234375 -11.378906 12.703125 -12.234375 C 12.171875 -13.097656 11.351562 -13.53125 10.25 -13.53125 C 9.476562 -13.53125 8.828125 -13.296875 8.296875 -12.828125 C 7.765625 -12.367188 7.429688 -11.742188 7.296875 -10.953125 L 5.5 0 L 1.328125 0 L 3.328125 -11.15625 L 1.015625 -16.546875 L 5.359375 -16.546875 L 6.515625 -13.234375 C 6.921875 -14.429688 7.53125 -15.320312 8.34375 -15.90625 C 9.15625 -16.5 10.082031 -16.796875 11.125 -16.796875 C 13.1875 -16.796875 14.757812 -16.085938 15.84375 -14.671875 C 16.925781 -13.253906 17.46875 -11.113281 17.46875 -8.25 Z M 17.46875 -8.25 "/></g></g><g style="fill:#112c59;fill-opacity:1;"><g transform="translate(81.790242, 97.49936)"><path style="stroke:none" d="M 1.765625 -13.15625 L 1.421875 -16.546875 L 5.59375 -16.546875 L 5.9375 -13.15625 L 5.9375 0 L 1.765625 0 Z M 1.765625 -13.15625 "/></g></g><g style="fill:#112c59;fill-opacity:1;"><g transform="translate(89.290705, 97.49936)"><path style="stroke:none" d="M 12.59375 0 L 7.15625 -8.4375 L 4.578125 0 L 0.609375 0 L 3.828125 -9.9375 L 4.71875 -12.171875 L 2.03125 -16.546875 L 6.234375 -16.546875 L 8.546875 -12.78125 L 10.625 -9.625 L 11.40625 -12.25 L 12.578125 -16.546875 L 16.546875 -16.546875 L 13.0625 -6 L 17.0625 0 Z M 12.59375 0 "/></g></g><g style="fill:#112c59;fill-opacity:1;"><g transform="translate(107.158603, 97.49936)"><path style="stroke:none" d="M 13.5 -16.546875 L 13.5 -13.09375 L 8.28125 0 L 4.109375 0 L 9.296875 -13.40625 L 0.890625 -13.40625 L 0.890625 -20.765625 L 4.65625 -20.765625 L 4.65625 -16.546875 Z M 13.5 -16.546875 "/></g></g><g style="fill:#112c59;fill-opacity:1;"><g transform="translate(121.580347, 97.49936)"><path style="stroke:none" d="M 11.0625 -11.296875 C 11.0625 -12.703125 10.414062 -13.40625 9.125 -13.40625 L 1.5625 -13.40625 L 1.5625 -16.546875 L 10.25 -16.546875 C 11.800781 -16.546875 13.023438 -16.101562 13.921875 -15.21875 C 14.816406 -14.34375 15.265625 -12.96875 15.265625 -11.09375 L 15.265625 0 L 11.0625 0 Z M 1.390625 -7.90625 L 1.96875 -9.84375 L 5.59375 -9.84375 L 5.59375 0 L 1.390625 0 Z M 1.390625 -7.90625 "/></g></g><g style="fill:#112c59;fill-opacity:1;"><g transform="translate(138.174041, 97.49936)"><path style="stroke:none" d=""/></g></g><g style="fill:#112c59;fill-opacity:1;"><g transform="translate(143.965908, 97.49936)"><path style="stroke:none" d="M 10.6875 -16.546875 C 12.226562 -16.546875 13.445312 -16.101562 14.34375 -15.21875 C 15.25 -14.34375 15.703125 -12.96875 15.703125 -11.09375 L 15.703125 0 L 1.53125 0 L 1.53125 -16.546875 Z M 11.5 -3.125 L 11.5 -11.296875 C 11.5 -12.703125 10.851562 -13.40625 9.5625 -13.40625 L 5.703125 -13.40625 L 5.703125 -3.125 Z M 11.5 -3.125 "/></g></g><g style="fill:#112c59;fill-opacity:1;"><g transform="translate(161.109834, 97.49936)"><path style="stroke:none" d="M 1.765625 -13.15625 L 1.421875 -16.546875 L 5.59375 -16.546875 L 5.9375 -13.15625 L 5.9375 0 L 1.765625 0 Z M 1.765625 -13.15625 "/></g></g><g style="fill:#112c59;fill-opacity:1;"><g transform="translate(168.610298, 97.49936)"><path style="stroke:none" d="M 8.40625 -11.296875 C 8.40625 -12.703125 7.753906 -13.40625 6.453125 -13.40625 L 0.8125 -13.40625 L 0.8125 -16.546875 L 7.59375 -16.546875 C 9.132812 -16.546875 10.351562 -16.101562 11.25 -15.21875 C 12.144531 -14.34375 12.59375 -12.96875 12.59375 -11.09375 L 12.59375 0 L 8.40625 0 Z M 8.40625 -11.296875 "/></g></g><g style="fill:#112c59;fill-opacity:1;"><g transform="translate(182.742451, 97.49936)"><path style="stroke:none" d="M 1.765625 -13.15625 L 1.421875 -16.546875 L 5.59375 -16.546875 L 5.9375 -13.15625 L 5.9375 -8.625 L 5.90625 -6.8125 L 1.765625 -6.078125 Z M 1.765625 -13.15625 "/></g></g><g style="fill:#112c59;fill-opacity:1;"><g transform="translate(190.242914, 97.49936)"><path style="stroke:none" d="M 10.75 -16.546875 C 12.289062 -16.546875 13.507812 -16.082031 14.40625 -15.15625 C 15.3125 -14.226562 15.765625 -12.828125 15.765625 -10.953125 L 15.765625 0 L 11.5625 0 L 11.5625 -11.15625 C 11.5625 -12.65625 10.914062 -13.40625 9.625 -13.40625 L 5.734375 -13.40625 L 5.734375 0 L 1.5625 0 L 1.5625 -16.546875 Z M 10.75 -16.546875 "/></g></g><g style="fill:#112c59;fill-opacity:1;"><g transform="translate(207.473716, 97.49936)"><path style="stroke:none" d="M 11.0625 -11.296875 C 11.0625 -12.703125 10.414062 -13.40625 9.125 -13.40625 L 1.5625 -13.40625 L 1.5625 -16.546875 L 10.25 -16.546875 C 11.800781 -16.546875 13.023438 -16.101562 13.921875 -15.21875 C 14.816406 -14.34375 15.265625 -12.96875 15.265625 -11.09375 L 15.265625 0 L 11.0625 0 Z M 1.390625 -7.90625 L 1.96875 -9.84375 L 5.59375 -9.84375 L 5.59375 0 L 1.390625 0 Z M 1.390625 -7.90625 "/></g></g></g></svg>