<svg xmlns="http://www.w3.org/2000/svg" xmlns:xlink="http://www.w3.org/1999/xlink" width="375" zoomAndPan="magnify" viewBox="0 0 281.25 147.000002" height="196" preserveAspectRatio="xMidYMid meet" version="1.2"><defs><clipPath id="4cfd708eeb"><path d="M 0.578125 0 L 279.234375 0 L 279.234375 145.882812 L 0.578125 145.882812 Z M 0.578125 0 "/></clipPath><clipPath id="3214fbf046"><path d="M 34.84375 0 L 244.933594 0 C 263.859375 0 279.203125 15.34375 279.203125 34.265625 L 279.203125 111.613281 C 279.203125 130.539062 263.859375 145.882812 244.933594 145.882812 L 34.84375 145.882812 C 15.917969 145.882812 0.578125 130.539062 0.578125 111.613281 L 0.578125 34.265625 C 0.578125 15.34375 15.917969 0 34.84375 0 Z M 34.84375 0 "/></clipPath><clipPath id="6eb81c8f39"><path d="M 0.578125 0 L 279.234375 0 L 279.234375 145.882812 L 0.578125 145.882812 Z M 0.578125 0 "/></clipPath><clipPath id="d8957c9eff"><path d="M 34.84375 0 L 244.933594 0 C 263.859375 0 279.203125 15.34375 279.203125 34.265625 L 279.203125 111.613281 C 279.203125 130.539062 263.859375 145.882812 244.933594 145.882812 L 34.84375 145.882812 C 15.917969 145.882812 0.578125 130.539062 0.578125 111.613281 L 0.578125 34.265625 C 0.578125 15.34375 15.917969 0 34.84375 0 Z M 34.84375 0 "/></clipPath><clipPath id="c0ca2f76ce"><rect x="0" width="280" y="0" height="146"/></clipPath></defs><g id="85b812acf9"><g clip-rule="nonzero" clip-path="url(#4cfd708eeb)"><g clip-rule="nonzero" clip-path="url(#3214fbf046)"><g transform="matrix(1,0,0,1,0,0.000000000000009996)"><g clip-path="url(#c0ca2f76ce)"><g clip-rule="nonzero" clip-path="url(#6eb81c8f39)"><g clip-rule="nonzero" clip-path="url(#d8957c9eff)"><path style=" stroke:none;fill-rule:nonzero;fill:#a2dadb;fill-opacity:1;" d="M 0.578125 0 L 279.234375 0 L 279.234375 145.882812 L 0.578125 145.882812 Z M 0.578125 0 "/></g></g></g></g></g></g><g style="fill:#112c59;fill-opacity:1;"><g transform="translate(44.814641, 43.46879)"><path style="stroke:none" d="M 0.515625 -2.34375 C 1.242188 -2.414062 1.789062 -2.554688 2.15625 -2.765625 C 2.53125 -2.984375 2.78125 -3.28125 2.90625 -3.65625 C 3.039062 -4.03125 3.101562 -4.5625 3.09375 -5.25 L 3.09375 -16.46875 L 11.828125 -16.46875 C 13.367188 -16.46875 14.578125 -16.03125 15.453125 -15.15625 C 16.335938 -14.28125 16.78125 -12.910156 16.78125 -11.046875 L 16.78125 0 L 12.640625 0 L 12.640625 -11.25 C 12.640625 -12.65625 11.984375 -13.359375 10.671875 -13.359375 L 7.265625 -13.359375 L 7.265625 -5.796875 C 7.265625 -4.335938 7.035156 -3.175781 6.578125 -2.3125 C 6.128906 -1.445312 5.445312 -0.796875 4.53125 -0.359375 C 3.625 0.0664062 2.398438 0.347656 0.859375 0.484375 Z M 0.515625 -2.34375 "/></g></g><g style="fill:#112c59;fill-opacity:1;"><g transform="translate(63.122501, 43.46879)"><path style="stroke:none" d="M 12.546875 0 L 7.125 -8.390625 L 4.5625 0 L 0.609375 0 L 3.8125 -9.890625 L 4.703125 -12.109375 L 2.015625 -16.46875 L 6.203125 -16.46875 L 8.515625 -12.71875 L 10.578125 -9.578125 L 11.359375 -12.203125 L 12.515625 -16.46875 L 16.46875 -16.46875 L 13.015625 -5.96875 L 16.984375 0 Z M 12.546875 0 "/></g></g><g style="fill:#112c59;fill-opacity:1;"><g transform="translate(80.911399, 43.46879)"><path style="stroke:none" d=""/></g></g><g style="fill:#112c59;fill-opacity:1;"><g transform="translate(86.677658, 43.46879)"><path style="stroke:none" d="M 10.640625 -16.46875 C 12.179688 -16.46875 13.398438 -16.03125 14.296875 -15.15625 C 15.191406 -14.28125 15.640625 -12.910156 15.640625 -11.046875 L 15.640625 0 L 1.53125 0 L 1.53125 -16.46875 Z M 11.453125 -3.109375 L 11.453125 -11.25 C 11.453125 -12.65625 10.804688 -13.359375 9.515625 -13.359375 L 5.6875 -13.359375 L 5.6875 -3.109375 Z M 11.453125 -3.109375 "/></g></g><g style="fill:#112c59;fill-opacity:1;"><g transform="translate(103.745767, 43.46879)"><path style="stroke:none" d="M 1.765625 -13.09375 L 1.40625 -16.46875 L 5.5625 -16.46875 L 5.90625 -13.09375 L 5.90625 -8.59375 L 5.890625 -6.78125 L 1.765625 -6.0625 Z M 1.765625 -13.09375 "/></g></g><g style="fill:#112c59;fill-opacity:1;"><g transform="translate(111.213062, 43.46879)"><path style="stroke:none" d="M 13.4375 -16.46875 L 13.4375 -13.03125 L 8.25 0 L 4.09375 0 L 9.265625 -13.359375 L 0.890625 -13.359375 L 0.890625 -20.6875 L 4.640625 -20.6875 L 4.640625 -16.46875 Z M 13.4375 -16.46875 "/></g></g><g style="fill:#112c59;fill-opacity:1;"><g transform="translate(125.571038, 43.46879)"><path style="stroke:none" d="M 1.765625 -13.09375 L 1.40625 -16.46875 L 5.5625 -16.46875 L 5.90625 -13.09375 L 5.90625 -8.59375 L 5.890625 -6.78125 L 1.765625 -6.0625 Z M 1.765625 -13.09375 "/></g></g><g style="fill:#112c59;fill-opacity:1;"><g transform="translate(133.038333, 43.46879)"><path style="stroke:none" d="M 15.40625 -16.46875 C 15.382812 -12.644531 15.234375 -9.753906 14.953125 -7.796875 C 14.671875 -5.847656 13.929688 -4.203125 12.734375 -2.859375 C 11.546875 -1.523438 9.628906 -0.601562 6.984375 -0.09375 L 0.8125 1.125 L 0.234375 -2.140625 L 4.8125 -3 L 1.5 -16.46875 L 5.65625 -16.46875 L 8.5625 -3.921875 C 9.425781 -4.347656 10.050781 -4.992188 10.4375 -5.859375 C 10.820312 -6.722656 11.054688 -7.769531 11.140625 -9 C 11.234375 -10.226562 11.28125 -12.09375 11.28125 -14.59375 L 11.28125 -16.46875 Z M 15.40625 -16.46875 "/></g></g><g style="fill:#112c59;fill-opacity:1;"><g transform="translate(149.645145, 43.46879)"><path style="stroke:none" d="M 1.53125 -3.109375 L 7.359375 -3.109375 C 8.472656 -3.109375 9.34375 -3.46875 9.96875 -4.1875 C 10.59375 -4.914062 10.90625 -5.914062 10.90625 -7.1875 L 10.90625 -9.3125 C 10.90625 -10.53125 10.628906 -11.507812 10.078125 -12.25 C 9.535156 -12.988281 8.734375 -13.359375 7.671875 -13.359375 L 5.59375 -13.359375 L 5.078125 -10.90625 C 5.015625 -10.65625 4.984375 -10.414062 4.984375 -10.1875 C 4.984375 -9.695312 5.128906 -9.320312 5.421875 -9.0625 C 5.710938 -8.8125 6.1875 -8.617188 6.84375 -8.484375 L 6.171875 -5.890625 C 4.460938 -5.921875 3.222656 -6.300781 2.453125 -7.03125 C 1.679688 -7.769531 1.296875 -8.765625 1.296875 -10.015625 C 1.296875 -10.472656 1.332031 -10.894531 1.40625 -11.28125 L 2.5625 -16.46875 L 8.65625 -16.46875 C 10.65625 -16.46875 12.222656 -15.800781 13.359375 -14.46875 C 14.492188 -13.144531 15.0625 -11.359375 15.0625 -9.109375 L 15.0625 -7.390625 C 15.0625 -5.078125 14.453125 -3.265625 13.234375 -1.953125 C 12.023438 -0.648438 10.390625 0 8.328125 0 L 1.53125 0 Z M 1.53125 -3.109375 "/></g></g><g style="fill:#112c59;fill-opacity:1;"><g transform="translate(165.704158, 43.46879)"><path style="stroke:none" d="M 17.390625 -8.21875 C 17.390625 -5.550781 16.769531 -3.453125 15.53125 -1.921875 C 14.289062 -0.390625 12.546875 0.375 10.296875 0.375 C 9.484375 0.375 8.597656 0.257812 7.640625 0.03125 L 8.015625 -3.09375 C 8.722656 -2.9375 9.320312 -2.859375 9.8125 -2.859375 C 11.113281 -2.859375 12.039062 -3.296875 12.59375 -4.171875 C 13.15625 -5.046875 13.4375 -6.335938 13.4375 -8.046875 C 13.4375 -9.953125 13.171875 -11.332031 12.640625 -12.1875 C 12.117188 -13.039062 11.304688 -13.46875 10.203125 -13.46875 C 9.441406 -13.46875 8.796875 -13.234375 8.265625 -12.765625 C 7.734375 -12.304688 7.398438 -11.6875 7.265625 -10.90625 L 5.484375 0 L 1.328125 0 L 3.3125 -11.109375 L 1.015625 -16.46875 L 5.34375 -16.46875 L 6.484375 -13.1875 C 6.890625 -14.375 7.492188 -15.257812 8.296875 -15.84375 C 9.109375 -16.4375 10.035156 -16.734375 11.078125 -16.734375 C 13.128906 -16.734375 14.691406 -16.023438 15.765625 -14.609375 C 16.847656 -13.191406 17.390625 -11.0625 17.390625 -8.21875 Z M 17.390625 -8.21875 "/></g></g><g style="fill:#112c59;fill-opacity:1;"><g transform="translate(184.213835, 43.46879)"><path style="stroke:none" d=""/></g></g><g style="fill:#112c59;fill-opacity:1;"><g transform="translate(189.980093, 43.46879)"><path style="stroke:none" d="M 9.0625 -11.25 C 9.0625 -12.65625 8.40625 -13.359375 7.09375 -13.359375 L 1.125 -13.359375 L 1.125 -16.46875 L 8.25 -16.46875 C 9.789062 -16.46875 11 -16.03125 11.875 -15.15625 C 12.757812 -14.28125 13.203125 -12.910156 13.203125 -11.046875 L 13.203125 5.765625 L 9.0625 5.765625 Z M 9.0625 -11.25 "/></g></g><g style="fill:#112c59;fill-opacity:1;"><g transform="translate(204.741703, 43.46879)"><path style="stroke:none" d="M 1.765625 -13.09375 L 1.40625 -16.46875 L 5.5625 -16.46875 L 5.90625 -13.09375 L 5.90625 -8.59375 L 5.890625 -6.78125 L 1.765625 -6.0625 Z M 1.765625 -13.09375 "/></g></g><g style="fill:#112c59;fill-opacity:1;"><g transform="translate(212.208998, 43.46879)"><path style="stroke:none" d="M 12.546875 0 L 7.125 -8.390625 L 4.5625 0 L 0.609375 0 L 3.8125 -9.890625 L 4.703125 -12.109375 L 2.015625 -16.46875 L 6.203125 -16.46875 L 8.515625 -12.71875 L 10.578125 -9.578125 L 11.359375 -12.203125 L 12.515625 -16.46875 L 16.46875 -16.46875 L 13.015625 -5.96875 L 16.984375 0 Z M 12.546875 0 "/></g></g><g style="fill:#112c59;fill-opacity:1;"><g transform="translate(65.009293, 83.69514)"><path style="stroke:none" d="M 7.578125 -9.984375 C 7.578125 -10.710938 7.648438 -11.367188 7.796875 -11.953125 C 7.941406 -12.535156 8.140625 -13.003906 8.390625 -13.359375 L 1.015625 -13.359375 L 1.015625 -16.46875 L 14.53125 -16.46875 L 14.53125 -13.359375 L 12.28125 -13.359375 C 11.914062 -12.523438 11.734375 -11.398438 11.734375 -9.984375 L 11.734375 0 L 7.578125 0 Z M 7.578125 -9.984375 "/></g></g><g style="fill:#112c59;fill-opacity:1;"><g transform="translate(80.635846, 83.69514)"><path style="stroke:none" d="M 1.765625 -13.09375 L 1.40625 -16.46875 L 5.5625 -16.46875 L 5.90625 -13.09375 L 5.90625 0 L 1.765625 0 Z M 1.765625 -13.09375 "/></g></g><g style="fill:#112c59;fill-opacity:1;"><g transform="translate(88.103141, 83.69514)"><path style="stroke:none" d="M 7.0625 -3.09375 C 8.375 -3.207031 9.347656 -3.644531 9.984375 -4.40625 C 10.617188 -5.175781 11.003906 -6.484375 11.140625 -8.328125 L 11.515625 -13.359375 L 1.46875 -13.359375 L 1.46875 -16.46875 L 15.984375 -16.46875 L 15.828125 -13.78125 L 15.515625 -9.4375 C 15.210938 -3.1875 12.503906 -0.03125 7.390625 0.03125 Z M 1.234375 -8.046875 L 1.8125 -10.03125 L 5.421875 -10.03125 L 5.421875 5.765625 L 1.234375 5.765625 Z M 1.234375 -8.046875 "/></g></g><g style="fill:#112c59;fill-opacity:1;"><g transform="translate(105.113587, 83.69514)"><path style="stroke:none" d="M 1.765625 -13.09375 L 1.40625 -16.46875 L 5.5625 -16.46875 L 5.90625 -13.09375 L 5.90625 -8.59375 L 5.890625 -6.78125 L 1.765625 -6.0625 Z M 1.765625 -13.09375 "/></g></g><g style="fill:#112c59;fill-opacity:1;"><g transform="translate(112.580882, 83.69514)"><path style="stroke:none" d="M 1.53125 -3.109375 L 7.359375 -3.109375 C 8.472656 -3.109375 9.34375 -3.46875 9.96875 -4.1875 C 10.59375 -4.914062 10.90625 -5.914062 10.90625 -7.1875 L 10.90625 -9.3125 C 10.90625 -10.53125 10.628906 -11.507812 10.078125 -12.25 C 9.535156 -12.988281 8.734375 -13.359375 7.671875 -13.359375 L 5.59375 -13.359375 L 5.078125 -10.90625 C 5.015625 -10.65625 4.984375 -10.414062 4.984375 -10.1875 C 4.984375 -9.695312 5.128906 -9.320312 5.421875 -9.0625 C 5.710938 -8.8125 6.1875 -8.617188 6.84375 -8.484375 L 6.171875 -5.890625 C 4.460938 -5.921875 3.222656 -6.300781 2.453125 -7.03125 C 1.679688 -7.769531 1.296875 -8.765625 1.296875 -10.015625 C 1.296875 -10.472656 1.332031 -10.894531 1.40625 -11.28125 L 2.5625 -16.46875 L 8.65625 -16.46875 C 10.65625 -16.46875 12.222656 -15.800781 13.359375 -14.46875 C 14.492188 -13.144531 15.0625 -11.359375 15.0625 -9.109375 L 15.0625 -7.390625 C 15.0625 -5.078125 14.453125 -3.265625 13.234375 -1.953125 C 12.023438 -0.648438 10.390625 0 8.328125 0 L 1.53125 0 Z M 1.53125 -3.109375 "/></g></g><g style="fill:#112c59;fill-opacity:1;"><g transform="translate(128.639895, 83.69514)"><path style="stroke:none" d=""/></g></g><g style="fill:#112c59;fill-opacity:1;"><g transform="translate(134.406153, 83.69514)"><path style="stroke:none" d="M 1.765625 -13.09375 L 1.40625 -16.46875 L 5.5625 -16.46875 L 5.90625 -13.09375 L 5.90625 5.765625 L 1.765625 5.765625 Z M 1.765625 -13.09375 "/></g></g><g style="fill:#112c59;fill-opacity:1;"><g transform="translate(141.873448, 83.69514)"><path style="stroke:none" d="M 1.765625 -13.09375 L 1.40625 -16.46875 L 5.5625 -16.46875 L 5.90625 -13.09375 L 5.90625 0 L 1.765625 0 Z M 1.765625 -13.09375 "/></g></g><g style="fill:#112c59;fill-opacity:1;"><g transform="translate(149.340743, 83.69514)"><path style="stroke:none" d="M 17.390625 -8.21875 C 17.390625 -5.550781 16.769531 -3.453125 15.53125 -1.921875 C 14.289062 -0.390625 12.546875 0.375 10.296875 0.375 C 9.484375 0.375 8.597656 0.257812 7.640625 0.03125 L 8.015625 -3.09375 C 8.722656 -2.9375 9.320312 -2.859375 9.8125 -2.859375 C 11.113281 -2.859375 12.039062 -3.296875 12.59375 -4.171875 C 13.15625 -5.046875 13.4375 -6.335938 13.4375 -8.046875 C 13.4375 -9.953125 13.171875 -11.332031 12.640625 -12.1875 C 12.117188 -13.039062 11.304688 -13.46875 10.203125 -13.46875 C 9.441406 -13.46875 8.796875 -13.234375 8.265625 -12.765625 C 7.734375 -12.304688 7.398438 -11.6875 7.265625 -10.90625 L 5.484375 0 L 1.328125 0 L 3.3125 -11.109375 L 1.015625 -16.46875 L 5.34375 -16.46875 L 6.484375 -13.1875 C 6.890625 -14.375 7.492188 -15.257812 8.296875 -15.84375 C 9.109375 -16.4375 10.035156 -16.734375 11.078125 -16.734375 C 13.128906 -16.734375 14.691406 -16.023438 15.765625 -14.609375 C 16.847656 -13.191406 17.390625 -11.0625 17.390625 -8.21875 Z M 17.390625 -8.21875 "/></g></g><g style="fill:#112c59;fill-opacity:1;"><g transform="translate(167.85042, 83.69514)"><path style="stroke:none" d="M 1.765625 -13.09375 L 1.40625 -16.46875 L 5.5625 -16.46875 L 5.90625 -13.09375 L 5.90625 0 L 1.765625 0 Z M 1.765625 -13.09375 "/></g></g><g style="fill:#112c59;fill-opacity:1;"><g transform="translate(175.317715, 83.69514)"><path style="stroke:none" d="M 18.453125 -11.65625 C 18.492188 -7.707031 17.347656 -4.726562 15.015625 -2.71875 C 12.691406 -0.71875 9.09375 0.28125 4.21875 0.28125 L 3.3125 0.28125 L 1.15625 -16.46875 L 5.109375 -16.46875 L 5.9375 -9.34375 C 6.707031 -9.726562 7.226562 -10.304688 7.5 -11.078125 C 7.769531 -11.847656 7.894531 -13 7.875 -14.53125 L 7.875 -16.4375 L 11.828125 -16.4375 L 11.828125 -14.625 C 11.785156 -12.507812 11.359375 -10.789062 10.546875 -9.46875 C 9.742188 -8.15625 8.320312 -7.15625 6.28125 -6.46875 L 6.6875 -3.140625 C 9.4375 -3.316406 11.394531 -4.109375 12.5625 -5.515625 C 13.738281 -6.929688 14.320312 -8.898438 14.3125 -11.421875 L 14.25 -16.46875 L 18.4375 -16.46875 Z M 18.453125 -11.65625 "/></g></g><g style="fill:#112c59;fill-opacity:1;"><g transform="translate(194.865313, 83.69514)"><path style="stroke:none" d="M 1.765625 -13.09375 L 1.40625 -16.46875 L 5.5625 -16.46875 L 5.90625 -13.09375 L 5.90625 -8.59375 L 5.890625 -6.78125 L 1.765625 -6.0625 Z M 1.765625 -13.09375 "/></g></g><g style="fill:#112c59;fill-opacity:1;"><g transform="translate(202.332608, 83.69514)"><path style="stroke:none" d="M 1.765625 -13.09375 L 1.40625 -16.46875 L 5.5625 -16.46875 L 5.90625 -13.09375 L 5.90625 -8.59375 L 5.890625 -6.78125 L 1.765625 -6.0625 Z M 1.765625 -13.09375 "/></g></g><g style="fill:#112c59;fill-opacity:1;"><g transform="translate(95.353649, 123.92149)"><path style="stroke:none" d="M 4.46875 -6.515625 C 4.425781 -6.859375 4.40625 -7.109375 4.40625 -7.265625 C 4.40625 -8.128906 4.597656 -8.894531 4.984375 -9.5625 C 5.367188 -10.226562 5.921875 -10.960938 6.640625 -11.765625 C 7.171875 -12.378906 7.554688 -12.882812 7.796875 -13.28125 C 8.035156 -13.675781 8.15625 -14.085938 8.15625 -14.515625 C 8.15625 -15.128906 7.96875 -15.613281 7.59375 -15.96875 C 7.21875 -16.320312 6.71875 -16.5 6.09375 -16.5 C 5.570312 -16.5 5.09375 -16.378906 4.65625 -16.140625 C 4.226562 -15.898438 3.789062 -15.554688 3.34375 -15.109375 L 1.1875 -17.109375 C 1.875 -17.890625 2.675781 -18.507812 3.59375 -18.96875 C 4.519531 -19.4375 5.515625 -19.671875 6.578125 -19.671875 C 8.191406 -19.671875 9.488281 -19.253906 10.46875 -18.421875 C 11.445312 -17.597656 11.9375 -16.390625 11.9375 -14.796875 C 11.9375 -14.023438 11.765625 -13.347656 11.421875 -12.765625 C 11.078125 -12.179688 10.554688 -11.492188 9.859375 -10.703125 C 9.210938 -9.972656 8.722656 -9.335938 8.390625 -8.796875 C 8.066406 -8.253906 7.90625 -7.640625 7.90625 -6.953125 C 7.90625 -6.753906 7.914062 -6.609375 7.9375 -6.515625 Z M 6.203125 0.34375 C 5.503906 0.34375 4.925781 0.101562 4.46875 -0.375 C 4.007812 -0.851562 3.78125 -1.457031 3.78125 -2.1875 C 3.78125 -2.914062 4.007812 -3.519531 4.46875 -4 C 4.925781 -4.488281 5.503906 -4.734375 6.203125 -4.734375 C 6.890625 -4.734375 7.460938 -4.488281 7.921875 -4 C 8.390625 -3.519531 8.625 -2.914062 8.625 -2.1875 C 8.625 -1.457031 8.390625 -0.851562 7.921875 -0.375 C 7.460938 0.101562 6.890625 0.34375 6.203125 0.34375 Z M 6.203125 0.34375 "/></g></g><g style="fill:#112c59;fill-opacity:1;"><g transform="translate(108.529539, 123.92149)"><path style="stroke:none" d="M 8.6875 -16.46875 C 10.664062 -16.46875 12.160156 -15.8125 13.171875 -14.5 C 14.191406 -13.195312 14.703125 -11.398438 14.703125 -9.109375 L 14.703125 5.765625 L 10.5625 5.765625 L 10.5625 -9.3125 C 10.5625 -10.539062 10.316406 -11.519531 9.828125 -12.25 C 9.347656 -12.988281 8.59375 -13.359375 7.5625 -13.359375 L 5.359375 -13.359375 L 5.015625 -11.421875 C 4.984375 -10.992188 4.96875 -10.6875 4.96875 -10.5 C 4.96875 -9.925781 5.066406 -9.46875 5.265625 -9.125 C 5.460938 -8.789062 5.820312 -8.59375 6.34375 -8.53125 L 5.59375 -6.03125 C 2.570312 -6.101562 1.0625 -7.398438 1.0625 -9.921875 C 1.0625 -10.347656 1.128906 -10.914062 1.265625 -11.625 L 2.34375 -16.46875 Z M 8.6875 -16.46875 "/></g></g><g style="fill:#112c59;fill-opacity:1;"><g transform="translate(124.790381, 123.92149)"><path style="stroke:none" d="M 8.359375 -11.25 C 8.359375 -12.65625 7.71875 -13.359375 6.4375 -13.359375 L 0.8125 -13.359375 L 0.8125 -16.46875 L 7.5625 -16.46875 C 9.09375 -16.46875 10.304688 -16.03125 11.203125 -15.15625 C 12.097656 -14.28125 12.546875 -12.910156 12.546875 -11.046875 L 12.546875 0 L 8.359375 0 Z M 8.359375 -11.25 "/></g></g><g style="fill:#112c59;fill-opacity:1;"><g transform="translate(138.860039, 123.92149)"><path style="stroke:none" d="M 1.765625 -13.09375 L 1.40625 -16.46875 L 5.5625 -16.46875 L 5.90625 -13.09375 L 5.90625 0 L 1.765625 0 Z M 1.765625 -13.09375 "/></g></g><g style="fill:#112c59;fill-opacity:1;"><g transform="translate(146.327334, 123.92149)"><path style="stroke:none" d="M 15.40625 -16.46875 C 15.382812 -12.644531 15.234375 -9.753906 14.953125 -7.796875 C 14.671875 -5.847656 13.929688 -4.203125 12.734375 -2.859375 C 11.546875 -1.523438 9.628906 -0.601562 6.984375 -0.09375 L 0.8125 1.125 L 0.234375 -2.140625 L 4.8125 -3 L 1.5 -16.46875 L 5.65625 -16.46875 L 8.5625 -3.921875 C 9.425781 -4.347656 10.050781 -4.992188 10.4375 -5.859375 C 10.820312 -6.722656 11.054688 -7.769531 11.140625 -9 C 11.234375 -10.226562 11.28125 -12.09375 11.28125 -14.59375 L 11.28125 -16.46875 Z M 15.40625 -16.46875 "/></g></g><g style="fill:#112c59;fill-opacity:1;"><g transform="translate(162.934146, 123.92149)"><path style="stroke:none" d="M 11.015625 -11.25 C 11.015625 -12.65625 10.367188 -13.359375 9.078125 -13.359375 L 1.5625 -13.359375 L 1.5625 -16.46875 L 10.203125 -16.46875 C 11.742188 -16.46875 12.960938 -16.03125 13.859375 -15.15625 C 14.753906 -14.28125 15.203125 -12.910156 15.203125 -11.046875 L 15.203125 0 L 11.015625 0 Z M 1.390625 -7.875 L 1.96875 -9.8125 L 5.5625 -9.8125 L 5.5625 0 L 1.390625 0 Z M 1.390625 -7.875 "/></g></g></g></svg>