<svg xmlns="http://www.w3.org/2000/svg" xmlns:xlink="http://www.w3.org/1999/xlink" width="375" zoomAndPan="magnify" viewBox="0 0 281.25 149.999998" height="200" preserveAspectRatio="xMidYMid meet" version="1.2"><defs><clipPath id="be90d7fe51"><path d="M 0 0.199219 L 279.804688 0.199219 L 279.804688 146.683594 L 0 146.683594 Z M 0 0.199219 "/></clipPath><clipPath id="cc0c222119"><path d="M 34.410156 0.199219 L 245.367188 0.199219 C 264.367188 0.199219 279.773438 15.605469 279.773438 34.609375 L 279.773438 112.273438 C 279.773438 131.277344 264.367188 146.683594 245.367188 146.683594 L 34.410156 146.683594 C 15.40625 146.683594 0 131.277344 0 112.273438 L 0 34.609375 C 0 15.605469 15.40625 0.199219 34.410156 0.199219 Z M 34.410156 0.199219 "/></clipPath><clipPath id="0e37a8b5bb"><path d="M 0 0.199219 L 279.804688 0.199219 L 279.804688 146.683594 L 0 146.683594 Z M 0 0.199219 "/></clipPath><clipPath id="30dbdd1f68"><path d="M 34.410156 0.199219 L 245.367188 0.199219 C 264.367188 0.199219 279.773438 15.605469 279.773438 34.609375 L 279.773438 112.273438 C 279.773438 131.277344 264.367188 146.683594 245.367188 146.683594 L 34.410156 146.683594 C 15.40625 146.683594 0 131.277344 0 112.273438 L 0 34.609375 C 0 15.605469 15.40625 0.199219 34.410156 0.199219 Z M 34.410156 0.199219 "/></clipPath><clipPath id="594282f4be"><rect x="0" width="280" y="0" height="147"/></clipPath></defs><g id="b7381a6e17"><g clip-rule="nonzero" clip-path="url(#be90d7fe51)"><g clip-rule="nonzero" clip-path="url(#cc0c222119)"><g transform="matrix(1,0,0,1,0,-0.00000000000001521)"><g clip-path="url(#594282f4be)"><g clip-rule="nonzero" clip-path="url(#0e37a8b5bb)"><g clip-rule="nonzero" clip-path="url(#30dbdd1f68)"><path style=" stroke:none;fill-rule:nonzero;fill:#a2dadb;fill-opacity:1;" d="M 0 0.199219 L 279.804688 0.199219 L 279.804688 146.683594 L 0 146.683594 Z M 0 0.199219 "/></g></g></g></g></g></g><g style="fill:#112c59;fill-opacity:1;"><g transform="translate(98.930305, 54.070351)"><path style="stroke:none" d="M 0.515625 -2.34375 C 1.253906 -2.425781 1.804688 -2.570312 2.171875 -2.78125 C 2.535156 -2.988281 2.785156 -3.28125 2.921875 -3.65625 C 3.054688 -4.039062 3.113281 -4.578125 3.09375 -5.265625 L 3.09375 -16.53125 L 11.875 -16.53125 C 13.414062 -16.53125 14.628906 -16.085938 15.515625 -15.203125 C 16.398438 -14.328125 16.84375 -12.957031 16.84375 -11.09375 L 16.84375 0 L 12.6875 0 L 12.6875 -11.296875 C 12.6875 -12.703125 12.03125 -13.40625 10.71875 -13.40625 L 7.296875 -13.40625 L 7.296875 -5.8125 C 7.296875 -4.351562 7.066406 -3.1875 6.609375 -2.3125 C 6.160156 -1.445312 5.476562 -0.796875 4.5625 -0.359375 C 3.644531 0.078125 2.414062 0.363281 0.875 0.5 Z M 0.515625 -2.34375 "/></g></g><g style="fill:#112c59;fill-opacity:1;"><g transform="translate(117.313685, 54.070351)"><path style="stroke:none" d="M 1.765625 -13.140625 L 1.421875 -16.53125 L 5.59375 -16.53125 L 5.9375 -13.140625 L 5.9375 0 L 1.765625 0 Z M 1.765625 -13.140625 "/></g></g><g style="fill:#112c59;fill-opacity:1;"><g transform="translate(124.811783, 54.070351)"><path style="stroke:none" d="M 13.484375 -16.53125 L 13.484375 -13.09375 L 8.28125 0 L 4.109375 0 L 9.296875 -13.40625 L 0.890625 -13.40625 L 0.890625 -20.765625 L 4.65625 -20.765625 L 4.65625 -16.53125 Z M 13.484375 -16.53125 "/></g></g><g style="fill:#112c59;fill-opacity:1;"><g transform="translate(138.360328, 54.070351)"><path style="stroke:none" d="M 12.59375 0 L 7.15625 -8.421875 L 4.578125 0 L 0.609375 0 L 3.828125 -9.9375 L 4.71875 -12.15625 L 2.03125 -16.53125 L 6.21875 -16.53125 L 8.546875 -12.765625 L 10.625 -9.609375 L 11.40625 -12.25 L 12.5625 -16.53125 L 16.53125 -16.53125 L 13.0625 -6 L 17.046875 0 Z M 12.59375 0 "/></g></g><g style="fill:#112c59;fill-opacity:1;"><g transform="translate(156.222607, 54.070351)"><path style="stroke:none" d="M 18.53125 -11.703125 C 18.570312 -7.742188 17.421875 -4.753906 15.078125 -2.734375 C 12.742188 -0.710938 9.128906 0.296875 4.234375 0.296875 L 3.328125 0.296875 L 1.15625 -16.53125 L 5.125 -16.53125 L 5.96875 -9.375 C 6.738281 -9.757812 7.257812 -10.335938 7.53125 -11.109375 C 7.800781 -11.890625 7.925781 -13.050781 7.90625 -14.59375 L 7.90625 -16.5 L 11.875 -16.5 L 11.875 -14.671875 C 11.832031 -12.554688 11.40625 -10.835938 10.59375 -9.515625 C 9.78125 -8.191406 8.351562 -7.179688 6.3125 -6.484375 L 6.71875 -3.15625 C 9.476562 -3.332031 11.445312 -4.128906 12.625 -5.546875 C 13.800781 -6.960938 14.378906 -8.9375 14.359375 -11.46875 L 14.296875 -16.53125 L 18.5 -16.53125 Z M 18.53125 -11.703125 "/></g></g><g style="fill:#112c59;fill-opacity:1;"><g transform="translate(99.035493, 94.462637)"><path style="stroke:none" d="M 0.515625 -2.34375 C 1.253906 -2.425781 1.804688 -2.570312 2.171875 -2.78125 C 2.535156 -2.988281 2.785156 -3.28125 2.921875 -3.65625 C 3.054688 -4.039062 3.113281 -4.578125 3.09375 -5.265625 L 3.09375 -16.53125 L 11.875 -16.53125 C 13.414062 -16.53125 14.628906 -16.085938 15.515625 -15.203125 C 16.398438 -14.328125 16.84375 -12.957031 16.84375 -11.09375 L 16.84375 0 L 12.6875 0 L 12.6875 -11.296875 C 12.6875 -12.703125 12.03125 -13.40625 10.71875 -13.40625 L 7.296875 -13.40625 L 7.296875 -5.8125 C 7.296875 -4.351562 7.066406 -3.1875 6.609375 -2.3125 C 6.160156 -1.445312 5.476562 -0.796875 4.5625 -0.359375 C 3.644531 0.078125 2.414062 0.363281 0.875 0.5 Z M 0.515625 -2.34375 "/></g></g><g style="fill:#112c59;fill-opacity:1;"><g transform="translate(117.418873, 94.462637)"><path style="stroke:none" d="M 1.765625 -13.140625 L 1.421875 -16.53125 L 5.59375 -16.53125 L 5.9375 -13.140625 L 5.9375 0 L 1.765625 0 Z M 1.765625 -13.140625 "/></g></g><g style="fill:#112c59;fill-opacity:1;"><g transform="translate(124.916971, 94.462637)"><path style="stroke:none" d="M 10.890625 -6.78125 L 14.703125 0 L 0.875 0 L 0.875 -3.125 L 8.75 -3.125 L 1.1875 -16.53125 L 5.390625 -16.53125 L 8.65625 -10.71875 L 11.03125 -16.53125 L 15.140625 -16.53125 Z M 10.890625 -6.78125 "/></g></g><g style="fill:#112c59;fill-opacity:1;"><g transform="translate(141.10013, 94.462637)"><path style="stroke:none" d="M 1.765625 -13.140625 L 1.421875 -16.53125 L 5.59375 -16.53125 L 5.9375 -13.140625 L 5.9375 0 L 1.765625 0 Z M 1.765625 -13.140625 "/></g></g><g style="fill:#112c59;fill-opacity:1;"><g transform="translate(148.598228, 94.462637)"><path style="stroke:none" d="M 1.53125 -3.125 L 7.390625 -3.125 C 8.503906 -3.125 9.375 -3.484375 10 -4.203125 C 10.625 -4.929688 10.9375 -5.929688 10.9375 -7.203125 L 10.9375 -9.359375 C 10.9375 -10.566406 10.660156 -11.539062 10.109375 -12.28125 C 9.566406 -13.03125 8.765625 -13.40625 7.703125 -13.40625 L 5.609375 -13.40625 L 5.09375 -10.9375 C 5.039062 -10.6875 5.015625 -10.445312 5.015625 -10.21875 C 5.015625 -9.738281 5.15625 -9.367188 5.4375 -9.109375 C 5.726562 -8.847656 6.203125 -8.648438 6.859375 -8.515625 L 6.203125 -5.90625 C 4.484375 -5.945312 3.234375 -6.332031 2.453125 -7.0625 C 1.679688 -7.800781 1.296875 -8.796875 1.296875 -10.046875 C 1.296875 -10.503906 1.335938 -10.929688 1.421875 -11.328125 L 2.578125 -16.53125 L 8.6875 -16.53125 C 10.695312 -16.53125 12.269531 -15.863281 13.40625 -14.53125 C 14.539062 -13.195312 15.109375 -11.40625 15.109375 -9.15625 L 15.109375 -7.40625 C 15.109375 -5.09375 14.5 -3.28125 13.28125 -1.96875 C 12.070312 -0.65625 10.4375 0 8.375 0 L 1.53125 0 Z M 1.53125 -3.125 "/></g></g><g style="fill:#112c59;fill-opacity:1;"><g transform="translate(164.723485, 94.462637)"><path style="stroke:none" d="M 1.125 -3.125 L 5.359375 -3.125 L 5.359375 -11.5 C 5.359375 -12.1875 5.226562 -12.675781 4.96875 -12.96875 C 4.707031 -13.257812 4.304688 -13.441406 3.765625 -13.515625 L 1.734375 -13.8125 L 2.265625 -16.875 L 5.875 -16.421875 C 7.050781 -16.265625 7.953125 -15.757812 8.578125 -14.90625 C 9.210938 -14.0625 9.53125 -12.960938 9.53125 -11.609375 L 9.53125 0 L 1.125 0 Z M 1.125 -3.125 "/></g></g></g></svg>