<svg xmlns="http://www.w3.org/2000/svg" xmlns:xlink="http://www.w3.org/1999/xlink" width="103" zoomAndPan="magnify" viewBox="0 0 77.25 100.499998" height="134" preserveAspectRatio="xMidYMid meet" version="1.0"><defs><clipPath id="b6a2689561"><path d="M 0 0.234375 L 76.507812 0.234375 L 76.507812 99.769531 L 0 99.769531 Z M 0 0.234375 " clip-rule="nonzero"/></clipPath></defs><path fill="#e7e5e7" d="M 39.648438 1.558594 C 37.746094 1.574219 35.902344 2.65625 35.09375 4.429688 L 2.207031 76.488281 C 1.621094 77.777344 1.425781 78.925781 1.601562 79.816406 C 1.773438 80.707031 2.253906 81.425781 3.40625 82.058594 L 31.078125 97.3125 C 33.226562 98.496094 36 97.332031 37.058594 95.015625 L 72.058594 18.320312 C 73.050781 16.144531 72.289062 13.496094 70.292969 12.480469 C 70.160156 12.410156 70.023438 12.351562 69.878906 12.296875 L 41.382812 1.855469 C 40.816406 1.648438 40.230469 1.554688 39.648438 1.558594 Z M 39.648438 1.558594 " fill-opacity="1" fill-rule="evenodd"/><path fill="#dad9d9" d="M 39.777344 2.449219 C 37.910156 2.460938 36.097656 3.527344 35.300781 5.273438 L 32.785156 10.78125 L 50.800781 64.605469 L 58.613281 47.484375 L 43.9375 3.640625 L 41.484375 2.742188 C 40.929688 2.539062 40.351562 2.445312 39.777344 2.449219 Z M 51.722656 9.652344 L 61.945312 40.1875 L 67.140625 28.804688 L 60.902344 10.171875 L 59.59375 11.527344 C 59.097656 12.039062 58.367188 12.328125 57.574219 12.007812 Z M 51.722656 9.652344 " fill-opacity="1" fill-rule="evenodd"/><g clip-path="url(#b6a2689561)"><path fill="#000000" d="M 39.769531 0.3125 C 37.09375 0.320312 34.523438 1.839844 33.359375 4.386719 L 1.027344 75.234375 C 0.328125 76.769531 -0.015625 78.324219 0.277344 79.804688 C 0.566406 81.285156 1.550781 82.605469 3.113281 83.46875 L 30.324219 98.464844 C 32.167969 99.480469 34.652344 99.535156 36.554688 99.417969 C 38.550781 99.296875 39.570312 98.492188 40.433594 96.589844 L 75.730469 18.753906 C 76.382812 17.320312 75.839844 15.585938 75.230469 14.78125 C 74.042969 13.210938 72.550781 12.027344 70.933594 11.292969 C 70.703125 11.1875 70.46875 11.089844 70.234375 11.003906 L 42.21875 0.738281 C 41.417969 0.445312 40.589844 0.308594 39.769531 0.3125 Z M 39.78125 2.449219 C 40.351562 2.441406 40.929688 2.539062 41.484375 2.742188 L 49.417969 5.648438 L 49.117188 7.410156 C 49.023438 7.972656 49.160156 8.617188 49.734375 8.851562 L 57.578125 12.007812 C 58.367188 12.328125 59.101562 12.039062 59.59375 11.527344 L 61.128906 9.941406 L 69.503906 13.007812 C 69.582031 13.039062 69.660156 13.070312 69.738281 13.101562 C 69.765625 13.113281 69.789062 13.125 69.8125 13.136719 C 69.847656 13.152344 69.878906 13.167969 69.910156 13.1875 C 71.875 14.1875 72.625 16.792969 71.648438 18.929688 L 37.234375 94.335938 C 36.191406 96.617188 33.464844 97.757812 31.355469 96.59375 L 4.148438 81.597656 C 3.015625 80.976562 2.542969 80.269531 2.371094 79.394531 C 2.199219 78.515625 2.386719 77.386719 2.96875 76.121094 L 35.300781 5.269531 C 36.097656 3.527344 37.910156 2.460938 39.78125 2.449219 Z M 39.78125 2.449219 " fill-opacity="1" fill-rule="evenodd"/></g><path fill="#666666" d="M 54.375 7.5625 C 54.242188 7.5625 54.117188 7.589844 53.996094 7.640625 C 53.871094 7.6875 53.765625 7.761719 53.671875 7.855469 C 53.582031 7.945312 53.507812 8.054688 53.457031 8.175781 C 53.410156 8.296875 53.382812 8.421875 53.382812 8.554688 C 53.382812 8.6875 53.410156 8.8125 53.457031 8.933594 C 53.507812 9.054688 53.582031 9.164062 53.671875 9.253906 C 53.765625 9.347656 53.875 9.421875 53.996094 9.46875 C 54.117188 9.519531 54.242188 9.546875 54.375 9.546875 C 54.507812 9.546875 54.632812 9.519531 54.753906 9.472656 C 54.875 9.421875 54.984375 9.347656 55.074219 9.253906 C 55.167969 9.164062 55.242188 9.054688 55.289062 8.933594 C 55.339844 8.8125 55.367188 8.6875 55.367188 8.554688 C 55.367188 8.421875 55.339844 8.296875 55.289062 8.175781 C 55.242188 8.054688 55.167969 7.945312 55.074219 7.851562 C 54.984375 7.761719 54.875 7.6875 54.753906 7.636719 C 54.632812 7.589844 54.507812 7.5625 54.375 7.5625 Z M 54.367188 7.980469 C 54.371094 7.980469 54.371094 7.980469 54.375 7.980469 C 54.53125 7.980469 54.667969 8.035156 54.777344 8.148438 C 54.890625 8.261719 54.949219 8.394531 54.949219 8.554688 C 54.949219 8.714844 54.890625 8.847656 54.777344 8.960938 C 54.667969 9.074219 54.53125 9.128906 54.375 9.128906 C 54.214844 9.128906 54.078125 9.074219 53.96875 8.960938 C 53.855469 8.847656 53.800781 8.714844 53.800781 8.554688 C 53.800781 8.398438 53.855469 8.261719 53.964844 8.152344 C 54.074219 8.039062 54.207031 7.984375 54.367188 7.980469 Z M 71.113281 12.242188 C 72.761719 13.679688 74.042969 16.191406 73.0625 18.371094 C 73.0625 18.371094 49.863281 69.867188 38.171875 95.8125 C 37.464844 97.382812 36.664062 97.980469 34.941406 98.382812 C 35.863281 98.46875 36.582031 98.5 37.574219 98.171875 C 38.175781 97.972656 38.8125 97.230469 39.328125 96.082031 C 39.328125 96.082031 62.519531 44.90625 74.289062 18.964844 C 75.035156 17.324219 74.644531 15.878906 74.21875 15.035156 C 73.742188 14.101562 72.339844 12.824219 71.113281 12.242188 Z M 71.113281 12.242188 " fill-opacity="1" fill-rule="evenodd"/></svg>